%TF.GenerationSoftware,KiCad,Pcbnew,(5.1.12)-1*%
%TF.CreationDate,2022-04-15T18:24:28+05:30*%
%TF.ProjectId,piezo,7069657a-6f2e-46b6-9963-61645f706362,rev?*%
%TF.SameCoordinates,Original*%
%TF.FileFunction,Copper,L2,Bot*%
%TF.FilePolarity,Positive*%
%FSLAX46Y46*%
G04 Gerber Fmt 4.6, Leading zero omitted, Abs format (unit mm)*
G04 Created by KiCad (PCBNEW (5.1.12)-1) date 2022-04-15 18:24:28*
%MOMM*%
%LPD*%
G01*
G04 APERTURE LIST*
%TA.AperFunction,ComponentPad*%
%ADD10R,1.500000X1.500000*%
%TD*%
%TA.AperFunction,ComponentPad*%
%ADD11C,1.500000*%
%TD*%
%TA.AperFunction,ComponentPad*%
%ADD12C,1.600000*%
%TD*%
%TA.AperFunction,ComponentPad*%
%ADD13O,1.700000X1.700000*%
%TD*%
%TA.AperFunction,ComponentPad*%
%ADD14R,1.700000X1.700000*%
%TD*%
%TA.AperFunction,ComponentPad*%
%ADD15O,1.600000X1.600000*%
%TD*%
%TA.AperFunction,ComponentPad*%
%ADD16R,1.600000X1.600000*%
%TD*%
%TA.AperFunction,ComponentPad*%
%ADD17O,2.000000X1.905000*%
%TD*%
%TA.AperFunction,ComponentPad*%
%ADD18R,2.000000X1.905000*%
%TD*%
%TA.AperFunction,ComponentPad*%
%ADD19O,1.400000X1.400000*%
%TD*%
%TA.AperFunction,ComponentPad*%
%ADD20C,1.400000*%
%TD*%
%TA.AperFunction,ComponentPad*%
%ADD21O,2.500000X2.500000*%
%TD*%
%TA.AperFunction,ComponentPad*%
%ADD22R,2.500000X2.500000*%
%TD*%
%TA.AperFunction,ComponentPad*%
%ADD23C,2.600000*%
%TD*%
%TA.AperFunction,ComponentPad*%
%ADD24R,2.600000X2.600000*%
%TD*%
%TA.AperFunction,ComponentPad*%
%ADD25C,1.800000*%
%TD*%
%TA.AperFunction,ComponentPad*%
%ADD26R,1.800000X1.800000*%
%TD*%
%TA.AperFunction,ComponentPad*%
%ADD27O,2.200000X2.200000*%
%TD*%
%TA.AperFunction,ComponentPad*%
%ADD28R,2.200000X2.200000*%
%TD*%
G04 APERTURE END LIST*
D10*
%TO.P,Q1,1*%
%TO.N,Net-(D2-Pad2)*%
X94488000Y-76708000D03*
D11*
%TO.P,Q1,3*%
%TO.N,GND*%
X89408000Y-76708000D03*
%TO.P,Q1,2*%
%TO.N,Net-(Q1-Pad2)*%
X91948000Y-79248000D03*
%TD*%
D12*
%TO.P,C4,2*%
%TO.N,Net-(C4-Pad2)*%
X69516000Y-106680000D03*
%TO.P,C4,1*%
%TO.N,GND*%
X64516000Y-106680000D03*
%TD*%
%TO.P,C3,2*%
%TO.N,Net-(C3-Pad2)*%
X69516000Y-101092000D03*
%TO.P,C3,1*%
%TO.N,GND*%
X64516000Y-101092000D03*
%TD*%
D13*
%TO.P,J7,3*%
%TO.N,Net-(J7-Pad3)*%
X79756000Y-113284000D03*
%TO.P,J7,2*%
%TO.N,Net-(J7-Pad2)*%
X79756000Y-110744000D03*
D14*
%TO.P,J7,1*%
%TO.N,Net-(J7-Pad1)*%
X79756000Y-108204000D03*
%TD*%
D13*
%TO.P,J6,5*%
%TO.N,Net-(J6-Pad5)*%
X80264000Y-95504000D03*
%TO.P,J6,4*%
%TO.N,Net-(J6-Pad4)*%
X80264000Y-92964000D03*
%TO.P,J6,3*%
%TO.N,Net-(J6-Pad3)*%
X80264000Y-90424000D03*
%TO.P,J6,2*%
%TO.N,Net-(J6-Pad2)*%
X80264000Y-87884000D03*
D14*
%TO.P,J6,1*%
%TO.N,Net-(J6-Pad1)*%
X80264000Y-85344000D03*
%TD*%
D11*
%TO.P,Y1,2*%
%TO.N,Net-(C4-Pad2)*%
X75184000Y-106480000D03*
%TO.P,Y1,1*%
%TO.N,Net-(C3-Pad2)*%
X75184000Y-101600000D03*
%TD*%
D15*
%TO.P,U2,28*%
%TO.N,SCL*%
X91948000Y-82804000D03*
%TO.P,U2,14*%
%TO.N,N/C*%
X84328000Y-115824000D03*
%TO.P,U2,27*%
%TO.N,Sda*%
X91948000Y-85344000D03*
%TO.P,U2,13*%
%TO.N,Net-(J7-Pad3)*%
X84328000Y-113284000D03*
%TO.P,U2,26*%
%TO.N,N/C*%
X91948000Y-87884000D03*
%TO.P,U2,12*%
%TO.N,Net-(J7-Pad2)*%
X84328000Y-110744000D03*
%TO.P,U2,25*%
%TO.N,Relay_pin*%
X91948000Y-90424000D03*
%TO.P,U2,11*%
%TO.N,Net-(J7-Pad1)*%
X84328000Y-108204000D03*
%TO.P,U2,24*%
%TO.N,B_in*%
X91948000Y-92964000D03*
%TO.P,U2,10*%
%TO.N,Net-(C4-Pad2)*%
X84328000Y-105664000D03*
%TO.P,U2,23*%
%TO.N,Pin*%
X91948000Y-95504000D03*
%TO.P,U2,9*%
%TO.N,Net-(C3-Pad2)*%
X84328000Y-103124000D03*
%TO.P,U2,22*%
%TO.N,GND*%
X91948000Y-98044000D03*
%TO.P,U2,8*%
X84328000Y-100584000D03*
%TO.P,U2,21*%
%TO.N,N/C*%
X91948000Y-100584000D03*
%TO.P,U2,7*%
%TO.N,VCC*%
X84328000Y-98044000D03*
%TO.P,U2,20*%
X91948000Y-103124000D03*
%TO.P,U2,6*%
%TO.N,Net-(J6-Pad5)*%
X84328000Y-95504000D03*
%TO.P,U2,19*%
%TO.N,N/C*%
X91948000Y-105664000D03*
%TO.P,U2,5*%
%TO.N,Net-(J6-Pad4)*%
X84328000Y-92964000D03*
%TO.P,U2,18*%
%TO.N,N/C*%
X91948000Y-108204000D03*
%TO.P,U2,4*%
%TO.N,Net-(J6-Pad3)*%
X84328000Y-90424000D03*
%TO.P,U2,17*%
%TO.N,N/C*%
X91948000Y-110744000D03*
%TO.P,U2,3*%
%TO.N,Net-(J6-Pad2)*%
X84328000Y-87884000D03*
%TO.P,U2,16*%
%TO.N,N/C*%
X91948000Y-113284000D03*
%TO.P,U2,2*%
%TO.N,Net-(J6-Pad1)*%
X84328000Y-85344000D03*
%TO.P,U2,15*%
%TO.N,N/C*%
X91948000Y-115824000D03*
D16*
%TO.P,U2,1*%
X84328000Y-82804000D03*
%TD*%
D17*
%TO.P,U1,3*%
%TO.N,VCC*%
X67056000Y-82296000D03*
%TO.P,U1,2*%
%TO.N,GND*%
X67056000Y-84836000D03*
D18*
%TO.P,U1,1*%
%TO.N,+12V*%
X67056000Y-87376000D03*
%TD*%
D19*
%TO.P,R7,2*%
%TO.N,Net-(D3-Pad2)*%
X103378000Y-76200000D03*
D20*
%TO.P,R7,1*%
%TO.N,VCC*%
X110998000Y-76200000D03*
%TD*%
D19*
%TO.P,R6,2*%
%TO.N,Relay_pin*%
X95504000Y-90424000D03*
D20*
%TO.P,R6,1*%
%TO.N,Net-(Q1-Pad2)*%
X95504000Y-82804000D03*
%TD*%
D19*
%TO.P,R5,2*%
%TO.N,GND*%
X95758000Y-98044000D03*
D20*
%TO.P,R5,1*%
%TO.N,Pin*%
X95758000Y-105664000D03*
%TD*%
D19*
%TO.P,R4,2*%
%TO.N,Pin*%
X95758000Y-108204000D03*
D20*
%TO.P,R4,1*%
%TO.N,Net-(J3-Pad2)*%
X95758000Y-115824000D03*
%TD*%
D19*
%TO.P,R3,2*%
%TO.N,GND*%
X100330000Y-98552000D03*
D20*
%TO.P,R3,1*%
%TO.N,B_in*%
X100330000Y-106172000D03*
%TD*%
D19*
%TO.P,R2,2*%
%TO.N,B_in*%
X100330000Y-108458000D03*
D20*
%TO.P,R2,1*%
%TO.N,Net-(J2-Pad2)*%
X100330000Y-116078000D03*
%TD*%
D19*
%TO.P,R1,2*%
%TO.N,Net-(D1-Pad2)*%
X76708000Y-90424000D03*
D20*
%TO.P,R1,1*%
%TO.N,VCC*%
X76708000Y-82804000D03*
%TD*%
D21*
%TO.P,K1,5*%
%TO.N,VCC*%
X107410000Y-80360000D03*
%TO.P,K1,4*%
%TO.N,N/C*%
X119610000Y-80360000D03*
%TO.P,K1,3*%
%TO.N,Net-(J5-Pad2)*%
X119610000Y-92360000D03*
%TO.P,K1,2*%
%TO.N,Net-(D2-Pad2)*%
X107410000Y-92360000D03*
D22*
%TO.P,K1,1*%
%TO.N,Net-(J5-Pad1)*%
X105410000Y-86360000D03*
%TD*%
D23*
%TO.P,J5,2*%
%TO.N,Net-(J5-Pad2)*%
X122094000Y-101346000D03*
D24*
%TO.P,J5,1*%
%TO.N,Net-(J5-Pad1)*%
X117094000Y-101346000D03*
%TD*%
D13*
%TO.P,J4,4*%
%TO.N,SCL*%
X79756000Y-75692000D03*
%TO.P,J4,3*%
%TO.N,Sda*%
X77216000Y-75692000D03*
%TO.P,J4,2*%
%TO.N,GND*%
X74676000Y-75692000D03*
D14*
%TO.P,J4,1*%
%TO.N,VCC*%
X72136000Y-75692000D03*
%TD*%
D23*
%TO.P,J3,2*%
%TO.N,Net-(J3-Pad2)*%
X107696000Y-103552000D03*
D24*
%TO.P,J3,1*%
%TO.N,GND*%
X107696000Y-98552000D03*
%TD*%
D23*
%TO.P,J2,2*%
%TO.N,Net-(J2-Pad2)*%
X107696000Y-114728000D03*
D24*
%TO.P,J2,1*%
%TO.N,GND*%
X107696000Y-109728000D03*
%TD*%
D23*
%TO.P,J1,2*%
%TO.N,+12V*%
X57404000Y-86788000D03*
D24*
%TO.P,J1,1*%
%TO.N,GND*%
X57404000Y-81788000D03*
%TD*%
D25*
%TO.P,D3,2*%
%TO.N,Net-(D3-Pad2)*%
X100330000Y-76454000D03*
D26*
%TO.P,D3,1*%
%TO.N,Net-(D2-Pad2)*%
X97790000Y-76454000D03*
%TD*%
D27*
%TO.P,D2,2*%
%TO.N,Net-(D2-Pad2)*%
X99060000Y-81280000D03*
D28*
%TO.P,D2,1*%
%TO.N,VCC*%
X99060000Y-91440000D03*
%TD*%
D25*
%TO.P,D1,2*%
%TO.N,Net-(D1-Pad2)*%
X74676000Y-93472000D03*
D26*
%TO.P,D1,1*%
%TO.N,GND*%
X74676000Y-96012000D03*
%TD*%
D12*
%TO.P,C2,2*%
%TO.N,GND*%
X72644000Y-83272000D03*
D16*
%TO.P,C2,1*%
%TO.N,VCC*%
X72644000Y-80772000D03*
%TD*%
D12*
%TO.P,C1,2*%
%TO.N,GND*%
X72644000Y-86908000D03*
D16*
%TO.P,C1,1*%
%TO.N,+12V*%
X72644000Y-89408000D03*
%TD*%
M02*
