%TF.GenerationSoftware,KiCad,Pcbnew,(5.1.12)-1*%
%TF.CreationDate,2022-04-15T18:24:28+05:30*%
%TF.ProjectId,piezo,7069657a-6f2e-46b6-9963-61645f706362,rev?*%
%TF.SameCoordinates,Original*%
%TF.FileFunction,Legend,Top*%
%TF.FilePolarity,Positive*%
%FSLAX46Y46*%
G04 Gerber Fmt 4.6, Leading zero omitted, Abs format (unit mm)*
G04 Created by KiCad (PCBNEW (5.1.12)-1) date 2022-04-15 18:24:28*
%MOMM*%
%LPD*%
G01*
G04 APERTURE LIST*
%ADD10C,0.120000*%
%ADD11C,0.150000*%
G04 APERTURE END LIST*
D10*
%TO.C,Q1*%
X93748000Y-74858000D02*
X90148000Y-74858000D01*
X89623816Y-75585205D02*
G75*
G02*
X90148000Y-74858000I2324184J-1122795D01*
G01*
X89592543Y-77806371D02*
G75*
G03*
X90838000Y-79058000I2355457J1098371D01*
G01*
X94315199Y-77811842D02*
G75*
G02*
X93088000Y-79058000I-2367199J1103842D01*
G01*
X94272184Y-75585205D02*
G75*
G03*
X93748000Y-74858000I-2324184J-1122795D01*
G01*
%TO.C,C4*%
X69286000Y-107735000D02*
X69286000Y-107750000D01*
X69286000Y-105610000D02*
X69286000Y-105625000D01*
X64746000Y-107735000D02*
X64746000Y-107750000D01*
X64746000Y-105610000D02*
X64746000Y-105625000D01*
X64746000Y-107750000D02*
X69286000Y-107750000D01*
X64746000Y-105610000D02*
X69286000Y-105610000D01*
%TO.C,C3*%
X69486000Y-102147000D02*
X69486000Y-102462000D01*
X69486000Y-99722000D02*
X69486000Y-100037000D01*
X64546000Y-102147000D02*
X64546000Y-102462000D01*
X64546000Y-99722000D02*
X64546000Y-100037000D01*
X64546000Y-102462000D02*
X69486000Y-102462000D01*
X64546000Y-99722000D02*
X69486000Y-99722000D01*
%TO.C,J7*%
X78426000Y-106874000D02*
X79756000Y-106874000D01*
X78426000Y-108204000D02*
X78426000Y-106874000D01*
X78426000Y-109474000D02*
X81086000Y-109474000D01*
X81086000Y-109474000D02*
X81086000Y-114614000D01*
X78426000Y-109474000D02*
X78426000Y-114614000D01*
X78426000Y-114614000D02*
X81086000Y-114614000D01*
%TO.C,J6*%
X78934000Y-84014000D02*
X80264000Y-84014000D01*
X78934000Y-85344000D02*
X78934000Y-84014000D01*
X78934000Y-86614000D02*
X81594000Y-86614000D01*
X81594000Y-86614000D02*
X81594000Y-96834000D01*
X78934000Y-86614000D02*
X78934000Y-96834000D01*
X78934000Y-96834000D02*
X81594000Y-96834000D01*
%TO.C,Y1*%
X72659000Y-100915000D02*
X72659000Y-107165000D01*
X77709000Y-100915000D02*
X77709000Y-107165000D01*
X72659000Y-107165000D02*
G75*
G03*
X77709000Y-107165000I2525000J0D01*
G01*
X72659000Y-100915000D02*
G75*
G02*
X77709000Y-100915000I2525000J0D01*
G01*
%TO.C,U2*%
X90788000Y-81474000D02*
X89138000Y-81474000D01*
X90788000Y-117154000D02*
X90788000Y-81474000D01*
X85488000Y-117154000D02*
X90788000Y-117154000D01*
X85488000Y-81474000D02*
X85488000Y-117154000D01*
X87138000Y-81474000D02*
X85488000Y-81474000D01*
X89138000Y-81474000D02*
G75*
G02*
X87138000Y-81474000I-1000000J0D01*
G01*
%TO.C,U1*%
X63786000Y-82985000D02*
X65296000Y-82985000D01*
X63786000Y-86686000D02*
X65296000Y-86686000D01*
X65296000Y-89956000D02*
X65296000Y-79716000D01*
X63786000Y-79716000D02*
X68427000Y-79716000D01*
X63786000Y-89956000D02*
X68427000Y-89956000D01*
X68427000Y-89956000D02*
X68427000Y-79716000D01*
X63786000Y-89956000D02*
X63786000Y-79716000D01*
%TO.C,R7*%
X104318000Y-76200000D02*
X105268000Y-76200000D01*
X110058000Y-76200000D02*
X109108000Y-76200000D01*
X105268000Y-77120000D02*
X109108000Y-77120000D01*
X105268000Y-75280000D02*
X105268000Y-77120000D01*
X109108000Y-75280000D02*
X105268000Y-75280000D01*
X109108000Y-77120000D02*
X109108000Y-75280000D01*
%TO.C,R6*%
X95504000Y-89484000D02*
X95504000Y-88534000D01*
X95504000Y-83744000D02*
X95504000Y-84694000D01*
X96424000Y-88534000D02*
X96424000Y-84694000D01*
X94584000Y-88534000D02*
X96424000Y-88534000D01*
X94584000Y-84694000D02*
X94584000Y-88534000D01*
X96424000Y-84694000D02*
X94584000Y-84694000D01*
%TO.C,R5*%
X95758000Y-98984000D02*
X95758000Y-99934000D01*
X95758000Y-104724000D02*
X95758000Y-103774000D01*
X94838000Y-99934000D02*
X94838000Y-103774000D01*
X96678000Y-99934000D02*
X94838000Y-99934000D01*
X96678000Y-103774000D02*
X96678000Y-99934000D01*
X94838000Y-103774000D02*
X96678000Y-103774000D01*
%TO.C,R4*%
X95758000Y-109144000D02*
X95758000Y-110094000D01*
X95758000Y-114884000D02*
X95758000Y-113934000D01*
X94838000Y-110094000D02*
X94838000Y-113934000D01*
X96678000Y-110094000D02*
X94838000Y-110094000D01*
X96678000Y-113934000D02*
X96678000Y-110094000D01*
X94838000Y-113934000D02*
X96678000Y-113934000D01*
%TO.C,R3*%
X100330000Y-99492000D02*
X100330000Y-100442000D01*
X100330000Y-105232000D02*
X100330000Y-104282000D01*
X99410000Y-100442000D02*
X99410000Y-104282000D01*
X101250000Y-100442000D02*
X99410000Y-100442000D01*
X101250000Y-104282000D02*
X101250000Y-100442000D01*
X99410000Y-104282000D02*
X101250000Y-104282000D01*
%TO.C,R2*%
X100330000Y-109398000D02*
X100330000Y-110348000D01*
X100330000Y-115138000D02*
X100330000Y-114188000D01*
X99410000Y-110348000D02*
X99410000Y-114188000D01*
X101250000Y-110348000D02*
X99410000Y-110348000D01*
X101250000Y-114188000D02*
X101250000Y-110348000D01*
X99410000Y-114188000D02*
X101250000Y-114188000D01*
%TO.C,R1*%
X76708000Y-89484000D02*
X76708000Y-88534000D01*
X76708000Y-83744000D02*
X76708000Y-84694000D01*
X77628000Y-88534000D02*
X77628000Y-84694000D01*
X75788000Y-88534000D02*
X77628000Y-88534000D01*
X75788000Y-84694000D02*
X75788000Y-88534000D01*
X77628000Y-84694000D02*
X75788000Y-84694000D01*
%TO.C,K1*%
X107610000Y-85010000D02*
X107610000Y-81860000D01*
X107610000Y-90860000D02*
X107610000Y-87710000D01*
X102500000Y-87360000D02*
X102500000Y-85360000D01*
X108210000Y-86710000D02*
X108210000Y-86010000D01*
X107010000Y-86710000D02*
X108210000Y-86710000D01*
X107010000Y-86010000D02*
X107010000Y-86710000D01*
X108210000Y-86010000D02*
X107010000Y-86010000D01*
X107810000Y-86710000D02*
X107410000Y-86010000D01*
X125460000Y-94710000D02*
X125460000Y-78010000D01*
X102760000Y-94710000D02*
X125460000Y-94710000D01*
X102760000Y-78010000D02*
X102760000Y-94710000D01*
X125460000Y-78010000D02*
X102760000Y-78010000D01*
%TO.C,J5*%
X114294000Y-106246000D02*
X114794000Y-106246000D01*
X114294000Y-105506000D02*
X114294000Y-106246000D01*
X120867000Y-102369000D02*
X120820000Y-102415000D01*
X123164000Y-100071000D02*
X123129000Y-100107000D01*
X121060000Y-102585000D02*
X121025000Y-102620000D01*
X123369000Y-100277000D02*
X123322000Y-100323000D01*
X124654000Y-96085000D02*
X124654000Y-106006000D01*
X114534000Y-96085000D02*
X114534000Y-106006000D01*
X114534000Y-106006000D02*
X124654000Y-106006000D01*
X114534000Y-96085000D02*
X124654000Y-96085000D01*
X114534000Y-99045000D02*
X124654000Y-99045000D01*
X114534000Y-103946000D02*
X124654000Y-103946000D01*
X114534000Y-105446000D02*
X124654000Y-105446000D01*
X123774000Y-101346000D02*
G75*
G03*
X123774000Y-101346000I-1680000J0D01*
G01*
X117122805Y-103026253D02*
G75*
G02*
X116410000Y-102881000I-28805J1680253D01*
G01*
X115558574Y-102029042D02*
G75*
G02*
X115559000Y-100662000I1535426J683042D01*
G01*
X116410958Y-99810574D02*
G75*
G02*
X117778000Y-99811000I683042J-1535426D01*
G01*
X118629426Y-100662958D02*
G75*
G02*
X118629000Y-102030000I-1535426J-683042D01*
G01*
X117777318Y-102880756D02*
G75*
G02*
X117094000Y-103026000I-683318J1534756D01*
G01*
%TO.C,J4*%
X70806000Y-77022000D02*
X70806000Y-75692000D01*
X72136000Y-77022000D02*
X70806000Y-77022000D01*
X73406000Y-77022000D02*
X73406000Y-74362000D01*
X73406000Y-74362000D02*
X81086000Y-74362000D01*
X73406000Y-77022000D02*
X81086000Y-77022000D01*
X81086000Y-77022000D02*
X81086000Y-74362000D01*
%TO.C,J3*%
X102796000Y-95752000D02*
X102796000Y-96252000D01*
X103536000Y-95752000D02*
X102796000Y-95752000D01*
X106673000Y-102325000D02*
X106627000Y-102278000D01*
X108971000Y-104622000D02*
X108935000Y-104587000D01*
X106457000Y-102518000D02*
X106422000Y-102483000D01*
X108765000Y-104827000D02*
X108719000Y-104780000D01*
X112957000Y-106112000D02*
X103036000Y-106112000D01*
X112957000Y-95992000D02*
X103036000Y-95992000D01*
X103036000Y-95992000D02*
X103036000Y-106112000D01*
X112957000Y-95992000D02*
X112957000Y-106112000D01*
X109997000Y-95992000D02*
X109997000Y-106112000D01*
X105096000Y-95992000D02*
X105096000Y-106112000D01*
X103596000Y-95992000D02*
X103596000Y-106112000D01*
X109376000Y-103552000D02*
G75*
G03*
X109376000Y-103552000I-1680000J0D01*
G01*
X106015747Y-98580805D02*
G75*
G02*
X106161000Y-97868000I1680253J28805D01*
G01*
X107012958Y-97016574D02*
G75*
G02*
X108380000Y-97017000I683042J-1535426D01*
G01*
X109231426Y-97868958D02*
G75*
G02*
X109231000Y-99236000I-1535426J-683042D01*
G01*
X108379042Y-100087426D02*
G75*
G02*
X107012000Y-100087000I-683042J1535426D01*
G01*
X106161244Y-99235318D02*
G75*
G02*
X106016000Y-98552000I1534756J683318D01*
G01*
%TO.C,J2*%
X102796000Y-106928000D02*
X102796000Y-107428000D01*
X103536000Y-106928000D02*
X102796000Y-106928000D01*
X106673000Y-113501000D02*
X106627000Y-113454000D01*
X108971000Y-115798000D02*
X108935000Y-115763000D01*
X106457000Y-113694000D02*
X106422000Y-113659000D01*
X108765000Y-116003000D02*
X108719000Y-115956000D01*
X112957000Y-117288000D02*
X103036000Y-117288000D01*
X112957000Y-107168000D02*
X103036000Y-107168000D01*
X103036000Y-107168000D02*
X103036000Y-117288000D01*
X112957000Y-107168000D02*
X112957000Y-117288000D01*
X109997000Y-107168000D02*
X109997000Y-117288000D01*
X105096000Y-107168000D02*
X105096000Y-117288000D01*
X103596000Y-107168000D02*
X103596000Y-117288000D01*
X109376000Y-114728000D02*
G75*
G03*
X109376000Y-114728000I-1680000J0D01*
G01*
X106015747Y-109756805D02*
G75*
G02*
X106161000Y-109044000I1680253J28805D01*
G01*
X107012958Y-108192574D02*
G75*
G02*
X108380000Y-108193000I683042J-1535426D01*
G01*
X109231426Y-109044958D02*
G75*
G02*
X109231000Y-110412000I-1535426J-683042D01*
G01*
X108379042Y-111263426D02*
G75*
G02*
X107012000Y-111263000I-683042J1535426D01*
G01*
X106161244Y-110411318D02*
G75*
G02*
X106016000Y-109728000I1534756J683318D01*
G01*
%TO.C,J1*%
X52504000Y-78988000D02*
X52504000Y-79488000D01*
X53244000Y-78988000D02*
X52504000Y-78988000D01*
X56381000Y-85561000D02*
X56335000Y-85514000D01*
X58679000Y-87858000D02*
X58643000Y-87823000D01*
X56165000Y-85754000D02*
X56130000Y-85719000D01*
X58473000Y-88063000D02*
X58427000Y-88016000D01*
X62665000Y-89348000D02*
X52744000Y-89348000D01*
X62665000Y-79228000D02*
X52744000Y-79228000D01*
X52744000Y-79228000D02*
X52744000Y-89348000D01*
X62665000Y-79228000D02*
X62665000Y-89348000D01*
X59705000Y-79228000D02*
X59705000Y-89348000D01*
X54804000Y-79228000D02*
X54804000Y-89348000D01*
X53304000Y-79228000D02*
X53304000Y-89348000D01*
X59084000Y-86788000D02*
G75*
G03*
X59084000Y-86788000I-1680000J0D01*
G01*
X55723747Y-81816805D02*
G75*
G02*
X55869000Y-81104000I1680253J28805D01*
G01*
X56720958Y-80252574D02*
G75*
G02*
X58088000Y-80253000I683042J-1535426D01*
G01*
X58939426Y-81104958D02*
G75*
G02*
X58939000Y-82472000I-1535426J-683042D01*
G01*
X58087042Y-83323426D02*
G75*
G02*
X56720000Y-83323000I-683042J1535426D01*
G01*
X55869244Y-82471318D02*
G75*
G02*
X55724000Y-81788000I1534756J683318D01*
G01*
%TO.C,D3*%
X96500000Y-74909000D02*
X96500000Y-77999000D01*
X101560000Y-76454000D02*
G75*
G03*
X101560000Y-76454000I-2500000J0D01*
G01*
X102050000Y-76453538D02*
G75*
G02*
X96500000Y-77998830I-2990000J-462D01*
G01*
X102050000Y-76454462D02*
G75*
G03*
X96500000Y-74909170I-2990000J462D01*
G01*
%TO.C,D2*%
X97590000Y-88300000D02*
X100530000Y-88300000D01*
X97590000Y-88060000D02*
X100530000Y-88060000D01*
X97590000Y-88180000D02*
X100530000Y-88180000D01*
X99060000Y-82620000D02*
X99060000Y-83640000D01*
X99060000Y-90100000D02*
X99060000Y-89080000D01*
X97590000Y-83640000D02*
X97590000Y-89080000D01*
X100530000Y-83640000D02*
X97590000Y-83640000D01*
X100530000Y-89080000D02*
X100530000Y-83640000D01*
X97590000Y-89080000D02*
X100530000Y-89080000D01*
%TO.C,D1*%
X73131000Y-97302000D02*
X76221000Y-97302000D01*
X77176000Y-94742000D02*
G75*
G03*
X77176000Y-94742000I-2500000J0D01*
G01*
X74675538Y-91752000D02*
G75*
G02*
X76220830Y-97302000I462J-2990000D01*
G01*
X74676462Y-91752000D02*
G75*
G03*
X73131170Y-97302000I-462J-2990000D01*
G01*
%TO.C,C2*%
X74369000Y-79467225D02*
X73869000Y-79467225D01*
X74119000Y-79217225D02*
X74119000Y-79717225D01*
X72928000Y-84623000D02*
X72360000Y-84623000D01*
X73162000Y-84583000D02*
X72126000Y-84583000D01*
X73321000Y-84543000D02*
X71967000Y-84543000D01*
X73449000Y-84503000D02*
X71839000Y-84503000D01*
X73559000Y-84463000D02*
X71729000Y-84463000D01*
X73655000Y-84423000D02*
X71633000Y-84423000D01*
X73742000Y-84383000D02*
X71546000Y-84383000D01*
X73822000Y-84343000D02*
X71466000Y-84343000D01*
X71604000Y-84303000D02*
X71393000Y-84303000D01*
X73895000Y-84303000D02*
X73684000Y-84303000D01*
X71604000Y-84263000D02*
X71325000Y-84263000D01*
X73963000Y-84263000D02*
X73684000Y-84263000D01*
X71604000Y-84223000D02*
X71261000Y-84223000D01*
X74027000Y-84223000D02*
X73684000Y-84223000D01*
X71604000Y-84183000D02*
X71201000Y-84183000D01*
X74087000Y-84183000D02*
X73684000Y-84183000D01*
X71604000Y-84143000D02*
X71144000Y-84143000D01*
X74144000Y-84143000D02*
X73684000Y-84143000D01*
X71604000Y-84103000D02*
X71090000Y-84103000D01*
X74198000Y-84103000D02*
X73684000Y-84103000D01*
X71604000Y-84063000D02*
X71039000Y-84063000D01*
X74249000Y-84063000D02*
X73684000Y-84063000D01*
X71604000Y-84023000D02*
X70991000Y-84023000D01*
X74297000Y-84023000D02*
X73684000Y-84023000D01*
X71604000Y-83983000D02*
X70945000Y-83983000D01*
X74343000Y-83983000D02*
X73684000Y-83983000D01*
X71604000Y-83943000D02*
X70901000Y-83943000D01*
X74387000Y-83943000D02*
X73684000Y-83943000D01*
X71604000Y-83903000D02*
X70859000Y-83903000D01*
X74429000Y-83903000D02*
X73684000Y-83903000D01*
X71604000Y-83863000D02*
X70818000Y-83863000D01*
X74470000Y-83863000D02*
X73684000Y-83863000D01*
X71604000Y-83823000D02*
X70780000Y-83823000D01*
X74508000Y-83823000D02*
X73684000Y-83823000D01*
X71604000Y-83783000D02*
X70743000Y-83783000D01*
X74545000Y-83783000D02*
X73684000Y-83783000D01*
X71604000Y-83743000D02*
X70707000Y-83743000D01*
X74581000Y-83743000D02*
X73684000Y-83743000D01*
X71604000Y-83703000D02*
X70673000Y-83703000D01*
X74615000Y-83703000D02*
X73684000Y-83703000D01*
X71604000Y-83663000D02*
X70640000Y-83663000D01*
X74648000Y-83663000D02*
X73684000Y-83663000D01*
X71604000Y-83623000D02*
X70609000Y-83623000D01*
X74679000Y-83623000D02*
X73684000Y-83623000D01*
X71604000Y-83583000D02*
X70579000Y-83583000D01*
X74709000Y-83583000D02*
X73684000Y-83583000D01*
X71604000Y-83543000D02*
X70549000Y-83543000D01*
X74739000Y-83543000D02*
X73684000Y-83543000D01*
X71604000Y-83503000D02*
X70522000Y-83503000D01*
X74766000Y-83503000D02*
X73684000Y-83503000D01*
X71604000Y-83463000D02*
X70495000Y-83463000D01*
X74793000Y-83463000D02*
X73684000Y-83463000D01*
X71604000Y-83423000D02*
X70469000Y-83423000D01*
X74819000Y-83423000D02*
X73684000Y-83423000D01*
X71604000Y-83383000D02*
X70444000Y-83383000D01*
X74844000Y-83383000D02*
X73684000Y-83383000D01*
X71604000Y-83343000D02*
X70420000Y-83343000D01*
X74868000Y-83343000D02*
X73684000Y-83343000D01*
X71604000Y-83303000D02*
X70397000Y-83303000D01*
X74891000Y-83303000D02*
X73684000Y-83303000D01*
X71604000Y-83263000D02*
X70376000Y-83263000D01*
X74912000Y-83263000D02*
X73684000Y-83263000D01*
X71604000Y-83223000D02*
X70354000Y-83223000D01*
X74934000Y-83223000D02*
X73684000Y-83223000D01*
X71604000Y-83183000D02*
X70334000Y-83183000D01*
X74954000Y-83183000D02*
X73684000Y-83183000D01*
X71604000Y-83143000D02*
X70315000Y-83143000D01*
X74973000Y-83143000D02*
X73684000Y-83143000D01*
X71604000Y-83103000D02*
X70296000Y-83103000D01*
X74992000Y-83103000D02*
X73684000Y-83103000D01*
X71604000Y-83063000D02*
X70279000Y-83063000D01*
X75009000Y-83063000D02*
X73684000Y-83063000D01*
X71604000Y-83023000D02*
X70262000Y-83023000D01*
X75026000Y-83023000D02*
X73684000Y-83023000D01*
X71604000Y-82983000D02*
X70246000Y-82983000D01*
X75042000Y-82983000D02*
X73684000Y-82983000D01*
X71604000Y-82943000D02*
X70230000Y-82943000D01*
X75058000Y-82943000D02*
X73684000Y-82943000D01*
X71604000Y-82903000D02*
X70216000Y-82903000D01*
X75072000Y-82903000D02*
X73684000Y-82903000D01*
X71604000Y-82863000D02*
X70202000Y-82863000D01*
X75086000Y-82863000D02*
X73684000Y-82863000D01*
X71604000Y-82823000D02*
X70189000Y-82823000D01*
X75099000Y-82823000D02*
X73684000Y-82823000D01*
X71604000Y-82783000D02*
X70176000Y-82783000D01*
X75112000Y-82783000D02*
X73684000Y-82783000D01*
X71604000Y-82743000D02*
X70164000Y-82743000D01*
X75124000Y-82743000D02*
X73684000Y-82743000D01*
X71604000Y-82702000D02*
X70153000Y-82702000D01*
X75135000Y-82702000D02*
X73684000Y-82702000D01*
X71604000Y-82662000D02*
X70143000Y-82662000D01*
X75145000Y-82662000D02*
X73684000Y-82662000D01*
X71604000Y-82622000D02*
X70133000Y-82622000D01*
X75155000Y-82622000D02*
X73684000Y-82622000D01*
X71604000Y-82582000D02*
X70124000Y-82582000D01*
X75164000Y-82582000D02*
X73684000Y-82582000D01*
X71604000Y-82542000D02*
X70116000Y-82542000D01*
X75172000Y-82542000D02*
X73684000Y-82542000D01*
X71604000Y-82502000D02*
X70108000Y-82502000D01*
X75180000Y-82502000D02*
X73684000Y-82502000D01*
X71604000Y-82462000D02*
X70101000Y-82462000D01*
X75187000Y-82462000D02*
X73684000Y-82462000D01*
X71604000Y-82422000D02*
X70094000Y-82422000D01*
X75194000Y-82422000D02*
X73684000Y-82422000D01*
X71604000Y-82382000D02*
X70088000Y-82382000D01*
X75200000Y-82382000D02*
X73684000Y-82382000D01*
X71604000Y-82342000D02*
X70083000Y-82342000D01*
X75205000Y-82342000D02*
X73684000Y-82342000D01*
X71604000Y-82302000D02*
X70079000Y-82302000D01*
X75209000Y-82302000D02*
X73684000Y-82302000D01*
X71604000Y-82262000D02*
X70075000Y-82262000D01*
X75213000Y-82262000D02*
X73684000Y-82262000D01*
X75217000Y-82222000D02*
X70071000Y-82222000D01*
X75220000Y-82182000D02*
X70068000Y-82182000D01*
X75222000Y-82142000D02*
X70066000Y-82142000D01*
X75223000Y-82102000D02*
X70065000Y-82102000D01*
X75224000Y-82062000D02*
X70064000Y-82062000D01*
X75224000Y-82022000D02*
X70064000Y-82022000D01*
X75264000Y-82022000D02*
G75*
G03*
X75264000Y-82022000I-2620000J0D01*
G01*
%TO.C,C1*%
X70919000Y-90712775D02*
X71419000Y-90712775D01*
X71169000Y-90962775D02*
X71169000Y-90462775D01*
X72360000Y-85557000D02*
X72928000Y-85557000D01*
X72126000Y-85597000D02*
X73162000Y-85597000D01*
X71967000Y-85637000D02*
X73321000Y-85637000D01*
X71839000Y-85677000D02*
X73449000Y-85677000D01*
X71729000Y-85717000D02*
X73559000Y-85717000D01*
X71633000Y-85757000D02*
X73655000Y-85757000D01*
X71546000Y-85797000D02*
X73742000Y-85797000D01*
X71466000Y-85837000D02*
X73822000Y-85837000D01*
X73684000Y-85877000D02*
X73895000Y-85877000D01*
X71393000Y-85877000D02*
X71604000Y-85877000D01*
X73684000Y-85917000D02*
X73963000Y-85917000D01*
X71325000Y-85917000D02*
X71604000Y-85917000D01*
X73684000Y-85957000D02*
X74027000Y-85957000D01*
X71261000Y-85957000D02*
X71604000Y-85957000D01*
X73684000Y-85997000D02*
X74087000Y-85997000D01*
X71201000Y-85997000D02*
X71604000Y-85997000D01*
X73684000Y-86037000D02*
X74144000Y-86037000D01*
X71144000Y-86037000D02*
X71604000Y-86037000D01*
X73684000Y-86077000D02*
X74198000Y-86077000D01*
X71090000Y-86077000D02*
X71604000Y-86077000D01*
X73684000Y-86117000D02*
X74249000Y-86117000D01*
X71039000Y-86117000D02*
X71604000Y-86117000D01*
X73684000Y-86157000D02*
X74297000Y-86157000D01*
X70991000Y-86157000D02*
X71604000Y-86157000D01*
X73684000Y-86197000D02*
X74343000Y-86197000D01*
X70945000Y-86197000D02*
X71604000Y-86197000D01*
X73684000Y-86237000D02*
X74387000Y-86237000D01*
X70901000Y-86237000D02*
X71604000Y-86237000D01*
X73684000Y-86277000D02*
X74429000Y-86277000D01*
X70859000Y-86277000D02*
X71604000Y-86277000D01*
X73684000Y-86317000D02*
X74470000Y-86317000D01*
X70818000Y-86317000D02*
X71604000Y-86317000D01*
X73684000Y-86357000D02*
X74508000Y-86357000D01*
X70780000Y-86357000D02*
X71604000Y-86357000D01*
X73684000Y-86397000D02*
X74545000Y-86397000D01*
X70743000Y-86397000D02*
X71604000Y-86397000D01*
X73684000Y-86437000D02*
X74581000Y-86437000D01*
X70707000Y-86437000D02*
X71604000Y-86437000D01*
X73684000Y-86477000D02*
X74615000Y-86477000D01*
X70673000Y-86477000D02*
X71604000Y-86477000D01*
X73684000Y-86517000D02*
X74648000Y-86517000D01*
X70640000Y-86517000D02*
X71604000Y-86517000D01*
X73684000Y-86557000D02*
X74679000Y-86557000D01*
X70609000Y-86557000D02*
X71604000Y-86557000D01*
X73684000Y-86597000D02*
X74709000Y-86597000D01*
X70579000Y-86597000D02*
X71604000Y-86597000D01*
X73684000Y-86637000D02*
X74739000Y-86637000D01*
X70549000Y-86637000D02*
X71604000Y-86637000D01*
X73684000Y-86677000D02*
X74766000Y-86677000D01*
X70522000Y-86677000D02*
X71604000Y-86677000D01*
X73684000Y-86717000D02*
X74793000Y-86717000D01*
X70495000Y-86717000D02*
X71604000Y-86717000D01*
X73684000Y-86757000D02*
X74819000Y-86757000D01*
X70469000Y-86757000D02*
X71604000Y-86757000D01*
X73684000Y-86797000D02*
X74844000Y-86797000D01*
X70444000Y-86797000D02*
X71604000Y-86797000D01*
X73684000Y-86837000D02*
X74868000Y-86837000D01*
X70420000Y-86837000D02*
X71604000Y-86837000D01*
X73684000Y-86877000D02*
X74891000Y-86877000D01*
X70397000Y-86877000D02*
X71604000Y-86877000D01*
X73684000Y-86917000D02*
X74912000Y-86917000D01*
X70376000Y-86917000D02*
X71604000Y-86917000D01*
X73684000Y-86957000D02*
X74934000Y-86957000D01*
X70354000Y-86957000D02*
X71604000Y-86957000D01*
X73684000Y-86997000D02*
X74954000Y-86997000D01*
X70334000Y-86997000D02*
X71604000Y-86997000D01*
X73684000Y-87037000D02*
X74973000Y-87037000D01*
X70315000Y-87037000D02*
X71604000Y-87037000D01*
X73684000Y-87077000D02*
X74992000Y-87077000D01*
X70296000Y-87077000D02*
X71604000Y-87077000D01*
X73684000Y-87117000D02*
X75009000Y-87117000D01*
X70279000Y-87117000D02*
X71604000Y-87117000D01*
X73684000Y-87157000D02*
X75026000Y-87157000D01*
X70262000Y-87157000D02*
X71604000Y-87157000D01*
X73684000Y-87197000D02*
X75042000Y-87197000D01*
X70246000Y-87197000D02*
X71604000Y-87197000D01*
X73684000Y-87237000D02*
X75058000Y-87237000D01*
X70230000Y-87237000D02*
X71604000Y-87237000D01*
X73684000Y-87277000D02*
X75072000Y-87277000D01*
X70216000Y-87277000D02*
X71604000Y-87277000D01*
X73684000Y-87317000D02*
X75086000Y-87317000D01*
X70202000Y-87317000D02*
X71604000Y-87317000D01*
X73684000Y-87357000D02*
X75099000Y-87357000D01*
X70189000Y-87357000D02*
X71604000Y-87357000D01*
X73684000Y-87397000D02*
X75112000Y-87397000D01*
X70176000Y-87397000D02*
X71604000Y-87397000D01*
X73684000Y-87437000D02*
X75124000Y-87437000D01*
X70164000Y-87437000D02*
X71604000Y-87437000D01*
X73684000Y-87478000D02*
X75135000Y-87478000D01*
X70153000Y-87478000D02*
X71604000Y-87478000D01*
X73684000Y-87518000D02*
X75145000Y-87518000D01*
X70143000Y-87518000D02*
X71604000Y-87518000D01*
X73684000Y-87558000D02*
X75155000Y-87558000D01*
X70133000Y-87558000D02*
X71604000Y-87558000D01*
X73684000Y-87598000D02*
X75164000Y-87598000D01*
X70124000Y-87598000D02*
X71604000Y-87598000D01*
X73684000Y-87638000D02*
X75172000Y-87638000D01*
X70116000Y-87638000D02*
X71604000Y-87638000D01*
X73684000Y-87678000D02*
X75180000Y-87678000D01*
X70108000Y-87678000D02*
X71604000Y-87678000D01*
X73684000Y-87718000D02*
X75187000Y-87718000D01*
X70101000Y-87718000D02*
X71604000Y-87718000D01*
X73684000Y-87758000D02*
X75194000Y-87758000D01*
X70094000Y-87758000D02*
X71604000Y-87758000D01*
X73684000Y-87798000D02*
X75200000Y-87798000D01*
X70088000Y-87798000D02*
X71604000Y-87798000D01*
X73684000Y-87838000D02*
X75205000Y-87838000D01*
X70083000Y-87838000D02*
X71604000Y-87838000D01*
X73684000Y-87878000D02*
X75209000Y-87878000D01*
X70079000Y-87878000D02*
X71604000Y-87878000D01*
X73684000Y-87918000D02*
X75213000Y-87918000D01*
X70075000Y-87918000D02*
X71604000Y-87918000D01*
X70071000Y-87958000D02*
X75217000Y-87958000D01*
X70068000Y-87998000D02*
X75220000Y-87998000D01*
X70066000Y-88038000D02*
X75222000Y-88038000D01*
X70065000Y-88078000D02*
X75223000Y-88078000D01*
X70064000Y-88118000D02*
X75224000Y-88118000D01*
X70064000Y-88158000D02*
X75224000Y-88158000D01*
X75264000Y-88158000D02*
G75*
G03*
X75264000Y-88158000I-2620000J0D01*
G01*
%TO.C,Q1*%
D11*
X91842761Y-81445619D02*
X91747523Y-81398000D01*
X91652285Y-81302761D01*
X91509428Y-81159904D01*
X91414190Y-81112285D01*
X91318952Y-81112285D01*
X91366571Y-81350380D02*
X91271333Y-81302761D01*
X91176095Y-81207523D01*
X91128476Y-81017047D01*
X91128476Y-80683714D01*
X91176095Y-80493238D01*
X91271333Y-80398000D01*
X91366571Y-80350380D01*
X91557047Y-80350380D01*
X91652285Y-80398000D01*
X91747523Y-80493238D01*
X91795142Y-80683714D01*
X91795142Y-81017047D01*
X91747523Y-81207523D01*
X91652285Y-81302761D01*
X91557047Y-81350380D01*
X91366571Y-81350380D01*
X92747523Y-81350380D02*
X92176095Y-81350380D01*
X92461809Y-81350380D02*
X92461809Y-80350380D01*
X92366571Y-80493238D01*
X92271333Y-80588476D01*
X92176095Y-80636095D01*
%TO.C,C4*%
X66849333Y-104837142D02*
X66801714Y-104884761D01*
X66658857Y-104932380D01*
X66563619Y-104932380D01*
X66420761Y-104884761D01*
X66325523Y-104789523D01*
X66277904Y-104694285D01*
X66230285Y-104503809D01*
X66230285Y-104360952D01*
X66277904Y-104170476D01*
X66325523Y-104075238D01*
X66420761Y-103980000D01*
X66563619Y-103932380D01*
X66658857Y-103932380D01*
X66801714Y-103980000D01*
X66849333Y-104027619D01*
X67706476Y-104265714D02*
X67706476Y-104932380D01*
X67468380Y-103884761D02*
X67230285Y-104599047D01*
X67849333Y-104599047D01*
%TO.C,C3*%
X66849333Y-98949142D02*
X66801714Y-98996761D01*
X66658857Y-99044380D01*
X66563619Y-99044380D01*
X66420761Y-98996761D01*
X66325523Y-98901523D01*
X66277904Y-98806285D01*
X66230285Y-98615809D01*
X66230285Y-98472952D01*
X66277904Y-98282476D01*
X66325523Y-98187238D01*
X66420761Y-98092000D01*
X66563619Y-98044380D01*
X66658857Y-98044380D01*
X66801714Y-98092000D01*
X66849333Y-98139619D01*
X67182666Y-98044380D02*
X67801714Y-98044380D01*
X67468380Y-98425333D01*
X67611238Y-98425333D01*
X67706476Y-98472952D01*
X67754095Y-98520571D01*
X67801714Y-98615809D01*
X67801714Y-98853904D01*
X67754095Y-98949142D01*
X67706476Y-98996761D01*
X67611238Y-99044380D01*
X67325523Y-99044380D01*
X67230285Y-98996761D01*
X67182666Y-98949142D01*
%TO.C,J7*%
X79422666Y-105326380D02*
X79422666Y-106040666D01*
X79375047Y-106183523D01*
X79279809Y-106278761D01*
X79136952Y-106326380D01*
X79041714Y-106326380D01*
X79803619Y-105326380D02*
X80470285Y-105326380D01*
X80041714Y-106326380D01*
%TO.C,J6*%
X79930666Y-82466380D02*
X79930666Y-83180666D01*
X79883047Y-83323523D01*
X79787809Y-83418761D01*
X79644952Y-83466380D01*
X79549714Y-83466380D01*
X80835428Y-82466380D02*
X80644952Y-82466380D01*
X80549714Y-82514000D01*
X80502095Y-82561619D01*
X80406857Y-82704476D01*
X80359238Y-82894952D01*
X80359238Y-83275904D01*
X80406857Y-83371142D01*
X80454476Y-83418761D01*
X80549714Y-83466380D01*
X80740190Y-83466380D01*
X80835428Y-83418761D01*
X80883047Y-83371142D01*
X80930666Y-83275904D01*
X80930666Y-83037809D01*
X80883047Y-82942571D01*
X80835428Y-82894952D01*
X80740190Y-82847333D01*
X80549714Y-82847333D01*
X80454476Y-82894952D01*
X80406857Y-82942571D01*
X80359238Y-83037809D01*
%TO.C,Y1*%
X78685190Y-104516190D02*
X79161380Y-104516190D01*
X78161380Y-104849523D02*
X78685190Y-104516190D01*
X78161380Y-104182857D01*
X79161380Y-103325714D02*
X79161380Y-103897142D01*
X79161380Y-103611428D02*
X78161380Y-103611428D01*
X78304238Y-103706666D01*
X78399476Y-103801904D01*
X78447095Y-103897142D01*
%TO.C,U2*%
X87376095Y-79926380D02*
X87376095Y-80735904D01*
X87423714Y-80831142D01*
X87471333Y-80878761D01*
X87566571Y-80926380D01*
X87757047Y-80926380D01*
X87852285Y-80878761D01*
X87899904Y-80831142D01*
X87947523Y-80735904D01*
X87947523Y-79926380D01*
X88376095Y-80021619D02*
X88423714Y-79974000D01*
X88518952Y-79926380D01*
X88757047Y-79926380D01*
X88852285Y-79974000D01*
X88899904Y-80021619D01*
X88947523Y-80116857D01*
X88947523Y-80212095D01*
X88899904Y-80354952D01*
X88328476Y-80926380D01*
X88947523Y-80926380D01*
%TO.C,U1*%
X62238380Y-85597904D02*
X63047904Y-85597904D01*
X63143142Y-85550285D01*
X63190761Y-85502666D01*
X63238380Y-85407428D01*
X63238380Y-85216952D01*
X63190761Y-85121714D01*
X63143142Y-85074095D01*
X63047904Y-85026476D01*
X62238380Y-85026476D01*
X63238380Y-84026476D02*
X63238380Y-84597904D01*
X63238380Y-84312190D02*
X62238380Y-84312190D01*
X62381238Y-84407428D01*
X62476476Y-84502666D01*
X62524095Y-84597904D01*
%TO.C,R7*%
X107021333Y-78572380D02*
X106688000Y-78096190D01*
X106449904Y-78572380D02*
X106449904Y-77572380D01*
X106830857Y-77572380D01*
X106926095Y-77620000D01*
X106973714Y-77667619D01*
X107021333Y-77762857D01*
X107021333Y-77905714D01*
X106973714Y-78000952D01*
X106926095Y-78048571D01*
X106830857Y-78096190D01*
X106449904Y-78096190D01*
X107354666Y-77572380D02*
X108021333Y-77572380D01*
X107592761Y-78572380D01*
%TO.C,R6*%
X97876380Y-86780666D02*
X97400190Y-87114000D01*
X97876380Y-87352095D02*
X96876380Y-87352095D01*
X96876380Y-86971142D01*
X96924000Y-86875904D01*
X96971619Y-86828285D01*
X97066857Y-86780666D01*
X97209714Y-86780666D01*
X97304952Y-86828285D01*
X97352571Y-86875904D01*
X97400190Y-86971142D01*
X97400190Y-87352095D01*
X96876380Y-85923523D02*
X96876380Y-86114000D01*
X96924000Y-86209238D01*
X96971619Y-86256857D01*
X97114476Y-86352095D01*
X97304952Y-86399714D01*
X97685904Y-86399714D01*
X97781142Y-86352095D01*
X97828761Y-86304476D01*
X97876380Y-86209238D01*
X97876380Y-86018761D01*
X97828761Y-85923523D01*
X97781142Y-85875904D01*
X97685904Y-85828285D01*
X97447809Y-85828285D01*
X97352571Y-85875904D01*
X97304952Y-85923523D01*
X97257333Y-86018761D01*
X97257333Y-86209238D01*
X97304952Y-86304476D01*
X97352571Y-86352095D01*
X97447809Y-86399714D01*
%TO.C,R5*%
X94290380Y-102020666D02*
X93814190Y-102354000D01*
X94290380Y-102592095D02*
X93290380Y-102592095D01*
X93290380Y-102211142D01*
X93338000Y-102115904D01*
X93385619Y-102068285D01*
X93480857Y-102020666D01*
X93623714Y-102020666D01*
X93718952Y-102068285D01*
X93766571Y-102115904D01*
X93814190Y-102211142D01*
X93814190Y-102592095D01*
X93290380Y-101115904D02*
X93290380Y-101592095D01*
X93766571Y-101639714D01*
X93718952Y-101592095D01*
X93671333Y-101496857D01*
X93671333Y-101258761D01*
X93718952Y-101163523D01*
X93766571Y-101115904D01*
X93861809Y-101068285D01*
X94099904Y-101068285D01*
X94195142Y-101115904D01*
X94242761Y-101163523D01*
X94290380Y-101258761D01*
X94290380Y-101496857D01*
X94242761Y-101592095D01*
X94195142Y-101639714D01*
%TO.C,R4*%
X94290380Y-112180666D02*
X93814190Y-112514000D01*
X94290380Y-112752095D02*
X93290380Y-112752095D01*
X93290380Y-112371142D01*
X93338000Y-112275904D01*
X93385619Y-112228285D01*
X93480857Y-112180666D01*
X93623714Y-112180666D01*
X93718952Y-112228285D01*
X93766571Y-112275904D01*
X93814190Y-112371142D01*
X93814190Y-112752095D01*
X93623714Y-111323523D02*
X94290380Y-111323523D01*
X93242761Y-111561619D02*
X93957047Y-111799714D01*
X93957047Y-111180666D01*
%TO.C,R3*%
X98862380Y-102528666D02*
X98386190Y-102862000D01*
X98862380Y-103100095D02*
X97862380Y-103100095D01*
X97862380Y-102719142D01*
X97910000Y-102623904D01*
X97957619Y-102576285D01*
X98052857Y-102528666D01*
X98195714Y-102528666D01*
X98290952Y-102576285D01*
X98338571Y-102623904D01*
X98386190Y-102719142D01*
X98386190Y-103100095D01*
X97862380Y-102195333D02*
X97862380Y-101576285D01*
X98243333Y-101909619D01*
X98243333Y-101766761D01*
X98290952Y-101671523D01*
X98338571Y-101623904D01*
X98433809Y-101576285D01*
X98671904Y-101576285D01*
X98767142Y-101623904D01*
X98814761Y-101671523D01*
X98862380Y-101766761D01*
X98862380Y-102052476D01*
X98814761Y-102147714D01*
X98767142Y-102195333D01*
%TO.C,R2*%
X98862380Y-112434666D02*
X98386190Y-112768000D01*
X98862380Y-113006095D02*
X97862380Y-113006095D01*
X97862380Y-112625142D01*
X97910000Y-112529904D01*
X97957619Y-112482285D01*
X98052857Y-112434666D01*
X98195714Y-112434666D01*
X98290952Y-112482285D01*
X98338571Y-112529904D01*
X98386190Y-112625142D01*
X98386190Y-113006095D01*
X97957619Y-112053714D02*
X97910000Y-112006095D01*
X97862380Y-111910857D01*
X97862380Y-111672761D01*
X97910000Y-111577523D01*
X97957619Y-111529904D01*
X98052857Y-111482285D01*
X98148095Y-111482285D01*
X98290952Y-111529904D01*
X98862380Y-112101333D01*
X98862380Y-111482285D01*
%TO.C,R1*%
X79080380Y-86780666D02*
X78604190Y-87114000D01*
X79080380Y-87352095D02*
X78080380Y-87352095D01*
X78080380Y-86971142D01*
X78128000Y-86875904D01*
X78175619Y-86828285D01*
X78270857Y-86780666D01*
X78413714Y-86780666D01*
X78508952Y-86828285D01*
X78556571Y-86875904D01*
X78604190Y-86971142D01*
X78604190Y-87352095D01*
X79080380Y-85828285D02*
X79080380Y-86399714D01*
X79080380Y-86114000D02*
X78080380Y-86114000D01*
X78223238Y-86209238D01*
X78318476Y-86304476D01*
X78366095Y-86399714D01*
%TO.C,K1*%
X102062380Y-87098095D02*
X101062380Y-87098095D01*
X102062380Y-86526666D02*
X101490952Y-86955238D01*
X101062380Y-86526666D02*
X101633809Y-87098095D01*
X102062380Y-85574285D02*
X102062380Y-86145714D01*
X102062380Y-85860000D02*
X101062380Y-85860000D01*
X101205238Y-85955238D01*
X101300476Y-86050476D01*
X101348095Y-86145714D01*
%TO.C,J5*%
X119260666Y-94538380D02*
X119260666Y-95252666D01*
X119213047Y-95395523D01*
X119117809Y-95490761D01*
X118974952Y-95538380D01*
X118879714Y-95538380D01*
X120213047Y-94538380D02*
X119736857Y-94538380D01*
X119689238Y-95014571D01*
X119736857Y-94966952D01*
X119832095Y-94919333D01*
X120070190Y-94919333D01*
X120165428Y-94966952D01*
X120213047Y-95014571D01*
X120260666Y-95109809D01*
X120260666Y-95347904D01*
X120213047Y-95443142D01*
X120165428Y-95490761D01*
X120070190Y-95538380D01*
X119832095Y-95538380D01*
X119736857Y-95490761D01*
X119689238Y-95443142D01*
%TO.C,J4*%
X69258380Y-76025333D02*
X69972666Y-76025333D01*
X70115523Y-76072952D01*
X70210761Y-76168190D01*
X70258380Y-76311047D01*
X70258380Y-76406285D01*
X69591714Y-75120571D02*
X70258380Y-75120571D01*
X69210761Y-75358666D02*
X69925047Y-75596761D01*
X69925047Y-74977714D01*
%TO.C,J3*%
X113408380Y-101385333D02*
X114122666Y-101385333D01*
X114265523Y-101432952D01*
X114360761Y-101528190D01*
X114408380Y-101671047D01*
X114408380Y-101766285D01*
X113408380Y-101004380D02*
X113408380Y-100385333D01*
X113789333Y-100718666D01*
X113789333Y-100575809D01*
X113836952Y-100480571D01*
X113884571Y-100432952D01*
X113979809Y-100385333D01*
X114217904Y-100385333D01*
X114313142Y-100432952D01*
X114360761Y-100480571D01*
X114408380Y-100575809D01*
X114408380Y-100861523D01*
X114360761Y-100956761D01*
X114313142Y-101004380D01*
%TO.C,J2*%
X113408380Y-112561333D02*
X114122666Y-112561333D01*
X114265523Y-112608952D01*
X114360761Y-112704190D01*
X114408380Y-112847047D01*
X114408380Y-112942285D01*
X113503619Y-112132761D02*
X113456000Y-112085142D01*
X113408380Y-111989904D01*
X113408380Y-111751809D01*
X113456000Y-111656571D01*
X113503619Y-111608952D01*
X113598857Y-111561333D01*
X113694095Y-111561333D01*
X113836952Y-111608952D01*
X114408380Y-112180380D01*
X114408380Y-111561333D01*
%TO.C,J1*%
X63116380Y-84621333D02*
X63830666Y-84621333D01*
X63973523Y-84668952D01*
X64068761Y-84764190D01*
X64116380Y-84907047D01*
X64116380Y-85002285D01*
X64116380Y-83621333D02*
X64116380Y-84192761D01*
X64116380Y-83907047D02*
X63116380Y-83907047D01*
X63259238Y-84002285D01*
X63354476Y-84097523D01*
X63402095Y-84192761D01*
%TO.C,D3*%
X98321904Y-72946380D02*
X98321904Y-71946380D01*
X98560000Y-71946380D01*
X98702857Y-71994000D01*
X98798095Y-72089238D01*
X98845714Y-72184476D01*
X98893333Y-72374952D01*
X98893333Y-72517809D01*
X98845714Y-72708285D01*
X98798095Y-72803523D01*
X98702857Y-72898761D01*
X98560000Y-72946380D01*
X98321904Y-72946380D01*
X99226666Y-71946380D02*
X99845714Y-71946380D01*
X99512380Y-72327333D01*
X99655238Y-72327333D01*
X99750476Y-72374952D01*
X99798095Y-72422571D01*
X99845714Y-72517809D01*
X99845714Y-72755904D01*
X99798095Y-72851142D01*
X99750476Y-72898761D01*
X99655238Y-72946380D01*
X99369523Y-72946380D01*
X99274285Y-72898761D01*
X99226666Y-72851142D01*
%TO.C,D2*%
X97042380Y-87098095D02*
X96042380Y-87098095D01*
X96042380Y-86860000D01*
X96090000Y-86717142D01*
X96185238Y-86621904D01*
X96280476Y-86574285D01*
X96470952Y-86526666D01*
X96613809Y-86526666D01*
X96804285Y-86574285D01*
X96899523Y-86621904D01*
X96994761Y-86717142D01*
X97042380Y-86860000D01*
X97042380Y-87098095D01*
X96137619Y-86145714D02*
X96090000Y-86098095D01*
X96042380Y-86002857D01*
X96042380Y-85764761D01*
X96090000Y-85669523D01*
X96137619Y-85621904D01*
X96232857Y-85574285D01*
X96328095Y-85574285D01*
X96470952Y-85621904D01*
X97042380Y-86193333D01*
X97042380Y-85574285D01*
X97412380Y-91701904D02*
X96412380Y-91701904D01*
X97412380Y-91130476D02*
X96840952Y-91559047D01*
X96412380Y-91130476D02*
X96983809Y-91701904D01*
%TO.C,D1*%
X71168380Y-95480095D02*
X70168380Y-95480095D01*
X70168380Y-95242000D01*
X70216000Y-95099142D01*
X70311238Y-95003904D01*
X70406476Y-94956285D01*
X70596952Y-94908666D01*
X70739809Y-94908666D01*
X70930285Y-94956285D01*
X71025523Y-95003904D01*
X71120761Y-95099142D01*
X71168380Y-95242000D01*
X71168380Y-95480095D01*
X71168380Y-93956285D02*
X71168380Y-94527714D01*
X71168380Y-94242000D02*
X70168380Y-94242000D01*
X70311238Y-94337238D01*
X70406476Y-94432476D01*
X70454095Y-94527714D01*
%TO.C,C2*%
X76751142Y-82188666D02*
X76798761Y-82236285D01*
X76846380Y-82379142D01*
X76846380Y-82474380D01*
X76798761Y-82617238D01*
X76703523Y-82712476D01*
X76608285Y-82760095D01*
X76417809Y-82807714D01*
X76274952Y-82807714D01*
X76084476Y-82760095D01*
X75989238Y-82712476D01*
X75894000Y-82617238D01*
X75846380Y-82474380D01*
X75846380Y-82379142D01*
X75894000Y-82236285D01*
X75941619Y-82188666D01*
X75941619Y-81807714D02*
X75894000Y-81760095D01*
X75846380Y-81664857D01*
X75846380Y-81426761D01*
X75894000Y-81331523D01*
X75941619Y-81283904D01*
X76036857Y-81236285D01*
X76132095Y-81236285D01*
X76274952Y-81283904D01*
X76846380Y-81855333D01*
X76846380Y-81236285D01*
%TO.C,C1*%
X69251142Y-88324666D02*
X69298761Y-88372285D01*
X69346380Y-88515142D01*
X69346380Y-88610380D01*
X69298761Y-88753238D01*
X69203523Y-88848476D01*
X69108285Y-88896095D01*
X68917809Y-88943714D01*
X68774952Y-88943714D01*
X68584476Y-88896095D01*
X68489238Y-88848476D01*
X68394000Y-88753238D01*
X68346380Y-88610380D01*
X68346380Y-88515142D01*
X68394000Y-88372285D01*
X68441619Y-88324666D01*
X69346380Y-87372285D02*
X69346380Y-87943714D01*
X69346380Y-87658000D02*
X68346380Y-87658000D01*
X68489238Y-87753238D01*
X68584476Y-87848476D01*
X68632095Y-87943714D01*
%TD*%
M02*
