%TF.GenerationSoftware,KiCad,Pcbnew,(5.1.12)-1*%
%TF.CreationDate,2022-02-17T13:14:00+05:30*%
%TF.ProjectId,vehilcletheftdetection,76656869-6c63-46c6-9574-686566746465,rev?*%
%TF.SameCoordinates,Original*%
%TF.FileFunction,Copper,L1,Top*%
%TF.FilePolarity,Positive*%
%FSLAX46Y46*%
G04 Gerber Fmt 4.6, Leading zero omitted, Abs format (unit mm)*
G04 Created by KiCad (PCBNEW (5.1.12)-1) date 2022-02-17 13:14:00*
%MOMM*%
%LPD*%
G01*
G04 APERTURE LIST*
%TA.AperFunction,ComponentPad*%
%ADD10O,1.600000X1.600000*%
%TD*%
%TA.AperFunction,ComponentPad*%
%ADD11C,1.600000*%
%TD*%
%TA.AperFunction,ComponentPad*%
%ADD12R,1.500000X1.500000*%
%TD*%
%TA.AperFunction,ComponentPad*%
%ADD13C,1.500000*%
%TD*%
%TA.AperFunction,ComponentPad*%
%ADD14O,2.500000X2.500000*%
%TD*%
%TA.AperFunction,ComponentPad*%
%ADD15R,2.500000X2.500000*%
%TD*%
%TA.AperFunction,ComponentPad*%
%ADD16C,2.600000*%
%TD*%
%TA.AperFunction,ComponentPad*%
%ADD17R,2.600000X2.600000*%
%TD*%
%TA.AperFunction,ComponentPad*%
%ADD18C,1.524000*%
%TD*%
%TA.AperFunction,ComponentPad*%
%ADD19O,1.905000X2.000000*%
%TD*%
%TA.AperFunction,ComponentPad*%
%ADD20R,1.905000X2.000000*%
%TD*%
%TA.AperFunction,ComponentPad*%
%ADD21O,1.700000X1.700000*%
%TD*%
%TA.AperFunction,ComponentPad*%
%ADD22R,1.700000X1.700000*%
%TD*%
%TA.AperFunction,ComponentPad*%
%ADD23C,1.800000*%
%TD*%
%TA.AperFunction,ComponentPad*%
%ADD24R,1.800000X1.800000*%
%TD*%
%TA.AperFunction,ComponentPad*%
%ADD25O,2.200000X2.200000*%
%TD*%
%TA.AperFunction,ComponentPad*%
%ADD26R,2.200000X2.200000*%
%TD*%
%TA.AperFunction,ComponentPad*%
%ADD27R,1.600000X1.600000*%
%TD*%
%TA.AperFunction,ComponentPad*%
%ADD28R,2.000000X2.000000*%
%TD*%
%TA.AperFunction,ComponentPad*%
%ADD29C,2.000000*%
%TD*%
%TA.AperFunction,Conductor*%
%ADD30C,1.600000*%
%TD*%
%TA.AperFunction,Conductor*%
%ADD31C,2.000000*%
%TD*%
%TA.AperFunction,Conductor*%
%ADD32C,2.300000*%
%TD*%
%TA.AperFunction,Conductor*%
%ADD33C,0.254000*%
%TD*%
%TA.AperFunction,Conductor*%
%ADD34C,0.100000*%
%TD*%
G04 APERTURE END LIST*
D10*
%TO.P,R1,2*%
%TO.N,Net-(D1-Pad2)*%
X67500500Y-101854000D03*
D11*
%TO.P,R1,1*%
%TO.N,Net-(C2-Pad1)*%
X57340500Y-101854000D03*
%TD*%
D10*
%TO.P,R3,2*%
%TO.N,Net-(D3-Pad2)*%
X69723000Y-43561000D03*
D11*
%TO.P,R3,1*%
%TO.N,+5V*%
X79883000Y-43561000D03*
%TD*%
D12*
%TO.P,Q1,1*%
%TO.N,Net-(D2-Pad2)*%
X56832500Y-48196500D03*
D13*
%TO.P,Q1,3*%
%TO.N,GND*%
X56832500Y-43116500D03*
%TO.P,Q1,2*%
%TO.N,Net-(Q1-Pad2)*%
X56832500Y-45656500D03*
%TD*%
D14*
%TO.P,K1,5*%
%TO.N,Net-(D2-Pad2)*%
X43592000Y-56610000D03*
%TO.P,K1,4*%
%TO.N,Net-(K1-Pad4)*%
X43592000Y-68810000D03*
%TO.P,K1,3*%
%TO.N,Net-(J6-Pad1)*%
X31592000Y-68810000D03*
%TO.P,K1,2*%
%TO.N,+5V*%
X31592000Y-56610000D03*
D15*
%TO.P,K1,1*%
%TO.N,Net-(J6-Pad2)*%
X37592000Y-54610000D03*
%TD*%
D16*
%TO.P,J8,2*%
%TO.N,Net-(C2-Pad1)*%
X36703000Y-96520000D03*
D17*
%TO.P,J8,1*%
%TO.N,+5V*%
X36703000Y-91440000D03*
%TD*%
D18*
%TO.P,U2,30*%
%TO.N,TX_gsm*%
X75934600Y-56409100D03*
%TO.P,U2,29*%
%TO.N,RX_gsm*%
X75934600Y-58949100D03*
%TO.P,U2,28*%
%TO.N,Engine*%
X75934600Y-61489100D03*
%TO.P,U2,27*%
%TO.N,TX_gps*%
X75934600Y-64029100D03*
%TO.P,U2,26*%
%TO.N,RX_gps*%
X75934600Y-66569100D03*
%TO.P,U2,25*%
%TO.N,Net-(U2-Pad25)*%
X75934600Y-69109100D03*
%TO.P,U2,24*%
%TO.N,GND*%
X75934600Y-71649100D03*
%TO.P,U2,23*%
%TO.N,buzz*%
X75934600Y-74189100D03*
%TO.P,U2,22*%
%TO.N,Net-(U2-Pad22)*%
X75934600Y-76729100D03*
%TO.P,U2,21*%
%TO.N,SDA*%
X75934600Y-79269100D03*
%TO.P,U2,20*%
%TO.N,SCL*%
X75934600Y-81809100D03*
%TO.P,U2,19*%
%TO.N,Net-(U2-Pad19)*%
X75934600Y-84349100D03*
%TO.P,U2,18*%
%TO.N,Net-(U2-Pad18)*%
X75934600Y-86889100D03*
%TO.P,U2,17*%
%TO.N,GND*%
X75934600Y-89429100D03*
%TO.P,U2,16*%
%TO.N,Net-(U2-Pad16)*%
X75934600Y-91969100D03*
%TO.P,U2,15*%
%TO.N,+5V*%
X47994600Y-91969100D03*
%TO.P,U2,14*%
%TO.N,GND*%
X47994600Y-89429100D03*
%TO.P,U2,13*%
%TO.N,Net-(U2-Pad13)*%
X47994600Y-86889100D03*
%TO.P,U2,12*%
%TO.N,Net-(U2-Pad12)*%
X47994600Y-84349100D03*
%TO.P,U2,11*%
%TO.N,Net-(U2-Pad11)*%
X47994600Y-81809100D03*
%TO.P,U2,10*%
%TO.N,GND*%
X47994600Y-79269100D03*
%TO.P,U2,9*%
%TO.N,Net-(U2-Pad9)*%
X47994600Y-76729100D03*
%TO.P,U2,8*%
%TO.N,Net-(U2-Pad8)*%
X47994600Y-74189100D03*
%TO.P,U2,7*%
%TO.N,Net-(U2-Pad7)*%
X47994600Y-71649100D03*
%TO.P,U2,6*%
%TO.N,Net-(U2-Pad6)*%
X47994600Y-69109100D03*
%TO.P,U2,5*%
%TO.N,Net-(U2-Pad5)*%
X47994600Y-66569100D03*
%TO.P,U2,4*%
%TO.N,Net-(U2-Pad4)*%
X47994600Y-64029100D03*
%TO.P,U2,3*%
%TO.N,Net-(U2-Pad3)*%
X47994600Y-61489100D03*
%TO.P,U2,2*%
%TO.N,Net-(U2-Pad2)*%
X47994600Y-58949100D03*
%TO.P,U2,1*%
%TO.N,Net-(U2-Pad1)*%
X47994600Y-56409100D03*
%TD*%
D19*
%TO.P,U1,3*%
%TO.N,Net-(C2-Pad1)*%
X53022500Y-102235000D03*
%TO.P,U1,2*%
%TO.N,GND*%
X50482500Y-102235000D03*
D20*
%TO.P,U1,1*%
%TO.N,Net-(C1-Pad1)*%
X47942500Y-102235000D03*
%TD*%
D10*
%TO.P,R2,2*%
%TO.N,Engine*%
X70802500Y-47561500D03*
D11*
%TO.P,R2,1*%
%TO.N,Net-(Q1-Pad2)*%
X60642500Y-47561500D03*
%TD*%
D21*
%TO.P,J7,4*%
%TO.N,Net-(J7-Pad4)*%
X82677000Y-95758000D03*
%TO.P,J7,3*%
%TO.N,SCL*%
X82677000Y-93218000D03*
%TO.P,J7,2*%
%TO.N,SDA*%
X82677000Y-90678000D03*
D22*
%TO.P,J7,1*%
%TO.N,+5V*%
X82677000Y-88138000D03*
%TD*%
D16*
%TO.P,J6,2*%
%TO.N,Net-(J6-Pad2)*%
X36385500Y-83566000D03*
D17*
%TO.P,J6,1*%
%TO.N,Net-(J6-Pad1)*%
X36385500Y-78486000D03*
%TD*%
D21*
%TO.P,J5,4*%
%TO.N,GND*%
X82550000Y-61468000D03*
%TO.P,J5,3*%
%TO.N,RX_gsm*%
X82550000Y-58928000D03*
%TO.P,J5,2*%
%TO.N,TX_gsm*%
X82550000Y-56388000D03*
D22*
%TO.P,J5,1*%
%TO.N,+5V*%
X82550000Y-53848000D03*
%TD*%
D21*
%TO.P,J4,4*%
%TO.N,GND*%
X74866500Y-47561500D03*
%TO.P,J4,3*%
%TO.N,Engine*%
X77406500Y-47561500D03*
%TO.P,J4,2*%
%TO.N,+5V*%
X79946500Y-47561500D03*
D22*
%TO.P,J4,1*%
X82486500Y-47561500D03*
%TD*%
D21*
%TO.P,J3,4*%
%TO.N,GND*%
X82677000Y-73279000D03*
%TO.P,J3,3*%
%TO.N,RX_gps*%
X82677000Y-70739000D03*
%TO.P,J3,2*%
%TO.N,TX_gps*%
X82677000Y-68199000D03*
D22*
%TO.P,J3,1*%
%TO.N,GND*%
X82677000Y-65659000D03*
%TD*%
D21*
%TO.P,J2,4*%
%TO.N,GND*%
X82677000Y-76898500D03*
%TO.P,J2,3*%
%TO.N,buzz*%
X82677000Y-79438500D03*
%TO.P,J2,2*%
%TO.N,+5V*%
X82677000Y-81978500D03*
D22*
%TO.P,J2,1*%
X82677000Y-84518500D03*
%TD*%
D16*
%TO.P,J1,2*%
%TO.N,Net-(C1-Pad1)*%
X36703000Y-107886500D03*
D17*
%TO.P,J1,1*%
%TO.N,GND*%
X36703000Y-102806500D03*
%TD*%
D23*
%TO.P,D3,2*%
%TO.N,Net-(D3-Pad2)*%
X63944500Y-43815000D03*
D24*
%TO.P,D3,1*%
%TO.N,Net-(D2-Pad2)*%
X63944500Y-41275000D03*
%TD*%
D25*
%TO.P,D2,2*%
%TO.N,Net-(D2-Pad2)*%
X52387500Y-47879000D03*
D26*
%TO.P,D2,1*%
%TO.N,+5V*%
X42227500Y-47879000D03*
%TD*%
D23*
%TO.P,D1,2*%
%TO.N,Net-(D1-Pad2)*%
X72771000Y-101917500D03*
D24*
%TO.P,D1,1*%
%TO.N,GND*%
X72771000Y-104457500D03*
%TD*%
D11*
%TO.P,C2,2*%
%TO.N,GND*%
X53657500Y-108989500D03*
D27*
%TO.P,C2,1*%
%TO.N,Net-(C2-Pad1)*%
X53657500Y-106489500D03*
%TD*%
D11*
%TO.P,C1,2*%
%TO.N,GND*%
X46355000Y-108862500D03*
D27*
%TO.P,C1,1*%
%TO.N,Net-(C1-Pad1)*%
X46355000Y-106362500D03*
%TD*%
D28*
%TO.P,BZ1,1*%
%TO.N,buzz*%
X62382400Y-73774300D03*
D29*
%TO.P,BZ1,2*%
%TO.N,GND*%
X62382400Y-83774300D03*
%TD*%
D30*
%TO.N,buzz*%
X66662300Y-73774300D02*
X62382400Y-73774300D01*
X75519800Y-73774300D02*
X66662300Y-73774300D01*
X75934600Y-74189100D02*
X75519800Y-73774300D01*
X81184000Y-79438500D02*
X75934600Y-74189100D01*
X82677000Y-79438500D02*
X81184000Y-79438500D01*
%TO.N,Net-(C1-Pad1)*%
X46355000Y-103822500D02*
X47942500Y-102235000D01*
X46355000Y-106362500D02*
X46355000Y-103822500D01*
X38227000Y-106362500D02*
X46355000Y-106362500D01*
X36703000Y-107886500D02*
X38227000Y-106362500D01*
%TO.N,Net-(C2-Pad1)*%
X36703000Y-96520000D02*
X49276000Y-96520000D01*
X53022500Y-100266500D02*
X53022500Y-102235000D01*
X49276000Y-96520000D02*
X53022500Y-100266500D01*
X53403500Y-101854000D02*
X53022500Y-102235000D01*
X57340500Y-101854000D02*
X53403500Y-101854000D01*
X53657500Y-102870000D02*
X53022500Y-102235000D01*
X53657500Y-106489500D02*
X53657500Y-102870000D01*
%TO.N,Net-(D1-Pad2)*%
X72707500Y-101854000D02*
X72771000Y-101917500D01*
X67500500Y-101854000D02*
X72707500Y-101854000D01*
%TO.N,Net-(D2-Pad2)*%
X52387500Y-47879000D02*
X52895500Y-47879000D01*
X53213000Y-48196500D02*
X56832500Y-48196500D01*
X52895500Y-47879000D02*
X53213000Y-48196500D01*
X52387500Y-43624500D02*
X52387500Y-47879000D01*
X54737000Y-41275000D02*
X52387500Y-43624500D01*
X63944500Y-41275000D02*
X54737000Y-41275000D01*
X43592000Y-56610000D02*
X43592000Y-51721500D01*
X47434500Y-47879000D02*
X52387500Y-47879000D01*
X43592000Y-51721500D02*
X47434500Y-47879000D01*
D31*
%TO.N,+5V*%
X79946500Y-43624500D02*
X79883000Y-43561000D01*
X79946500Y-47561500D02*
X79946500Y-43624500D01*
X79946500Y-47561500D02*
X82486500Y-47561500D01*
X82677000Y-81978500D02*
X82677000Y-84518500D01*
X82677000Y-88138000D02*
X82677000Y-84518500D01*
X42227500Y-47879000D02*
X35941000Y-47879000D01*
X31592000Y-52228000D02*
X31592000Y-56610000D01*
X35941000Y-47879000D02*
X31592000Y-52228000D01*
X28924500Y-56610000D02*
X31592000Y-56610000D01*
X26606500Y-58928000D02*
X28924500Y-56610000D01*
X26606500Y-88138000D02*
X26606500Y-58928000D01*
X29908500Y-91440000D02*
X26606500Y-88138000D01*
X36703000Y-91440000D02*
X29908500Y-91440000D01*
X42227500Y-47879000D02*
X42227500Y-42672000D01*
X45724501Y-39174999D02*
X77782999Y-39174999D01*
X42227500Y-42672000D02*
X45724501Y-39174999D01*
X79883000Y-41275000D02*
X79883000Y-43561000D01*
X77782999Y-39174999D02*
X79883000Y-41275000D01*
X76644500Y-98996500D02*
X69617100Y-91969100D01*
X69617100Y-91969100D02*
X47994600Y-91969100D01*
X85534500Y-98996500D02*
X76644500Y-98996500D01*
X87566500Y-90177500D02*
X87566500Y-96964500D01*
X85527000Y-88138000D02*
X87566500Y-90177500D01*
X82677000Y-88138000D02*
X85527000Y-88138000D01*
X36703000Y-91440000D02*
X31051500Y-91440000D01*
X31051500Y-91440000D02*
X26606500Y-95885000D01*
X26606500Y-95885000D02*
X26606500Y-108648500D01*
X26606500Y-108648500D02*
X31686500Y-113728500D01*
X31686500Y-113728500D02*
X81343500Y-113728500D01*
X81343500Y-113728500D02*
X86296500Y-108775500D01*
X86296500Y-98234500D02*
X85534500Y-98996500D01*
X86296500Y-108775500D02*
X86296500Y-98234500D01*
X87566500Y-96964500D02*
X86296500Y-98234500D01*
X82677000Y-53721000D02*
X82550000Y-53848000D01*
X82677000Y-47752000D02*
X82677000Y-53721000D01*
X82486500Y-47561500D02*
X82677000Y-47752000D01*
D30*
%TO.N,Net-(D3-Pad2)*%
X69469000Y-43815000D02*
X69723000Y-43561000D01*
X63944500Y-43815000D02*
X69469000Y-43815000D01*
%TO.N,RX_gps*%
X82677000Y-70802500D02*
X82677000Y-70739000D01*
X77110100Y-66569100D02*
X75934600Y-66569100D01*
X81280000Y-70739000D02*
X77110100Y-66569100D01*
X82677000Y-70739000D02*
X81280000Y-70739000D01*
%TO.N,TX_gps*%
X77398649Y-64029100D02*
X75934600Y-64029100D01*
X81568549Y-68199000D02*
X77398649Y-64029100D01*
X82677000Y-68199000D02*
X81568549Y-68199000D01*
%TO.N,Engine*%
X70802500Y-47561500D02*
X70802500Y-46355000D01*
X70802500Y-46355000D02*
X72453500Y-44704000D01*
X72453500Y-44704000D02*
X75946000Y-44704000D01*
X77406500Y-46164500D02*
X77406500Y-47561500D01*
X75946000Y-44704000D02*
X77406500Y-46164500D01*
X77406500Y-51181000D02*
X77406500Y-47561500D01*
X73723500Y-54864000D02*
X77406500Y-51181000D01*
X73723500Y-60198000D02*
X73723500Y-54864000D01*
X75014600Y-61489100D02*
X73723500Y-60198000D01*
X75934600Y-61489100D02*
X75014600Y-61489100D01*
%TO.N,RX_gsm*%
X82528900Y-58949100D02*
X82550000Y-58928000D01*
X75934600Y-58949100D02*
X82528900Y-58949100D01*
X82550000Y-58928000D02*
X79946500Y-58928000D01*
%TO.N,TX_gsm*%
X82528900Y-56409100D02*
X75934600Y-56409100D01*
X82550000Y-56388000D02*
X82528900Y-56409100D01*
X81153000Y-56388000D02*
X82550000Y-56388000D01*
D32*
%TO.N,Net-(J6-Pad2)*%
X37592000Y-68008500D02*
X37592000Y-54610000D01*
X37528500Y-68072000D02*
X37592000Y-68008500D01*
X37528500Y-72771000D02*
X37528500Y-68072000D01*
X40068500Y-75311000D02*
X37528500Y-72771000D01*
X40068500Y-81788000D02*
X40068500Y-75311000D01*
X38290500Y-83566000D02*
X40068500Y-81788000D01*
X36385500Y-83566000D02*
X38290500Y-83566000D01*
%TO.N,Net-(J6-Pad1)*%
X36385500Y-78486000D02*
X33972500Y-78486000D01*
X31592000Y-76105500D02*
X31592000Y-68810000D01*
X33972500Y-78486000D02*
X31592000Y-76105500D01*
D30*
%TO.N,SCL*%
X78486000Y-83270510D02*
X78486000Y-90995500D01*
X80708500Y-93218000D02*
X82677000Y-93218000D01*
X75934600Y-81809100D02*
X77024590Y-81809100D01*
X77024590Y-81809100D02*
X78486000Y-83270510D01*
X78486000Y-90995500D02*
X80708500Y-93218000D01*
%TO.N,SDA*%
X78126100Y-79269100D02*
X75934600Y-79269100D01*
X82677000Y-90678000D02*
X81474919Y-90678000D01*
X81474919Y-90678000D02*
X80286011Y-89489092D01*
X80286011Y-89489092D02*
X80286011Y-81429011D01*
X80286011Y-81429011D02*
X78126100Y-79269100D01*
%TO.N,Net-(Q1-Pad2)*%
X58737500Y-45656500D02*
X60642500Y-47561500D01*
X56832500Y-45656500D02*
X58737500Y-45656500D01*
%TD*%
D33*
%TO.N,GND*%
X90471750Y-116665315D02*
X23321357Y-116633685D01*
X23766211Y-58928000D01*
X24963589Y-58928000D01*
X24971501Y-59008329D01*
X24971500Y-88057681D01*
X24963589Y-88138000D01*
X24971500Y-88218319D01*
X24971500Y-88218321D01*
X24995157Y-88458515D01*
X25088648Y-88766714D01*
X25240469Y-89050751D01*
X25444786Y-89299714D01*
X25507187Y-89350925D01*
X28167761Y-92011500D01*
X25507187Y-94672075D01*
X25444786Y-94723286D01*
X25240469Y-94972249D01*
X25088648Y-95256286D01*
X24995157Y-95564485D01*
X24971500Y-95804678D01*
X24963589Y-95885000D01*
X24971500Y-95965319D01*
X24971501Y-108568171D01*
X24963589Y-108648500D01*
X24995158Y-108969016D01*
X25088648Y-109277214D01*
X25156531Y-109404214D01*
X25240470Y-109561252D01*
X25444787Y-109810214D01*
X25507182Y-109861420D01*
X30473580Y-114827819D01*
X30524786Y-114890214D01*
X30773748Y-115094531D01*
X31057785Y-115246352D01*
X31365984Y-115339843D01*
X31606178Y-115363500D01*
X31606180Y-115363500D01*
X31686500Y-115371411D01*
X31766819Y-115363500D01*
X81263181Y-115363500D01*
X81343500Y-115371411D01*
X81423819Y-115363500D01*
X81423822Y-115363500D01*
X81664016Y-115339843D01*
X81972215Y-115246352D01*
X82256252Y-115094531D01*
X82505214Y-114890214D01*
X82556425Y-114827813D01*
X87395820Y-109988419D01*
X87458214Y-109937214D01*
X87662531Y-109688252D01*
X87814352Y-109404215D01*
X87885672Y-109169105D01*
X87907843Y-109096017D01*
X87939411Y-108775500D01*
X87931500Y-108695178D01*
X87931500Y-98911738D01*
X88665818Y-98177421D01*
X88728214Y-98126214D01*
X88932531Y-97877252D01*
X89084352Y-97593215D01*
X89177843Y-97285016D01*
X89201500Y-97044822D01*
X89201500Y-97044820D01*
X89209411Y-96964501D01*
X89201500Y-96884181D01*
X89201500Y-90257830D01*
X89209412Y-90177500D01*
X89177843Y-89856983D01*
X89084352Y-89548785D01*
X89068184Y-89518537D01*
X88932531Y-89264748D01*
X88728214Y-89015786D01*
X88665825Y-88964585D01*
X86739924Y-87038686D01*
X86688714Y-86976286D01*
X86439752Y-86771969D01*
X86155715Y-86620148D01*
X85847516Y-86526657D01*
X85607322Y-86503000D01*
X85607319Y-86503000D01*
X85527000Y-86495089D01*
X85446681Y-86503000D01*
X84312000Y-86503000D01*
X84312000Y-81898178D01*
X84288343Y-81657984D01*
X84194852Y-81349785D01*
X84043031Y-81065748D01*
X83838714Y-80816786D01*
X83591191Y-80613651D01*
X83623632Y-80591975D01*
X83830475Y-80385132D01*
X83992990Y-80141911D01*
X84104932Y-79871658D01*
X84162000Y-79584760D01*
X84162000Y-79292240D01*
X84104932Y-79005342D01*
X83992990Y-78735089D01*
X83830475Y-78491868D01*
X83623632Y-78285025D01*
X83441466Y-78163305D01*
X83558355Y-78093678D01*
X83774588Y-77898769D01*
X83948641Y-77665420D01*
X84073825Y-77402599D01*
X84118476Y-77255390D01*
X83997155Y-77025500D01*
X82804000Y-77025500D01*
X82804000Y-77045500D01*
X82550000Y-77045500D01*
X82550000Y-77025500D01*
X81356845Y-77025500D01*
X81235524Y-77255390D01*
X81280175Y-77402599D01*
X81373565Y-77598669D01*
X80316506Y-76541610D01*
X81235524Y-76541610D01*
X81356845Y-76771500D01*
X82550000Y-76771500D01*
X82550000Y-75577686D01*
X82804000Y-75577686D01*
X82804000Y-76771500D01*
X83997155Y-76771500D01*
X84118476Y-76541610D01*
X84073825Y-76394401D01*
X83948641Y-76131580D01*
X83774588Y-75898231D01*
X83558355Y-75703322D01*
X83308252Y-75554343D01*
X83033891Y-75457019D01*
X82804000Y-75577686D01*
X82550000Y-75577686D01*
X82320109Y-75457019D01*
X82045748Y-75554343D01*
X81795645Y-75703322D01*
X81579412Y-75898231D01*
X81405359Y-76131580D01*
X81280175Y-76394401D01*
X81235524Y-76541610D01*
X80316506Y-76541610D01*
X77410786Y-73635890D01*
X81235524Y-73635890D01*
X81280175Y-73783099D01*
X81405359Y-74045920D01*
X81579412Y-74279269D01*
X81795645Y-74474178D01*
X82045748Y-74623157D01*
X82320109Y-74720481D01*
X82550000Y-74599814D01*
X82550000Y-73406000D01*
X82804000Y-73406000D01*
X82804000Y-74599814D01*
X83033891Y-74720481D01*
X83308252Y-74623157D01*
X83558355Y-74474178D01*
X83774588Y-74279269D01*
X83948641Y-74045920D01*
X84073825Y-73783099D01*
X84118476Y-73635890D01*
X83997155Y-73406000D01*
X82804000Y-73406000D01*
X82550000Y-73406000D01*
X81356845Y-73406000D01*
X81235524Y-73635890D01*
X77410786Y-73635890D01*
X76899452Y-73124557D01*
X76637986Y-72863091D01*
X76653580Y-72854756D01*
X76720560Y-72614665D01*
X75934600Y-71828705D01*
X75920458Y-71842848D01*
X75740853Y-71663243D01*
X75754995Y-71649100D01*
X76114205Y-71649100D01*
X76900165Y-72435060D01*
X77140256Y-72368080D01*
X77257356Y-72119052D01*
X77323623Y-71851965D01*
X77336510Y-71577083D01*
X77295522Y-71304967D01*
X77202236Y-71046077D01*
X77140256Y-70930120D01*
X76900165Y-70863140D01*
X76114205Y-71649100D01*
X75754995Y-71649100D01*
X74969035Y-70863140D01*
X74728944Y-70930120D01*
X74611844Y-71179148D01*
X74545577Y-71446235D01*
X74532690Y-71721117D01*
X74573678Y-71993233D01*
X74666964Y-72252123D01*
X74713561Y-72339300D01*
X63846868Y-72339300D01*
X63833585Y-72323115D01*
X63736894Y-72243763D01*
X63626580Y-72184798D01*
X63506882Y-72148488D01*
X63382400Y-72136228D01*
X61382400Y-72136228D01*
X61257918Y-72148488D01*
X61138220Y-72184798D01*
X61027906Y-72243763D01*
X60931215Y-72323115D01*
X60851863Y-72419806D01*
X60792898Y-72530120D01*
X60756588Y-72649818D01*
X60744328Y-72774300D01*
X60744328Y-74774300D01*
X60756588Y-74898782D01*
X60792898Y-75018480D01*
X60851863Y-75128794D01*
X60931215Y-75225485D01*
X61027906Y-75304837D01*
X61138220Y-75363802D01*
X61257918Y-75400112D01*
X61382400Y-75412372D01*
X63382400Y-75412372D01*
X63506882Y-75400112D01*
X63626580Y-75363802D01*
X63736894Y-75304837D01*
X63833585Y-75225485D01*
X63846868Y-75209300D01*
X74925405Y-75209300D01*
X75233505Y-75517400D01*
X75044065Y-75643980D01*
X74849480Y-75838565D01*
X74696595Y-76067373D01*
X74591286Y-76321610D01*
X74537600Y-76591508D01*
X74537600Y-76866692D01*
X74591286Y-77136590D01*
X74696595Y-77390827D01*
X74849480Y-77619635D01*
X75044065Y-77814220D01*
X75272873Y-77967105D01*
X75302983Y-77979577D01*
X75133499Y-78070168D01*
X74914992Y-78249492D01*
X74735668Y-78467999D01*
X74602418Y-78717292D01*
X74520364Y-78987791D01*
X74492657Y-79269100D01*
X74520364Y-79550409D01*
X74602418Y-79820908D01*
X74735668Y-80070201D01*
X74914992Y-80288708D01*
X75133499Y-80468032D01*
X75266458Y-80539100D01*
X75133499Y-80610168D01*
X74914992Y-80789492D01*
X74735668Y-81007999D01*
X74602418Y-81257292D01*
X74520364Y-81527791D01*
X74492657Y-81809100D01*
X74520364Y-82090409D01*
X74602418Y-82360908D01*
X74735668Y-82610201D01*
X74914992Y-82828708D01*
X75133499Y-83008032D01*
X75302983Y-83098623D01*
X75272873Y-83111095D01*
X75044065Y-83263980D01*
X74849480Y-83458565D01*
X74696595Y-83687373D01*
X74591286Y-83941610D01*
X74537600Y-84211508D01*
X74537600Y-84486692D01*
X74591286Y-84756590D01*
X74696595Y-85010827D01*
X74849480Y-85239635D01*
X75044065Y-85434220D01*
X75272873Y-85587105D01*
X75350115Y-85619100D01*
X75272873Y-85651095D01*
X75044065Y-85803980D01*
X74849480Y-85998565D01*
X74696595Y-86227373D01*
X74591286Y-86481610D01*
X74537600Y-86751508D01*
X74537600Y-87026692D01*
X74591286Y-87296590D01*
X74696595Y-87550827D01*
X74849480Y-87779635D01*
X75044065Y-87974220D01*
X75272873Y-88127105D01*
X75344543Y-88156792D01*
X75331577Y-88161464D01*
X75215620Y-88223444D01*
X75148640Y-88463535D01*
X75934600Y-89249495D01*
X76720560Y-88463535D01*
X76653580Y-88223444D01*
X76517840Y-88159615D01*
X76596327Y-88127105D01*
X76825135Y-87974220D01*
X77019720Y-87779635D01*
X77051001Y-87732820D01*
X77051001Y-88685220D01*
X76900165Y-88643140D01*
X76114205Y-89429100D01*
X76900165Y-90215060D01*
X77051001Y-90172980D01*
X77051001Y-90924998D01*
X77044057Y-90995500D01*
X77057860Y-91135646D01*
X77019720Y-91078565D01*
X76825135Y-90883980D01*
X76596327Y-90731095D01*
X76524657Y-90701408D01*
X76537623Y-90696736D01*
X76653580Y-90634756D01*
X76720560Y-90394665D01*
X75934600Y-89608705D01*
X75148640Y-90394665D01*
X75215620Y-90634756D01*
X75351360Y-90698585D01*
X75272873Y-90731095D01*
X75044065Y-90883980D01*
X74849480Y-91078565D01*
X74696595Y-91307373D01*
X74591286Y-91561610D01*
X74537600Y-91831508D01*
X74537600Y-92106692D01*
X74591286Y-92376590D01*
X74696595Y-92630827D01*
X74849480Y-92859635D01*
X75044065Y-93054220D01*
X75272873Y-93207105D01*
X75527110Y-93312414D01*
X75797008Y-93366100D01*
X76072192Y-93366100D01*
X76342090Y-93312414D01*
X76596327Y-93207105D01*
X76825135Y-93054220D01*
X77019720Y-92859635D01*
X77172605Y-92630827D01*
X77277914Y-92376590D01*
X77331600Y-92106692D01*
X77331600Y-91850862D01*
X77466393Y-92015108D01*
X77521155Y-92060050D01*
X79643950Y-94182846D01*
X79688892Y-94237608D01*
X79907399Y-94416932D01*
X80098297Y-94518969D01*
X80156692Y-94550182D01*
X80427191Y-94632237D01*
X80708500Y-94659943D01*
X80778995Y-94653000D01*
X81681893Y-94653000D01*
X81523525Y-94811368D01*
X81361010Y-95054589D01*
X81249068Y-95324842D01*
X81192000Y-95611740D01*
X81192000Y-95904260D01*
X81249068Y-96191158D01*
X81361010Y-96461411D01*
X81523525Y-96704632D01*
X81730368Y-96911475D01*
X81973589Y-97073990D01*
X82243842Y-97185932D01*
X82530740Y-97243000D01*
X82823260Y-97243000D01*
X83110158Y-97185932D01*
X83380411Y-97073990D01*
X83623632Y-96911475D01*
X83830475Y-96704632D01*
X83992990Y-96461411D01*
X84104932Y-96191158D01*
X84162000Y-95904260D01*
X84162000Y-95611740D01*
X84104932Y-95324842D01*
X83992990Y-95054589D01*
X83830475Y-94811368D01*
X83623632Y-94604525D01*
X83449240Y-94488000D01*
X83623632Y-94371475D01*
X83830475Y-94164632D01*
X83992990Y-93921411D01*
X84104932Y-93651158D01*
X84162000Y-93364260D01*
X84162000Y-93071740D01*
X84104932Y-92784842D01*
X83992990Y-92514589D01*
X83830475Y-92271368D01*
X83623632Y-92064525D01*
X83449240Y-91948000D01*
X83623632Y-91831475D01*
X83830475Y-91624632D01*
X83992990Y-91381411D01*
X84104932Y-91111158D01*
X84162000Y-90824260D01*
X84162000Y-90531740D01*
X84104932Y-90244842D01*
X83992990Y-89974589D01*
X83858293Y-89773000D01*
X84849762Y-89773000D01*
X85931500Y-90854740D01*
X85931501Y-96287260D01*
X85197182Y-97021580D01*
X85134787Y-97072786D01*
X85083585Y-97135176D01*
X84857261Y-97361500D01*
X77321739Y-97361500D01*
X70830025Y-90869787D01*
X70778814Y-90807386D01*
X70529852Y-90603069D01*
X70245815Y-90451248D01*
X69937616Y-90357757D01*
X69697422Y-90334100D01*
X69697419Y-90334100D01*
X69617100Y-90326189D01*
X69536781Y-90334100D01*
X49073946Y-90334100D01*
X49076577Y-90331469D01*
X48960167Y-90215059D01*
X49200256Y-90148080D01*
X49317356Y-89899052D01*
X49383623Y-89631965D01*
X49389757Y-89501117D01*
X74532690Y-89501117D01*
X74573678Y-89773233D01*
X74666964Y-90032123D01*
X74728944Y-90148080D01*
X74969035Y-90215060D01*
X75754995Y-89429100D01*
X74969035Y-88643140D01*
X74728944Y-88710120D01*
X74611844Y-88959148D01*
X74545577Y-89226235D01*
X74532690Y-89501117D01*
X49389757Y-89501117D01*
X49396510Y-89357083D01*
X49355522Y-89084967D01*
X49262236Y-88826077D01*
X49200256Y-88710120D01*
X48960165Y-88643140D01*
X48174205Y-89429100D01*
X48188348Y-89443243D01*
X48008743Y-89622848D01*
X47994600Y-89608705D01*
X47208640Y-90394665D01*
X47242782Y-90517048D01*
X47081848Y-90603069D01*
X46832886Y-90807386D01*
X46628569Y-91056348D01*
X46476748Y-91340385D01*
X46383257Y-91648584D01*
X46351689Y-91969100D01*
X46383257Y-92289616D01*
X46476748Y-92597815D01*
X46628569Y-92881852D01*
X46832886Y-93130814D01*
X47081848Y-93335131D01*
X47365885Y-93486952D01*
X47674084Y-93580443D01*
X47914278Y-93604100D01*
X68939862Y-93604100D01*
X75431580Y-100095819D01*
X75482786Y-100158214D01*
X75731748Y-100362531D01*
X76015785Y-100514352D01*
X76323984Y-100607843D01*
X76564178Y-100631500D01*
X76564180Y-100631500D01*
X76644499Y-100639411D01*
X76724819Y-100631500D01*
X84661501Y-100631500D01*
X84661500Y-108098261D01*
X80666262Y-112093500D01*
X32363739Y-112093500D01*
X30125441Y-109855202D01*
X45541903Y-109855202D01*
X45613486Y-110099171D01*
X45868996Y-110220071D01*
X46143184Y-110288800D01*
X46425512Y-110302717D01*
X46705130Y-110261287D01*
X46971292Y-110166103D01*
X47096514Y-110099171D01*
X47130833Y-109982202D01*
X52844403Y-109982202D01*
X52915986Y-110226171D01*
X53171496Y-110347071D01*
X53445684Y-110415800D01*
X53728012Y-110429717D01*
X54007630Y-110388287D01*
X54273792Y-110293103D01*
X54399014Y-110226171D01*
X54470597Y-109982202D01*
X53657500Y-109169105D01*
X52844403Y-109982202D01*
X47130833Y-109982202D01*
X47168097Y-109855202D01*
X46355000Y-109042105D01*
X45541903Y-109855202D01*
X30125441Y-109855202D01*
X28241500Y-107971262D01*
X28241500Y-107695919D01*
X34768000Y-107695919D01*
X34768000Y-108077081D01*
X34842361Y-108450919D01*
X34988225Y-108803066D01*
X35199987Y-109119991D01*
X35469509Y-109389513D01*
X35786434Y-109601275D01*
X36138581Y-109747139D01*
X36512419Y-109821500D01*
X36893581Y-109821500D01*
X37267419Y-109747139D01*
X37619566Y-109601275D01*
X37936491Y-109389513D01*
X38206013Y-109119991D01*
X38330948Y-108933012D01*
X44914783Y-108933012D01*
X44956213Y-109212630D01*
X45051397Y-109478792D01*
X45118329Y-109604014D01*
X45362298Y-109675597D01*
X46175395Y-108862500D01*
X46534605Y-108862500D01*
X47347702Y-109675597D01*
X47591671Y-109604014D01*
X47712571Y-109348504D01*
X47781300Y-109074316D01*
X47782005Y-109060012D01*
X52217283Y-109060012D01*
X52258713Y-109339630D01*
X52353897Y-109605792D01*
X52420829Y-109731014D01*
X52664798Y-109802597D01*
X53477895Y-108989500D01*
X53837105Y-108989500D01*
X54650202Y-109802597D01*
X54894171Y-109731014D01*
X55015071Y-109475504D01*
X55083800Y-109201316D01*
X55097717Y-108918988D01*
X55056287Y-108639370D01*
X54961103Y-108373208D01*
X54894171Y-108247986D01*
X54650202Y-108176403D01*
X53837105Y-108989500D01*
X53477895Y-108989500D01*
X52664798Y-108176403D01*
X52420829Y-108247986D01*
X52299929Y-108503496D01*
X52231200Y-108777684D01*
X52217283Y-109060012D01*
X47782005Y-109060012D01*
X47795217Y-108791988D01*
X47753787Y-108512370D01*
X47658603Y-108246208D01*
X47591671Y-108120986D01*
X47347702Y-108049403D01*
X46534605Y-108862500D01*
X46175395Y-108862500D01*
X45362298Y-108049403D01*
X45118329Y-108120986D01*
X44997429Y-108376496D01*
X44928700Y-108650684D01*
X44914783Y-108933012D01*
X38330948Y-108933012D01*
X38417775Y-108803066D01*
X38563639Y-108450919D01*
X38638000Y-108077081D01*
X38638000Y-107980896D01*
X38821396Y-107797500D01*
X45523808Y-107797500D01*
X45555000Y-107800572D01*
X45562215Y-107800572D01*
X45541903Y-107869798D01*
X46355000Y-108682895D01*
X47168097Y-107869798D01*
X47147785Y-107800572D01*
X47155000Y-107800572D01*
X47279482Y-107788312D01*
X47399180Y-107752002D01*
X47509494Y-107693037D01*
X47606185Y-107613685D01*
X47685537Y-107516994D01*
X47744502Y-107406680D01*
X47780812Y-107286982D01*
X47793072Y-107162500D01*
X47793072Y-106401802D01*
X47796943Y-106362500D01*
X47793072Y-106323198D01*
X47793072Y-105562500D01*
X47790000Y-105531308D01*
X47790000Y-104416895D01*
X48333824Y-103873072D01*
X48895000Y-103873072D01*
X49019482Y-103860812D01*
X49139180Y-103824502D01*
X49249494Y-103765537D01*
X49346185Y-103686185D01*
X49425537Y-103589494D01*
X49474559Y-103497781D01*
X49615577Y-103610969D01*
X49891406Y-103754571D01*
X50109520Y-103825563D01*
X50355500Y-103705594D01*
X50355500Y-102362000D01*
X50335500Y-102362000D01*
X50335500Y-102108000D01*
X50355500Y-102108000D01*
X50355500Y-100764406D01*
X50109520Y-100644437D01*
X49891406Y-100715429D01*
X49615577Y-100859031D01*
X49474559Y-100972219D01*
X49425537Y-100880506D01*
X49346185Y-100783815D01*
X49249494Y-100704463D01*
X49139180Y-100645498D01*
X49019482Y-100609188D01*
X48895000Y-100596928D01*
X46990000Y-100596928D01*
X46865518Y-100609188D01*
X46745820Y-100645498D01*
X46635506Y-100704463D01*
X46538815Y-100783815D01*
X46459463Y-100880506D01*
X46400498Y-100990820D01*
X46364188Y-101110518D01*
X46351928Y-101235000D01*
X46351928Y-101796176D01*
X45390155Y-102757950D01*
X45335393Y-102802892D01*
X45156069Y-103021399D01*
X45108811Y-103109812D01*
X45022818Y-103270693D01*
X44940764Y-103541192D01*
X44913057Y-103822500D01*
X44920001Y-103893002D01*
X44920001Y-104927500D01*
X38297491Y-104927500D01*
X38226999Y-104920557D01*
X37945690Y-104948264D01*
X37864153Y-104972998D01*
X37675192Y-105030318D01*
X37425899Y-105163568D01*
X37207392Y-105342892D01*
X37162454Y-105397649D01*
X36608604Y-105951500D01*
X36512419Y-105951500D01*
X36138581Y-106025861D01*
X35786434Y-106171725D01*
X35469509Y-106383487D01*
X35199987Y-106653009D01*
X34988225Y-106969934D01*
X34842361Y-107322081D01*
X34768000Y-107695919D01*
X28241500Y-107695919D01*
X28241500Y-104106500D01*
X34764928Y-104106500D01*
X34777188Y-104230982D01*
X34813498Y-104350680D01*
X34872463Y-104460994D01*
X34951815Y-104557685D01*
X35048506Y-104637037D01*
X35158820Y-104696002D01*
X35278518Y-104732312D01*
X35403000Y-104744572D01*
X36417250Y-104741500D01*
X36576000Y-104582750D01*
X36576000Y-102933500D01*
X36830000Y-102933500D01*
X36830000Y-104582750D01*
X36988750Y-104741500D01*
X38003000Y-104744572D01*
X38127482Y-104732312D01*
X38247180Y-104696002D01*
X38357494Y-104637037D01*
X38454185Y-104557685D01*
X38533537Y-104460994D01*
X38592502Y-104350680D01*
X38628812Y-104230982D01*
X38641072Y-104106500D01*
X38638000Y-103092250D01*
X38479250Y-102933500D01*
X36830000Y-102933500D01*
X36576000Y-102933500D01*
X34926750Y-102933500D01*
X34768000Y-103092250D01*
X34764928Y-104106500D01*
X28241500Y-104106500D01*
X28241500Y-101506500D01*
X34764928Y-101506500D01*
X34768000Y-102520750D01*
X34926750Y-102679500D01*
X36576000Y-102679500D01*
X36576000Y-101030250D01*
X36830000Y-101030250D01*
X36830000Y-102679500D01*
X38479250Y-102679500D01*
X38638000Y-102520750D01*
X38641072Y-101506500D01*
X38628812Y-101382018D01*
X38592502Y-101262320D01*
X38533537Y-101152006D01*
X38454185Y-101055315D01*
X38357494Y-100975963D01*
X38247180Y-100916998D01*
X38127482Y-100880688D01*
X38003000Y-100868428D01*
X36988750Y-100871500D01*
X36830000Y-101030250D01*
X36576000Y-101030250D01*
X36417250Y-100871500D01*
X35403000Y-100868428D01*
X35278518Y-100880688D01*
X35158820Y-100916998D01*
X35048506Y-100975963D01*
X34951815Y-101055315D01*
X34872463Y-101152006D01*
X34813498Y-101262320D01*
X34777188Y-101382018D01*
X34764928Y-101506500D01*
X28241500Y-101506500D01*
X28241500Y-96562238D01*
X28474319Y-96329419D01*
X34768000Y-96329419D01*
X34768000Y-96710581D01*
X34842361Y-97084419D01*
X34988225Y-97436566D01*
X35199987Y-97753491D01*
X35469509Y-98023013D01*
X35786434Y-98234775D01*
X36138581Y-98380639D01*
X36512419Y-98455000D01*
X36893581Y-98455000D01*
X37267419Y-98380639D01*
X37619566Y-98234775D01*
X37936491Y-98023013D01*
X38004504Y-97955000D01*
X48681605Y-97955000D01*
X51587500Y-100860896D01*
X51587500Y-101050124D01*
X51349423Y-100859031D01*
X51073594Y-100715429D01*
X50855480Y-100644437D01*
X50609500Y-100764406D01*
X50609500Y-102108000D01*
X50629500Y-102108000D01*
X50629500Y-102362000D01*
X50609500Y-102362000D01*
X50609500Y-103705594D01*
X50855480Y-103825563D01*
X51073594Y-103754571D01*
X51349423Y-103610969D01*
X51591937Y-103416315D01*
X51747337Y-103231101D01*
X51894537Y-103410463D01*
X52136266Y-103608845D01*
X52222501Y-103654938D01*
X52222500Y-105658306D01*
X52219428Y-105689500D01*
X52219428Y-107289500D01*
X52231688Y-107413982D01*
X52267998Y-107533680D01*
X52326963Y-107643994D01*
X52406315Y-107740685D01*
X52503006Y-107820037D01*
X52613320Y-107879002D01*
X52733018Y-107915312D01*
X52857500Y-107927572D01*
X52864715Y-107927572D01*
X52844403Y-107996798D01*
X53657500Y-108809895D01*
X54470597Y-107996798D01*
X54450285Y-107927572D01*
X54457500Y-107927572D01*
X54581982Y-107915312D01*
X54701680Y-107879002D01*
X54811994Y-107820037D01*
X54908685Y-107740685D01*
X54988037Y-107643994D01*
X55047002Y-107533680D01*
X55083312Y-107413982D01*
X55095572Y-107289500D01*
X55095572Y-105689500D01*
X55092500Y-105658308D01*
X55092500Y-105357500D01*
X71232928Y-105357500D01*
X71245188Y-105481982D01*
X71281498Y-105601680D01*
X71340463Y-105711994D01*
X71419815Y-105808685D01*
X71516506Y-105888037D01*
X71626820Y-105947002D01*
X71746518Y-105983312D01*
X71871000Y-105995572D01*
X72485250Y-105992500D01*
X72644000Y-105833750D01*
X72644000Y-104584500D01*
X72898000Y-104584500D01*
X72898000Y-105833750D01*
X73056750Y-105992500D01*
X73671000Y-105995572D01*
X73795482Y-105983312D01*
X73915180Y-105947002D01*
X74025494Y-105888037D01*
X74122185Y-105808685D01*
X74201537Y-105711994D01*
X74260502Y-105601680D01*
X74296812Y-105481982D01*
X74309072Y-105357500D01*
X74306000Y-104743250D01*
X74147250Y-104584500D01*
X72898000Y-104584500D01*
X72644000Y-104584500D01*
X71394750Y-104584500D01*
X71236000Y-104743250D01*
X71232928Y-105357500D01*
X55092500Y-105357500D01*
X55092500Y-103289000D01*
X57481835Y-103289000D01*
X57551317Y-103275179D01*
X57621809Y-103268236D01*
X57689597Y-103247673D01*
X57759074Y-103233853D01*
X57824514Y-103206747D01*
X57892308Y-103186182D01*
X57954788Y-103152786D01*
X58020227Y-103125680D01*
X58079122Y-103086328D01*
X58141601Y-103052932D01*
X58196363Y-103007990D01*
X58255259Y-102968637D01*
X58305346Y-102918550D01*
X58360108Y-102873608D01*
X58405050Y-102818846D01*
X58455137Y-102768759D01*
X58494490Y-102709863D01*
X58539432Y-102655101D01*
X58572828Y-102592622D01*
X58612180Y-102533727D01*
X58639286Y-102468288D01*
X58672682Y-102405808D01*
X58693247Y-102338014D01*
X58720353Y-102272574D01*
X58734173Y-102203097D01*
X58754736Y-102135309D01*
X58761679Y-102064817D01*
X58775500Y-101995335D01*
X58775500Y-101924492D01*
X58782443Y-101854000D01*
X66058557Y-101854000D01*
X66065500Y-101924492D01*
X66065500Y-101995335D01*
X66079321Y-102064817D01*
X66086264Y-102135309D01*
X66106827Y-102203097D01*
X66120647Y-102272574D01*
X66147753Y-102338014D01*
X66168318Y-102405808D01*
X66201714Y-102468288D01*
X66228820Y-102533727D01*
X66268172Y-102592622D01*
X66301568Y-102655101D01*
X66346510Y-102709863D01*
X66385863Y-102768759D01*
X66435950Y-102818846D01*
X66480892Y-102873608D01*
X66535654Y-102918550D01*
X66585741Y-102968637D01*
X66644637Y-103007990D01*
X66699399Y-103052932D01*
X66761878Y-103086328D01*
X66820773Y-103125680D01*
X66886212Y-103152786D01*
X66948692Y-103186182D01*
X67016486Y-103206747D01*
X67081926Y-103233853D01*
X67151403Y-103247673D01*
X67219191Y-103268236D01*
X67289683Y-103275179D01*
X67359165Y-103289000D01*
X71294498Y-103289000D01*
X71281498Y-103313320D01*
X71245188Y-103433018D01*
X71232928Y-103557500D01*
X71236000Y-104171750D01*
X71394750Y-104330500D01*
X72644000Y-104330500D01*
X72644000Y-104310500D01*
X72898000Y-104310500D01*
X72898000Y-104330500D01*
X74147250Y-104330500D01*
X74306000Y-104171750D01*
X74309072Y-103557500D01*
X74296812Y-103433018D01*
X74260502Y-103313320D01*
X74201537Y-103203006D01*
X74122185Y-103106315D01*
X74025494Y-103026963D01*
X73915180Y-102967998D01*
X73896873Y-102962444D01*
X73963312Y-102896005D01*
X74131299Y-102644595D01*
X74247011Y-102365243D01*
X74306000Y-102068684D01*
X74306000Y-101766316D01*
X74247011Y-101469757D01*
X74131299Y-101190405D01*
X73963312Y-100938995D01*
X73749505Y-100725188D01*
X73498095Y-100557201D01*
X73218743Y-100441489D01*
X72922184Y-100382500D01*
X72619816Y-100382500D01*
X72436317Y-100419000D01*
X67359165Y-100419000D01*
X67289683Y-100432821D01*
X67219191Y-100439764D01*
X67151403Y-100460327D01*
X67081926Y-100474147D01*
X67016486Y-100501253D01*
X66948692Y-100521818D01*
X66886212Y-100555214D01*
X66820773Y-100582320D01*
X66761878Y-100621672D01*
X66699399Y-100655068D01*
X66644637Y-100700010D01*
X66585741Y-100739363D01*
X66535654Y-100789450D01*
X66480892Y-100834392D01*
X66435950Y-100889154D01*
X66385863Y-100939241D01*
X66346510Y-100998137D01*
X66301568Y-101052899D01*
X66268172Y-101115378D01*
X66228820Y-101174273D01*
X66201714Y-101239712D01*
X66168318Y-101302192D01*
X66147753Y-101369986D01*
X66120647Y-101435426D01*
X66106827Y-101504903D01*
X66086264Y-101572691D01*
X66079321Y-101643183D01*
X66065500Y-101712665D01*
X66065500Y-101783508D01*
X66058557Y-101854000D01*
X58782443Y-101854000D01*
X58775500Y-101783508D01*
X58775500Y-101712665D01*
X58761679Y-101643183D01*
X58754736Y-101572691D01*
X58734173Y-101504903D01*
X58720353Y-101435426D01*
X58693247Y-101369986D01*
X58672682Y-101302192D01*
X58639286Y-101239712D01*
X58612180Y-101174273D01*
X58572828Y-101115378D01*
X58539432Y-101052899D01*
X58494490Y-100998137D01*
X58455137Y-100939241D01*
X58405050Y-100889154D01*
X58360108Y-100834392D01*
X58305346Y-100789450D01*
X58255259Y-100739363D01*
X58196363Y-100700010D01*
X58141601Y-100655068D01*
X58079122Y-100621672D01*
X58020227Y-100582320D01*
X57954788Y-100555214D01*
X57892308Y-100521818D01*
X57824514Y-100501253D01*
X57759074Y-100474147D01*
X57689597Y-100460327D01*
X57621809Y-100439764D01*
X57551317Y-100432821D01*
X57481835Y-100419000D01*
X54457500Y-100419000D01*
X54457500Y-100336991D01*
X54464443Y-100266499D01*
X54436736Y-99985190D01*
X54354682Y-99714692D01*
X54221432Y-99465399D01*
X54042107Y-99246892D01*
X53987350Y-99201954D01*
X50340554Y-95555159D01*
X50295608Y-95500392D01*
X50077101Y-95321068D01*
X49827808Y-95187818D01*
X49557309Y-95105764D01*
X49346492Y-95085000D01*
X49276000Y-95078057D01*
X49205508Y-95085000D01*
X38004504Y-95085000D01*
X37936491Y-95016987D01*
X37619566Y-94805225D01*
X37267419Y-94659361D01*
X36893581Y-94585000D01*
X36512419Y-94585000D01*
X36138581Y-94659361D01*
X35786434Y-94805225D01*
X35469509Y-95016987D01*
X35199987Y-95286509D01*
X34988225Y-95603434D01*
X34842361Y-95955581D01*
X34768000Y-96329419D01*
X28474319Y-96329419D01*
X31728739Y-93075000D01*
X34862043Y-93075000D01*
X34872463Y-93094494D01*
X34951815Y-93191185D01*
X35048506Y-93270537D01*
X35158820Y-93329502D01*
X35278518Y-93365812D01*
X35403000Y-93378072D01*
X38003000Y-93378072D01*
X38127482Y-93365812D01*
X38247180Y-93329502D01*
X38357494Y-93270537D01*
X38454185Y-93191185D01*
X38533537Y-93094494D01*
X38592502Y-92984180D01*
X38628812Y-92864482D01*
X38641072Y-92740000D01*
X38641072Y-90140000D01*
X38628812Y-90015518D01*
X38592502Y-89895820D01*
X38533537Y-89785506D01*
X38454185Y-89688815D01*
X38357494Y-89609463D01*
X38247180Y-89550498D01*
X38127482Y-89514188D01*
X38003000Y-89501928D01*
X35403000Y-89501928D01*
X35278518Y-89514188D01*
X35158820Y-89550498D01*
X35048506Y-89609463D01*
X34951815Y-89688815D01*
X34872463Y-89785506D01*
X34862043Y-89805000D01*
X31131819Y-89805000D01*
X31051499Y-89797089D01*
X30971180Y-89805000D01*
X30585739Y-89805000D01*
X30281856Y-89501117D01*
X46592690Y-89501117D01*
X46633678Y-89773233D01*
X46726964Y-90032123D01*
X46788944Y-90148080D01*
X47029035Y-90215060D01*
X47814995Y-89429100D01*
X47029035Y-88643140D01*
X46788944Y-88710120D01*
X46671844Y-88959148D01*
X46605577Y-89226235D01*
X46592690Y-89501117D01*
X30281856Y-89501117D01*
X28241500Y-87460762D01*
X28241500Y-68624344D01*
X29707000Y-68624344D01*
X29707000Y-68995656D01*
X29779439Y-69359834D01*
X29807001Y-69426374D01*
X29807000Y-76017824D01*
X29798365Y-76105500D01*
X29807000Y-76193175D01*
X29807000Y-76193182D01*
X29832828Y-76455420D01*
X29934896Y-76791894D01*
X30100646Y-77101990D01*
X30323708Y-77373792D01*
X30391821Y-77429691D01*
X32648313Y-79686184D01*
X32704208Y-79754292D01*
X32976009Y-79977354D01*
X33286105Y-80143104D01*
X33622579Y-80245172D01*
X33884817Y-80271000D01*
X33884826Y-80271000D01*
X33972499Y-80279635D01*
X34060172Y-80271000D01*
X34675519Y-80271000D01*
X34731006Y-80316537D01*
X34841320Y-80375502D01*
X34961018Y-80411812D01*
X35085500Y-80424072D01*
X37685500Y-80424072D01*
X37809982Y-80411812D01*
X37929680Y-80375502D01*
X38039994Y-80316537D01*
X38136685Y-80237185D01*
X38216037Y-80140494D01*
X38275002Y-80030180D01*
X38283500Y-80002165D01*
X38283500Y-81048628D01*
X37551129Y-81781000D01*
X37132528Y-81781000D01*
X36949919Y-81705361D01*
X36576081Y-81631000D01*
X36194919Y-81631000D01*
X35821081Y-81705361D01*
X35468934Y-81851225D01*
X35152009Y-82062987D01*
X34882487Y-82332509D01*
X34670725Y-82649434D01*
X34524861Y-83001581D01*
X34450500Y-83375419D01*
X34450500Y-83756581D01*
X34524861Y-84130419D01*
X34670725Y-84482566D01*
X34882487Y-84799491D01*
X35152009Y-85069013D01*
X35468934Y-85280775D01*
X35821081Y-85426639D01*
X36194919Y-85501000D01*
X36576081Y-85501000D01*
X36949919Y-85426639D01*
X37132528Y-85351000D01*
X38202825Y-85351000D01*
X38290500Y-85359635D01*
X38378175Y-85351000D01*
X38378183Y-85351000D01*
X38640421Y-85325172D01*
X38976895Y-85223104D01*
X39286991Y-85057354D01*
X39558792Y-84834292D01*
X39614691Y-84766179D01*
X41268690Y-83112182D01*
X41336792Y-83056292D01*
X41392682Y-82988190D01*
X41392687Y-82988185D01*
X41559854Y-82784491D01*
X41725604Y-82474395D01*
X41827672Y-82137921D01*
X41832351Y-82090409D01*
X41853500Y-81875683D01*
X41853500Y-81875676D01*
X41862135Y-81788000D01*
X41853500Y-81700324D01*
X41853500Y-81671508D01*
X46597600Y-81671508D01*
X46597600Y-81946692D01*
X46651286Y-82216590D01*
X46756595Y-82470827D01*
X46909480Y-82699635D01*
X47104065Y-82894220D01*
X47332873Y-83047105D01*
X47410115Y-83079100D01*
X47332873Y-83111095D01*
X47104065Y-83263980D01*
X46909480Y-83458565D01*
X46756595Y-83687373D01*
X46651286Y-83941610D01*
X46597600Y-84211508D01*
X46597600Y-84486692D01*
X46651286Y-84756590D01*
X46756595Y-85010827D01*
X46909480Y-85239635D01*
X47104065Y-85434220D01*
X47332873Y-85587105D01*
X47410115Y-85619100D01*
X47332873Y-85651095D01*
X47104065Y-85803980D01*
X46909480Y-85998565D01*
X46756595Y-86227373D01*
X46651286Y-86481610D01*
X46597600Y-86751508D01*
X46597600Y-87026692D01*
X46651286Y-87296590D01*
X46756595Y-87550827D01*
X46909480Y-87779635D01*
X47104065Y-87974220D01*
X47332873Y-88127105D01*
X47404543Y-88156792D01*
X47391577Y-88161464D01*
X47275620Y-88223444D01*
X47208640Y-88463535D01*
X47994600Y-89249495D01*
X48780560Y-88463535D01*
X48713580Y-88223444D01*
X48577840Y-88159615D01*
X48656327Y-88127105D01*
X48885135Y-87974220D01*
X49079720Y-87779635D01*
X49232605Y-87550827D01*
X49337914Y-87296590D01*
X49391600Y-87026692D01*
X49391600Y-86751508D01*
X49337914Y-86481610D01*
X49232605Y-86227373D01*
X49079720Y-85998565D01*
X48885135Y-85803980D01*
X48656327Y-85651095D01*
X48579085Y-85619100D01*
X48656327Y-85587105D01*
X48885135Y-85434220D01*
X49079720Y-85239635D01*
X49232605Y-85010827D01*
X49274488Y-84909713D01*
X61426592Y-84909713D01*
X61522356Y-85174114D01*
X61811971Y-85315004D01*
X62123508Y-85396684D01*
X62444995Y-85416018D01*
X62764075Y-85372261D01*
X63068488Y-85267095D01*
X63242444Y-85174114D01*
X63338208Y-84909713D01*
X62382400Y-83953905D01*
X61426592Y-84909713D01*
X49274488Y-84909713D01*
X49337914Y-84756590D01*
X49391600Y-84486692D01*
X49391600Y-84211508D01*
X49337914Y-83941610D01*
X49294540Y-83836895D01*
X60740682Y-83836895D01*
X60784439Y-84155975D01*
X60889605Y-84460388D01*
X60982586Y-84634344D01*
X61246987Y-84730108D01*
X62202795Y-83774300D01*
X62562005Y-83774300D01*
X63517813Y-84730108D01*
X63782214Y-84634344D01*
X63923104Y-84344729D01*
X64004784Y-84033192D01*
X64024118Y-83711705D01*
X63980361Y-83392625D01*
X63875195Y-83088212D01*
X63782214Y-82914256D01*
X63517813Y-82818492D01*
X62562005Y-83774300D01*
X62202795Y-83774300D01*
X61246987Y-82818492D01*
X60982586Y-82914256D01*
X60841696Y-83203871D01*
X60760016Y-83515408D01*
X60740682Y-83836895D01*
X49294540Y-83836895D01*
X49232605Y-83687373D01*
X49079720Y-83458565D01*
X48885135Y-83263980D01*
X48656327Y-83111095D01*
X48579085Y-83079100D01*
X48656327Y-83047105D01*
X48885135Y-82894220D01*
X49079720Y-82699635D01*
X49120310Y-82638887D01*
X61426592Y-82638887D01*
X62382400Y-83594695D01*
X63338208Y-82638887D01*
X63242444Y-82374486D01*
X62952829Y-82233596D01*
X62641292Y-82151916D01*
X62319805Y-82132582D01*
X62000725Y-82176339D01*
X61696312Y-82281505D01*
X61522356Y-82374486D01*
X61426592Y-82638887D01*
X49120310Y-82638887D01*
X49232605Y-82470827D01*
X49337914Y-82216590D01*
X49391600Y-81946692D01*
X49391600Y-81671508D01*
X49337914Y-81401610D01*
X49232605Y-81147373D01*
X49079720Y-80918565D01*
X48885135Y-80723980D01*
X48656327Y-80571095D01*
X48584657Y-80541408D01*
X48597623Y-80536736D01*
X48713580Y-80474756D01*
X48780560Y-80234665D01*
X47994600Y-79448705D01*
X47208640Y-80234665D01*
X47275620Y-80474756D01*
X47411360Y-80538585D01*
X47332873Y-80571095D01*
X47104065Y-80723980D01*
X46909480Y-80918565D01*
X46756595Y-81147373D01*
X46651286Y-81401610D01*
X46597600Y-81671508D01*
X41853500Y-81671508D01*
X41853500Y-79341117D01*
X46592690Y-79341117D01*
X46633678Y-79613233D01*
X46726964Y-79872123D01*
X46788944Y-79988080D01*
X47029035Y-80055060D01*
X47814995Y-79269100D01*
X48174205Y-79269100D01*
X48960165Y-80055060D01*
X49200256Y-79988080D01*
X49317356Y-79739052D01*
X49383623Y-79471965D01*
X49396510Y-79197083D01*
X49355522Y-78924967D01*
X49262236Y-78666077D01*
X49200256Y-78550120D01*
X48960165Y-78483140D01*
X48174205Y-79269100D01*
X47814995Y-79269100D01*
X47029035Y-78483140D01*
X46788944Y-78550120D01*
X46671844Y-78799148D01*
X46605577Y-79066235D01*
X46592690Y-79341117D01*
X41853500Y-79341117D01*
X41853500Y-75398672D01*
X41862135Y-75310999D01*
X41853500Y-75223326D01*
X41853500Y-75223317D01*
X41827672Y-74961079D01*
X41725604Y-74624605D01*
X41559854Y-74314509D01*
X41336792Y-74042708D01*
X41268684Y-73986813D01*
X39313500Y-72031630D01*
X39313500Y-68624344D01*
X41707000Y-68624344D01*
X41707000Y-68995656D01*
X41779439Y-69359834D01*
X41921534Y-69702882D01*
X42127825Y-70011618D01*
X42390382Y-70274175D01*
X42699118Y-70480466D01*
X43042166Y-70622561D01*
X43406344Y-70695000D01*
X43777656Y-70695000D01*
X44141834Y-70622561D01*
X44484882Y-70480466D01*
X44793618Y-70274175D01*
X45056175Y-70011618D01*
X45262466Y-69702882D01*
X45404561Y-69359834D01*
X45477000Y-68995656D01*
X45477000Y-68624344D01*
X45404561Y-68260166D01*
X45262466Y-67917118D01*
X45056175Y-67608382D01*
X44793618Y-67345825D01*
X44484882Y-67139534D01*
X44141834Y-66997439D01*
X43777656Y-66925000D01*
X43406344Y-66925000D01*
X43042166Y-66997439D01*
X42699118Y-67139534D01*
X42390382Y-67345825D01*
X42127825Y-67608382D01*
X41921534Y-67917118D01*
X41779439Y-68260166D01*
X41707000Y-68624344D01*
X39313500Y-68624344D01*
X39313500Y-68482609D01*
X39351172Y-68358421D01*
X39377000Y-68096183D01*
X39377000Y-68096182D01*
X39385636Y-68008500D01*
X39377000Y-67920817D01*
X39377000Y-56206144D01*
X39431502Y-56104180D01*
X39467812Y-55984482D01*
X39480072Y-55860000D01*
X39480072Y-53360000D01*
X39467812Y-53235518D01*
X39431502Y-53115820D01*
X39372537Y-53005506D01*
X39293185Y-52908815D01*
X39196494Y-52829463D01*
X39086180Y-52770498D01*
X38966482Y-52734188D01*
X38842000Y-52721928D01*
X36342000Y-52721928D01*
X36217518Y-52734188D01*
X36097820Y-52770498D01*
X35987506Y-52829463D01*
X35890815Y-52908815D01*
X35811463Y-53005506D01*
X35752498Y-53115820D01*
X35716188Y-53235518D01*
X35703928Y-53360000D01*
X35703928Y-55860000D01*
X35716188Y-55984482D01*
X35752498Y-56104180D01*
X35807001Y-56206146D01*
X35807000Y-67597892D01*
X35769328Y-67722080D01*
X35734865Y-68072000D01*
X35743501Y-68159685D01*
X35743500Y-72683324D01*
X35734865Y-72771000D01*
X35743500Y-72858675D01*
X35743500Y-72858682D01*
X35769328Y-73120920D01*
X35871396Y-73457394D01*
X36037146Y-73767490D01*
X36260208Y-74039292D01*
X36328321Y-74095191D01*
X38283501Y-76050372D01*
X38283501Y-76969837D01*
X38275002Y-76941820D01*
X38216037Y-76831506D01*
X38136685Y-76734815D01*
X38039994Y-76655463D01*
X37929680Y-76596498D01*
X37809982Y-76560188D01*
X37685500Y-76547928D01*
X35085500Y-76547928D01*
X34961018Y-76560188D01*
X34841320Y-76596498D01*
X34731006Y-76655463D01*
X34695485Y-76684614D01*
X33377000Y-75366130D01*
X33377000Y-69426372D01*
X33404561Y-69359834D01*
X33477000Y-68995656D01*
X33477000Y-68624344D01*
X33404561Y-68260166D01*
X33262466Y-67917118D01*
X33056175Y-67608382D01*
X32793618Y-67345825D01*
X32484882Y-67139534D01*
X32141834Y-66997439D01*
X31777656Y-66925000D01*
X31406344Y-66925000D01*
X31042166Y-66997439D01*
X30699118Y-67139534D01*
X30390382Y-67345825D01*
X30127825Y-67608382D01*
X29921534Y-67917118D01*
X29779439Y-68260166D01*
X29707000Y-68624344D01*
X28241500Y-68624344D01*
X28241500Y-59605238D01*
X29601739Y-58245000D01*
X30646039Y-58245000D01*
X30699118Y-58280466D01*
X31042166Y-58422561D01*
X31406344Y-58495000D01*
X31777656Y-58495000D01*
X32141834Y-58422561D01*
X32484882Y-58280466D01*
X32793618Y-58074175D01*
X33056175Y-57811618D01*
X33262466Y-57502882D01*
X33404561Y-57159834D01*
X33477000Y-56795656D01*
X33477000Y-56424344D01*
X33404561Y-56060166D01*
X33262466Y-55717118D01*
X33227000Y-55664039D01*
X33227000Y-52905238D01*
X36618239Y-49514000D01*
X40781356Y-49514000D01*
X40883320Y-49568502D01*
X41003018Y-49604812D01*
X41127500Y-49617072D01*
X43327500Y-49617072D01*
X43451982Y-49604812D01*
X43571680Y-49568502D01*
X43681994Y-49509537D01*
X43778685Y-49430185D01*
X43858037Y-49333494D01*
X43917002Y-49223180D01*
X43953312Y-49103482D01*
X43965572Y-48979000D01*
X43965572Y-46779000D01*
X43953312Y-46654518D01*
X43917002Y-46534820D01*
X43862500Y-46432856D01*
X43862500Y-43349238D01*
X46401740Y-40809999D01*
X53172605Y-40809999D01*
X51422655Y-42559950D01*
X51367892Y-42604893D01*
X51188568Y-42823400D01*
X51055319Y-43072692D01*
X51055318Y-43072693D01*
X50973264Y-43343192D01*
X50945557Y-43624500D01*
X50952500Y-43694992D01*
X50952501Y-46444000D01*
X47504995Y-46444000D01*
X47434500Y-46437057D01*
X47153191Y-46464763D01*
X46907192Y-46539386D01*
X46882692Y-46546818D01*
X46633399Y-46680068D01*
X46414892Y-46859392D01*
X46369950Y-46914154D01*
X42627155Y-50656950D01*
X42572393Y-50701892D01*
X42393069Y-50920399D01*
X42321845Y-51053650D01*
X42259818Y-51169693D01*
X42177764Y-51440192D01*
X42150057Y-51721500D01*
X42157001Y-51792002D01*
X42157000Y-55379207D01*
X42127825Y-55408382D01*
X41921534Y-55717118D01*
X41779439Y-56060166D01*
X41707000Y-56424344D01*
X41707000Y-56795656D01*
X41779439Y-57159834D01*
X41921534Y-57502882D01*
X42127825Y-57811618D01*
X42390382Y-58074175D01*
X42699118Y-58280466D01*
X43042166Y-58422561D01*
X43406344Y-58495000D01*
X43777656Y-58495000D01*
X44141834Y-58422561D01*
X44484882Y-58280466D01*
X44793618Y-58074175D01*
X45056175Y-57811618D01*
X45262466Y-57502882D01*
X45404561Y-57159834D01*
X45477000Y-56795656D01*
X45477000Y-56424344D01*
X45446600Y-56271508D01*
X46597600Y-56271508D01*
X46597600Y-56546692D01*
X46651286Y-56816590D01*
X46756595Y-57070827D01*
X46909480Y-57299635D01*
X47104065Y-57494220D01*
X47332873Y-57647105D01*
X47410115Y-57679100D01*
X47332873Y-57711095D01*
X47104065Y-57863980D01*
X46909480Y-58058565D01*
X46756595Y-58287373D01*
X46651286Y-58541610D01*
X46597600Y-58811508D01*
X46597600Y-59086692D01*
X46651286Y-59356590D01*
X46756595Y-59610827D01*
X46909480Y-59839635D01*
X47104065Y-60034220D01*
X47332873Y-60187105D01*
X47410115Y-60219100D01*
X47332873Y-60251095D01*
X47104065Y-60403980D01*
X46909480Y-60598565D01*
X46756595Y-60827373D01*
X46651286Y-61081610D01*
X46597600Y-61351508D01*
X46597600Y-61626692D01*
X46651286Y-61896590D01*
X46756595Y-62150827D01*
X46909480Y-62379635D01*
X47104065Y-62574220D01*
X47332873Y-62727105D01*
X47410115Y-62759100D01*
X47332873Y-62791095D01*
X47104065Y-62943980D01*
X46909480Y-63138565D01*
X46756595Y-63367373D01*
X46651286Y-63621610D01*
X46597600Y-63891508D01*
X46597600Y-64166692D01*
X46651286Y-64436590D01*
X46756595Y-64690827D01*
X46909480Y-64919635D01*
X47104065Y-65114220D01*
X47332873Y-65267105D01*
X47410115Y-65299100D01*
X47332873Y-65331095D01*
X47104065Y-65483980D01*
X46909480Y-65678565D01*
X46756595Y-65907373D01*
X46651286Y-66161610D01*
X46597600Y-66431508D01*
X46597600Y-66706692D01*
X46651286Y-66976590D01*
X46756595Y-67230827D01*
X46909480Y-67459635D01*
X47104065Y-67654220D01*
X47332873Y-67807105D01*
X47410115Y-67839100D01*
X47332873Y-67871095D01*
X47104065Y-68023980D01*
X46909480Y-68218565D01*
X46756595Y-68447373D01*
X46651286Y-68701610D01*
X46597600Y-68971508D01*
X46597600Y-69246692D01*
X46651286Y-69516590D01*
X46756595Y-69770827D01*
X46909480Y-69999635D01*
X47104065Y-70194220D01*
X47332873Y-70347105D01*
X47410115Y-70379100D01*
X47332873Y-70411095D01*
X47104065Y-70563980D01*
X46909480Y-70758565D01*
X46756595Y-70987373D01*
X46651286Y-71241610D01*
X46597600Y-71511508D01*
X46597600Y-71786692D01*
X46651286Y-72056590D01*
X46756595Y-72310827D01*
X46909480Y-72539635D01*
X47104065Y-72734220D01*
X47332873Y-72887105D01*
X47410115Y-72919100D01*
X47332873Y-72951095D01*
X47104065Y-73103980D01*
X46909480Y-73298565D01*
X46756595Y-73527373D01*
X46651286Y-73781610D01*
X46597600Y-74051508D01*
X46597600Y-74326692D01*
X46651286Y-74596590D01*
X46756595Y-74850827D01*
X46909480Y-75079635D01*
X47104065Y-75274220D01*
X47332873Y-75427105D01*
X47410115Y-75459100D01*
X47332873Y-75491095D01*
X47104065Y-75643980D01*
X46909480Y-75838565D01*
X46756595Y-76067373D01*
X46651286Y-76321610D01*
X46597600Y-76591508D01*
X46597600Y-76866692D01*
X46651286Y-77136590D01*
X46756595Y-77390827D01*
X46909480Y-77619635D01*
X47104065Y-77814220D01*
X47332873Y-77967105D01*
X47404543Y-77996792D01*
X47391577Y-78001464D01*
X47275620Y-78063444D01*
X47208640Y-78303535D01*
X47994600Y-79089495D01*
X48780560Y-78303535D01*
X48713580Y-78063444D01*
X48577840Y-77999615D01*
X48656327Y-77967105D01*
X48885135Y-77814220D01*
X49079720Y-77619635D01*
X49232605Y-77390827D01*
X49337914Y-77136590D01*
X49391600Y-76866692D01*
X49391600Y-76591508D01*
X49337914Y-76321610D01*
X49232605Y-76067373D01*
X49079720Y-75838565D01*
X48885135Y-75643980D01*
X48656327Y-75491095D01*
X48579085Y-75459100D01*
X48656327Y-75427105D01*
X48885135Y-75274220D01*
X49079720Y-75079635D01*
X49232605Y-74850827D01*
X49337914Y-74596590D01*
X49391600Y-74326692D01*
X49391600Y-74051508D01*
X49337914Y-73781610D01*
X49232605Y-73527373D01*
X49079720Y-73298565D01*
X48885135Y-73103980D01*
X48656327Y-72951095D01*
X48579085Y-72919100D01*
X48656327Y-72887105D01*
X48885135Y-72734220D01*
X49079720Y-72539635D01*
X49232605Y-72310827D01*
X49337914Y-72056590D01*
X49391600Y-71786692D01*
X49391600Y-71511508D01*
X49337914Y-71241610D01*
X49232605Y-70987373D01*
X49079720Y-70758565D01*
X48885135Y-70563980D01*
X48656327Y-70411095D01*
X48579085Y-70379100D01*
X48656327Y-70347105D01*
X48885135Y-70194220D01*
X49079720Y-69999635D01*
X49232605Y-69770827D01*
X49337914Y-69516590D01*
X49391600Y-69246692D01*
X49391600Y-68971508D01*
X49337914Y-68701610D01*
X49232605Y-68447373D01*
X49079720Y-68218565D01*
X48885135Y-68023980D01*
X48656327Y-67871095D01*
X48579085Y-67839100D01*
X48656327Y-67807105D01*
X48885135Y-67654220D01*
X49079720Y-67459635D01*
X49232605Y-67230827D01*
X49337914Y-66976590D01*
X49391600Y-66706692D01*
X49391600Y-66431508D01*
X49337914Y-66161610D01*
X49232605Y-65907373D01*
X49079720Y-65678565D01*
X48885135Y-65483980D01*
X48656327Y-65331095D01*
X48579085Y-65299100D01*
X48656327Y-65267105D01*
X48885135Y-65114220D01*
X49079720Y-64919635D01*
X49232605Y-64690827D01*
X49337914Y-64436590D01*
X49391600Y-64166692D01*
X49391600Y-63891508D01*
X49337914Y-63621610D01*
X49232605Y-63367373D01*
X49079720Y-63138565D01*
X48885135Y-62943980D01*
X48656327Y-62791095D01*
X48579085Y-62759100D01*
X48656327Y-62727105D01*
X48885135Y-62574220D01*
X49079720Y-62379635D01*
X49232605Y-62150827D01*
X49337914Y-61896590D01*
X49391600Y-61626692D01*
X49391600Y-61351508D01*
X49337914Y-61081610D01*
X49232605Y-60827373D01*
X49079720Y-60598565D01*
X48885135Y-60403980D01*
X48656327Y-60251095D01*
X48579085Y-60219100D01*
X48656327Y-60187105D01*
X48885135Y-60034220D01*
X49079720Y-59839635D01*
X49232605Y-59610827D01*
X49337914Y-59356590D01*
X49391600Y-59086692D01*
X49391600Y-58811508D01*
X49337914Y-58541610D01*
X49232605Y-58287373D01*
X49079720Y-58058565D01*
X48885135Y-57863980D01*
X48656327Y-57711095D01*
X48579085Y-57679100D01*
X48656327Y-57647105D01*
X48885135Y-57494220D01*
X49079720Y-57299635D01*
X49232605Y-57070827D01*
X49337914Y-56816590D01*
X49391600Y-56546692D01*
X49391600Y-56271508D01*
X49337914Y-56001610D01*
X49232605Y-55747373D01*
X49079720Y-55518565D01*
X48885135Y-55323980D01*
X48656327Y-55171095D01*
X48402090Y-55065786D01*
X48132192Y-55012100D01*
X47857008Y-55012100D01*
X47587110Y-55065786D01*
X47332873Y-55171095D01*
X47104065Y-55323980D01*
X46909480Y-55518565D01*
X46756595Y-55747373D01*
X46651286Y-56001610D01*
X46597600Y-56271508D01*
X45446600Y-56271508D01*
X45404561Y-56060166D01*
X45262466Y-55717118D01*
X45056175Y-55408382D01*
X45027000Y-55379207D01*
X45027000Y-52315895D01*
X48028896Y-49314000D01*
X51412211Y-49314000D01*
X51565669Y-49416537D01*
X51881419Y-49547325D01*
X52216617Y-49614000D01*
X52558383Y-49614000D01*
X52790345Y-49567860D01*
X52931691Y-49610737D01*
X53213000Y-49638443D01*
X53283495Y-49631500D01*
X56902992Y-49631500D01*
X57113809Y-49610736D01*
X57200061Y-49584572D01*
X57582500Y-49584572D01*
X57706982Y-49572312D01*
X57826680Y-49536002D01*
X57936994Y-49477037D01*
X58033685Y-49397685D01*
X58113037Y-49300994D01*
X58172002Y-49190680D01*
X58208312Y-49070982D01*
X58220572Y-48946500D01*
X58220572Y-48564061D01*
X58246736Y-48477809D01*
X58274443Y-48196500D01*
X58246736Y-47915191D01*
X58220572Y-47828939D01*
X58220572Y-47446500D01*
X58208312Y-47322018D01*
X58172002Y-47202320D01*
X58113037Y-47092006D01*
X58112622Y-47091500D01*
X58143105Y-47091500D01*
X59527863Y-48476259D01*
X59727741Y-48676137D01*
X59786644Y-48715495D01*
X59841399Y-48760431D01*
X59903873Y-48793824D01*
X59962773Y-48833180D01*
X60028214Y-48860286D01*
X60090692Y-48893682D01*
X60158488Y-48914248D01*
X60223926Y-48941353D01*
X60293396Y-48955172D01*
X60361191Y-48975737D01*
X60431690Y-48982680D01*
X60501165Y-48996500D01*
X60572005Y-48996500D01*
X60642500Y-49003443D01*
X60712995Y-48996500D01*
X60783835Y-48996500D01*
X60853310Y-48982680D01*
X60923809Y-48975737D01*
X60991603Y-48955172D01*
X61061074Y-48941353D01*
X61126514Y-48914247D01*
X61194307Y-48893682D01*
X61256782Y-48860288D01*
X61322227Y-48833180D01*
X61381131Y-48793821D01*
X61443600Y-48760431D01*
X61498351Y-48715498D01*
X61557259Y-48676137D01*
X61607356Y-48626040D01*
X61662107Y-48581107D01*
X61707040Y-48526356D01*
X61757137Y-48476259D01*
X61796498Y-48417351D01*
X61841431Y-48362600D01*
X61874821Y-48300131D01*
X61914180Y-48241227D01*
X61941288Y-48175782D01*
X61974682Y-48113307D01*
X61995247Y-48045514D01*
X62022353Y-47980074D01*
X62036172Y-47910603D01*
X62056737Y-47842809D01*
X62063680Y-47772310D01*
X62077500Y-47702835D01*
X62077500Y-47631991D01*
X62084443Y-47561500D01*
X62077500Y-47491005D01*
X62077500Y-47420165D01*
X62063680Y-47350690D01*
X62056737Y-47280191D01*
X62036172Y-47212396D01*
X62022353Y-47142926D01*
X61995248Y-47077488D01*
X61974682Y-47009692D01*
X61941286Y-46947214D01*
X61914180Y-46881773D01*
X61874824Y-46822873D01*
X61841431Y-46760399D01*
X61796495Y-46705644D01*
X61757137Y-46646741D01*
X61557259Y-46446863D01*
X59802054Y-44691659D01*
X59757108Y-44636892D01*
X59538601Y-44457568D01*
X59289308Y-44324318D01*
X59018809Y-44242264D01*
X58807992Y-44221500D01*
X58737500Y-44214557D01*
X58667008Y-44221500D01*
X57569287Y-44221500D01*
X57609888Y-44073493D01*
X56832500Y-43296105D01*
X56055112Y-44073493D01*
X56120637Y-44312360D01*
X56217779Y-44357946D01*
X56031399Y-44457568D01*
X55812892Y-44636892D01*
X55633568Y-44855399D01*
X55500318Y-45104692D01*
X55418264Y-45375191D01*
X55390557Y-45656500D01*
X55418264Y-45937809D01*
X55500318Y-46208308D01*
X55633568Y-46457601D01*
X55812892Y-46676108D01*
X55916942Y-46761500D01*
X53822500Y-46761500D01*
X53822500Y-44218895D01*
X55331396Y-42710000D01*
X55506303Y-42710000D01*
X55455250Y-42916460D01*
X55442688Y-43188992D01*
X55483535Y-43458738D01*
X55576223Y-43715332D01*
X55636640Y-43828363D01*
X55875507Y-43893888D01*
X56652895Y-43116500D01*
X56638753Y-43102358D01*
X56818358Y-42922753D01*
X56832500Y-42936895D01*
X56846643Y-42922753D01*
X57026248Y-43102358D01*
X57012105Y-43116500D01*
X57789493Y-43893888D01*
X58028360Y-43828363D01*
X58144260Y-43581384D01*
X58209750Y-43316540D01*
X58222312Y-43044008D01*
X58181465Y-42774262D01*
X58158252Y-42710000D01*
X62698356Y-42710000D01*
X62800320Y-42764502D01*
X62818627Y-42770056D01*
X62752188Y-42836495D01*
X62584201Y-43087905D01*
X62468489Y-43367257D01*
X62409500Y-43663816D01*
X62409500Y-43966184D01*
X62468489Y-44262743D01*
X62584201Y-44542095D01*
X62752188Y-44793505D01*
X62965995Y-45007312D01*
X63217405Y-45175299D01*
X63496757Y-45291011D01*
X63793316Y-45350000D01*
X64095684Y-45350000D01*
X64392243Y-45291011D01*
X64491252Y-45250000D01*
X69398508Y-45250000D01*
X69469000Y-45256943D01*
X69539492Y-45250000D01*
X69750309Y-45229236D01*
X69963556Y-45164549D01*
X69837655Y-45290450D01*
X69782893Y-45335392D01*
X69603569Y-45553899D01*
X69470318Y-45803192D01*
X69388264Y-46073691D01*
X69377631Y-46181647D01*
X69360557Y-46355000D01*
X69367500Y-46425492D01*
X69367500Y-47702835D01*
X69381321Y-47772318D01*
X69388264Y-47842808D01*
X69408826Y-47910594D01*
X69422647Y-47980074D01*
X69449754Y-48045517D01*
X69470318Y-48113307D01*
X69503713Y-48175784D01*
X69530820Y-48241227D01*
X69570175Y-48300126D01*
X69603568Y-48362600D01*
X69648507Y-48417358D01*
X69687863Y-48476259D01*
X69737955Y-48526351D01*
X69782892Y-48581107D01*
X69837650Y-48626046D01*
X69887741Y-48676137D01*
X69946638Y-48715491D01*
X70001399Y-48760432D01*
X70063878Y-48793828D01*
X70122773Y-48833180D01*
X70188212Y-48860286D01*
X70250692Y-48893682D01*
X70318486Y-48914247D01*
X70383926Y-48941353D01*
X70453403Y-48955173D01*
X70521191Y-48975736D01*
X70591683Y-48982679D01*
X70661165Y-48996500D01*
X70732008Y-48996500D01*
X70802500Y-49003443D01*
X70872992Y-48996500D01*
X70943835Y-48996500D01*
X71013318Y-48982679D01*
X71083808Y-48975736D01*
X71151594Y-48955174D01*
X71221074Y-48941353D01*
X71286517Y-48914246D01*
X71354307Y-48893682D01*
X71416784Y-48860287D01*
X71482227Y-48833180D01*
X71541126Y-48793825D01*
X71603600Y-48760432D01*
X71658358Y-48715493D01*
X71717259Y-48676137D01*
X71767351Y-48626045D01*
X71822107Y-48581108D01*
X71867046Y-48526350D01*
X71917137Y-48476259D01*
X71956491Y-48417362D01*
X72001432Y-48362601D01*
X72034828Y-48300122D01*
X72074180Y-48241227D01*
X72101286Y-48175788D01*
X72134682Y-48113308D01*
X72155247Y-48045514D01*
X72182353Y-47980074D01*
X72194622Y-47918391D01*
X73425019Y-47918391D01*
X73522343Y-48192752D01*
X73671322Y-48442855D01*
X73866231Y-48659088D01*
X74099580Y-48833141D01*
X74362401Y-48958325D01*
X74509610Y-49002976D01*
X74739500Y-48881655D01*
X74739500Y-47688500D01*
X73545686Y-47688500D01*
X73425019Y-47918391D01*
X72194622Y-47918391D01*
X72196173Y-47910597D01*
X72216736Y-47842809D01*
X72223679Y-47772317D01*
X72237500Y-47702835D01*
X72237500Y-46949395D01*
X73047896Y-46139000D01*
X74447048Y-46139000D01*
X74362401Y-46164675D01*
X74099580Y-46289859D01*
X73866231Y-46463912D01*
X73671322Y-46680145D01*
X73522343Y-46930248D01*
X73425019Y-47204609D01*
X73545686Y-47434500D01*
X74739500Y-47434500D01*
X74739500Y-47414500D01*
X74993500Y-47414500D01*
X74993500Y-47434500D01*
X75013500Y-47434500D01*
X75013500Y-47688500D01*
X74993500Y-47688500D01*
X74993500Y-48881655D01*
X75223390Y-49002976D01*
X75370599Y-48958325D01*
X75633420Y-48833141D01*
X75866769Y-48659088D01*
X75971501Y-48542898D01*
X75971500Y-50586604D01*
X72758655Y-53799450D01*
X72703893Y-53844392D01*
X72524569Y-54062899D01*
X72453345Y-54196150D01*
X72391318Y-54312193D01*
X72309264Y-54582692D01*
X72281557Y-54864000D01*
X72288501Y-54934502D01*
X72288500Y-60127508D01*
X72281557Y-60198000D01*
X72301845Y-60403980D01*
X72309264Y-60479308D01*
X72391318Y-60749807D01*
X72524568Y-60999100D01*
X72703892Y-61217607D01*
X72758655Y-61262550D01*
X73950050Y-62453946D01*
X73994992Y-62508708D01*
X74213499Y-62688032D01*
X74445720Y-62812157D01*
X74462792Y-62821282D01*
X74733290Y-62903336D01*
X75011013Y-62930690D01*
X74914992Y-63009492D01*
X74735668Y-63227999D01*
X74602418Y-63477292D01*
X74520364Y-63747791D01*
X74492657Y-64029100D01*
X74520364Y-64310409D01*
X74602418Y-64580908D01*
X74735668Y-64830201D01*
X74914992Y-65048708D01*
X75133499Y-65228032D01*
X75266458Y-65299100D01*
X75133499Y-65370168D01*
X74914992Y-65549492D01*
X74735668Y-65767999D01*
X74602418Y-66017292D01*
X74520364Y-66287791D01*
X74492657Y-66569100D01*
X74520364Y-66850409D01*
X74602418Y-67120908D01*
X74735668Y-67370201D01*
X74914992Y-67588708D01*
X75133499Y-67768032D01*
X75302983Y-67858623D01*
X75272873Y-67871095D01*
X75044065Y-68023980D01*
X74849480Y-68218565D01*
X74696595Y-68447373D01*
X74591286Y-68701610D01*
X74537600Y-68971508D01*
X74537600Y-69246692D01*
X74591286Y-69516590D01*
X74696595Y-69770827D01*
X74849480Y-69999635D01*
X75044065Y-70194220D01*
X75272873Y-70347105D01*
X75344543Y-70376792D01*
X75331577Y-70381464D01*
X75215620Y-70443444D01*
X75148640Y-70683535D01*
X75934600Y-71469495D01*
X76720560Y-70683535D01*
X76653580Y-70443444D01*
X76517840Y-70379615D01*
X76596327Y-70347105D01*
X76825135Y-70194220D01*
X77019720Y-69999635D01*
X77172605Y-69770827D01*
X77277914Y-69516590D01*
X77331600Y-69246692D01*
X77331600Y-68971508D01*
X77293979Y-68782374D01*
X80215450Y-71703846D01*
X80260392Y-71758608D01*
X80478899Y-71937932D01*
X80728192Y-72071182D01*
X80998690Y-72153236D01*
X81279999Y-72180943D01*
X81350491Y-72174000D01*
X81695601Y-72174000D01*
X81579412Y-72278731D01*
X81405359Y-72512080D01*
X81280175Y-72774901D01*
X81235524Y-72922110D01*
X81356845Y-73152000D01*
X82550000Y-73152000D01*
X82550000Y-73132000D01*
X82804000Y-73132000D01*
X82804000Y-73152000D01*
X83997155Y-73152000D01*
X84118476Y-72922110D01*
X84073825Y-72774901D01*
X83948641Y-72512080D01*
X83774588Y-72278731D01*
X83558355Y-72083822D01*
X83447499Y-72017788D01*
X83478100Y-72001432D01*
X83554924Y-71938384D01*
X83623632Y-71892475D01*
X83682063Y-71834044D01*
X83696607Y-71822108D01*
X83708543Y-71807564D01*
X83830475Y-71685632D01*
X83992990Y-71442411D01*
X84104932Y-71172158D01*
X84162000Y-70885260D01*
X84162000Y-70592740D01*
X84104932Y-70305842D01*
X83992990Y-70035589D01*
X83830475Y-69792368D01*
X83623632Y-69585525D01*
X83449240Y-69469000D01*
X83623632Y-69352475D01*
X83830475Y-69145632D01*
X83992990Y-68902411D01*
X84104932Y-68632158D01*
X84162000Y-68345260D01*
X84162000Y-68052740D01*
X84104932Y-67765842D01*
X83992990Y-67495589D01*
X83830475Y-67252368D01*
X83698620Y-67120513D01*
X83771180Y-67098502D01*
X83881494Y-67039537D01*
X83978185Y-66960185D01*
X84057537Y-66863494D01*
X84116502Y-66753180D01*
X84152812Y-66633482D01*
X84165072Y-66509000D01*
X84162000Y-65944750D01*
X84003250Y-65786000D01*
X82804000Y-65786000D01*
X82804000Y-65806000D01*
X82550000Y-65806000D01*
X82550000Y-65786000D01*
X81350750Y-65786000D01*
X81267847Y-65868903D01*
X80207944Y-64809000D01*
X81188928Y-64809000D01*
X81192000Y-65373250D01*
X81350750Y-65532000D01*
X82550000Y-65532000D01*
X82550000Y-64332750D01*
X82804000Y-64332750D01*
X82804000Y-65532000D01*
X84003250Y-65532000D01*
X84162000Y-65373250D01*
X84165072Y-64809000D01*
X84152812Y-64684518D01*
X84116502Y-64564820D01*
X84057537Y-64454506D01*
X83978185Y-64357815D01*
X83881494Y-64278463D01*
X83771180Y-64219498D01*
X83651482Y-64183188D01*
X83527000Y-64170928D01*
X82962750Y-64174000D01*
X82804000Y-64332750D01*
X82550000Y-64332750D01*
X82391250Y-64174000D01*
X81827000Y-64170928D01*
X81702518Y-64183188D01*
X81582820Y-64219498D01*
X81472506Y-64278463D01*
X81375815Y-64357815D01*
X81296463Y-64454506D01*
X81237498Y-64564820D01*
X81201188Y-64684518D01*
X81188928Y-64809000D01*
X80207944Y-64809000D01*
X78463203Y-63064259D01*
X78418257Y-63009492D01*
X78199750Y-62830168D01*
X77950457Y-62696918D01*
X77679958Y-62614864D01*
X77469141Y-62594100D01*
X77398649Y-62587157D01*
X77328157Y-62594100D01*
X76850158Y-62594100D01*
X76954208Y-62508708D01*
X77133532Y-62290201D01*
X77266782Y-62040908D01*
X77332309Y-61824890D01*
X81108524Y-61824890D01*
X81153175Y-61972099D01*
X81278359Y-62234920D01*
X81452412Y-62468269D01*
X81668645Y-62663178D01*
X81918748Y-62812157D01*
X82193109Y-62909481D01*
X82423000Y-62788814D01*
X82423000Y-61595000D01*
X82677000Y-61595000D01*
X82677000Y-62788814D01*
X82906891Y-62909481D01*
X83181252Y-62812157D01*
X83431355Y-62663178D01*
X83647588Y-62468269D01*
X83821641Y-62234920D01*
X83946825Y-61972099D01*
X83991476Y-61824890D01*
X83870155Y-61595000D01*
X82677000Y-61595000D01*
X82423000Y-61595000D01*
X81229845Y-61595000D01*
X81108524Y-61824890D01*
X77332309Y-61824890D01*
X77348836Y-61770409D01*
X77376543Y-61489100D01*
X77348836Y-61207791D01*
X77266782Y-60937292D01*
X77133532Y-60687999D01*
X76954208Y-60469492D01*
X76850158Y-60384100D01*
X81545193Y-60384100D01*
X81452412Y-60467731D01*
X81278359Y-60701080D01*
X81153175Y-60963901D01*
X81108524Y-61111110D01*
X81229845Y-61341000D01*
X82423000Y-61341000D01*
X82423000Y-61321000D01*
X82677000Y-61321000D01*
X82677000Y-61341000D01*
X83870155Y-61341000D01*
X83991476Y-61111110D01*
X83946825Y-60963901D01*
X83821641Y-60701080D01*
X83647588Y-60467731D01*
X83431355Y-60272822D01*
X83314466Y-60203195D01*
X83496632Y-60081475D01*
X83703475Y-59874632D01*
X83865990Y-59631411D01*
X83977932Y-59361158D01*
X84035000Y-59074260D01*
X84035000Y-58781740D01*
X83977932Y-58494842D01*
X83865990Y-58224589D01*
X83703475Y-57981368D01*
X83496632Y-57774525D01*
X83322240Y-57658000D01*
X83496632Y-57541475D01*
X83703475Y-57334632D01*
X83865990Y-57091411D01*
X83977932Y-56821158D01*
X84035000Y-56534260D01*
X84035000Y-56241740D01*
X83977932Y-55954842D01*
X83865990Y-55684589D01*
X83703475Y-55441368D01*
X83571620Y-55309513D01*
X83644180Y-55287502D01*
X83754494Y-55228537D01*
X83851185Y-55149185D01*
X83930537Y-55052494D01*
X83989502Y-54942180D01*
X84025812Y-54822482D01*
X84038072Y-54698000D01*
X84038072Y-54639795D01*
X84043031Y-54633752D01*
X84194852Y-54349715D01*
X84288343Y-54041516D01*
X84312000Y-53801322D01*
X84312000Y-53801320D01*
X84319911Y-53721001D01*
X84312000Y-53640681D01*
X84312000Y-47832322D01*
X84319911Y-47752000D01*
X84288343Y-47431484D01*
X84271090Y-47374607D01*
X84194852Y-47123285D01*
X84043031Y-46839248D01*
X83974572Y-46755830D01*
X83974572Y-46711500D01*
X83962312Y-46587018D01*
X83926002Y-46467320D01*
X83867037Y-46357006D01*
X83787685Y-46260315D01*
X83690994Y-46180963D01*
X83580680Y-46121998D01*
X83460982Y-46085688D01*
X83336500Y-46073428D01*
X83170929Y-46073428D01*
X83115215Y-46043648D01*
X82807016Y-45950157D01*
X82566822Y-45926500D01*
X82566819Y-45926500D01*
X82486500Y-45918589D01*
X82406181Y-45926500D01*
X81581500Y-45926500D01*
X81581500Y-43704830D01*
X81589412Y-43624500D01*
X81557843Y-43303984D01*
X81545125Y-43262057D01*
X81518000Y-43172639D01*
X81518000Y-41355319D01*
X81525911Y-41275000D01*
X81504800Y-41060657D01*
X81494343Y-40954484D01*
X81400852Y-40646285D01*
X81249031Y-40362248D01*
X81044714Y-40113286D01*
X80982320Y-40062081D01*
X78995924Y-38075686D01*
X78944713Y-38013285D01*
X78695751Y-37808968D01*
X78411714Y-37657147D01*
X78103515Y-37563656D01*
X77863321Y-37539999D01*
X77863318Y-37539999D01*
X77782999Y-37532088D01*
X77702680Y-37539999D01*
X45804820Y-37539999D01*
X45724500Y-37532088D01*
X45644181Y-37539999D01*
X45644179Y-37539999D01*
X45403985Y-37563656D01*
X45095786Y-37657147D01*
X44811749Y-37808968D01*
X44562787Y-38013285D01*
X44511581Y-38075680D01*
X41128182Y-41459080D01*
X41065787Y-41510286D01*
X40888191Y-41726688D01*
X40861470Y-41759248D01*
X40709648Y-42043286D01*
X40616158Y-42351484D01*
X40584589Y-42672000D01*
X40592501Y-42752329D01*
X40592500Y-46244000D01*
X36021322Y-46244000D01*
X35941000Y-46236089D01*
X35620483Y-46267657D01*
X35472514Y-46312543D01*
X35312285Y-46361148D01*
X35028248Y-46512969D01*
X34779286Y-46717286D01*
X34728080Y-46779681D01*
X30492687Y-51015075D01*
X30430286Y-51066286D01*
X30225969Y-51315249D01*
X30074148Y-51599286D01*
X29980657Y-51907485D01*
X29971269Y-52002808D01*
X29949089Y-52228000D01*
X29957000Y-52308320D01*
X29957001Y-54975000D01*
X29004819Y-54975000D01*
X28924499Y-54967089D01*
X28844180Y-54975000D01*
X28844178Y-54975000D01*
X28603984Y-54998657D01*
X28295785Y-55092148D01*
X28011748Y-55243969D01*
X27762786Y-55448286D01*
X27711580Y-55510682D01*
X25507182Y-57715080D01*
X25444787Y-57766286D01*
X25265911Y-57984248D01*
X25240470Y-58015248D01*
X25088648Y-58299286D01*
X24995158Y-58607484D01*
X24963589Y-58928000D01*
X23766211Y-58928000D01*
X23938524Y-36576000D01*
X90550874Y-36576000D01*
X90471750Y-116665315D01*
%TA.AperFunction,Conductor*%
D34*
G36*
X90471750Y-116665315D02*
G01*
X23321357Y-116633685D01*
X23766211Y-58928000D01*
X24963589Y-58928000D01*
X24971501Y-59008329D01*
X24971500Y-88057681D01*
X24963589Y-88138000D01*
X24971500Y-88218319D01*
X24971500Y-88218321D01*
X24995157Y-88458515D01*
X25088648Y-88766714D01*
X25240469Y-89050751D01*
X25444786Y-89299714D01*
X25507187Y-89350925D01*
X28167761Y-92011500D01*
X25507187Y-94672075D01*
X25444786Y-94723286D01*
X25240469Y-94972249D01*
X25088648Y-95256286D01*
X24995157Y-95564485D01*
X24971500Y-95804678D01*
X24963589Y-95885000D01*
X24971500Y-95965319D01*
X24971501Y-108568171D01*
X24963589Y-108648500D01*
X24995158Y-108969016D01*
X25088648Y-109277214D01*
X25156531Y-109404214D01*
X25240470Y-109561252D01*
X25444787Y-109810214D01*
X25507182Y-109861420D01*
X30473580Y-114827819D01*
X30524786Y-114890214D01*
X30773748Y-115094531D01*
X31057785Y-115246352D01*
X31365984Y-115339843D01*
X31606178Y-115363500D01*
X31606180Y-115363500D01*
X31686500Y-115371411D01*
X31766819Y-115363500D01*
X81263181Y-115363500D01*
X81343500Y-115371411D01*
X81423819Y-115363500D01*
X81423822Y-115363500D01*
X81664016Y-115339843D01*
X81972215Y-115246352D01*
X82256252Y-115094531D01*
X82505214Y-114890214D01*
X82556425Y-114827813D01*
X87395820Y-109988419D01*
X87458214Y-109937214D01*
X87662531Y-109688252D01*
X87814352Y-109404215D01*
X87885672Y-109169105D01*
X87907843Y-109096017D01*
X87939411Y-108775500D01*
X87931500Y-108695178D01*
X87931500Y-98911738D01*
X88665818Y-98177421D01*
X88728214Y-98126214D01*
X88932531Y-97877252D01*
X89084352Y-97593215D01*
X89177843Y-97285016D01*
X89201500Y-97044822D01*
X89201500Y-97044820D01*
X89209411Y-96964501D01*
X89201500Y-96884181D01*
X89201500Y-90257830D01*
X89209412Y-90177500D01*
X89177843Y-89856983D01*
X89084352Y-89548785D01*
X89068184Y-89518537D01*
X88932531Y-89264748D01*
X88728214Y-89015786D01*
X88665825Y-88964585D01*
X86739924Y-87038686D01*
X86688714Y-86976286D01*
X86439752Y-86771969D01*
X86155715Y-86620148D01*
X85847516Y-86526657D01*
X85607322Y-86503000D01*
X85607319Y-86503000D01*
X85527000Y-86495089D01*
X85446681Y-86503000D01*
X84312000Y-86503000D01*
X84312000Y-81898178D01*
X84288343Y-81657984D01*
X84194852Y-81349785D01*
X84043031Y-81065748D01*
X83838714Y-80816786D01*
X83591191Y-80613651D01*
X83623632Y-80591975D01*
X83830475Y-80385132D01*
X83992990Y-80141911D01*
X84104932Y-79871658D01*
X84162000Y-79584760D01*
X84162000Y-79292240D01*
X84104932Y-79005342D01*
X83992990Y-78735089D01*
X83830475Y-78491868D01*
X83623632Y-78285025D01*
X83441466Y-78163305D01*
X83558355Y-78093678D01*
X83774588Y-77898769D01*
X83948641Y-77665420D01*
X84073825Y-77402599D01*
X84118476Y-77255390D01*
X83997155Y-77025500D01*
X82804000Y-77025500D01*
X82804000Y-77045500D01*
X82550000Y-77045500D01*
X82550000Y-77025500D01*
X81356845Y-77025500D01*
X81235524Y-77255390D01*
X81280175Y-77402599D01*
X81373565Y-77598669D01*
X80316506Y-76541610D01*
X81235524Y-76541610D01*
X81356845Y-76771500D01*
X82550000Y-76771500D01*
X82550000Y-75577686D01*
X82804000Y-75577686D01*
X82804000Y-76771500D01*
X83997155Y-76771500D01*
X84118476Y-76541610D01*
X84073825Y-76394401D01*
X83948641Y-76131580D01*
X83774588Y-75898231D01*
X83558355Y-75703322D01*
X83308252Y-75554343D01*
X83033891Y-75457019D01*
X82804000Y-75577686D01*
X82550000Y-75577686D01*
X82320109Y-75457019D01*
X82045748Y-75554343D01*
X81795645Y-75703322D01*
X81579412Y-75898231D01*
X81405359Y-76131580D01*
X81280175Y-76394401D01*
X81235524Y-76541610D01*
X80316506Y-76541610D01*
X77410786Y-73635890D01*
X81235524Y-73635890D01*
X81280175Y-73783099D01*
X81405359Y-74045920D01*
X81579412Y-74279269D01*
X81795645Y-74474178D01*
X82045748Y-74623157D01*
X82320109Y-74720481D01*
X82550000Y-74599814D01*
X82550000Y-73406000D01*
X82804000Y-73406000D01*
X82804000Y-74599814D01*
X83033891Y-74720481D01*
X83308252Y-74623157D01*
X83558355Y-74474178D01*
X83774588Y-74279269D01*
X83948641Y-74045920D01*
X84073825Y-73783099D01*
X84118476Y-73635890D01*
X83997155Y-73406000D01*
X82804000Y-73406000D01*
X82550000Y-73406000D01*
X81356845Y-73406000D01*
X81235524Y-73635890D01*
X77410786Y-73635890D01*
X76899452Y-73124557D01*
X76637986Y-72863091D01*
X76653580Y-72854756D01*
X76720560Y-72614665D01*
X75934600Y-71828705D01*
X75920458Y-71842848D01*
X75740853Y-71663243D01*
X75754995Y-71649100D01*
X76114205Y-71649100D01*
X76900165Y-72435060D01*
X77140256Y-72368080D01*
X77257356Y-72119052D01*
X77323623Y-71851965D01*
X77336510Y-71577083D01*
X77295522Y-71304967D01*
X77202236Y-71046077D01*
X77140256Y-70930120D01*
X76900165Y-70863140D01*
X76114205Y-71649100D01*
X75754995Y-71649100D01*
X74969035Y-70863140D01*
X74728944Y-70930120D01*
X74611844Y-71179148D01*
X74545577Y-71446235D01*
X74532690Y-71721117D01*
X74573678Y-71993233D01*
X74666964Y-72252123D01*
X74713561Y-72339300D01*
X63846868Y-72339300D01*
X63833585Y-72323115D01*
X63736894Y-72243763D01*
X63626580Y-72184798D01*
X63506882Y-72148488D01*
X63382400Y-72136228D01*
X61382400Y-72136228D01*
X61257918Y-72148488D01*
X61138220Y-72184798D01*
X61027906Y-72243763D01*
X60931215Y-72323115D01*
X60851863Y-72419806D01*
X60792898Y-72530120D01*
X60756588Y-72649818D01*
X60744328Y-72774300D01*
X60744328Y-74774300D01*
X60756588Y-74898782D01*
X60792898Y-75018480D01*
X60851863Y-75128794D01*
X60931215Y-75225485D01*
X61027906Y-75304837D01*
X61138220Y-75363802D01*
X61257918Y-75400112D01*
X61382400Y-75412372D01*
X63382400Y-75412372D01*
X63506882Y-75400112D01*
X63626580Y-75363802D01*
X63736894Y-75304837D01*
X63833585Y-75225485D01*
X63846868Y-75209300D01*
X74925405Y-75209300D01*
X75233505Y-75517400D01*
X75044065Y-75643980D01*
X74849480Y-75838565D01*
X74696595Y-76067373D01*
X74591286Y-76321610D01*
X74537600Y-76591508D01*
X74537600Y-76866692D01*
X74591286Y-77136590D01*
X74696595Y-77390827D01*
X74849480Y-77619635D01*
X75044065Y-77814220D01*
X75272873Y-77967105D01*
X75302983Y-77979577D01*
X75133499Y-78070168D01*
X74914992Y-78249492D01*
X74735668Y-78467999D01*
X74602418Y-78717292D01*
X74520364Y-78987791D01*
X74492657Y-79269100D01*
X74520364Y-79550409D01*
X74602418Y-79820908D01*
X74735668Y-80070201D01*
X74914992Y-80288708D01*
X75133499Y-80468032D01*
X75266458Y-80539100D01*
X75133499Y-80610168D01*
X74914992Y-80789492D01*
X74735668Y-81007999D01*
X74602418Y-81257292D01*
X74520364Y-81527791D01*
X74492657Y-81809100D01*
X74520364Y-82090409D01*
X74602418Y-82360908D01*
X74735668Y-82610201D01*
X74914992Y-82828708D01*
X75133499Y-83008032D01*
X75302983Y-83098623D01*
X75272873Y-83111095D01*
X75044065Y-83263980D01*
X74849480Y-83458565D01*
X74696595Y-83687373D01*
X74591286Y-83941610D01*
X74537600Y-84211508D01*
X74537600Y-84486692D01*
X74591286Y-84756590D01*
X74696595Y-85010827D01*
X74849480Y-85239635D01*
X75044065Y-85434220D01*
X75272873Y-85587105D01*
X75350115Y-85619100D01*
X75272873Y-85651095D01*
X75044065Y-85803980D01*
X74849480Y-85998565D01*
X74696595Y-86227373D01*
X74591286Y-86481610D01*
X74537600Y-86751508D01*
X74537600Y-87026692D01*
X74591286Y-87296590D01*
X74696595Y-87550827D01*
X74849480Y-87779635D01*
X75044065Y-87974220D01*
X75272873Y-88127105D01*
X75344543Y-88156792D01*
X75331577Y-88161464D01*
X75215620Y-88223444D01*
X75148640Y-88463535D01*
X75934600Y-89249495D01*
X76720560Y-88463535D01*
X76653580Y-88223444D01*
X76517840Y-88159615D01*
X76596327Y-88127105D01*
X76825135Y-87974220D01*
X77019720Y-87779635D01*
X77051001Y-87732820D01*
X77051001Y-88685220D01*
X76900165Y-88643140D01*
X76114205Y-89429100D01*
X76900165Y-90215060D01*
X77051001Y-90172980D01*
X77051001Y-90924998D01*
X77044057Y-90995500D01*
X77057860Y-91135646D01*
X77019720Y-91078565D01*
X76825135Y-90883980D01*
X76596327Y-90731095D01*
X76524657Y-90701408D01*
X76537623Y-90696736D01*
X76653580Y-90634756D01*
X76720560Y-90394665D01*
X75934600Y-89608705D01*
X75148640Y-90394665D01*
X75215620Y-90634756D01*
X75351360Y-90698585D01*
X75272873Y-90731095D01*
X75044065Y-90883980D01*
X74849480Y-91078565D01*
X74696595Y-91307373D01*
X74591286Y-91561610D01*
X74537600Y-91831508D01*
X74537600Y-92106692D01*
X74591286Y-92376590D01*
X74696595Y-92630827D01*
X74849480Y-92859635D01*
X75044065Y-93054220D01*
X75272873Y-93207105D01*
X75527110Y-93312414D01*
X75797008Y-93366100D01*
X76072192Y-93366100D01*
X76342090Y-93312414D01*
X76596327Y-93207105D01*
X76825135Y-93054220D01*
X77019720Y-92859635D01*
X77172605Y-92630827D01*
X77277914Y-92376590D01*
X77331600Y-92106692D01*
X77331600Y-91850862D01*
X77466393Y-92015108D01*
X77521155Y-92060050D01*
X79643950Y-94182846D01*
X79688892Y-94237608D01*
X79907399Y-94416932D01*
X80098297Y-94518969D01*
X80156692Y-94550182D01*
X80427191Y-94632237D01*
X80708500Y-94659943D01*
X80778995Y-94653000D01*
X81681893Y-94653000D01*
X81523525Y-94811368D01*
X81361010Y-95054589D01*
X81249068Y-95324842D01*
X81192000Y-95611740D01*
X81192000Y-95904260D01*
X81249068Y-96191158D01*
X81361010Y-96461411D01*
X81523525Y-96704632D01*
X81730368Y-96911475D01*
X81973589Y-97073990D01*
X82243842Y-97185932D01*
X82530740Y-97243000D01*
X82823260Y-97243000D01*
X83110158Y-97185932D01*
X83380411Y-97073990D01*
X83623632Y-96911475D01*
X83830475Y-96704632D01*
X83992990Y-96461411D01*
X84104932Y-96191158D01*
X84162000Y-95904260D01*
X84162000Y-95611740D01*
X84104932Y-95324842D01*
X83992990Y-95054589D01*
X83830475Y-94811368D01*
X83623632Y-94604525D01*
X83449240Y-94488000D01*
X83623632Y-94371475D01*
X83830475Y-94164632D01*
X83992990Y-93921411D01*
X84104932Y-93651158D01*
X84162000Y-93364260D01*
X84162000Y-93071740D01*
X84104932Y-92784842D01*
X83992990Y-92514589D01*
X83830475Y-92271368D01*
X83623632Y-92064525D01*
X83449240Y-91948000D01*
X83623632Y-91831475D01*
X83830475Y-91624632D01*
X83992990Y-91381411D01*
X84104932Y-91111158D01*
X84162000Y-90824260D01*
X84162000Y-90531740D01*
X84104932Y-90244842D01*
X83992990Y-89974589D01*
X83858293Y-89773000D01*
X84849762Y-89773000D01*
X85931500Y-90854740D01*
X85931501Y-96287260D01*
X85197182Y-97021580D01*
X85134787Y-97072786D01*
X85083585Y-97135176D01*
X84857261Y-97361500D01*
X77321739Y-97361500D01*
X70830025Y-90869787D01*
X70778814Y-90807386D01*
X70529852Y-90603069D01*
X70245815Y-90451248D01*
X69937616Y-90357757D01*
X69697422Y-90334100D01*
X69697419Y-90334100D01*
X69617100Y-90326189D01*
X69536781Y-90334100D01*
X49073946Y-90334100D01*
X49076577Y-90331469D01*
X48960167Y-90215059D01*
X49200256Y-90148080D01*
X49317356Y-89899052D01*
X49383623Y-89631965D01*
X49389757Y-89501117D01*
X74532690Y-89501117D01*
X74573678Y-89773233D01*
X74666964Y-90032123D01*
X74728944Y-90148080D01*
X74969035Y-90215060D01*
X75754995Y-89429100D01*
X74969035Y-88643140D01*
X74728944Y-88710120D01*
X74611844Y-88959148D01*
X74545577Y-89226235D01*
X74532690Y-89501117D01*
X49389757Y-89501117D01*
X49396510Y-89357083D01*
X49355522Y-89084967D01*
X49262236Y-88826077D01*
X49200256Y-88710120D01*
X48960165Y-88643140D01*
X48174205Y-89429100D01*
X48188348Y-89443243D01*
X48008743Y-89622848D01*
X47994600Y-89608705D01*
X47208640Y-90394665D01*
X47242782Y-90517048D01*
X47081848Y-90603069D01*
X46832886Y-90807386D01*
X46628569Y-91056348D01*
X46476748Y-91340385D01*
X46383257Y-91648584D01*
X46351689Y-91969100D01*
X46383257Y-92289616D01*
X46476748Y-92597815D01*
X46628569Y-92881852D01*
X46832886Y-93130814D01*
X47081848Y-93335131D01*
X47365885Y-93486952D01*
X47674084Y-93580443D01*
X47914278Y-93604100D01*
X68939862Y-93604100D01*
X75431580Y-100095819D01*
X75482786Y-100158214D01*
X75731748Y-100362531D01*
X76015785Y-100514352D01*
X76323984Y-100607843D01*
X76564178Y-100631500D01*
X76564180Y-100631500D01*
X76644499Y-100639411D01*
X76724819Y-100631500D01*
X84661501Y-100631500D01*
X84661500Y-108098261D01*
X80666262Y-112093500D01*
X32363739Y-112093500D01*
X30125441Y-109855202D01*
X45541903Y-109855202D01*
X45613486Y-110099171D01*
X45868996Y-110220071D01*
X46143184Y-110288800D01*
X46425512Y-110302717D01*
X46705130Y-110261287D01*
X46971292Y-110166103D01*
X47096514Y-110099171D01*
X47130833Y-109982202D01*
X52844403Y-109982202D01*
X52915986Y-110226171D01*
X53171496Y-110347071D01*
X53445684Y-110415800D01*
X53728012Y-110429717D01*
X54007630Y-110388287D01*
X54273792Y-110293103D01*
X54399014Y-110226171D01*
X54470597Y-109982202D01*
X53657500Y-109169105D01*
X52844403Y-109982202D01*
X47130833Y-109982202D01*
X47168097Y-109855202D01*
X46355000Y-109042105D01*
X45541903Y-109855202D01*
X30125441Y-109855202D01*
X28241500Y-107971262D01*
X28241500Y-107695919D01*
X34768000Y-107695919D01*
X34768000Y-108077081D01*
X34842361Y-108450919D01*
X34988225Y-108803066D01*
X35199987Y-109119991D01*
X35469509Y-109389513D01*
X35786434Y-109601275D01*
X36138581Y-109747139D01*
X36512419Y-109821500D01*
X36893581Y-109821500D01*
X37267419Y-109747139D01*
X37619566Y-109601275D01*
X37936491Y-109389513D01*
X38206013Y-109119991D01*
X38330948Y-108933012D01*
X44914783Y-108933012D01*
X44956213Y-109212630D01*
X45051397Y-109478792D01*
X45118329Y-109604014D01*
X45362298Y-109675597D01*
X46175395Y-108862500D01*
X46534605Y-108862500D01*
X47347702Y-109675597D01*
X47591671Y-109604014D01*
X47712571Y-109348504D01*
X47781300Y-109074316D01*
X47782005Y-109060012D01*
X52217283Y-109060012D01*
X52258713Y-109339630D01*
X52353897Y-109605792D01*
X52420829Y-109731014D01*
X52664798Y-109802597D01*
X53477895Y-108989500D01*
X53837105Y-108989500D01*
X54650202Y-109802597D01*
X54894171Y-109731014D01*
X55015071Y-109475504D01*
X55083800Y-109201316D01*
X55097717Y-108918988D01*
X55056287Y-108639370D01*
X54961103Y-108373208D01*
X54894171Y-108247986D01*
X54650202Y-108176403D01*
X53837105Y-108989500D01*
X53477895Y-108989500D01*
X52664798Y-108176403D01*
X52420829Y-108247986D01*
X52299929Y-108503496D01*
X52231200Y-108777684D01*
X52217283Y-109060012D01*
X47782005Y-109060012D01*
X47795217Y-108791988D01*
X47753787Y-108512370D01*
X47658603Y-108246208D01*
X47591671Y-108120986D01*
X47347702Y-108049403D01*
X46534605Y-108862500D01*
X46175395Y-108862500D01*
X45362298Y-108049403D01*
X45118329Y-108120986D01*
X44997429Y-108376496D01*
X44928700Y-108650684D01*
X44914783Y-108933012D01*
X38330948Y-108933012D01*
X38417775Y-108803066D01*
X38563639Y-108450919D01*
X38638000Y-108077081D01*
X38638000Y-107980896D01*
X38821396Y-107797500D01*
X45523808Y-107797500D01*
X45555000Y-107800572D01*
X45562215Y-107800572D01*
X45541903Y-107869798D01*
X46355000Y-108682895D01*
X47168097Y-107869798D01*
X47147785Y-107800572D01*
X47155000Y-107800572D01*
X47279482Y-107788312D01*
X47399180Y-107752002D01*
X47509494Y-107693037D01*
X47606185Y-107613685D01*
X47685537Y-107516994D01*
X47744502Y-107406680D01*
X47780812Y-107286982D01*
X47793072Y-107162500D01*
X47793072Y-106401802D01*
X47796943Y-106362500D01*
X47793072Y-106323198D01*
X47793072Y-105562500D01*
X47790000Y-105531308D01*
X47790000Y-104416895D01*
X48333824Y-103873072D01*
X48895000Y-103873072D01*
X49019482Y-103860812D01*
X49139180Y-103824502D01*
X49249494Y-103765537D01*
X49346185Y-103686185D01*
X49425537Y-103589494D01*
X49474559Y-103497781D01*
X49615577Y-103610969D01*
X49891406Y-103754571D01*
X50109520Y-103825563D01*
X50355500Y-103705594D01*
X50355500Y-102362000D01*
X50335500Y-102362000D01*
X50335500Y-102108000D01*
X50355500Y-102108000D01*
X50355500Y-100764406D01*
X50109520Y-100644437D01*
X49891406Y-100715429D01*
X49615577Y-100859031D01*
X49474559Y-100972219D01*
X49425537Y-100880506D01*
X49346185Y-100783815D01*
X49249494Y-100704463D01*
X49139180Y-100645498D01*
X49019482Y-100609188D01*
X48895000Y-100596928D01*
X46990000Y-100596928D01*
X46865518Y-100609188D01*
X46745820Y-100645498D01*
X46635506Y-100704463D01*
X46538815Y-100783815D01*
X46459463Y-100880506D01*
X46400498Y-100990820D01*
X46364188Y-101110518D01*
X46351928Y-101235000D01*
X46351928Y-101796176D01*
X45390155Y-102757950D01*
X45335393Y-102802892D01*
X45156069Y-103021399D01*
X45108811Y-103109812D01*
X45022818Y-103270693D01*
X44940764Y-103541192D01*
X44913057Y-103822500D01*
X44920001Y-103893002D01*
X44920001Y-104927500D01*
X38297491Y-104927500D01*
X38226999Y-104920557D01*
X37945690Y-104948264D01*
X37864153Y-104972998D01*
X37675192Y-105030318D01*
X37425899Y-105163568D01*
X37207392Y-105342892D01*
X37162454Y-105397649D01*
X36608604Y-105951500D01*
X36512419Y-105951500D01*
X36138581Y-106025861D01*
X35786434Y-106171725D01*
X35469509Y-106383487D01*
X35199987Y-106653009D01*
X34988225Y-106969934D01*
X34842361Y-107322081D01*
X34768000Y-107695919D01*
X28241500Y-107695919D01*
X28241500Y-104106500D01*
X34764928Y-104106500D01*
X34777188Y-104230982D01*
X34813498Y-104350680D01*
X34872463Y-104460994D01*
X34951815Y-104557685D01*
X35048506Y-104637037D01*
X35158820Y-104696002D01*
X35278518Y-104732312D01*
X35403000Y-104744572D01*
X36417250Y-104741500D01*
X36576000Y-104582750D01*
X36576000Y-102933500D01*
X36830000Y-102933500D01*
X36830000Y-104582750D01*
X36988750Y-104741500D01*
X38003000Y-104744572D01*
X38127482Y-104732312D01*
X38247180Y-104696002D01*
X38357494Y-104637037D01*
X38454185Y-104557685D01*
X38533537Y-104460994D01*
X38592502Y-104350680D01*
X38628812Y-104230982D01*
X38641072Y-104106500D01*
X38638000Y-103092250D01*
X38479250Y-102933500D01*
X36830000Y-102933500D01*
X36576000Y-102933500D01*
X34926750Y-102933500D01*
X34768000Y-103092250D01*
X34764928Y-104106500D01*
X28241500Y-104106500D01*
X28241500Y-101506500D01*
X34764928Y-101506500D01*
X34768000Y-102520750D01*
X34926750Y-102679500D01*
X36576000Y-102679500D01*
X36576000Y-101030250D01*
X36830000Y-101030250D01*
X36830000Y-102679500D01*
X38479250Y-102679500D01*
X38638000Y-102520750D01*
X38641072Y-101506500D01*
X38628812Y-101382018D01*
X38592502Y-101262320D01*
X38533537Y-101152006D01*
X38454185Y-101055315D01*
X38357494Y-100975963D01*
X38247180Y-100916998D01*
X38127482Y-100880688D01*
X38003000Y-100868428D01*
X36988750Y-100871500D01*
X36830000Y-101030250D01*
X36576000Y-101030250D01*
X36417250Y-100871500D01*
X35403000Y-100868428D01*
X35278518Y-100880688D01*
X35158820Y-100916998D01*
X35048506Y-100975963D01*
X34951815Y-101055315D01*
X34872463Y-101152006D01*
X34813498Y-101262320D01*
X34777188Y-101382018D01*
X34764928Y-101506500D01*
X28241500Y-101506500D01*
X28241500Y-96562238D01*
X28474319Y-96329419D01*
X34768000Y-96329419D01*
X34768000Y-96710581D01*
X34842361Y-97084419D01*
X34988225Y-97436566D01*
X35199987Y-97753491D01*
X35469509Y-98023013D01*
X35786434Y-98234775D01*
X36138581Y-98380639D01*
X36512419Y-98455000D01*
X36893581Y-98455000D01*
X37267419Y-98380639D01*
X37619566Y-98234775D01*
X37936491Y-98023013D01*
X38004504Y-97955000D01*
X48681605Y-97955000D01*
X51587500Y-100860896D01*
X51587500Y-101050124D01*
X51349423Y-100859031D01*
X51073594Y-100715429D01*
X50855480Y-100644437D01*
X50609500Y-100764406D01*
X50609500Y-102108000D01*
X50629500Y-102108000D01*
X50629500Y-102362000D01*
X50609500Y-102362000D01*
X50609500Y-103705594D01*
X50855480Y-103825563D01*
X51073594Y-103754571D01*
X51349423Y-103610969D01*
X51591937Y-103416315D01*
X51747337Y-103231101D01*
X51894537Y-103410463D01*
X52136266Y-103608845D01*
X52222501Y-103654938D01*
X52222500Y-105658306D01*
X52219428Y-105689500D01*
X52219428Y-107289500D01*
X52231688Y-107413982D01*
X52267998Y-107533680D01*
X52326963Y-107643994D01*
X52406315Y-107740685D01*
X52503006Y-107820037D01*
X52613320Y-107879002D01*
X52733018Y-107915312D01*
X52857500Y-107927572D01*
X52864715Y-107927572D01*
X52844403Y-107996798D01*
X53657500Y-108809895D01*
X54470597Y-107996798D01*
X54450285Y-107927572D01*
X54457500Y-107927572D01*
X54581982Y-107915312D01*
X54701680Y-107879002D01*
X54811994Y-107820037D01*
X54908685Y-107740685D01*
X54988037Y-107643994D01*
X55047002Y-107533680D01*
X55083312Y-107413982D01*
X55095572Y-107289500D01*
X55095572Y-105689500D01*
X55092500Y-105658308D01*
X55092500Y-105357500D01*
X71232928Y-105357500D01*
X71245188Y-105481982D01*
X71281498Y-105601680D01*
X71340463Y-105711994D01*
X71419815Y-105808685D01*
X71516506Y-105888037D01*
X71626820Y-105947002D01*
X71746518Y-105983312D01*
X71871000Y-105995572D01*
X72485250Y-105992500D01*
X72644000Y-105833750D01*
X72644000Y-104584500D01*
X72898000Y-104584500D01*
X72898000Y-105833750D01*
X73056750Y-105992500D01*
X73671000Y-105995572D01*
X73795482Y-105983312D01*
X73915180Y-105947002D01*
X74025494Y-105888037D01*
X74122185Y-105808685D01*
X74201537Y-105711994D01*
X74260502Y-105601680D01*
X74296812Y-105481982D01*
X74309072Y-105357500D01*
X74306000Y-104743250D01*
X74147250Y-104584500D01*
X72898000Y-104584500D01*
X72644000Y-104584500D01*
X71394750Y-104584500D01*
X71236000Y-104743250D01*
X71232928Y-105357500D01*
X55092500Y-105357500D01*
X55092500Y-103289000D01*
X57481835Y-103289000D01*
X57551317Y-103275179D01*
X57621809Y-103268236D01*
X57689597Y-103247673D01*
X57759074Y-103233853D01*
X57824514Y-103206747D01*
X57892308Y-103186182D01*
X57954788Y-103152786D01*
X58020227Y-103125680D01*
X58079122Y-103086328D01*
X58141601Y-103052932D01*
X58196363Y-103007990D01*
X58255259Y-102968637D01*
X58305346Y-102918550D01*
X58360108Y-102873608D01*
X58405050Y-102818846D01*
X58455137Y-102768759D01*
X58494490Y-102709863D01*
X58539432Y-102655101D01*
X58572828Y-102592622D01*
X58612180Y-102533727D01*
X58639286Y-102468288D01*
X58672682Y-102405808D01*
X58693247Y-102338014D01*
X58720353Y-102272574D01*
X58734173Y-102203097D01*
X58754736Y-102135309D01*
X58761679Y-102064817D01*
X58775500Y-101995335D01*
X58775500Y-101924492D01*
X58782443Y-101854000D01*
X66058557Y-101854000D01*
X66065500Y-101924492D01*
X66065500Y-101995335D01*
X66079321Y-102064817D01*
X66086264Y-102135309D01*
X66106827Y-102203097D01*
X66120647Y-102272574D01*
X66147753Y-102338014D01*
X66168318Y-102405808D01*
X66201714Y-102468288D01*
X66228820Y-102533727D01*
X66268172Y-102592622D01*
X66301568Y-102655101D01*
X66346510Y-102709863D01*
X66385863Y-102768759D01*
X66435950Y-102818846D01*
X66480892Y-102873608D01*
X66535654Y-102918550D01*
X66585741Y-102968637D01*
X66644637Y-103007990D01*
X66699399Y-103052932D01*
X66761878Y-103086328D01*
X66820773Y-103125680D01*
X66886212Y-103152786D01*
X66948692Y-103186182D01*
X67016486Y-103206747D01*
X67081926Y-103233853D01*
X67151403Y-103247673D01*
X67219191Y-103268236D01*
X67289683Y-103275179D01*
X67359165Y-103289000D01*
X71294498Y-103289000D01*
X71281498Y-103313320D01*
X71245188Y-103433018D01*
X71232928Y-103557500D01*
X71236000Y-104171750D01*
X71394750Y-104330500D01*
X72644000Y-104330500D01*
X72644000Y-104310500D01*
X72898000Y-104310500D01*
X72898000Y-104330500D01*
X74147250Y-104330500D01*
X74306000Y-104171750D01*
X74309072Y-103557500D01*
X74296812Y-103433018D01*
X74260502Y-103313320D01*
X74201537Y-103203006D01*
X74122185Y-103106315D01*
X74025494Y-103026963D01*
X73915180Y-102967998D01*
X73896873Y-102962444D01*
X73963312Y-102896005D01*
X74131299Y-102644595D01*
X74247011Y-102365243D01*
X74306000Y-102068684D01*
X74306000Y-101766316D01*
X74247011Y-101469757D01*
X74131299Y-101190405D01*
X73963312Y-100938995D01*
X73749505Y-100725188D01*
X73498095Y-100557201D01*
X73218743Y-100441489D01*
X72922184Y-100382500D01*
X72619816Y-100382500D01*
X72436317Y-100419000D01*
X67359165Y-100419000D01*
X67289683Y-100432821D01*
X67219191Y-100439764D01*
X67151403Y-100460327D01*
X67081926Y-100474147D01*
X67016486Y-100501253D01*
X66948692Y-100521818D01*
X66886212Y-100555214D01*
X66820773Y-100582320D01*
X66761878Y-100621672D01*
X66699399Y-100655068D01*
X66644637Y-100700010D01*
X66585741Y-100739363D01*
X66535654Y-100789450D01*
X66480892Y-100834392D01*
X66435950Y-100889154D01*
X66385863Y-100939241D01*
X66346510Y-100998137D01*
X66301568Y-101052899D01*
X66268172Y-101115378D01*
X66228820Y-101174273D01*
X66201714Y-101239712D01*
X66168318Y-101302192D01*
X66147753Y-101369986D01*
X66120647Y-101435426D01*
X66106827Y-101504903D01*
X66086264Y-101572691D01*
X66079321Y-101643183D01*
X66065500Y-101712665D01*
X66065500Y-101783508D01*
X66058557Y-101854000D01*
X58782443Y-101854000D01*
X58775500Y-101783508D01*
X58775500Y-101712665D01*
X58761679Y-101643183D01*
X58754736Y-101572691D01*
X58734173Y-101504903D01*
X58720353Y-101435426D01*
X58693247Y-101369986D01*
X58672682Y-101302192D01*
X58639286Y-101239712D01*
X58612180Y-101174273D01*
X58572828Y-101115378D01*
X58539432Y-101052899D01*
X58494490Y-100998137D01*
X58455137Y-100939241D01*
X58405050Y-100889154D01*
X58360108Y-100834392D01*
X58305346Y-100789450D01*
X58255259Y-100739363D01*
X58196363Y-100700010D01*
X58141601Y-100655068D01*
X58079122Y-100621672D01*
X58020227Y-100582320D01*
X57954788Y-100555214D01*
X57892308Y-100521818D01*
X57824514Y-100501253D01*
X57759074Y-100474147D01*
X57689597Y-100460327D01*
X57621809Y-100439764D01*
X57551317Y-100432821D01*
X57481835Y-100419000D01*
X54457500Y-100419000D01*
X54457500Y-100336991D01*
X54464443Y-100266499D01*
X54436736Y-99985190D01*
X54354682Y-99714692D01*
X54221432Y-99465399D01*
X54042107Y-99246892D01*
X53987350Y-99201954D01*
X50340554Y-95555159D01*
X50295608Y-95500392D01*
X50077101Y-95321068D01*
X49827808Y-95187818D01*
X49557309Y-95105764D01*
X49346492Y-95085000D01*
X49276000Y-95078057D01*
X49205508Y-95085000D01*
X38004504Y-95085000D01*
X37936491Y-95016987D01*
X37619566Y-94805225D01*
X37267419Y-94659361D01*
X36893581Y-94585000D01*
X36512419Y-94585000D01*
X36138581Y-94659361D01*
X35786434Y-94805225D01*
X35469509Y-95016987D01*
X35199987Y-95286509D01*
X34988225Y-95603434D01*
X34842361Y-95955581D01*
X34768000Y-96329419D01*
X28474319Y-96329419D01*
X31728739Y-93075000D01*
X34862043Y-93075000D01*
X34872463Y-93094494D01*
X34951815Y-93191185D01*
X35048506Y-93270537D01*
X35158820Y-93329502D01*
X35278518Y-93365812D01*
X35403000Y-93378072D01*
X38003000Y-93378072D01*
X38127482Y-93365812D01*
X38247180Y-93329502D01*
X38357494Y-93270537D01*
X38454185Y-93191185D01*
X38533537Y-93094494D01*
X38592502Y-92984180D01*
X38628812Y-92864482D01*
X38641072Y-92740000D01*
X38641072Y-90140000D01*
X38628812Y-90015518D01*
X38592502Y-89895820D01*
X38533537Y-89785506D01*
X38454185Y-89688815D01*
X38357494Y-89609463D01*
X38247180Y-89550498D01*
X38127482Y-89514188D01*
X38003000Y-89501928D01*
X35403000Y-89501928D01*
X35278518Y-89514188D01*
X35158820Y-89550498D01*
X35048506Y-89609463D01*
X34951815Y-89688815D01*
X34872463Y-89785506D01*
X34862043Y-89805000D01*
X31131819Y-89805000D01*
X31051499Y-89797089D01*
X30971180Y-89805000D01*
X30585739Y-89805000D01*
X30281856Y-89501117D01*
X46592690Y-89501117D01*
X46633678Y-89773233D01*
X46726964Y-90032123D01*
X46788944Y-90148080D01*
X47029035Y-90215060D01*
X47814995Y-89429100D01*
X47029035Y-88643140D01*
X46788944Y-88710120D01*
X46671844Y-88959148D01*
X46605577Y-89226235D01*
X46592690Y-89501117D01*
X30281856Y-89501117D01*
X28241500Y-87460762D01*
X28241500Y-68624344D01*
X29707000Y-68624344D01*
X29707000Y-68995656D01*
X29779439Y-69359834D01*
X29807001Y-69426374D01*
X29807000Y-76017824D01*
X29798365Y-76105500D01*
X29807000Y-76193175D01*
X29807000Y-76193182D01*
X29832828Y-76455420D01*
X29934896Y-76791894D01*
X30100646Y-77101990D01*
X30323708Y-77373792D01*
X30391821Y-77429691D01*
X32648313Y-79686184D01*
X32704208Y-79754292D01*
X32976009Y-79977354D01*
X33286105Y-80143104D01*
X33622579Y-80245172D01*
X33884817Y-80271000D01*
X33884826Y-80271000D01*
X33972499Y-80279635D01*
X34060172Y-80271000D01*
X34675519Y-80271000D01*
X34731006Y-80316537D01*
X34841320Y-80375502D01*
X34961018Y-80411812D01*
X35085500Y-80424072D01*
X37685500Y-80424072D01*
X37809982Y-80411812D01*
X37929680Y-80375502D01*
X38039994Y-80316537D01*
X38136685Y-80237185D01*
X38216037Y-80140494D01*
X38275002Y-80030180D01*
X38283500Y-80002165D01*
X38283500Y-81048628D01*
X37551129Y-81781000D01*
X37132528Y-81781000D01*
X36949919Y-81705361D01*
X36576081Y-81631000D01*
X36194919Y-81631000D01*
X35821081Y-81705361D01*
X35468934Y-81851225D01*
X35152009Y-82062987D01*
X34882487Y-82332509D01*
X34670725Y-82649434D01*
X34524861Y-83001581D01*
X34450500Y-83375419D01*
X34450500Y-83756581D01*
X34524861Y-84130419D01*
X34670725Y-84482566D01*
X34882487Y-84799491D01*
X35152009Y-85069013D01*
X35468934Y-85280775D01*
X35821081Y-85426639D01*
X36194919Y-85501000D01*
X36576081Y-85501000D01*
X36949919Y-85426639D01*
X37132528Y-85351000D01*
X38202825Y-85351000D01*
X38290500Y-85359635D01*
X38378175Y-85351000D01*
X38378183Y-85351000D01*
X38640421Y-85325172D01*
X38976895Y-85223104D01*
X39286991Y-85057354D01*
X39558792Y-84834292D01*
X39614691Y-84766179D01*
X41268690Y-83112182D01*
X41336792Y-83056292D01*
X41392682Y-82988190D01*
X41392687Y-82988185D01*
X41559854Y-82784491D01*
X41725604Y-82474395D01*
X41827672Y-82137921D01*
X41832351Y-82090409D01*
X41853500Y-81875683D01*
X41853500Y-81875676D01*
X41862135Y-81788000D01*
X41853500Y-81700324D01*
X41853500Y-81671508D01*
X46597600Y-81671508D01*
X46597600Y-81946692D01*
X46651286Y-82216590D01*
X46756595Y-82470827D01*
X46909480Y-82699635D01*
X47104065Y-82894220D01*
X47332873Y-83047105D01*
X47410115Y-83079100D01*
X47332873Y-83111095D01*
X47104065Y-83263980D01*
X46909480Y-83458565D01*
X46756595Y-83687373D01*
X46651286Y-83941610D01*
X46597600Y-84211508D01*
X46597600Y-84486692D01*
X46651286Y-84756590D01*
X46756595Y-85010827D01*
X46909480Y-85239635D01*
X47104065Y-85434220D01*
X47332873Y-85587105D01*
X47410115Y-85619100D01*
X47332873Y-85651095D01*
X47104065Y-85803980D01*
X46909480Y-85998565D01*
X46756595Y-86227373D01*
X46651286Y-86481610D01*
X46597600Y-86751508D01*
X46597600Y-87026692D01*
X46651286Y-87296590D01*
X46756595Y-87550827D01*
X46909480Y-87779635D01*
X47104065Y-87974220D01*
X47332873Y-88127105D01*
X47404543Y-88156792D01*
X47391577Y-88161464D01*
X47275620Y-88223444D01*
X47208640Y-88463535D01*
X47994600Y-89249495D01*
X48780560Y-88463535D01*
X48713580Y-88223444D01*
X48577840Y-88159615D01*
X48656327Y-88127105D01*
X48885135Y-87974220D01*
X49079720Y-87779635D01*
X49232605Y-87550827D01*
X49337914Y-87296590D01*
X49391600Y-87026692D01*
X49391600Y-86751508D01*
X49337914Y-86481610D01*
X49232605Y-86227373D01*
X49079720Y-85998565D01*
X48885135Y-85803980D01*
X48656327Y-85651095D01*
X48579085Y-85619100D01*
X48656327Y-85587105D01*
X48885135Y-85434220D01*
X49079720Y-85239635D01*
X49232605Y-85010827D01*
X49274488Y-84909713D01*
X61426592Y-84909713D01*
X61522356Y-85174114D01*
X61811971Y-85315004D01*
X62123508Y-85396684D01*
X62444995Y-85416018D01*
X62764075Y-85372261D01*
X63068488Y-85267095D01*
X63242444Y-85174114D01*
X63338208Y-84909713D01*
X62382400Y-83953905D01*
X61426592Y-84909713D01*
X49274488Y-84909713D01*
X49337914Y-84756590D01*
X49391600Y-84486692D01*
X49391600Y-84211508D01*
X49337914Y-83941610D01*
X49294540Y-83836895D01*
X60740682Y-83836895D01*
X60784439Y-84155975D01*
X60889605Y-84460388D01*
X60982586Y-84634344D01*
X61246987Y-84730108D01*
X62202795Y-83774300D01*
X62562005Y-83774300D01*
X63517813Y-84730108D01*
X63782214Y-84634344D01*
X63923104Y-84344729D01*
X64004784Y-84033192D01*
X64024118Y-83711705D01*
X63980361Y-83392625D01*
X63875195Y-83088212D01*
X63782214Y-82914256D01*
X63517813Y-82818492D01*
X62562005Y-83774300D01*
X62202795Y-83774300D01*
X61246987Y-82818492D01*
X60982586Y-82914256D01*
X60841696Y-83203871D01*
X60760016Y-83515408D01*
X60740682Y-83836895D01*
X49294540Y-83836895D01*
X49232605Y-83687373D01*
X49079720Y-83458565D01*
X48885135Y-83263980D01*
X48656327Y-83111095D01*
X48579085Y-83079100D01*
X48656327Y-83047105D01*
X48885135Y-82894220D01*
X49079720Y-82699635D01*
X49120310Y-82638887D01*
X61426592Y-82638887D01*
X62382400Y-83594695D01*
X63338208Y-82638887D01*
X63242444Y-82374486D01*
X62952829Y-82233596D01*
X62641292Y-82151916D01*
X62319805Y-82132582D01*
X62000725Y-82176339D01*
X61696312Y-82281505D01*
X61522356Y-82374486D01*
X61426592Y-82638887D01*
X49120310Y-82638887D01*
X49232605Y-82470827D01*
X49337914Y-82216590D01*
X49391600Y-81946692D01*
X49391600Y-81671508D01*
X49337914Y-81401610D01*
X49232605Y-81147373D01*
X49079720Y-80918565D01*
X48885135Y-80723980D01*
X48656327Y-80571095D01*
X48584657Y-80541408D01*
X48597623Y-80536736D01*
X48713580Y-80474756D01*
X48780560Y-80234665D01*
X47994600Y-79448705D01*
X47208640Y-80234665D01*
X47275620Y-80474756D01*
X47411360Y-80538585D01*
X47332873Y-80571095D01*
X47104065Y-80723980D01*
X46909480Y-80918565D01*
X46756595Y-81147373D01*
X46651286Y-81401610D01*
X46597600Y-81671508D01*
X41853500Y-81671508D01*
X41853500Y-79341117D01*
X46592690Y-79341117D01*
X46633678Y-79613233D01*
X46726964Y-79872123D01*
X46788944Y-79988080D01*
X47029035Y-80055060D01*
X47814995Y-79269100D01*
X48174205Y-79269100D01*
X48960165Y-80055060D01*
X49200256Y-79988080D01*
X49317356Y-79739052D01*
X49383623Y-79471965D01*
X49396510Y-79197083D01*
X49355522Y-78924967D01*
X49262236Y-78666077D01*
X49200256Y-78550120D01*
X48960165Y-78483140D01*
X48174205Y-79269100D01*
X47814995Y-79269100D01*
X47029035Y-78483140D01*
X46788944Y-78550120D01*
X46671844Y-78799148D01*
X46605577Y-79066235D01*
X46592690Y-79341117D01*
X41853500Y-79341117D01*
X41853500Y-75398672D01*
X41862135Y-75310999D01*
X41853500Y-75223326D01*
X41853500Y-75223317D01*
X41827672Y-74961079D01*
X41725604Y-74624605D01*
X41559854Y-74314509D01*
X41336792Y-74042708D01*
X41268684Y-73986813D01*
X39313500Y-72031630D01*
X39313500Y-68624344D01*
X41707000Y-68624344D01*
X41707000Y-68995656D01*
X41779439Y-69359834D01*
X41921534Y-69702882D01*
X42127825Y-70011618D01*
X42390382Y-70274175D01*
X42699118Y-70480466D01*
X43042166Y-70622561D01*
X43406344Y-70695000D01*
X43777656Y-70695000D01*
X44141834Y-70622561D01*
X44484882Y-70480466D01*
X44793618Y-70274175D01*
X45056175Y-70011618D01*
X45262466Y-69702882D01*
X45404561Y-69359834D01*
X45477000Y-68995656D01*
X45477000Y-68624344D01*
X45404561Y-68260166D01*
X45262466Y-67917118D01*
X45056175Y-67608382D01*
X44793618Y-67345825D01*
X44484882Y-67139534D01*
X44141834Y-66997439D01*
X43777656Y-66925000D01*
X43406344Y-66925000D01*
X43042166Y-66997439D01*
X42699118Y-67139534D01*
X42390382Y-67345825D01*
X42127825Y-67608382D01*
X41921534Y-67917118D01*
X41779439Y-68260166D01*
X41707000Y-68624344D01*
X39313500Y-68624344D01*
X39313500Y-68482609D01*
X39351172Y-68358421D01*
X39377000Y-68096183D01*
X39377000Y-68096182D01*
X39385636Y-68008500D01*
X39377000Y-67920817D01*
X39377000Y-56206144D01*
X39431502Y-56104180D01*
X39467812Y-55984482D01*
X39480072Y-55860000D01*
X39480072Y-53360000D01*
X39467812Y-53235518D01*
X39431502Y-53115820D01*
X39372537Y-53005506D01*
X39293185Y-52908815D01*
X39196494Y-52829463D01*
X39086180Y-52770498D01*
X38966482Y-52734188D01*
X38842000Y-52721928D01*
X36342000Y-52721928D01*
X36217518Y-52734188D01*
X36097820Y-52770498D01*
X35987506Y-52829463D01*
X35890815Y-52908815D01*
X35811463Y-53005506D01*
X35752498Y-53115820D01*
X35716188Y-53235518D01*
X35703928Y-53360000D01*
X35703928Y-55860000D01*
X35716188Y-55984482D01*
X35752498Y-56104180D01*
X35807001Y-56206146D01*
X35807000Y-67597892D01*
X35769328Y-67722080D01*
X35734865Y-68072000D01*
X35743501Y-68159685D01*
X35743500Y-72683324D01*
X35734865Y-72771000D01*
X35743500Y-72858675D01*
X35743500Y-72858682D01*
X35769328Y-73120920D01*
X35871396Y-73457394D01*
X36037146Y-73767490D01*
X36260208Y-74039292D01*
X36328321Y-74095191D01*
X38283501Y-76050372D01*
X38283501Y-76969837D01*
X38275002Y-76941820D01*
X38216037Y-76831506D01*
X38136685Y-76734815D01*
X38039994Y-76655463D01*
X37929680Y-76596498D01*
X37809982Y-76560188D01*
X37685500Y-76547928D01*
X35085500Y-76547928D01*
X34961018Y-76560188D01*
X34841320Y-76596498D01*
X34731006Y-76655463D01*
X34695485Y-76684614D01*
X33377000Y-75366130D01*
X33377000Y-69426372D01*
X33404561Y-69359834D01*
X33477000Y-68995656D01*
X33477000Y-68624344D01*
X33404561Y-68260166D01*
X33262466Y-67917118D01*
X33056175Y-67608382D01*
X32793618Y-67345825D01*
X32484882Y-67139534D01*
X32141834Y-66997439D01*
X31777656Y-66925000D01*
X31406344Y-66925000D01*
X31042166Y-66997439D01*
X30699118Y-67139534D01*
X30390382Y-67345825D01*
X30127825Y-67608382D01*
X29921534Y-67917118D01*
X29779439Y-68260166D01*
X29707000Y-68624344D01*
X28241500Y-68624344D01*
X28241500Y-59605238D01*
X29601739Y-58245000D01*
X30646039Y-58245000D01*
X30699118Y-58280466D01*
X31042166Y-58422561D01*
X31406344Y-58495000D01*
X31777656Y-58495000D01*
X32141834Y-58422561D01*
X32484882Y-58280466D01*
X32793618Y-58074175D01*
X33056175Y-57811618D01*
X33262466Y-57502882D01*
X33404561Y-57159834D01*
X33477000Y-56795656D01*
X33477000Y-56424344D01*
X33404561Y-56060166D01*
X33262466Y-55717118D01*
X33227000Y-55664039D01*
X33227000Y-52905238D01*
X36618239Y-49514000D01*
X40781356Y-49514000D01*
X40883320Y-49568502D01*
X41003018Y-49604812D01*
X41127500Y-49617072D01*
X43327500Y-49617072D01*
X43451982Y-49604812D01*
X43571680Y-49568502D01*
X43681994Y-49509537D01*
X43778685Y-49430185D01*
X43858037Y-49333494D01*
X43917002Y-49223180D01*
X43953312Y-49103482D01*
X43965572Y-48979000D01*
X43965572Y-46779000D01*
X43953312Y-46654518D01*
X43917002Y-46534820D01*
X43862500Y-46432856D01*
X43862500Y-43349238D01*
X46401740Y-40809999D01*
X53172605Y-40809999D01*
X51422655Y-42559950D01*
X51367892Y-42604893D01*
X51188568Y-42823400D01*
X51055319Y-43072692D01*
X51055318Y-43072693D01*
X50973264Y-43343192D01*
X50945557Y-43624500D01*
X50952500Y-43694992D01*
X50952501Y-46444000D01*
X47504995Y-46444000D01*
X47434500Y-46437057D01*
X47153191Y-46464763D01*
X46907192Y-46539386D01*
X46882692Y-46546818D01*
X46633399Y-46680068D01*
X46414892Y-46859392D01*
X46369950Y-46914154D01*
X42627155Y-50656950D01*
X42572393Y-50701892D01*
X42393069Y-50920399D01*
X42321845Y-51053650D01*
X42259818Y-51169693D01*
X42177764Y-51440192D01*
X42150057Y-51721500D01*
X42157001Y-51792002D01*
X42157000Y-55379207D01*
X42127825Y-55408382D01*
X41921534Y-55717118D01*
X41779439Y-56060166D01*
X41707000Y-56424344D01*
X41707000Y-56795656D01*
X41779439Y-57159834D01*
X41921534Y-57502882D01*
X42127825Y-57811618D01*
X42390382Y-58074175D01*
X42699118Y-58280466D01*
X43042166Y-58422561D01*
X43406344Y-58495000D01*
X43777656Y-58495000D01*
X44141834Y-58422561D01*
X44484882Y-58280466D01*
X44793618Y-58074175D01*
X45056175Y-57811618D01*
X45262466Y-57502882D01*
X45404561Y-57159834D01*
X45477000Y-56795656D01*
X45477000Y-56424344D01*
X45446600Y-56271508D01*
X46597600Y-56271508D01*
X46597600Y-56546692D01*
X46651286Y-56816590D01*
X46756595Y-57070827D01*
X46909480Y-57299635D01*
X47104065Y-57494220D01*
X47332873Y-57647105D01*
X47410115Y-57679100D01*
X47332873Y-57711095D01*
X47104065Y-57863980D01*
X46909480Y-58058565D01*
X46756595Y-58287373D01*
X46651286Y-58541610D01*
X46597600Y-58811508D01*
X46597600Y-59086692D01*
X46651286Y-59356590D01*
X46756595Y-59610827D01*
X46909480Y-59839635D01*
X47104065Y-60034220D01*
X47332873Y-60187105D01*
X47410115Y-60219100D01*
X47332873Y-60251095D01*
X47104065Y-60403980D01*
X46909480Y-60598565D01*
X46756595Y-60827373D01*
X46651286Y-61081610D01*
X46597600Y-61351508D01*
X46597600Y-61626692D01*
X46651286Y-61896590D01*
X46756595Y-62150827D01*
X46909480Y-62379635D01*
X47104065Y-62574220D01*
X47332873Y-62727105D01*
X47410115Y-62759100D01*
X47332873Y-62791095D01*
X47104065Y-62943980D01*
X46909480Y-63138565D01*
X46756595Y-63367373D01*
X46651286Y-63621610D01*
X46597600Y-63891508D01*
X46597600Y-64166692D01*
X46651286Y-64436590D01*
X46756595Y-64690827D01*
X46909480Y-64919635D01*
X47104065Y-65114220D01*
X47332873Y-65267105D01*
X47410115Y-65299100D01*
X47332873Y-65331095D01*
X47104065Y-65483980D01*
X46909480Y-65678565D01*
X46756595Y-65907373D01*
X46651286Y-66161610D01*
X46597600Y-66431508D01*
X46597600Y-66706692D01*
X46651286Y-66976590D01*
X46756595Y-67230827D01*
X46909480Y-67459635D01*
X47104065Y-67654220D01*
X47332873Y-67807105D01*
X47410115Y-67839100D01*
X47332873Y-67871095D01*
X47104065Y-68023980D01*
X46909480Y-68218565D01*
X46756595Y-68447373D01*
X46651286Y-68701610D01*
X46597600Y-68971508D01*
X46597600Y-69246692D01*
X46651286Y-69516590D01*
X46756595Y-69770827D01*
X46909480Y-69999635D01*
X47104065Y-70194220D01*
X47332873Y-70347105D01*
X47410115Y-70379100D01*
X47332873Y-70411095D01*
X47104065Y-70563980D01*
X46909480Y-70758565D01*
X46756595Y-70987373D01*
X46651286Y-71241610D01*
X46597600Y-71511508D01*
X46597600Y-71786692D01*
X46651286Y-72056590D01*
X46756595Y-72310827D01*
X46909480Y-72539635D01*
X47104065Y-72734220D01*
X47332873Y-72887105D01*
X47410115Y-72919100D01*
X47332873Y-72951095D01*
X47104065Y-73103980D01*
X46909480Y-73298565D01*
X46756595Y-73527373D01*
X46651286Y-73781610D01*
X46597600Y-74051508D01*
X46597600Y-74326692D01*
X46651286Y-74596590D01*
X46756595Y-74850827D01*
X46909480Y-75079635D01*
X47104065Y-75274220D01*
X47332873Y-75427105D01*
X47410115Y-75459100D01*
X47332873Y-75491095D01*
X47104065Y-75643980D01*
X46909480Y-75838565D01*
X46756595Y-76067373D01*
X46651286Y-76321610D01*
X46597600Y-76591508D01*
X46597600Y-76866692D01*
X46651286Y-77136590D01*
X46756595Y-77390827D01*
X46909480Y-77619635D01*
X47104065Y-77814220D01*
X47332873Y-77967105D01*
X47404543Y-77996792D01*
X47391577Y-78001464D01*
X47275620Y-78063444D01*
X47208640Y-78303535D01*
X47994600Y-79089495D01*
X48780560Y-78303535D01*
X48713580Y-78063444D01*
X48577840Y-77999615D01*
X48656327Y-77967105D01*
X48885135Y-77814220D01*
X49079720Y-77619635D01*
X49232605Y-77390827D01*
X49337914Y-77136590D01*
X49391600Y-76866692D01*
X49391600Y-76591508D01*
X49337914Y-76321610D01*
X49232605Y-76067373D01*
X49079720Y-75838565D01*
X48885135Y-75643980D01*
X48656327Y-75491095D01*
X48579085Y-75459100D01*
X48656327Y-75427105D01*
X48885135Y-75274220D01*
X49079720Y-75079635D01*
X49232605Y-74850827D01*
X49337914Y-74596590D01*
X49391600Y-74326692D01*
X49391600Y-74051508D01*
X49337914Y-73781610D01*
X49232605Y-73527373D01*
X49079720Y-73298565D01*
X48885135Y-73103980D01*
X48656327Y-72951095D01*
X48579085Y-72919100D01*
X48656327Y-72887105D01*
X48885135Y-72734220D01*
X49079720Y-72539635D01*
X49232605Y-72310827D01*
X49337914Y-72056590D01*
X49391600Y-71786692D01*
X49391600Y-71511508D01*
X49337914Y-71241610D01*
X49232605Y-70987373D01*
X49079720Y-70758565D01*
X48885135Y-70563980D01*
X48656327Y-70411095D01*
X48579085Y-70379100D01*
X48656327Y-70347105D01*
X48885135Y-70194220D01*
X49079720Y-69999635D01*
X49232605Y-69770827D01*
X49337914Y-69516590D01*
X49391600Y-69246692D01*
X49391600Y-68971508D01*
X49337914Y-68701610D01*
X49232605Y-68447373D01*
X49079720Y-68218565D01*
X48885135Y-68023980D01*
X48656327Y-67871095D01*
X48579085Y-67839100D01*
X48656327Y-67807105D01*
X48885135Y-67654220D01*
X49079720Y-67459635D01*
X49232605Y-67230827D01*
X49337914Y-66976590D01*
X49391600Y-66706692D01*
X49391600Y-66431508D01*
X49337914Y-66161610D01*
X49232605Y-65907373D01*
X49079720Y-65678565D01*
X48885135Y-65483980D01*
X48656327Y-65331095D01*
X48579085Y-65299100D01*
X48656327Y-65267105D01*
X48885135Y-65114220D01*
X49079720Y-64919635D01*
X49232605Y-64690827D01*
X49337914Y-64436590D01*
X49391600Y-64166692D01*
X49391600Y-63891508D01*
X49337914Y-63621610D01*
X49232605Y-63367373D01*
X49079720Y-63138565D01*
X48885135Y-62943980D01*
X48656327Y-62791095D01*
X48579085Y-62759100D01*
X48656327Y-62727105D01*
X48885135Y-62574220D01*
X49079720Y-62379635D01*
X49232605Y-62150827D01*
X49337914Y-61896590D01*
X49391600Y-61626692D01*
X49391600Y-61351508D01*
X49337914Y-61081610D01*
X49232605Y-60827373D01*
X49079720Y-60598565D01*
X48885135Y-60403980D01*
X48656327Y-60251095D01*
X48579085Y-60219100D01*
X48656327Y-60187105D01*
X48885135Y-60034220D01*
X49079720Y-59839635D01*
X49232605Y-59610827D01*
X49337914Y-59356590D01*
X49391600Y-59086692D01*
X49391600Y-58811508D01*
X49337914Y-58541610D01*
X49232605Y-58287373D01*
X49079720Y-58058565D01*
X48885135Y-57863980D01*
X48656327Y-57711095D01*
X48579085Y-57679100D01*
X48656327Y-57647105D01*
X48885135Y-57494220D01*
X49079720Y-57299635D01*
X49232605Y-57070827D01*
X49337914Y-56816590D01*
X49391600Y-56546692D01*
X49391600Y-56271508D01*
X49337914Y-56001610D01*
X49232605Y-55747373D01*
X49079720Y-55518565D01*
X48885135Y-55323980D01*
X48656327Y-55171095D01*
X48402090Y-55065786D01*
X48132192Y-55012100D01*
X47857008Y-55012100D01*
X47587110Y-55065786D01*
X47332873Y-55171095D01*
X47104065Y-55323980D01*
X46909480Y-55518565D01*
X46756595Y-55747373D01*
X46651286Y-56001610D01*
X46597600Y-56271508D01*
X45446600Y-56271508D01*
X45404561Y-56060166D01*
X45262466Y-55717118D01*
X45056175Y-55408382D01*
X45027000Y-55379207D01*
X45027000Y-52315895D01*
X48028896Y-49314000D01*
X51412211Y-49314000D01*
X51565669Y-49416537D01*
X51881419Y-49547325D01*
X52216617Y-49614000D01*
X52558383Y-49614000D01*
X52790345Y-49567860D01*
X52931691Y-49610737D01*
X53213000Y-49638443D01*
X53283495Y-49631500D01*
X56902992Y-49631500D01*
X57113809Y-49610736D01*
X57200061Y-49584572D01*
X57582500Y-49584572D01*
X57706982Y-49572312D01*
X57826680Y-49536002D01*
X57936994Y-49477037D01*
X58033685Y-49397685D01*
X58113037Y-49300994D01*
X58172002Y-49190680D01*
X58208312Y-49070982D01*
X58220572Y-48946500D01*
X58220572Y-48564061D01*
X58246736Y-48477809D01*
X58274443Y-48196500D01*
X58246736Y-47915191D01*
X58220572Y-47828939D01*
X58220572Y-47446500D01*
X58208312Y-47322018D01*
X58172002Y-47202320D01*
X58113037Y-47092006D01*
X58112622Y-47091500D01*
X58143105Y-47091500D01*
X59527863Y-48476259D01*
X59727741Y-48676137D01*
X59786644Y-48715495D01*
X59841399Y-48760431D01*
X59903873Y-48793824D01*
X59962773Y-48833180D01*
X60028214Y-48860286D01*
X60090692Y-48893682D01*
X60158488Y-48914248D01*
X60223926Y-48941353D01*
X60293396Y-48955172D01*
X60361191Y-48975737D01*
X60431690Y-48982680D01*
X60501165Y-48996500D01*
X60572005Y-48996500D01*
X60642500Y-49003443D01*
X60712995Y-48996500D01*
X60783835Y-48996500D01*
X60853310Y-48982680D01*
X60923809Y-48975737D01*
X60991603Y-48955172D01*
X61061074Y-48941353D01*
X61126514Y-48914247D01*
X61194307Y-48893682D01*
X61256782Y-48860288D01*
X61322227Y-48833180D01*
X61381131Y-48793821D01*
X61443600Y-48760431D01*
X61498351Y-48715498D01*
X61557259Y-48676137D01*
X61607356Y-48626040D01*
X61662107Y-48581107D01*
X61707040Y-48526356D01*
X61757137Y-48476259D01*
X61796498Y-48417351D01*
X61841431Y-48362600D01*
X61874821Y-48300131D01*
X61914180Y-48241227D01*
X61941288Y-48175782D01*
X61974682Y-48113307D01*
X61995247Y-48045514D01*
X62022353Y-47980074D01*
X62036172Y-47910603D01*
X62056737Y-47842809D01*
X62063680Y-47772310D01*
X62077500Y-47702835D01*
X62077500Y-47631991D01*
X62084443Y-47561500D01*
X62077500Y-47491005D01*
X62077500Y-47420165D01*
X62063680Y-47350690D01*
X62056737Y-47280191D01*
X62036172Y-47212396D01*
X62022353Y-47142926D01*
X61995248Y-47077488D01*
X61974682Y-47009692D01*
X61941286Y-46947214D01*
X61914180Y-46881773D01*
X61874824Y-46822873D01*
X61841431Y-46760399D01*
X61796495Y-46705644D01*
X61757137Y-46646741D01*
X61557259Y-46446863D01*
X59802054Y-44691659D01*
X59757108Y-44636892D01*
X59538601Y-44457568D01*
X59289308Y-44324318D01*
X59018809Y-44242264D01*
X58807992Y-44221500D01*
X58737500Y-44214557D01*
X58667008Y-44221500D01*
X57569287Y-44221500D01*
X57609888Y-44073493D01*
X56832500Y-43296105D01*
X56055112Y-44073493D01*
X56120637Y-44312360D01*
X56217779Y-44357946D01*
X56031399Y-44457568D01*
X55812892Y-44636892D01*
X55633568Y-44855399D01*
X55500318Y-45104692D01*
X55418264Y-45375191D01*
X55390557Y-45656500D01*
X55418264Y-45937809D01*
X55500318Y-46208308D01*
X55633568Y-46457601D01*
X55812892Y-46676108D01*
X55916942Y-46761500D01*
X53822500Y-46761500D01*
X53822500Y-44218895D01*
X55331396Y-42710000D01*
X55506303Y-42710000D01*
X55455250Y-42916460D01*
X55442688Y-43188992D01*
X55483535Y-43458738D01*
X55576223Y-43715332D01*
X55636640Y-43828363D01*
X55875507Y-43893888D01*
X56652895Y-43116500D01*
X56638753Y-43102358D01*
X56818358Y-42922753D01*
X56832500Y-42936895D01*
X56846643Y-42922753D01*
X57026248Y-43102358D01*
X57012105Y-43116500D01*
X57789493Y-43893888D01*
X58028360Y-43828363D01*
X58144260Y-43581384D01*
X58209750Y-43316540D01*
X58222312Y-43044008D01*
X58181465Y-42774262D01*
X58158252Y-42710000D01*
X62698356Y-42710000D01*
X62800320Y-42764502D01*
X62818627Y-42770056D01*
X62752188Y-42836495D01*
X62584201Y-43087905D01*
X62468489Y-43367257D01*
X62409500Y-43663816D01*
X62409500Y-43966184D01*
X62468489Y-44262743D01*
X62584201Y-44542095D01*
X62752188Y-44793505D01*
X62965995Y-45007312D01*
X63217405Y-45175299D01*
X63496757Y-45291011D01*
X63793316Y-45350000D01*
X64095684Y-45350000D01*
X64392243Y-45291011D01*
X64491252Y-45250000D01*
X69398508Y-45250000D01*
X69469000Y-45256943D01*
X69539492Y-45250000D01*
X69750309Y-45229236D01*
X69963556Y-45164549D01*
X69837655Y-45290450D01*
X69782893Y-45335392D01*
X69603569Y-45553899D01*
X69470318Y-45803192D01*
X69388264Y-46073691D01*
X69377631Y-46181647D01*
X69360557Y-46355000D01*
X69367500Y-46425492D01*
X69367500Y-47702835D01*
X69381321Y-47772318D01*
X69388264Y-47842808D01*
X69408826Y-47910594D01*
X69422647Y-47980074D01*
X69449754Y-48045517D01*
X69470318Y-48113307D01*
X69503713Y-48175784D01*
X69530820Y-48241227D01*
X69570175Y-48300126D01*
X69603568Y-48362600D01*
X69648507Y-48417358D01*
X69687863Y-48476259D01*
X69737955Y-48526351D01*
X69782892Y-48581107D01*
X69837650Y-48626046D01*
X69887741Y-48676137D01*
X69946638Y-48715491D01*
X70001399Y-48760432D01*
X70063878Y-48793828D01*
X70122773Y-48833180D01*
X70188212Y-48860286D01*
X70250692Y-48893682D01*
X70318486Y-48914247D01*
X70383926Y-48941353D01*
X70453403Y-48955173D01*
X70521191Y-48975736D01*
X70591683Y-48982679D01*
X70661165Y-48996500D01*
X70732008Y-48996500D01*
X70802500Y-49003443D01*
X70872992Y-48996500D01*
X70943835Y-48996500D01*
X71013318Y-48982679D01*
X71083808Y-48975736D01*
X71151594Y-48955174D01*
X71221074Y-48941353D01*
X71286517Y-48914246D01*
X71354307Y-48893682D01*
X71416784Y-48860287D01*
X71482227Y-48833180D01*
X71541126Y-48793825D01*
X71603600Y-48760432D01*
X71658358Y-48715493D01*
X71717259Y-48676137D01*
X71767351Y-48626045D01*
X71822107Y-48581108D01*
X71867046Y-48526350D01*
X71917137Y-48476259D01*
X71956491Y-48417362D01*
X72001432Y-48362601D01*
X72034828Y-48300122D01*
X72074180Y-48241227D01*
X72101286Y-48175788D01*
X72134682Y-48113308D01*
X72155247Y-48045514D01*
X72182353Y-47980074D01*
X72194622Y-47918391D01*
X73425019Y-47918391D01*
X73522343Y-48192752D01*
X73671322Y-48442855D01*
X73866231Y-48659088D01*
X74099580Y-48833141D01*
X74362401Y-48958325D01*
X74509610Y-49002976D01*
X74739500Y-48881655D01*
X74739500Y-47688500D01*
X73545686Y-47688500D01*
X73425019Y-47918391D01*
X72194622Y-47918391D01*
X72196173Y-47910597D01*
X72216736Y-47842809D01*
X72223679Y-47772317D01*
X72237500Y-47702835D01*
X72237500Y-46949395D01*
X73047896Y-46139000D01*
X74447048Y-46139000D01*
X74362401Y-46164675D01*
X74099580Y-46289859D01*
X73866231Y-46463912D01*
X73671322Y-46680145D01*
X73522343Y-46930248D01*
X73425019Y-47204609D01*
X73545686Y-47434500D01*
X74739500Y-47434500D01*
X74739500Y-47414500D01*
X74993500Y-47414500D01*
X74993500Y-47434500D01*
X75013500Y-47434500D01*
X75013500Y-47688500D01*
X74993500Y-47688500D01*
X74993500Y-48881655D01*
X75223390Y-49002976D01*
X75370599Y-48958325D01*
X75633420Y-48833141D01*
X75866769Y-48659088D01*
X75971501Y-48542898D01*
X75971500Y-50586604D01*
X72758655Y-53799450D01*
X72703893Y-53844392D01*
X72524569Y-54062899D01*
X72453345Y-54196150D01*
X72391318Y-54312193D01*
X72309264Y-54582692D01*
X72281557Y-54864000D01*
X72288501Y-54934502D01*
X72288500Y-60127508D01*
X72281557Y-60198000D01*
X72301845Y-60403980D01*
X72309264Y-60479308D01*
X72391318Y-60749807D01*
X72524568Y-60999100D01*
X72703892Y-61217607D01*
X72758655Y-61262550D01*
X73950050Y-62453946D01*
X73994992Y-62508708D01*
X74213499Y-62688032D01*
X74445720Y-62812157D01*
X74462792Y-62821282D01*
X74733290Y-62903336D01*
X75011013Y-62930690D01*
X74914992Y-63009492D01*
X74735668Y-63227999D01*
X74602418Y-63477292D01*
X74520364Y-63747791D01*
X74492657Y-64029100D01*
X74520364Y-64310409D01*
X74602418Y-64580908D01*
X74735668Y-64830201D01*
X74914992Y-65048708D01*
X75133499Y-65228032D01*
X75266458Y-65299100D01*
X75133499Y-65370168D01*
X74914992Y-65549492D01*
X74735668Y-65767999D01*
X74602418Y-66017292D01*
X74520364Y-66287791D01*
X74492657Y-66569100D01*
X74520364Y-66850409D01*
X74602418Y-67120908D01*
X74735668Y-67370201D01*
X74914992Y-67588708D01*
X75133499Y-67768032D01*
X75302983Y-67858623D01*
X75272873Y-67871095D01*
X75044065Y-68023980D01*
X74849480Y-68218565D01*
X74696595Y-68447373D01*
X74591286Y-68701610D01*
X74537600Y-68971508D01*
X74537600Y-69246692D01*
X74591286Y-69516590D01*
X74696595Y-69770827D01*
X74849480Y-69999635D01*
X75044065Y-70194220D01*
X75272873Y-70347105D01*
X75344543Y-70376792D01*
X75331577Y-70381464D01*
X75215620Y-70443444D01*
X75148640Y-70683535D01*
X75934600Y-71469495D01*
X76720560Y-70683535D01*
X76653580Y-70443444D01*
X76517840Y-70379615D01*
X76596327Y-70347105D01*
X76825135Y-70194220D01*
X77019720Y-69999635D01*
X77172605Y-69770827D01*
X77277914Y-69516590D01*
X77331600Y-69246692D01*
X77331600Y-68971508D01*
X77293979Y-68782374D01*
X80215450Y-71703846D01*
X80260392Y-71758608D01*
X80478899Y-71937932D01*
X80728192Y-72071182D01*
X80998690Y-72153236D01*
X81279999Y-72180943D01*
X81350491Y-72174000D01*
X81695601Y-72174000D01*
X81579412Y-72278731D01*
X81405359Y-72512080D01*
X81280175Y-72774901D01*
X81235524Y-72922110D01*
X81356845Y-73152000D01*
X82550000Y-73152000D01*
X82550000Y-73132000D01*
X82804000Y-73132000D01*
X82804000Y-73152000D01*
X83997155Y-73152000D01*
X84118476Y-72922110D01*
X84073825Y-72774901D01*
X83948641Y-72512080D01*
X83774588Y-72278731D01*
X83558355Y-72083822D01*
X83447499Y-72017788D01*
X83478100Y-72001432D01*
X83554924Y-71938384D01*
X83623632Y-71892475D01*
X83682063Y-71834044D01*
X83696607Y-71822108D01*
X83708543Y-71807564D01*
X83830475Y-71685632D01*
X83992990Y-71442411D01*
X84104932Y-71172158D01*
X84162000Y-70885260D01*
X84162000Y-70592740D01*
X84104932Y-70305842D01*
X83992990Y-70035589D01*
X83830475Y-69792368D01*
X83623632Y-69585525D01*
X83449240Y-69469000D01*
X83623632Y-69352475D01*
X83830475Y-69145632D01*
X83992990Y-68902411D01*
X84104932Y-68632158D01*
X84162000Y-68345260D01*
X84162000Y-68052740D01*
X84104932Y-67765842D01*
X83992990Y-67495589D01*
X83830475Y-67252368D01*
X83698620Y-67120513D01*
X83771180Y-67098502D01*
X83881494Y-67039537D01*
X83978185Y-66960185D01*
X84057537Y-66863494D01*
X84116502Y-66753180D01*
X84152812Y-66633482D01*
X84165072Y-66509000D01*
X84162000Y-65944750D01*
X84003250Y-65786000D01*
X82804000Y-65786000D01*
X82804000Y-65806000D01*
X82550000Y-65806000D01*
X82550000Y-65786000D01*
X81350750Y-65786000D01*
X81267847Y-65868903D01*
X80207944Y-64809000D01*
X81188928Y-64809000D01*
X81192000Y-65373250D01*
X81350750Y-65532000D01*
X82550000Y-65532000D01*
X82550000Y-64332750D01*
X82804000Y-64332750D01*
X82804000Y-65532000D01*
X84003250Y-65532000D01*
X84162000Y-65373250D01*
X84165072Y-64809000D01*
X84152812Y-64684518D01*
X84116502Y-64564820D01*
X84057537Y-64454506D01*
X83978185Y-64357815D01*
X83881494Y-64278463D01*
X83771180Y-64219498D01*
X83651482Y-64183188D01*
X83527000Y-64170928D01*
X82962750Y-64174000D01*
X82804000Y-64332750D01*
X82550000Y-64332750D01*
X82391250Y-64174000D01*
X81827000Y-64170928D01*
X81702518Y-64183188D01*
X81582820Y-64219498D01*
X81472506Y-64278463D01*
X81375815Y-64357815D01*
X81296463Y-64454506D01*
X81237498Y-64564820D01*
X81201188Y-64684518D01*
X81188928Y-64809000D01*
X80207944Y-64809000D01*
X78463203Y-63064259D01*
X78418257Y-63009492D01*
X78199750Y-62830168D01*
X77950457Y-62696918D01*
X77679958Y-62614864D01*
X77469141Y-62594100D01*
X77398649Y-62587157D01*
X77328157Y-62594100D01*
X76850158Y-62594100D01*
X76954208Y-62508708D01*
X77133532Y-62290201D01*
X77266782Y-62040908D01*
X77332309Y-61824890D01*
X81108524Y-61824890D01*
X81153175Y-61972099D01*
X81278359Y-62234920D01*
X81452412Y-62468269D01*
X81668645Y-62663178D01*
X81918748Y-62812157D01*
X82193109Y-62909481D01*
X82423000Y-62788814D01*
X82423000Y-61595000D01*
X82677000Y-61595000D01*
X82677000Y-62788814D01*
X82906891Y-62909481D01*
X83181252Y-62812157D01*
X83431355Y-62663178D01*
X83647588Y-62468269D01*
X83821641Y-62234920D01*
X83946825Y-61972099D01*
X83991476Y-61824890D01*
X83870155Y-61595000D01*
X82677000Y-61595000D01*
X82423000Y-61595000D01*
X81229845Y-61595000D01*
X81108524Y-61824890D01*
X77332309Y-61824890D01*
X77348836Y-61770409D01*
X77376543Y-61489100D01*
X77348836Y-61207791D01*
X77266782Y-60937292D01*
X77133532Y-60687999D01*
X76954208Y-60469492D01*
X76850158Y-60384100D01*
X81545193Y-60384100D01*
X81452412Y-60467731D01*
X81278359Y-60701080D01*
X81153175Y-60963901D01*
X81108524Y-61111110D01*
X81229845Y-61341000D01*
X82423000Y-61341000D01*
X82423000Y-61321000D01*
X82677000Y-61321000D01*
X82677000Y-61341000D01*
X83870155Y-61341000D01*
X83991476Y-61111110D01*
X83946825Y-60963901D01*
X83821641Y-60701080D01*
X83647588Y-60467731D01*
X83431355Y-60272822D01*
X83314466Y-60203195D01*
X83496632Y-60081475D01*
X83703475Y-59874632D01*
X83865990Y-59631411D01*
X83977932Y-59361158D01*
X84035000Y-59074260D01*
X84035000Y-58781740D01*
X83977932Y-58494842D01*
X83865990Y-58224589D01*
X83703475Y-57981368D01*
X83496632Y-57774525D01*
X83322240Y-57658000D01*
X83496632Y-57541475D01*
X83703475Y-57334632D01*
X83865990Y-57091411D01*
X83977932Y-56821158D01*
X84035000Y-56534260D01*
X84035000Y-56241740D01*
X83977932Y-55954842D01*
X83865990Y-55684589D01*
X83703475Y-55441368D01*
X83571620Y-55309513D01*
X83644180Y-55287502D01*
X83754494Y-55228537D01*
X83851185Y-55149185D01*
X83930537Y-55052494D01*
X83989502Y-54942180D01*
X84025812Y-54822482D01*
X84038072Y-54698000D01*
X84038072Y-54639795D01*
X84043031Y-54633752D01*
X84194852Y-54349715D01*
X84288343Y-54041516D01*
X84312000Y-53801322D01*
X84312000Y-53801320D01*
X84319911Y-53721001D01*
X84312000Y-53640681D01*
X84312000Y-47832322D01*
X84319911Y-47752000D01*
X84288343Y-47431484D01*
X84271090Y-47374607D01*
X84194852Y-47123285D01*
X84043031Y-46839248D01*
X83974572Y-46755830D01*
X83974572Y-46711500D01*
X83962312Y-46587018D01*
X83926002Y-46467320D01*
X83867037Y-46357006D01*
X83787685Y-46260315D01*
X83690994Y-46180963D01*
X83580680Y-46121998D01*
X83460982Y-46085688D01*
X83336500Y-46073428D01*
X83170929Y-46073428D01*
X83115215Y-46043648D01*
X82807016Y-45950157D01*
X82566822Y-45926500D01*
X82566819Y-45926500D01*
X82486500Y-45918589D01*
X82406181Y-45926500D01*
X81581500Y-45926500D01*
X81581500Y-43704830D01*
X81589412Y-43624500D01*
X81557843Y-43303984D01*
X81545125Y-43262057D01*
X81518000Y-43172639D01*
X81518000Y-41355319D01*
X81525911Y-41275000D01*
X81504800Y-41060657D01*
X81494343Y-40954484D01*
X81400852Y-40646285D01*
X81249031Y-40362248D01*
X81044714Y-40113286D01*
X80982320Y-40062081D01*
X78995924Y-38075686D01*
X78944713Y-38013285D01*
X78695751Y-37808968D01*
X78411714Y-37657147D01*
X78103515Y-37563656D01*
X77863321Y-37539999D01*
X77863318Y-37539999D01*
X77782999Y-37532088D01*
X77702680Y-37539999D01*
X45804820Y-37539999D01*
X45724500Y-37532088D01*
X45644181Y-37539999D01*
X45644179Y-37539999D01*
X45403985Y-37563656D01*
X45095786Y-37657147D01*
X44811749Y-37808968D01*
X44562787Y-38013285D01*
X44511581Y-38075680D01*
X41128182Y-41459080D01*
X41065787Y-41510286D01*
X40888191Y-41726688D01*
X40861470Y-41759248D01*
X40709648Y-42043286D01*
X40616158Y-42351484D01*
X40584589Y-42672000D01*
X40592501Y-42752329D01*
X40592500Y-46244000D01*
X36021322Y-46244000D01*
X35941000Y-46236089D01*
X35620483Y-46267657D01*
X35472514Y-46312543D01*
X35312285Y-46361148D01*
X35028248Y-46512969D01*
X34779286Y-46717286D01*
X34728080Y-46779681D01*
X30492687Y-51015075D01*
X30430286Y-51066286D01*
X30225969Y-51315249D01*
X30074148Y-51599286D01*
X29980657Y-51907485D01*
X29971269Y-52002808D01*
X29949089Y-52228000D01*
X29957000Y-52308320D01*
X29957001Y-54975000D01*
X29004819Y-54975000D01*
X28924499Y-54967089D01*
X28844180Y-54975000D01*
X28844178Y-54975000D01*
X28603984Y-54998657D01*
X28295785Y-55092148D01*
X28011748Y-55243969D01*
X27762786Y-55448286D01*
X27711580Y-55510682D01*
X25507182Y-57715080D01*
X25444787Y-57766286D01*
X25265911Y-57984248D01*
X25240470Y-58015248D01*
X25088648Y-58299286D01*
X24995158Y-58607484D01*
X24963589Y-58928000D01*
X23766211Y-58928000D01*
X23938524Y-36576000D01*
X90550874Y-36576000D01*
X90471750Y-116665315D01*
G37*
%TD.AperFunction*%
%TD*%
M02*
