M48
; DRILL file {KiCad (5.1.12)-1} date 02/17/22 13:13:48
; FORMAT={-:-/ absolute / inch / decimal}
; #@! TF.CreationDate,2022-02-17T13:13:48+05:30
; #@! TF.GenerationSoftware,Kicad,Pcbnew,(5.1.12)-1
; #@! TF.FileFunction,Plated,1,2,PTH
FMAT,2
INCH
T1C0.0300
T2C0.0315
T3C0.0354
T4C0.0394
T5C0.0433
T6C0.0512
%
G90
G05
T1
X1.8896Y-2.2208
X1.8896Y-2.3208
X1.8896Y-2.4208
X1.8896Y-2.5208
X1.8896Y-2.6208
X1.8896Y-2.7208
X1.8896Y-2.8208
X1.8896Y-2.9208
X1.8896Y-3.0208
X1.8896Y-3.1208
X1.8896Y-3.2208
X1.8896Y-3.3208
X1.8896Y-3.4208
X1.8896Y-3.5208
X1.8896Y-3.6208
X2.9896Y-2.2208
X2.9896Y-2.3208
X2.9896Y-2.4208
X2.9896Y-2.5208
X2.9896Y-2.6208
X2.9896Y-2.7208
X2.9896Y-2.8208
X2.9896Y-2.9208
X2.9896Y-3.0208
X2.9896Y-3.1208
X2.9896Y-3.2208
X2.9896Y-3.3208
X2.9896Y-3.4208
X2.9896Y-3.5208
X2.9896Y-3.6208
T2
X1.825Y-4.1875
X1.825Y-4.2859
X2.1125Y-4.1925
X2.1125Y-4.2909
X2.2375Y-1.6975
X2.2375Y-1.7975
X2.2375Y-1.8975
X2.2575Y-4.01
X2.3875Y-1.8725
X2.6575Y-4.01
X2.745Y-1.715
X2.7875Y-1.8725
X3.145Y-1.715
T3
X2.5175Y-1.625
X2.5175Y-1.725
X2.865Y-4.0125
X2.865Y-4.1125
T4
X2.456Y-2.9045
X2.456Y-3.2982
X2.9475Y-1.8725
X3.0475Y-1.8725
X3.1475Y-1.8725
X3.2475Y-1.8725
X3.25Y-2.12
X3.25Y-2.22
X3.25Y-2.32
X3.25Y-2.42
X3.255Y-2.585
X3.255Y-2.685
X3.255Y-2.785
X3.255Y-2.885
X3.255Y-3.0275
X3.255Y-3.1275
X3.255Y-3.2275
X3.255Y-3.3275
X3.255Y-3.47
X3.255Y-3.57
X3.255Y-3.67
X3.255Y-3.77
T5
X1.6625Y-1.885
X1.8875Y-4.025
X1.9875Y-4.025
X2.0625Y-1.885
X2.0875Y-4.025
T6
X1.2438Y-2.2287
X1.2438Y-2.7091
X1.4325Y-3.09
X1.4325Y-3.29
X1.445Y-3.6
X1.445Y-3.8
X1.445Y-4.0475
X1.445Y-4.2475
X1.48Y-2.15
X1.7162Y-2.2287
X1.7162Y-2.7091
T0
M30
