%TF.GenerationSoftware,KiCad,Pcbnew,(5.1.12)-1*%
%TF.CreationDate,2022-02-04T12:41:24+05:30*%
%TF.ProjectId,greenhosue,67726565-6e68-46f7-9375-652e6b696361,rev?*%
%TF.SameCoordinates,Original*%
%TF.FileFunction,Copper,L2,Bot*%
%TF.FilePolarity,Positive*%
%FSLAX46Y46*%
G04 Gerber Fmt 4.6, Leading zero omitted, Abs format (unit mm)*
G04 Created by KiCad (PCBNEW (5.1.12)-1) date 2022-02-04 12:41:24*
%MOMM*%
%LPD*%
G01*
G04 APERTURE LIST*
%TA.AperFunction,ComponentPad*%
%ADD10O,1.600000X1.600000*%
%TD*%
%TA.AperFunction,ComponentPad*%
%ADD11C,1.600000*%
%TD*%
%TA.AperFunction,ComponentPad*%
%ADD12C,1.524000*%
%TD*%
%TA.AperFunction,ComponentPad*%
%ADD13C,2.000000*%
%TD*%
%TA.AperFunction,ComponentPad*%
%ADD14R,1.500000X1.500000*%
%TD*%
%TA.AperFunction,ComponentPad*%
%ADD15C,1.500000*%
%TD*%
%TA.AperFunction,ComponentPad*%
%ADD16O,1.905000X2.000000*%
%TD*%
%TA.AperFunction,ComponentPad*%
%ADD17R,1.905000X2.000000*%
%TD*%
%TA.AperFunction,ComponentPad*%
%ADD18O,1.700000X1.700000*%
%TD*%
%TA.AperFunction,ComponentPad*%
%ADD19R,1.700000X1.700000*%
%TD*%
%TA.AperFunction,ComponentPad*%
%ADD20C,2.600000*%
%TD*%
%TA.AperFunction,ComponentPad*%
%ADD21R,2.600000X2.600000*%
%TD*%
%TA.AperFunction,ComponentPad*%
%ADD22R,3.500000X3.500000*%
%TD*%
%TA.AperFunction,ComponentPad*%
%ADD23C,1.800000*%
%TD*%
%TA.AperFunction,ComponentPad*%
%ADD24R,1.800000X1.800000*%
%TD*%
%TA.AperFunction,ComponentPad*%
%ADD25R,1.600000X1.600000*%
%TD*%
%TA.AperFunction,ComponentPad*%
%ADD26O,2.500000X2.500000*%
%TD*%
%TA.AperFunction,ComponentPad*%
%ADD27R,2.500000X2.500000*%
%TD*%
%TA.AperFunction,ComponentPad*%
%ADD28O,2.200000X2.200000*%
%TD*%
%TA.AperFunction,ComponentPad*%
%ADD29R,2.200000X2.200000*%
%TD*%
G04 APERTURE END LIST*
D10*
%TO.P,R4,2*%
%TO.N,S1*%
X104673400Y-37084000D03*
D11*
%TO.P,R4,1*%
%TO.N,VCC*%
X104673400Y-29464000D03*
%TD*%
D12*
%TO.P,U1,30*%
%TO.N,S1*%
X104343200Y-51536600D03*
%TO.P,U1,29*%
%TO.N,Net-(J3-Pad2)*%
X104343200Y-54076600D03*
%TO.P,U1,28*%
%TO.N,Net-(J4-Pad3)*%
X104343200Y-56616600D03*
%TO.P,U1,27*%
%TO.N,S2*%
X104343200Y-59156600D03*
%TO.P,U1,26*%
%TO.N,M_data*%
X104343200Y-61696600D03*
%TO.P,U1,25*%
%TO.N,Net-(U1-Pad25)*%
X104343200Y-64236600D03*
%TO.P,U1,24*%
%TO.N,GND*%
X104343200Y-66776600D03*
%TO.P,U1,23*%
%TO.N,relay1*%
X104343200Y-69316600D03*
%TO.P,U1,22*%
%TO.N,relay2*%
X104343200Y-71856600D03*
%TO.P,U1,21*%
%TO.N,relay3*%
X104343200Y-74396600D03*
%TO.P,U1,20*%
%TO.N,relay4*%
X104343200Y-76936600D03*
%TO.P,U1,19*%
%TO.N,S3*%
X104343200Y-79476600D03*
%TO.P,U1,18*%
%TO.N,S4*%
X104343200Y-82016600D03*
%TO.P,U1,17*%
%TO.N,GND*%
X104343200Y-84556600D03*
%TO.P,U1,16*%
%TO.N,Net-(U1-Pad16)*%
X104343200Y-87096600D03*
%TO.P,U1,15*%
%TO.N,VCC*%
X76403200Y-87096600D03*
%TO.P,U1,14*%
%TO.N,GND*%
X76403200Y-84556600D03*
%TO.P,U1,13*%
%TO.N,Net-(U1-Pad13)*%
X76403200Y-82016600D03*
%TO.P,U1,12*%
%TO.N,Net-(U1-Pad12)*%
X76403200Y-79476600D03*
%TO.P,U1,11*%
%TO.N,+3V3*%
X76403200Y-76936600D03*
%TO.P,U1,10*%
%TO.N,GND*%
X76403200Y-74396600D03*
%TO.P,U1,9*%
%TO.N,Net-(U1-Pad9)*%
X76403200Y-71856600D03*
%TO.P,U1,8*%
%TO.N,Net-(U1-Pad8)*%
X76403200Y-69316600D03*
%TO.P,U1,7*%
%TO.N,Net-(U1-Pad7)*%
X76403200Y-66776600D03*
%TO.P,U1,6*%
%TO.N,Net-(U1-Pad6)*%
X76403200Y-64236600D03*
%TO.P,U1,5*%
%TO.N,Net-(U1-Pad5)*%
X76403200Y-61696600D03*
%TO.P,U1,4*%
%TO.N,Net-(U1-Pad4)*%
X76403200Y-59156600D03*
%TO.P,U1,3*%
%TO.N,Net-(U1-Pad3)*%
X76403200Y-56616600D03*
%TO.P,U1,2*%
%TO.N,GND*%
X76403200Y-54076600D03*
%TO.P,U1,1*%
%TO.N,m_analog*%
X76403200Y-51536600D03*
%TD*%
D13*
%TO.P,SW1,1*%
%TO.N,S1*%
X108130200Y-36017200D03*
%TO.P,SW1,2*%
%TO.N,GND*%
X108130200Y-31517200D03*
%TO.P,SW1,1*%
%TO.N,S1*%
X114630200Y-36017200D03*
%TO.P,SW1,2*%
%TO.N,GND*%
X114630200Y-31517200D03*
%TD*%
D14*
%TO.P,Q4,1*%
%TO.N,Net-(D6-Pad2)*%
X120624600Y-66065400D03*
D15*
%TO.P,Q4,3*%
%TO.N,GND*%
X120624600Y-71145400D03*
%TO.P,Q4,2*%
%TO.N,Net-(Q4-Pad2)*%
X120624600Y-68605400D03*
%TD*%
D14*
%TO.P,Q3,1*%
%TO.N,Net-(D5-Pad2)*%
X118262400Y-45415200D03*
D15*
%TO.P,Q3,3*%
%TO.N,GND*%
X118262400Y-50495200D03*
%TO.P,Q3,2*%
%TO.N,Net-(Q3-Pad2)*%
X118262400Y-47955200D03*
%TD*%
D14*
%TO.P,Q2,1*%
%TO.N,Net-(D4-Pad2)*%
X121869200Y-87604600D03*
D15*
%TO.P,Q2,3*%
%TO.N,GND*%
X121869200Y-92684600D03*
%TO.P,Q2,2*%
%TO.N,Net-(Q2-Pad2)*%
X121869200Y-90144600D03*
%TD*%
D14*
%TO.P,Q1,1*%
%TO.N,Net-(D2-Pad2)*%
X114173000Y-109702600D03*
D15*
%TO.P,Q1,3*%
%TO.N,GND*%
X114173000Y-114782600D03*
%TO.P,Q1,2*%
%TO.N,Net-(Q1-Pad2)*%
X114173000Y-112242600D03*
%TD*%
D16*
%TO.P,U2,3*%
%TO.N,VCC*%
X70408800Y-87223600D03*
%TO.P,U2,2*%
%TO.N,GND*%
X67868800Y-87223600D03*
D17*
%TO.P,U2,1*%
%TO.N,Net-(C1-Pad1)*%
X65328800Y-87223600D03*
%TD*%
D13*
%TO.P,SW4,1*%
%TO.N,S4*%
X103784400Y-107594400D03*
%TO.P,SW4,2*%
%TO.N,GND*%
X103784400Y-112094400D03*
%TO.P,SW4,1*%
%TO.N,S4*%
X97284400Y-107594400D03*
%TO.P,SW4,2*%
%TO.N,GND*%
X97284400Y-112094400D03*
%TD*%
%TO.P,SW2,1*%
%TO.N,S2*%
X79047200Y-34493200D03*
%TO.P,SW2,2*%
%TO.N,GND*%
X79047200Y-29993200D03*
%TO.P,SW2,1*%
%TO.N,S2*%
X85547200Y-34493200D03*
%TO.P,SW2,2*%
%TO.N,GND*%
X85547200Y-29993200D03*
%TD*%
%TO.P,SW3,1*%
%TO.N,S3*%
X90043000Y-107666400D03*
%TO.P,SW3,2*%
%TO.N,GND*%
X90043000Y-112166400D03*
%TO.P,SW3,1*%
%TO.N,S3*%
X83543000Y-107666400D03*
%TO.P,SW3,2*%
%TO.N,GND*%
X83543000Y-112166400D03*
%TD*%
D10*
%TO.P,R14,2*%
%TO.N,Net-(D9-Pad2)*%
X127304800Y-60350400D03*
D11*
%TO.P,R14,1*%
%TO.N,VCC*%
X127304800Y-52730400D03*
%TD*%
D10*
%TO.P,R13,2*%
%TO.N,Net-(D8-Pad2)*%
X125196600Y-38201600D03*
D11*
%TO.P,R13,1*%
%TO.N,VCC*%
X125196600Y-30581600D03*
%TD*%
D10*
%TO.P,R12,2*%
%TO.N,Net-(D7-Pad2)*%
X128270000Y-81940400D03*
D11*
%TO.P,R12,1*%
%TO.N,VCC*%
X128270000Y-74320400D03*
%TD*%
D10*
%TO.P,R11,2*%
%TO.N,relay2*%
X115570000Y-59664600D03*
D11*
%TO.P,R11,1*%
%TO.N,Net-(Q4-Pad2)*%
X115570000Y-67284600D03*
%TD*%
D10*
%TO.P,R10,2*%
%TO.N,relay1*%
X112623600Y-38862000D03*
D11*
%TO.P,R10,1*%
%TO.N,Net-(Q3-Pad2)*%
X112623600Y-46482000D03*
%TD*%
D10*
%TO.P,R9,2*%
%TO.N,relay3*%
X118033800Y-75565000D03*
D11*
%TO.P,R9,1*%
%TO.N,Net-(Q2-Pad2)*%
X118033800Y-83185000D03*
%TD*%
D10*
%TO.P,R8,2*%
%TO.N,S4*%
X93472000Y-106273600D03*
D11*
%TO.P,R8,1*%
%TO.N,VCC*%
X93472000Y-113893600D03*
%TD*%
D10*
%TO.P,R7,2*%
%TO.N,S2*%
X78460600Y-37998400D03*
D11*
%TO.P,R7,1*%
%TO.N,VCC*%
X86080600Y-37998400D03*
%TD*%
D10*
%TO.P,R6,2*%
%TO.N,Net-(D3-Pad2)*%
X122351800Y-103174800D03*
D11*
%TO.P,R6,1*%
%TO.N,VCC*%
X122351800Y-95554800D03*
%TD*%
D10*
%TO.P,R5,2*%
%TO.N,S3*%
X79984600Y-106273600D03*
D11*
%TO.P,R5,1*%
%TO.N,VCC*%
X79984600Y-113893600D03*
%TD*%
D10*
%TO.P,R3,2*%
%TO.N,relay4*%
X108712000Y-101473000D03*
D11*
%TO.P,R3,1*%
%TO.N,Net-(Q1-Pad2)*%
X108712000Y-109093000D03*
%TD*%
D10*
%TO.P,R2,2*%
%TO.N,Net-(J3-Pad2)*%
X100812600Y-30124400D03*
D11*
%TO.P,R2,1*%
%TO.N,VCC*%
X93192600Y-30124400D03*
%TD*%
D10*
%TO.P,R1,2*%
%TO.N,Net-(D1-Pad2)*%
X69646800Y-73812400D03*
D11*
%TO.P,R1,1*%
%TO.N,VCC*%
X69646800Y-81432400D03*
%TD*%
D18*
%TO.P,J10,3*%
%TO.N,GND*%
X65608200Y-67411600D03*
%TO.P,J10,2*%
X65608200Y-69951600D03*
D19*
%TO.P,J10,1*%
X65608200Y-72491600D03*
%TD*%
D18*
%TO.P,J9,3*%
%TO.N,VCC*%
X65608200Y-76504800D03*
%TO.P,J9,2*%
X65608200Y-79044800D03*
D19*
%TO.P,J9,1*%
X65608200Y-81584800D03*
%TD*%
D20*
%TO.P,J8,3*%
%TO.N,Net-(J8-Pad3)*%
X161925000Y-55405000D03*
%TO.P,J8,2*%
%TO.N,Net-(J8-Pad2)*%
X161925000Y-60405000D03*
D21*
%TO.P,J8,1*%
%TO.N,Net-(J8-Pad1)*%
X161925000Y-65405000D03*
%TD*%
D20*
%TO.P,J7,3*%
%TO.N,Net-(J7-Pad3)*%
X162077400Y-32976800D03*
%TO.P,J7,2*%
%TO.N,Net-(J7-Pad2)*%
X162077400Y-37976800D03*
D21*
%TO.P,J7,1*%
%TO.N,Net-(J7-Pad1)*%
X162077400Y-42976800D03*
%TD*%
D20*
%TO.P,J6,3*%
%TO.N,Net-(J6-Pad3)*%
X162356800Y-76410800D03*
%TO.P,J6,2*%
%TO.N,Net-(J6-Pad2)*%
X162356800Y-81410800D03*
D21*
%TO.P,J6,1*%
%TO.N,Net-(J6-Pad1)*%
X162356800Y-86410800D03*
%TD*%
D20*
%TO.P,J5,3*%
%TO.N,Net-(J5-Pad3)*%
X162483800Y-96019600D03*
%TO.P,J5,2*%
%TO.N,Net-(J5-Pad2)*%
X162483800Y-101019600D03*
D21*
%TO.P,J5,1*%
%TO.N,Net-(J5-Pad1)*%
X162483800Y-106019600D03*
%TD*%
D18*
%TO.P,J4,3*%
%TO.N,Net-(J4-Pad3)*%
X89814400Y-35534600D03*
%TO.P,J4,2*%
%TO.N,VCC*%
X89814400Y-32994600D03*
D19*
%TO.P,J4,1*%
%TO.N,GND*%
X89814400Y-30454600D03*
%TD*%
D18*
%TO.P,J3,3*%
%TO.N,VCC*%
X94792800Y-33756600D03*
%TO.P,J3,2*%
%TO.N,Net-(J3-Pad2)*%
X97332800Y-33756600D03*
D19*
%TO.P,J3,1*%
%TO.N,GND*%
X99872800Y-33756600D03*
%TD*%
%TO.P,J2,3*%
%TO.N,N/C*%
%TA.AperFunction,ComponentPad*%
G36*
G01*
X71284800Y-105816600D02*
X69534800Y-105816600D01*
G75*
G02*
X68659800Y-104941600I0J875000D01*
G01*
X68659800Y-103191600D01*
G75*
G02*
X69534800Y-102316600I875000J0D01*
G01*
X71284800Y-102316600D01*
G75*
G02*
X72159800Y-103191600I0J-875000D01*
G01*
X72159800Y-104941600D01*
G75*
G02*
X71284800Y-105816600I-875000J0D01*
G01*
G37*
%TD.AperFunction*%
%TO.P,J2,2*%
%TO.N,GND*%
%TA.AperFunction,ComponentPad*%
G36*
G01*
X66709800Y-108566600D02*
X64709800Y-108566600D01*
G75*
G02*
X63959800Y-107816600I0J750000D01*
G01*
X63959800Y-106316600D01*
G75*
G02*
X64709800Y-105566600I750000J0D01*
G01*
X66709800Y-105566600D01*
G75*
G02*
X67459800Y-106316600I0J-750000D01*
G01*
X67459800Y-107816600D01*
G75*
G02*
X66709800Y-108566600I-750000J0D01*
G01*
G37*
%TD.AperFunction*%
D22*
%TO.P,J2,1*%
%TO.N,Net-(C1-Pad1)*%
X65709800Y-101066600D03*
%TD*%
D23*
%TO.P,D9,2*%
%TO.N,Net-(D9-Pad2)*%
X127355600Y-63931800D03*
D24*
%TO.P,D9,1*%
%TO.N,Net-(D6-Pad2)*%
X127355600Y-66471800D03*
%TD*%
D23*
%TO.P,D8,2*%
%TO.N,Net-(D8-Pad2)*%
X125222000Y-41605200D03*
D24*
%TO.P,D8,1*%
%TO.N,Net-(D5-Pad2)*%
X125222000Y-44145200D03*
%TD*%
D23*
%TO.P,D7,2*%
%TO.N,Net-(D7-Pad2)*%
X128193800Y-85775800D03*
D24*
%TO.P,D7,1*%
%TO.N,Net-(D4-Pad2)*%
X128193800Y-88315800D03*
%TD*%
D23*
%TO.P,D3,2*%
%TO.N,Net-(D3-Pad2)*%
X122301000Y-106349800D03*
D24*
%TO.P,D3,1*%
%TO.N,Net-(D2-Pad2)*%
X122301000Y-108889800D03*
%TD*%
D23*
%TO.P,D1,2*%
%TO.N,Net-(D1-Pad2)*%
X69697600Y-68935600D03*
D24*
%TO.P,D1,1*%
%TO.N,GND*%
X72237600Y-68935600D03*
%TD*%
D11*
%TO.P,C2,2*%
%TO.N,GND*%
X68427600Y-95489400D03*
D25*
%TO.P,C2,1*%
%TO.N,VCC*%
X68427600Y-92989400D03*
%TD*%
D11*
%TO.P,C1,2*%
%TO.N,GND*%
X60325000Y-95591000D03*
D25*
%TO.P,C1,1*%
%TO.N,Net-(C1-Pad1)*%
X60325000Y-93091000D03*
%TD*%
D26*
%TO.P,K4,5*%
%TO.N,VCC*%
X136137400Y-54375800D03*
%TO.P,K4,4*%
%TO.N,Net-(J8-Pad3)*%
X148337400Y-54375800D03*
%TO.P,K4,3*%
%TO.N,Net-(J8-Pad1)*%
X148337400Y-66375800D03*
%TO.P,K4,2*%
%TO.N,Net-(D6-Pad2)*%
X136137400Y-66375800D03*
D27*
%TO.P,K4,1*%
%TO.N,Net-(J8-Pad2)*%
X134137400Y-60375800D03*
%TD*%
D26*
%TO.P,K3,5*%
%TO.N,VCC*%
X135451600Y-32100000D03*
%TO.P,K3,4*%
%TO.N,Net-(J7-Pad3)*%
X147651600Y-32100000D03*
%TO.P,K3,3*%
%TO.N,Net-(J7-Pad1)*%
X147651600Y-44100000D03*
%TO.P,K3,2*%
%TO.N,Net-(D5-Pad2)*%
X135451600Y-44100000D03*
D27*
%TO.P,K3,1*%
%TO.N,Net-(J7-Pad2)*%
X133451600Y-38100000D03*
%TD*%
D26*
%TO.P,K2,5*%
%TO.N,VCC*%
X137001000Y-75762600D03*
%TO.P,K2,4*%
%TO.N,Net-(J6-Pad3)*%
X149201000Y-75762600D03*
%TO.P,K2,3*%
%TO.N,Net-(J6-Pad1)*%
X149201000Y-87762600D03*
%TO.P,K2,2*%
%TO.N,Net-(D4-Pad2)*%
X137001000Y-87762600D03*
D27*
%TO.P,K2,1*%
%TO.N,Net-(J6-Pad2)*%
X135001000Y-81762600D03*
%TD*%
D26*
%TO.P,K1,5*%
%TO.N,VCC*%
X133876800Y-96819200D03*
%TO.P,K1,4*%
%TO.N,Net-(J5-Pad3)*%
X146076800Y-96819200D03*
%TO.P,K1,3*%
%TO.N,Net-(J5-Pad1)*%
X146076800Y-108819200D03*
%TO.P,K1,2*%
%TO.N,Net-(D2-Pad2)*%
X133876800Y-108819200D03*
D27*
%TO.P,K1,1*%
%TO.N,Net-(J5-Pad2)*%
X131876800Y-102819200D03*
%TD*%
D18*
%TO.P,J1,4*%
%TO.N,GND*%
X68910200Y-56769000D03*
%TO.P,J1,3*%
%TO.N,VCC*%
X68910200Y-54229000D03*
%TO.P,J1,2*%
%TO.N,m_analog*%
X68910200Y-51689000D03*
D19*
%TO.P,J1,1*%
%TO.N,M_data*%
X68910200Y-49149000D03*
%TD*%
D28*
%TO.P,D6,2*%
%TO.N,Net-(D6-Pad2)*%
X121564400Y-62890400D03*
D29*
%TO.P,D6,1*%
%TO.N,VCC*%
X121564400Y-52730400D03*
%TD*%
D28*
%TO.P,D5,2*%
%TO.N,Net-(D5-Pad2)*%
X118491000Y-42113200D03*
D29*
%TO.P,D5,1*%
%TO.N,VCC*%
X118491000Y-31953200D03*
%TD*%
D28*
%TO.P,D4,2*%
%TO.N,Net-(D4-Pad2)*%
X122732800Y-84505800D03*
D29*
%TO.P,D4,1*%
%TO.N,VCC*%
X122732800Y-74345800D03*
%TD*%
D28*
%TO.P,D2,2*%
%TO.N,Net-(D2-Pad2)*%
X114376200Y-106121200D03*
D29*
%TO.P,D2,1*%
%TO.N,VCC*%
X114376200Y-95961200D03*
%TD*%
M02*
