%TF.GenerationSoftware,KiCad,Pcbnew,(5.1.12)-1*%
%TF.CreationDate,2022-04-15T13:15:03+05:30*%
%TF.ProjectId,Smart_meter,536d6172-745f-46d6-9574-65722e6b6963,rev?*%
%TF.SameCoordinates,Original*%
%TF.FileFunction,Copper,L1,Top*%
%TF.FilePolarity,Positive*%
%FSLAX46Y46*%
G04 Gerber Fmt 4.6, Leading zero omitted, Abs format (unit mm)*
G04 Created by KiCad (PCBNEW (5.1.12)-1) date 2022-04-15 13:15:03*
%MOMM*%
%LPD*%
G01*
G04 APERTURE LIST*
%TA.AperFunction,ComponentPad*%
%ADD10O,1.700000X1.700000*%
%TD*%
%TA.AperFunction,ComponentPad*%
%ADD11R,1.700000X1.700000*%
%TD*%
%TA.AperFunction,ComponentPad*%
%ADD12R,3.500000X3.500000*%
%TD*%
%TA.AperFunction,ComponentPad*%
%ADD13O,1.905000X2.000000*%
%TD*%
%TA.AperFunction,ComponentPad*%
%ADD14R,1.905000X2.000000*%
%TD*%
%TA.AperFunction,ComponentPad*%
%ADD15C,1.560000*%
%TD*%
%TA.AperFunction,ComponentPad*%
%ADD16R,1.560000X1.560000*%
%TD*%
%TA.AperFunction,ComponentPad*%
%ADD17O,1.600000X1.600000*%
%TD*%
%TA.AperFunction,ComponentPad*%
%ADD18C,1.600000*%
%TD*%
%TA.AperFunction,ComponentPad*%
%ADD19C,1.800000*%
%TD*%
%TA.AperFunction,ComponentPad*%
%ADD20R,1.800000X1.800000*%
%TD*%
%TA.AperFunction,ComponentPad*%
%ADD21R,1.600000X1.600000*%
%TD*%
%TA.AperFunction,Conductor*%
%ADD22C,1.500000*%
%TD*%
%TA.AperFunction,Conductor*%
%ADD23C,0.254000*%
%TD*%
%TA.AperFunction,Conductor*%
%ADD24C,0.100000*%
%TD*%
G04 APERTURE END LIST*
D10*
%TO.P,J4,3*%
%TO.N,Net-(J4-Pad3)*%
X135128000Y-78232000D03*
%TO.P,J4,2*%
%TO.N,GND*%
X135128000Y-80772000D03*
D11*
%TO.P,J4,1*%
%TO.N,VCC*%
X135128000Y-83312000D03*
%TD*%
%TO.P,J1,3*%
%TO.N,N/C*%
%TA.AperFunction,ComponentPad*%
G36*
G01*
X118377000Y-90754000D02*
X120127000Y-90754000D01*
G75*
G02*
X121002000Y-91629000I0J-875000D01*
G01*
X121002000Y-93379000D01*
G75*
G02*
X120127000Y-94254000I-875000J0D01*
G01*
X118377000Y-94254000D01*
G75*
G02*
X117502000Y-93379000I0J875000D01*
G01*
X117502000Y-91629000D01*
G75*
G02*
X118377000Y-90754000I875000J0D01*
G01*
G37*
%TD.AperFunction*%
%TO.P,J1,2*%
%TO.N,GND*%
%TA.AperFunction,ComponentPad*%
G36*
G01*
X122952000Y-88004000D02*
X124952000Y-88004000D01*
G75*
G02*
X125702000Y-88754000I0J-750000D01*
G01*
X125702000Y-90254000D01*
G75*
G02*
X124952000Y-91004000I-750000J0D01*
G01*
X122952000Y-91004000D01*
G75*
G02*
X122202000Y-90254000I0J750000D01*
G01*
X122202000Y-88754000D01*
G75*
G02*
X122952000Y-88004000I750000J0D01*
G01*
G37*
%TD.AperFunction*%
D12*
%TO.P,J1,1*%
%TO.N,Net-(C1-Pad1)*%
X123952000Y-95504000D03*
%TD*%
D13*
%TO.P,U2,3*%
%TO.N,VCC*%
X128524000Y-107696000D03*
%TO.P,U2,2*%
%TO.N,GND*%
X125984000Y-107696000D03*
D14*
%TO.P,U2,1*%
%TO.N,Net-(C1-Pad1)*%
X123444000Y-107696000D03*
%TD*%
D15*
%TO.P,U1,38*%
%TO.N,N/C*%
X164232001Y-108757001D03*
%TO.P,U1,37*%
X164232001Y-106217001D03*
%TO.P,U1,36*%
X164232001Y-103677001D03*
%TO.P,U1,35*%
X164232001Y-101137001D03*
%TO.P,U1,34*%
%TO.N,Net-(R4-Pad2)*%
X164232001Y-98597001D03*
%TO.P,U1,33*%
%TO.N,Net-(R3-Pad2)*%
X164232001Y-96057001D03*
%TO.P,U1,32*%
%TO.N,Net-(R2-Pad2)*%
X164232001Y-93517001D03*
%TO.P,U1,31*%
%TO.N,N/C*%
X164232001Y-90977001D03*
%TO.P,U1,30*%
X164232001Y-88437001D03*
%TO.P,U1,29*%
X164232001Y-85897001D03*
%TO.P,U1,28*%
X164232001Y-83357001D03*
%TO.P,U1,27*%
X164232001Y-80817001D03*
%TO.P,U1,26*%
%TO.N,GND*%
X164232001Y-78277001D03*
%TO.P,U1,25*%
%TO.N,N/C*%
X164232001Y-75737001D03*
%TO.P,U1,24*%
X164232001Y-73197001D03*
%TO.P,U1,23*%
X164232001Y-70657001D03*
%TO.P,U1,22*%
X164232001Y-68117001D03*
%TO.P,U1,21*%
X164232001Y-65577001D03*
%TO.P,U1,20*%
%TO.N,GND*%
X164232001Y-63037001D03*
%TO.P,U1,18*%
%TO.N,N/C*%
X138832001Y-106217001D03*
%TO.P,U1,17*%
X138832001Y-103677001D03*
%TO.P,U1,16*%
X138832001Y-101137001D03*
%TO.P,U1,15*%
X138832001Y-98597001D03*
%TO.P,U1,14*%
%TO.N,GND*%
X138832001Y-96057001D03*
%TO.P,U1,13*%
%TO.N,N/C*%
X138832001Y-93517001D03*
%TO.P,U1,12*%
X138832001Y-90977001D03*
%TO.P,U1,11*%
X138832001Y-88437001D03*
%TO.P,U1,10*%
X138832001Y-85897001D03*
%TO.P,U1,9*%
X138832001Y-83357001D03*
%TO.P,U1,8*%
X138832001Y-80817001D03*
%TO.P,U1,7*%
%TO.N,Net-(J4-Pad3)*%
X138832001Y-78277001D03*
%TO.P,U1,6*%
%TO.N,Net-(J3-Pad3)*%
X138832001Y-75737001D03*
%TO.P,U1,5*%
%TO.N,Net-(J2-Pad1)*%
X138832001Y-73197001D03*
%TO.P,U1,4*%
%TO.N,N/C*%
X138832001Y-70657001D03*
%TO.P,U1,3*%
X138832001Y-68117001D03*
%TO.P,U1,19*%
%TO.N,VCC*%
X138832001Y-108757001D03*
%TO.P,U1,2*%
%TO.N,N/C*%
X138832001Y-65577001D03*
D16*
%TO.P,U1,1*%
X138832001Y-63037001D03*
%TD*%
D17*
%TO.P,R4,2*%
%TO.N,Net-(R4-Pad2)*%
X168148000Y-103124000D03*
D18*
%TO.P,R4,1*%
%TO.N,Net-(D4-Pad2)*%
X175768000Y-103124000D03*
%TD*%
D17*
%TO.P,R3,2*%
%TO.N,Net-(R3-Pad2)*%
X167640000Y-96012000D03*
D18*
%TO.P,R3,1*%
%TO.N,Net-(D3-Pad2)*%
X175260000Y-96012000D03*
%TD*%
D17*
%TO.P,R2,2*%
%TO.N,Net-(R2-Pad2)*%
X168148000Y-88392000D03*
D18*
%TO.P,R2,1*%
%TO.N,Net-(D2-Pad2)*%
X175768000Y-88392000D03*
%TD*%
D17*
%TO.P,R1,2*%
%TO.N,Net-(D1-Pad2)*%
X133604000Y-101600000D03*
D18*
%TO.P,R1,1*%
%TO.N,VCC*%
X133604000Y-109220000D03*
%TD*%
D10*
%TO.P,J3,3*%
%TO.N,Net-(J3-Pad3)*%
X131572000Y-78232000D03*
%TO.P,J3,2*%
%TO.N,GND*%
X131572000Y-80772000D03*
D11*
%TO.P,J3,1*%
%TO.N,VCC*%
X131572000Y-83312000D03*
%TD*%
D10*
%TO.P,J2,3*%
%TO.N,VCC*%
X131572000Y-68072000D03*
%TO.P,J2,2*%
%TO.N,GND*%
X131572000Y-70612000D03*
D11*
%TO.P,J2,1*%
%TO.N,Net-(J2-Pad1)*%
X131572000Y-73152000D03*
%TD*%
D19*
%TO.P,D4,2*%
%TO.N,Net-(D4-Pad2)*%
X179324000Y-103124000D03*
D20*
%TO.P,D4,1*%
%TO.N,GND*%
X181864000Y-103124000D03*
%TD*%
D19*
%TO.P,D3,2*%
%TO.N,Net-(D3-Pad2)*%
X179324000Y-96012000D03*
D20*
%TO.P,D3,1*%
%TO.N,GND*%
X181864000Y-96012000D03*
%TD*%
D19*
%TO.P,D2,2*%
%TO.N,Net-(D2-Pad2)*%
X179324000Y-88392000D03*
D20*
%TO.P,D2,1*%
%TO.N,GND*%
X181864000Y-88392000D03*
%TD*%
D19*
%TO.P,D1,2*%
%TO.N,Net-(D1-Pad2)*%
X132588000Y-94996000D03*
D20*
%TO.P,D1,1*%
%TO.N,GND*%
X132588000Y-92456000D03*
%TD*%
D18*
%TO.P,C2,2*%
%TO.N,GND*%
X128524000Y-99608000D03*
D21*
%TO.P,C2,1*%
%TO.N,VCC*%
X128524000Y-102108000D03*
%TD*%
D18*
%TO.P,C1,2*%
%TO.N,GND*%
X122936000Y-99608000D03*
D21*
%TO.P,C1,1*%
%TO.N,Net-(C1-Pad1)*%
X122936000Y-102108000D03*
%TD*%
D22*
%TO.N,Net-(C1-Pad1)*%
X122936000Y-107188000D02*
X123444000Y-107696000D01*
X122936000Y-102108000D02*
X122936000Y-107188000D01*
X123952000Y-95504000D02*
X121412000Y-95504000D01*
X121412000Y-95504000D02*
X119380000Y-97536000D01*
X119380000Y-97536000D02*
X119380000Y-100584000D01*
X120904000Y-102108000D02*
X122936000Y-102108000D01*
X119380000Y-100584000D02*
X120904000Y-102108000D01*
%TO.N,VCC*%
X135128000Y-83312000D02*
X131572000Y-83312000D01*
X128524000Y-107696000D02*
X128524000Y-102108000D01*
X138787000Y-108712000D02*
X138832001Y-108757001D01*
X134112000Y-108712000D02*
X138787000Y-108712000D01*
X133604000Y-109220000D02*
X134112000Y-108712000D01*
X132080000Y-107696000D02*
X128524000Y-107696000D01*
X133604000Y-109220000D02*
X132080000Y-107696000D01*
X131572000Y-83312000D02*
X128524000Y-83312000D01*
X128524000Y-83312000D02*
X125984000Y-80772000D01*
X125984000Y-80772000D02*
X125984000Y-69596000D01*
X127508000Y-68072000D02*
X131572000Y-68072000D01*
X125984000Y-69596000D02*
X127508000Y-68072000D01*
X128524000Y-102108000D02*
X130048000Y-102108000D01*
X130048000Y-102108000D02*
X130556000Y-101600000D01*
X130556000Y-101600000D02*
X130556000Y-95504000D01*
X128524000Y-93472000D02*
X128524000Y-83312000D01*
X130556000Y-95504000D02*
X128524000Y-93472000D01*
%TO.N,Net-(D1-Pad2)*%
X133604000Y-96012000D02*
X132588000Y-94996000D01*
X133604000Y-101600000D02*
X133604000Y-96012000D01*
%TO.N,Net-(D2-Pad2)*%
X179324000Y-88392000D02*
X175768000Y-88392000D01*
%TO.N,Net-(D3-Pad2)*%
X175260000Y-96012000D02*
X179324000Y-96012000D01*
%TO.N,Net-(D4-Pad2)*%
X179324000Y-103124000D02*
X175768000Y-103124000D01*
%TO.N,Net-(J2-Pad1)*%
X131617001Y-73197001D02*
X131572000Y-73152000D01*
X138832001Y-73197001D02*
X131617001Y-73197001D01*
%TO.N,Net-(J3-Pad3)*%
X131572000Y-78232000D02*
X131572000Y-76708000D01*
X132542999Y-75737001D02*
X138832001Y-75737001D01*
X131572000Y-76708000D02*
X132542999Y-75737001D01*
%TO.N,Net-(R2-Pad2)*%
X168148000Y-89601002D02*
X168148000Y-88392000D01*
X164232001Y-93517001D02*
X168148000Y-89601002D01*
%TO.N,Net-(R3-Pad2)*%
X167594999Y-96057001D02*
X167640000Y-96012000D01*
X164232001Y-96057001D02*
X167594999Y-96057001D01*
%TO.N,Net-(R4-Pad2)*%
X168148000Y-103124000D02*
X168148000Y-100076000D01*
X166669001Y-98597001D02*
X164232001Y-98597001D01*
X168148000Y-100076000D02*
X166669001Y-98597001D01*
%TO.N,Net-(J4-Pad3)*%
X135173001Y-78277001D02*
X135128000Y-78232000D01*
X138832001Y-78277001D02*
X135173001Y-78277001D01*
%TD*%
D23*
%TO.N,GND*%
X184023492Y-110109000D02*
X164665561Y-110109000D01*
X164902255Y-110010958D01*
X165134011Y-109856104D01*
X165331104Y-109659011D01*
X165485958Y-109427255D01*
X165592624Y-109169741D01*
X165647001Y-108896366D01*
X165647001Y-108617636D01*
X165592624Y-108344261D01*
X165485958Y-108086747D01*
X165331104Y-107854991D01*
X165134011Y-107657898D01*
X164902255Y-107503044D01*
X164863524Y-107487001D01*
X164902255Y-107470958D01*
X165134011Y-107316104D01*
X165331104Y-107119011D01*
X165485958Y-106887255D01*
X165592624Y-106629741D01*
X165647001Y-106356366D01*
X165647001Y-106077636D01*
X165592624Y-105804261D01*
X165485958Y-105546747D01*
X165331104Y-105314991D01*
X165134011Y-105117898D01*
X164902255Y-104963044D01*
X164863524Y-104947001D01*
X164902255Y-104930958D01*
X165134011Y-104776104D01*
X165331104Y-104579011D01*
X165485958Y-104347255D01*
X165592624Y-104089741D01*
X165647001Y-103816366D01*
X165647001Y-103537636D01*
X165592624Y-103264261D01*
X165485958Y-103006747D01*
X165331104Y-102774991D01*
X165134011Y-102577898D01*
X164902255Y-102423044D01*
X164863524Y-102407001D01*
X164902255Y-102390958D01*
X165134011Y-102236104D01*
X165331104Y-102039011D01*
X165485958Y-101807255D01*
X165592624Y-101549741D01*
X165647001Y-101276366D01*
X165647001Y-100997636D01*
X165592624Y-100724261D01*
X165485958Y-100466747D01*
X165331104Y-100234991D01*
X165134011Y-100037898D01*
X165050355Y-99982001D01*
X166095316Y-99982001D01*
X166763001Y-100649687D01*
X166763000Y-102731301D01*
X166713000Y-102982665D01*
X166713000Y-103265335D01*
X166768147Y-103542574D01*
X166876320Y-103803727D01*
X167033363Y-104038759D01*
X167233241Y-104238637D01*
X167468273Y-104395680D01*
X167729426Y-104503853D01*
X168006665Y-104559000D01*
X168289335Y-104559000D01*
X168566574Y-104503853D01*
X168827727Y-104395680D01*
X169062759Y-104238637D01*
X169262637Y-104038759D01*
X169419680Y-103803727D01*
X169527853Y-103542574D01*
X169583000Y-103265335D01*
X169583000Y-102982665D01*
X174333000Y-102982665D01*
X174333000Y-103265335D01*
X174388147Y-103542574D01*
X174496320Y-103803727D01*
X174653363Y-104038759D01*
X174853241Y-104238637D01*
X175088273Y-104395680D01*
X175349426Y-104503853D01*
X175626665Y-104559000D01*
X175909335Y-104559000D01*
X176160699Y-104509000D01*
X178656538Y-104509000D01*
X178876257Y-104600011D01*
X179172816Y-104659000D01*
X179475184Y-104659000D01*
X179771743Y-104600011D01*
X180051095Y-104484299D01*
X180302505Y-104316312D01*
X180368944Y-104249873D01*
X180374498Y-104268180D01*
X180433463Y-104378494D01*
X180512815Y-104475185D01*
X180609506Y-104554537D01*
X180719820Y-104613502D01*
X180839518Y-104649812D01*
X180964000Y-104662072D01*
X181578250Y-104659000D01*
X181737000Y-104500250D01*
X181737000Y-103251000D01*
X181991000Y-103251000D01*
X181991000Y-104500250D01*
X182149750Y-104659000D01*
X182764000Y-104662072D01*
X182888482Y-104649812D01*
X183008180Y-104613502D01*
X183118494Y-104554537D01*
X183215185Y-104475185D01*
X183294537Y-104378494D01*
X183353502Y-104268180D01*
X183389812Y-104148482D01*
X183402072Y-104024000D01*
X183399000Y-103409750D01*
X183240250Y-103251000D01*
X181991000Y-103251000D01*
X181737000Y-103251000D01*
X181717000Y-103251000D01*
X181717000Y-102997000D01*
X181737000Y-102997000D01*
X181737000Y-101747750D01*
X181991000Y-101747750D01*
X181991000Y-102997000D01*
X183240250Y-102997000D01*
X183399000Y-102838250D01*
X183402072Y-102224000D01*
X183389812Y-102099518D01*
X183353502Y-101979820D01*
X183294537Y-101869506D01*
X183215185Y-101772815D01*
X183118494Y-101693463D01*
X183008180Y-101634498D01*
X182888482Y-101598188D01*
X182764000Y-101585928D01*
X182149750Y-101589000D01*
X181991000Y-101747750D01*
X181737000Y-101747750D01*
X181578250Y-101589000D01*
X180964000Y-101585928D01*
X180839518Y-101598188D01*
X180719820Y-101634498D01*
X180609506Y-101693463D01*
X180512815Y-101772815D01*
X180433463Y-101869506D01*
X180374498Y-101979820D01*
X180368944Y-101998127D01*
X180302505Y-101931688D01*
X180051095Y-101763701D01*
X179771743Y-101647989D01*
X179475184Y-101589000D01*
X179172816Y-101589000D01*
X178876257Y-101647989D01*
X178656538Y-101739000D01*
X176160699Y-101739000D01*
X175909335Y-101689000D01*
X175626665Y-101689000D01*
X175349426Y-101744147D01*
X175088273Y-101852320D01*
X174853241Y-102009363D01*
X174653363Y-102209241D01*
X174496320Y-102444273D01*
X174388147Y-102705426D01*
X174333000Y-102982665D01*
X169583000Y-102982665D01*
X169533000Y-102731301D01*
X169533000Y-100144026D01*
X169539700Y-100075999D01*
X169533000Y-100007972D01*
X169533000Y-100007963D01*
X169512960Y-99804493D01*
X169433764Y-99543419D01*
X169305157Y-99302812D01*
X169132081Y-99091919D01*
X169079236Y-99048550D01*
X167696455Y-97665770D01*
X167653082Y-97612920D01*
X167444817Y-97442001D01*
X167473534Y-97442001D01*
X167498665Y-97447000D01*
X167577728Y-97447000D01*
X167594999Y-97448701D01*
X167612270Y-97447000D01*
X167781335Y-97447000D01*
X168058574Y-97391853D01*
X168319727Y-97283680D01*
X168554759Y-97126637D01*
X168754637Y-96926759D01*
X168911680Y-96691727D01*
X169019853Y-96430574D01*
X169075000Y-96153335D01*
X169075000Y-95870665D01*
X173825000Y-95870665D01*
X173825000Y-96153335D01*
X173880147Y-96430574D01*
X173988320Y-96691727D01*
X174145363Y-96926759D01*
X174345241Y-97126637D01*
X174580273Y-97283680D01*
X174841426Y-97391853D01*
X175118665Y-97447000D01*
X175401335Y-97447000D01*
X175652699Y-97397000D01*
X178656538Y-97397000D01*
X178876257Y-97488011D01*
X179172816Y-97547000D01*
X179475184Y-97547000D01*
X179771743Y-97488011D01*
X180051095Y-97372299D01*
X180302505Y-97204312D01*
X180368944Y-97137873D01*
X180374498Y-97156180D01*
X180433463Y-97266494D01*
X180512815Y-97363185D01*
X180609506Y-97442537D01*
X180719820Y-97501502D01*
X180839518Y-97537812D01*
X180964000Y-97550072D01*
X181578250Y-97547000D01*
X181737000Y-97388250D01*
X181737000Y-96139000D01*
X181991000Y-96139000D01*
X181991000Y-97388250D01*
X182149750Y-97547000D01*
X182764000Y-97550072D01*
X182888482Y-97537812D01*
X183008180Y-97501502D01*
X183118494Y-97442537D01*
X183215185Y-97363185D01*
X183294537Y-97266494D01*
X183353502Y-97156180D01*
X183389812Y-97036482D01*
X183402072Y-96912000D01*
X183399000Y-96297750D01*
X183240250Y-96139000D01*
X181991000Y-96139000D01*
X181737000Y-96139000D01*
X181717000Y-96139000D01*
X181717000Y-95885000D01*
X181737000Y-95885000D01*
X181737000Y-94635750D01*
X181991000Y-94635750D01*
X181991000Y-95885000D01*
X183240250Y-95885000D01*
X183399000Y-95726250D01*
X183402072Y-95112000D01*
X183389812Y-94987518D01*
X183353502Y-94867820D01*
X183294537Y-94757506D01*
X183215185Y-94660815D01*
X183118494Y-94581463D01*
X183008180Y-94522498D01*
X182888482Y-94486188D01*
X182764000Y-94473928D01*
X182149750Y-94477000D01*
X181991000Y-94635750D01*
X181737000Y-94635750D01*
X181578250Y-94477000D01*
X180964000Y-94473928D01*
X180839518Y-94486188D01*
X180719820Y-94522498D01*
X180609506Y-94581463D01*
X180512815Y-94660815D01*
X180433463Y-94757506D01*
X180374498Y-94867820D01*
X180368944Y-94886127D01*
X180302505Y-94819688D01*
X180051095Y-94651701D01*
X179771743Y-94535989D01*
X179475184Y-94477000D01*
X179172816Y-94477000D01*
X178876257Y-94535989D01*
X178656538Y-94627000D01*
X175652699Y-94627000D01*
X175401335Y-94577000D01*
X175118665Y-94577000D01*
X174841426Y-94632147D01*
X174580273Y-94740320D01*
X174345241Y-94897363D01*
X174145363Y-95097241D01*
X173988320Y-95332273D01*
X173880147Y-95593426D01*
X173825000Y-95870665D01*
X169075000Y-95870665D01*
X169019853Y-95593426D01*
X168911680Y-95332273D01*
X168754637Y-95097241D01*
X168554759Y-94897363D01*
X168319727Y-94740320D01*
X168058574Y-94632147D01*
X167781335Y-94577000D01*
X167498665Y-94577000D01*
X167221426Y-94632147D01*
X167125210Y-94672001D01*
X165050355Y-94672001D01*
X165134011Y-94616104D01*
X165331104Y-94419011D01*
X165416539Y-94291148D01*
X169079241Y-90628447D01*
X169132080Y-90585083D01*
X169175445Y-90532243D01*
X169175452Y-90532236D01*
X169245932Y-90446355D01*
X169305157Y-90374190D01*
X169433764Y-90133583D01*
X169451538Y-90074991D01*
X169512960Y-89872510D01*
X169517882Y-89822537D01*
X169533000Y-89669039D01*
X169533000Y-89669031D01*
X169539700Y-89601002D01*
X169533000Y-89532973D01*
X169533000Y-88784699D01*
X169583000Y-88533335D01*
X169583000Y-88250665D01*
X174333000Y-88250665D01*
X174333000Y-88533335D01*
X174388147Y-88810574D01*
X174496320Y-89071727D01*
X174653363Y-89306759D01*
X174853241Y-89506637D01*
X175088273Y-89663680D01*
X175349426Y-89771853D01*
X175626665Y-89827000D01*
X175909335Y-89827000D01*
X176160699Y-89777000D01*
X178656538Y-89777000D01*
X178876257Y-89868011D01*
X179172816Y-89927000D01*
X179475184Y-89927000D01*
X179771743Y-89868011D01*
X180051095Y-89752299D01*
X180302505Y-89584312D01*
X180368944Y-89517873D01*
X180374498Y-89536180D01*
X180433463Y-89646494D01*
X180512815Y-89743185D01*
X180609506Y-89822537D01*
X180719820Y-89881502D01*
X180839518Y-89917812D01*
X180964000Y-89930072D01*
X181578250Y-89927000D01*
X181737000Y-89768250D01*
X181737000Y-88519000D01*
X181991000Y-88519000D01*
X181991000Y-89768250D01*
X182149750Y-89927000D01*
X182764000Y-89930072D01*
X182888482Y-89917812D01*
X183008180Y-89881502D01*
X183118494Y-89822537D01*
X183215185Y-89743185D01*
X183294537Y-89646494D01*
X183353502Y-89536180D01*
X183389812Y-89416482D01*
X183402072Y-89292000D01*
X183399000Y-88677750D01*
X183240250Y-88519000D01*
X181991000Y-88519000D01*
X181737000Y-88519000D01*
X181717000Y-88519000D01*
X181717000Y-88265000D01*
X181737000Y-88265000D01*
X181737000Y-87015750D01*
X181991000Y-87015750D01*
X181991000Y-88265000D01*
X183240250Y-88265000D01*
X183399000Y-88106250D01*
X183402072Y-87492000D01*
X183389812Y-87367518D01*
X183353502Y-87247820D01*
X183294537Y-87137506D01*
X183215185Y-87040815D01*
X183118494Y-86961463D01*
X183008180Y-86902498D01*
X182888482Y-86866188D01*
X182764000Y-86853928D01*
X182149750Y-86857000D01*
X181991000Y-87015750D01*
X181737000Y-87015750D01*
X181578250Y-86857000D01*
X180964000Y-86853928D01*
X180839518Y-86866188D01*
X180719820Y-86902498D01*
X180609506Y-86961463D01*
X180512815Y-87040815D01*
X180433463Y-87137506D01*
X180374498Y-87247820D01*
X180368944Y-87266127D01*
X180302505Y-87199688D01*
X180051095Y-87031701D01*
X179771743Y-86915989D01*
X179475184Y-86857000D01*
X179172816Y-86857000D01*
X178876257Y-86915989D01*
X178656538Y-87007000D01*
X176160699Y-87007000D01*
X175909335Y-86957000D01*
X175626665Y-86957000D01*
X175349426Y-87012147D01*
X175088273Y-87120320D01*
X174853241Y-87277363D01*
X174653363Y-87477241D01*
X174496320Y-87712273D01*
X174388147Y-87973426D01*
X174333000Y-88250665D01*
X169583000Y-88250665D01*
X169527853Y-87973426D01*
X169419680Y-87712273D01*
X169262637Y-87477241D01*
X169062759Y-87277363D01*
X168827727Y-87120320D01*
X168566574Y-87012147D01*
X168289335Y-86957000D01*
X168006665Y-86957000D01*
X167729426Y-87012147D01*
X167468273Y-87120320D01*
X167233241Y-87277363D01*
X167033363Y-87477241D01*
X166876320Y-87712273D01*
X166768147Y-87973426D01*
X166713000Y-88250665D01*
X166713000Y-88533335D01*
X166763000Y-88784699D01*
X166763000Y-89027316D01*
X165485001Y-90305315D01*
X165331104Y-90074991D01*
X165134011Y-89877898D01*
X164902255Y-89723044D01*
X164863524Y-89707001D01*
X164902255Y-89690958D01*
X165134011Y-89536104D01*
X165331104Y-89339011D01*
X165485958Y-89107255D01*
X165592624Y-88849741D01*
X165647001Y-88576366D01*
X165647001Y-88297636D01*
X165592624Y-88024261D01*
X165485958Y-87766747D01*
X165331104Y-87534991D01*
X165134011Y-87337898D01*
X164902255Y-87183044D01*
X164863524Y-87167001D01*
X164902255Y-87150958D01*
X165134011Y-86996104D01*
X165331104Y-86799011D01*
X165485958Y-86567255D01*
X165592624Y-86309741D01*
X165647001Y-86036366D01*
X165647001Y-85757636D01*
X165592624Y-85484261D01*
X165485958Y-85226747D01*
X165331104Y-84994991D01*
X165134011Y-84797898D01*
X164902255Y-84643044D01*
X164863524Y-84627001D01*
X164902255Y-84610958D01*
X165134011Y-84456104D01*
X165331104Y-84259011D01*
X165485958Y-84027255D01*
X165592624Y-83769741D01*
X165647001Y-83496366D01*
X165647001Y-83217636D01*
X165592624Y-82944261D01*
X165485958Y-82686747D01*
X165331104Y-82454991D01*
X165134011Y-82257898D01*
X164902255Y-82103044D01*
X164863524Y-82087001D01*
X164902255Y-82070958D01*
X165134011Y-81916104D01*
X165331104Y-81719011D01*
X165485958Y-81487255D01*
X165592624Y-81229741D01*
X165647001Y-80956366D01*
X165647001Y-80677636D01*
X165592624Y-80404261D01*
X165485958Y-80146747D01*
X165331104Y-79914991D01*
X165134011Y-79717898D01*
X164902255Y-79563044D01*
X164866476Y-79548224D01*
X164961656Y-79497350D01*
X165030817Y-79255422D01*
X164232001Y-78456606D01*
X163433185Y-79255422D01*
X163502346Y-79497350D01*
X163604280Y-79545426D01*
X163561747Y-79563044D01*
X163329991Y-79717898D01*
X163132898Y-79914991D01*
X162978044Y-80146747D01*
X162871378Y-80404261D01*
X162817001Y-80677636D01*
X162817001Y-80956366D01*
X162871378Y-81229741D01*
X162978044Y-81487255D01*
X163132898Y-81719011D01*
X163329991Y-81916104D01*
X163561747Y-82070958D01*
X163600478Y-82087001D01*
X163561747Y-82103044D01*
X163329991Y-82257898D01*
X163132898Y-82454991D01*
X162978044Y-82686747D01*
X162871378Y-82944261D01*
X162817001Y-83217636D01*
X162817001Y-83496366D01*
X162871378Y-83769741D01*
X162978044Y-84027255D01*
X163132898Y-84259011D01*
X163329991Y-84456104D01*
X163561747Y-84610958D01*
X163600478Y-84627001D01*
X163561747Y-84643044D01*
X163329991Y-84797898D01*
X163132898Y-84994991D01*
X162978044Y-85226747D01*
X162871378Y-85484261D01*
X162817001Y-85757636D01*
X162817001Y-86036366D01*
X162871378Y-86309741D01*
X162978044Y-86567255D01*
X163132898Y-86799011D01*
X163329991Y-86996104D01*
X163561747Y-87150958D01*
X163600478Y-87167001D01*
X163561747Y-87183044D01*
X163329991Y-87337898D01*
X163132898Y-87534991D01*
X162978044Y-87766747D01*
X162871378Y-88024261D01*
X162817001Y-88297636D01*
X162817001Y-88576366D01*
X162871378Y-88849741D01*
X162978044Y-89107255D01*
X163132898Y-89339011D01*
X163329991Y-89536104D01*
X163561747Y-89690958D01*
X163600478Y-89707001D01*
X163561747Y-89723044D01*
X163329991Y-89877898D01*
X163132898Y-90074991D01*
X162978044Y-90306747D01*
X162871378Y-90564261D01*
X162817001Y-90837636D01*
X162817001Y-91116366D01*
X162871378Y-91389741D01*
X162978044Y-91647255D01*
X163132898Y-91879011D01*
X163329991Y-92076104D01*
X163560315Y-92230001D01*
X163457854Y-92332463D01*
X163329991Y-92417898D01*
X163132898Y-92614991D01*
X162978044Y-92846747D01*
X162871378Y-93104261D01*
X162817001Y-93377636D01*
X162817001Y-93656366D01*
X162871378Y-93929741D01*
X162978044Y-94187255D01*
X163132898Y-94419011D01*
X163329991Y-94616104D01*
X163561747Y-94770958D01*
X163600478Y-94787001D01*
X163561747Y-94803044D01*
X163329991Y-94957898D01*
X163132898Y-95154991D01*
X162978044Y-95386747D01*
X162871378Y-95644261D01*
X162817001Y-95917636D01*
X162817001Y-96196366D01*
X162871378Y-96469741D01*
X162978044Y-96727255D01*
X163132898Y-96959011D01*
X163329991Y-97156104D01*
X163561747Y-97310958D01*
X163600478Y-97327001D01*
X163561747Y-97343044D01*
X163329991Y-97497898D01*
X163132898Y-97694991D01*
X162978044Y-97926747D01*
X162871378Y-98184261D01*
X162817001Y-98457636D01*
X162817001Y-98736366D01*
X162871378Y-99009741D01*
X162978044Y-99267255D01*
X163132898Y-99499011D01*
X163329991Y-99696104D01*
X163561747Y-99850958D01*
X163600478Y-99867001D01*
X163561747Y-99883044D01*
X163329991Y-100037898D01*
X163132898Y-100234991D01*
X162978044Y-100466747D01*
X162871378Y-100724261D01*
X162817001Y-100997636D01*
X162817001Y-101276366D01*
X162871378Y-101549741D01*
X162978044Y-101807255D01*
X163132898Y-102039011D01*
X163329991Y-102236104D01*
X163561747Y-102390958D01*
X163600478Y-102407001D01*
X163561747Y-102423044D01*
X163329991Y-102577898D01*
X163132898Y-102774991D01*
X162978044Y-103006747D01*
X162871378Y-103264261D01*
X162817001Y-103537636D01*
X162817001Y-103816366D01*
X162871378Y-104089741D01*
X162978044Y-104347255D01*
X163132898Y-104579011D01*
X163329991Y-104776104D01*
X163561747Y-104930958D01*
X163600478Y-104947001D01*
X163561747Y-104963044D01*
X163329991Y-105117898D01*
X163132898Y-105314991D01*
X162978044Y-105546747D01*
X162871378Y-105804261D01*
X162817001Y-106077636D01*
X162817001Y-106356366D01*
X162871378Y-106629741D01*
X162978044Y-106887255D01*
X163132898Y-107119011D01*
X163329991Y-107316104D01*
X163561747Y-107470958D01*
X163600478Y-107487001D01*
X163561747Y-107503044D01*
X163329991Y-107657898D01*
X163132898Y-107854991D01*
X162978044Y-108086747D01*
X162871378Y-108344261D01*
X162817001Y-108617636D01*
X162817001Y-108896366D01*
X162871378Y-109169741D01*
X162978044Y-109427255D01*
X163132898Y-109659011D01*
X163329991Y-109856104D01*
X163561747Y-110010958D01*
X163798441Y-110109000D01*
X139265561Y-110109000D01*
X139502255Y-110010958D01*
X139734011Y-109856104D01*
X139931104Y-109659011D01*
X140085958Y-109427255D01*
X140192624Y-109169741D01*
X140247001Y-108896366D01*
X140247001Y-108617636D01*
X140192624Y-108344261D01*
X140085958Y-108086747D01*
X139931104Y-107854991D01*
X139734011Y-107657898D01*
X139502255Y-107503044D01*
X139463524Y-107487001D01*
X139502255Y-107470958D01*
X139734011Y-107316104D01*
X139931104Y-107119011D01*
X140085958Y-106887255D01*
X140192624Y-106629741D01*
X140247001Y-106356366D01*
X140247001Y-106077636D01*
X140192624Y-105804261D01*
X140085958Y-105546747D01*
X139931104Y-105314991D01*
X139734011Y-105117898D01*
X139502255Y-104963044D01*
X139463524Y-104947001D01*
X139502255Y-104930958D01*
X139734011Y-104776104D01*
X139931104Y-104579011D01*
X140085958Y-104347255D01*
X140192624Y-104089741D01*
X140247001Y-103816366D01*
X140247001Y-103537636D01*
X140192624Y-103264261D01*
X140085958Y-103006747D01*
X139931104Y-102774991D01*
X139734011Y-102577898D01*
X139502255Y-102423044D01*
X139463524Y-102407001D01*
X139502255Y-102390958D01*
X139734011Y-102236104D01*
X139931104Y-102039011D01*
X140085958Y-101807255D01*
X140192624Y-101549741D01*
X140247001Y-101276366D01*
X140247001Y-100997636D01*
X140192624Y-100724261D01*
X140085958Y-100466747D01*
X139931104Y-100234991D01*
X139734011Y-100037898D01*
X139502255Y-99883044D01*
X139463524Y-99867001D01*
X139502255Y-99850958D01*
X139734011Y-99696104D01*
X139931104Y-99499011D01*
X140085958Y-99267255D01*
X140192624Y-99009741D01*
X140247001Y-98736366D01*
X140247001Y-98457636D01*
X140192624Y-98184261D01*
X140085958Y-97926747D01*
X139931104Y-97694991D01*
X139734011Y-97497898D01*
X139502255Y-97343044D01*
X139466476Y-97328224D01*
X139561656Y-97277350D01*
X139630817Y-97035422D01*
X138832001Y-96236606D01*
X138033185Y-97035422D01*
X138102346Y-97277350D01*
X138204280Y-97325426D01*
X138161747Y-97343044D01*
X137929991Y-97497898D01*
X137732898Y-97694991D01*
X137578044Y-97926747D01*
X137471378Y-98184261D01*
X137417001Y-98457636D01*
X137417001Y-98736366D01*
X137471378Y-99009741D01*
X137578044Y-99267255D01*
X137732898Y-99499011D01*
X137929991Y-99696104D01*
X138161747Y-99850958D01*
X138200478Y-99867001D01*
X138161747Y-99883044D01*
X137929991Y-100037898D01*
X137732898Y-100234991D01*
X137578044Y-100466747D01*
X137471378Y-100724261D01*
X137417001Y-100997636D01*
X137417001Y-101276366D01*
X137471378Y-101549741D01*
X137578044Y-101807255D01*
X137732898Y-102039011D01*
X137929991Y-102236104D01*
X138161747Y-102390958D01*
X138200478Y-102407001D01*
X138161747Y-102423044D01*
X137929991Y-102577898D01*
X137732898Y-102774991D01*
X137578044Y-103006747D01*
X137471378Y-103264261D01*
X137417001Y-103537636D01*
X137417001Y-103816366D01*
X137471378Y-104089741D01*
X137578044Y-104347255D01*
X137732898Y-104579011D01*
X137929991Y-104776104D01*
X138161747Y-104930958D01*
X138200478Y-104947001D01*
X138161747Y-104963044D01*
X137929991Y-105117898D01*
X137732898Y-105314991D01*
X137578044Y-105546747D01*
X137471378Y-105804261D01*
X137417001Y-106077636D01*
X137417001Y-106356366D01*
X137471378Y-106629741D01*
X137578044Y-106887255D01*
X137732898Y-107119011D01*
X137929991Y-107316104D01*
X137946298Y-107327000D01*
X134180026Y-107327000D01*
X134111999Y-107320300D01*
X134043972Y-107327000D01*
X134043963Y-107327000D01*
X133840493Y-107347040D01*
X133724815Y-107382130D01*
X133107452Y-106764767D01*
X133064081Y-106711919D01*
X132853188Y-106538843D01*
X132612581Y-106410236D01*
X132351507Y-106331040D01*
X132148037Y-106311000D01*
X132148029Y-106311000D01*
X132080000Y-106304300D01*
X132011971Y-106311000D01*
X129909000Y-106311000D01*
X129909000Y-103493000D01*
X129979971Y-103493000D01*
X130048000Y-103499700D01*
X130116029Y-103493000D01*
X130116037Y-103493000D01*
X130319507Y-103472960D01*
X130580581Y-103393764D01*
X130821188Y-103265157D01*
X131032081Y-103092081D01*
X131075455Y-103039230D01*
X131487231Y-102627453D01*
X131540080Y-102584081D01*
X131713157Y-102373188D01*
X131841764Y-102132581D01*
X131920960Y-101871507D01*
X131941000Y-101668037D01*
X131941000Y-101668028D01*
X131947700Y-101600001D01*
X131941000Y-101531974D01*
X131941000Y-96389476D01*
X132080625Y-96447310D01*
X132219001Y-96585686D01*
X132219000Y-101207301D01*
X132169000Y-101458665D01*
X132169000Y-101741335D01*
X132224147Y-102018574D01*
X132332320Y-102279727D01*
X132489363Y-102514759D01*
X132689241Y-102714637D01*
X132924273Y-102871680D01*
X133185426Y-102979853D01*
X133462665Y-103035000D01*
X133745335Y-103035000D01*
X134022574Y-102979853D01*
X134283727Y-102871680D01*
X134518759Y-102714637D01*
X134718637Y-102514759D01*
X134875680Y-102279727D01*
X134983853Y-102018574D01*
X135039000Y-101741335D01*
X135039000Y-101458665D01*
X134989000Y-101207301D01*
X134989000Y-96128304D01*
X137411944Y-96128304D01*
X137453141Y-96403973D01*
X137547326Y-96666309D01*
X137611652Y-96786656D01*
X137853580Y-96855817D01*
X138652396Y-96057001D01*
X139011606Y-96057001D01*
X139810422Y-96855817D01*
X140052350Y-96786656D01*
X140171249Y-96534558D01*
X140238682Y-96264107D01*
X140252058Y-95985698D01*
X140210861Y-95710029D01*
X140116676Y-95447693D01*
X140052350Y-95327346D01*
X139810422Y-95258185D01*
X139011606Y-96057001D01*
X138652396Y-96057001D01*
X137853580Y-95258185D01*
X137611652Y-95327346D01*
X137492753Y-95579444D01*
X137425320Y-95849895D01*
X137411944Y-96128304D01*
X134989000Y-96128304D01*
X134989000Y-96080029D01*
X134995700Y-96012000D01*
X134989000Y-95943971D01*
X134989000Y-95943963D01*
X134968960Y-95740493D01*
X134964640Y-95726250D01*
X134889764Y-95479419D01*
X134785794Y-95284905D01*
X134761157Y-95238812D01*
X134657085Y-95112000D01*
X134631452Y-95080766D01*
X134631450Y-95080764D01*
X134588081Y-95027919D01*
X134535236Y-94984550D01*
X134039310Y-94488625D01*
X133948299Y-94268905D01*
X133780312Y-94017495D01*
X133713873Y-93951056D01*
X133732180Y-93945502D01*
X133842494Y-93886537D01*
X133939185Y-93807185D01*
X134018537Y-93710494D01*
X134077502Y-93600180D01*
X134113812Y-93480482D01*
X134126072Y-93356000D01*
X134123000Y-92741750D01*
X133964250Y-92583000D01*
X132715000Y-92583000D01*
X132715000Y-92603000D01*
X132461000Y-92603000D01*
X132461000Y-92583000D01*
X131211750Y-92583000D01*
X131053000Y-92741750D01*
X131049928Y-93356000D01*
X131062188Y-93480482D01*
X131098498Y-93600180D01*
X131157463Y-93710494D01*
X131236815Y-93807185D01*
X131333506Y-93886537D01*
X131443820Y-93945502D01*
X131462127Y-93951056D01*
X131395688Y-94017495D01*
X131248485Y-94237799D01*
X129909000Y-92898315D01*
X129909000Y-91556000D01*
X131049928Y-91556000D01*
X131053000Y-92170250D01*
X131211750Y-92329000D01*
X132461000Y-92329000D01*
X132461000Y-91079750D01*
X132715000Y-91079750D01*
X132715000Y-92329000D01*
X133964250Y-92329000D01*
X134123000Y-92170250D01*
X134126072Y-91556000D01*
X134113812Y-91431518D01*
X134077502Y-91311820D01*
X134018537Y-91201506D01*
X133939185Y-91104815D01*
X133842494Y-91025463D01*
X133732180Y-90966498D01*
X133612482Y-90930188D01*
X133488000Y-90917928D01*
X132873750Y-90921000D01*
X132715000Y-91079750D01*
X132461000Y-91079750D01*
X132302250Y-90921000D01*
X131688000Y-90917928D01*
X131563518Y-90930188D01*
X131443820Y-90966498D01*
X131333506Y-91025463D01*
X131236815Y-91104815D01*
X131157463Y-91201506D01*
X131098498Y-91311820D01*
X131062188Y-91431518D01*
X131049928Y-91556000D01*
X129909000Y-91556000D01*
X129909000Y-84697000D01*
X130375856Y-84697000D01*
X130477820Y-84751502D01*
X130597518Y-84787812D01*
X130722000Y-84800072D01*
X132422000Y-84800072D01*
X132546482Y-84787812D01*
X132666180Y-84751502D01*
X132768144Y-84697000D01*
X133931856Y-84697000D01*
X134033820Y-84751502D01*
X134153518Y-84787812D01*
X134278000Y-84800072D01*
X135978000Y-84800072D01*
X136102482Y-84787812D01*
X136222180Y-84751502D01*
X136332494Y-84692537D01*
X136429185Y-84613185D01*
X136508537Y-84516494D01*
X136567502Y-84406180D01*
X136603812Y-84286482D01*
X136616072Y-84162000D01*
X136616072Y-82462000D01*
X136603812Y-82337518D01*
X136567502Y-82217820D01*
X136508537Y-82107506D01*
X136429185Y-82010815D01*
X136332494Y-81931463D01*
X136222180Y-81872498D01*
X136141534Y-81848034D01*
X136225588Y-81772269D01*
X136399641Y-81538920D01*
X136524825Y-81276099D01*
X136569476Y-81128890D01*
X136448155Y-80899000D01*
X135255000Y-80899000D01*
X135255000Y-80919000D01*
X135001000Y-80919000D01*
X135001000Y-80899000D01*
X133807845Y-80899000D01*
X133686524Y-81128890D01*
X133731175Y-81276099D01*
X133856359Y-81538920D01*
X134030412Y-81772269D01*
X134114466Y-81848034D01*
X134033820Y-81872498D01*
X133931856Y-81927000D01*
X132768144Y-81927000D01*
X132666180Y-81872498D01*
X132585534Y-81848034D01*
X132669588Y-81772269D01*
X132843641Y-81538920D01*
X132968825Y-81276099D01*
X133013476Y-81128890D01*
X132892155Y-80899000D01*
X131699000Y-80899000D01*
X131699000Y-80919000D01*
X131445000Y-80919000D01*
X131445000Y-80899000D01*
X130251845Y-80899000D01*
X130130524Y-81128890D01*
X130175175Y-81276099D01*
X130300359Y-81538920D01*
X130474412Y-81772269D01*
X130558466Y-81848034D01*
X130477820Y-81872498D01*
X130375856Y-81927000D01*
X129097685Y-81927000D01*
X127369000Y-80198315D01*
X127369000Y-72302000D01*
X130083928Y-72302000D01*
X130083928Y-74002000D01*
X130096188Y-74126482D01*
X130132498Y-74246180D01*
X130191463Y-74356494D01*
X130270815Y-74453185D01*
X130367506Y-74532537D01*
X130477820Y-74591502D01*
X130597518Y-74627812D01*
X130722000Y-74640072D01*
X131696423Y-74640072D01*
X131660107Y-74669876D01*
X131611765Y-74709549D01*
X131611763Y-74709551D01*
X131558918Y-74752920D01*
X131515549Y-74805765D01*
X130640764Y-75680551D01*
X130587920Y-75723919D01*
X130544551Y-75776764D01*
X130544548Y-75776767D01*
X130414844Y-75934812D01*
X130286236Y-76175420D01*
X130215909Y-76407255D01*
X130207040Y-76436493D01*
X130187000Y-76639963D01*
X130187000Y-76639971D01*
X130180300Y-76708000D01*
X130187000Y-76776029D01*
X130187000Y-77695195D01*
X130144068Y-77798842D01*
X130087000Y-78085740D01*
X130087000Y-78378260D01*
X130144068Y-78665158D01*
X130256010Y-78935411D01*
X130418525Y-79178632D01*
X130625368Y-79385475D01*
X130807534Y-79507195D01*
X130690645Y-79576822D01*
X130474412Y-79771731D01*
X130300359Y-80005080D01*
X130175175Y-80267901D01*
X130130524Y-80415110D01*
X130251845Y-80645000D01*
X131445000Y-80645000D01*
X131445000Y-80625000D01*
X131699000Y-80625000D01*
X131699000Y-80645000D01*
X132892155Y-80645000D01*
X133013476Y-80415110D01*
X132968825Y-80267901D01*
X132843641Y-80005080D01*
X132669588Y-79771731D01*
X132453355Y-79576822D01*
X132336466Y-79507195D01*
X132518632Y-79385475D01*
X132725475Y-79178632D01*
X132887990Y-78935411D01*
X132999932Y-78665158D01*
X133057000Y-78378260D01*
X133057000Y-78085740D01*
X132999932Y-77798842D01*
X132957000Y-77695195D01*
X132957000Y-77281685D01*
X133116685Y-77122001D01*
X134137892Y-77122001D01*
X133974525Y-77285368D01*
X133812010Y-77528589D01*
X133700068Y-77798842D01*
X133643000Y-78085740D01*
X133643000Y-78378260D01*
X133700068Y-78665158D01*
X133812010Y-78935411D01*
X133974525Y-79178632D01*
X134181368Y-79385475D01*
X134363534Y-79507195D01*
X134246645Y-79576822D01*
X134030412Y-79771731D01*
X133856359Y-80005080D01*
X133731175Y-80267901D01*
X133686524Y-80415110D01*
X133807845Y-80645000D01*
X135001000Y-80645000D01*
X135001000Y-80625000D01*
X135255000Y-80625000D01*
X135255000Y-80645000D01*
X136448155Y-80645000D01*
X136569476Y-80415110D01*
X136524825Y-80267901D01*
X136399641Y-80005080D01*
X136225588Y-79771731D01*
X136103853Y-79662001D01*
X138013647Y-79662001D01*
X137929991Y-79717898D01*
X137732898Y-79914991D01*
X137578044Y-80146747D01*
X137471378Y-80404261D01*
X137417001Y-80677636D01*
X137417001Y-80956366D01*
X137471378Y-81229741D01*
X137578044Y-81487255D01*
X137732898Y-81719011D01*
X137929991Y-81916104D01*
X138161747Y-82070958D01*
X138200478Y-82087001D01*
X138161747Y-82103044D01*
X137929991Y-82257898D01*
X137732898Y-82454991D01*
X137578044Y-82686747D01*
X137471378Y-82944261D01*
X137417001Y-83217636D01*
X137417001Y-83496366D01*
X137471378Y-83769741D01*
X137578044Y-84027255D01*
X137732898Y-84259011D01*
X137929991Y-84456104D01*
X138161747Y-84610958D01*
X138200478Y-84627001D01*
X138161747Y-84643044D01*
X137929991Y-84797898D01*
X137732898Y-84994991D01*
X137578044Y-85226747D01*
X137471378Y-85484261D01*
X137417001Y-85757636D01*
X137417001Y-86036366D01*
X137471378Y-86309741D01*
X137578044Y-86567255D01*
X137732898Y-86799011D01*
X137929991Y-86996104D01*
X138161747Y-87150958D01*
X138200478Y-87167001D01*
X138161747Y-87183044D01*
X137929991Y-87337898D01*
X137732898Y-87534991D01*
X137578044Y-87766747D01*
X137471378Y-88024261D01*
X137417001Y-88297636D01*
X137417001Y-88576366D01*
X137471378Y-88849741D01*
X137578044Y-89107255D01*
X137732898Y-89339011D01*
X137929991Y-89536104D01*
X138161747Y-89690958D01*
X138200478Y-89707001D01*
X138161747Y-89723044D01*
X137929991Y-89877898D01*
X137732898Y-90074991D01*
X137578044Y-90306747D01*
X137471378Y-90564261D01*
X137417001Y-90837636D01*
X137417001Y-91116366D01*
X137471378Y-91389741D01*
X137578044Y-91647255D01*
X137732898Y-91879011D01*
X137929991Y-92076104D01*
X138161747Y-92230958D01*
X138200478Y-92247001D01*
X138161747Y-92263044D01*
X137929991Y-92417898D01*
X137732898Y-92614991D01*
X137578044Y-92846747D01*
X137471378Y-93104261D01*
X137417001Y-93377636D01*
X137417001Y-93656366D01*
X137471378Y-93929741D01*
X137578044Y-94187255D01*
X137732898Y-94419011D01*
X137929991Y-94616104D01*
X138161747Y-94770958D01*
X138197526Y-94785778D01*
X138102346Y-94836652D01*
X138033185Y-95078580D01*
X138832001Y-95877396D01*
X139630817Y-95078580D01*
X139561656Y-94836652D01*
X139459722Y-94788576D01*
X139502255Y-94770958D01*
X139734011Y-94616104D01*
X139931104Y-94419011D01*
X140085958Y-94187255D01*
X140192624Y-93929741D01*
X140247001Y-93656366D01*
X140247001Y-93377636D01*
X140192624Y-93104261D01*
X140085958Y-92846747D01*
X139931104Y-92614991D01*
X139734011Y-92417898D01*
X139502255Y-92263044D01*
X139463524Y-92247001D01*
X139502255Y-92230958D01*
X139734011Y-92076104D01*
X139931104Y-91879011D01*
X140085958Y-91647255D01*
X140192624Y-91389741D01*
X140247001Y-91116366D01*
X140247001Y-90837636D01*
X140192624Y-90564261D01*
X140085958Y-90306747D01*
X139931104Y-90074991D01*
X139734011Y-89877898D01*
X139502255Y-89723044D01*
X139463524Y-89707001D01*
X139502255Y-89690958D01*
X139734011Y-89536104D01*
X139931104Y-89339011D01*
X140085958Y-89107255D01*
X140192624Y-88849741D01*
X140247001Y-88576366D01*
X140247001Y-88297636D01*
X140192624Y-88024261D01*
X140085958Y-87766747D01*
X139931104Y-87534991D01*
X139734011Y-87337898D01*
X139502255Y-87183044D01*
X139463524Y-87167001D01*
X139502255Y-87150958D01*
X139734011Y-86996104D01*
X139931104Y-86799011D01*
X140085958Y-86567255D01*
X140192624Y-86309741D01*
X140247001Y-86036366D01*
X140247001Y-85757636D01*
X140192624Y-85484261D01*
X140085958Y-85226747D01*
X139931104Y-84994991D01*
X139734011Y-84797898D01*
X139502255Y-84643044D01*
X139463524Y-84627001D01*
X139502255Y-84610958D01*
X139734011Y-84456104D01*
X139931104Y-84259011D01*
X140085958Y-84027255D01*
X140192624Y-83769741D01*
X140247001Y-83496366D01*
X140247001Y-83217636D01*
X140192624Y-82944261D01*
X140085958Y-82686747D01*
X139931104Y-82454991D01*
X139734011Y-82257898D01*
X139502255Y-82103044D01*
X139463524Y-82087001D01*
X139502255Y-82070958D01*
X139734011Y-81916104D01*
X139931104Y-81719011D01*
X140085958Y-81487255D01*
X140192624Y-81229741D01*
X140247001Y-80956366D01*
X140247001Y-80677636D01*
X140192624Y-80404261D01*
X140085958Y-80146747D01*
X139931104Y-79914991D01*
X139734011Y-79717898D01*
X139502255Y-79563044D01*
X139463524Y-79547001D01*
X139502255Y-79530958D01*
X139734011Y-79376104D01*
X139931104Y-79179011D01*
X140085958Y-78947255D01*
X140192624Y-78689741D01*
X140247001Y-78416366D01*
X140247001Y-78348304D01*
X162811944Y-78348304D01*
X162853141Y-78623973D01*
X162947326Y-78886309D01*
X163011652Y-79006656D01*
X163253580Y-79075817D01*
X164052396Y-78277001D01*
X164411606Y-78277001D01*
X165210422Y-79075817D01*
X165452350Y-79006656D01*
X165571249Y-78754558D01*
X165638682Y-78484107D01*
X165652058Y-78205698D01*
X165610861Y-77930029D01*
X165516676Y-77667693D01*
X165452350Y-77547346D01*
X165210422Y-77478185D01*
X164411606Y-78277001D01*
X164052396Y-78277001D01*
X163253580Y-77478185D01*
X163011652Y-77547346D01*
X162892753Y-77799444D01*
X162825320Y-78069895D01*
X162811944Y-78348304D01*
X140247001Y-78348304D01*
X140247001Y-78137636D01*
X140192624Y-77864261D01*
X140085958Y-77606747D01*
X139931104Y-77374991D01*
X139734011Y-77177898D01*
X139502255Y-77023044D01*
X139463524Y-77007001D01*
X139502255Y-76990958D01*
X139734011Y-76836104D01*
X139931104Y-76639011D01*
X140085958Y-76407255D01*
X140192624Y-76149741D01*
X140247001Y-75876366D01*
X140247001Y-75597636D01*
X140192624Y-75324261D01*
X140085958Y-75066747D01*
X139931104Y-74834991D01*
X139734011Y-74637898D01*
X139502255Y-74483044D01*
X139463524Y-74467001D01*
X139502255Y-74450958D01*
X139734011Y-74296104D01*
X139931104Y-74099011D01*
X140085958Y-73867255D01*
X140192624Y-73609741D01*
X140247001Y-73336366D01*
X140247001Y-73057636D01*
X140192624Y-72784261D01*
X140085958Y-72526747D01*
X139931104Y-72294991D01*
X139734011Y-72097898D01*
X139502255Y-71943044D01*
X139463524Y-71927001D01*
X139502255Y-71910958D01*
X139734011Y-71756104D01*
X139931104Y-71559011D01*
X140085958Y-71327255D01*
X140192624Y-71069741D01*
X140247001Y-70796366D01*
X140247001Y-70517636D01*
X140192624Y-70244261D01*
X140085958Y-69986747D01*
X139931104Y-69754991D01*
X139734011Y-69557898D01*
X139502255Y-69403044D01*
X139463524Y-69387001D01*
X139502255Y-69370958D01*
X139734011Y-69216104D01*
X139931104Y-69019011D01*
X140085958Y-68787255D01*
X140192624Y-68529741D01*
X140247001Y-68256366D01*
X140247001Y-67977636D01*
X140192624Y-67704261D01*
X140085958Y-67446747D01*
X139931104Y-67214991D01*
X139734011Y-67017898D01*
X139502255Y-66863044D01*
X139463524Y-66847001D01*
X139502255Y-66830958D01*
X139734011Y-66676104D01*
X139931104Y-66479011D01*
X140085958Y-66247255D01*
X140192624Y-65989741D01*
X140247001Y-65716366D01*
X140247001Y-65437636D01*
X162817001Y-65437636D01*
X162817001Y-65716366D01*
X162871378Y-65989741D01*
X162978044Y-66247255D01*
X163132898Y-66479011D01*
X163329991Y-66676104D01*
X163561747Y-66830958D01*
X163600478Y-66847001D01*
X163561747Y-66863044D01*
X163329991Y-67017898D01*
X163132898Y-67214991D01*
X162978044Y-67446747D01*
X162871378Y-67704261D01*
X162817001Y-67977636D01*
X162817001Y-68256366D01*
X162871378Y-68529741D01*
X162978044Y-68787255D01*
X163132898Y-69019011D01*
X163329991Y-69216104D01*
X163561747Y-69370958D01*
X163600478Y-69387001D01*
X163561747Y-69403044D01*
X163329991Y-69557898D01*
X163132898Y-69754991D01*
X162978044Y-69986747D01*
X162871378Y-70244261D01*
X162817001Y-70517636D01*
X162817001Y-70796366D01*
X162871378Y-71069741D01*
X162978044Y-71327255D01*
X163132898Y-71559011D01*
X163329991Y-71756104D01*
X163561747Y-71910958D01*
X163600478Y-71927001D01*
X163561747Y-71943044D01*
X163329991Y-72097898D01*
X163132898Y-72294991D01*
X162978044Y-72526747D01*
X162871378Y-72784261D01*
X162817001Y-73057636D01*
X162817001Y-73336366D01*
X162871378Y-73609741D01*
X162978044Y-73867255D01*
X163132898Y-74099011D01*
X163329991Y-74296104D01*
X163561747Y-74450958D01*
X163600478Y-74467001D01*
X163561747Y-74483044D01*
X163329991Y-74637898D01*
X163132898Y-74834991D01*
X162978044Y-75066747D01*
X162871378Y-75324261D01*
X162817001Y-75597636D01*
X162817001Y-75876366D01*
X162871378Y-76149741D01*
X162978044Y-76407255D01*
X163132898Y-76639011D01*
X163329991Y-76836104D01*
X163561747Y-76990958D01*
X163597526Y-77005778D01*
X163502346Y-77056652D01*
X163433185Y-77298580D01*
X164232001Y-78097396D01*
X165030817Y-77298580D01*
X164961656Y-77056652D01*
X164859722Y-77008576D01*
X164902255Y-76990958D01*
X165134011Y-76836104D01*
X165331104Y-76639011D01*
X165485958Y-76407255D01*
X165592624Y-76149741D01*
X165647001Y-75876366D01*
X165647001Y-75597636D01*
X165592624Y-75324261D01*
X165485958Y-75066747D01*
X165331104Y-74834991D01*
X165134011Y-74637898D01*
X164902255Y-74483044D01*
X164863524Y-74467001D01*
X164902255Y-74450958D01*
X165134011Y-74296104D01*
X165331104Y-74099011D01*
X165485958Y-73867255D01*
X165592624Y-73609741D01*
X165647001Y-73336366D01*
X165647001Y-73057636D01*
X165592624Y-72784261D01*
X165485958Y-72526747D01*
X165331104Y-72294991D01*
X165134011Y-72097898D01*
X164902255Y-71943044D01*
X164863524Y-71927001D01*
X164902255Y-71910958D01*
X165134011Y-71756104D01*
X165331104Y-71559011D01*
X165485958Y-71327255D01*
X165592624Y-71069741D01*
X165647001Y-70796366D01*
X165647001Y-70517636D01*
X165592624Y-70244261D01*
X165485958Y-69986747D01*
X165331104Y-69754991D01*
X165134011Y-69557898D01*
X164902255Y-69403044D01*
X164863524Y-69387001D01*
X164902255Y-69370958D01*
X165134011Y-69216104D01*
X165331104Y-69019011D01*
X165485958Y-68787255D01*
X165592624Y-68529741D01*
X165647001Y-68256366D01*
X165647001Y-67977636D01*
X165592624Y-67704261D01*
X165485958Y-67446747D01*
X165331104Y-67214991D01*
X165134011Y-67017898D01*
X164902255Y-66863044D01*
X164863524Y-66847001D01*
X164902255Y-66830958D01*
X165134011Y-66676104D01*
X165331104Y-66479011D01*
X165485958Y-66247255D01*
X165592624Y-65989741D01*
X165647001Y-65716366D01*
X165647001Y-65437636D01*
X165592624Y-65164261D01*
X165485958Y-64906747D01*
X165331104Y-64674991D01*
X165134011Y-64477898D01*
X164902255Y-64323044D01*
X164866476Y-64308224D01*
X164961656Y-64257350D01*
X165030817Y-64015422D01*
X164232001Y-63216606D01*
X163433185Y-64015422D01*
X163502346Y-64257350D01*
X163604280Y-64305426D01*
X163561747Y-64323044D01*
X163329991Y-64477898D01*
X163132898Y-64674991D01*
X162978044Y-64906747D01*
X162871378Y-65164261D01*
X162817001Y-65437636D01*
X140247001Y-65437636D01*
X140192624Y-65164261D01*
X140085958Y-64906747D01*
X139931104Y-64674991D01*
X139734011Y-64477898D01*
X139688565Y-64447532D01*
X139736483Y-64442813D01*
X139856181Y-64406503D01*
X139966495Y-64347538D01*
X140063186Y-64268186D01*
X140142538Y-64171495D01*
X140201503Y-64061181D01*
X140237813Y-63941483D01*
X140250073Y-63817001D01*
X140250073Y-63108304D01*
X162811944Y-63108304D01*
X162853141Y-63383973D01*
X162947326Y-63646309D01*
X163011652Y-63766656D01*
X163253580Y-63835817D01*
X164052396Y-63037001D01*
X164411606Y-63037001D01*
X165210422Y-63835817D01*
X165452350Y-63766656D01*
X165571249Y-63514558D01*
X165638682Y-63244107D01*
X165652058Y-62965698D01*
X165610861Y-62690029D01*
X165516676Y-62427693D01*
X165452350Y-62307346D01*
X165210422Y-62238185D01*
X164411606Y-63037001D01*
X164052396Y-63037001D01*
X163253580Y-62238185D01*
X163011652Y-62307346D01*
X162892753Y-62559444D01*
X162825320Y-62829895D01*
X162811944Y-63108304D01*
X140250073Y-63108304D01*
X140250073Y-62257001D01*
X140237813Y-62132519D01*
X140215384Y-62058580D01*
X163433185Y-62058580D01*
X164232001Y-62857396D01*
X165030817Y-62058580D01*
X164961656Y-61816652D01*
X164709558Y-61697753D01*
X164439107Y-61630320D01*
X164160698Y-61616944D01*
X163885029Y-61658141D01*
X163622693Y-61752326D01*
X163502346Y-61816652D01*
X163433185Y-62058580D01*
X140215384Y-62058580D01*
X140201503Y-62012821D01*
X140142538Y-61902507D01*
X140063186Y-61805816D01*
X139966495Y-61726464D01*
X139856181Y-61667499D01*
X139736483Y-61631189D01*
X139612001Y-61618929D01*
X138052001Y-61618929D01*
X137927519Y-61631189D01*
X137807821Y-61667499D01*
X137697507Y-61726464D01*
X137600816Y-61805816D01*
X137521464Y-61902507D01*
X137462499Y-62012821D01*
X137426189Y-62132519D01*
X137413929Y-62257001D01*
X137413929Y-63817001D01*
X137426189Y-63941483D01*
X137462499Y-64061181D01*
X137521464Y-64171495D01*
X137600816Y-64268186D01*
X137697507Y-64347538D01*
X137807821Y-64406503D01*
X137927519Y-64442813D01*
X137975437Y-64447532D01*
X137929991Y-64477898D01*
X137732898Y-64674991D01*
X137578044Y-64906747D01*
X137471378Y-65164261D01*
X137417001Y-65437636D01*
X137417001Y-65716366D01*
X137471378Y-65989741D01*
X137578044Y-66247255D01*
X137732898Y-66479011D01*
X137929991Y-66676104D01*
X138161747Y-66830958D01*
X138200478Y-66847001D01*
X138161747Y-66863044D01*
X137929991Y-67017898D01*
X137732898Y-67214991D01*
X137578044Y-67446747D01*
X137471378Y-67704261D01*
X137417001Y-67977636D01*
X137417001Y-68256366D01*
X137471378Y-68529741D01*
X137578044Y-68787255D01*
X137732898Y-69019011D01*
X137929991Y-69216104D01*
X138161747Y-69370958D01*
X138200478Y-69387001D01*
X138161747Y-69403044D01*
X137929991Y-69557898D01*
X137732898Y-69754991D01*
X137578044Y-69986747D01*
X137471378Y-70244261D01*
X137417001Y-70517636D01*
X137417001Y-70796366D01*
X137471378Y-71069741D01*
X137578044Y-71327255D01*
X137732898Y-71559011D01*
X137929991Y-71756104D01*
X138013647Y-71812001D01*
X132825890Y-71812001D01*
X132776494Y-71771463D01*
X132666180Y-71712498D01*
X132585534Y-71688034D01*
X132669588Y-71612269D01*
X132843641Y-71378920D01*
X132968825Y-71116099D01*
X133013476Y-70968890D01*
X132892155Y-70739000D01*
X131699000Y-70739000D01*
X131699000Y-70759000D01*
X131445000Y-70759000D01*
X131445000Y-70739000D01*
X130251845Y-70739000D01*
X130130524Y-70968890D01*
X130175175Y-71116099D01*
X130300359Y-71378920D01*
X130474412Y-71612269D01*
X130558466Y-71688034D01*
X130477820Y-71712498D01*
X130367506Y-71771463D01*
X130270815Y-71850815D01*
X130191463Y-71947506D01*
X130132498Y-72057820D01*
X130096188Y-72177518D01*
X130083928Y-72302000D01*
X127369000Y-72302000D01*
X127369000Y-70169685D01*
X128081685Y-69457000D01*
X130646071Y-69457000D01*
X130474412Y-69611731D01*
X130300359Y-69845080D01*
X130175175Y-70107901D01*
X130130524Y-70255110D01*
X130251845Y-70485000D01*
X131445000Y-70485000D01*
X131445000Y-70465000D01*
X131699000Y-70465000D01*
X131699000Y-70485000D01*
X132892155Y-70485000D01*
X133013476Y-70255110D01*
X132968825Y-70107901D01*
X132843641Y-69845080D01*
X132669588Y-69611731D01*
X132453355Y-69416822D01*
X132336466Y-69347195D01*
X132518632Y-69225475D01*
X132725475Y-69018632D01*
X132887990Y-68775411D01*
X132999932Y-68505158D01*
X133057000Y-68218260D01*
X133057000Y-67925740D01*
X132999932Y-67638842D01*
X132887990Y-67368589D01*
X132725475Y-67125368D01*
X132518632Y-66918525D01*
X132275411Y-66756010D01*
X132005158Y-66644068D01*
X131718260Y-66587000D01*
X131425740Y-66587000D01*
X131138842Y-66644068D01*
X131035195Y-66687000D01*
X127576026Y-66687000D01*
X127507999Y-66680300D01*
X127439972Y-66687000D01*
X127439963Y-66687000D01*
X127236493Y-66707040D01*
X126975419Y-66786236D01*
X126734812Y-66914843D01*
X126523919Y-67087919D01*
X126480546Y-67140769D01*
X125052765Y-68568550D01*
X124999920Y-68611919D01*
X124956551Y-68664764D01*
X124956548Y-68664767D01*
X124826844Y-68822812D01*
X124698236Y-69063420D01*
X124619040Y-69324493D01*
X124592300Y-69596000D01*
X124599001Y-69664039D01*
X124599000Y-80703971D01*
X124592300Y-80772000D01*
X124599000Y-80840029D01*
X124599000Y-80840036D01*
X124619040Y-81043506D01*
X124698236Y-81304580D01*
X124826843Y-81545187D01*
X124999919Y-81756080D01*
X125052765Y-81799450D01*
X127139001Y-83885686D01*
X127139000Y-93403971D01*
X127132300Y-93472000D01*
X127139000Y-93540029D01*
X127139000Y-93540036D01*
X127159040Y-93743506D01*
X127238236Y-94004580D01*
X127366843Y-94245187D01*
X127539919Y-94456080D01*
X127592765Y-94499450D01*
X129171001Y-96077687D01*
X129171001Y-98326608D01*
X129010004Y-98250429D01*
X128735816Y-98181700D01*
X128453488Y-98167783D01*
X128173870Y-98209213D01*
X127907708Y-98304397D01*
X127782486Y-98371329D01*
X127710903Y-98615298D01*
X128524000Y-99428395D01*
X128538143Y-99414253D01*
X128717748Y-99593858D01*
X128703605Y-99608000D01*
X128717748Y-99622143D01*
X128538143Y-99801748D01*
X128524000Y-99787605D01*
X127710903Y-100600702D01*
X127731215Y-100669928D01*
X127724000Y-100669928D01*
X127599518Y-100682188D01*
X127479820Y-100718498D01*
X127369506Y-100777463D01*
X127272815Y-100856815D01*
X127193463Y-100953506D01*
X127134498Y-101063820D01*
X127098188Y-101183518D01*
X127085928Y-101308000D01*
X127085928Y-102908000D01*
X127098188Y-103032482D01*
X127134498Y-103152180D01*
X127139001Y-103160604D01*
X127139000Y-106568990D01*
X127093437Y-106514685D01*
X126850923Y-106320031D01*
X126575094Y-106176429D01*
X126356980Y-106105437D01*
X126111000Y-106225406D01*
X126111000Y-107569000D01*
X126131000Y-107569000D01*
X126131000Y-107823000D01*
X126111000Y-107823000D01*
X126111000Y-109166594D01*
X126356980Y-109286563D01*
X126575094Y-109215571D01*
X126850923Y-109071969D01*
X127093437Y-108877315D01*
X127248837Y-108692101D01*
X127396037Y-108871463D01*
X127637766Y-109069845D01*
X127913552Y-109217255D01*
X128212797Y-109308030D01*
X128524000Y-109338681D01*
X128835204Y-109308030D01*
X129134449Y-109217255D01*
X129389365Y-109081000D01*
X131506315Y-109081000D01*
X132346975Y-109921660D01*
X132472151Y-110109000D01*
X115697494Y-110109000D01*
X115769249Y-91629000D01*
X116863928Y-91629000D01*
X116863928Y-93379000D01*
X116893001Y-93674186D01*
X116979104Y-93958028D01*
X117118927Y-94219618D01*
X117307097Y-94448903D01*
X117536382Y-94637073D01*
X117797972Y-94776896D01*
X118081814Y-94862999D01*
X118377000Y-94892072D01*
X120065242Y-94892072D01*
X118448765Y-96508550D01*
X118395919Y-96551920D01*
X118222843Y-96762813D01*
X118143101Y-96912000D01*
X118094236Y-97003420D01*
X118024885Y-97232041D01*
X118015040Y-97264494D01*
X117995000Y-97467964D01*
X117995000Y-97467971D01*
X117988300Y-97536000D01*
X117995000Y-97604029D01*
X117995001Y-100515961D01*
X117988300Y-100584000D01*
X118015040Y-100855507D01*
X118094236Y-101116580D01*
X118222844Y-101357188D01*
X118352548Y-101515233D01*
X118352551Y-101515236D01*
X118395920Y-101568081D01*
X118448765Y-101611450D01*
X119876546Y-103039231D01*
X119919919Y-103092081D01*
X120130812Y-103265157D01*
X120371419Y-103393764D01*
X120632493Y-103472960D01*
X120835963Y-103493000D01*
X120835972Y-103493000D01*
X120903999Y-103499700D01*
X120972026Y-103493000D01*
X121551000Y-103493000D01*
X121551001Y-107119961D01*
X121544300Y-107188000D01*
X121571040Y-107459507D01*
X121650236Y-107720580D01*
X121778844Y-107961188D01*
X121853428Y-108052069D01*
X121853428Y-108696000D01*
X121865688Y-108820482D01*
X121901998Y-108940180D01*
X121960963Y-109050494D01*
X122040315Y-109147185D01*
X122137006Y-109226537D01*
X122247320Y-109285502D01*
X122367018Y-109321812D01*
X122491500Y-109334072D01*
X124396500Y-109334072D01*
X124520982Y-109321812D01*
X124640680Y-109285502D01*
X124750994Y-109226537D01*
X124847685Y-109147185D01*
X124927037Y-109050494D01*
X124976059Y-108958781D01*
X125117077Y-109071969D01*
X125392906Y-109215571D01*
X125611020Y-109286563D01*
X125857000Y-109166594D01*
X125857000Y-107823000D01*
X125837000Y-107823000D01*
X125837000Y-107569000D01*
X125857000Y-107569000D01*
X125857000Y-106225406D01*
X125611020Y-106105437D01*
X125392906Y-106176429D01*
X125117077Y-106320031D01*
X124976059Y-106433219D01*
X124927037Y-106341506D01*
X124847685Y-106244815D01*
X124750994Y-106165463D01*
X124640680Y-106106498D01*
X124520982Y-106070188D01*
X124396500Y-106057928D01*
X124321000Y-106057928D01*
X124321000Y-103160603D01*
X124325502Y-103152180D01*
X124361812Y-103032482D01*
X124374072Y-102908000D01*
X124374072Y-101308000D01*
X124361812Y-101183518D01*
X124325502Y-101063820D01*
X124266537Y-100953506D01*
X124187185Y-100856815D01*
X124090494Y-100777463D01*
X123980180Y-100718498D01*
X123860482Y-100682188D01*
X123736000Y-100669928D01*
X123728785Y-100669928D01*
X123749097Y-100600702D01*
X122936000Y-99787605D01*
X122122903Y-100600702D01*
X122143215Y-100669928D01*
X122136000Y-100669928D01*
X122011518Y-100682188D01*
X121891820Y-100718498D01*
X121883397Y-100723000D01*
X121477685Y-100723000D01*
X120765000Y-100010315D01*
X120765000Y-99678512D01*
X121495783Y-99678512D01*
X121537213Y-99958130D01*
X121632397Y-100224292D01*
X121699329Y-100349514D01*
X121943298Y-100421097D01*
X122756395Y-99608000D01*
X123115605Y-99608000D01*
X123928702Y-100421097D01*
X124172671Y-100349514D01*
X124293571Y-100094004D01*
X124362300Y-99819816D01*
X124369265Y-99678512D01*
X127083783Y-99678512D01*
X127125213Y-99958130D01*
X127220397Y-100224292D01*
X127287329Y-100349514D01*
X127531298Y-100421097D01*
X128344395Y-99608000D01*
X127531298Y-98794903D01*
X127287329Y-98866486D01*
X127166429Y-99121996D01*
X127097700Y-99396184D01*
X127083783Y-99678512D01*
X124369265Y-99678512D01*
X124376217Y-99537488D01*
X124334787Y-99257870D01*
X124239603Y-98991708D01*
X124172671Y-98866486D01*
X123928702Y-98794903D01*
X123115605Y-99608000D01*
X122756395Y-99608000D01*
X121943298Y-98794903D01*
X121699329Y-98866486D01*
X121578429Y-99121996D01*
X121509700Y-99396184D01*
X121495783Y-99678512D01*
X120765000Y-99678512D01*
X120765000Y-98615298D01*
X122122903Y-98615298D01*
X122936000Y-99428395D01*
X123749097Y-98615298D01*
X123677514Y-98371329D01*
X123422004Y-98250429D01*
X123147816Y-98181700D01*
X122865488Y-98167783D01*
X122585870Y-98209213D01*
X122319708Y-98304397D01*
X122194486Y-98371329D01*
X122122903Y-98615298D01*
X120765000Y-98615298D01*
X120765000Y-98109685D01*
X121569017Y-97305669D01*
X121576188Y-97378482D01*
X121612498Y-97498180D01*
X121671463Y-97608494D01*
X121750815Y-97705185D01*
X121847506Y-97784537D01*
X121957820Y-97843502D01*
X122077518Y-97879812D01*
X122202000Y-97892072D01*
X125702000Y-97892072D01*
X125826482Y-97879812D01*
X125946180Y-97843502D01*
X126056494Y-97784537D01*
X126153185Y-97705185D01*
X126232537Y-97608494D01*
X126291502Y-97498180D01*
X126327812Y-97378482D01*
X126340072Y-97254000D01*
X126340072Y-93754000D01*
X126327812Y-93629518D01*
X126291502Y-93509820D01*
X126232537Y-93399506D01*
X126153185Y-93302815D01*
X126056494Y-93223463D01*
X125946180Y-93164498D01*
X125826482Y-93128188D01*
X125702000Y-93115928D01*
X122202000Y-93115928D01*
X122077518Y-93128188D01*
X121957820Y-93164498D01*
X121847506Y-93223463D01*
X121750815Y-93302815D01*
X121671463Y-93399506D01*
X121630506Y-93476131D01*
X121640072Y-93379000D01*
X121640072Y-91629000D01*
X121610999Y-91333814D01*
X121524896Y-91049972D01*
X121500324Y-91004000D01*
X121563928Y-91004000D01*
X121576188Y-91128482D01*
X121612498Y-91248180D01*
X121671463Y-91358494D01*
X121750815Y-91455185D01*
X121847506Y-91534537D01*
X121957820Y-91593502D01*
X122077518Y-91629812D01*
X122202000Y-91642072D01*
X123666250Y-91639000D01*
X123825000Y-91480250D01*
X123825000Y-89631000D01*
X124079000Y-89631000D01*
X124079000Y-91480250D01*
X124237750Y-91639000D01*
X125702000Y-91642072D01*
X125826482Y-91629812D01*
X125946180Y-91593502D01*
X126056494Y-91534537D01*
X126153185Y-91455185D01*
X126232537Y-91358494D01*
X126291502Y-91248180D01*
X126327812Y-91128482D01*
X126340072Y-91004000D01*
X126337000Y-89789750D01*
X126178250Y-89631000D01*
X124079000Y-89631000D01*
X123825000Y-89631000D01*
X121725750Y-89631000D01*
X121567000Y-89789750D01*
X121563928Y-91004000D01*
X121500324Y-91004000D01*
X121385073Y-90788382D01*
X121196903Y-90559097D01*
X120967618Y-90370927D01*
X120706028Y-90231104D01*
X120422186Y-90145001D01*
X120127000Y-90115928D01*
X118377000Y-90115928D01*
X118081814Y-90145001D01*
X117797972Y-90231104D01*
X117536382Y-90370927D01*
X117307097Y-90559097D01*
X117118927Y-90788382D01*
X116979104Y-91049972D01*
X116893001Y-91333814D01*
X116863928Y-91629000D01*
X115769249Y-91629000D01*
X115783324Y-88004000D01*
X121563928Y-88004000D01*
X121567000Y-89218250D01*
X121725750Y-89377000D01*
X123825000Y-89377000D01*
X123825000Y-87527750D01*
X124079000Y-87527750D01*
X124079000Y-89377000D01*
X126178250Y-89377000D01*
X126337000Y-89218250D01*
X126340072Y-88004000D01*
X126327812Y-87879518D01*
X126291502Y-87759820D01*
X126232537Y-87649506D01*
X126153185Y-87552815D01*
X126056494Y-87473463D01*
X125946180Y-87414498D01*
X125826482Y-87378188D01*
X125702000Y-87365928D01*
X124237750Y-87369000D01*
X124079000Y-87527750D01*
X123825000Y-87527750D01*
X123666250Y-87369000D01*
X122202000Y-87365928D01*
X122077518Y-87378188D01*
X121957820Y-87414498D01*
X121847506Y-87473463D01*
X121750815Y-87552815D01*
X121671463Y-87649506D01*
X121612498Y-87759820D01*
X121576188Y-87879518D01*
X121563928Y-88004000D01*
X115783324Y-88004000D01*
X115917427Y-53467000D01*
X184243425Y-53467000D01*
X184023492Y-110109000D01*
%TA.AperFunction,Conductor*%
D24*
G36*
X184023492Y-110109000D02*
G01*
X164665561Y-110109000D01*
X164902255Y-110010958D01*
X165134011Y-109856104D01*
X165331104Y-109659011D01*
X165485958Y-109427255D01*
X165592624Y-109169741D01*
X165647001Y-108896366D01*
X165647001Y-108617636D01*
X165592624Y-108344261D01*
X165485958Y-108086747D01*
X165331104Y-107854991D01*
X165134011Y-107657898D01*
X164902255Y-107503044D01*
X164863524Y-107487001D01*
X164902255Y-107470958D01*
X165134011Y-107316104D01*
X165331104Y-107119011D01*
X165485958Y-106887255D01*
X165592624Y-106629741D01*
X165647001Y-106356366D01*
X165647001Y-106077636D01*
X165592624Y-105804261D01*
X165485958Y-105546747D01*
X165331104Y-105314991D01*
X165134011Y-105117898D01*
X164902255Y-104963044D01*
X164863524Y-104947001D01*
X164902255Y-104930958D01*
X165134011Y-104776104D01*
X165331104Y-104579011D01*
X165485958Y-104347255D01*
X165592624Y-104089741D01*
X165647001Y-103816366D01*
X165647001Y-103537636D01*
X165592624Y-103264261D01*
X165485958Y-103006747D01*
X165331104Y-102774991D01*
X165134011Y-102577898D01*
X164902255Y-102423044D01*
X164863524Y-102407001D01*
X164902255Y-102390958D01*
X165134011Y-102236104D01*
X165331104Y-102039011D01*
X165485958Y-101807255D01*
X165592624Y-101549741D01*
X165647001Y-101276366D01*
X165647001Y-100997636D01*
X165592624Y-100724261D01*
X165485958Y-100466747D01*
X165331104Y-100234991D01*
X165134011Y-100037898D01*
X165050355Y-99982001D01*
X166095316Y-99982001D01*
X166763001Y-100649687D01*
X166763000Y-102731301D01*
X166713000Y-102982665D01*
X166713000Y-103265335D01*
X166768147Y-103542574D01*
X166876320Y-103803727D01*
X167033363Y-104038759D01*
X167233241Y-104238637D01*
X167468273Y-104395680D01*
X167729426Y-104503853D01*
X168006665Y-104559000D01*
X168289335Y-104559000D01*
X168566574Y-104503853D01*
X168827727Y-104395680D01*
X169062759Y-104238637D01*
X169262637Y-104038759D01*
X169419680Y-103803727D01*
X169527853Y-103542574D01*
X169583000Y-103265335D01*
X169583000Y-102982665D01*
X174333000Y-102982665D01*
X174333000Y-103265335D01*
X174388147Y-103542574D01*
X174496320Y-103803727D01*
X174653363Y-104038759D01*
X174853241Y-104238637D01*
X175088273Y-104395680D01*
X175349426Y-104503853D01*
X175626665Y-104559000D01*
X175909335Y-104559000D01*
X176160699Y-104509000D01*
X178656538Y-104509000D01*
X178876257Y-104600011D01*
X179172816Y-104659000D01*
X179475184Y-104659000D01*
X179771743Y-104600011D01*
X180051095Y-104484299D01*
X180302505Y-104316312D01*
X180368944Y-104249873D01*
X180374498Y-104268180D01*
X180433463Y-104378494D01*
X180512815Y-104475185D01*
X180609506Y-104554537D01*
X180719820Y-104613502D01*
X180839518Y-104649812D01*
X180964000Y-104662072D01*
X181578250Y-104659000D01*
X181737000Y-104500250D01*
X181737000Y-103251000D01*
X181991000Y-103251000D01*
X181991000Y-104500250D01*
X182149750Y-104659000D01*
X182764000Y-104662072D01*
X182888482Y-104649812D01*
X183008180Y-104613502D01*
X183118494Y-104554537D01*
X183215185Y-104475185D01*
X183294537Y-104378494D01*
X183353502Y-104268180D01*
X183389812Y-104148482D01*
X183402072Y-104024000D01*
X183399000Y-103409750D01*
X183240250Y-103251000D01*
X181991000Y-103251000D01*
X181737000Y-103251000D01*
X181717000Y-103251000D01*
X181717000Y-102997000D01*
X181737000Y-102997000D01*
X181737000Y-101747750D01*
X181991000Y-101747750D01*
X181991000Y-102997000D01*
X183240250Y-102997000D01*
X183399000Y-102838250D01*
X183402072Y-102224000D01*
X183389812Y-102099518D01*
X183353502Y-101979820D01*
X183294537Y-101869506D01*
X183215185Y-101772815D01*
X183118494Y-101693463D01*
X183008180Y-101634498D01*
X182888482Y-101598188D01*
X182764000Y-101585928D01*
X182149750Y-101589000D01*
X181991000Y-101747750D01*
X181737000Y-101747750D01*
X181578250Y-101589000D01*
X180964000Y-101585928D01*
X180839518Y-101598188D01*
X180719820Y-101634498D01*
X180609506Y-101693463D01*
X180512815Y-101772815D01*
X180433463Y-101869506D01*
X180374498Y-101979820D01*
X180368944Y-101998127D01*
X180302505Y-101931688D01*
X180051095Y-101763701D01*
X179771743Y-101647989D01*
X179475184Y-101589000D01*
X179172816Y-101589000D01*
X178876257Y-101647989D01*
X178656538Y-101739000D01*
X176160699Y-101739000D01*
X175909335Y-101689000D01*
X175626665Y-101689000D01*
X175349426Y-101744147D01*
X175088273Y-101852320D01*
X174853241Y-102009363D01*
X174653363Y-102209241D01*
X174496320Y-102444273D01*
X174388147Y-102705426D01*
X174333000Y-102982665D01*
X169583000Y-102982665D01*
X169533000Y-102731301D01*
X169533000Y-100144026D01*
X169539700Y-100075999D01*
X169533000Y-100007972D01*
X169533000Y-100007963D01*
X169512960Y-99804493D01*
X169433764Y-99543419D01*
X169305157Y-99302812D01*
X169132081Y-99091919D01*
X169079236Y-99048550D01*
X167696455Y-97665770D01*
X167653082Y-97612920D01*
X167444817Y-97442001D01*
X167473534Y-97442001D01*
X167498665Y-97447000D01*
X167577728Y-97447000D01*
X167594999Y-97448701D01*
X167612270Y-97447000D01*
X167781335Y-97447000D01*
X168058574Y-97391853D01*
X168319727Y-97283680D01*
X168554759Y-97126637D01*
X168754637Y-96926759D01*
X168911680Y-96691727D01*
X169019853Y-96430574D01*
X169075000Y-96153335D01*
X169075000Y-95870665D01*
X173825000Y-95870665D01*
X173825000Y-96153335D01*
X173880147Y-96430574D01*
X173988320Y-96691727D01*
X174145363Y-96926759D01*
X174345241Y-97126637D01*
X174580273Y-97283680D01*
X174841426Y-97391853D01*
X175118665Y-97447000D01*
X175401335Y-97447000D01*
X175652699Y-97397000D01*
X178656538Y-97397000D01*
X178876257Y-97488011D01*
X179172816Y-97547000D01*
X179475184Y-97547000D01*
X179771743Y-97488011D01*
X180051095Y-97372299D01*
X180302505Y-97204312D01*
X180368944Y-97137873D01*
X180374498Y-97156180D01*
X180433463Y-97266494D01*
X180512815Y-97363185D01*
X180609506Y-97442537D01*
X180719820Y-97501502D01*
X180839518Y-97537812D01*
X180964000Y-97550072D01*
X181578250Y-97547000D01*
X181737000Y-97388250D01*
X181737000Y-96139000D01*
X181991000Y-96139000D01*
X181991000Y-97388250D01*
X182149750Y-97547000D01*
X182764000Y-97550072D01*
X182888482Y-97537812D01*
X183008180Y-97501502D01*
X183118494Y-97442537D01*
X183215185Y-97363185D01*
X183294537Y-97266494D01*
X183353502Y-97156180D01*
X183389812Y-97036482D01*
X183402072Y-96912000D01*
X183399000Y-96297750D01*
X183240250Y-96139000D01*
X181991000Y-96139000D01*
X181737000Y-96139000D01*
X181717000Y-96139000D01*
X181717000Y-95885000D01*
X181737000Y-95885000D01*
X181737000Y-94635750D01*
X181991000Y-94635750D01*
X181991000Y-95885000D01*
X183240250Y-95885000D01*
X183399000Y-95726250D01*
X183402072Y-95112000D01*
X183389812Y-94987518D01*
X183353502Y-94867820D01*
X183294537Y-94757506D01*
X183215185Y-94660815D01*
X183118494Y-94581463D01*
X183008180Y-94522498D01*
X182888482Y-94486188D01*
X182764000Y-94473928D01*
X182149750Y-94477000D01*
X181991000Y-94635750D01*
X181737000Y-94635750D01*
X181578250Y-94477000D01*
X180964000Y-94473928D01*
X180839518Y-94486188D01*
X180719820Y-94522498D01*
X180609506Y-94581463D01*
X180512815Y-94660815D01*
X180433463Y-94757506D01*
X180374498Y-94867820D01*
X180368944Y-94886127D01*
X180302505Y-94819688D01*
X180051095Y-94651701D01*
X179771743Y-94535989D01*
X179475184Y-94477000D01*
X179172816Y-94477000D01*
X178876257Y-94535989D01*
X178656538Y-94627000D01*
X175652699Y-94627000D01*
X175401335Y-94577000D01*
X175118665Y-94577000D01*
X174841426Y-94632147D01*
X174580273Y-94740320D01*
X174345241Y-94897363D01*
X174145363Y-95097241D01*
X173988320Y-95332273D01*
X173880147Y-95593426D01*
X173825000Y-95870665D01*
X169075000Y-95870665D01*
X169019853Y-95593426D01*
X168911680Y-95332273D01*
X168754637Y-95097241D01*
X168554759Y-94897363D01*
X168319727Y-94740320D01*
X168058574Y-94632147D01*
X167781335Y-94577000D01*
X167498665Y-94577000D01*
X167221426Y-94632147D01*
X167125210Y-94672001D01*
X165050355Y-94672001D01*
X165134011Y-94616104D01*
X165331104Y-94419011D01*
X165416539Y-94291148D01*
X169079241Y-90628447D01*
X169132080Y-90585083D01*
X169175445Y-90532243D01*
X169175452Y-90532236D01*
X169245932Y-90446355D01*
X169305157Y-90374190D01*
X169433764Y-90133583D01*
X169451538Y-90074991D01*
X169512960Y-89872510D01*
X169517882Y-89822537D01*
X169533000Y-89669039D01*
X169533000Y-89669031D01*
X169539700Y-89601002D01*
X169533000Y-89532973D01*
X169533000Y-88784699D01*
X169583000Y-88533335D01*
X169583000Y-88250665D01*
X174333000Y-88250665D01*
X174333000Y-88533335D01*
X174388147Y-88810574D01*
X174496320Y-89071727D01*
X174653363Y-89306759D01*
X174853241Y-89506637D01*
X175088273Y-89663680D01*
X175349426Y-89771853D01*
X175626665Y-89827000D01*
X175909335Y-89827000D01*
X176160699Y-89777000D01*
X178656538Y-89777000D01*
X178876257Y-89868011D01*
X179172816Y-89927000D01*
X179475184Y-89927000D01*
X179771743Y-89868011D01*
X180051095Y-89752299D01*
X180302505Y-89584312D01*
X180368944Y-89517873D01*
X180374498Y-89536180D01*
X180433463Y-89646494D01*
X180512815Y-89743185D01*
X180609506Y-89822537D01*
X180719820Y-89881502D01*
X180839518Y-89917812D01*
X180964000Y-89930072D01*
X181578250Y-89927000D01*
X181737000Y-89768250D01*
X181737000Y-88519000D01*
X181991000Y-88519000D01*
X181991000Y-89768250D01*
X182149750Y-89927000D01*
X182764000Y-89930072D01*
X182888482Y-89917812D01*
X183008180Y-89881502D01*
X183118494Y-89822537D01*
X183215185Y-89743185D01*
X183294537Y-89646494D01*
X183353502Y-89536180D01*
X183389812Y-89416482D01*
X183402072Y-89292000D01*
X183399000Y-88677750D01*
X183240250Y-88519000D01*
X181991000Y-88519000D01*
X181737000Y-88519000D01*
X181717000Y-88519000D01*
X181717000Y-88265000D01*
X181737000Y-88265000D01*
X181737000Y-87015750D01*
X181991000Y-87015750D01*
X181991000Y-88265000D01*
X183240250Y-88265000D01*
X183399000Y-88106250D01*
X183402072Y-87492000D01*
X183389812Y-87367518D01*
X183353502Y-87247820D01*
X183294537Y-87137506D01*
X183215185Y-87040815D01*
X183118494Y-86961463D01*
X183008180Y-86902498D01*
X182888482Y-86866188D01*
X182764000Y-86853928D01*
X182149750Y-86857000D01*
X181991000Y-87015750D01*
X181737000Y-87015750D01*
X181578250Y-86857000D01*
X180964000Y-86853928D01*
X180839518Y-86866188D01*
X180719820Y-86902498D01*
X180609506Y-86961463D01*
X180512815Y-87040815D01*
X180433463Y-87137506D01*
X180374498Y-87247820D01*
X180368944Y-87266127D01*
X180302505Y-87199688D01*
X180051095Y-87031701D01*
X179771743Y-86915989D01*
X179475184Y-86857000D01*
X179172816Y-86857000D01*
X178876257Y-86915989D01*
X178656538Y-87007000D01*
X176160699Y-87007000D01*
X175909335Y-86957000D01*
X175626665Y-86957000D01*
X175349426Y-87012147D01*
X175088273Y-87120320D01*
X174853241Y-87277363D01*
X174653363Y-87477241D01*
X174496320Y-87712273D01*
X174388147Y-87973426D01*
X174333000Y-88250665D01*
X169583000Y-88250665D01*
X169527853Y-87973426D01*
X169419680Y-87712273D01*
X169262637Y-87477241D01*
X169062759Y-87277363D01*
X168827727Y-87120320D01*
X168566574Y-87012147D01*
X168289335Y-86957000D01*
X168006665Y-86957000D01*
X167729426Y-87012147D01*
X167468273Y-87120320D01*
X167233241Y-87277363D01*
X167033363Y-87477241D01*
X166876320Y-87712273D01*
X166768147Y-87973426D01*
X166713000Y-88250665D01*
X166713000Y-88533335D01*
X166763000Y-88784699D01*
X166763000Y-89027316D01*
X165485001Y-90305315D01*
X165331104Y-90074991D01*
X165134011Y-89877898D01*
X164902255Y-89723044D01*
X164863524Y-89707001D01*
X164902255Y-89690958D01*
X165134011Y-89536104D01*
X165331104Y-89339011D01*
X165485958Y-89107255D01*
X165592624Y-88849741D01*
X165647001Y-88576366D01*
X165647001Y-88297636D01*
X165592624Y-88024261D01*
X165485958Y-87766747D01*
X165331104Y-87534991D01*
X165134011Y-87337898D01*
X164902255Y-87183044D01*
X164863524Y-87167001D01*
X164902255Y-87150958D01*
X165134011Y-86996104D01*
X165331104Y-86799011D01*
X165485958Y-86567255D01*
X165592624Y-86309741D01*
X165647001Y-86036366D01*
X165647001Y-85757636D01*
X165592624Y-85484261D01*
X165485958Y-85226747D01*
X165331104Y-84994991D01*
X165134011Y-84797898D01*
X164902255Y-84643044D01*
X164863524Y-84627001D01*
X164902255Y-84610958D01*
X165134011Y-84456104D01*
X165331104Y-84259011D01*
X165485958Y-84027255D01*
X165592624Y-83769741D01*
X165647001Y-83496366D01*
X165647001Y-83217636D01*
X165592624Y-82944261D01*
X165485958Y-82686747D01*
X165331104Y-82454991D01*
X165134011Y-82257898D01*
X164902255Y-82103044D01*
X164863524Y-82087001D01*
X164902255Y-82070958D01*
X165134011Y-81916104D01*
X165331104Y-81719011D01*
X165485958Y-81487255D01*
X165592624Y-81229741D01*
X165647001Y-80956366D01*
X165647001Y-80677636D01*
X165592624Y-80404261D01*
X165485958Y-80146747D01*
X165331104Y-79914991D01*
X165134011Y-79717898D01*
X164902255Y-79563044D01*
X164866476Y-79548224D01*
X164961656Y-79497350D01*
X165030817Y-79255422D01*
X164232001Y-78456606D01*
X163433185Y-79255422D01*
X163502346Y-79497350D01*
X163604280Y-79545426D01*
X163561747Y-79563044D01*
X163329991Y-79717898D01*
X163132898Y-79914991D01*
X162978044Y-80146747D01*
X162871378Y-80404261D01*
X162817001Y-80677636D01*
X162817001Y-80956366D01*
X162871378Y-81229741D01*
X162978044Y-81487255D01*
X163132898Y-81719011D01*
X163329991Y-81916104D01*
X163561747Y-82070958D01*
X163600478Y-82087001D01*
X163561747Y-82103044D01*
X163329991Y-82257898D01*
X163132898Y-82454991D01*
X162978044Y-82686747D01*
X162871378Y-82944261D01*
X162817001Y-83217636D01*
X162817001Y-83496366D01*
X162871378Y-83769741D01*
X162978044Y-84027255D01*
X163132898Y-84259011D01*
X163329991Y-84456104D01*
X163561747Y-84610958D01*
X163600478Y-84627001D01*
X163561747Y-84643044D01*
X163329991Y-84797898D01*
X163132898Y-84994991D01*
X162978044Y-85226747D01*
X162871378Y-85484261D01*
X162817001Y-85757636D01*
X162817001Y-86036366D01*
X162871378Y-86309741D01*
X162978044Y-86567255D01*
X163132898Y-86799011D01*
X163329991Y-86996104D01*
X163561747Y-87150958D01*
X163600478Y-87167001D01*
X163561747Y-87183044D01*
X163329991Y-87337898D01*
X163132898Y-87534991D01*
X162978044Y-87766747D01*
X162871378Y-88024261D01*
X162817001Y-88297636D01*
X162817001Y-88576366D01*
X162871378Y-88849741D01*
X162978044Y-89107255D01*
X163132898Y-89339011D01*
X163329991Y-89536104D01*
X163561747Y-89690958D01*
X163600478Y-89707001D01*
X163561747Y-89723044D01*
X163329991Y-89877898D01*
X163132898Y-90074991D01*
X162978044Y-90306747D01*
X162871378Y-90564261D01*
X162817001Y-90837636D01*
X162817001Y-91116366D01*
X162871378Y-91389741D01*
X162978044Y-91647255D01*
X163132898Y-91879011D01*
X163329991Y-92076104D01*
X163560315Y-92230001D01*
X163457854Y-92332463D01*
X163329991Y-92417898D01*
X163132898Y-92614991D01*
X162978044Y-92846747D01*
X162871378Y-93104261D01*
X162817001Y-93377636D01*
X162817001Y-93656366D01*
X162871378Y-93929741D01*
X162978044Y-94187255D01*
X163132898Y-94419011D01*
X163329991Y-94616104D01*
X163561747Y-94770958D01*
X163600478Y-94787001D01*
X163561747Y-94803044D01*
X163329991Y-94957898D01*
X163132898Y-95154991D01*
X162978044Y-95386747D01*
X162871378Y-95644261D01*
X162817001Y-95917636D01*
X162817001Y-96196366D01*
X162871378Y-96469741D01*
X162978044Y-96727255D01*
X163132898Y-96959011D01*
X163329991Y-97156104D01*
X163561747Y-97310958D01*
X163600478Y-97327001D01*
X163561747Y-97343044D01*
X163329991Y-97497898D01*
X163132898Y-97694991D01*
X162978044Y-97926747D01*
X162871378Y-98184261D01*
X162817001Y-98457636D01*
X162817001Y-98736366D01*
X162871378Y-99009741D01*
X162978044Y-99267255D01*
X163132898Y-99499011D01*
X163329991Y-99696104D01*
X163561747Y-99850958D01*
X163600478Y-99867001D01*
X163561747Y-99883044D01*
X163329991Y-100037898D01*
X163132898Y-100234991D01*
X162978044Y-100466747D01*
X162871378Y-100724261D01*
X162817001Y-100997636D01*
X162817001Y-101276366D01*
X162871378Y-101549741D01*
X162978044Y-101807255D01*
X163132898Y-102039011D01*
X163329991Y-102236104D01*
X163561747Y-102390958D01*
X163600478Y-102407001D01*
X163561747Y-102423044D01*
X163329991Y-102577898D01*
X163132898Y-102774991D01*
X162978044Y-103006747D01*
X162871378Y-103264261D01*
X162817001Y-103537636D01*
X162817001Y-103816366D01*
X162871378Y-104089741D01*
X162978044Y-104347255D01*
X163132898Y-104579011D01*
X163329991Y-104776104D01*
X163561747Y-104930958D01*
X163600478Y-104947001D01*
X163561747Y-104963044D01*
X163329991Y-105117898D01*
X163132898Y-105314991D01*
X162978044Y-105546747D01*
X162871378Y-105804261D01*
X162817001Y-106077636D01*
X162817001Y-106356366D01*
X162871378Y-106629741D01*
X162978044Y-106887255D01*
X163132898Y-107119011D01*
X163329991Y-107316104D01*
X163561747Y-107470958D01*
X163600478Y-107487001D01*
X163561747Y-107503044D01*
X163329991Y-107657898D01*
X163132898Y-107854991D01*
X162978044Y-108086747D01*
X162871378Y-108344261D01*
X162817001Y-108617636D01*
X162817001Y-108896366D01*
X162871378Y-109169741D01*
X162978044Y-109427255D01*
X163132898Y-109659011D01*
X163329991Y-109856104D01*
X163561747Y-110010958D01*
X163798441Y-110109000D01*
X139265561Y-110109000D01*
X139502255Y-110010958D01*
X139734011Y-109856104D01*
X139931104Y-109659011D01*
X140085958Y-109427255D01*
X140192624Y-109169741D01*
X140247001Y-108896366D01*
X140247001Y-108617636D01*
X140192624Y-108344261D01*
X140085958Y-108086747D01*
X139931104Y-107854991D01*
X139734011Y-107657898D01*
X139502255Y-107503044D01*
X139463524Y-107487001D01*
X139502255Y-107470958D01*
X139734011Y-107316104D01*
X139931104Y-107119011D01*
X140085958Y-106887255D01*
X140192624Y-106629741D01*
X140247001Y-106356366D01*
X140247001Y-106077636D01*
X140192624Y-105804261D01*
X140085958Y-105546747D01*
X139931104Y-105314991D01*
X139734011Y-105117898D01*
X139502255Y-104963044D01*
X139463524Y-104947001D01*
X139502255Y-104930958D01*
X139734011Y-104776104D01*
X139931104Y-104579011D01*
X140085958Y-104347255D01*
X140192624Y-104089741D01*
X140247001Y-103816366D01*
X140247001Y-103537636D01*
X140192624Y-103264261D01*
X140085958Y-103006747D01*
X139931104Y-102774991D01*
X139734011Y-102577898D01*
X139502255Y-102423044D01*
X139463524Y-102407001D01*
X139502255Y-102390958D01*
X139734011Y-102236104D01*
X139931104Y-102039011D01*
X140085958Y-101807255D01*
X140192624Y-101549741D01*
X140247001Y-101276366D01*
X140247001Y-100997636D01*
X140192624Y-100724261D01*
X140085958Y-100466747D01*
X139931104Y-100234991D01*
X139734011Y-100037898D01*
X139502255Y-99883044D01*
X139463524Y-99867001D01*
X139502255Y-99850958D01*
X139734011Y-99696104D01*
X139931104Y-99499011D01*
X140085958Y-99267255D01*
X140192624Y-99009741D01*
X140247001Y-98736366D01*
X140247001Y-98457636D01*
X140192624Y-98184261D01*
X140085958Y-97926747D01*
X139931104Y-97694991D01*
X139734011Y-97497898D01*
X139502255Y-97343044D01*
X139466476Y-97328224D01*
X139561656Y-97277350D01*
X139630817Y-97035422D01*
X138832001Y-96236606D01*
X138033185Y-97035422D01*
X138102346Y-97277350D01*
X138204280Y-97325426D01*
X138161747Y-97343044D01*
X137929991Y-97497898D01*
X137732898Y-97694991D01*
X137578044Y-97926747D01*
X137471378Y-98184261D01*
X137417001Y-98457636D01*
X137417001Y-98736366D01*
X137471378Y-99009741D01*
X137578044Y-99267255D01*
X137732898Y-99499011D01*
X137929991Y-99696104D01*
X138161747Y-99850958D01*
X138200478Y-99867001D01*
X138161747Y-99883044D01*
X137929991Y-100037898D01*
X137732898Y-100234991D01*
X137578044Y-100466747D01*
X137471378Y-100724261D01*
X137417001Y-100997636D01*
X137417001Y-101276366D01*
X137471378Y-101549741D01*
X137578044Y-101807255D01*
X137732898Y-102039011D01*
X137929991Y-102236104D01*
X138161747Y-102390958D01*
X138200478Y-102407001D01*
X138161747Y-102423044D01*
X137929991Y-102577898D01*
X137732898Y-102774991D01*
X137578044Y-103006747D01*
X137471378Y-103264261D01*
X137417001Y-103537636D01*
X137417001Y-103816366D01*
X137471378Y-104089741D01*
X137578044Y-104347255D01*
X137732898Y-104579011D01*
X137929991Y-104776104D01*
X138161747Y-104930958D01*
X138200478Y-104947001D01*
X138161747Y-104963044D01*
X137929991Y-105117898D01*
X137732898Y-105314991D01*
X137578044Y-105546747D01*
X137471378Y-105804261D01*
X137417001Y-106077636D01*
X137417001Y-106356366D01*
X137471378Y-106629741D01*
X137578044Y-106887255D01*
X137732898Y-107119011D01*
X137929991Y-107316104D01*
X137946298Y-107327000D01*
X134180026Y-107327000D01*
X134111999Y-107320300D01*
X134043972Y-107327000D01*
X134043963Y-107327000D01*
X133840493Y-107347040D01*
X133724815Y-107382130D01*
X133107452Y-106764767D01*
X133064081Y-106711919D01*
X132853188Y-106538843D01*
X132612581Y-106410236D01*
X132351507Y-106331040D01*
X132148037Y-106311000D01*
X132148029Y-106311000D01*
X132080000Y-106304300D01*
X132011971Y-106311000D01*
X129909000Y-106311000D01*
X129909000Y-103493000D01*
X129979971Y-103493000D01*
X130048000Y-103499700D01*
X130116029Y-103493000D01*
X130116037Y-103493000D01*
X130319507Y-103472960D01*
X130580581Y-103393764D01*
X130821188Y-103265157D01*
X131032081Y-103092081D01*
X131075455Y-103039230D01*
X131487231Y-102627453D01*
X131540080Y-102584081D01*
X131713157Y-102373188D01*
X131841764Y-102132581D01*
X131920960Y-101871507D01*
X131941000Y-101668037D01*
X131941000Y-101668028D01*
X131947700Y-101600001D01*
X131941000Y-101531974D01*
X131941000Y-96389476D01*
X132080625Y-96447310D01*
X132219001Y-96585686D01*
X132219000Y-101207301D01*
X132169000Y-101458665D01*
X132169000Y-101741335D01*
X132224147Y-102018574D01*
X132332320Y-102279727D01*
X132489363Y-102514759D01*
X132689241Y-102714637D01*
X132924273Y-102871680D01*
X133185426Y-102979853D01*
X133462665Y-103035000D01*
X133745335Y-103035000D01*
X134022574Y-102979853D01*
X134283727Y-102871680D01*
X134518759Y-102714637D01*
X134718637Y-102514759D01*
X134875680Y-102279727D01*
X134983853Y-102018574D01*
X135039000Y-101741335D01*
X135039000Y-101458665D01*
X134989000Y-101207301D01*
X134989000Y-96128304D01*
X137411944Y-96128304D01*
X137453141Y-96403973D01*
X137547326Y-96666309D01*
X137611652Y-96786656D01*
X137853580Y-96855817D01*
X138652396Y-96057001D01*
X139011606Y-96057001D01*
X139810422Y-96855817D01*
X140052350Y-96786656D01*
X140171249Y-96534558D01*
X140238682Y-96264107D01*
X140252058Y-95985698D01*
X140210861Y-95710029D01*
X140116676Y-95447693D01*
X140052350Y-95327346D01*
X139810422Y-95258185D01*
X139011606Y-96057001D01*
X138652396Y-96057001D01*
X137853580Y-95258185D01*
X137611652Y-95327346D01*
X137492753Y-95579444D01*
X137425320Y-95849895D01*
X137411944Y-96128304D01*
X134989000Y-96128304D01*
X134989000Y-96080029D01*
X134995700Y-96012000D01*
X134989000Y-95943971D01*
X134989000Y-95943963D01*
X134968960Y-95740493D01*
X134964640Y-95726250D01*
X134889764Y-95479419D01*
X134785794Y-95284905D01*
X134761157Y-95238812D01*
X134657085Y-95112000D01*
X134631452Y-95080766D01*
X134631450Y-95080764D01*
X134588081Y-95027919D01*
X134535236Y-94984550D01*
X134039310Y-94488625D01*
X133948299Y-94268905D01*
X133780312Y-94017495D01*
X133713873Y-93951056D01*
X133732180Y-93945502D01*
X133842494Y-93886537D01*
X133939185Y-93807185D01*
X134018537Y-93710494D01*
X134077502Y-93600180D01*
X134113812Y-93480482D01*
X134126072Y-93356000D01*
X134123000Y-92741750D01*
X133964250Y-92583000D01*
X132715000Y-92583000D01*
X132715000Y-92603000D01*
X132461000Y-92603000D01*
X132461000Y-92583000D01*
X131211750Y-92583000D01*
X131053000Y-92741750D01*
X131049928Y-93356000D01*
X131062188Y-93480482D01*
X131098498Y-93600180D01*
X131157463Y-93710494D01*
X131236815Y-93807185D01*
X131333506Y-93886537D01*
X131443820Y-93945502D01*
X131462127Y-93951056D01*
X131395688Y-94017495D01*
X131248485Y-94237799D01*
X129909000Y-92898315D01*
X129909000Y-91556000D01*
X131049928Y-91556000D01*
X131053000Y-92170250D01*
X131211750Y-92329000D01*
X132461000Y-92329000D01*
X132461000Y-91079750D01*
X132715000Y-91079750D01*
X132715000Y-92329000D01*
X133964250Y-92329000D01*
X134123000Y-92170250D01*
X134126072Y-91556000D01*
X134113812Y-91431518D01*
X134077502Y-91311820D01*
X134018537Y-91201506D01*
X133939185Y-91104815D01*
X133842494Y-91025463D01*
X133732180Y-90966498D01*
X133612482Y-90930188D01*
X133488000Y-90917928D01*
X132873750Y-90921000D01*
X132715000Y-91079750D01*
X132461000Y-91079750D01*
X132302250Y-90921000D01*
X131688000Y-90917928D01*
X131563518Y-90930188D01*
X131443820Y-90966498D01*
X131333506Y-91025463D01*
X131236815Y-91104815D01*
X131157463Y-91201506D01*
X131098498Y-91311820D01*
X131062188Y-91431518D01*
X131049928Y-91556000D01*
X129909000Y-91556000D01*
X129909000Y-84697000D01*
X130375856Y-84697000D01*
X130477820Y-84751502D01*
X130597518Y-84787812D01*
X130722000Y-84800072D01*
X132422000Y-84800072D01*
X132546482Y-84787812D01*
X132666180Y-84751502D01*
X132768144Y-84697000D01*
X133931856Y-84697000D01*
X134033820Y-84751502D01*
X134153518Y-84787812D01*
X134278000Y-84800072D01*
X135978000Y-84800072D01*
X136102482Y-84787812D01*
X136222180Y-84751502D01*
X136332494Y-84692537D01*
X136429185Y-84613185D01*
X136508537Y-84516494D01*
X136567502Y-84406180D01*
X136603812Y-84286482D01*
X136616072Y-84162000D01*
X136616072Y-82462000D01*
X136603812Y-82337518D01*
X136567502Y-82217820D01*
X136508537Y-82107506D01*
X136429185Y-82010815D01*
X136332494Y-81931463D01*
X136222180Y-81872498D01*
X136141534Y-81848034D01*
X136225588Y-81772269D01*
X136399641Y-81538920D01*
X136524825Y-81276099D01*
X136569476Y-81128890D01*
X136448155Y-80899000D01*
X135255000Y-80899000D01*
X135255000Y-80919000D01*
X135001000Y-80919000D01*
X135001000Y-80899000D01*
X133807845Y-80899000D01*
X133686524Y-81128890D01*
X133731175Y-81276099D01*
X133856359Y-81538920D01*
X134030412Y-81772269D01*
X134114466Y-81848034D01*
X134033820Y-81872498D01*
X133931856Y-81927000D01*
X132768144Y-81927000D01*
X132666180Y-81872498D01*
X132585534Y-81848034D01*
X132669588Y-81772269D01*
X132843641Y-81538920D01*
X132968825Y-81276099D01*
X133013476Y-81128890D01*
X132892155Y-80899000D01*
X131699000Y-80899000D01*
X131699000Y-80919000D01*
X131445000Y-80919000D01*
X131445000Y-80899000D01*
X130251845Y-80899000D01*
X130130524Y-81128890D01*
X130175175Y-81276099D01*
X130300359Y-81538920D01*
X130474412Y-81772269D01*
X130558466Y-81848034D01*
X130477820Y-81872498D01*
X130375856Y-81927000D01*
X129097685Y-81927000D01*
X127369000Y-80198315D01*
X127369000Y-72302000D01*
X130083928Y-72302000D01*
X130083928Y-74002000D01*
X130096188Y-74126482D01*
X130132498Y-74246180D01*
X130191463Y-74356494D01*
X130270815Y-74453185D01*
X130367506Y-74532537D01*
X130477820Y-74591502D01*
X130597518Y-74627812D01*
X130722000Y-74640072D01*
X131696423Y-74640072D01*
X131660107Y-74669876D01*
X131611765Y-74709549D01*
X131611763Y-74709551D01*
X131558918Y-74752920D01*
X131515549Y-74805765D01*
X130640764Y-75680551D01*
X130587920Y-75723919D01*
X130544551Y-75776764D01*
X130544548Y-75776767D01*
X130414844Y-75934812D01*
X130286236Y-76175420D01*
X130215909Y-76407255D01*
X130207040Y-76436493D01*
X130187000Y-76639963D01*
X130187000Y-76639971D01*
X130180300Y-76708000D01*
X130187000Y-76776029D01*
X130187000Y-77695195D01*
X130144068Y-77798842D01*
X130087000Y-78085740D01*
X130087000Y-78378260D01*
X130144068Y-78665158D01*
X130256010Y-78935411D01*
X130418525Y-79178632D01*
X130625368Y-79385475D01*
X130807534Y-79507195D01*
X130690645Y-79576822D01*
X130474412Y-79771731D01*
X130300359Y-80005080D01*
X130175175Y-80267901D01*
X130130524Y-80415110D01*
X130251845Y-80645000D01*
X131445000Y-80645000D01*
X131445000Y-80625000D01*
X131699000Y-80625000D01*
X131699000Y-80645000D01*
X132892155Y-80645000D01*
X133013476Y-80415110D01*
X132968825Y-80267901D01*
X132843641Y-80005080D01*
X132669588Y-79771731D01*
X132453355Y-79576822D01*
X132336466Y-79507195D01*
X132518632Y-79385475D01*
X132725475Y-79178632D01*
X132887990Y-78935411D01*
X132999932Y-78665158D01*
X133057000Y-78378260D01*
X133057000Y-78085740D01*
X132999932Y-77798842D01*
X132957000Y-77695195D01*
X132957000Y-77281685D01*
X133116685Y-77122001D01*
X134137892Y-77122001D01*
X133974525Y-77285368D01*
X133812010Y-77528589D01*
X133700068Y-77798842D01*
X133643000Y-78085740D01*
X133643000Y-78378260D01*
X133700068Y-78665158D01*
X133812010Y-78935411D01*
X133974525Y-79178632D01*
X134181368Y-79385475D01*
X134363534Y-79507195D01*
X134246645Y-79576822D01*
X134030412Y-79771731D01*
X133856359Y-80005080D01*
X133731175Y-80267901D01*
X133686524Y-80415110D01*
X133807845Y-80645000D01*
X135001000Y-80645000D01*
X135001000Y-80625000D01*
X135255000Y-80625000D01*
X135255000Y-80645000D01*
X136448155Y-80645000D01*
X136569476Y-80415110D01*
X136524825Y-80267901D01*
X136399641Y-80005080D01*
X136225588Y-79771731D01*
X136103853Y-79662001D01*
X138013647Y-79662001D01*
X137929991Y-79717898D01*
X137732898Y-79914991D01*
X137578044Y-80146747D01*
X137471378Y-80404261D01*
X137417001Y-80677636D01*
X137417001Y-80956366D01*
X137471378Y-81229741D01*
X137578044Y-81487255D01*
X137732898Y-81719011D01*
X137929991Y-81916104D01*
X138161747Y-82070958D01*
X138200478Y-82087001D01*
X138161747Y-82103044D01*
X137929991Y-82257898D01*
X137732898Y-82454991D01*
X137578044Y-82686747D01*
X137471378Y-82944261D01*
X137417001Y-83217636D01*
X137417001Y-83496366D01*
X137471378Y-83769741D01*
X137578044Y-84027255D01*
X137732898Y-84259011D01*
X137929991Y-84456104D01*
X138161747Y-84610958D01*
X138200478Y-84627001D01*
X138161747Y-84643044D01*
X137929991Y-84797898D01*
X137732898Y-84994991D01*
X137578044Y-85226747D01*
X137471378Y-85484261D01*
X137417001Y-85757636D01*
X137417001Y-86036366D01*
X137471378Y-86309741D01*
X137578044Y-86567255D01*
X137732898Y-86799011D01*
X137929991Y-86996104D01*
X138161747Y-87150958D01*
X138200478Y-87167001D01*
X138161747Y-87183044D01*
X137929991Y-87337898D01*
X137732898Y-87534991D01*
X137578044Y-87766747D01*
X137471378Y-88024261D01*
X137417001Y-88297636D01*
X137417001Y-88576366D01*
X137471378Y-88849741D01*
X137578044Y-89107255D01*
X137732898Y-89339011D01*
X137929991Y-89536104D01*
X138161747Y-89690958D01*
X138200478Y-89707001D01*
X138161747Y-89723044D01*
X137929991Y-89877898D01*
X137732898Y-90074991D01*
X137578044Y-90306747D01*
X137471378Y-90564261D01*
X137417001Y-90837636D01*
X137417001Y-91116366D01*
X137471378Y-91389741D01*
X137578044Y-91647255D01*
X137732898Y-91879011D01*
X137929991Y-92076104D01*
X138161747Y-92230958D01*
X138200478Y-92247001D01*
X138161747Y-92263044D01*
X137929991Y-92417898D01*
X137732898Y-92614991D01*
X137578044Y-92846747D01*
X137471378Y-93104261D01*
X137417001Y-93377636D01*
X137417001Y-93656366D01*
X137471378Y-93929741D01*
X137578044Y-94187255D01*
X137732898Y-94419011D01*
X137929991Y-94616104D01*
X138161747Y-94770958D01*
X138197526Y-94785778D01*
X138102346Y-94836652D01*
X138033185Y-95078580D01*
X138832001Y-95877396D01*
X139630817Y-95078580D01*
X139561656Y-94836652D01*
X139459722Y-94788576D01*
X139502255Y-94770958D01*
X139734011Y-94616104D01*
X139931104Y-94419011D01*
X140085958Y-94187255D01*
X140192624Y-93929741D01*
X140247001Y-93656366D01*
X140247001Y-93377636D01*
X140192624Y-93104261D01*
X140085958Y-92846747D01*
X139931104Y-92614991D01*
X139734011Y-92417898D01*
X139502255Y-92263044D01*
X139463524Y-92247001D01*
X139502255Y-92230958D01*
X139734011Y-92076104D01*
X139931104Y-91879011D01*
X140085958Y-91647255D01*
X140192624Y-91389741D01*
X140247001Y-91116366D01*
X140247001Y-90837636D01*
X140192624Y-90564261D01*
X140085958Y-90306747D01*
X139931104Y-90074991D01*
X139734011Y-89877898D01*
X139502255Y-89723044D01*
X139463524Y-89707001D01*
X139502255Y-89690958D01*
X139734011Y-89536104D01*
X139931104Y-89339011D01*
X140085958Y-89107255D01*
X140192624Y-88849741D01*
X140247001Y-88576366D01*
X140247001Y-88297636D01*
X140192624Y-88024261D01*
X140085958Y-87766747D01*
X139931104Y-87534991D01*
X139734011Y-87337898D01*
X139502255Y-87183044D01*
X139463524Y-87167001D01*
X139502255Y-87150958D01*
X139734011Y-86996104D01*
X139931104Y-86799011D01*
X140085958Y-86567255D01*
X140192624Y-86309741D01*
X140247001Y-86036366D01*
X140247001Y-85757636D01*
X140192624Y-85484261D01*
X140085958Y-85226747D01*
X139931104Y-84994991D01*
X139734011Y-84797898D01*
X139502255Y-84643044D01*
X139463524Y-84627001D01*
X139502255Y-84610958D01*
X139734011Y-84456104D01*
X139931104Y-84259011D01*
X140085958Y-84027255D01*
X140192624Y-83769741D01*
X140247001Y-83496366D01*
X140247001Y-83217636D01*
X140192624Y-82944261D01*
X140085958Y-82686747D01*
X139931104Y-82454991D01*
X139734011Y-82257898D01*
X139502255Y-82103044D01*
X139463524Y-82087001D01*
X139502255Y-82070958D01*
X139734011Y-81916104D01*
X139931104Y-81719011D01*
X140085958Y-81487255D01*
X140192624Y-81229741D01*
X140247001Y-80956366D01*
X140247001Y-80677636D01*
X140192624Y-80404261D01*
X140085958Y-80146747D01*
X139931104Y-79914991D01*
X139734011Y-79717898D01*
X139502255Y-79563044D01*
X139463524Y-79547001D01*
X139502255Y-79530958D01*
X139734011Y-79376104D01*
X139931104Y-79179011D01*
X140085958Y-78947255D01*
X140192624Y-78689741D01*
X140247001Y-78416366D01*
X140247001Y-78348304D01*
X162811944Y-78348304D01*
X162853141Y-78623973D01*
X162947326Y-78886309D01*
X163011652Y-79006656D01*
X163253580Y-79075817D01*
X164052396Y-78277001D01*
X164411606Y-78277001D01*
X165210422Y-79075817D01*
X165452350Y-79006656D01*
X165571249Y-78754558D01*
X165638682Y-78484107D01*
X165652058Y-78205698D01*
X165610861Y-77930029D01*
X165516676Y-77667693D01*
X165452350Y-77547346D01*
X165210422Y-77478185D01*
X164411606Y-78277001D01*
X164052396Y-78277001D01*
X163253580Y-77478185D01*
X163011652Y-77547346D01*
X162892753Y-77799444D01*
X162825320Y-78069895D01*
X162811944Y-78348304D01*
X140247001Y-78348304D01*
X140247001Y-78137636D01*
X140192624Y-77864261D01*
X140085958Y-77606747D01*
X139931104Y-77374991D01*
X139734011Y-77177898D01*
X139502255Y-77023044D01*
X139463524Y-77007001D01*
X139502255Y-76990958D01*
X139734011Y-76836104D01*
X139931104Y-76639011D01*
X140085958Y-76407255D01*
X140192624Y-76149741D01*
X140247001Y-75876366D01*
X140247001Y-75597636D01*
X140192624Y-75324261D01*
X140085958Y-75066747D01*
X139931104Y-74834991D01*
X139734011Y-74637898D01*
X139502255Y-74483044D01*
X139463524Y-74467001D01*
X139502255Y-74450958D01*
X139734011Y-74296104D01*
X139931104Y-74099011D01*
X140085958Y-73867255D01*
X140192624Y-73609741D01*
X140247001Y-73336366D01*
X140247001Y-73057636D01*
X140192624Y-72784261D01*
X140085958Y-72526747D01*
X139931104Y-72294991D01*
X139734011Y-72097898D01*
X139502255Y-71943044D01*
X139463524Y-71927001D01*
X139502255Y-71910958D01*
X139734011Y-71756104D01*
X139931104Y-71559011D01*
X140085958Y-71327255D01*
X140192624Y-71069741D01*
X140247001Y-70796366D01*
X140247001Y-70517636D01*
X140192624Y-70244261D01*
X140085958Y-69986747D01*
X139931104Y-69754991D01*
X139734011Y-69557898D01*
X139502255Y-69403044D01*
X139463524Y-69387001D01*
X139502255Y-69370958D01*
X139734011Y-69216104D01*
X139931104Y-69019011D01*
X140085958Y-68787255D01*
X140192624Y-68529741D01*
X140247001Y-68256366D01*
X140247001Y-67977636D01*
X140192624Y-67704261D01*
X140085958Y-67446747D01*
X139931104Y-67214991D01*
X139734011Y-67017898D01*
X139502255Y-66863044D01*
X139463524Y-66847001D01*
X139502255Y-66830958D01*
X139734011Y-66676104D01*
X139931104Y-66479011D01*
X140085958Y-66247255D01*
X140192624Y-65989741D01*
X140247001Y-65716366D01*
X140247001Y-65437636D01*
X162817001Y-65437636D01*
X162817001Y-65716366D01*
X162871378Y-65989741D01*
X162978044Y-66247255D01*
X163132898Y-66479011D01*
X163329991Y-66676104D01*
X163561747Y-66830958D01*
X163600478Y-66847001D01*
X163561747Y-66863044D01*
X163329991Y-67017898D01*
X163132898Y-67214991D01*
X162978044Y-67446747D01*
X162871378Y-67704261D01*
X162817001Y-67977636D01*
X162817001Y-68256366D01*
X162871378Y-68529741D01*
X162978044Y-68787255D01*
X163132898Y-69019011D01*
X163329991Y-69216104D01*
X163561747Y-69370958D01*
X163600478Y-69387001D01*
X163561747Y-69403044D01*
X163329991Y-69557898D01*
X163132898Y-69754991D01*
X162978044Y-69986747D01*
X162871378Y-70244261D01*
X162817001Y-70517636D01*
X162817001Y-70796366D01*
X162871378Y-71069741D01*
X162978044Y-71327255D01*
X163132898Y-71559011D01*
X163329991Y-71756104D01*
X163561747Y-71910958D01*
X163600478Y-71927001D01*
X163561747Y-71943044D01*
X163329991Y-72097898D01*
X163132898Y-72294991D01*
X162978044Y-72526747D01*
X162871378Y-72784261D01*
X162817001Y-73057636D01*
X162817001Y-73336366D01*
X162871378Y-73609741D01*
X162978044Y-73867255D01*
X163132898Y-74099011D01*
X163329991Y-74296104D01*
X163561747Y-74450958D01*
X163600478Y-74467001D01*
X163561747Y-74483044D01*
X163329991Y-74637898D01*
X163132898Y-74834991D01*
X162978044Y-75066747D01*
X162871378Y-75324261D01*
X162817001Y-75597636D01*
X162817001Y-75876366D01*
X162871378Y-76149741D01*
X162978044Y-76407255D01*
X163132898Y-76639011D01*
X163329991Y-76836104D01*
X163561747Y-76990958D01*
X163597526Y-77005778D01*
X163502346Y-77056652D01*
X163433185Y-77298580D01*
X164232001Y-78097396D01*
X165030817Y-77298580D01*
X164961656Y-77056652D01*
X164859722Y-77008576D01*
X164902255Y-76990958D01*
X165134011Y-76836104D01*
X165331104Y-76639011D01*
X165485958Y-76407255D01*
X165592624Y-76149741D01*
X165647001Y-75876366D01*
X165647001Y-75597636D01*
X165592624Y-75324261D01*
X165485958Y-75066747D01*
X165331104Y-74834991D01*
X165134011Y-74637898D01*
X164902255Y-74483044D01*
X164863524Y-74467001D01*
X164902255Y-74450958D01*
X165134011Y-74296104D01*
X165331104Y-74099011D01*
X165485958Y-73867255D01*
X165592624Y-73609741D01*
X165647001Y-73336366D01*
X165647001Y-73057636D01*
X165592624Y-72784261D01*
X165485958Y-72526747D01*
X165331104Y-72294991D01*
X165134011Y-72097898D01*
X164902255Y-71943044D01*
X164863524Y-71927001D01*
X164902255Y-71910958D01*
X165134011Y-71756104D01*
X165331104Y-71559011D01*
X165485958Y-71327255D01*
X165592624Y-71069741D01*
X165647001Y-70796366D01*
X165647001Y-70517636D01*
X165592624Y-70244261D01*
X165485958Y-69986747D01*
X165331104Y-69754991D01*
X165134011Y-69557898D01*
X164902255Y-69403044D01*
X164863524Y-69387001D01*
X164902255Y-69370958D01*
X165134011Y-69216104D01*
X165331104Y-69019011D01*
X165485958Y-68787255D01*
X165592624Y-68529741D01*
X165647001Y-68256366D01*
X165647001Y-67977636D01*
X165592624Y-67704261D01*
X165485958Y-67446747D01*
X165331104Y-67214991D01*
X165134011Y-67017898D01*
X164902255Y-66863044D01*
X164863524Y-66847001D01*
X164902255Y-66830958D01*
X165134011Y-66676104D01*
X165331104Y-66479011D01*
X165485958Y-66247255D01*
X165592624Y-65989741D01*
X165647001Y-65716366D01*
X165647001Y-65437636D01*
X165592624Y-65164261D01*
X165485958Y-64906747D01*
X165331104Y-64674991D01*
X165134011Y-64477898D01*
X164902255Y-64323044D01*
X164866476Y-64308224D01*
X164961656Y-64257350D01*
X165030817Y-64015422D01*
X164232001Y-63216606D01*
X163433185Y-64015422D01*
X163502346Y-64257350D01*
X163604280Y-64305426D01*
X163561747Y-64323044D01*
X163329991Y-64477898D01*
X163132898Y-64674991D01*
X162978044Y-64906747D01*
X162871378Y-65164261D01*
X162817001Y-65437636D01*
X140247001Y-65437636D01*
X140192624Y-65164261D01*
X140085958Y-64906747D01*
X139931104Y-64674991D01*
X139734011Y-64477898D01*
X139688565Y-64447532D01*
X139736483Y-64442813D01*
X139856181Y-64406503D01*
X139966495Y-64347538D01*
X140063186Y-64268186D01*
X140142538Y-64171495D01*
X140201503Y-64061181D01*
X140237813Y-63941483D01*
X140250073Y-63817001D01*
X140250073Y-63108304D01*
X162811944Y-63108304D01*
X162853141Y-63383973D01*
X162947326Y-63646309D01*
X163011652Y-63766656D01*
X163253580Y-63835817D01*
X164052396Y-63037001D01*
X164411606Y-63037001D01*
X165210422Y-63835817D01*
X165452350Y-63766656D01*
X165571249Y-63514558D01*
X165638682Y-63244107D01*
X165652058Y-62965698D01*
X165610861Y-62690029D01*
X165516676Y-62427693D01*
X165452350Y-62307346D01*
X165210422Y-62238185D01*
X164411606Y-63037001D01*
X164052396Y-63037001D01*
X163253580Y-62238185D01*
X163011652Y-62307346D01*
X162892753Y-62559444D01*
X162825320Y-62829895D01*
X162811944Y-63108304D01*
X140250073Y-63108304D01*
X140250073Y-62257001D01*
X140237813Y-62132519D01*
X140215384Y-62058580D01*
X163433185Y-62058580D01*
X164232001Y-62857396D01*
X165030817Y-62058580D01*
X164961656Y-61816652D01*
X164709558Y-61697753D01*
X164439107Y-61630320D01*
X164160698Y-61616944D01*
X163885029Y-61658141D01*
X163622693Y-61752326D01*
X163502346Y-61816652D01*
X163433185Y-62058580D01*
X140215384Y-62058580D01*
X140201503Y-62012821D01*
X140142538Y-61902507D01*
X140063186Y-61805816D01*
X139966495Y-61726464D01*
X139856181Y-61667499D01*
X139736483Y-61631189D01*
X139612001Y-61618929D01*
X138052001Y-61618929D01*
X137927519Y-61631189D01*
X137807821Y-61667499D01*
X137697507Y-61726464D01*
X137600816Y-61805816D01*
X137521464Y-61902507D01*
X137462499Y-62012821D01*
X137426189Y-62132519D01*
X137413929Y-62257001D01*
X137413929Y-63817001D01*
X137426189Y-63941483D01*
X137462499Y-64061181D01*
X137521464Y-64171495D01*
X137600816Y-64268186D01*
X137697507Y-64347538D01*
X137807821Y-64406503D01*
X137927519Y-64442813D01*
X137975437Y-64447532D01*
X137929991Y-64477898D01*
X137732898Y-64674991D01*
X137578044Y-64906747D01*
X137471378Y-65164261D01*
X137417001Y-65437636D01*
X137417001Y-65716366D01*
X137471378Y-65989741D01*
X137578044Y-66247255D01*
X137732898Y-66479011D01*
X137929991Y-66676104D01*
X138161747Y-66830958D01*
X138200478Y-66847001D01*
X138161747Y-66863044D01*
X137929991Y-67017898D01*
X137732898Y-67214991D01*
X137578044Y-67446747D01*
X137471378Y-67704261D01*
X137417001Y-67977636D01*
X137417001Y-68256366D01*
X137471378Y-68529741D01*
X137578044Y-68787255D01*
X137732898Y-69019011D01*
X137929991Y-69216104D01*
X138161747Y-69370958D01*
X138200478Y-69387001D01*
X138161747Y-69403044D01*
X137929991Y-69557898D01*
X137732898Y-69754991D01*
X137578044Y-69986747D01*
X137471378Y-70244261D01*
X137417001Y-70517636D01*
X137417001Y-70796366D01*
X137471378Y-71069741D01*
X137578044Y-71327255D01*
X137732898Y-71559011D01*
X137929991Y-71756104D01*
X138013647Y-71812001D01*
X132825890Y-71812001D01*
X132776494Y-71771463D01*
X132666180Y-71712498D01*
X132585534Y-71688034D01*
X132669588Y-71612269D01*
X132843641Y-71378920D01*
X132968825Y-71116099D01*
X133013476Y-70968890D01*
X132892155Y-70739000D01*
X131699000Y-70739000D01*
X131699000Y-70759000D01*
X131445000Y-70759000D01*
X131445000Y-70739000D01*
X130251845Y-70739000D01*
X130130524Y-70968890D01*
X130175175Y-71116099D01*
X130300359Y-71378920D01*
X130474412Y-71612269D01*
X130558466Y-71688034D01*
X130477820Y-71712498D01*
X130367506Y-71771463D01*
X130270815Y-71850815D01*
X130191463Y-71947506D01*
X130132498Y-72057820D01*
X130096188Y-72177518D01*
X130083928Y-72302000D01*
X127369000Y-72302000D01*
X127369000Y-70169685D01*
X128081685Y-69457000D01*
X130646071Y-69457000D01*
X130474412Y-69611731D01*
X130300359Y-69845080D01*
X130175175Y-70107901D01*
X130130524Y-70255110D01*
X130251845Y-70485000D01*
X131445000Y-70485000D01*
X131445000Y-70465000D01*
X131699000Y-70465000D01*
X131699000Y-70485000D01*
X132892155Y-70485000D01*
X133013476Y-70255110D01*
X132968825Y-70107901D01*
X132843641Y-69845080D01*
X132669588Y-69611731D01*
X132453355Y-69416822D01*
X132336466Y-69347195D01*
X132518632Y-69225475D01*
X132725475Y-69018632D01*
X132887990Y-68775411D01*
X132999932Y-68505158D01*
X133057000Y-68218260D01*
X133057000Y-67925740D01*
X132999932Y-67638842D01*
X132887990Y-67368589D01*
X132725475Y-67125368D01*
X132518632Y-66918525D01*
X132275411Y-66756010D01*
X132005158Y-66644068D01*
X131718260Y-66587000D01*
X131425740Y-66587000D01*
X131138842Y-66644068D01*
X131035195Y-66687000D01*
X127576026Y-66687000D01*
X127507999Y-66680300D01*
X127439972Y-66687000D01*
X127439963Y-66687000D01*
X127236493Y-66707040D01*
X126975419Y-66786236D01*
X126734812Y-66914843D01*
X126523919Y-67087919D01*
X126480546Y-67140769D01*
X125052765Y-68568550D01*
X124999920Y-68611919D01*
X124956551Y-68664764D01*
X124956548Y-68664767D01*
X124826844Y-68822812D01*
X124698236Y-69063420D01*
X124619040Y-69324493D01*
X124592300Y-69596000D01*
X124599001Y-69664039D01*
X124599000Y-80703971D01*
X124592300Y-80772000D01*
X124599000Y-80840029D01*
X124599000Y-80840036D01*
X124619040Y-81043506D01*
X124698236Y-81304580D01*
X124826843Y-81545187D01*
X124999919Y-81756080D01*
X125052765Y-81799450D01*
X127139001Y-83885686D01*
X127139000Y-93403971D01*
X127132300Y-93472000D01*
X127139000Y-93540029D01*
X127139000Y-93540036D01*
X127159040Y-93743506D01*
X127238236Y-94004580D01*
X127366843Y-94245187D01*
X127539919Y-94456080D01*
X127592765Y-94499450D01*
X129171001Y-96077687D01*
X129171001Y-98326608D01*
X129010004Y-98250429D01*
X128735816Y-98181700D01*
X128453488Y-98167783D01*
X128173870Y-98209213D01*
X127907708Y-98304397D01*
X127782486Y-98371329D01*
X127710903Y-98615298D01*
X128524000Y-99428395D01*
X128538143Y-99414253D01*
X128717748Y-99593858D01*
X128703605Y-99608000D01*
X128717748Y-99622143D01*
X128538143Y-99801748D01*
X128524000Y-99787605D01*
X127710903Y-100600702D01*
X127731215Y-100669928D01*
X127724000Y-100669928D01*
X127599518Y-100682188D01*
X127479820Y-100718498D01*
X127369506Y-100777463D01*
X127272815Y-100856815D01*
X127193463Y-100953506D01*
X127134498Y-101063820D01*
X127098188Y-101183518D01*
X127085928Y-101308000D01*
X127085928Y-102908000D01*
X127098188Y-103032482D01*
X127134498Y-103152180D01*
X127139001Y-103160604D01*
X127139000Y-106568990D01*
X127093437Y-106514685D01*
X126850923Y-106320031D01*
X126575094Y-106176429D01*
X126356980Y-106105437D01*
X126111000Y-106225406D01*
X126111000Y-107569000D01*
X126131000Y-107569000D01*
X126131000Y-107823000D01*
X126111000Y-107823000D01*
X126111000Y-109166594D01*
X126356980Y-109286563D01*
X126575094Y-109215571D01*
X126850923Y-109071969D01*
X127093437Y-108877315D01*
X127248837Y-108692101D01*
X127396037Y-108871463D01*
X127637766Y-109069845D01*
X127913552Y-109217255D01*
X128212797Y-109308030D01*
X128524000Y-109338681D01*
X128835204Y-109308030D01*
X129134449Y-109217255D01*
X129389365Y-109081000D01*
X131506315Y-109081000D01*
X132346975Y-109921660D01*
X132472151Y-110109000D01*
X115697494Y-110109000D01*
X115769249Y-91629000D01*
X116863928Y-91629000D01*
X116863928Y-93379000D01*
X116893001Y-93674186D01*
X116979104Y-93958028D01*
X117118927Y-94219618D01*
X117307097Y-94448903D01*
X117536382Y-94637073D01*
X117797972Y-94776896D01*
X118081814Y-94862999D01*
X118377000Y-94892072D01*
X120065242Y-94892072D01*
X118448765Y-96508550D01*
X118395919Y-96551920D01*
X118222843Y-96762813D01*
X118143101Y-96912000D01*
X118094236Y-97003420D01*
X118024885Y-97232041D01*
X118015040Y-97264494D01*
X117995000Y-97467964D01*
X117995000Y-97467971D01*
X117988300Y-97536000D01*
X117995000Y-97604029D01*
X117995001Y-100515961D01*
X117988300Y-100584000D01*
X118015040Y-100855507D01*
X118094236Y-101116580D01*
X118222844Y-101357188D01*
X118352548Y-101515233D01*
X118352551Y-101515236D01*
X118395920Y-101568081D01*
X118448765Y-101611450D01*
X119876546Y-103039231D01*
X119919919Y-103092081D01*
X120130812Y-103265157D01*
X120371419Y-103393764D01*
X120632493Y-103472960D01*
X120835963Y-103493000D01*
X120835972Y-103493000D01*
X120903999Y-103499700D01*
X120972026Y-103493000D01*
X121551000Y-103493000D01*
X121551001Y-107119961D01*
X121544300Y-107188000D01*
X121571040Y-107459507D01*
X121650236Y-107720580D01*
X121778844Y-107961188D01*
X121853428Y-108052069D01*
X121853428Y-108696000D01*
X121865688Y-108820482D01*
X121901998Y-108940180D01*
X121960963Y-109050494D01*
X122040315Y-109147185D01*
X122137006Y-109226537D01*
X122247320Y-109285502D01*
X122367018Y-109321812D01*
X122491500Y-109334072D01*
X124396500Y-109334072D01*
X124520982Y-109321812D01*
X124640680Y-109285502D01*
X124750994Y-109226537D01*
X124847685Y-109147185D01*
X124927037Y-109050494D01*
X124976059Y-108958781D01*
X125117077Y-109071969D01*
X125392906Y-109215571D01*
X125611020Y-109286563D01*
X125857000Y-109166594D01*
X125857000Y-107823000D01*
X125837000Y-107823000D01*
X125837000Y-107569000D01*
X125857000Y-107569000D01*
X125857000Y-106225406D01*
X125611020Y-106105437D01*
X125392906Y-106176429D01*
X125117077Y-106320031D01*
X124976059Y-106433219D01*
X124927037Y-106341506D01*
X124847685Y-106244815D01*
X124750994Y-106165463D01*
X124640680Y-106106498D01*
X124520982Y-106070188D01*
X124396500Y-106057928D01*
X124321000Y-106057928D01*
X124321000Y-103160603D01*
X124325502Y-103152180D01*
X124361812Y-103032482D01*
X124374072Y-102908000D01*
X124374072Y-101308000D01*
X124361812Y-101183518D01*
X124325502Y-101063820D01*
X124266537Y-100953506D01*
X124187185Y-100856815D01*
X124090494Y-100777463D01*
X123980180Y-100718498D01*
X123860482Y-100682188D01*
X123736000Y-100669928D01*
X123728785Y-100669928D01*
X123749097Y-100600702D01*
X122936000Y-99787605D01*
X122122903Y-100600702D01*
X122143215Y-100669928D01*
X122136000Y-100669928D01*
X122011518Y-100682188D01*
X121891820Y-100718498D01*
X121883397Y-100723000D01*
X121477685Y-100723000D01*
X120765000Y-100010315D01*
X120765000Y-99678512D01*
X121495783Y-99678512D01*
X121537213Y-99958130D01*
X121632397Y-100224292D01*
X121699329Y-100349514D01*
X121943298Y-100421097D01*
X122756395Y-99608000D01*
X123115605Y-99608000D01*
X123928702Y-100421097D01*
X124172671Y-100349514D01*
X124293571Y-100094004D01*
X124362300Y-99819816D01*
X124369265Y-99678512D01*
X127083783Y-99678512D01*
X127125213Y-99958130D01*
X127220397Y-100224292D01*
X127287329Y-100349514D01*
X127531298Y-100421097D01*
X128344395Y-99608000D01*
X127531298Y-98794903D01*
X127287329Y-98866486D01*
X127166429Y-99121996D01*
X127097700Y-99396184D01*
X127083783Y-99678512D01*
X124369265Y-99678512D01*
X124376217Y-99537488D01*
X124334787Y-99257870D01*
X124239603Y-98991708D01*
X124172671Y-98866486D01*
X123928702Y-98794903D01*
X123115605Y-99608000D01*
X122756395Y-99608000D01*
X121943298Y-98794903D01*
X121699329Y-98866486D01*
X121578429Y-99121996D01*
X121509700Y-99396184D01*
X121495783Y-99678512D01*
X120765000Y-99678512D01*
X120765000Y-98615298D01*
X122122903Y-98615298D01*
X122936000Y-99428395D01*
X123749097Y-98615298D01*
X123677514Y-98371329D01*
X123422004Y-98250429D01*
X123147816Y-98181700D01*
X122865488Y-98167783D01*
X122585870Y-98209213D01*
X122319708Y-98304397D01*
X122194486Y-98371329D01*
X122122903Y-98615298D01*
X120765000Y-98615298D01*
X120765000Y-98109685D01*
X121569017Y-97305669D01*
X121576188Y-97378482D01*
X121612498Y-97498180D01*
X121671463Y-97608494D01*
X121750815Y-97705185D01*
X121847506Y-97784537D01*
X121957820Y-97843502D01*
X122077518Y-97879812D01*
X122202000Y-97892072D01*
X125702000Y-97892072D01*
X125826482Y-97879812D01*
X125946180Y-97843502D01*
X126056494Y-97784537D01*
X126153185Y-97705185D01*
X126232537Y-97608494D01*
X126291502Y-97498180D01*
X126327812Y-97378482D01*
X126340072Y-97254000D01*
X126340072Y-93754000D01*
X126327812Y-93629518D01*
X126291502Y-93509820D01*
X126232537Y-93399506D01*
X126153185Y-93302815D01*
X126056494Y-93223463D01*
X125946180Y-93164498D01*
X125826482Y-93128188D01*
X125702000Y-93115928D01*
X122202000Y-93115928D01*
X122077518Y-93128188D01*
X121957820Y-93164498D01*
X121847506Y-93223463D01*
X121750815Y-93302815D01*
X121671463Y-93399506D01*
X121630506Y-93476131D01*
X121640072Y-93379000D01*
X121640072Y-91629000D01*
X121610999Y-91333814D01*
X121524896Y-91049972D01*
X121500324Y-91004000D01*
X121563928Y-91004000D01*
X121576188Y-91128482D01*
X121612498Y-91248180D01*
X121671463Y-91358494D01*
X121750815Y-91455185D01*
X121847506Y-91534537D01*
X121957820Y-91593502D01*
X122077518Y-91629812D01*
X122202000Y-91642072D01*
X123666250Y-91639000D01*
X123825000Y-91480250D01*
X123825000Y-89631000D01*
X124079000Y-89631000D01*
X124079000Y-91480250D01*
X124237750Y-91639000D01*
X125702000Y-91642072D01*
X125826482Y-91629812D01*
X125946180Y-91593502D01*
X126056494Y-91534537D01*
X126153185Y-91455185D01*
X126232537Y-91358494D01*
X126291502Y-91248180D01*
X126327812Y-91128482D01*
X126340072Y-91004000D01*
X126337000Y-89789750D01*
X126178250Y-89631000D01*
X124079000Y-89631000D01*
X123825000Y-89631000D01*
X121725750Y-89631000D01*
X121567000Y-89789750D01*
X121563928Y-91004000D01*
X121500324Y-91004000D01*
X121385073Y-90788382D01*
X121196903Y-90559097D01*
X120967618Y-90370927D01*
X120706028Y-90231104D01*
X120422186Y-90145001D01*
X120127000Y-90115928D01*
X118377000Y-90115928D01*
X118081814Y-90145001D01*
X117797972Y-90231104D01*
X117536382Y-90370927D01*
X117307097Y-90559097D01*
X117118927Y-90788382D01*
X116979104Y-91049972D01*
X116893001Y-91333814D01*
X116863928Y-91629000D01*
X115769249Y-91629000D01*
X115783324Y-88004000D01*
X121563928Y-88004000D01*
X121567000Y-89218250D01*
X121725750Y-89377000D01*
X123825000Y-89377000D01*
X123825000Y-87527750D01*
X124079000Y-87527750D01*
X124079000Y-89377000D01*
X126178250Y-89377000D01*
X126337000Y-89218250D01*
X126340072Y-88004000D01*
X126327812Y-87879518D01*
X126291502Y-87759820D01*
X126232537Y-87649506D01*
X126153185Y-87552815D01*
X126056494Y-87473463D01*
X125946180Y-87414498D01*
X125826482Y-87378188D01*
X125702000Y-87365928D01*
X124237750Y-87369000D01*
X124079000Y-87527750D01*
X123825000Y-87527750D01*
X123666250Y-87369000D01*
X122202000Y-87365928D01*
X122077518Y-87378188D01*
X121957820Y-87414498D01*
X121847506Y-87473463D01*
X121750815Y-87552815D01*
X121671463Y-87649506D01*
X121612498Y-87759820D01*
X121576188Y-87879518D01*
X121563928Y-88004000D01*
X115783324Y-88004000D01*
X115917427Y-53467000D01*
X184243425Y-53467000D01*
X184023492Y-110109000D01*
G37*
%TD.AperFunction*%
%TD*%
M02*
