%TF.GenerationSoftware,KiCad,Pcbnew,(5.1.12)-1*%
%TF.CreationDate,2022-04-15T13:15:03+05:30*%
%TF.ProjectId,Smart_meter,536d6172-745f-46d6-9574-65722e6b6963,rev?*%
%TF.SameCoordinates,Original*%
%TF.FileFunction,Copper,L2,Bot*%
%TF.FilePolarity,Positive*%
%FSLAX46Y46*%
G04 Gerber Fmt 4.6, Leading zero omitted, Abs format (unit mm)*
G04 Created by KiCad (PCBNEW (5.1.12)-1) date 2022-04-15 13:15:03*
%MOMM*%
%LPD*%
G01*
G04 APERTURE LIST*
%TA.AperFunction,ComponentPad*%
%ADD10O,1.700000X1.700000*%
%TD*%
%TA.AperFunction,ComponentPad*%
%ADD11R,1.700000X1.700000*%
%TD*%
%TA.AperFunction,ComponentPad*%
%ADD12R,3.500000X3.500000*%
%TD*%
%TA.AperFunction,ComponentPad*%
%ADD13O,1.905000X2.000000*%
%TD*%
%TA.AperFunction,ComponentPad*%
%ADD14R,1.905000X2.000000*%
%TD*%
%TA.AperFunction,ComponentPad*%
%ADD15C,1.560000*%
%TD*%
%TA.AperFunction,ComponentPad*%
%ADD16R,1.560000X1.560000*%
%TD*%
%TA.AperFunction,ComponentPad*%
%ADD17O,1.600000X1.600000*%
%TD*%
%TA.AperFunction,ComponentPad*%
%ADD18C,1.600000*%
%TD*%
%TA.AperFunction,ComponentPad*%
%ADD19C,1.800000*%
%TD*%
%TA.AperFunction,ComponentPad*%
%ADD20R,1.800000X1.800000*%
%TD*%
%TA.AperFunction,ComponentPad*%
%ADD21R,1.600000X1.600000*%
%TD*%
G04 APERTURE END LIST*
D10*
%TO.P,J4,3*%
%TO.N,Net-(J4-Pad3)*%
X135128000Y-78232000D03*
%TO.P,J4,2*%
%TO.N,GND*%
X135128000Y-80772000D03*
D11*
%TO.P,J4,1*%
%TO.N,VCC*%
X135128000Y-83312000D03*
%TD*%
%TO.P,J1,3*%
%TO.N,N/C*%
%TA.AperFunction,ComponentPad*%
G36*
G01*
X118377000Y-90754000D02*
X120127000Y-90754000D01*
G75*
G02*
X121002000Y-91629000I0J-875000D01*
G01*
X121002000Y-93379000D01*
G75*
G02*
X120127000Y-94254000I-875000J0D01*
G01*
X118377000Y-94254000D01*
G75*
G02*
X117502000Y-93379000I0J875000D01*
G01*
X117502000Y-91629000D01*
G75*
G02*
X118377000Y-90754000I875000J0D01*
G01*
G37*
%TD.AperFunction*%
%TO.P,J1,2*%
%TO.N,GND*%
%TA.AperFunction,ComponentPad*%
G36*
G01*
X122952000Y-88004000D02*
X124952000Y-88004000D01*
G75*
G02*
X125702000Y-88754000I0J-750000D01*
G01*
X125702000Y-90254000D01*
G75*
G02*
X124952000Y-91004000I-750000J0D01*
G01*
X122952000Y-91004000D01*
G75*
G02*
X122202000Y-90254000I0J750000D01*
G01*
X122202000Y-88754000D01*
G75*
G02*
X122952000Y-88004000I750000J0D01*
G01*
G37*
%TD.AperFunction*%
D12*
%TO.P,J1,1*%
%TO.N,Net-(C1-Pad1)*%
X123952000Y-95504000D03*
%TD*%
D13*
%TO.P,U2,3*%
%TO.N,VCC*%
X128524000Y-107696000D03*
%TO.P,U2,2*%
%TO.N,GND*%
X125984000Y-107696000D03*
D14*
%TO.P,U2,1*%
%TO.N,Net-(C1-Pad1)*%
X123444000Y-107696000D03*
%TD*%
D15*
%TO.P,U1,38*%
%TO.N,N/C*%
X164232001Y-108757001D03*
%TO.P,U1,37*%
X164232001Y-106217001D03*
%TO.P,U1,36*%
X164232001Y-103677001D03*
%TO.P,U1,35*%
X164232001Y-101137001D03*
%TO.P,U1,34*%
%TO.N,Net-(R4-Pad2)*%
X164232001Y-98597001D03*
%TO.P,U1,33*%
%TO.N,Net-(R3-Pad2)*%
X164232001Y-96057001D03*
%TO.P,U1,32*%
%TO.N,Net-(R2-Pad2)*%
X164232001Y-93517001D03*
%TO.P,U1,31*%
%TO.N,N/C*%
X164232001Y-90977001D03*
%TO.P,U1,30*%
X164232001Y-88437001D03*
%TO.P,U1,29*%
X164232001Y-85897001D03*
%TO.P,U1,28*%
X164232001Y-83357001D03*
%TO.P,U1,27*%
X164232001Y-80817001D03*
%TO.P,U1,26*%
%TO.N,GND*%
X164232001Y-78277001D03*
%TO.P,U1,25*%
%TO.N,N/C*%
X164232001Y-75737001D03*
%TO.P,U1,24*%
X164232001Y-73197001D03*
%TO.P,U1,23*%
X164232001Y-70657001D03*
%TO.P,U1,22*%
X164232001Y-68117001D03*
%TO.P,U1,21*%
X164232001Y-65577001D03*
%TO.P,U1,20*%
%TO.N,GND*%
X164232001Y-63037001D03*
%TO.P,U1,18*%
%TO.N,N/C*%
X138832001Y-106217001D03*
%TO.P,U1,17*%
X138832001Y-103677001D03*
%TO.P,U1,16*%
X138832001Y-101137001D03*
%TO.P,U1,15*%
X138832001Y-98597001D03*
%TO.P,U1,14*%
%TO.N,GND*%
X138832001Y-96057001D03*
%TO.P,U1,13*%
%TO.N,N/C*%
X138832001Y-93517001D03*
%TO.P,U1,12*%
X138832001Y-90977001D03*
%TO.P,U1,11*%
X138832001Y-88437001D03*
%TO.P,U1,10*%
X138832001Y-85897001D03*
%TO.P,U1,9*%
X138832001Y-83357001D03*
%TO.P,U1,8*%
X138832001Y-80817001D03*
%TO.P,U1,7*%
%TO.N,Net-(J4-Pad3)*%
X138832001Y-78277001D03*
%TO.P,U1,6*%
%TO.N,Net-(J3-Pad3)*%
X138832001Y-75737001D03*
%TO.P,U1,5*%
%TO.N,Net-(J2-Pad1)*%
X138832001Y-73197001D03*
%TO.P,U1,4*%
%TO.N,N/C*%
X138832001Y-70657001D03*
%TO.P,U1,3*%
X138832001Y-68117001D03*
%TO.P,U1,19*%
%TO.N,VCC*%
X138832001Y-108757001D03*
%TO.P,U1,2*%
%TO.N,N/C*%
X138832001Y-65577001D03*
D16*
%TO.P,U1,1*%
X138832001Y-63037001D03*
%TD*%
D17*
%TO.P,R4,2*%
%TO.N,Net-(R4-Pad2)*%
X168148000Y-103124000D03*
D18*
%TO.P,R4,1*%
%TO.N,Net-(D4-Pad2)*%
X175768000Y-103124000D03*
%TD*%
D17*
%TO.P,R3,2*%
%TO.N,Net-(R3-Pad2)*%
X167640000Y-96012000D03*
D18*
%TO.P,R3,1*%
%TO.N,Net-(D3-Pad2)*%
X175260000Y-96012000D03*
%TD*%
D17*
%TO.P,R2,2*%
%TO.N,Net-(R2-Pad2)*%
X168148000Y-88392000D03*
D18*
%TO.P,R2,1*%
%TO.N,Net-(D2-Pad2)*%
X175768000Y-88392000D03*
%TD*%
D17*
%TO.P,R1,2*%
%TO.N,Net-(D1-Pad2)*%
X133604000Y-101600000D03*
D18*
%TO.P,R1,1*%
%TO.N,VCC*%
X133604000Y-109220000D03*
%TD*%
D10*
%TO.P,J3,3*%
%TO.N,Net-(J3-Pad3)*%
X131572000Y-78232000D03*
%TO.P,J3,2*%
%TO.N,GND*%
X131572000Y-80772000D03*
D11*
%TO.P,J3,1*%
%TO.N,VCC*%
X131572000Y-83312000D03*
%TD*%
D10*
%TO.P,J2,3*%
%TO.N,VCC*%
X131572000Y-68072000D03*
%TO.P,J2,2*%
%TO.N,GND*%
X131572000Y-70612000D03*
D11*
%TO.P,J2,1*%
%TO.N,Net-(J2-Pad1)*%
X131572000Y-73152000D03*
%TD*%
D19*
%TO.P,D4,2*%
%TO.N,Net-(D4-Pad2)*%
X179324000Y-103124000D03*
D20*
%TO.P,D4,1*%
%TO.N,GND*%
X181864000Y-103124000D03*
%TD*%
D19*
%TO.P,D3,2*%
%TO.N,Net-(D3-Pad2)*%
X179324000Y-96012000D03*
D20*
%TO.P,D3,1*%
%TO.N,GND*%
X181864000Y-96012000D03*
%TD*%
D19*
%TO.P,D2,2*%
%TO.N,Net-(D2-Pad2)*%
X179324000Y-88392000D03*
D20*
%TO.P,D2,1*%
%TO.N,GND*%
X181864000Y-88392000D03*
%TD*%
D19*
%TO.P,D1,2*%
%TO.N,Net-(D1-Pad2)*%
X132588000Y-94996000D03*
D20*
%TO.P,D1,1*%
%TO.N,GND*%
X132588000Y-92456000D03*
%TD*%
D18*
%TO.P,C2,2*%
%TO.N,GND*%
X128524000Y-99608000D03*
D21*
%TO.P,C2,1*%
%TO.N,VCC*%
X128524000Y-102108000D03*
%TD*%
D18*
%TO.P,C1,2*%
%TO.N,GND*%
X122936000Y-99608000D03*
D21*
%TO.P,C1,1*%
%TO.N,Net-(C1-Pad1)*%
X122936000Y-102108000D03*
%TD*%
M02*
