%TF.GenerationSoftware,KiCad,Pcbnew,(5.1.12)-1*%
%TF.CreationDate,2022-04-15T13:15:03+05:30*%
%TF.ProjectId,Smart_meter,536d6172-745f-46d6-9574-65722e6b6963,rev?*%
%TF.SameCoordinates,Original*%
%TF.FileFunction,Legend,Top*%
%TF.FilePolarity,Positive*%
%FSLAX46Y46*%
G04 Gerber Fmt 4.6, Leading zero omitted, Abs format (unit mm)*
G04 Created by KiCad (PCBNEW (5.1.12)-1) date 2022-04-15 13:15:03*
%MOMM*%
%LPD*%
G01*
G04 APERTURE LIST*
%ADD10C,0.120000*%
%ADD11C,0.127000*%
%ADD12C,0.150000*%
G04 APERTURE END LIST*
D10*
%TO.C,J4*%
X136458000Y-76902000D02*
X133798000Y-76902000D01*
X136458000Y-82042000D02*
X136458000Y-76902000D01*
X133798000Y-82042000D02*
X133798000Y-76902000D01*
X136458000Y-82042000D02*
X133798000Y-82042000D01*
X136458000Y-83312000D02*
X136458000Y-84642000D01*
X136458000Y-84642000D02*
X135128000Y-84642000D01*
%TO.C,J1*%
X127702000Y-96604000D02*
X128752000Y-96604000D01*
X128752000Y-95554000D02*
X128752000Y-96604000D01*
X119352000Y-90504000D02*
X119352000Y-81704000D01*
X119352000Y-81704000D02*
X128552000Y-81704000D01*
X122052000Y-96404000D02*
X119352000Y-96404000D01*
X119352000Y-96404000D02*
X119352000Y-94504000D01*
X128552000Y-81704000D02*
X128552000Y-96404000D01*
X128552000Y-96404000D02*
X125952000Y-96404000D01*
%TO.C,U2*%
X120864000Y-104426000D02*
X131104000Y-104426000D01*
X120864000Y-109067000D02*
X131104000Y-109067000D01*
X120864000Y-104426000D02*
X120864000Y-109067000D01*
X131104000Y-104426000D02*
X131104000Y-109067000D01*
X120864000Y-105936000D02*
X131104000Y-105936000D01*
X124134000Y-104426000D02*
X124134000Y-105936000D01*
X127835000Y-104426000D02*
X127835000Y-105936000D01*
D11*
%TO.C,U1*%
X137582001Y-110047001D02*
X137582001Y-55647001D01*
X137582001Y-55647001D02*
X165482001Y-55647001D01*
X165482001Y-55647001D02*
X165482001Y-110047001D01*
X165482001Y-110047001D02*
X137582001Y-110047001D01*
D10*
%TO.C,R4*%
X175228000Y-104164000D02*
X175228000Y-104494000D01*
X175228000Y-104494000D02*
X168688000Y-104494000D01*
X168688000Y-104494000D02*
X168688000Y-104164000D01*
X175228000Y-102084000D02*
X175228000Y-101754000D01*
X175228000Y-101754000D02*
X168688000Y-101754000D01*
X168688000Y-101754000D02*
X168688000Y-102084000D01*
%TO.C,R3*%
X174720000Y-97052000D02*
X174720000Y-97382000D01*
X174720000Y-97382000D02*
X168180000Y-97382000D01*
X168180000Y-97382000D02*
X168180000Y-97052000D01*
X174720000Y-94972000D02*
X174720000Y-94642000D01*
X174720000Y-94642000D02*
X168180000Y-94642000D01*
X168180000Y-94642000D02*
X168180000Y-94972000D01*
%TO.C,R2*%
X175228000Y-89432000D02*
X175228000Y-89762000D01*
X175228000Y-89762000D02*
X168688000Y-89762000D01*
X168688000Y-89762000D02*
X168688000Y-89432000D01*
X175228000Y-87352000D02*
X175228000Y-87022000D01*
X175228000Y-87022000D02*
X168688000Y-87022000D01*
X168688000Y-87022000D02*
X168688000Y-87352000D01*
%TO.C,R1*%
X132564000Y-108680000D02*
X132234000Y-108680000D01*
X132234000Y-108680000D02*
X132234000Y-102140000D01*
X132234000Y-102140000D02*
X132564000Y-102140000D01*
X134644000Y-108680000D02*
X134974000Y-108680000D01*
X134974000Y-108680000D02*
X134974000Y-102140000D01*
X134974000Y-102140000D02*
X134644000Y-102140000D01*
%TO.C,J3*%
X132902000Y-76902000D02*
X130242000Y-76902000D01*
X132902000Y-82042000D02*
X132902000Y-76902000D01*
X130242000Y-82042000D02*
X130242000Y-76902000D01*
X132902000Y-82042000D02*
X130242000Y-82042000D01*
X132902000Y-83312000D02*
X132902000Y-84642000D01*
X132902000Y-84642000D02*
X131572000Y-84642000D01*
%TO.C,J2*%
X132902000Y-66742000D02*
X130242000Y-66742000D01*
X132902000Y-71882000D02*
X132902000Y-66742000D01*
X130242000Y-71882000D02*
X130242000Y-66742000D01*
X132902000Y-71882000D02*
X130242000Y-71882000D01*
X132902000Y-73152000D02*
X132902000Y-74482000D01*
X132902000Y-74482000D02*
X131572000Y-74482000D01*
%TO.C,D4*%
X177604000Y-103124462D02*
G75*
G02*
X183154000Y-101579170I2990000J462D01*
G01*
X177604000Y-103123538D02*
G75*
G03*
X183154000Y-104668830I2990000J-462D01*
G01*
X183094000Y-103124000D02*
G75*
G03*
X183094000Y-103124000I-2500000J0D01*
G01*
X183154000Y-104669000D02*
X183154000Y-101579000D01*
%TO.C,D3*%
X177604000Y-96012462D02*
G75*
G02*
X183154000Y-94467170I2990000J462D01*
G01*
X177604000Y-96011538D02*
G75*
G03*
X183154000Y-97556830I2990000J-462D01*
G01*
X183094000Y-96012000D02*
G75*
G03*
X183094000Y-96012000I-2500000J0D01*
G01*
X183154000Y-97557000D02*
X183154000Y-94467000D01*
%TO.C,D2*%
X177604000Y-88392462D02*
G75*
G02*
X183154000Y-86847170I2990000J462D01*
G01*
X177604000Y-88391538D02*
G75*
G03*
X183154000Y-89936830I2990000J-462D01*
G01*
X183094000Y-88392000D02*
G75*
G03*
X183094000Y-88392000I-2500000J0D01*
G01*
X183154000Y-89937000D02*
X183154000Y-86847000D01*
%TO.C,D1*%
X132588462Y-96716000D02*
G75*
G02*
X131043170Y-91166000I-462J2990000D01*
G01*
X132587538Y-96716000D02*
G75*
G03*
X134132830Y-91166000I462J2990000D01*
G01*
X135088000Y-93726000D02*
G75*
G03*
X135088000Y-93726000I-2500000J0D01*
G01*
X134133000Y-91166000D02*
X131043000Y-91166000D01*
%TO.C,C2*%
X131144000Y-100858000D02*
G75*
G03*
X131144000Y-100858000I-2620000J0D01*
G01*
X125944000Y-100858000D02*
X131104000Y-100858000D01*
X125944000Y-100818000D02*
X131104000Y-100818000D01*
X125945000Y-100778000D02*
X131103000Y-100778000D01*
X125946000Y-100738000D02*
X131102000Y-100738000D01*
X125948000Y-100698000D02*
X131100000Y-100698000D01*
X125951000Y-100658000D02*
X131097000Y-100658000D01*
X125955000Y-100618000D02*
X127484000Y-100618000D01*
X129564000Y-100618000D02*
X131093000Y-100618000D01*
X125959000Y-100578000D02*
X127484000Y-100578000D01*
X129564000Y-100578000D02*
X131089000Y-100578000D01*
X125963000Y-100538000D02*
X127484000Y-100538000D01*
X129564000Y-100538000D02*
X131085000Y-100538000D01*
X125968000Y-100498000D02*
X127484000Y-100498000D01*
X129564000Y-100498000D02*
X131080000Y-100498000D01*
X125974000Y-100458000D02*
X127484000Y-100458000D01*
X129564000Y-100458000D02*
X131074000Y-100458000D01*
X125981000Y-100418000D02*
X127484000Y-100418000D01*
X129564000Y-100418000D02*
X131067000Y-100418000D01*
X125988000Y-100378000D02*
X127484000Y-100378000D01*
X129564000Y-100378000D02*
X131060000Y-100378000D01*
X125996000Y-100338000D02*
X127484000Y-100338000D01*
X129564000Y-100338000D02*
X131052000Y-100338000D01*
X126004000Y-100298000D02*
X127484000Y-100298000D01*
X129564000Y-100298000D02*
X131044000Y-100298000D01*
X126013000Y-100258000D02*
X127484000Y-100258000D01*
X129564000Y-100258000D02*
X131035000Y-100258000D01*
X126023000Y-100218000D02*
X127484000Y-100218000D01*
X129564000Y-100218000D02*
X131025000Y-100218000D01*
X126033000Y-100178000D02*
X127484000Y-100178000D01*
X129564000Y-100178000D02*
X131015000Y-100178000D01*
X126044000Y-100137000D02*
X127484000Y-100137000D01*
X129564000Y-100137000D02*
X131004000Y-100137000D01*
X126056000Y-100097000D02*
X127484000Y-100097000D01*
X129564000Y-100097000D02*
X130992000Y-100097000D01*
X126069000Y-100057000D02*
X127484000Y-100057000D01*
X129564000Y-100057000D02*
X130979000Y-100057000D01*
X126082000Y-100017000D02*
X127484000Y-100017000D01*
X129564000Y-100017000D02*
X130966000Y-100017000D01*
X126096000Y-99977000D02*
X127484000Y-99977000D01*
X129564000Y-99977000D02*
X130952000Y-99977000D01*
X126110000Y-99937000D02*
X127484000Y-99937000D01*
X129564000Y-99937000D02*
X130938000Y-99937000D01*
X126126000Y-99897000D02*
X127484000Y-99897000D01*
X129564000Y-99897000D02*
X130922000Y-99897000D01*
X126142000Y-99857000D02*
X127484000Y-99857000D01*
X129564000Y-99857000D02*
X130906000Y-99857000D01*
X126159000Y-99817000D02*
X127484000Y-99817000D01*
X129564000Y-99817000D02*
X130889000Y-99817000D01*
X126176000Y-99777000D02*
X127484000Y-99777000D01*
X129564000Y-99777000D02*
X130872000Y-99777000D01*
X126195000Y-99737000D02*
X127484000Y-99737000D01*
X129564000Y-99737000D02*
X130853000Y-99737000D01*
X126214000Y-99697000D02*
X127484000Y-99697000D01*
X129564000Y-99697000D02*
X130834000Y-99697000D01*
X126234000Y-99657000D02*
X127484000Y-99657000D01*
X129564000Y-99657000D02*
X130814000Y-99657000D01*
X126256000Y-99617000D02*
X127484000Y-99617000D01*
X129564000Y-99617000D02*
X130792000Y-99617000D01*
X126277000Y-99577000D02*
X127484000Y-99577000D01*
X129564000Y-99577000D02*
X130771000Y-99577000D01*
X126300000Y-99537000D02*
X127484000Y-99537000D01*
X129564000Y-99537000D02*
X130748000Y-99537000D01*
X126324000Y-99497000D02*
X127484000Y-99497000D01*
X129564000Y-99497000D02*
X130724000Y-99497000D01*
X126349000Y-99457000D02*
X127484000Y-99457000D01*
X129564000Y-99457000D02*
X130699000Y-99457000D01*
X126375000Y-99417000D02*
X127484000Y-99417000D01*
X129564000Y-99417000D02*
X130673000Y-99417000D01*
X126402000Y-99377000D02*
X127484000Y-99377000D01*
X129564000Y-99377000D02*
X130646000Y-99377000D01*
X126429000Y-99337000D02*
X127484000Y-99337000D01*
X129564000Y-99337000D02*
X130619000Y-99337000D01*
X126459000Y-99297000D02*
X127484000Y-99297000D01*
X129564000Y-99297000D02*
X130589000Y-99297000D01*
X126489000Y-99257000D02*
X127484000Y-99257000D01*
X129564000Y-99257000D02*
X130559000Y-99257000D01*
X126520000Y-99217000D02*
X127484000Y-99217000D01*
X129564000Y-99217000D02*
X130528000Y-99217000D01*
X126553000Y-99177000D02*
X127484000Y-99177000D01*
X129564000Y-99177000D02*
X130495000Y-99177000D01*
X126587000Y-99137000D02*
X127484000Y-99137000D01*
X129564000Y-99137000D02*
X130461000Y-99137000D01*
X126623000Y-99097000D02*
X127484000Y-99097000D01*
X129564000Y-99097000D02*
X130425000Y-99097000D01*
X126660000Y-99057000D02*
X127484000Y-99057000D01*
X129564000Y-99057000D02*
X130388000Y-99057000D01*
X126698000Y-99017000D02*
X127484000Y-99017000D01*
X129564000Y-99017000D02*
X130350000Y-99017000D01*
X126739000Y-98977000D02*
X127484000Y-98977000D01*
X129564000Y-98977000D02*
X130309000Y-98977000D01*
X126781000Y-98937000D02*
X127484000Y-98937000D01*
X129564000Y-98937000D02*
X130267000Y-98937000D01*
X126825000Y-98897000D02*
X127484000Y-98897000D01*
X129564000Y-98897000D02*
X130223000Y-98897000D01*
X126871000Y-98857000D02*
X127484000Y-98857000D01*
X129564000Y-98857000D02*
X130177000Y-98857000D01*
X126919000Y-98817000D02*
X127484000Y-98817000D01*
X129564000Y-98817000D02*
X130129000Y-98817000D01*
X126970000Y-98777000D02*
X127484000Y-98777000D01*
X129564000Y-98777000D02*
X130078000Y-98777000D01*
X127024000Y-98737000D02*
X127484000Y-98737000D01*
X129564000Y-98737000D02*
X130024000Y-98737000D01*
X127081000Y-98697000D02*
X127484000Y-98697000D01*
X129564000Y-98697000D02*
X129967000Y-98697000D01*
X127141000Y-98657000D02*
X127484000Y-98657000D01*
X129564000Y-98657000D02*
X129907000Y-98657000D01*
X127205000Y-98617000D02*
X127484000Y-98617000D01*
X129564000Y-98617000D02*
X129843000Y-98617000D01*
X127273000Y-98577000D02*
X127484000Y-98577000D01*
X129564000Y-98577000D02*
X129775000Y-98577000D01*
X127346000Y-98537000D02*
X129702000Y-98537000D01*
X127426000Y-98497000D02*
X129622000Y-98497000D01*
X127513000Y-98457000D02*
X129535000Y-98457000D01*
X127609000Y-98417000D02*
X129439000Y-98417000D01*
X127719000Y-98377000D02*
X129329000Y-98377000D01*
X127847000Y-98337000D02*
X129201000Y-98337000D01*
X128006000Y-98297000D02*
X129042000Y-98297000D01*
X128240000Y-98257000D02*
X128808000Y-98257000D01*
X127049000Y-103662775D02*
X127049000Y-103162775D01*
X126799000Y-103412775D02*
X127299000Y-103412775D01*
%TO.C,C1*%
X125556000Y-100858000D02*
G75*
G03*
X125556000Y-100858000I-2620000J0D01*
G01*
X120356000Y-100858000D02*
X125516000Y-100858000D01*
X120356000Y-100818000D02*
X125516000Y-100818000D01*
X120357000Y-100778000D02*
X125515000Y-100778000D01*
X120358000Y-100738000D02*
X125514000Y-100738000D01*
X120360000Y-100698000D02*
X125512000Y-100698000D01*
X120363000Y-100658000D02*
X125509000Y-100658000D01*
X120367000Y-100618000D02*
X121896000Y-100618000D01*
X123976000Y-100618000D02*
X125505000Y-100618000D01*
X120371000Y-100578000D02*
X121896000Y-100578000D01*
X123976000Y-100578000D02*
X125501000Y-100578000D01*
X120375000Y-100538000D02*
X121896000Y-100538000D01*
X123976000Y-100538000D02*
X125497000Y-100538000D01*
X120380000Y-100498000D02*
X121896000Y-100498000D01*
X123976000Y-100498000D02*
X125492000Y-100498000D01*
X120386000Y-100458000D02*
X121896000Y-100458000D01*
X123976000Y-100458000D02*
X125486000Y-100458000D01*
X120393000Y-100418000D02*
X121896000Y-100418000D01*
X123976000Y-100418000D02*
X125479000Y-100418000D01*
X120400000Y-100378000D02*
X121896000Y-100378000D01*
X123976000Y-100378000D02*
X125472000Y-100378000D01*
X120408000Y-100338000D02*
X121896000Y-100338000D01*
X123976000Y-100338000D02*
X125464000Y-100338000D01*
X120416000Y-100298000D02*
X121896000Y-100298000D01*
X123976000Y-100298000D02*
X125456000Y-100298000D01*
X120425000Y-100258000D02*
X121896000Y-100258000D01*
X123976000Y-100258000D02*
X125447000Y-100258000D01*
X120435000Y-100218000D02*
X121896000Y-100218000D01*
X123976000Y-100218000D02*
X125437000Y-100218000D01*
X120445000Y-100178000D02*
X121896000Y-100178000D01*
X123976000Y-100178000D02*
X125427000Y-100178000D01*
X120456000Y-100137000D02*
X121896000Y-100137000D01*
X123976000Y-100137000D02*
X125416000Y-100137000D01*
X120468000Y-100097000D02*
X121896000Y-100097000D01*
X123976000Y-100097000D02*
X125404000Y-100097000D01*
X120481000Y-100057000D02*
X121896000Y-100057000D01*
X123976000Y-100057000D02*
X125391000Y-100057000D01*
X120494000Y-100017000D02*
X121896000Y-100017000D01*
X123976000Y-100017000D02*
X125378000Y-100017000D01*
X120508000Y-99977000D02*
X121896000Y-99977000D01*
X123976000Y-99977000D02*
X125364000Y-99977000D01*
X120522000Y-99937000D02*
X121896000Y-99937000D01*
X123976000Y-99937000D02*
X125350000Y-99937000D01*
X120538000Y-99897000D02*
X121896000Y-99897000D01*
X123976000Y-99897000D02*
X125334000Y-99897000D01*
X120554000Y-99857000D02*
X121896000Y-99857000D01*
X123976000Y-99857000D02*
X125318000Y-99857000D01*
X120571000Y-99817000D02*
X121896000Y-99817000D01*
X123976000Y-99817000D02*
X125301000Y-99817000D01*
X120588000Y-99777000D02*
X121896000Y-99777000D01*
X123976000Y-99777000D02*
X125284000Y-99777000D01*
X120607000Y-99737000D02*
X121896000Y-99737000D01*
X123976000Y-99737000D02*
X125265000Y-99737000D01*
X120626000Y-99697000D02*
X121896000Y-99697000D01*
X123976000Y-99697000D02*
X125246000Y-99697000D01*
X120646000Y-99657000D02*
X121896000Y-99657000D01*
X123976000Y-99657000D02*
X125226000Y-99657000D01*
X120668000Y-99617000D02*
X121896000Y-99617000D01*
X123976000Y-99617000D02*
X125204000Y-99617000D01*
X120689000Y-99577000D02*
X121896000Y-99577000D01*
X123976000Y-99577000D02*
X125183000Y-99577000D01*
X120712000Y-99537000D02*
X121896000Y-99537000D01*
X123976000Y-99537000D02*
X125160000Y-99537000D01*
X120736000Y-99497000D02*
X121896000Y-99497000D01*
X123976000Y-99497000D02*
X125136000Y-99497000D01*
X120761000Y-99457000D02*
X121896000Y-99457000D01*
X123976000Y-99457000D02*
X125111000Y-99457000D01*
X120787000Y-99417000D02*
X121896000Y-99417000D01*
X123976000Y-99417000D02*
X125085000Y-99417000D01*
X120814000Y-99377000D02*
X121896000Y-99377000D01*
X123976000Y-99377000D02*
X125058000Y-99377000D01*
X120841000Y-99337000D02*
X121896000Y-99337000D01*
X123976000Y-99337000D02*
X125031000Y-99337000D01*
X120871000Y-99297000D02*
X121896000Y-99297000D01*
X123976000Y-99297000D02*
X125001000Y-99297000D01*
X120901000Y-99257000D02*
X121896000Y-99257000D01*
X123976000Y-99257000D02*
X124971000Y-99257000D01*
X120932000Y-99217000D02*
X121896000Y-99217000D01*
X123976000Y-99217000D02*
X124940000Y-99217000D01*
X120965000Y-99177000D02*
X121896000Y-99177000D01*
X123976000Y-99177000D02*
X124907000Y-99177000D01*
X120999000Y-99137000D02*
X121896000Y-99137000D01*
X123976000Y-99137000D02*
X124873000Y-99137000D01*
X121035000Y-99097000D02*
X121896000Y-99097000D01*
X123976000Y-99097000D02*
X124837000Y-99097000D01*
X121072000Y-99057000D02*
X121896000Y-99057000D01*
X123976000Y-99057000D02*
X124800000Y-99057000D01*
X121110000Y-99017000D02*
X121896000Y-99017000D01*
X123976000Y-99017000D02*
X124762000Y-99017000D01*
X121151000Y-98977000D02*
X121896000Y-98977000D01*
X123976000Y-98977000D02*
X124721000Y-98977000D01*
X121193000Y-98937000D02*
X121896000Y-98937000D01*
X123976000Y-98937000D02*
X124679000Y-98937000D01*
X121237000Y-98897000D02*
X121896000Y-98897000D01*
X123976000Y-98897000D02*
X124635000Y-98897000D01*
X121283000Y-98857000D02*
X121896000Y-98857000D01*
X123976000Y-98857000D02*
X124589000Y-98857000D01*
X121331000Y-98817000D02*
X121896000Y-98817000D01*
X123976000Y-98817000D02*
X124541000Y-98817000D01*
X121382000Y-98777000D02*
X121896000Y-98777000D01*
X123976000Y-98777000D02*
X124490000Y-98777000D01*
X121436000Y-98737000D02*
X121896000Y-98737000D01*
X123976000Y-98737000D02*
X124436000Y-98737000D01*
X121493000Y-98697000D02*
X121896000Y-98697000D01*
X123976000Y-98697000D02*
X124379000Y-98697000D01*
X121553000Y-98657000D02*
X121896000Y-98657000D01*
X123976000Y-98657000D02*
X124319000Y-98657000D01*
X121617000Y-98617000D02*
X121896000Y-98617000D01*
X123976000Y-98617000D02*
X124255000Y-98617000D01*
X121685000Y-98577000D02*
X121896000Y-98577000D01*
X123976000Y-98577000D02*
X124187000Y-98577000D01*
X121758000Y-98537000D02*
X124114000Y-98537000D01*
X121838000Y-98497000D02*
X124034000Y-98497000D01*
X121925000Y-98457000D02*
X123947000Y-98457000D01*
X122021000Y-98417000D02*
X123851000Y-98417000D01*
X122131000Y-98377000D02*
X123741000Y-98377000D01*
X122259000Y-98337000D02*
X123613000Y-98337000D01*
X122418000Y-98297000D02*
X123454000Y-98297000D01*
X122652000Y-98257000D02*
X123220000Y-98257000D01*
X121461000Y-103662775D02*
X121461000Y-103162775D01*
X121211000Y-103412775D02*
X121711000Y-103412775D01*
%TO.C,J4*%
D12*
X134794666Y-85094380D02*
X134794666Y-85808666D01*
X134747047Y-85951523D01*
X134651809Y-86046761D01*
X134508952Y-86094380D01*
X134413714Y-86094380D01*
X135699428Y-85427714D02*
X135699428Y-86094380D01*
X135461333Y-85046761D02*
X135223238Y-85761047D01*
X135842285Y-85761047D01*
%TO.C,J1*%
X117654380Y-87387333D02*
X118368666Y-87387333D01*
X118511523Y-87434952D01*
X118606761Y-87530190D01*
X118654380Y-87673047D01*
X118654380Y-87768285D01*
X118654380Y-86387333D02*
X118654380Y-86958761D01*
X118654380Y-86673047D02*
X117654380Y-86673047D01*
X117797238Y-86768285D01*
X117892476Y-86863523D01*
X117940095Y-86958761D01*
%TO.C,U2*%
X125222095Y-102878380D02*
X125222095Y-103687904D01*
X125269714Y-103783142D01*
X125317333Y-103830761D01*
X125412571Y-103878380D01*
X125603047Y-103878380D01*
X125698285Y-103830761D01*
X125745904Y-103783142D01*
X125793523Y-103687904D01*
X125793523Y-102878380D01*
X126222095Y-102973619D02*
X126269714Y-102926000D01*
X126364952Y-102878380D01*
X126603047Y-102878380D01*
X126698285Y-102926000D01*
X126745904Y-102973619D01*
X126793523Y-103068857D01*
X126793523Y-103164095D01*
X126745904Y-103306952D01*
X126174476Y-103878380D01*
X126793523Y-103878380D01*
%TO.C,U1*%
X139940627Y-53803125D02*
X139940627Y-54612961D01*
X139988264Y-54708236D01*
X140035902Y-54755874D01*
X140131176Y-54803511D01*
X140321726Y-54803511D01*
X140417001Y-54755874D01*
X140464638Y-54708236D01*
X140512276Y-54612961D01*
X140512276Y-53803125D01*
X141512662Y-54803511D02*
X140941013Y-54803511D01*
X141226837Y-54803511D02*
X141226837Y-53803125D01*
X141131562Y-53946037D01*
X141036288Y-54041312D01*
X140941013Y-54088950D01*
%TO.C,R4*%
X171791333Y-105946380D02*
X171458000Y-105470190D01*
X171219904Y-105946380D02*
X171219904Y-104946380D01*
X171600857Y-104946380D01*
X171696095Y-104994000D01*
X171743714Y-105041619D01*
X171791333Y-105136857D01*
X171791333Y-105279714D01*
X171743714Y-105374952D01*
X171696095Y-105422571D01*
X171600857Y-105470190D01*
X171219904Y-105470190D01*
X172648476Y-105279714D02*
X172648476Y-105946380D01*
X172410380Y-104898761D02*
X172172285Y-105613047D01*
X172791333Y-105613047D01*
%TO.C,R3*%
X171283333Y-98834380D02*
X170950000Y-98358190D01*
X170711904Y-98834380D02*
X170711904Y-97834380D01*
X171092857Y-97834380D01*
X171188095Y-97882000D01*
X171235714Y-97929619D01*
X171283333Y-98024857D01*
X171283333Y-98167714D01*
X171235714Y-98262952D01*
X171188095Y-98310571D01*
X171092857Y-98358190D01*
X170711904Y-98358190D01*
X171616666Y-97834380D02*
X172235714Y-97834380D01*
X171902380Y-98215333D01*
X172045238Y-98215333D01*
X172140476Y-98262952D01*
X172188095Y-98310571D01*
X172235714Y-98405809D01*
X172235714Y-98643904D01*
X172188095Y-98739142D01*
X172140476Y-98786761D01*
X172045238Y-98834380D01*
X171759523Y-98834380D01*
X171664285Y-98786761D01*
X171616666Y-98739142D01*
%TO.C,R2*%
X171791333Y-91214380D02*
X171458000Y-90738190D01*
X171219904Y-91214380D02*
X171219904Y-90214380D01*
X171600857Y-90214380D01*
X171696095Y-90262000D01*
X171743714Y-90309619D01*
X171791333Y-90404857D01*
X171791333Y-90547714D01*
X171743714Y-90642952D01*
X171696095Y-90690571D01*
X171600857Y-90738190D01*
X171219904Y-90738190D01*
X172172285Y-90309619D02*
X172219904Y-90262000D01*
X172315142Y-90214380D01*
X172553238Y-90214380D01*
X172648476Y-90262000D01*
X172696095Y-90309619D01*
X172743714Y-90404857D01*
X172743714Y-90500095D01*
X172696095Y-90642952D01*
X172124666Y-91214380D01*
X172743714Y-91214380D01*
%TO.C,R1*%
X131686380Y-105576666D02*
X131210190Y-105910000D01*
X131686380Y-106148095D02*
X130686380Y-106148095D01*
X130686380Y-105767142D01*
X130734000Y-105671904D01*
X130781619Y-105624285D01*
X130876857Y-105576666D01*
X131019714Y-105576666D01*
X131114952Y-105624285D01*
X131162571Y-105671904D01*
X131210190Y-105767142D01*
X131210190Y-106148095D01*
X131686380Y-104624285D02*
X131686380Y-105195714D01*
X131686380Y-104910000D02*
X130686380Y-104910000D01*
X130829238Y-105005238D01*
X130924476Y-105100476D01*
X130972095Y-105195714D01*
%TO.C,J3*%
X131238666Y-85094380D02*
X131238666Y-85808666D01*
X131191047Y-85951523D01*
X131095809Y-86046761D01*
X130952952Y-86094380D01*
X130857714Y-86094380D01*
X131619619Y-85094380D02*
X132238666Y-85094380D01*
X131905333Y-85475333D01*
X132048190Y-85475333D01*
X132143428Y-85522952D01*
X132191047Y-85570571D01*
X132238666Y-85665809D01*
X132238666Y-85903904D01*
X132191047Y-85999142D01*
X132143428Y-86046761D01*
X132048190Y-86094380D01*
X131762476Y-86094380D01*
X131667238Y-86046761D01*
X131619619Y-85999142D01*
%TO.C,J2*%
X130730666Y-72096380D02*
X130730666Y-72810666D01*
X130683047Y-72953523D01*
X130587809Y-73048761D01*
X130444952Y-73096380D01*
X130349714Y-73096380D01*
X131159238Y-72191619D02*
X131206857Y-72144000D01*
X131302095Y-72096380D01*
X131540190Y-72096380D01*
X131635428Y-72144000D01*
X131683047Y-72191619D01*
X131730666Y-72286857D01*
X131730666Y-72382095D01*
X131683047Y-72524952D01*
X131111619Y-73096380D01*
X131730666Y-73096380D01*
%TO.C,D4*%
X179855904Y-107536380D02*
X179855904Y-106536380D01*
X180094000Y-106536380D01*
X180236857Y-106584000D01*
X180332095Y-106679238D01*
X180379714Y-106774476D01*
X180427333Y-106964952D01*
X180427333Y-107107809D01*
X180379714Y-107298285D01*
X180332095Y-107393523D01*
X180236857Y-107488761D01*
X180094000Y-107536380D01*
X179855904Y-107536380D01*
X181284476Y-106869714D02*
X181284476Y-107536380D01*
X181046380Y-106488761D02*
X180808285Y-107203047D01*
X181427333Y-107203047D01*
%TO.C,D3*%
X179855904Y-100424380D02*
X179855904Y-99424380D01*
X180094000Y-99424380D01*
X180236857Y-99472000D01*
X180332095Y-99567238D01*
X180379714Y-99662476D01*
X180427333Y-99852952D01*
X180427333Y-99995809D01*
X180379714Y-100186285D01*
X180332095Y-100281523D01*
X180236857Y-100376761D01*
X180094000Y-100424380D01*
X179855904Y-100424380D01*
X180760666Y-99424380D02*
X181379714Y-99424380D01*
X181046380Y-99805333D01*
X181189238Y-99805333D01*
X181284476Y-99852952D01*
X181332095Y-99900571D01*
X181379714Y-99995809D01*
X181379714Y-100233904D01*
X181332095Y-100329142D01*
X181284476Y-100376761D01*
X181189238Y-100424380D01*
X180903523Y-100424380D01*
X180808285Y-100376761D01*
X180760666Y-100329142D01*
%TO.C,D2*%
X179855904Y-92804380D02*
X179855904Y-91804380D01*
X180094000Y-91804380D01*
X180236857Y-91852000D01*
X180332095Y-91947238D01*
X180379714Y-92042476D01*
X180427333Y-92232952D01*
X180427333Y-92375809D01*
X180379714Y-92566285D01*
X180332095Y-92661523D01*
X180236857Y-92756761D01*
X180094000Y-92804380D01*
X179855904Y-92804380D01*
X180808285Y-91899619D02*
X180855904Y-91852000D01*
X180951142Y-91804380D01*
X181189238Y-91804380D01*
X181284476Y-91852000D01*
X181332095Y-91899619D01*
X181379714Y-91994857D01*
X181379714Y-92090095D01*
X181332095Y-92232952D01*
X180760666Y-92804380D01*
X181379714Y-92804380D01*
%TO.C,D1*%
X137000380Y-94464095D02*
X136000380Y-94464095D01*
X136000380Y-94226000D01*
X136048000Y-94083142D01*
X136143238Y-93987904D01*
X136238476Y-93940285D01*
X136428952Y-93892666D01*
X136571809Y-93892666D01*
X136762285Y-93940285D01*
X136857523Y-93987904D01*
X136952761Y-94083142D01*
X137000380Y-94226000D01*
X137000380Y-94464095D01*
X137000380Y-92940285D02*
X137000380Y-93511714D01*
X137000380Y-93226000D02*
X136000380Y-93226000D01*
X136143238Y-93321238D01*
X136238476Y-93416476D01*
X136286095Y-93511714D01*
%TO.C,C2*%
X125131142Y-101024666D02*
X125178761Y-101072285D01*
X125226380Y-101215142D01*
X125226380Y-101310380D01*
X125178761Y-101453238D01*
X125083523Y-101548476D01*
X124988285Y-101596095D01*
X124797809Y-101643714D01*
X124654952Y-101643714D01*
X124464476Y-101596095D01*
X124369238Y-101548476D01*
X124274000Y-101453238D01*
X124226380Y-101310380D01*
X124226380Y-101215142D01*
X124274000Y-101072285D01*
X124321619Y-101024666D01*
X124321619Y-100643714D02*
X124274000Y-100596095D01*
X124226380Y-100500857D01*
X124226380Y-100262761D01*
X124274000Y-100167523D01*
X124321619Y-100119904D01*
X124416857Y-100072285D01*
X124512095Y-100072285D01*
X124654952Y-100119904D01*
X125226380Y-100691333D01*
X125226380Y-100072285D01*
%TO.C,C1*%
X119543142Y-101024666D02*
X119590761Y-101072285D01*
X119638380Y-101215142D01*
X119638380Y-101310380D01*
X119590761Y-101453238D01*
X119495523Y-101548476D01*
X119400285Y-101596095D01*
X119209809Y-101643714D01*
X119066952Y-101643714D01*
X118876476Y-101596095D01*
X118781238Y-101548476D01*
X118686000Y-101453238D01*
X118638380Y-101310380D01*
X118638380Y-101215142D01*
X118686000Y-101072285D01*
X118733619Y-101024666D01*
X119638380Y-100072285D02*
X119638380Y-100643714D01*
X119638380Y-100358000D02*
X118638380Y-100358000D01*
X118781238Y-100453238D01*
X118876476Y-100548476D01*
X118924095Y-100643714D01*
%TD*%
M02*
