%TF.GenerationSoftware,KiCad,Pcbnew,(5.1.12)-1*%
%TF.CreationDate,2022-02-17T13:10:06+05:30*%
%TF.ProjectId,food_spoil,666f6f64-5f73-4706-9f69-6c2e6b696361,rev?*%
%TF.SameCoordinates,Original*%
%TF.FileFunction,Copper,L2,Bot*%
%TF.FilePolarity,Positive*%
%FSLAX46Y46*%
G04 Gerber Fmt 4.6, Leading zero omitted, Abs format (unit mm)*
G04 Created by KiCad (PCBNEW (5.1.12)-1) date 2022-02-17 13:10:06*
%MOMM*%
%LPD*%
G01*
G04 APERTURE LIST*
%TA.AperFunction,ComponentPad*%
%ADD10O,1.600000X1.600000*%
%TD*%
%TA.AperFunction,ComponentPad*%
%ADD11C,1.600000*%
%TD*%
%TA.AperFunction,ComponentPad*%
%ADD12R,1.500000X1.500000*%
%TD*%
%TA.AperFunction,ComponentPad*%
%ADD13C,1.500000*%
%TD*%
%TA.AperFunction,ComponentPad*%
%ADD14O,2.500000X2.500000*%
%TD*%
%TA.AperFunction,ComponentPad*%
%ADD15R,2.500000X2.500000*%
%TD*%
%TA.AperFunction,ComponentPad*%
%ADD16C,2.600000*%
%TD*%
%TA.AperFunction,ComponentPad*%
%ADD17R,2.600000X2.600000*%
%TD*%
%TA.AperFunction,ComponentPad*%
%ADD18C,1.524000*%
%TD*%
%TA.AperFunction,ComponentPad*%
%ADD19O,1.905000X2.000000*%
%TD*%
%TA.AperFunction,ComponentPad*%
%ADD20R,1.905000X2.000000*%
%TD*%
%TA.AperFunction,ComponentPad*%
%ADD21O,1.700000X1.700000*%
%TD*%
%TA.AperFunction,ComponentPad*%
%ADD22R,1.700000X1.700000*%
%TD*%
%TA.AperFunction,ComponentPad*%
%ADD23C,1.800000*%
%TD*%
%TA.AperFunction,ComponentPad*%
%ADD24R,1.800000X1.800000*%
%TD*%
%TA.AperFunction,ComponentPad*%
%ADD25O,2.200000X2.200000*%
%TD*%
%TA.AperFunction,ComponentPad*%
%ADD26R,2.200000X2.200000*%
%TD*%
%TA.AperFunction,ComponentPad*%
%ADD27R,1.600000X1.600000*%
%TD*%
%TA.AperFunction,ComponentPad*%
%ADD28R,2.000000X2.000000*%
%TD*%
%TA.AperFunction,ComponentPad*%
%ADD29C,2.000000*%
%TD*%
G04 APERTURE END LIST*
D10*
%TO.P,R1,2*%
%TO.N,Net-(D1-Pad2)*%
X67500500Y-101854000D03*
D11*
%TO.P,R1,1*%
%TO.N,Net-(C2-Pad1)*%
X57340500Y-101854000D03*
%TD*%
D10*
%TO.P,R3,2*%
%TO.N,Net-(D3-Pad2)*%
X69723000Y-43561000D03*
D11*
%TO.P,R3,1*%
%TO.N,+5V*%
X79883000Y-43561000D03*
%TD*%
D12*
%TO.P,Q1,1*%
%TO.N,Net-(D2-Pad2)*%
X56832500Y-48196500D03*
D13*
%TO.P,Q1,3*%
%TO.N,GND*%
X56832500Y-43116500D03*
%TO.P,Q1,2*%
%TO.N,Net-(Q1-Pad2)*%
X56832500Y-45656500D03*
%TD*%
D14*
%TO.P,K1,5*%
%TO.N,Net-(D2-Pad2)*%
X43592000Y-56610000D03*
%TO.P,K1,4*%
%TO.N,Net-(K1-Pad4)*%
X43592000Y-68810000D03*
%TO.P,K1,3*%
%TO.N,Net-(J6-Pad1)*%
X31592000Y-68810000D03*
%TO.P,K1,2*%
%TO.N,+5V*%
X31592000Y-56610000D03*
D15*
%TO.P,K1,1*%
%TO.N,Net-(J6-Pad2)*%
X37592000Y-54610000D03*
%TD*%
D16*
%TO.P,J8,2*%
%TO.N,Net-(C2-Pad1)*%
X36703000Y-96520000D03*
D17*
%TO.P,J8,1*%
%TO.N,+5V*%
X36703000Y-91440000D03*
%TD*%
D18*
%TO.P,U2,30*%
%TO.N,TX_gsm*%
X75934600Y-56409100D03*
%TO.P,U2,29*%
%TO.N,RX_gsm*%
X75934600Y-58949100D03*
%TO.P,U2,28*%
%TO.N,Engine*%
X75934600Y-61489100D03*
%TO.P,U2,27*%
%TO.N,TX_gps*%
X75934600Y-64029100D03*
%TO.P,U2,26*%
%TO.N,RX_gps*%
X75934600Y-66569100D03*
%TO.P,U2,25*%
%TO.N,Net-(U2-Pad25)*%
X75934600Y-69109100D03*
%TO.P,U2,24*%
%TO.N,GND*%
X75934600Y-71649100D03*
%TO.P,U2,23*%
%TO.N,buzz*%
X75934600Y-74189100D03*
%TO.P,U2,22*%
%TO.N,Net-(U2-Pad22)*%
X75934600Y-76729100D03*
%TO.P,U2,21*%
%TO.N,SDA*%
X75934600Y-79269100D03*
%TO.P,U2,20*%
%TO.N,SCL*%
X75934600Y-81809100D03*
%TO.P,U2,19*%
%TO.N,Net-(U2-Pad19)*%
X75934600Y-84349100D03*
%TO.P,U2,18*%
%TO.N,Net-(U2-Pad18)*%
X75934600Y-86889100D03*
%TO.P,U2,17*%
%TO.N,GND*%
X75934600Y-89429100D03*
%TO.P,U2,16*%
%TO.N,Net-(U2-Pad16)*%
X75934600Y-91969100D03*
%TO.P,U2,15*%
%TO.N,+5V*%
X47994600Y-91969100D03*
%TO.P,U2,14*%
%TO.N,GND*%
X47994600Y-89429100D03*
%TO.P,U2,13*%
%TO.N,Net-(U2-Pad13)*%
X47994600Y-86889100D03*
%TO.P,U2,12*%
%TO.N,Net-(U2-Pad12)*%
X47994600Y-84349100D03*
%TO.P,U2,11*%
%TO.N,Net-(U2-Pad11)*%
X47994600Y-81809100D03*
%TO.P,U2,10*%
%TO.N,GND*%
X47994600Y-79269100D03*
%TO.P,U2,9*%
%TO.N,Net-(U2-Pad9)*%
X47994600Y-76729100D03*
%TO.P,U2,8*%
%TO.N,Net-(U2-Pad8)*%
X47994600Y-74189100D03*
%TO.P,U2,7*%
%TO.N,Net-(U2-Pad7)*%
X47994600Y-71649100D03*
%TO.P,U2,6*%
%TO.N,Net-(U2-Pad6)*%
X47994600Y-69109100D03*
%TO.P,U2,5*%
%TO.N,Net-(U2-Pad5)*%
X47994600Y-66569100D03*
%TO.P,U2,4*%
%TO.N,Net-(U2-Pad4)*%
X47994600Y-64029100D03*
%TO.P,U2,3*%
%TO.N,Net-(U2-Pad3)*%
X47994600Y-61489100D03*
%TO.P,U2,2*%
%TO.N,Net-(U2-Pad2)*%
X47994600Y-58949100D03*
%TO.P,U2,1*%
%TO.N,Net-(U2-Pad1)*%
X47994600Y-56409100D03*
%TD*%
D19*
%TO.P,U1,3*%
%TO.N,Net-(C2-Pad1)*%
X53022500Y-102235000D03*
%TO.P,U1,2*%
%TO.N,GND*%
X50482500Y-102235000D03*
D20*
%TO.P,U1,1*%
%TO.N,Net-(C1-Pad1)*%
X47942500Y-102235000D03*
%TD*%
D10*
%TO.P,R2,2*%
%TO.N,Engine*%
X70802500Y-47561500D03*
D11*
%TO.P,R2,1*%
%TO.N,Net-(Q1-Pad2)*%
X60642500Y-47561500D03*
%TD*%
D21*
%TO.P,J7,4*%
%TO.N,GND*%
X82677000Y-95758000D03*
%TO.P,J7,3*%
%TO.N,SCL*%
X82677000Y-93218000D03*
%TO.P,J7,2*%
%TO.N,SDA*%
X82677000Y-90678000D03*
D22*
%TO.P,J7,1*%
%TO.N,+5V*%
X82677000Y-88138000D03*
%TD*%
D16*
%TO.P,J6,2*%
%TO.N,Net-(J6-Pad2)*%
X36385500Y-83566000D03*
D17*
%TO.P,J6,1*%
%TO.N,Net-(J6-Pad1)*%
X36385500Y-78486000D03*
%TD*%
D21*
%TO.P,J5,4*%
%TO.N,GND*%
X82550000Y-61468000D03*
%TO.P,J5,3*%
%TO.N,RX_gsm*%
X82550000Y-58928000D03*
%TO.P,J5,2*%
%TO.N,TX_gsm*%
X82550000Y-56388000D03*
D22*
%TO.P,J5,1*%
%TO.N,+5V*%
X82550000Y-53848000D03*
%TD*%
D21*
%TO.P,J4,4*%
%TO.N,GND*%
X74866500Y-47561500D03*
%TO.P,J4,3*%
%TO.N,Engine*%
X77406500Y-47561500D03*
%TO.P,J4,2*%
%TO.N,+5V*%
X79946500Y-47561500D03*
D22*
%TO.P,J4,1*%
X82486500Y-47561500D03*
%TD*%
D21*
%TO.P,J3,4*%
%TO.N,GND*%
X82677000Y-73279000D03*
%TO.P,J3,3*%
%TO.N,RX_gps*%
X82677000Y-70739000D03*
%TO.P,J3,2*%
%TO.N,TX_gps*%
X82677000Y-68199000D03*
D22*
%TO.P,J3,1*%
%TO.N,GND*%
X82677000Y-65659000D03*
%TD*%
D21*
%TO.P,J2,4*%
%TO.N,GND*%
X82677000Y-76898500D03*
%TO.P,J2,3*%
%TO.N,buzz*%
X82677000Y-79438500D03*
%TO.P,J2,2*%
%TO.N,+5V*%
X82677000Y-81978500D03*
D22*
%TO.P,J2,1*%
X82677000Y-84518500D03*
%TD*%
D16*
%TO.P,J1,2*%
%TO.N,Net-(C1-Pad1)*%
X36703000Y-107886500D03*
D17*
%TO.P,J1,1*%
%TO.N,GND*%
X36703000Y-102806500D03*
%TD*%
D23*
%TO.P,D3,2*%
%TO.N,Net-(D3-Pad2)*%
X63944500Y-43815000D03*
D24*
%TO.P,D3,1*%
%TO.N,Net-(D2-Pad2)*%
X63944500Y-41275000D03*
%TD*%
D25*
%TO.P,D2,2*%
%TO.N,Net-(D2-Pad2)*%
X52387500Y-47879000D03*
D26*
%TO.P,D2,1*%
%TO.N,+5V*%
X42227500Y-47879000D03*
%TD*%
D23*
%TO.P,D1,2*%
%TO.N,Net-(D1-Pad2)*%
X72771000Y-101917500D03*
D24*
%TO.P,D1,1*%
%TO.N,GND*%
X72771000Y-104457500D03*
%TD*%
D11*
%TO.P,C2,2*%
%TO.N,GND*%
X53657500Y-108989500D03*
D27*
%TO.P,C2,1*%
%TO.N,Net-(C2-Pad1)*%
X53657500Y-106489500D03*
%TD*%
D11*
%TO.P,C1,2*%
%TO.N,GND*%
X46355000Y-108862500D03*
D27*
%TO.P,C1,1*%
%TO.N,Net-(C1-Pad1)*%
X46355000Y-106362500D03*
%TD*%
D28*
%TO.P,BZ1,1*%
%TO.N,buzz*%
X62382400Y-73774300D03*
D29*
%TO.P,BZ1,2*%
%TO.N,GND*%
X62382400Y-83774300D03*
%TD*%
M02*
