M48
; DRILL file {KiCad (5.1.12)-1} date 02/17/22 13:15:50
; FORMAT={-:-/ absolute / inch / decimal}
; #@! TF.CreationDate,2022-02-17T13:15:50+05:30
; #@! TF.GenerationSoftware,Kicad,Pcbnew,(5.1.12)-1
; #@! TF.FileFunction,Plated,1,2,PTH
FMAT,2
INCH
T1C0.0300
T2C0.0315
T3C0.0354
T4C0.0394
T5C0.0433
T6C0.0512
%
G90
G05
T1
X1.783Y-1.6675
X1.783Y-1.7675
X1.783Y-1.8675
X1.783Y-1.9675
X1.783Y-2.0675
X1.783Y-2.1675
X1.783Y-2.2675
X1.783Y-2.3675
X1.783Y-2.4675
X1.783Y-2.5675
X1.783Y-2.6675
X1.783Y-2.7675
X1.783Y-2.8675
X1.783Y-2.9675
X1.783Y-3.0675
X2.883Y-1.6675
X2.883Y-1.7675
X2.883Y-1.8675
X2.883Y-1.9675
X2.883Y-2.0675
X2.883Y-2.1675
X2.883Y-2.2675
X2.883Y-2.3675
X2.883Y-2.4675
X2.883Y-2.5675
X2.883Y-2.6675
X2.883Y-2.7675
X2.883Y-2.8675
X2.883Y-2.9675
X2.883Y-3.0675
T2
X1.15Y-3.3035
X1.15Y-3.4019
X1.469Y-3.2995
X1.469Y-3.3979
X1.517Y-2.5445
X1.517Y-2.8445
X1.864Y-1.1345
X1.924Y-3.8225
X1.924Y-4.1225
X2.164Y-1.1345
X2.455Y-3.8225
X2.455Y-4.1225
X2.896Y-0.7985
X2.896Y-1.0985
X3.055Y-3.6335
X3.055Y-3.9335
X3.209Y-1.1685
X3.209Y-1.4685
X3.27Y-3.9575
X3.27Y-4.0575
X3.27Y-4.1575
X3.325Y-1.9875
X3.325Y-2.2875
X3.422Y-2.6135
X3.422Y-2.9135
X3.431Y-1.4265
X3.431Y-1.5265
X3.431Y-1.6265
X3.524Y-2.2395
X3.524Y-2.3395
X3.524Y-2.4395
X3.573Y-3.0875
X3.573Y-3.1875
X3.573Y-3.2875
X3.592Y-3.4005
X3.592Y-3.7005
X3.704Y-0.8425
X3.704Y-1.1425
X3.787Y-1.7145
X3.787Y-2.0145
X3.825Y-2.5645
X3.825Y-2.8645
T3
X1.519Y-2.3525
X1.619Y-2.3525
X3.59Y-3.8255
X3.59Y-3.9255
X3.705Y-1.2765
X3.705Y-1.3765
X3.789Y-2.1555
X3.789Y-2.2555
X3.822Y-3.0155
X3.822Y-3.1155
T4
X1.358Y-2.2925
X1.358Y-2.3925
X1.358Y-2.4925
X1.358Y-2.6505
X1.358Y-2.7505
X1.358Y-2.8505
T5
X1.347Y-3.0725
X1.447Y-3.0725
X1.547Y-3.0725
X1.8871Y-0.8193
X1.8871Y-0.9965
X2.0641Y-3.8773
X2.0641Y-4.0545
X2.143Y-0.8193
X2.143Y-0.9965
X2.32Y-3.8773
X2.32Y-4.0545
X2.6051Y-3.8745
X2.6051Y-4.0517
X2.861Y-3.8745
X2.861Y-4.0517
X3.0321Y-0.8793
X3.0321Y-1.0565
X3.278Y-3.4165
X3.278Y-3.8165
X3.288Y-0.8793
X3.288Y-1.0565
X3.44Y-0.8965
X3.44Y-1.2965
X3.561Y-1.7145
X3.561Y-2.1145
X3.607Y-2.5655
X3.607Y-2.9655
T6
X3.967Y-3.6865
X4.029Y-1.1385
X4.0457Y-3.4503
X4.0457Y-3.9227
X4.056Y-2.0155
X4.09Y-2.8575
X4.1077Y-0.9023
X4.1077Y-1.3747
X4.1347Y-1.7793
X4.1347Y-2.2517
X4.1687Y-2.6213
X4.1687Y-3.0937
X4.5261Y-3.4503
X4.5261Y-3.9227
X4.5881Y-0.9023
X4.5881Y-1.3747
X4.6151Y-1.7793
X4.6151Y-2.2517
X4.6491Y-2.6213
X4.6491Y-3.0937
X5.15Y-1.8198
X5.15Y-2.0166
X5.15Y-2.2135
X5.156Y-0.9368
X5.156Y-1.1336
X5.156Y-1.3305
X5.167Y-2.6468
X5.167Y-2.8436
X5.167Y-3.0405
X5.172Y-3.4188
X5.172Y-3.6156
X5.172Y-3.8125
T4
G00X1.3226Y-3.6175
M15
G01X1.4014Y-3.6175
M16
G05
G00X1.3226Y-3.8537
M15
G01X1.4014Y-3.8537
M16
G05
G00X1.547Y-3.775
M15
G01X1.547Y-3.6962
M16
G05
T0
M30
