%TF.GenerationSoftware,KiCad,Pcbnew,(5.1.12)-1*%
%TF.CreationDate,2022-02-17T13:15:52+05:30*%
%TF.ProjectId,homeAutomation,686f6d65-4175-4746-9f6d-6174696f6e2e,rev?*%
%TF.SameCoordinates,Original*%
%TF.FileFunction,Legend,Top*%
%TF.FilePolarity,Positive*%
%FSLAX46Y46*%
G04 Gerber Fmt 4.6, Leading zero omitted, Abs format (unit mm)*
G04 Created by KiCad (PCBNEW (5.1.12)-1) date 2022-02-17 13:15:52*
%MOMM*%
%LPD*%
G01*
G04 APERTURE LIST*
%ADD10C,0.120000*%
%ADD11C,0.150000*%
G04 APERTURE END LIST*
D10*
%TO.C,SW2*%
X53432200Y-19811100D02*
X48932200Y-19811100D01*
X54682200Y-23811100D02*
X54682200Y-22311100D01*
X48932200Y-26311100D02*
X53432200Y-26311100D01*
X47682200Y-22311100D02*
X47682200Y-23811100D01*
%TO.C,R4*%
X74598400Y-20821900D02*
X74928400Y-20821900D01*
X74928400Y-20821900D02*
X74928400Y-27361900D01*
X74928400Y-27361900D02*
X74598400Y-27361900D01*
X72518400Y-20821900D02*
X72188400Y-20821900D01*
X72188400Y-20821900D02*
X72188400Y-27361900D01*
X72188400Y-27361900D02*
X72518400Y-27361900D01*
D11*
%TO.C,U1*%
X73754251Y-86804500D02*
G75*
G03*
X73754251Y-86804500I-1796051J0D01*
G01*
X48354251Y-86804500D02*
G75*
G03*
X48354251Y-86804500I-1796051J0D01*
G01*
X48354251Y-34734500D02*
G75*
G03*
X48354251Y-34734500I-1796051J0D01*
G01*
X73754251Y-34734500D02*
G75*
G03*
X73754251Y-34734500I-1796051J0D01*
G01*
X74508200Y-32174500D02*
X44508200Y-32174500D01*
X44508200Y-32174500D02*
X44008200Y-32174500D01*
X44008200Y-32174500D02*
X44008200Y-89174500D01*
X44008200Y-89174500D02*
X74508200Y-89174500D01*
X74508200Y-89174500D02*
X74508200Y-32174500D01*
D10*
%TO.C,SW1*%
X82515200Y-21335100D02*
X78015200Y-21335100D01*
X83765200Y-25335100D02*
X83765200Y-23835100D01*
X78015200Y-27835100D02*
X82515200Y-27835100D01*
X76765200Y-23835100D02*
X76765200Y-25335100D01*
%TO.C,Q4*%
X87659600Y-57623300D02*
X87659600Y-61223300D01*
X88386805Y-61747484D02*
G75*
G02*
X87659600Y-61223300I1122795J2324184D01*
G01*
X90608407Y-61779700D02*
G75*
G03*
X92109600Y-59423300I-1098807J2356400D01*
G01*
X90608407Y-57066900D02*
G75*
G02*
X92109600Y-59423300I-1098807J-2356400D01*
G01*
X88386805Y-57099116D02*
G75*
G03*
X87659600Y-57623300I1122795J-2324184D01*
G01*
%TO.C,Q3*%
X85297400Y-36973100D02*
X85297400Y-40573100D01*
X86024605Y-41097284D02*
G75*
G02*
X85297400Y-40573100I1122795J2324184D01*
G01*
X88246207Y-41129500D02*
G75*
G03*
X89747400Y-38773100I-1098807J2356400D01*
G01*
X88246207Y-36416700D02*
G75*
G02*
X89747400Y-38773100I-1098807J-2356400D01*
G01*
X86024605Y-36448916D02*
G75*
G03*
X85297400Y-36973100I1122795J-2324184D01*
G01*
%TO.C,Q2*%
X88904200Y-79162500D02*
X88904200Y-82762500D01*
X89631405Y-83286684D02*
G75*
G02*
X88904200Y-82762500I1122795J2324184D01*
G01*
X91853007Y-83318900D02*
G75*
G03*
X93354200Y-80962500I-1098807J2356400D01*
G01*
X91853007Y-78606100D02*
G75*
G02*
X93354200Y-80962500I-1098807J-2356400D01*
G01*
X89631405Y-78638316D02*
G75*
G03*
X88904200Y-79162500I1122795J-2324184D01*
G01*
%TO.C,Q1*%
X81208000Y-101260500D02*
X81208000Y-104860500D01*
X81935205Y-105384684D02*
G75*
G02*
X81208000Y-104860500I1122795J2324184D01*
G01*
X84156807Y-105416900D02*
G75*
G03*
X85658000Y-103060500I-1098807J2356400D01*
G01*
X84156807Y-100704100D02*
G75*
G02*
X85658000Y-103060500I-1098807J-2356400D01*
G01*
X81935205Y-100736316D02*
G75*
G03*
X81208000Y-101260500I1122795J-2324184D01*
G01*
%TO.C,U2*%
X31633800Y-74771500D02*
X41873800Y-74771500D01*
X31633800Y-79412500D02*
X41873800Y-79412500D01*
X31633800Y-74771500D02*
X31633800Y-79412500D01*
X41873800Y-74771500D02*
X41873800Y-79412500D01*
X31633800Y-76281500D02*
X41873800Y-76281500D01*
X34903800Y-74771500D02*
X34903800Y-76281500D01*
X38604800Y-74771500D02*
X38604800Y-76281500D01*
%TO.C,SW4*%
X67169400Y-103912300D02*
X71669400Y-103912300D01*
X65919400Y-99912300D02*
X65919400Y-101412300D01*
X71669400Y-97412300D02*
X67169400Y-97412300D01*
X72919400Y-101412300D02*
X72919400Y-99912300D01*
%TO.C,SW3*%
X53428000Y-103984300D02*
X57928000Y-103984300D01*
X52178000Y-99984300D02*
X52178000Y-101484300D01*
X57928000Y-97484300D02*
X53428000Y-97484300D01*
X59178000Y-101484300D02*
X59178000Y-99984300D01*
%TO.C,R14*%
X97229800Y-44088300D02*
X97559800Y-44088300D01*
X97559800Y-44088300D02*
X97559800Y-50628300D01*
X97559800Y-50628300D02*
X97229800Y-50628300D01*
X95149800Y-44088300D02*
X94819800Y-44088300D01*
X94819800Y-44088300D02*
X94819800Y-50628300D01*
X94819800Y-50628300D02*
X95149800Y-50628300D01*
%TO.C,R13*%
X95121600Y-21939500D02*
X95451600Y-21939500D01*
X95451600Y-21939500D02*
X95451600Y-28479500D01*
X95451600Y-28479500D02*
X95121600Y-28479500D01*
X93041600Y-21939500D02*
X92711600Y-21939500D01*
X92711600Y-21939500D02*
X92711600Y-28479500D01*
X92711600Y-28479500D02*
X93041600Y-28479500D01*
%TO.C,R12*%
X98195000Y-65678300D02*
X98525000Y-65678300D01*
X98525000Y-65678300D02*
X98525000Y-72218300D01*
X98525000Y-72218300D02*
X98195000Y-72218300D01*
X96115000Y-65678300D02*
X95785000Y-65678300D01*
X95785000Y-65678300D02*
X95785000Y-72218300D01*
X95785000Y-72218300D02*
X96115000Y-72218300D01*
%TO.C,R11*%
X83415000Y-57562500D02*
X83085000Y-57562500D01*
X83085000Y-57562500D02*
X83085000Y-51022500D01*
X83085000Y-51022500D02*
X83415000Y-51022500D01*
X85495000Y-57562500D02*
X85825000Y-57562500D01*
X85825000Y-57562500D02*
X85825000Y-51022500D01*
X85825000Y-51022500D02*
X85495000Y-51022500D01*
%TO.C,R10*%
X80468600Y-36759900D02*
X80138600Y-36759900D01*
X80138600Y-36759900D02*
X80138600Y-30219900D01*
X80138600Y-30219900D02*
X80468600Y-30219900D01*
X82548600Y-36759900D02*
X82878600Y-36759900D01*
X82878600Y-36759900D02*
X82878600Y-30219900D01*
X82878600Y-30219900D02*
X82548600Y-30219900D01*
%TO.C,R9*%
X85878800Y-73462900D02*
X85548800Y-73462900D01*
X85548800Y-73462900D02*
X85548800Y-66922900D01*
X85548800Y-66922900D02*
X85878800Y-66922900D01*
X87958800Y-73462900D02*
X88288800Y-73462900D01*
X88288800Y-73462900D02*
X88288800Y-66922900D01*
X88288800Y-66922900D02*
X87958800Y-66922900D01*
%TO.C,R8*%
X61317000Y-104171500D02*
X60987000Y-104171500D01*
X60987000Y-104171500D02*
X60987000Y-97631500D01*
X60987000Y-97631500D02*
X61317000Y-97631500D01*
X63397000Y-104171500D02*
X63727000Y-104171500D01*
X63727000Y-104171500D02*
X63727000Y-97631500D01*
X63727000Y-97631500D02*
X63397000Y-97631500D01*
%TO.C,R7*%
X54425600Y-29856300D02*
X54425600Y-30186300D01*
X54425600Y-30186300D02*
X47885600Y-30186300D01*
X47885600Y-30186300D02*
X47885600Y-29856300D01*
X54425600Y-27776300D02*
X54425600Y-27446300D01*
X54425600Y-27446300D02*
X47885600Y-27446300D01*
X47885600Y-27446300D02*
X47885600Y-27776300D01*
%TO.C,R6*%
X92276800Y-86912700D02*
X92606800Y-86912700D01*
X92606800Y-86912700D02*
X92606800Y-93452700D01*
X92606800Y-93452700D02*
X92276800Y-93452700D01*
X90196800Y-86912700D02*
X89866800Y-86912700D01*
X89866800Y-86912700D02*
X89866800Y-93452700D01*
X89866800Y-93452700D02*
X90196800Y-93452700D01*
%TO.C,R5*%
X47829600Y-104171500D02*
X47499600Y-104171500D01*
X47499600Y-104171500D02*
X47499600Y-97631500D01*
X47499600Y-97631500D02*
X47829600Y-97631500D01*
X49909600Y-104171500D02*
X50239600Y-104171500D01*
X50239600Y-104171500D02*
X50239600Y-97631500D01*
X50239600Y-97631500D02*
X49909600Y-97631500D01*
%TO.C,R3*%
X76557000Y-99370900D02*
X76227000Y-99370900D01*
X76227000Y-99370900D02*
X76227000Y-92830900D01*
X76227000Y-92830900D02*
X76557000Y-92830900D01*
X78637000Y-99370900D02*
X78967000Y-99370900D01*
X78967000Y-99370900D02*
X78967000Y-92830900D01*
X78967000Y-92830900D02*
X78637000Y-92830900D01*
%TO.C,R1*%
X37491800Y-71710300D02*
X37161800Y-71710300D01*
X37161800Y-71710300D02*
X37161800Y-65170300D01*
X37161800Y-65170300D02*
X37491800Y-65170300D01*
X39571800Y-71710300D02*
X39901800Y-71710300D01*
X39901800Y-71710300D02*
X39901800Y-65170300D01*
X39901800Y-65170300D02*
X39571800Y-65170300D01*
%TO.C,J10*%
X35823200Y-56899500D02*
X33163200Y-56899500D01*
X35823200Y-62039500D02*
X35823200Y-56899500D01*
X33163200Y-62039500D02*
X33163200Y-56899500D01*
X35823200Y-62039500D02*
X33163200Y-62039500D01*
X35823200Y-63309500D02*
X35823200Y-64639500D01*
X35823200Y-64639500D02*
X34493200Y-64639500D01*
%TO.C,J9*%
X35823200Y-65992700D02*
X33163200Y-65992700D01*
X35823200Y-71132700D02*
X35823200Y-65992700D01*
X33163200Y-71132700D02*
X33163200Y-65992700D01*
X35823200Y-71132700D02*
X33163200Y-71132700D01*
X35823200Y-72402700D02*
X35823200Y-73732700D01*
X35823200Y-73732700D02*
X34493200Y-73732700D01*
%TO.C,J8*%
X132490000Y-51222900D02*
G75*
G03*
X132490000Y-51222900I-1680000J0D01*
G01*
X132490000Y-46222900D02*
G75*
G03*
X132490000Y-46222900I-1680000J0D01*
G01*
X134910000Y-58782900D02*
X134910000Y-43662900D01*
X133410000Y-58782900D02*
X133410000Y-43662900D01*
X128509000Y-58782900D02*
X128509000Y-43662900D01*
X125549000Y-58782900D02*
X125549000Y-43662900D01*
X135470000Y-58782900D02*
X135470000Y-43662900D01*
X125549000Y-58782900D02*
X135470000Y-58782900D01*
X125549000Y-43662900D02*
X135470000Y-43662900D01*
X129741000Y-49947900D02*
X129787000Y-49994900D01*
X132049000Y-52256900D02*
X132084000Y-52291900D01*
X129535000Y-50152900D02*
X129571000Y-50187900D01*
X131833000Y-52449900D02*
X131879000Y-52496900D01*
X129741000Y-44947900D02*
X129787000Y-44994900D01*
X132049000Y-47256900D02*
X132084000Y-47291900D01*
X129535000Y-45152900D02*
X129571000Y-45187900D01*
X131833000Y-47449900D02*
X131879000Y-47496900D01*
X134970000Y-59022900D02*
X135710000Y-59022900D01*
X135710000Y-59022900D02*
X135710000Y-58522900D01*
X132490253Y-56194095D02*
G75*
G02*
X132345000Y-56906900I-1680253J-28805D01*
G01*
X131493042Y-57758326D02*
G75*
G02*
X130126000Y-57757900I-683042J1535426D01*
G01*
X129274574Y-56905942D02*
G75*
G02*
X129275000Y-55538900I1535426J683042D01*
G01*
X130126958Y-54687474D02*
G75*
G02*
X131494000Y-54687900I683042J-1535426D01*
G01*
X132344756Y-55539582D02*
G75*
G02*
X132490000Y-56222900I-1534756J-683318D01*
G01*
%TO.C,J7*%
X132642400Y-28794700D02*
G75*
G03*
X132642400Y-28794700I-1680000J0D01*
G01*
X132642400Y-23794700D02*
G75*
G03*
X132642400Y-23794700I-1680000J0D01*
G01*
X135062400Y-36354700D02*
X135062400Y-21234700D01*
X133562400Y-36354700D02*
X133562400Y-21234700D01*
X128661400Y-36354700D02*
X128661400Y-21234700D01*
X125701400Y-36354700D02*
X125701400Y-21234700D01*
X135622400Y-36354700D02*
X135622400Y-21234700D01*
X125701400Y-36354700D02*
X135622400Y-36354700D01*
X125701400Y-21234700D02*
X135622400Y-21234700D01*
X129893400Y-27519700D02*
X129939400Y-27566700D01*
X132201400Y-29828700D02*
X132236400Y-29863700D01*
X129687400Y-27724700D02*
X129723400Y-27759700D01*
X131985400Y-30021700D02*
X132031400Y-30068700D01*
X129893400Y-22519700D02*
X129939400Y-22566700D01*
X132201400Y-24828700D02*
X132236400Y-24863700D01*
X129687400Y-22724700D02*
X129723400Y-22759700D01*
X131985400Y-25021700D02*
X132031400Y-25068700D01*
X135122400Y-36594700D02*
X135862400Y-36594700D01*
X135862400Y-36594700D02*
X135862400Y-36094700D01*
X132642653Y-33765895D02*
G75*
G02*
X132497400Y-34478700I-1680253J-28805D01*
G01*
X131645442Y-35330126D02*
G75*
G02*
X130278400Y-35329700I-683042J1535426D01*
G01*
X129426974Y-34477742D02*
G75*
G02*
X129427400Y-33110700I1535426J683042D01*
G01*
X130279358Y-32259274D02*
G75*
G02*
X131646400Y-32259700I683042J-1535426D01*
G01*
X132497156Y-33111382D02*
G75*
G02*
X132642400Y-33794700I-1534756J-683318D01*
G01*
%TO.C,J6*%
X132921800Y-72228700D02*
G75*
G03*
X132921800Y-72228700I-1680000J0D01*
G01*
X132921800Y-67228700D02*
G75*
G03*
X132921800Y-67228700I-1680000J0D01*
G01*
X135341800Y-79788700D02*
X135341800Y-64668700D01*
X133841800Y-79788700D02*
X133841800Y-64668700D01*
X128940800Y-79788700D02*
X128940800Y-64668700D01*
X125980800Y-79788700D02*
X125980800Y-64668700D01*
X135901800Y-79788700D02*
X135901800Y-64668700D01*
X125980800Y-79788700D02*
X135901800Y-79788700D01*
X125980800Y-64668700D02*
X135901800Y-64668700D01*
X130172800Y-70953700D02*
X130218800Y-71000700D01*
X132480800Y-73262700D02*
X132515800Y-73297700D01*
X129966800Y-71158700D02*
X130002800Y-71193700D01*
X132264800Y-73455700D02*
X132310800Y-73502700D01*
X130172800Y-65953700D02*
X130218800Y-66000700D01*
X132480800Y-68262700D02*
X132515800Y-68297700D01*
X129966800Y-66158700D02*
X130002800Y-66193700D01*
X132264800Y-68455700D02*
X132310800Y-68502700D01*
X135401800Y-80028700D02*
X136141800Y-80028700D01*
X136141800Y-80028700D02*
X136141800Y-79528700D01*
X132922053Y-77199895D02*
G75*
G02*
X132776800Y-77912700I-1680253J-28805D01*
G01*
X131924842Y-78764126D02*
G75*
G02*
X130557800Y-78763700I-683042J1535426D01*
G01*
X129706374Y-77911742D02*
G75*
G02*
X129706800Y-76544700I1535426J683042D01*
G01*
X130558758Y-75693274D02*
G75*
G02*
X131925800Y-75693700I683042J-1535426D01*
G01*
X132776556Y-76545382D02*
G75*
G02*
X132921800Y-77228700I-1534756J-683318D01*
G01*
%TO.C,J5*%
X133048800Y-91837500D02*
G75*
G03*
X133048800Y-91837500I-1680000J0D01*
G01*
X133048800Y-86837500D02*
G75*
G03*
X133048800Y-86837500I-1680000J0D01*
G01*
X135468800Y-99397500D02*
X135468800Y-84277500D01*
X133968800Y-99397500D02*
X133968800Y-84277500D01*
X129067800Y-99397500D02*
X129067800Y-84277500D01*
X126107800Y-99397500D02*
X126107800Y-84277500D01*
X136028800Y-99397500D02*
X136028800Y-84277500D01*
X126107800Y-99397500D02*
X136028800Y-99397500D01*
X126107800Y-84277500D02*
X136028800Y-84277500D01*
X130299800Y-90562500D02*
X130345800Y-90609500D01*
X132607800Y-92871500D02*
X132642800Y-92906500D01*
X130093800Y-90767500D02*
X130129800Y-90802500D01*
X132391800Y-93064500D02*
X132437800Y-93111500D01*
X130299800Y-85562500D02*
X130345800Y-85609500D01*
X132607800Y-87871500D02*
X132642800Y-87906500D01*
X130093800Y-85767500D02*
X130129800Y-85802500D01*
X132391800Y-88064500D02*
X132437800Y-88111500D01*
X135528800Y-99637500D02*
X136268800Y-99637500D01*
X136268800Y-99637500D02*
X136268800Y-99137500D01*
X133049053Y-96808695D02*
G75*
G02*
X132903800Y-97521500I-1680253J-28805D01*
G01*
X132051842Y-98372926D02*
G75*
G02*
X130684800Y-98372500I-683042J1535426D01*
G01*
X129833374Y-97520542D02*
G75*
G02*
X129833800Y-96153500I1535426J683042D01*
G01*
X130685758Y-95302074D02*
G75*
G02*
X132052800Y-95302500I683042J-1535426D01*
G01*
X132903556Y-96154182D02*
G75*
G02*
X133048800Y-96837500I-1534756J-683318D01*
G01*
%TO.C,J2*%
X30844800Y-90784500D02*
X29794800Y-90784500D01*
X29794800Y-91834500D02*
X29794800Y-90784500D01*
X39194800Y-96884500D02*
X39194800Y-105684500D01*
X39194800Y-105684500D02*
X29994800Y-105684500D01*
X36494800Y-90984500D02*
X39194800Y-90984500D01*
X39194800Y-90984500D02*
X39194800Y-92884500D01*
X29994800Y-105684500D02*
X29994800Y-90984500D01*
X29994800Y-90984500D02*
X32594800Y-90984500D01*
%TO.C,D9*%
X98740600Y-56019700D02*
G75*
G03*
X98740600Y-56019700I-2500000J0D01*
G01*
X94695600Y-58579700D02*
X97785600Y-58579700D01*
X96240138Y-53029700D02*
G75*
G02*
X97785430Y-58579700I462J-2990000D01*
G01*
X96241062Y-53029700D02*
G75*
G03*
X94695770Y-58579700I-462J-2990000D01*
G01*
%TO.C,D8*%
X96607000Y-33693100D02*
G75*
G03*
X96607000Y-33693100I-2500000J0D01*
G01*
X92562000Y-36253100D02*
X95652000Y-36253100D01*
X94106538Y-30703100D02*
G75*
G02*
X95651830Y-36253100I462J-2990000D01*
G01*
X94107462Y-30703100D02*
G75*
G03*
X92562170Y-36253100I-462J-2990000D01*
G01*
%TO.C,D7*%
X99578800Y-77863700D02*
G75*
G03*
X99578800Y-77863700I-2500000J0D01*
G01*
X95533800Y-80423700D02*
X98623800Y-80423700D01*
X97078338Y-74873700D02*
G75*
G02*
X98623630Y-80423700I462J-2990000D01*
G01*
X97079262Y-74873700D02*
G75*
G03*
X95533970Y-80423700I-462J-2990000D01*
G01*
%TO.C,D3*%
X93686000Y-98437700D02*
G75*
G03*
X93686000Y-98437700I-2500000J0D01*
G01*
X89641000Y-100997700D02*
X92731000Y-100997700D01*
X91185538Y-95447700D02*
G75*
G02*
X92730830Y-100997700I462J-2990000D01*
G01*
X91186462Y-95447700D02*
G75*
G03*
X89641170Y-100997700I-462J-2990000D01*
G01*
%TO.C,D1*%
X42352600Y-59753500D02*
G75*
G03*
X42352600Y-59753500I-2500000J0D01*
G01*
X42412600Y-61298500D02*
X42412600Y-58208500D01*
X36862600Y-59753962D02*
G75*
G02*
X42412600Y-58208670I2990000J462D01*
G01*
X36862600Y-59753038D02*
G75*
G03*
X42412600Y-61298330I2990000J-462D01*
G01*
%TO.C,C2*%
X40582600Y-85057300D02*
G75*
G03*
X40582600Y-85057300I-3270000J0D01*
G01*
X40542600Y-85057300D02*
X34082600Y-85057300D01*
X40542600Y-85097300D02*
X34082600Y-85097300D01*
X40542600Y-85137300D02*
X34082600Y-85137300D01*
X40540600Y-85177300D02*
X34084600Y-85177300D01*
X40539600Y-85217300D02*
X34085600Y-85217300D01*
X40536600Y-85257300D02*
X34088600Y-85257300D01*
X40534600Y-85297300D02*
X38352600Y-85297300D01*
X36272600Y-85297300D02*
X34090600Y-85297300D01*
X40530600Y-85337300D02*
X38352600Y-85337300D01*
X36272600Y-85337300D02*
X34094600Y-85337300D01*
X40527600Y-85377300D02*
X38352600Y-85377300D01*
X36272600Y-85377300D02*
X34097600Y-85377300D01*
X40523600Y-85417300D02*
X38352600Y-85417300D01*
X36272600Y-85417300D02*
X34101600Y-85417300D01*
X40518600Y-85457300D02*
X38352600Y-85457300D01*
X36272600Y-85457300D02*
X34106600Y-85457300D01*
X40513600Y-85497300D02*
X38352600Y-85497300D01*
X36272600Y-85497300D02*
X34111600Y-85497300D01*
X40507600Y-85537300D02*
X38352600Y-85537300D01*
X36272600Y-85537300D02*
X34117600Y-85537300D01*
X40501600Y-85577300D02*
X38352600Y-85577300D01*
X36272600Y-85577300D02*
X34123600Y-85577300D01*
X40494600Y-85617300D02*
X38352600Y-85617300D01*
X36272600Y-85617300D02*
X34130600Y-85617300D01*
X40487600Y-85657300D02*
X38352600Y-85657300D01*
X36272600Y-85657300D02*
X34137600Y-85657300D01*
X40479600Y-85697300D02*
X38352600Y-85697300D01*
X36272600Y-85697300D02*
X34145600Y-85697300D01*
X40471600Y-85737300D02*
X38352600Y-85737300D01*
X36272600Y-85737300D02*
X34153600Y-85737300D01*
X40462600Y-85778300D02*
X38352600Y-85778300D01*
X36272600Y-85778300D02*
X34162600Y-85778300D01*
X40453600Y-85818300D02*
X38352600Y-85818300D01*
X36272600Y-85818300D02*
X34171600Y-85818300D01*
X40443600Y-85858300D02*
X38352600Y-85858300D01*
X36272600Y-85858300D02*
X34181600Y-85858300D01*
X40433600Y-85898300D02*
X38352600Y-85898300D01*
X36272600Y-85898300D02*
X34191600Y-85898300D01*
X40422600Y-85938300D02*
X38352600Y-85938300D01*
X36272600Y-85938300D02*
X34202600Y-85938300D01*
X40410600Y-85978300D02*
X38352600Y-85978300D01*
X36272600Y-85978300D02*
X34214600Y-85978300D01*
X40398600Y-86018300D02*
X38352600Y-86018300D01*
X36272600Y-86018300D02*
X34226600Y-86018300D01*
X40386600Y-86058300D02*
X38352600Y-86058300D01*
X36272600Y-86058300D02*
X34238600Y-86058300D01*
X40373600Y-86098300D02*
X38352600Y-86098300D01*
X36272600Y-86098300D02*
X34251600Y-86098300D01*
X40359600Y-86138300D02*
X38352600Y-86138300D01*
X36272600Y-86138300D02*
X34265600Y-86138300D01*
X40345600Y-86178300D02*
X38352600Y-86178300D01*
X36272600Y-86178300D02*
X34279600Y-86178300D01*
X40330600Y-86218300D02*
X38352600Y-86218300D01*
X36272600Y-86218300D02*
X34294600Y-86218300D01*
X40314600Y-86258300D02*
X38352600Y-86258300D01*
X36272600Y-86258300D02*
X34310600Y-86258300D01*
X40298600Y-86298300D02*
X38352600Y-86298300D01*
X36272600Y-86298300D02*
X34326600Y-86298300D01*
X40282600Y-86338300D02*
X38352600Y-86338300D01*
X36272600Y-86338300D02*
X34342600Y-86338300D01*
X40264600Y-86378300D02*
X38352600Y-86378300D01*
X36272600Y-86378300D02*
X34360600Y-86378300D01*
X40246600Y-86418300D02*
X38352600Y-86418300D01*
X36272600Y-86418300D02*
X34378600Y-86418300D01*
X40228600Y-86458300D02*
X38352600Y-86458300D01*
X36272600Y-86458300D02*
X34396600Y-86458300D01*
X40208600Y-86498300D02*
X38352600Y-86498300D01*
X36272600Y-86498300D02*
X34416600Y-86498300D01*
X40188600Y-86538300D02*
X38352600Y-86538300D01*
X36272600Y-86538300D02*
X34436600Y-86538300D01*
X40168600Y-86578300D02*
X38352600Y-86578300D01*
X36272600Y-86578300D02*
X34456600Y-86578300D01*
X40146600Y-86618300D02*
X38352600Y-86618300D01*
X36272600Y-86618300D02*
X34478600Y-86618300D01*
X40124600Y-86658300D02*
X38352600Y-86658300D01*
X36272600Y-86658300D02*
X34500600Y-86658300D01*
X40102600Y-86698300D02*
X38352600Y-86698300D01*
X36272600Y-86698300D02*
X34522600Y-86698300D01*
X40078600Y-86738300D02*
X38352600Y-86738300D01*
X36272600Y-86738300D02*
X34546600Y-86738300D01*
X40054600Y-86778300D02*
X38352600Y-86778300D01*
X36272600Y-86778300D02*
X34570600Y-86778300D01*
X40028600Y-86818300D02*
X38352600Y-86818300D01*
X36272600Y-86818300D02*
X34596600Y-86818300D01*
X40002600Y-86858300D02*
X38352600Y-86858300D01*
X36272600Y-86858300D02*
X34622600Y-86858300D01*
X39976600Y-86898300D02*
X38352600Y-86898300D01*
X36272600Y-86898300D02*
X34648600Y-86898300D01*
X39948600Y-86938300D02*
X38352600Y-86938300D01*
X36272600Y-86938300D02*
X34676600Y-86938300D01*
X39919600Y-86978300D02*
X38352600Y-86978300D01*
X36272600Y-86978300D02*
X34705600Y-86978300D01*
X39890600Y-87018300D02*
X38352600Y-87018300D01*
X36272600Y-87018300D02*
X34734600Y-87018300D01*
X39860600Y-87058300D02*
X38352600Y-87058300D01*
X36272600Y-87058300D02*
X34764600Y-87058300D01*
X39828600Y-87098300D02*
X38352600Y-87098300D01*
X36272600Y-87098300D02*
X34796600Y-87098300D01*
X39796600Y-87138300D02*
X38352600Y-87138300D01*
X36272600Y-87138300D02*
X34828600Y-87138300D01*
X39762600Y-87178300D02*
X38352600Y-87178300D01*
X36272600Y-87178300D02*
X34862600Y-87178300D01*
X39728600Y-87218300D02*
X38352600Y-87218300D01*
X36272600Y-87218300D02*
X34896600Y-87218300D01*
X39692600Y-87258300D02*
X38352600Y-87258300D01*
X36272600Y-87258300D02*
X34932600Y-87258300D01*
X39655600Y-87298300D02*
X38352600Y-87298300D01*
X36272600Y-87298300D02*
X34969600Y-87298300D01*
X39617600Y-87338300D02*
X38352600Y-87338300D01*
X36272600Y-87338300D02*
X35007600Y-87338300D01*
X39577600Y-87378300D02*
X35047600Y-87378300D01*
X39536600Y-87418300D02*
X35088600Y-87418300D01*
X39494600Y-87458300D02*
X35130600Y-87458300D01*
X39449600Y-87498300D02*
X35175600Y-87498300D01*
X39404600Y-87538300D02*
X35220600Y-87538300D01*
X39356600Y-87578300D02*
X35268600Y-87578300D01*
X39307600Y-87618300D02*
X35317600Y-87618300D01*
X39256600Y-87658300D02*
X35368600Y-87658300D01*
X39202600Y-87698300D02*
X35422600Y-87698300D01*
X39146600Y-87738300D02*
X35478600Y-87738300D01*
X39088600Y-87778300D02*
X35536600Y-87778300D01*
X39026600Y-87818300D02*
X35598600Y-87818300D01*
X38962600Y-87858300D02*
X35662600Y-87858300D01*
X38893600Y-87898300D02*
X35731600Y-87898300D01*
X38821600Y-87938300D02*
X35803600Y-87938300D01*
X38744600Y-87978300D02*
X35880600Y-87978300D01*
X38662600Y-88018300D02*
X35962600Y-88018300D01*
X38574600Y-88058300D02*
X36050600Y-88058300D01*
X38477600Y-88098300D02*
X36147600Y-88098300D01*
X38371600Y-88138300D02*
X36253600Y-88138300D01*
X38252600Y-88178300D02*
X36372600Y-88178300D01*
X38114600Y-88218300D02*
X36510600Y-88218300D01*
X37945600Y-88258300D02*
X36679600Y-88258300D01*
X37714600Y-88298300D02*
X36910600Y-88298300D01*
X39151600Y-81557059D02*
X39151600Y-82187059D01*
X39466600Y-81872059D02*
X38836600Y-81872059D01*
%TO.C,C1*%
X32480000Y-85158900D02*
G75*
G03*
X32480000Y-85158900I-3270000J0D01*
G01*
X32440000Y-85158900D02*
X25980000Y-85158900D01*
X32440000Y-85198900D02*
X25980000Y-85198900D01*
X32440000Y-85238900D02*
X25980000Y-85238900D01*
X32438000Y-85278900D02*
X25982000Y-85278900D01*
X32437000Y-85318900D02*
X25983000Y-85318900D01*
X32434000Y-85358900D02*
X25986000Y-85358900D01*
X32432000Y-85398900D02*
X30250000Y-85398900D01*
X28170000Y-85398900D02*
X25988000Y-85398900D01*
X32428000Y-85438900D02*
X30250000Y-85438900D01*
X28170000Y-85438900D02*
X25992000Y-85438900D01*
X32425000Y-85478900D02*
X30250000Y-85478900D01*
X28170000Y-85478900D02*
X25995000Y-85478900D01*
X32421000Y-85518900D02*
X30250000Y-85518900D01*
X28170000Y-85518900D02*
X25999000Y-85518900D01*
X32416000Y-85558900D02*
X30250000Y-85558900D01*
X28170000Y-85558900D02*
X26004000Y-85558900D01*
X32411000Y-85598900D02*
X30250000Y-85598900D01*
X28170000Y-85598900D02*
X26009000Y-85598900D01*
X32405000Y-85638900D02*
X30250000Y-85638900D01*
X28170000Y-85638900D02*
X26015000Y-85638900D01*
X32399000Y-85678900D02*
X30250000Y-85678900D01*
X28170000Y-85678900D02*
X26021000Y-85678900D01*
X32392000Y-85718900D02*
X30250000Y-85718900D01*
X28170000Y-85718900D02*
X26028000Y-85718900D01*
X32385000Y-85758900D02*
X30250000Y-85758900D01*
X28170000Y-85758900D02*
X26035000Y-85758900D01*
X32377000Y-85798900D02*
X30250000Y-85798900D01*
X28170000Y-85798900D02*
X26043000Y-85798900D01*
X32369000Y-85838900D02*
X30250000Y-85838900D01*
X28170000Y-85838900D02*
X26051000Y-85838900D01*
X32360000Y-85879900D02*
X30250000Y-85879900D01*
X28170000Y-85879900D02*
X26060000Y-85879900D01*
X32351000Y-85919900D02*
X30250000Y-85919900D01*
X28170000Y-85919900D02*
X26069000Y-85919900D01*
X32341000Y-85959900D02*
X30250000Y-85959900D01*
X28170000Y-85959900D02*
X26079000Y-85959900D01*
X32331000Y-85999900D02*
X30250000Y-85999900D01*
X28170000Y-85999900D02*
X26089000Y-85999900D01*
X32320000Y-86039900D02*
X30250000Y-86039900D01*
X28170000Y-86039900D02*
X26100000Y-86039900D01*
X32308000Y-86079900D02*
X30250000Y-86079900D01*
X28170000Y-86079900D02*
X26112000Y-86079900D01*
X32296000Y-86119900D02*
X30250000Y-86119900D01*
X28170000Y-86119900D02*
X26124000Y-86119900D01*
X32284000Y-86159900D02*
X30250000Y-86159900D01*
X28170000Y-86159900D02*
X26136000Y-86159900D01*
X32271000Y-86199900D02*
X30250000Y-86199900D01*
X28170000Y-86199900D02*
X26149000Y-86199900D01*
X32257000Y-86239900D02*
X30250000Y-86239900D01*
X28170000Y-86239900D02*
X26163000Y-86239900D01*
X32243000Y-86279900D02*
X30250000Y-86279900D01*
X28170000Y-86279900D02*
X26177000Y-86279900D01*
X32228000Y-86319900D02*
X30250000Y-86319900D01*
X28170000Y-86319900D02*
X26192000Y-86319900D01*
X32212000Y-86359900D02*
X30250000Y-86359900D01*
X28170000Y-86359900D02*
X26208000Y-86359900D01*
X32196000Y-86399900D02*
X30250000Y-86399900D01*
X28170000Y-86399900D02*
X26224000Y-86399900D01*
X32180000Y-86439900D02*
X30250000Y-86439900D01*
X28170000Y-86439900D02*
X26240000Y-86439900D01*
X32162000Y-86479900D02*
X30250000Y-86479900D01*
X28170000Y-86479900D02*
X26258000Y-86479900D01*
X32144000Y-86519900D02*
X30250000Y-86519900D01*
X28170000Y-86519900D02*
X26276000Y-86519900D01*
X32126000Y-86559900D02*
X30250000Y-86559900D01*
X28170000Y-86559900D02*
X26294000Y-86559900D01*
X32106000Y-86599900D02*
X30250000Y-86599900D01*
X28170000Y-86599900D02*
X26314000Y-86599900D01*
X32086000Y-86639900D02*
X30250000Y-86639900D01*
X28170000Y-86639900D02*
X26334000Y-86639900D01*
X32066000Y-86679900D02*
X30250000Y-86679900D01*
X28170000Y-86679900D02*
X26354000Y-86679900D01*
X32044000Y-86719900D02*
X30250000Y-86719900D01*
X28170000Y-86719900D02*
X26376000Y-86719900D01*
X32022000Y-86759900D02*
X30250000Y-86759900D01*
X28170000Y-86759900D02*
X26398000Y-86759900D01*
X32000000Y-86799900D02*
X30250000Y-86799900D01*
X28170000Y-86799900D02*
X26420000Y-86799900D01*
X31976000Y-86839900D02*
X30250000Y-86839900D01*
X28170000Y-86839900D02*
X26444000Y-86839900D01*
X31952000Y-86879900D02*
X30250000Y-86879900D01*
X28170000Y-86879900D02*
X26468000Y-86879900D01*
X31926000Y-86919900D02*
X30250000Y-86919900D01*
X28170000Y-86919900D02*
X26494000Y-86919900D01*
X31900000Y-86959900D02*
X30250000Y-86959900D01*
X28170000Y-86959900D02*
X26520000Y-86959900D01*
X31874000Y-86999900D02*
X30250000Y-86999900D01*
X28170000Y-86999900D02*
X26546000Y-86999900D01*
X31846000Y-87039900D02*
X30250000Y-87039900D01*
X28170000Y-87039900D02*
X26574000Y-87039900D01*
X31817000Y-87079900D02*
X30250000Y-87079900D01*
X28170000Y-87079900D02*
X26603000Y-87079900D01*
X31788000Y-87119900D02*
X30250000Y-87119900D01*
X28170000Y-87119900D02*
X26632000Y-87119900D01*
X31758000Y-87159900D02*
X30250000Y-87159900D01*
X28170000Y-87159900D02*
X26662000Y-87159900D01*
X31726000Y-87199900D02*
X30250000Y-87199900D01*
X28170000Y-87199900D02*
X26694000Y-87199900D01*
X31694000Y-87239900D02*
X30250000Y-87239900D01*
X28170000Y-87239900D02*
X26726000Y-87239900D01*
X31660000Y-87279900D02*
X30250000Y-87279900D01*
X28170000Y-87279900D02*
X26760000Y-87279900D01*
X31626000Y-87319900D02*
X30250000Y-87319900D01*
X28170000Y-87319900D02*
X26794000Y-87319900D01*
X31590000Y-87359900D02*
X30250000Y-87359900D01*
X28170000Y-87359900D02*
X26830000Y-87359900D01*
X31553000Y-87399900D02*
X30250000Y-87399900D01*
X28170000Y-87399900D02*
X26867000Y-87399900D01*
X31515000Y-87439900D02*
X30250000Y-87439900D01*
X28170000Y-87439900D02*
X26905000Y-87439900D01*
X31475000Y-87479900D02*
X26945000Y-87479900D01*
X31434000Y-87519900D02*
X26986000Y-87519900D01*
X31392000Y-87559900D02*
X27028000Y-87559900D01*
X31347000Y-87599900D02*
X27073000Y-87599900D01*
X31302000Y-87639900D02*
X27118000Y-87639900D01*
X31254000Y-87679900D02*
X27166000Y-87679900D01*
X31205000Y-87719900D02*
X27215000Y-87719900D01*
X31154000Y-87759900D02*
X27266000Y-87759900D01*
X31100000Y-87799900D02*
X27320000Y-87799900D01*
X31044000Y-87839900D02*
X27376000Y-87839900D01*
X30986000Y-87879900D02*
X27434000Y-87879900D01*
X30924000Y-87919900D02*
X27496000Y-87919900D01*
X30860000Y-87959900D02*
X27560000Y-87959900D01*
X30791000Y-87999900D02*
X27629000Y-87999900D01*
X30719000Y-88039900D02*
X27701000Y-88039900D01*
X30642000Y-88079900D02*
X27778000Y-88079900D01*
X30560000Y-88119900D02*
X27860000Y-88119900D01*
X30472000Y-88159900D02*
X27948000Y-88159900D01*
X30375000Y-88199900D02*
X28045000Y-88199900D01*
X30269000Y-88239900D02*
X28151000Y-88239900D01*
X30150000Y-88279900D02*
X28270000Y-88279900D01*
X30012000Y-88319900D02*
X28408000Y-88319900D01*
X29843000Y-88359900D02*
X28577000Y-88359900D01*
X29612000Y-88399900D02*
X28808000Y-88399900D01*
X31049000Y-81658659D02*
X31049000Y-82288659D01*
X31364000Y-81973659D02*
X30734000Y-81973659D01*
%TO.C,K4*%
X123072400Y-42843700D02*
X100372400Y-42843700D01*
X100372400Y-42843700D02*
X100372400Y-59543700D01*
X100372400Y-59543700D02*
X123072400Y-59543700D01*
X123072400Y-59543700D02*
X123072400Y-42843700D01*
X105422400Y-51543700D02*
X105022400Y-50843700D01*
X105822400Y-50843700D02*
X104622400Y-50843700D01*
X104622400Y-50843700D02*
X104622400Y-51543700D01*
X104622400Y-51543700D02*
X105822400Y-51543700D01*
X105822400Y-51543700D02*
X105822400Y-50843700D01*
X100112400Y-52193700D02*
X100112400Y-50193700D01*
X105222400Y-55693700D02*
X105222400Y-52543700D01*
X105222400Y-49843700D02*
X105222400Y-46693700D01*
%TO.C,K3*%
X122386600Y-20567900D02*
X99686600Y-20567900D01*
X99686600Y-20567900D02*
X99686600Y-37267900D01*
X99686600Y-37267900D02*
X122386600Y-37267900D01*
X122386600Y-37267900D02*
X122386600Y-20567900D01*
X104736600Y-29267900D02*
X104336600Y-28567900D01*
X105136600Y-28567900D02*
X103936600Y-28567900D01*
X103936600Y-28567900D02*
X103936600Y-29267900D01*
X103936600Y-29267900D02*
X105136600Y-29267900D01*
X105136600Y-29267900D02*
X105136600Y-28567900D01*
X99426600Y-29917900D02*
X99426600Y-27917900D01*
X104536600Y-33417900D02*
X104536600Y-30267900D01*
X104536600Y-27567900D02*
X104536600Y-24417900D01*
%TO.C,K2*%
X123936000Y-64230500D02*
X101236000Y-64230500D01*
X101236000Y-64230500D02*
X101236000Y-80930500D01*
X101236000Y-80930500D02*
X123936000Y-80930500D01*
X123936000Y-80930500D02*
X123936000Y-64230500D01*
X106286000Y-72930500D02*
X105886000Y-72230500D01*
X106686000Y-72230500D02*
X105486000Y-72230500D01*
X105486000Y-72230500D02*
X105486000Y-72930500D01*
X105486000Y-72930500D02*
X106686000Y-72930500D01*
X106686000Y-72930500D02*
X106686000Y-72230500D01*
X100976000Y-73580500D02*
X100976000Y-71580500D01*
X106086000Y-77080500D02*
X106086000Y-73930500D01*
X106086000Y-71230500D02*
X106086000Y-68080500D01*
%TO.C,K1*%
X120811800Y-85287100D02*
X98111800Y-85287100D01*
X98111800Y-85287100D02*
X98111800Y-101987100D01*
X98111800Y-101987100D02*
X120811800Y-101987100D01*
X120811800Y-101987100D02*
X120811800Y-85287100D01*
X103161800Y-93987100D02*
X102761800Y-93287100D01*
X103561800Y-93287100D02*
X102361800Y-93287100D01*
X102361800Y-93287100D02*
X102361800Y-93987100D01*
X102361800Y-93987100D02*
X103561800Y-93987100D01*
X103561800Y-93987100D02*
X103561800Y-93287100D01*
X97851800Y-94637100D02*
X97851800Y-92637100D01*
X102961800Y-98137100D02*
X102961800Y-94987100D01*
X102961800Y-92287100D02*
X102961800Y-89137100D01*
%TO.C,D6*%
X91919400Y-45908300D02*
X88979400Y-45908300D01*
X88979400Y-45908300D02*
X88979400Y-51348300D01*
X88979400Y-51348300D02*
X91919400Y-51348300D01*
X91919400Y-51348300D02*
X91919400Y-45908300D01*
X90449400Y-44888300D02*
X90449400Y-45908300D01*
X90449400Y-52368300D02*
X90449400Y-51348300D01*
X91919400Y-46808300D02*
X88979400Y-46808300D01*
X91919400Y-46928300D02*
X88979400Y-46928300D01*
X91919400Y-46688300D02*
X88979400Y-46688300D01*
%TO.C,D5*%
X88846000Y-25131100D02*
X85906000Y-25131100D01*
X85906000Y-25131100D02*
X85906000Y-30571100D01*
X85906000Y-30571100D02*
X88846000Y-30571100D01*
X88846000Y-30571100D02*
X88846000Y-25131100D01*
X87376000Y-24111100D02*
X87376000Y-25131100D01*
X87376000Y-31591100D02*
X87376000Y-30571100D01*
X88846000Y-26031100D02*
X85906000Y-26031100D01*
X88846000Y-26151100D02*
X85906000Y-26151100D01*
X88846000Y-25911100D02*
X85906000Y-25911100D01*
%TO.C,D4*%
X93087800Y-67523700D02*
X90147800Y-67523700D01*
X90147800Y-67523700D02*
X90147800Y-72963700D01*
X90147800Y-72963700D02*
X93087800Y-72963700D01*
X93087800Y-72963700D02*
X93087800Y-67523700D01*
X91617800Y-66503700D02*
X91617800Y-67523700D01*
X91617800Y-73983700D02*
X91617800Y-72963700D01*
X93087800Y-68423700D02*
X90147800Y-68423700D01*
X93087800Y-68543700D02*
X90147800Y-68543700D01*
X93087800Y-68303700D02*
X90147800Y-68303700D01*
%TO.C,D2*%
X84731200Y-89139100D02*
X81791200Y-89139100D01*
X81791200Y-89139100D02*
X81791200Y-94579100D01*
X81791200Y-94579100D02*
X84731200Y-94579100D01*
X84731200Y-94579100D02*
X84731200Y-89139100D01*
X83261200Y-88119100D02*
X83261200Y-89139100D01*
X83261200Y-95599100D02*
X83261200Y-94579100D01*
X84731200Y-90039100D02*
X81791200Y-90039100D01*
X84731200Y-90159100D02*
X81791200Y-90159100D01*
X84731200Y-89919100D02*
X81791200Y-89919100D01*
%TO.C,SW2*%
D11*
X49848866Y-27715861D02*
X49991723Y-27763480D01*
X50229819Y-27763480D01*
X50325057Y-27715861D01*
X50372676Y-27668242D01*
X50420295Y-27573004D01*
X50420295Y-27477766D01*
X50372676Y-27382528D01*
X50325057Y-27334909D01*
X50229819Y-27287290D01*
X50039342Y-27239671D01*
X49944104Y-27192052D01*
X49896485Y-27144433D01*
X49848866Y-27049195D01*
X49848866Y-26953957D01*
X49896485Y-26858719D01*
X49944104Y-26811100D01*
X50039342Y-26763480D01*
X50277438Y-26763480D01*
X50420295Y-26811100D01*
X50753628Y-26763480D02*
X50991723Y-27763480D01*
X51182200Y-27049195D01*
X51372676Y-27763480D01*
X51610771Y-26763480D01*
X51944104Y-26858719D02*
X51991723Y-26811100D01*
X52086961Y-26763480D01*
X52325057Y-26763480D01*
X52420295Y-26811100D01*
X52467914Y-26858719D01*
X52515533Y-26953957D01*
X52515533Y-27049195D01*
X52467914Y-27192052D01*
X51896485Y-27763480D01*
X52515533Y-27763480D01*
%TO.C,R4*%
X76380780Y-24258566D02*
X75904590Y-24591900D01*
X76380780Y-24829995D02*
X75380780Y-24829995D01*
X75380780Y-24449042D01*
X75428400Y-24353804D01*
X75476019Y-24306185D01*
X75571257Y-24258566D01*
X75714114Y-24258566D01*
X75809352Y-24306185D01*
X75856971Y-24353804D01*
X75904590Y-24449042D01*
X75904590Y-24829995D01*
X75714114Y-23401423D02*
X76380780Y-23401423D01*
X75333161Y-23639519D02*
X76047447Y-23877614D01*
X76047447Y-23258566D01*
%TO.C,U1*%
X58496295Y-62126880D02*
X58496295Y-62936404D01*
X58543914Y-63031642D01*
X58591533Y-63079261D01*
X58686771Y-63126880D01*
X58877247Y-63126880D01*
X58972485Y-63079261D01*
X59020104Y-63031642D01*
X59067723Y-62936404D01*
X59067723Y-62126880D01*
X60067723Y-63126880D02*
X59496295Y-63126880D01*
X59782009Y-63126880D02*
X59782009Y-62126880D01*
X59686771Y-62269738D01*
X59591533Y-62364976D01*
X59496295Y-62412595D01*
X69950104Y-42806880D02*
X69950104Y-41806880D01*
X70188200Y-41806880D01*
X70331057Y-41854500D01*
X70426295Y-41949738D01*
X70473914Y-42044976D01*
X70521533Y-42235452D01*
X70521533Y-42378309D01*
X70473914Y-42568785D01*
X70426295Y-42664023D01*
X70331057Y-42759261D01*
X70188200Y-42806880D01*
X69950104Y-42806880D01*
X71140580Y-41806880D02*
X71235819Y-41806880D01*
X71331057Y-41854500D01*
X71378676Y-41902119D01*
X71426295Y-41997357D01*
X71473914Y-42187833D01*
X71473914Y-42425928D01*
X71426295Y-42616404D01*
X71378676Y-42711642D01*
X71331057Y-42759261D01*
X71235819Y-42806880D01*
X71140580Y-42806880D01*
X71045342Y-42759261D01*
X70997723Y-42711642D01*
X70950104Y-42616404D01*
X70902485Y-42425928D01*
X70902485Y-42187833D01*
X70950104Y-41997357D01*
X70997723Y-41902119D01*
X71045342Y-41854500D01*
X71140580Y-41806880D01*
X69950104Y-45346880D02*
X69950104Y-44346880D01*
X70188200Y-44346880D01*
X70331057Y-44394500D01*
X70426295Y-44489738D01*
X70473914Y-44584976D01*
X70521533Y-44775452D01*
X70521533Y-44918309D01*
X70473914Y-45108785D01*
X70426295Y-45204023D01*
X70331057Y-45299261D01*
X70188200Y-45346880D01*
X69950104Y-45346880D01*
X71473914Y-45346880D02*
X70902485Y-45346880D01*
X71188200Y-45346880D02*
X71188200Y-44346880D01*
X71092961Y-44489738D01*
X70997723Y-44584976D01*
X70902485Y-44632595D01*
X69950104Y-47886880D02*
X69950104Y-46886880D01*
X70188200Y-46886880D01*
X70331057Y-46934500D01*
X70426295Y-47029738D01*
X70473914Y-47124976D01*
X70521533Y-47315452D01*
X70521533Y-47458309D01*
X70473914Y-47648785D01*
X70426295Y-47744023D01*
X70331057Y-47839261D01*
X70188200Y-47886880D01*
X69950104Y-47886880D01*
X70902485Y-46982119D02*
X70950104Y-46934500D01*
X71045342Y-46886880D01*
X71283438Y-46886880D01*
X71378676Y-46934500D01*
X71426295Y-46982119D01*
X71473914Y-47077357D01*
X71473914Y-47172595D01*
X71426295Y-47315452D01*
X70854866Y-47886880D01*
X71473914Y-47886880D01*
X69950104Y-50426880D02*
X69950104Y-49426880D01*
X70188200Y-49426880D01*
X70331057Y-49474500D01*
X70426295Y-49569738D01*
X70473914Y-49664976D01*
X70521533Y-49855452D01*
X70521533Y-49998309D01*
X70473914Y-50188785D01*
X70426295Y-50284023D01*
X70331057Y-50379261D01*
X70188200Y-50426880D01*
X69950104Y-50426880D01*
X70854866Y-49426880D02*
X71473914Y-49426880D01*
X71140580Y-49807833D01*
X71283438Y-49807833D01*
X71378676Y-49855452D01*
X71426295Y-49903071D01*
X71473914Y-49998309D01*
X71473914Y-50236404D01*
X71426295Y-50331642D01*
X71378676Y-50379261D01*
X71283438Y-50426880D01*
X70997723Y-50426880D01*
X70902485Y-50379261D01*
X70854866Y-50331642D01*
X69950104Y-52966880D02*
X69950104Y-51966880D01*
X70188200Y-51966880D01*
X70331057Y-52014500D01*
X70426295Y-52109738D01*
X70473914Y-52204976D01*
X70521533Y-52395452D01*
X70521533Y-52538309D01*
X70473914Y-52728785D01*
X70426295Y-52824023D01*
X70331057Y-52919261D01*
X70188200Y-52966880D01*
X69950104Y-52966880D01*
X71378676Y-52300214D02*
X71378676Y-52966880D01*
X71140580Y-51919261D02*
X70902485Y-52633547D01*
X71521533Y-52633547D01*
X69926295Y-54506880D02*
X70545342Y-54506880D01*
X70212009Y-54887833D01*
X70354866Y-54887833D01*
X70450104Y-54935452D01*
X70497723Y-54983071D01*
X70545342Y-55078309D01*
X70545342Y-55316404D01*
X70497723Y-55411642D01*
X70450104Y-55459261D01*
X70354866Y-55506880D01*
X70069152Y-55506880D01*
X69973914Y-55459261D01*
X69926295Y-55411642D01*
X70831057Y-54506880D02*
X71164390Y-55506880D01*
X71497723Y-54506880D01*
X70950104Y-57094500D02*
X70854866Y-57046880D01*
X70712009Y-57046880D01*
X70569152Y-57094500D01*
X70473914Y-57189738D01*
X70426295Y-57284976D01*
X70378676Y-57475452D01*
X70378676Y-57618309D01*
X70426295Y-57808785D01*
X70473914Y-57904023D01*
X70569152Y-57999261D01*
X70712009Y-58046880D01*
X70807247Y-58046880D01*
X70950104Y-57999261D01*
X70997723Y-57951642D01*
X70997723Y-57618309D01*
X70807247Y-57618309D01*
X69950104Y-60586880D02*
X69950104Y-59586880D01*
X70188200Y-59586880D01*
X70331057Y-59634500D01*
X70426295Y-59729738D01*
X70473914Y-59824976D01*
X70521533Y-60015452D01*
X70521533Y-60158309D01*
X70473914Y-60348785D01*
X70426295Y-60444023D01*
X70331057Y-60539261D01*
X70188200Y-60586880D01*
X69950104Y-60586880D01*
X71426295Y-59586880D02*
X70950104Y-59586880D01*
X70902485Y-60063071D01*
X70950104Y-60015452D01*
X71045342Y-59967833D01*
X71283438Y-59967833D01*
X71378676Y-60015452D01*
X71426295Y-60063071D01*
X71473914Y-60158309D01*
X71473914Y-60396404D01*
X71426295Y-60491642D01*
X71378676Y-60539261D01*
X71283438Y-60586880D01*
X71045342Y-60586880D01*
X70950104Y-60539261D01*
X70902485Y-60491642D01*
X69950104Y-63126880D02*
X69950104Y-62126880D01*
X70188200Y-62126880D01*
X70331057Y-62174500D01*
X70426295Y-62269738D01*
X70473914Y-62364976D01*
X70521533Y-62555452D01*
X70521533Y-62698309D01*
X70473914Y-62888785D01*
X70426295Y-62984023D01*
X70331057Y-63079261D01*
X70188200Y-63126880D01*
X69950104Y-63126880D01*
X71378676Y-62126880D02*
X71188200Y-62126880D01*
X71092961Y-62174500D01*
X71045342Y-62222119D01*
X70950104Y-62364976D01*
X70902485Y-62555452D01*
X70902485Y-62936404D01*
X70950104Y-63031642D01*
X70997723Y-63079261D01*
X71092961Y-63126880D01*
X71283438Y-63126880D01*
X71378676Y-63079261D01*
X71426295Y-63031642D01*
X71473914Y-62936404D01*
X71473914Y-62698309D01*
X71426295Y-62603071D01*
X71378676Y-62555452D01*
X71283438Y-62507833D01*
X71092961Y-62507833D01*
X70997723Y-62555452D01*
X70950104Y-62603071D01*
X70902485Y-62698309D01*
X69950104Y-65666880D02*
X69950104Y-64666880D01*
X70188200Y-64666880D01*
X70331057Y-64714500D01*
X70426295Y-64809738D01*
X70473914Y-64904976D01*
X70521533Y-65095452D01*
X70521533Y-65238309D01*
X70473914Y-65428785D01*
X70426295Y-65524023D01*
X70331057Y-65619261D01*
X70188200Y-65666880D01*
X69950104Y-65666880D01*
X70854866Y-64666880D02*
X71521533Y-64666880D01*
X71092961Y-65666880D01*
X69950104Y-68206880D02*
X69950104Y-67206880D01*
X70188200Y-67206880D01*
X70331057Y-67254500D01*
X70426295Y-67349738D01*
X70473914Y-67444976D01*
X70521533Y-67635452D01*
X70521533Y-67778309D01*
X70473914Y-67968785D01*
X70426295Y-68064023D01*
X70331057Y-68159261D01*
X70188200Y-68206880D01*
X69950104Y-68206880D01*
X71092961Y-67635452D02*
X70997723Y-67587833D01*
X70950104Y-67540214D01*
X70902485Y-67444976D01*
X70902485Y-67397357D01*
X70950104Y-67302119D01*
X70997723Y-67254500D01*
X71092961Y-67206880D01*
X71283438Y-67206880D01*
X71378676Y-67254500D01*
X71426295Y-67302119D01*
X71473914Y-67397357D01*
X71473914Y-67444976D01*
X71426295Y-67540214D01*
X71378676Y-67587833D01*
X71283438Y-67635452D01*
X71092961Y-67635452D01*
X70997723Y-67683071D01*
X70950104Y-67730690D01*
X70902485Y-67825928D01*
X70902485Y-68016404D01*
X70950104Y-68111642D01*
X70997723Y-68159261D01*
X71092961Y-68206880D01*
X71283438Y-68206880D01*
X71378676Y-68159261D01*
X71426295Y-68111642D01*
X71473914Y-68016404D01*
X71473914Y-67825928D01*
X71426295Y-67730690D01*
X71378676Y-67683071D01*
X71283438Y-67635452D01*
X70521533Y-70746880D02*
X70188200Y-70270690D01*
X69950104Y-70746880D02*
X69950104Y-69746880D01*
X70331057Y-69746880D01*
X70426295Y-69794500D01*
X70473914Y-69842119D01*
X70521533Y-69937357D01*
X70521533Y-70080214D01*
X70473914Y-70175452D01*
X70426295Y-70223071D01*
X70331057Y-70270690D01*
X69950104Y-70270690D01*
X70854866Y-69746880D02*
X71521533Y-70746880D01*
X71521533Y-69746880D02*
X70854866Y-70746880D01*
X69926295Y-72286880D02*
X70497723Y-72286880D01*
X70212009Y-73286880D02*
X70212009Y-72286880D01*
X70735819Y-72286880D02*
X71402485Y-73286880D01*
X71402485Y-72286880D02*
X70735819Y-73286880D01*
X70950104Y-74874500D02*
X70854866Y-74826880D01*
X70712009Y-74826880D01*
X70569152Y-74874500D01*
X70473914Y-74969738D01*
X70426295Y-75064976D01*
X70378676Y-75255452D01*
X70378676Y-75398309D01*
X70426295Y-75588785D01*
X70473914Y-75684023D01*
X70569152Y-75779261D01*
X70712009Y-75826880D01*
X70807247Y-75826880D01*
X70950104Y-75779261D01*
X70997723Y-75731642D01*
X70997723Y-75398309D01*
X70807247Y-75398309D01*
X69926295Y-77366880D02*
X70545342Y-77366880D01*
X70212009Y-77747833D01*
X70354866Y-77747833D01*
X70450104Y-77795452D01*
X70497723Y-77843071D01*
X70545342Y-77938309D01*
X70545342Y-78176404D01*
X70497723Y-78271642D01*
X70450104Y-78319261D01*
X70354866Y-78366880D01*
X70069152Y-78366880D01*
X69973914Y-78319261D01*
X69926295Y-78271642D01*
X70831057Y-77366880D02*
X71164390Y-78366880D01*
X71497723Y-77366880D01*
X47113914Y-42521166D02*
X47590104Y-42521166D01*
X47018676Y-42806880D02*
X47352009Y-41806880D01*
X47685342Y-42806880D01*
X48209152Y-41806880D02*
X48304390Y-41806880D01*
X48399628Y-41854500D01*
X48447247Y-41902119D01*
X48494866Y-41997357D01*
X48542485Y-42187833D01*
X48542485Y-42425928D01*
X48494866Y-42616404D01*
X48447247Y-42711642D01*
X48399628Y-42759261D01*
X48304390Y-42806880D01*
X48209152Y-42806880D01*
X48113914Y-42759261D01*
X48066295Y-42711642D01*
X48018676Y-42616404D01*
X47971057Y-42425928D01*
X47971057Y-42187833D01*
X48018676Y-41997357D01*
X48066295Y-41902119D01*
X48113914Y-41854500D01*
X48209152Y-41806880D01*
X48090104Y-44394500D02*
X47994866Y-44346880D01*
X47852009Y-44346880D01*
X47709152Y-44394500D01*
X47613914Y-44489738D01*
X47566295Y-44584976D01*
X47518676Y-44775452D01*
X47518676Y-44918309D01*
X47566295Y-45108785D01*
X47613914Y-45204023D01*
X47709152Y-45299261D01*
X47852009Y-45346880D01*
X47947247Y-45346880D01*
X48090104Y-45299261D01*
X48137723Y-45251642D01*
X48137723Y-44918309D01*
X47947247Y-44918309D01*
X46971057Y-46886880D02*
X47304390Y-47886880D01*
X47637723Y-46886880D01*
X47971057Y-46886880D02*
X47971057Y-47696404D01*
X48018676Y-47791642D01*
X48066295Y-47839261D01*
X48161533Y-47886880D01*
X48352009Y-47886880D01*
X48447247Y-47839261D01*
X48494866Y-47791642D01*
X48542485Y-47696404D01*
X48542485Y-46886880D01*
X47066295Y-50379261D02*
X47209152Y-50426880D01*
X47447247Y-50426880D01*
X47542485Y-50379261D01*
X47590104Y-50331642D01*
X47637723Y-50236404D01*
X47637723Y-50141166D01*
X47590104Y-50045928D01*
X47542485Y-49998309D01*
X47447247Y-49950690D01*
X47256771Y-49903071D01*
X47161533Y-49855452D01*
X47113914Y-49807833D01*
X47066295Y-49712595D01*
X47066295Y-49617357D01*
X47113914Y-49522119D01*
X47161533Y-49474500D01*
X47256771Y-49426880D01*
X47494866Y-49426880D01*
X47637723Y-49474500D01*
X47971057Y-49426880D02*
X48590104Y-49426880D01*
X48256771Y-49807833D01*
X48399628Y-49807833D01*
X48494866Y-49855452D01*
X48542485Y-49903071D01*
X48590104Y-49998309D01*
X48590104Y-50236404D01*
X48542485Y-50331642D01*
X48494866Y-50379261D01*
X48399628Y-50426880D01*
X48113914Y-50426880D01*
X48018676Y-50379261D01*
X47971057Y-50331642D01*
X47066295Y-52919261D02*
X47209152Y-52966880D01*
X47447247Y-52966880D01*
X47542485Y-52919261D01*
X47590104Y-52871642D01*
X47637723Y-52776404D01*
X47637723Y-52681166D01*
X47590104Y-52585928D01*
X47542485Y-52538309D01*
X47447247Y-52490690D01*
X47256771Y-52443071D01*
X47161533Y-52395452D01*
X47113914Y-52347833D01*
X47066295Y-52252595D01*
X47066295Y-52157357D01*
X47113914Y-52062119D01*
X47161533Y-52014500D01*
X47256771Y-51966880D01*
X47494866Y-51966880D01*
X47637723Y-52014500D01*
X48018676Y-52062119D02*
X48066295Y-52014500D01*
X48161533Y-51966880D01*
X48399628Y-51966880D01*
X48494866Y-52014500D01*
X48542485Y-52062119D01*
X48590104Y-52157357D01*
X48590104Y-52252595D01*
X48542485Y-52395452D01*
X47971057Y-52966880D01*
X48590104Y-52966880D01*
X47066295Y-55459261D02*
X47209152Y-55506880D01*
X47447247Y-55506880D01*
X47542485Y-55459261D01*
X47590104Y-55411642D01*
X47637723Y-55316404D01*
X47637723Y-55221166D01*
X47590104Y-55125928D01*
X47542485Y-55078309D01*
X47447247Y-55030690D01*
X47256771Y-54983071D01*
X47161533Y-54935452D01*
X47113914Y-54887833D01*
X47066295Y-54792595D01*
X47066295Y-54697357D01*
X47113914Y-54602119D01*
X47161533Y-54554500D01*
X47256771Y-54506880D01*
X47494866Y-54506880D01*
X47637723Y-54554500D01*
X48590104Y-55506880D02*
X48018676Y-55506880D01*
X48304390Y-55506880D02*
X48304390Y-54506880D01*
X48209152Y-54649738D01*
X48113914Y-54744976D01*
X48018676Y-54792595D01*
X47042485Y-57999261D02*
X47185342Y-58046880D01*
X47423438Y-58046880D01*
X47518676Y-57999261D01*
X47566295Y-57951642D01*
X47613914Y-57856404D01*
X47613914Y-57761166D01*
X47566295Y-57665928D01*
X47518676Y-57618309D01*
X47423438Y-57570690D01*
X47232961Y-57523071D01*
X47137723Y-57475452D01*
X47090104Y-57427833D01*
X47042485Y-57332595D01*
X47042485Y-57237357D01*
X47090104Y-57142119D01*
X47137723Y-57094500D01*
X47232961Y-57046880D01*
X47471057Y-57046880D01*
X47613914Y-57094500D01*
X48613914Y-57951642D02*
X48566295Y-57999261D01*
X48423438Y-58046880D01*
X48328200Y-58046880D01*
X48185342Y-57999261D01*
X48090104Y-57904023D01*
X48042485Y-57808785D01*
X47994866Y-57618309D01*
X47994866Y-57475452D01*
X48042485Y-57284976D01*
X48090104Y-57189738D01*
X48185342Y-57094500D01*
X48328200Y-57046880D01*
X48423438Y-57046880D01*
X48566295Y-57094500D01*
X48613914Y-57142119D01*
X47018676Y-60539261D02*
X47161533Y-60586880D01*
X47399628Y-60586880D01*
X47494866Y-60539261D01*
X47542485Y-60491642D01*
X47590104Y-60396404D01*
X47590104Y-60301166D01*
X47542485Y-60205928D01*
X47494866Y-60158309D01*
X47399628Y-60110690D01*
X47209152Y-60063071D01*
X47113914Y-60015452D01*
X47066295Y-59967833D01*
X47018676Y-59872595D01*
X47018676Y-59777357D01*
X47066295Y-59682119D01*
X47113914Y-59634500D01*
X47209152Y-59586880D01*
X47447247Y-59586880D01*
X47590104Y-59634500D01*
X48209152Y-59586880D02*
X48399628Y-59586880D01*
X48494866Y-59634500D01*
X48590104Y-59729738D01*
X48637723Y-59920214D01*
X48637723Y-60253547D01*
X48590104Y-60444023D01*
X48494866Y-60539261D01*
X48399628Y-60586880D01*
X48209152Y-60586880D01*
X48113914Y-60539261D01*
X48018676Y-60444023D01*
X47971057Y-60253547D01*
X47971057Y-59920214D01*
X48018676Y-59729738D01*
X48113914Y-59634500D01*
X48209152Y-59586880D01*
X47042485Y-63079261D02*
X47185342Y-63126880D01*
X47423438Y-63126880D01*
X47518676Y-63079261D01*
X47566295Y-63031642D01*
X47613914Y-62936404D01*
X47613914Y-62841166D01*
X47566295Y-62745928D01*
X47518676Y-62698309D01*
X47423438Y-62650690D01*
X47232961Y-62603071D01*
X47137723Y-62555452D01*
X47090104Y-62507833D01*
X47042485Y-62412595D01*
X47042485Y-62317357D01*
X47090104Y-62222119D01*
X47137723Y-62174500D01*
X47232961Y-62126880D01*
X47471057Y-62126880D01*
X47613914Y-62174500D01*
X48042485Y-63126880D02*
X48042485Y-62126880D01*
X48613914Y-63126880D02*
X48185342Y-62555452D01*
X48613914Y-62126880D02*
X48042485Y-62698309D01*
X48090104Y-64714500D02*
X47994866Y-64666880D01*
X47852009Y-64666880D01*
X47709152Y-64714500D01*
X47613914Y-64809738D01*
X47566295Y-64904976D01*
X47518676Y-65095452D01*
X47518676Y-65238309D01*
X47566295Y-65428785D01*
X47613914Y-65524023D01*
X47709152Y-65619261D01*
X47852009Y-65666880D01*
X47947247Y-65666880D01*
X48090104Y-65619261D01*
X48137723Y-65571642D01*
X48137723Y-65238309D01*
X47947247Y-65238309D01*
X47066295Y-67206880D02*
X47685342Y-67206880D01*
X47352009Y-67587833D01*
X47494866Y-67587833D01*
X47590104Y-67635452D01*
X47637723Y-67683071D01*
X47685342Y-67778309D01*
X47685342Y-68016404D01*
X47637723Y-68111642D01*
X47590104Y-68159261D01*
X47494866Y-68206880D01*
X47209152Y-68206880D01*
X47113914Y-68159261D01*
X47066295Y-68111642D01*
X47971057Y-67206880D02*
X48304390Y-68206880D01*
X48637723Y-67206880D01*
X47090104Y-70223071D02*
X47423438Y-70223071D01*
X47566295Y-70746880D02*
X47090104Y-70746880D01*
X47090104Y-69746880D01*
X47566295Y-69746880D01*
X47994866Y-70746880D02*
X47994866Y-69746880D01*
X48566295Y-70746880D01*
X48566295Y-69746880D01*
X47280580Y-73286880D02*
X46947247Y-72810690D01*
X46709152Y-73286880D02*
X46709152Y-72286880D01*
X47090104Y-72286880D01*
X47185342Y-72334500D01*
X47232961Y-72382119D01*
X47280580Y-72477357D01*
X47280580Y-72620214D01*
X47232961Y-72715452D01*
X47185342Y-72763071D01*
X47090104Y-72810690D01*
X46709152Y-72810690D01*
X47661533Y-73239261D02*
X47804390Y-73286880D01*
X48042485Y-73286880D01*
X48137723Y-73239261D01*
X48185342Y-73191642D01*
X48232961Y-73096404D01*
X48232961Y-73001166D01*
X48185342Y-72905928D01*
X48137723Y-72858309D01*
X48042485Y-72810690D01*
X47852009Y-72763071D01*
X47756771Y-72715452D01*
X47709152Y-72667833D01*
X47661533Y-72572595D01*
X47661533Y-72477357D01*
X47709152Y-72382119D01*
X47756771Y-72334500D01*
X47852009Y-72286880D01*
X48090104Y-72286880D01*
X48232961Y-72334500D01*
X48518676Y-72286880D02*
X49090104Y-72286880D01*
X48804390Y-73286880D02*
X48804390Y-72286880D01*
X48090104Y-74874500D02*
X47994866Y-74826880D01*
X47852009Y-74826880D01*
X47709152Y-74874500D01*
X47613914Y-74969738D01*
X47566295Y-75064976D01*
X47518676Y-75255452D01*
X47518676Y-75398309D01*
X47566295Y-75588785D01*
X47613914Y-75684023D01*
X47709152Y-75779261D01*
X47852009Y-75826880D01*
X47947247Y-75826880D01*
X48090104Y-75779261D01*
X48137723Y-75731642D01*
X48137723Y-75398309D01*
X47947247Y-75398309D01*
X46732961Y-77366880D02*
X47066295Y-78366880D01*
X47399628Y-77366880D01*
X47732961Y-78366880D02*
X47732961Y-77366880D01*
X48209152Y-78366880D02*
X48209152Y-77366880D01*
X48780580Y-78366880D01*
X48780580Y-77366880D01*
%TO.C,SW1*%
X78931866Y-29239861D02*
X79074723Y-29287480D01*
X79312819Y-29287480D01*
X79408057Y-29239861D01*
X79455676Y-29192242D01*
X79503295Y-29097004D01*
X79503295Y-29001766D01*
X79455676Y-28906528D01*
X79408057Y-28858909D01*
X79312819Y-28811290D01*
X79122342Y-28763671D01*
X79027104Y-28716052D01*
X78979485Y-28668433D01*
X78931866Y-28573195D01*
X78931866Y-28477957D01*
X78979485Y-28382719D01*
X79027104Y-28335100D01*
X79122342Y-28287480D01*
X79360438Y-28287480D01*
X79503295Y-28335100D01*
X79836628Y-28287480D02*
X80074723Y-29287480D01*
X80265200Y-28573195D01*
X80455676Y-29287480D01*
X80693771Y-28287480D01*
X81598533Y-29287480D02*
X81027104Y-29287480D01*
X81312819Y-29287480D02*
X81312819Y-28287480D01*
X81217580Y-28430338D01*
X81122342Y-28525576D01*
X81027104Y-28573195D01*
%TO.C,Q4*%
X93617219Y-59518538D02*
X93569600Y-59613776D01*
X93474361Y-59709014D01*
X93331504Y-59851871D01*
X93283885Y-59947109D01*
X93283885Y-60042347D01*
X93521980Y-59994728D02*
X93474361Y-60089966D01*
X93379123Y-60185204D01*
X93188647Y-60232823D01*
X92855314Y-60232823D01*
X92664838Y-60185204D01*
X92569600Y-60089966D01*
X92521980Y-59994728D01*
X92521980Y-59804252D01*
X92569600Y-59709014D01*
X92664838Y-59613776D01*
X92855314Y-59566157D01*
X93188647Y-59566157D01*
X93379123Y-59613776D01*
X93474361Y-59709014D01*
X93521980Y-59804252D01*
X93521980Y-59994728D01*
X92855314Y-58709014D02*
X93521980Y-58709014D01*
X92474361Y-58947109D02*
X93188647Y-59185204D01*
X93188647Y-58566157D01*
%TO.C,Q3*%
X91255019Y-38868338D02*
X91207400Y-38963576D01*
X91112161Y-39058814D01*
X90969304Y-39201671D01*
X90921685Y-39296909D01*
X90921685Y-39392147D01*
X91159780Y-39344528D02*
X91112161Y-39439766D01*
X91016923Y-39535004D01*
X90826447Y-39582623D01*
X90493114Y-39582623D01*
X90302638Y-39535004D01*
X90207400Y-39439766D01*
X90159780Y-39344528D01*
X90159780Y-39154052D01*
X90207400Y-39058814D01*
X90302638Y-38963576D01*
X90493114Y-38915957D01*
X90826447Y-38915957D01*
X91016923Y-38963576D01*
X91112161Y-39058814D01*
X91159780Y-39154052D01*
X91159780Y-39344528D01*
X90159780Y-38582623D02*
X90159780Y-37963576D01*
X90540733Y-38296909D01*
X90540733Y-38154052D01*
X90588352Y-38058814D01*
X90635971Y-38011195D01*
X90731209Y-37963576D01*
X90969304Y-37963576D01*
X91064542Y-38011195D01*
X91112161Y-38058814D01*
X91159780Y-38154052D01*
X91159780Y-38439766D01*
X91112161Y-38535004D01*
X91064542Y-38582623D01*
%TO.C,Q2*%
X94861819Y-81057738D02*
X94814200Y-81152976D01*
X94718961Y-81248214D01*
X94576104Y-81391071D01*
X94528485Y-81486309D01*
X94528485Y-81581547D01*
X94766580Y-81533928D02*
X94718961Y-81629166D01*
X94623723Y-81724404D01*
X94433247Y-81772023D01*
X94099914Y-81772023D01*
X93909438Y-81724404D01*
X93814200Y-81629166D01*
X93766580Y-81533928D01*
X93766580Y-81343452D01*
X93814200Y-81248214D01*
X93909438Y-81152976D01*
X94099914Y-81105357D01*
X94433247Y-81105357D01*
X94623723Y-81152976D01*
X94718961Y-81248214D01*
X94766580Y-81343452D01*
X94766580Y-81533928D01*
X93861819Y-80724404D02*
X93814200Y-80676785D01*
X93766580Y-80581547D01*
X93766580Y-80343452D01*
X93814200Y-80248214D01*
X93861819Y-80200595D01*
X93957057Y-80152976D01*
X94052295Y-80152976D01*
X94195152Y-80200595D01*
X94766580Y-80772023D01*
X94766580Y-80152976D01*
%TO.C,Q1*%
X87165619Y-103155738D02*
X87118000Y-103250976D01*
X87022761Y-103346214D01*
X86879904Y-103489071D01*
X86832285Y-103584309D01*
X86832285Y-103679547D01*
X87070380Y-103631928D02*
X87022761Y-103727166D01*
X86927523Y-103822404D01*
X86737047Y-103870023D01*
X86403714Y-103870023D01*
X86213238Y-103822404D01*
X86118000Y-103727166D01*
X86070380Y-103631928D01*
X86070380Y-103441452D01*
X86118000Y-103346214D01*
X86213238Y-103250976D01*
X86403714Y-103203357D01*
X86737047Y-103203357D01*
X86927523Y-103250976D01*
X87022761Y-103346214D01*
X87070380Y-103441452D01*
X87070380Y-103631928D01*
X87070380Y-102250976D02*
X87070380Y-102822404D01*
X87070380Y-102536690D02*
X86070380Y-102536690D01*
X86213238Y-102631928D01*
X86308476Y-102727166D01*
X86356095Y-102822404D01*
%TO.C,U2*%
X35991895Y-73223880D02*
X35991895Y-74033404D01*
X36039514Y-74128642D01*
X36087133Y-74176261D01*
X36182371Y-74223880D01*
X36372847Y-74223880D01*
X36468085Y-74176261D01*
X36515704Y-74128642D01*
X36563323Y-74033404D01*
X36563323Y-73223880D01*
X36991895Y-73319119D02*
X37039514Y-73271500D01*
X37134752Y-73223880D01*
X37372847Y-73223880D01*
X37468085Y-73271500D01*
X37515704Y-73319119D01*
X37563323Y-73414357D01*
X37563323Y-73509595D01*
X37515704Y-73652452D01*
X36944276Y-74223880D01*
X37563323Y-74223880D01*
%TO.C,SW4*%
X68086066Y-96817061D02*
X68228923Y-96864680D01*
X68467019Y-96864680D01*
X68562257Y-96817061D01*
X68609876Y-96769442D01*
X68657495Y-96674204D01*
X68657495Y-96578966D01*
X68609876Y-96483728D01*
X68562257Y-96436109D01*
X68467019Y-96388490D01*
X68276542Y-96340871D01*
X68181304Y-96293252D01*
X68133685Y-96245633D01*
X68086066Y-96150395D01*
X68086066Y-96055157D01*
X68133685Y-95959919D01*
X68181304Y-95912300D01*
X68276542Y-95864680D01*
X68514638Y-95864680D01*
X68657495Y-95912300D01*
X68990828Y-95864680D02*
X69228923Y-96864680D01*
X69419400Y-96150395D01*
X69609876Y-96864680D01*
X69847971Y-95864680D01*
X70657495Y-96198014D02*
X70657495Y-96864680D01*
X70419400Y-95817061D02*
X70181304Y-96531347D01*
X70800352Y-96531347D01*
%TO.C,SW3*%
X50408866Y-101454461D02*
X50551723Y-101502080D01*
X50789819Y-101502080D01*
X50885057Y-101454461D01*
X50932676Y-101406842D01*
X50980295Y-101311604D01*
X50980295Y-101216366D01*
X50932676Y-101121128D01*
X50885057Y-101073509D01*
X50789819Y-101025890D01*
X50599342Y-100978271D01*
X50504104Y-100930652D01*
X50456485Y-100883033D01*
X50408866Y-100787795D01*
X50408866Y-100692557D01*
X50456485Y-100597319D01*
X50504104Y-100549700D01*
X50599342Y-100502080D01*
X50837438Y-100502080D01*
X50980295Y-100549700D01*
X51313628Y-100502080D02*
X51551723Y-101502080D01*
X51742200Y-100787795D01*
X51932676Y-101502080D01*
X52170771Y-100502080D01*
X52456485Y-100502080D02*
X53075533Y-100502080D01*
X52742200Y-100883033D01*
X52885057Y-100883033D01*
X52980295Y-100930652D01*
X53027914Y-100978271D01*
X53075533Y-101073509D01*
X53075533Y-101311604D01*
X53027914Y-101406842D01*
X52980295Y-101454461D01*
X52885057Y-101502080D01*
X52599342Y-101502080D01*
X52504104Y-101454461D01*
X52456485Y-101406842D01*
%TO.C,R14*%
X99012180Y-48001157D02*
X98535990Y-48334490D01*
X99012180Y-48572585D02*
X98012180Y-48572585D01*
X98012180Y-48191633D01*
X98059800Y-48096395D01*
X98107419Y-48048776D01*
X98202657Y-48001157D01*
X98345514Y-48001157D01*
X98440752Y-48048776D01*
X98488371Y-48096395D01*
X98535990Y-48191633D01*
X98535990Y-48572585D01*
X99012180Y-47048776D02*
X99012180Y-47620204D01*
X99012180Y-47334490D02*
X98012180Y-47334490D01*
X98155038Y-47429728D01*
X98250276Y-47524966D01*
X98297895Y-47620204D01*
X98345514Y-46191633D02*
X99012180Y-46191633D01*
X97964561Y-46429728D02*
X98678847Y-46667823D01*
X98678847Y-46048776D01*
%TO.C,R13*%
X96903980Y-25852357D02*
X96427790Y-26185690D01*
X96903980Y-26423785D02*
X95903980Y-26423785D01*
X95903980Y-26042833D01*
X95951600Y-25947595D01*
X95999219Y-25899976D01*
X96094457Y-25852357D01*
X96237314Y-25852357D01*
X96332552Y-25899976D01*
X96380171Y-25947595D01*
X96427790Y-26042833D01*
X96427790Y-26423785D01*
X96903980Y-24899976D02*
X96903980Y-25471404D01*
X96903980Y-25185690D02*
X95903980Y-25185690D01*
X96046838Y-25280928D01*
X96142076Y-25376166D01*
X96189695Y-25471404D01*
X95903980Y-24566642D02*
X95903980Y-23947595D01*
X96284933Y-24280928D01*
X96284933Y-24138071D01*
X96332552Y-24042833D01*
X96380171Y-23995214D01*
X96475409Y-23947595D01*
X96713504Y-23947595D01*
X96808742Y-23995214D01*
X96856361Y-24042833D01*
X96903980Y-24138071D01*
X96903980Y-24423785D01*
X96856361Y-24519023D01*
X96808742Y-24566642D01*
%TO.C,R12*%
X99977380Y-69591157D02*
X99501190Y-69924490D01*
X99977380Y-70162585D02*
X98977380Y-70162585D01*
X98977380Y-69781633D01*
X99025000Y-69686395D01*
X99072619Y-69638776D01*
X99167857Y-69591157D01*
X99310714Y-69591157D01*
X99405952Y-69638776D01*
X99453571Y-69686395D01*
X99501190Y-69781633D01*
X99501190Y-70162585D01*
X99977380Y-68638776D02*
X99977380Y-69210204D01*
X99977380Y-68924490D02*
X98977380Y-68924490D01*
X99120238Y-69019728D01*
X99215476Y-69114966D01*
X99263095Y-69210204D01*
X99072619Y-68257823D02*
X99025000Y-68210204D01*
X98977380Y-68114966D01*
X98977380Y-67876871D01*
X99025000Y-67781633D01*
X99072619Y-67734014D01*
X99167857Y-67686395D01*
X99263095Y-67686395D01*
X99405952Y-67734014D01*
X99977380Y-68305442D01*
X99977380Y-67686395D01*
%TO.C,R11*%
X82537380Y-54935357D02*
X82061190Y-55268690D01*
X82537380Y-55506785D02*
X81537380Y-55506785D01*
X81537380Y-55125833D01*
X81585000Y-55030595D01*
X81632619Y-54982976D01*
X81727857Y-54935357D01*
X81870714Y-54935357D01*
X81965952Y-54982976D01*
X82013571Y-55030595D01*
X82061190Y-55125833D01*
X82061190Y-55506785D01*
X82537380Y-53982976D02*
X82537380Y-54554404D01*
X82537380Y-54268690D02*
X81537380Y-54268690D01*
X81680238Y-54363928D01*
X81775476Y-54459166D01*
X81823095Y-54554404D01*
X82537380Y-53030595D02*
X82537380Y-53602023D01*
X82537380Y-53316309D02*
X81537380Y-53316309D01*
X81680238Y-53411547D01*
X81775476Y-53506785D01*
X81823095Y-53602023D01*
%TO.C,R10*%
X79590980Y-34132757D02*
X79114790Y-34466090D01*
X79590980Y-34704185D02*
X78590980Y-34704185D01*
X78590980Y-34323233D01*
X78638600Y-34227995D01*
X78686219Y-34180376D01*
X78781457Y-34132757D01*
X78924314Y-34132757D01*
X79019552Y-34180376D01*
X79067171Y-34227995D01*
X79114790Y-34323233D01*
X79114790Y-34704185D01*
X79590980Y-33180376D02*
X79590980Y-33751804D01*
X79590980Y-33466090D02*
X78590980Y-33466090D01*
X78733838Y-33561328D01*
X78829076Y-33656566D01*
X78876695Y-33751804D01*
X78590980Y-32561328D02*
X78590980Y-32466090D01*
X78638600Y-32370852D01*
X78686219Y-32323233D01*
X78781457Y-32275614D01*
X78971933Y-32227995D01*
X79210028Y-32227995D01*
X79400504Y-32275614D01*
X79495742Y-32323233D01*
X79543361Y-32370852D01*
X79590980Y-32466090D01*
X79590980Y-32561328D01*
X79543361Y-32656566D01*
X79495742Y-32704185D01*
X79400504Y-32751804D01*
X79210028Y-32799423D01*
X78971933Y-32799423D01*
X78781457Y-32751804D01*
X78686219Y-32704185D01*
X78638600Y-32656566D01*
X78590980Y-32561328D01*
%TO.C,R9*%
X85001180Y-70359566D02*
X84524990Y-70692900D01*
X85001180Y-70930995D02*
X84001180Y-70930995D01*
X84001180Y-70550042D01*
X84048800Y-70454804D01*
X84096419Y-70407185D01*
X84191657Y-70359566D01*
X84334514Y-70359566D01*
X84429752Y-70407185D01*
X84477371Y-70454804D01*
X84524990Y-70550042D01*
X84524990Y-70930995D01*
X85001180Y-69883376D02*
X85001180Y-69692900D01*
X84953561Y-69597661D01*
X84905942Y-69550042D01*
X84763085Y-69454804D01*
X84572609Y-69407185D01*
X84191657Y-69407185D01*
X84096419Y-69454804D01*
X84048800Y-69502423D01*
X84001180Y-69597661D01*
X84001180Y-69788138D01*
X84048800Y-69883376D01*
X84096419Y-69930995D01*
X84191657Y-69978614D01*
X84429752Y-69978614D01*
X84524990Y-69930995D01*
X84572609Y-69883376D01*
X84620228Y-69788138D01*
X84620228Y-69597661D01*
X84572609Y-69502423D01*
X84524990Y-69454804D01*
X84429752Y-69407185D01*
%TO.C,R8*%
X60439380Y-101068166D02*
X59963190Y-101401500D01*
X60439380Y-101639595D02*
X59439380Y-101639595D01*
X59439380Y-101258642D01*
X59487000Y-101163404D01*
X59534619Y-101115785D01*
X59629857Y-101068166D01*
X59772714Y-101068166D01*
X59867952Y-101115785D01*
X59915571Y-101163404D01*
X59963190Y-101258642D01*
X59963190Y-101639595D01*
X59867952Y-100496738D02*
X59820333Y-100591976D01*
X59772714Y-100639595D01*
X59677476Y-100687214D01*
X59629857Y-100687214D01*
X59534619Y-100639595D01*
X59487000Y-100591976D01*
X59439380Y-100496738D01*
X59439380Y-100306261D01*
X59487000Y-100211023D01*
X59534619Y-100163404D01*
X59629857Y-100115785D01*
X59677476Y-100115785D01*
X59772714Y-100163404D01*
X59820333Y-100211023D01*
X59867952Y-100306261D01*
X59867952Y-100496738D01*
X59915571Y-100591976D01*
X59963190Y-100639595D01*
X60058428Y-100687214D01*
X60248904Y-100687214D01*
X60344142Y-100639595D01*
X60391761Y-100591976D01*
X60439380Y-100496738D01*
X60439380Y-100306261D01*
X60391761Y-100211023D01*
X60344142Y-100163404D01*
X60248904Y-100115785D01*
X60058428Y-100115785D01*
X59963190Y-100163404D01*
X59915571Y-100211023D01*
X59867952Y-100306261D01*
%TO.C,R7*%
X50988933Y-31638680D02*
X50655600Y-31162490D01*
X50417504Y-31638680D02*
X50417504Y-30638680D01*
X50798457Y-30638680D01*
X50893695Y-30686300D01*
X50941314Y-30733919D01*
X50988933Y-30829157D01*
X50988933Y-30972014D01*
X50941314Y-31067252D01*
X50893695Y-31114871D01*
X50798457Y-31162490D01*
X50417504Y-31162490D01*
X51322266Y-30638680D02*
X51988933Y-30638680D01*
X51560361Y-31638680D01*
%TO.C,R6*%
X94059180Y-90349366D02*
X93582990Y-90682700D01*
X94059180Y-90920795D02*
X93059180Y-90920795D01*
X93059180Y-90539842D01*
X93106800Y-90444604D01*
X93154419Y-90396985D01*
X93249657Y-90349366D01*
X93392514Y-90349366D01*
X93487752Y-90396985D01*
X93535371Y-90444604D01*
X93582990Y-90539842D01*
X93582990Y-90920795D01*
X93059180Y-89492223D02*
X93059180Y-89682700D01*
X93106800Y-89777938D01*
X93154419Y-89825557D01*
X93297276Y-89920795D01*
X93487752Y-89968414D01*
X93868704Y-89968414D01*
X93963942Y-89920795D01*
X94011561Y-89873176D01*
X94059180Y-89777938D01*
X94059180Y-89587461D01*
X94011561Y-89492223D01*
X93963942Y-89444604D01*
X93868704Y-89396985D01*
X93630609Y-89396985D01*
X93535371Y-89444604D01*
X93487752Y-89492223D01*
X93440133Y-89587461D01*
X93440133Y-89777938D01*
X93487752Y-89873176D01*
X93535371Y-89920795D01*
X93630609Y-89968414D01*
%TO.C,R5*%
X46951980Y-101068166D02*
X46475790Y-101401500D01*
X46951980Y-101639595D02*
X45951980Y-101639595D01*
X45951980Y-101258642D01*
X45999600Y-101163404D01*
X46047219Y-101115785D01*
X46142457Y-101068166D01*
X46285314Y-101068166D01*
X46380552Y-101115785D01*
X46428171Y-101163404D01*
X46475790Y-101258642D01*
X46475790Y-101639595D01*
X45951980Y-100163404D02*
X45951980Y-100639595D01*
X46428171Y-100687214D01*
X46380552Y-100639595D01*
X46332933Y-100544357D01*
X46332933Y-100306261D01*
X46380552Y-100211023D01*
X46428171Y-100163404D01*
X46523409Y-100115785D01*
X46761504Y-100115785D01*
X46856742Y-100163404D01*
X46904361Y-100211023D01*
X46951980Y-100306261D01*
X46951980Y-100544357D01*
X46904361Y-100639595D01*
X46856742Y-100687214D01*
%TO.C,R3*%
X75679380Y-96267566D02*
X75203190Y-96600900D01*
X75679380Y-96838995D02*
X74679380Y-96838995D01*
X74679380Y-96458042D01*
X74727000Y-96362804D01*
X74774619Y-96315185D01*
X74869857Y-96267566D01*
X75012714Y-96267566D01*
X75107952Y-96315185D01*
X75155571Y-96362804D01*
X75203190Y-96458042D01*
X75203190Y-96838995D01*
X74679380Y-95934233D02*
X74679380Y-95315185D01*
X75060333Y-95648519D01*
X75060333Y-95505661D01*
X75107952Y-95410423D01*
X75155571Y-95362804D01*
X75250809Y-95315185D01*
X75488904Y-95315185D01*
X75584142Y-95362804D01*
X75631761Y-95410423D01*
X75679380Y-95505661D01*
X75679380Y-95791376D01*
X75631761Y-95886614D01*
X75584142Y-95934233D01*
%TO.C,R1*%
X36614180Y-68606966D02*
X36137990Y-68940300D01*
X36614180Y-69178395D02*
X35614180Y-69178395D01*
X35614180Y-68797442D01*
X35661800Y-68702204D01*
X35709419Y-68654585D01*
X35804657Y-68606966D01*
X35947514Y-68606966D01*
X36042752Y-68654585D01*
X36090371Y-68702204D01*
X36137990Y-68797442D01*
X36137990Y-69178395D01*
X36614180Y-67654585D02*
X36614180Y-68226014D01*
X36614180Y-67940300D02*
X35614180Y-67940300D01*
X35757038Y-68035538D01*
X35852276Y-68130776D01*
X35899895Y-68226014D01*
%TO.C,J10*%
X33683676Y-65091880D02*
X33683676Y-65806166D01*
X33636057Y-65949023D01*
X33540819Y-66044261D01*
X33397961Y-66091880D01*
X33302723Y-66091880D01*
X34683676Y-66091880D02*
X34112247Y-66091880D01*
X34397961Y-66091880D02*
X34397961Y-65091880D01*
X34302723Y-65234738D01*
X34207485Y-65329976D01*
X34112247Y-65377595D01*
X35302723Y-65091880D02*
X35397961Y-65091880D01*
X35493200Y-65139500D01*
X35540819Y-65187119D01*
X35588438Y-65282357D01*
X35636057Y-65472833D01*
X35636057Y-65710928D01*
X35588438Y-65901404D01*
X35540819Y-65996642D01*
X35493200Y-66044261D01*
X35397961Y-66091880D01*
X35302723Y-66091880D01*
X35207485Y-66044261D01*
X35159866Y-65996642D01*
X35112247Y-65901404D01*
X35064628Y-65710928D01*
X35064628Y-65472833D01*
X35112247Y-65282357D01*
X35159866Y-65187119D01*
X35207485Y-65139500D01*
X35302723Y-65091880D01*
%TO.C,J9*%
X34159866Y-74185080D02*
X34159866Y-74899366D01*
X34112247Y-75042223D01*
X34017009Y-75137461D01*
X33874152Y-75185080D01*
X33778914Y-75185080D01*
X34683676Y-75185080D02*
X34874152Y-75185080D01*
X34969390Y-75137461D01*
X35017009Y-75089842D01*
X35112247Y-74946985D01*
X35159866Y-74756509D01*
X35159866Y-74375557D01*
X35112247Y-74280319D01*
X35064628Y-74232700D01*
X34969390Y-74185080D01*
X34778914Y-74185080D01*
X34683676Y-74232700D01*
X34636057Y-74280319D01*
X34588438Y-74375557D01*
X34588438Y-74613652D01*
X34636057Y-74708890D01*
X34683676Y-74756509D01*
X34778914Y-74804128D01*
X34969390Y-74804128D01*
X35064628Y-74756509D01*
X35112247Y-74708890D01*
X35159866Y-74613652D01*
%TO.C,J8*%
X124002380Y-51556233D02*
X124716666Y-51556233D01*
X124859523Y-51603852D01*
X124954761Y-51699090D01*
X125002380Y-51841947D01*
X125002380Y-51937185D01*
X124430952Y-50937185D02*
X124383333Y-51032423D01*
X124335714Y-51080042D01*
X124240476Y-51127661D01*
X124192857Y-51127661D01*
X124097619Y-51080042D01*
X124050000Y-51032423D01*
X124002380Y-50937185D01*
X124002380Y-50746709D01*
X124050000Y-50651471D01*
X124097619Y-50603852D01*
X124192857Y-50556233D01*
X124240476Y-50556233D01*
X124335714Y-50603852D01*
X124383333Y-50651471D01*
X124430952Y-50746709D01*
X124430952Y-50937185D01*
X124478571Y-51032423D01*
X124526190Y-51080042D01*
X124621428Y-51127661D01*
X124811904Y-51127661D01*
X124907142Y-51080042D01*
X124954761Y-51032423D01*
X125002380Y-50937185D01*
X125002380Y-50746709D01*
X124954761Y-50651471D01*
X124907142Y-50603852D01*
X124811904Y-50556233D01*
X124621428Y-50556233D01*
X124526190Y-50603852D01*
X124478571Y-50651471D01*
X124430952Y-50746709D01*
%TO.C,J7*%
X124154780Y-29128033D02*
X124869066Y-29128033D01*
X125011923Y-29175652D01*
X125107161Y-29270890D01*
X125154780Y-29413747D01*
X125154780Y-29508985D01*
X124154780Y-28747080D02*
X124154780Y-28080414D01*
X125154780Y-28508985D01*
%TO.C,J6*%
X124434180Y-72562033D02*
X125148466Y-72562033D01*
X125291323Y-72609652D01*
X125386561Y-72704890D01*
X125434180Y-72847747D01*
X125434180Y-72942985D01*
X124434180Y-71657271D02*
X124434180Y-71847747D01*
X124481800Y-71942985D01*
X124529419Y-71990604D01*
X124672276Y-72085842D01*
X124862752Y-72133461D01*
X125243704Y-72133461D01*
X125338942Y-72085842D01*
X125386561Y-72038223D01*
X125434180Y-71942985D01*
X125434180Y-71752509D01*
X125386561Y-71657271D01*
X125338942Y-71609652D01*
X125243704Y-71562033D01*
X125005609Y-71562033D01*
X124910371Y-71609652D01*
X124862752Y-71657271D01*
X124815133Y-71752509D01*
X124815133Y-71942985D01*
X124862752Y-72038223D01*
X124910371Y-72085842D01*
X125005609Y-72133461D01*
%TO.C,J5*%
X124561180Y-92170833D02*
X125275466Y-92170833D01*
X125418323Y-92218452D01*
X125513561Y-92313690D01*
X125561180Y-92456547D01*
X125561180Y-92551785D01*
X124561180Y-91218452D02*
X124561180Y-91694642D01*
X125037371Y-91742261D01*
X124989752Y-91694642D01*
X124942133Y-91599404D01*
X124942133Y-91361309D01*
X124989752Y-91266071D01*
X125037371Y-91218452D01*
X125132609Y-91170833D01*
X125370704Y-91170833D01*
X125465942Y-91218452D01*
X125513561Y-91266071D01*
X125561180Y-91361309D01*
X125561180Y-91599404D01*
X125513561Y-91694642D01*
X125465942Y-91742261D01*
%TO.C,J2*%
X39797180Y-100667833D02*
X40511466Y-100667833D01*
X40654323Y-100715452D01*
X40749561Y-100810690D01*
X40797180Y-100953547D01*
X40797180Y-101048785D01*
X39892419Y-100239261D02*
X39844800Y-100191642D01*
X39797180Y-100096404D01*
X39797180Y-99858309D01*
X39844800Y-99763071D01*
X39892419Y-99715452D01*
X39987657Y-99667833D01*
X40082895Y-99667833D01*
X40225752Y-99715452D01*
X40797180Y-100286880D01*
X40797180Y-99667833D01*
%TO.C,D9*%
X92732980Y-56757795D02*
X91732980Y-56757795D01*
X91732980Y-56519700D01*
X91780600Y-56376842D01*
X91875838Y-56281604D01*
X91971076Y-56233985D01*
X92161552Y-56186366D01*
X92304409Y-56186366D01*
X92494885Y-56233985D01*
X92590123Y-56281604D01*
X92685361Y-56376842D01*
X92732980Y-56519700D01*
X92732980Y-56757795D01*
X92732980Y-55710176D02*
X92732980Y-55519700D01*
X92685361Y-55424461D01*
X92637742Y-55376842D01*
X92494885Y-55281604D01*
X92304409Y-55233985D01*
X91923457Y-55233985D01*
X91828219Y-55281604D01*
X91780600Y-55329223D01*
X91732980Y-55424461D01*
X91732980Y-55614938D01*
X91780600Y-55710176D01*
X91828219Y-55757795D01*
X91923457Y-55805414D01*
X92161552Y-55805414D01*
X92256790Y-55757795D01*
X92304409Y-55710176D01*
X92352028Y-55614938D01*
X92352028Y-55424461D01*
X92304409Y-55329223D01*
X92256790Y-55281604D01*
X92161552Y-55233985D01*
%TO.C,D8*%
X90599380Y-34431195D02*
X89599380Y-34431195D01*
X89599380Y-34193100D01*
X89647000Y-34050242D01*
X89742238Y-33955004D01*
X89837476Y-33907385D01*
X90027952Y-33859766D01*
X90170809Y-33859766D01*
X90361285Y-33907385D01*
X90456523Y-33955004D01*
X90551761Y-34050242D01*
X90599380Y-34193100D01*
X90599380Y-34431195D01*
X90027952Y-33288338D02*
X89980333Y-33383576D01*
X89932714Y-33431195D01*
X89837476Y-33478814D01*
X89789857Y-33478814D01*
X89694619Y-33431195D01*
X89647000Y-33383576D01*
X89599380Y-33288338D01*
X89599380Y-33097861D01*
X89647000Y-33002623D01*
X89694619Y-32955004D01*
X89789857Y-32907385D01*
X89837476Y-32907385D01*
X89932714Y-32955004D01*
X89980333Y-33002623D01*
X90027952Y-33097861D01*
X90027952Y-33288338D01*
X90075571Y-33383576D01*
X90123190Y-33431195D01*
X90218428Y-33478814D01*
X90408904Y-33478814D01*
X90504142Y-33431195D01*
X90551761Y-33383576D01*
X90599380Y-33288338D01*
X90599380Y-33097861D01*
X90551761Y-33002623D01*
X90504142Y-32955004D01*
X90408904Y-32907385D01*
X90218428Y-32907385D01*
X90123190Y-32955004D01*
X90075571Y-33002623D01*
X90027952Y-33097861D01*
%TO.C,D7*%
X93571180Y-78601795D02*
X92571180Y-78601795D01*
X92571180Y-78363700D01*
X92618800Y-78220842D01*
X92714038Y-78125604D01*
X92809276Y-78077985D01*
X92999752Y-78030366D01*
X93142609Y-78030366D01*
X93333085Y-78077985D01*
X93428323Y-78125604D01*
X93523561Y-78220842D01*
X93571180Y-78363700D01*
X93571180Y-78601795D01*
X92571180Y-77697033D02*
X92571180Y-77030366D01*
X93571180Y-77458938D01*
%TO.C,D3*%
X87678380Y-99175795D02*
X86678380Y-99175795D01*
X86678380Y-98937700D01*
X86726000Y-98794842D01*
X86821238Y-98699604D01*
X86916476Y-98651985D01*
X87106952Y-98604366D01*
X87249809Y-98604366D01*
X87440285Y-98651985D01*
X87535523Y-98699604D01*
X87630761Y-98794842D01*
X87678380Y-98937700D01*
X87678380Y-99175795D01*
X86678380Y-98271033D02*
X86678380Y-97651985D01*
X87059333Y-97985319D01*
X87059333Y-97842461D01*
X87106952Y-97747223D01*
X87154571Y-97699604D01*
X87249809Y-97651985D01*
X87487904Y-97651985D01*
X87583142Y-97699604D01*
X87630761Y-97747223D01*
X87678380Y-97842461D01*
X87678380Y-98128176D01*
X87630761Y-98223414D01*
X87583142Y-98271033D01*
%TO.C,D1*%
X39114504Y-64165880D02*
X39114504Y-63165880D01*
X39352600Y-63165880D01*
X39495457Y-63213500D01*
X39590695Y-63308738D01*
X39638314Y-63403976D01*
X39685933Y-63594452D01*
X39685933Y-63737309D01*
X39638314Y-63927785D01*
X39590695Y-64023023D01*
X39495457Y-64118261D01*
X39352600Y-64165880D01*
X39114504Y-64165880D01*
X40638314Y-64165880D02*
X40066885Y-64165880D01*
X40352600Y-64165880D02*
X40352600Y-63165880D01*
X40257361Y-63308738D01*
X40162123Y-63403976D01*
X40066885Y-63451595D01*
%TO.C,C2*%
X42069742Y-85223966D02*
X42117361Y-85271585D01*
X42164980Y-85414442D01*
X42164980Y-85509680D01*
X42117361Y-85652538D01*
X42022123Y-85747776D01*
X41926885Y-85795395D01*
X41736409Y-85843014D01*
X41593552Y-85843014D01*
X41403076Y-85795395D01*
X41307838Y-85747776D01*
X41212600Y-85652538D01*
X41164980Y-85509680D01*
X41164980Y-85414442D01*
X41212600Y-85271585D01*
X41260219Y-85223966D01*
X41260219Y-84843014D02*
X41212600Y-84795395D01*
X41164980Y-84700157D01*
X41164980Y-84462061D01*
X41212600Y-84366823D01*
X41260219Y-84319204D01*
X41355457Y-84271585D01*
X41450695Y-84271585D01*
X41593552Y-84319204D01*
X42164980Y-84890633D01*
X42164980Y-84271585D01*
%TO.C,C1*%
X33967142Y-85325566D02*
X34014761Y-85373185D01*
X34062380Y-85516042D01*
X34062380Y-85611280D01*
X34014761Y-85754138D01*
X33919523Y-85849376D01*
X33824285Y-85896995D01*
X33633809Y-85944614D01*
X33490952Y-85944614D01*
X33300476Y-85896995D01*
X33205238Y-85849376D01*
X33110000Y-85754138D01*
X33062380Y-85611280D01*
X33062380Y-85516042D01*
X33110000Y-85373185D01*
X33157619Y-85325566D01*
X34062380Y-84373185D02*
X34062380Y-84944614D01*
X34062380Y-84658900D02*
X33062380Y-84658900D01*
X33205238Y-84754138D01*
X33300476Y-84849376D01*
X33348095Y-84944614D01*
%TO.C,K4*%
X99674780Y-51931795D02*
X98674780Y-51931795D01*
X99674780Y-51360366D02*
X99103352Y-51788938D01*
X98674780Y-51360366D02*
X99246209Y-51931795D01*
X99008114Y-50503223D02*
X99674780Y-50503223D01*
X98627161Y-50741319D02*
X99341447Y-50979414D01*
X99341447Y-50360366D01*
%TO.C,K3*%
X98988980Y-29655995D02*
X97988980Y-29655995D01*
X98988980Y-29084566D02*
X98417552Y-29513138D01*
X97988980Y-29084566D02*
X98560409Y-29655995D01*
X97988980Y-28751233D02*
X97988980Y-28132185D01*
X98369933Y-28465519D01*
X98369933Y-28322661D01*
X98417552Y-28227423D01*
X98465171Y-28179804D01*
X98560409Y-28132185D01*
X98798504Y-28132185D01*
X98893742Y-28179804D01*
X98941361Y-28227423D01*
X98988980Y-28322661D01*
X98988980Y-28608376D01*
X98941361Y-28703614D01*
X98893742Y-28751233D01*
%TO.C,K2*%
X100538380Y-73318595D02*
X99538380Y-73318595D01*
X100538380Y-72747166D02*
X99966952Y-73175738D01*
X99538380Y-72747166D02*
X100109809Y-73318595D01*
X99633619Y-72366214D02*
X99586000Y-72318595D01*
X99538380Y-72223357D01*
X99538380Y-71985261D01*
X99586000Y-71890023D01*
X99633619Y-71842404D01*
X99728857Y-71794785D01*
X99824095Y-71794785D01*
X99966952Y-71842404D01*
X100538380Y-72413833D01*
X100538380Y-71794785D01*
%TO.C,K1*%
X97414180Y-94375195D02*
X96414180Y-94375195D01*
X97414180Y-93803766D02*
X96842752Y-94232338D01*
X96414180Y-93803766D02*
X96985609Y-94375195D01*
X97414180Y-92851385D02*
X97414180Y-93422814D01*
X97414180Y-93137100D02*
X96414180Y-93137100D01*
X96557038Y-93232338D01*
X96652276Y-93327576D01*
X96699895Y-93422814D01*
%TO.C,D6*%
X93371780Y-49366395D02*
X92371780Y-49366395D01*
X92371780Y-49128300D01*
X92419400Y-48985442D01*
X92514638Y-48890204D01*
X92609876Y-48842585D01*
X92800352Y-48794966D01*
X92943209Y-48794966D01*
X93133685Y-48842585D01*
X93228923Y-48890204D01*
X93324161Y-48985442D01*
X93371780Y-49128300D01*
X93371780Y-49366395D01*
X92371780Y-47937823D02*
X92371780Y-48128300D01*
X92419400Y-48223538D01*
X92467019Y-48271157D01*
X92609876Y-48366395D01*
X92800352Y-48414014D01*
X93181304Y-48414014D01*
X93276542Y-48366395D01*
X93324161Y-48318776D01*
X93371780Y-48223538D01*
X93371780Y-48033061D01*
X93324161Y-47937823D01*
X93276542Y-47890204D01*
X93181304Y-47842585D01*
X92943209Y-47842585D01*
X92847971Y-47890204D01*
X92800352Y-47937823D01*
X92752733Y-48033061D01*
X92752733Y-48223538D01*
X92800352Y-48318776D01*
X92847971Y-48366395D01*
X92943209Y-48414014D01*
X93001780Y-43810204D02*
X92001780Y-43810204D01*
X93001780Y-43238776D02*
X92430352Y-43667347D01*
X92001780Y-43238776D02*
X92573209Y-43810204D01*
%TO.C,D5*%
X90298380Y-28589195D02*
X89298380Y-28589195D01*
X89298380Y-28351100D01*
X89346000Y-28208242D01*
X89441238Y-28113004D01*
X89536476Y-28065385D01*
X89726952Y-28017766D01*
X89869809Y-28017766D01*
X90060285Y-28065385D01*
X90155523Y-28113004D01*
X90250761Y-28208242D01*
X90298380Y-28351100D01*
X90298380Y-28589195D01*
X89298380Y-27113004D02*
X89298380Y-27589195D01*
X89774571Y-27636814D01*
X89726952Y-27589195D01*
X89679333Y-27493957D01*
X89679333Y-27255861D01*
X89726952Y-27160623D01*
X89774571Y-27113004D01*
X89869809Y-27065385D01*
X90107904Y-27065385D01*
X90203142Y-27113004D01*
X90250761Y-27160623D01*
X90298380Y-27255861D01*
X90298380Y-27493957D01*
X90250761Y-27589195D01*
X90203142Y-27636814D01*
X89928380Y-23033004D02*
X88928380Y-23033004D01*
X89928380Y-22461576D02*
X89356952Y-22890147D01*
X88928380Y-22461576D02*
X89499809Y-23033004D01*
%TO.C,D4*%
X94540180Y-70981795D02*
X93540180Y-70981795D01*
X93540180Y-70743700D01*
X93587800Y-70600842D01*
X93683038Y-70505604D01*
X93778276Y-70457985D01*
X93968752Y-70410366D01*
X94111609Y-70410366D01*
X94302085Y-70457985D01*
X94397323Y-70505604D01*
X94492561Y-70600842D01*
X94540180Y-70743700D01*
X94540180Y-70981795D01*
X93873514Y-69553223D02*
X94540180Y-69553223D01*
X93492561Y-69791319D02*
X94206847Y-70029414D01*
X94206847Y-69410366D01*
X94170180Y-65425604D02*
X93170180Y-65425604D01*
X94170180Y-64854176D02*
X93598752Y-65282747D01*
X93170180Y-64854176D02*
X93741609Y-65425604D01*
%TO.C,D2*%
X86183580Y-92597195D02*
X85183580Y-92597195D01*
X85183580Y-92359100D01*
X85231200Y-92216242D01*
X85326438Y-92121004D01*
X85421676Y-92073385D01*
X85612152Y-92025766D01*
X85755009Y-92025766D01*
X85945485Y-92073385D01*
X86040723Y-92121004D01*
X86135961Y-92216242D01*
X86183580Y-92359100D01*
X86183580Y-92597195D01*
X85278819Y-91644814D02*
X85231200Y-91597195D01*
X85183580Y-91501957D01*
X85183580Y-91263861D01*
X85231200Y-91168623D01*
X85278819Y-91121004D01*
X85374057Y-91073385D01*
X85469295Y-91073385D01*
X85612152Y-91121004D01*
X86183580Y-91692433D01*
X86183580Y-91073385D01*
X85813580Y-87041004D02*
X84813580Y-87041004D01*
X85813580Y-86469576D02*
X85242152Y-86898147D01*
X84813580Y-86469576D02*
X85385009Y-87041004D01*
%TD*%
M02*
