%TF.GenerationSoftware,KiCad,Pcbnew,(5.1.12)-1*%
%TF.CreationDate,2022-02-17T13:15:52+05:30*%
%TF.ProjectId,homeAutomation,686f6d65-4175-4746-9f6d-6174696f6e2e,rev?*%
%TF.SameCoordinates,Original*%
%TF.FileFunction,AssemblyDrawing,Top*%
%FSLAX46Y46*%
G04 Gerber Fmt 4.6, Leading zero omitted, Abs format (unit mm)*
G04 Created by KiCad (PCBNEW (5.1.12)-1) date 2022-02-17 13:15:52*
%MOMM*%
%LPD*%
G01*
G04 APERTURE LIST*
%ADD10C,0.100000*%
%ADD11C,0.150000*%
%ADD12C,0.200000*%
G04 APERTURE END LIST*
D10*
%TO.C,SW2*%
X51182200Y-26061100D02*
X48182200Y-26061100D01*
X48182200Y-26061100D02*
X48182200Y-20061100D01*
X48182200Y-20061100D02*
X54182200Y-20061100D01*
X54182200Y-20061100D02*
X54182200Y-26061100D01*
X54182200Y-26061100D02*
X51182200Y-26061100D01*
X53197764Y-23061100D02*
G75*
G03*
X53197764Y-23061100I-2015564J0D01*
G01*
%TO.C,R4*%
X74808400Y-20941900D02*
X72308400Y-20941900D01*
X72308400Y-20941900D02*
X72308400Y-27241900D01*
X72308400Y-27241900D02*
X74808400Y-27241900D01*
X74808400Y-27241900D02*
X74808400Y-20941900D01*
X73558400Y-20281900D02*
X73558400Y-20941900D01*
X73558400Y-27901900D02*
X73558400Y-27241900D01*
%TO.C,SW1*%
X80265200Y-27585100D02*
X77265200Y-27585100D01*
X77265200Y-27585100D02*
X77265200Y-21585100D01*
X77265200Y-21585100D02*
X83265200Y-21585100D01*
X83265200Y-21585100D02*
X83265200Y-27585100D01*
X83265200Y-27585100D02*
X80265200Y-27585100D01*
X82280764Y-24585100D02*
G75*
G03*
X82280764Y-24585100I-2015564J0D01*
G01*
%TO.C,Q4*%
X87759600Y-57683300D02*
X87759600Y-61183300D01*
X87755975Y-57669675D02*
G75*
G02*
X91989600Y-59423300I1753625J-1753625D01*
G01*
X87755975Y-61176925D02*
G75*
G03*
X91989600Y-59423300I1753625J1753625D01*
G01*
%TO.C,Q3*%
X85397400Y-37033100D02*
X85397400Y-40533100D01*
X85393775Y-37019475D02*
G75*
G02*
X89627400Y-38773100I1753625J-1753625D01*
G01*
X85393775Y-40526725D02*
G75*
G03*
X89627400Y-38773100I1753625J1753625D01*
G01*
%TO.C,Q2*%
X89004200Y-79222500D02*
X89004200Y-82722500D01*
X89000575Y-79208875D02*
G75*
G02*
X93234200Y-80962500I1753625J-1753625D01*
G01*
X89000575Y-82716125D02*
G75*
G03*
X93234200Y-80962500I1753625J1753625D01*
G01*
%TO.C,Q1*%
X81308000Y-101320500D02*
X81308000Y-104820500D01*
X81304375Y-101306875D02*
G75*
G02*
X85538000Y-103060500I1753625J-1753625D01*
G01*
X81304375Y-104814125D02*
G75*
G03*
X85538000Y-103060500I1753625J1753625D01*
G01*
%TO.C,U2*%
X31753800Y-74891500D02*
X31753800Y-79291500D01*
X31753800Y-79291500D02*
X41753800Y-79291500D01*
X41753800Y-79291500D02*
X41753800Y-74891500D01*
X41753800Y-74891500D02*
X31753800Y-74891500D01*
X31753800Y-76161500D02*
X41753800Y-76161500D01*
X34903800Y-74891500D02*
X34903800Y-76161500D01*
X38603800Y-74891500D02*
X38603800Y-76161500D01*
%TO.C,SW4*%
X69419400Y-97662300D02*
X72419400Y-97662300D01*
X72419400Y-97662300D02*
X72419400Y-103662300D01*
X72419400Y-103662300D02*
X66419400Y-103662300D01*
X66419400Y-103662300D02*
X66419400Y-97662300D01*
X66419400Y-97662300D02*
X69419400Y-97662300D01*
X71434964Y-100662300D02*
G75*
G03*
X71434964Y-100662300I-2015564J0D01*
G01*
%TO.C,SW3*%
X55678000Y-97734300D02*
X58678000Y-97734300D01*
X58678000Y-97734300D02*
X58678000Y-103734300D01*
X58678000Y-103734300D02*
X52678000Y-103734300D01*
X52678000Y-103734300D02*
X52678000Y-97734300D01*
X52678000Y-97734300D02*
X55678000Y-97734300D01*
X57693564Y-100734300D02*
G75*
G03*
X57693564Y-100734300I-2015564J0D01*
G01*
%TO.C,R14*%
X97439800Y-44208300D02*
X94939800Y-44208300D01*
X94939800Y-44208300D02*
X94939800Y-50508300D01*
X94939800Y-50508300D02*
X97439800Y-50508300D01*
X97439800Y-50508300D02*
X97439800Y-44208300D01*
X96189800Y-43548300D02*
X96189800Y-44208300D01*
X96189800Y-51168300D02*
X96189800Y-50508300D01*
%TO.C,R13*%
X95331600Y-22059500D02*
X92831600Y-22059500D01*
X92831600Y-22059500D02*
X92831600Y-28359500D01*
X92831600Y-28359500D02*
X95331600Y-28359500D01*
X95331600Y-28359500D02*
X95331600Y-22059500D01*
X94081600Y-21399500D02*
X94081600Y-22059500D01*
X94081600Y-29019500D02*
X94081600Y-28359500D01*
%TO.C,R12*%
X98405000Y-65798300D02*
X95905000Y-65798300D01*
X95905000Y-65798300D02*
X95905000Y-72098300D01*
X95905000Y-72098300D02*
X98405000Y-72098300D01*
X98405000Y-72098300D02*
X98405000Y-65798300D01*
X97155000Y-65138300D02*
X97155000Y-65798300D01*
X97155000Y-72758300D02*
X97155000Y-72098300D01*
%TO.C,R11*%
X83205000Y-57442500D02*
X85705000Y-57442500D01*
X85705000Y-57442500D02*
X85705000Y-51142500D01*
X85705000Y-51142500D02*
X83205000Y-51142500D01*
X83205000Y-51142500D02*
X83205000Y-57442500D01*
X84455000Y-58102500D02*
X84455000Y-57442500D01*
X84455000Y-50482500D02*
X84455000Y-51142500D01*
%TO.C,R10*%
X80258600Y-36639900D02*
X82758600Y-36639900D01*
X82758600Y-36639900D02*
X82758600Y-30339900D01*
X82758600Y-30339900D02*
X80258600Y-30339900D01*
X80258600Y-30339900D02*
X80258600Y-36639900D01*
X81508600Y-37299900D02*
X81508600Y-36639900D01*
X81508600Y-29679900D02*
X81508600Y-30339900D01*
%TO.C,R9*%
X85668800Y-73342900D02*
X88168800Y-73342900D01*
X88168800Y-73342900D02*
X88168800Y-67042900D01*
X88168800Y-67042900D02*
X85668800Y-67042900D01*
X85668800Y-67042900D02*
X85668800Y-73342900D01*
X86918800Y-74002900D02*
X86918800Y-73342900D01*
X86918800Y-66382900D02*
X86918800Y-67042900D01*
%TO.C,R8*%
X61107000Y-104051500D02*
X63607000Y-104051500D01*
X63607000Y-104051500D02*
X63607000Y-97751500D01*
X63607000Y-97751500D02*
X61107000Y-97751500D01*
X61107000Y-97751500D02*
X61107000Y-104051500D01*
X62357000Y-104711500D02*
X62357000Y-104051500D01*
X62357000Y-97091500D02*
X62357000Y-97751500D01*
%TO.C,R7*%
X54305600Y-30066300D02*
X54305600Y-27566300D01*
X54305600Y-27566300D02*
X48005600Y-27566300D01*
X48005600Y-27566300D02*
X48005600Y-30066300D01*
X48005600Y-30066300D02*
X54305600Y-30066300D01*
X54965600Y-28816300D02*
X54305600Y-28816300D01*
X47345600Y-28816300D02*
X48005600Y-28816300D01*
%TO.C,R6*%
X92486800Y-87032700D02*
X89986800Y-87032700D01*
X89986800Y-87032700D02*
X89986800Y-93332700D01*
X89986800Y-93332700D02*
X92486800Y-93332700D01*
X92486800Y-93332700D02*
X92486800Y-87032700D01*
X91236800Y-86372700D02*
X91236800Y-87032700D01*
X91236800Y-93992700D02*
X91236800Y-93332700D01*
%TO.C,R5*%
X47619600Y-104051500D02*
X50119600Y-104051500D01*
X50119600Y-104051500D02*
X50119600Y-97751500D01*
X50119600Y-97751500D02*
X47619600Y-97751500D01*
X47619600Y-97751500D02*
X47619600Y-104051500D01*
X48869600Y-104711500D02*
X48869600Y-104051500D01*
X48869600Y-97091500D02*
X48869600Y-97751500D01*
%TO.C,R3*%
X76347000Y-99250900D02*
X78847000Y-99250900D01*
X78847000Y-99250900D02*
X78847000Y-92950900D01*
X78847000Y-92950900D02*
X76347000Y-92950900D01*
X76347000Y-92950900D02*
X76347000Y-99250900D01*
X77597000Y-99910900D02*
X77597000Y-99250900D01*
X77597000Y-92290900D02*
X77597000Y-92950900D01*
%TO.C,R1*%
X37281800Y-71590300D02*
X39781800Y-71590300D01*
X39781800Y-71590300D02*
X39781800Y-65290300D01*
X39781800Y-65290300D02*
X37281800Y-65290300D01*
X37281800Y-65290300D02*
X37281800Y-71590300D01*
X38531800Y-72250300D02*
X38531800Y-71590300D01*
X38531800Y-64630300D02*
X38531800Y-65290300D01*
%TO.C,J10*%
X35128200Y-64579500D02*
X33223200Y-64579500D01*
X33223200Y-64579500D02*
X33223200Y-56959500D01*
X33223200Y-56959500D02*
X35763200Y-56959500D01*
X35763200Y-56959500D02*
X35763200Y-63944500D01*
X35763200Y-63944500D02*
X35128200Y-64579500D01*
%TO.C,J9*%
X35128200Y-73672700D02*
X33223200Y-73672700D01*
X33223200Y-73672700D02*
X33223200Y-66052700D01*
X33223200Y-66052700D02*
X35763200Y-66052700D01*
X35763200Y-66052700D02*
X35763200Y-73037700D01*
X35763200Y-73037700D02*
X35128200Y-73672700D01*
%TO.C,J8*%
X132310000Y-56222900D02*
G75*
G03*
X132310000Y-56222900I-1500000J0D01*
G01*
X132310000Y-51222900D02*
G75*
G03*
X132310000Y-51222900I-1500000J0D01*
G01*
X132310000Y-46222900D02*
G75*
G03*
X132310000Y-46222900I-1500000J0D01*
G01*
X125610000Y-58722900D02*
X125610000Y-43722900D01*
X125610000Y-43722900D02*
X135410000Y-43722900D01*
X135410000Y-43722900D02*
X135410000Y-58222900D01*
X135410000Y-58222900D02*
X134910000Y-58722900D01*
X134910000Y-58722900D02*
X125610000Y-58722900D01*
X134910000Y-58722900D02*
X134910000Y-43722900D01*
X133410000Y-58722900D02*
X133410000Y-43722900D01*
X128510000Y-58722900D02*
X128510000Y-43722900D01*
X129855000Y-55084900D02*
X131948000Y-57177900D01*
X129672000Y-55267900D02*
X131765000Y-57360900D01*
X129855000Y-50084900D02*
X131948000Y-52176900D01*
X129672000Y-50267900D02*
X131765000Y-52359900D01*
X129855000Y-45084900D02*
X131948000Y-47176900D01*
X129672000Y-45267900D02*
X131765000Y-47359900D01*
%TO.C,J7*%
X132462400Y-33794700D02*
G75*
G03*
X132462400Y-33794700I-1500000J0D01*
G01*
X132462400Y-28794700D02*
G75*
G03*
X132462400Y-28794700I-1500000J0D01*
G01*
X132462400Y-23794700D02*
G75*
G03*
X132462400Y-23794700I-1500000J0D01*
G01*
X125762400Y-36294700D02*
X125762400Y-21294700D01*
X125762400Y-21294700D02*
X135562400Y-21294700D01*
X135562400Y-21294700D02*
X135562400Y-35794700D01*
X135562400Y-35794700D02*
X135062400Y-36294700D01*
X135062400Y-36294700D02*
X125762400Y-36294700D01*
X135062400Y-36294700D02*
X135062400Y-21294700D01*
X133562400Y-36294700D02*
X133562400Y-21294700D01*
X128662400Y-36294700D02*
X128662400Y-21294700D01*
X130007400Y-32656700D02*
X132100400Y-34749700D01*
X129824400Y-32839700D02*
X131917400Y-34932700D01*
X130007400Y-27656700D02*
X132100400Y-29748700D01*
X129824400Y-27839700D02*
X131917400Y-29931700D01*
X130007400Y-22656700D02*
X132100400Y-24748700D01*
X129824400Y-22839700D02*
X131917400Y-24931700D01*
%TO.C,J6*%
X132741800Y-77228700D02*
G75*
G03*
X132741800Y-77228700I-1500000J0D01*
G01*
X132741800Y-72228700D02*
G75*
G03*
X132741800Y-72228700I-1500000J0D01*
G01*
X132741800Y-67228700D02*
G75*
G03*
X132741800Y-67228700I-1500000J0D01*
G01*
X126041800Y-79728700D02*
X126041800Y-64728700D01*
X126041800Y-64728700D02*
X135841800Y-64728700D01*
X135841800Y-64728700D02*
X135841800Y-79228700D01*
X135841800Y-79228700D02*
X135341800Y-79728700D01*
X135341800Y-79728700D02*
X126041800Y-79728700D01*
X135341800Y-79728700D02*
X135341800Y-64728700D01*
X133841800Y-79728700D02*
X133841800Y-64728700D01*
X128941800Y-79728700D02*
X128941800Y-64728700D01*
X130286800Y-76090700D02*
X132379800Y-78183700D01*
X130103800Y-76273700D02*
X132196800Y-78366700D01*
X130286800Y-71090700D02*
X132379800Y-73182700D01*
X130103800Y-71273700D02*
X132196800Y-73365700D01*
X130286800Y-66090700D02*
X132379800Y-68182700D01*
X130103800Y-66273700D02*
X132196800Y-68365700D01*
%TO.C,J5*%
X132868800Y-96837500D02*
G75*
G03*
X132868800Y-96837500I-1500000J0D01*
G01*
X132868800Y-91837500D02*
G75*
G03*
X132868800Y-91837500I-1500000J0D01*
G01*
X132868800Y-86837500D02*
G75*
G03*
X132868800Y-86837500I-1500000J0D01*
G01*
X126168800Y-99337500D02*
X126168800Y-84337500D01*
X126168800Y-84337500D02*
X135968800Y-84337500D01*
X135968800Y-84337500D02*
X135968800Y-98837500D01*
X135968800Y-98837500D02*
X135468800Y-99337500D01*
X135468800Y-99337500D02*
X126168800Y-99337500D01*
X135468800Y-99337500D02*
X135468800Y-84337500D01*
X133968800Y-99337500D02*
X133968800Y-84337500D01*
X129068800Y-99337500D02*
X129068800Y-84337500D01*
X130413800Y-95699500D02*
X132506800Y-97792500D01*
X130230800Y-95882500D02*
X132323800Y-97975500D01*
X130413800Y-90699500D02*
X132506800Y-92791500D01*
X130230800Y-90882500D02*
X132323800Y-92974500D01*
X130413800Y-85699500D02*
X132506800Y-87791500D01*
X130230800Y-85882500D02*
X132323800Y-87974500D01*
%TO.C,J2*%
X30089375Y-91887713D02*
X30844800Y-91084500D01*
X30094800Y-102084500D02*
X39094800Y-102084500D01*
X30094800Y-105584500D02*
X39094800Y-105584500D01*
X39094800Y-105584500D02*
X39094800Y-91084500D01*
X39094800Y-91084500D02*
X30844800Y-91084500D01*
X30094800Y-91884500D02*
X30094800Y-105584500D01*
%TO.C,D9*%
X98740600Y-56019700D02*
G75*
G03*
X98740600Y-56019700I-2500000J0D01*
G01*
X94770906Y-58519700D02*
X97710294Y-58519700D01*
X97710266Y-58519716D02*
G75*
G03*
X94770906Y-58519700I-1469666J2500016D01*
G01*
%TO.C,D8*%
X96607000Y-33693100D02*
G75*
G03*
X96607000Y-33693100I-2500000J0D01*
G01*
X92637306Y-36193100D02*
X95576694Y-36193100D01*
X95576666Y-36193116D02*
G75*
G03*
X92637306Y-36193100I-1469666J2500016D01*
G01*
%TO.C,D7*%
X99578800Y-77863700D02*
G75*
G03*
X99578800Y-77863700I-2500000J0D01*
G01*
X95609106Y-80363700D02*
X98548494Y-80363700D01*
X98548466Y-80363716D02*
G75*
G03*
X95609106Y-80363700I-1469666J2500016D01*
G01*
%TO.C,D3*%
X93686000Y-98437700D02*
G75*
G03*
X93686000Y-98437700I-2500000J0D01*
G01*
X89716306Y-100937700D02*
X92655694Y-100937700D01*
X92655666Y-100937716D02*
G75*
G03*
X89716306Y-100937700I-1469666J2500016D01*
G01*
%TO.C,D1*%
X42352600Y-59753500D02*
G75*
G03*
X42352600Y-59753500I-2500000J0D01*
G01*
X42352600Y-61223194D02*
X42352600Y-58283806D01*
X42352616Y-58283834D02*
G75*
G03*
X42352600Y-61223194I-2500016J-1469666D01*
G01*
%TO.C,C2*%
X40462600Y-85057300D02*
G75*
G03*
X40462600Y-85057300I-3150000J0D01*
G01*
X38686100Y-82363328D02*
X38686100Y-82993328D01*
X39001100Y-82678328D02*
X38371100Y-82678328D01*
%TO.C,C1*%
X32360000Y-85158900D02*
G75*
G03*
X32360000Y-85158900I-3150000J0D01*
G01*
X30583500Y-82464928D02*
X30583500Y-83094928D01*
X30898500Y-82779928D02*
X30268500Y-82779928D01*
%TO.C,K4*%
X101472400Y-51193700D02*
X100472400Y-50193700D01*
X100472400Y-50193700D02*
X100472400Y-42943700D01*
X100472400Y-42943700D02*
X122972400Y-42943700D01*
X122972400Y-42943700D02*
X122972400Y-59443700D01*
X122972400Y-59443700D02*
X100472400Y-59443700D01*
X100472400Y-59443700D02*
X100472400Y-52193700D01*
X100472400Y-52193700D02*
X101472400Y-51193700D01*
X105022400Y-55693700D02*
X105022400Y-46693700D01*
%TO.C,K3*%
X100786600Y-28917900D02*
X99786600Y-27917900D01*
X99786600Y-27917900D02*
X99786600Y-20667900D01*
X99786600Y-20667900D02*
X122286600Y-20667900D01*
X122286600Y-20667900D02*
X122286600Y-37167900D01*
X122286600Y-37167900D02*
X99786600Y-37167900D01*
X99786600Y-37167900D02*
X99786600Y-29917900D01*
X99786600Y-29917900D02*
X100786600Y-28917900D01*
X104336600Y-33417900D02*
X104336600Y-24417900D01*
%TO.C,K2*%
X102336000Y-72580500D02*
X101336000Y-71580500D01*
X101336000Y-71580500D02*
X101336000Y-64330500D01*
X101336000Y-64330500D02*
X123836000Y-64330500D01*
X123836000Y-64330500D02*
X123836000Y-80830500D01*
X123836000Y-80830500D02*
X101336000Y-80830500D01*
X101336000Y-80830500D02*
X101336000Y-73580500D01*
X101336000Y-73580500D02*
X102336000Y-72580500D01*
X105886000Y-77080500D02*
X105886000Y-68080500D01*
%TO.C,K1*%
X99211800Y-93637100D02*
X98211800Y-92637100D01*
X98211800Y-92637100D02*
X98211800Y-85387100D01*
X98211800Y-85387100D02*
X120711800Y-85387100D01*
X120711800Y-85387100D02*
X120711800Y-101887100D01*
X120711800Y-101887100D02*
X98211800Y-101887100D01*
X98211800Y-101887100D02*
X98211800Y-94637100D01*
X98211800Y-94637100D02*
X99211800Y-93637100D01*
X102761800Y-98137100D02*
X102761800Y-89137100D01*
%TO.C,D6*%
X91799400Y-46028300D02*
X89099400Y-46028300D01*
X89099400Y-46028300D02*
X89099400Y-51228300D01*
X89099400Y-51228300D02*
X91799400Y-51228300D01*
X91799400Y-51228300D02*
X91799400Y-46028300D01*
X90449400Y-43548300D02*
X90449400Y-46028300D01*
X90449400Y-53708300D02*
X90449400Y-51228300D01*
X91799400Y-46808300D02*
X89099400Y-46808300D01*
X91799400Y-46908300D02*
X89099400Y-46908300D01*
X91799400Y-46708300D02*
X89099400Y-46708300D01*
%TO.C,D5*%
X88726000Y-25251100D02*
X86026000Y-25251100D01*
X86026000Y-25251100D02*
X86026000Y-30451100D01*
X86026000Y-30451100D02*
X88726000Y-30451100D01*
X88726000Y-30451100D02*
X88726000Y-25251100D01*
X87376000Y-22771100D02*
X87376000Y-25251100D01*
X87376000Y-32931100D02*
X87376000Y-30451100D01*
X88726000Y-26031100D02*
X86026000Y-26031100D01*
X88726000Y-26131100D02*
X86026000Y-26131100D01*
X88726000Y-25931100D02*
X86026000Y-25931100D01*
%TO.C,D4*%
X92967800Y-67643700D02*
X90267800Y-67643700D01*
X90267800Y-67643700D02*
X90267800Y-72843700D01*
X90267800Y-72843700D02*
X92967800Y-72843700D01*
X92967800Y-72843700D02*
X92967800Y-67643700D01*
X91617800Y-65163700D02*
X91617800Y-67643700D01*
X91617800Y-75323700D02*
X91617800Y-72843700D01*
X92967800Y-68423700D02*
X90267800Y-68423700D01*
X92967800Y-68523700D02*
X90267800Y-68523700D01*
X92967800Y-68323700D02*
X90267800Y-68323700D01*
%TO.C,D2*%
X84611200Y-89259100D02*
X81911200Y-89259100D01*
X81911200Y-89259100D02*
X81911200Y-94459100D01*
X81911200Y-94459100D02*
X84611200Y-94459100D01*
X84611200Y-94459100D02*
X84611200Y-89259100D01*
X83261200Y-86779100D02*
X83261200Y-89259100D01*
X83261200Y-96939100D02*
X83261200Y-94459100D01*
X84611200Y-90039100D02*
X81911200Y-90039100D01*
X84611200Y-90139100D02*
X81911200Y-90139100D01*
X84611200Y-89939100D02*
X81911200Y-89939100D01*
%TD*%
%TO.C,SW2*%
D11*
X47634580Y-19015861D02*
X47777438Y-19063480D01*
X48015533Y-19063480D01*
X48110771Y-19015861D01*
X48158390Y-18968242D01*
X48206009Y-18873004D01*
X48206009Y-18777766D01*
X48158390Y-18682528D01*
X48110771Y-18634909D01*
X48015533Y-18587290D01*
X47825057Y-18539671D01*
X47729819Y-18492052D01*
X47682200Y-18444433D01*
X47634580Y-18349195D01*
X47634580Y-18253957D01*
X47682200Y-18158719D01*
X47729819Y-18111100D01*
X47825057Y-18063480D01*
X48063152Y-18063480D01*
X48206009Y-18111100D01*
X48539342Y-18063480D02*
X48777438Y-19063480D01*
X48967914Y-18349195D01*
X49158390Y-19063480D01*
X49396485Y-18063480D01*
X49539342Y-19158719D02*
X50301247Y-19158719D01*
X50539342Y-19063480D02*
X50539342Y-18063480D01*
X50920295Y-18063480D01*
X51015533Y-18111100D01*
X51063152Y-18158719D01*
X51110771Y-18253957D01*
X51110771Y-18396814D01*
X51063152Y-18492052D01*
X51015533Y-18539671D01*
X50920295Y-18587290D01*
X50539342Y-18587290D01*
X51967914Y-18396814D02*
X51967914Y-19063480D01*
X51539342Y-18396814D02*
X51539342Y-18920623D01*
X51586961Y-19015861D01*
X51682200Y-19063480D01*
X51825057Y-19063480D01*
X51920295Y-19015861D01*
X51967914Y-18968242D01*
X52396485Y-19015861D02*
X52491723Y-19063480D01*
X52682200Y-19063480D01*
X52777438Y-19015861D01*
X52825057Y-18920623D01*
X52825057Y-18873004D01*
X52777438Y-18777766D01*
X52682200Y-18730147D01*
X52539342Y-18730147D01*
X52444104Y-18682528D01*
X52396485Y-18587290D01*
X52396485Y-18539671D01*
X52444104Y-18444433D01*
X52539342Y-18396814D01*
X52682200Y-18396814D01*
X52777438Y-18444433D01*
X53253628Y-19063480D02*
X53253628Y-18063480D01*
X53682200Y-19063480D02*
X53682200Y-18539671D01*
X53634580Y-18444433D01*
X53539342Y-18396814D01*
X53396485Y-18396814D01*
X53301247Y-18444433D01*
X53253628Y-18492052D01*
X49848866Y-23465861D02*
X49991723Y-23513480D01*
X50229819Y-23513480D01*
X50325057Y-23465861D01*
X50372676Y-23418242D01*
X50420295Y-23323004D01*
X50420295Y-23227766D01*
X50372676Y-23132528D01*
X50325057Y-23084909D01*
X50229819Y-23037290D01*
X50039342Y-22989671D01*
X49944104Y-22942052D01*
X49896485Y-22894433D01*
X49848866Y-22799195D01*
X49848866Y-22703957D01*
X49896485Y-22608719D01*
X49944104Y-22561100D01*
X50039342Y-22513480D01*
X50277438Y-22513480D01*
X50420295Y-22561100D01*
X50753628Y-22513480D02*
X50991723Y-23513480D01*
X51182200Y-22799195D01*
X51372676Y-23513480D01*
X51610771Y-22513480D01*
X51944104Y-22608719D02*
X51991723Y-22561100D01*
X52086961Y-22513480D01*
X52325057Y-22513480D01*
X52420295Y-22561100D01*
X52467914Y-22608719D01*
X52515533Y-22703957D01*
X52515533Y-22799195D01*
X52467914Y-22942052D01*
X51896485Y-23513480D01*
X52515533Y-23513480D01*
%TO.C,R4*%
X71640780Y-26282376D02*
X71164590Y-26615709D01*
X71640780Y-26853804D02*
X70640780Y-26853804D01*
X70640780Y-26472852D01*
X70688400Y-26377614D01*
X70736019Y-26329995D01*
X70831257Y-26282376D01*
X70974114Y-26282376D01*
X71069352Y-26329995D01*
X71116971Y-26377614D01*
X71164590Y-26472852D01*
X71164590Y-26853804D01*
X71736019Y-26091900D02*
X71736019Y-25329995D01*
X71593161Y-25139519D02*
X71640780Y-24996661D01*
X71640780Y-24758566D01*
X71593161Y-24663328D01*
X71545542Y-24615709D01*
X71450304Y-24568090D01*
X71355066Y-24568090D01*
X71259828Y-24615709D01*
X71212209Y-24663328D01*
X71164590Y-24758566D01*
X71116971Y-24949042D01*
X71069352Y-25044280D01*
X71021733Y-25091900D01*
X70926495Y-25139519D01*
X70831257Y-25139519D01*
X70736019Y-25091900D01*
X70688400Y-25044280D01*
X70640780Y-24949042D01*
X70640780Y-24710947D01*
X70688400Y-24568090D01*
X71640780Y-24139519D02*
X70974114Y-24139519D01*
X71069352Y-24139519D02*
X71021733Y-24091900D01*
X70974114Y-23996661D01*
X70974114Y-23853804D01*
X71021733Y-23758566D01*
X71116971Y-23710947D01*
X71640780Y-23710947D01*
X71116971Y-23710947D02*
X71021733Y-23663328D01*
X70974114Y-23568090D01*
X70974114Y-23425233D01*
X71021733Y-23329995D01*
X71116971Y-23282376D01*
X71640780Y-23282376D01*
X71640780Y-22377614D02*
X71116971Y-22377614D01*
X71021733Y-22425233D01*
X70974114Y-22520471D01*
X70974114Y-22710947D01*
X71021733Y-22806185D01*
X71593161Y-22377614D02*
X71640780Y-22472852D01*
X71640780Y-22710947D01*
X71593161Y-22806185D01*
X71497923Y-22853804D01*
X71402685Y-22853804D01*
X71307447Y-22806185D01*
X71259828Y-22710947D01*
X71259828Y-22472852D01*
X71212209Y-22377614D01*
X71640780Y-21758566D02*
X71593161Y-21853804D01*
X71497923Y-21901423D01*
X70640780Y-21901423D01*
X71640780Y-21234757D02*
X71593161Y-21329995D01*
X71497923Y-21377614D01*
X70640780Y-21377614D01*
X74213980Y-24664966D02*
X73737790Y-24998300D01*
X74213980Y-25236395D02*
X73213980Y-25236395D01*
X73213980Y-24855442D01*
X73261600Y-24760204D01*
X73309219Y-24712585D01*
X73404457Y-24664966D01*
X73547314Y-24664966D01*
X73642552Y-24712585D01*
X73690171Y-24760204D01*
X73737790Y-24855442D01*
X73737790Y-25236395D01*
X73547314Y-23807823D02*
X74213980Y-23807823D01*
X73166361Y-24045919D02*
X73880647Y-24284014D01*
X73880647Y-23664966D01*
%TO.C,U1*%
X49972485Y-33916880D02*
X49972485Y-32916880D01*
X50543914Y-33916880D01*
X50543914Y-32916880D01*
X51162961Y-33916880D02*
X51067723Y-33869261D01*
X51020104Y-33821642D01*
X50972485Y-33726404D01*
X50972485Y-33440690D01*
X51020104Y-33345452D01*
X51067723Y-33297833D01*
X51162961Y-33250214D01*
X51305819Y-33250214D01*
X51401057Y-33297833D01*
X51448676Y-33345452D01*
X51496295Y-33440690D01*
X51496295Y-33726404D01*
X51448676Y-33821642D01*
X51401057Y-33869261D01*
X51305819Y-33916880D01*
X51162961Y-33916880D01*
X52353438Y-33916880D02*
X52353438Y-32916880D01*
X52353438Y-33869261D02*
X52258200Y-33916880D01*
X52067723Y-33916880D01*
X51972485Y-33869261D01*
X51924866Y-33821642D01*
X51877247Y-33726404D01*
X51877247Y-33440690D01*
X51924866Y-33345452D01*
X51972485Y-33297833D01*
X52067723Y-33250214D01*
X52258200Y-33250214D01*
X52353438Y-33297833D01*
X53210580Y-33869261D02*
X53115342Y-33916880D01*
X52924866Y-33916880D01*
X52829628Y-33869261D01*
X52782009Y-33774023D01*
X52782009Y-33393071D01*
X52829628Y-33297833D01*
X52924866Y-33250214D01*
X53115342Y-33250214D01*
X53210580Y-33297833D01*
X53258200Y-33393071D01*
X53258200Y-33488309D01*
X52782009Y-33583547D01*
X53686771Y-33916880D02*
X53686771Y-32916880D01*
X54020104Y-33631166D01*
X54353438Y-32916880D01*
X54353438Y-33916880D01*
X55401057Y-33821642D02*
X55353438Y-33869261D01*
X55210580Y-33916880D01*
X55115342Y-33916880D01*
X54972485Y-33869261D01*
X54877247Y-33774023D01*
X54829628Y-33678785D01*
X54782009Y-33488309D01*
X54782009Y-33345452D01*
X54829628Y-33154976D01*
X54877247Y-33059738D01*
X54972485Y-32964500D01*
X55115342Y-32916880D01*
X55210580Y-32916880D01*
X55353438Y-32964500D01*
X55401057Y-33012119D01*
X55829628Y-32916880D02*
X55829628Y-33726404D01*
X55877247Y-33821642D01*
X55924866Y-33869261D01*
X56020104Y-33916880D01*
X56210580Y-33916880D01*
X56305819Y-33869261D01*
X56353438Y-33821642D01*
X56401057Y-33726404D01*
X56401057Y-32916880D01*
X56639152Y-34012119D02*
X57401057Y-34012119D01*
X58162961Y-33916880D02*
X57591533Y-33916880D01*
X57877247Y-33916880D02*
X57877247Y-32916880D01*
X57782009Y-33059738D01*
X57686771Y-33154976D01*
X57591533Y-33202595D01*
X58591533Y-33821642D02*
X58639152Y-33869261D01*
X58591533Y-33916880D01*
X58543914Y-33869261D01*
X58591533Y-33821642D01*
X58591533Y-33916880D01*
X59258200Y-32916880D02*
X59353438Y-32916880D01*
X59448676Y-32964500D01*
X59496295Y-33012119D01*
X59543914Y-33107357D01*
X59591533Y-33297833D01*
X59591533Y-33535928D01*
X59543914Y-33726404D01*
X59496295Y-33821642D01*
X59448676Y-33869261D01*
X59353438Y-33916880D01*
X59258200Y-33916880D01*
X59162961Y-33869261D01*
X59115342Y-33821642D01*
X59067723Y-33726404D01*
X59020104Y-33535928D01*
X59020104Y-33297833D01*
X59067723Y-33107357D01*
X59115342Y-33012119D01*
X59162961Y-32964500D01*
X59258200Y-32916880D01*
X59782009Y-34012119D02*
X60543914Y-34012119D01*
X61067723Y-34297833D02*
X61020104Y-34250214D01*
X60924866Y-34107357D01*
X60877247Y-34012119D01*
X60829628Y-33869261D01*
X60782009Y-33631166D01*
X60782009Y-33440690D01*
X60829628Y-33202595D01*
X60877247Y-33059738D01*
X60924866Y-32964500D01*
X61020104Y-32821642D01*
X61067723Y-32774023D01*
X61448676Y-33393071D02*
X61782009Y-33393071D01*
X61924866Y-33916880D02*
X61448676Y-33916880D01*
X61448676Y-32916880D01*
X61924866Y-32916880D01*
X62305819Y-33869261D02*
X62448676Y-33916880D01*
X62686771Y-33916880D01*
X62782009Y-33869261D01*
X62829628Y-33821642D01*
X62877247Y-33726404D01*
X62877247Y-33631166D01*
X62829628Y-33535928D01*
X62782009Y-33488309D01*
X62686771Y-33440690D01*
X62496295Y-33393071D01*
X62401057Y-33345452D01*
X62353438Y-33297833D01*
X62305819Y-33202595D01*
X62305819Y-33107357D01*
X62353438Y-33012119D01*
X62401057Y-32964500D01*
X62496295Y-32916880D01*
X62734390Y-32916880D01*
X62877247Y-32964500D01*
X63305819Y-33916880D02*
X63305819Y-32916880D01*
X63686771Y-32916880D01*
X63782009Y-32964500D01*
X63829628Y-33012119D01*
X63877247Y-33107357D01*
X63877247Y-33250214D01*
X63829628Y-33345452D01*
X63782009Y-33393071D01*
X63686771Y-33440690D01*
X63305819Y-33440690D01*
X64305819Y-33535928D02*
X65067723Y-33535928D01*
X66067723Y-33916880D02*
X65496295Y-33916880D01*
X65782009Y-33916880D02*
X65782009Y-32916880D01*
X65686771Y-33059738D01*
X65591533Y-33154976D01*
X65496295Y-33202595D01*
X66448676Y-33012119D02*
X66496295Y-32964500D01*
X66591533Y-32916880D01*
X66829628Y-32916880D01*
X66924866Y-32964500D01*
X66972485Y-33012119D01*
X67020104Y-33107357D01*
X67020104Y-33202595D01*
X66972485Y-33345452D01*
X66401057Y-33916880D01*
X67020104Y-33916880D01*
X67448676Y-33393071D02*
X67782009Y-33393071D01*
X67924866Y-33916880D02*
X67448676Y-33916880D01*
X67448676Y-32916880D01*
X67924866Y-32916880D01*
X68258200Y-34297833D02*
X68305819Y-34250214D01*
X68401057Y-34107357D01*
X68448676Y-34012119D01*
X68496295Y-33869261D01*
X68543914Y-33631166D01*
X68543914Y-33440690D01*
X68496295Y-33202595D01*
X68448676Y-33059738D01*
X68401057Y-32964500D01*
X68305819Y-32821642D01*
X68258200Y-32774023D01*
%TO.C,SW1*%
X76717580Y-20539861D02*
X76860438Y-20587480D01*
X77098533Y-20587480D01*
X77193771Y-20539861D01*
X77241390Y-20492242D01*
X77289009Y-20397004D01*
X77289009Y-20301766D01*
X77241390Y-20206528D01*
X77193771Y-20158909D01*
X77098533Y-20111290D01*
X76908057Y-20063671D01*
X76812819Y-20016052D01*
X76765200Y-19968433D01*
X76717580Y-19873195D01*
X76717580Y-19777957D01*
X76765200Y-19682719D01*
X76812819Y-19635100D01*
X76908057Y-19587480D01*
X77146152Y-19587480D01*
X77289009Y-19635100D01*
X77622342Y-19587480D02*
X77860438Y-20587480D01*
X78050914Y-19873195D01*
X78241390Y-20587480D01*
X78479485Y-19587480D01*
X78622342Y-20682719D02*
X79384247Y-20682719D01*
X79622342Y-20587480D02*
X79622342Y-19587480D01*
X80003295Y-19587480D01*
X80098533Y-19635100D01*
X80146152Y-19682719D01*
X80193771Y-19777957D01*
X80193771Y-19920814D01*
X80146152Y-20016052D01*
X80098533Y-20063671D01*
X80003295Y-20111290D01*
X79622342Y-20111290D01*
X81050914Y-19920814D02*
X81050914Y-20587480D01*
X80622342Y-19920814D02*
X80622342Y-20444623D01*
X80669961Y-20539861D01*
X80765200Y-20587480D01*
X80908057Y-20587480D01*
X81003295Y-20539861D01*
X81050914Y-20492242D01*
X81479485Y-20539861D02*
X81574723Y-20587480D01*
X81765200Y-20587480D01*
X81860438Y-20539861D01*
X81908057Y-20444623D01*
X81908057Y-20397004D01*
X81860438Y-20301766D01*
X81765200Y-20254147D01*
X81622342Y-20254147D01*
X81527104Y-20206528D01*
X81479485Y-20111290D01*
X81479485Y-20063671D01*
X81527104Y-19968433D01*
X81622342Y-19920814D01*
X81765200Y-19920814D01*
X81860438Y-19968433D01*
X82336628Y-20587480D02*
X82336628Y-19587480D01*
X82765200Y-20587480D02*
X82765200Y-20063671D01*
X82717580Y-19968433D01*
X82622342Y-19920814D01*
X82479485Y-19920814D01*
X82384247Y-19968433D01*
X82336628Y-20016052D01*
X78830867Y-25083662D02*
X78973724Y-25131281D01*
X79211820Y-25131281D01*
X79307058Y-25083662D01*
X79354677Y-25036043D01*
X79402296Y-24940805D01*
X79402296Y-24845567D01*
X79354677Y-24750329D01*
X79307058Y-24702710D01*
X79211820Y-24655091D01*
X79021343Y-24607472D01*
X78926105Y-24559853D01*
X78878486Y-24512234D01*
X78830867Y-24416996D01*
X78830867Y-24321758D01*
X78878486Y-24226520D01*
X78926105Y-24178901D01*
X79021343Y-24131281D01*
X79259439Y-24131281D01*
X79402296Y-24178901D01*
X79735629Y-24131281D02*
X79973724Y-25131281D01*
X80164201Y-24416996D01*
X80354677Y-25131281D01*
X80592772Y-24131281D01*
X81497534Y-25131281D02*
X80926105Y-25131281D01*
X81211820Y-25131281D02*
X81211820Y-24131281D01*
X81116581Y-24274139D01*
X81021343Y-24369377D01*
X80926105Y-24416996D01*
%TO.C,Q4*%
X86648171Y-61280442D02*
X86695790Y-61137585D01*
X86743409Y-61089966D01*
X86838647Y-61042347D01*
X86981504Y-61042347D01*
X87076742Y-61089966D01*
X87124361Y-61137585D01*
X87171980Y-61232823D01*
X87171980Y-61613776D01*
X86171980Y-61613776D01*
X86171980Y-61280442D01*
X86219600Y-61185204D01*
X86267219Y-61137585D01*
X86362457Y-61089966D01*
X86457695Y-61089966D01*
X86552933Y-61137585D01*
X86600552Y-61185204D01*
X86648171Y-61280442D01*
X86648171Y-61613776D01*
X87076742Y-60042347D02*
X87124361Y-60089966D01*
X87171980Y-60232823D01*
X87171980Y-60328061D01*
X87124361Y-60470919D01*
X87029123Y-60566157D01*
X86933885Y-60613776D01*
X86743409Y-60661395D01*
X86600552Y-60661395D01*
X86410076Y-60613776D01*
X86314838Y-60566157D01*
X86219600Y-60470919D01*
X86171980Y-60328061D01*
X86171980Y-60232823D01*
X86219600Y-60089966D01*
X86267219Y-60042347D01*
X86171980Y-59137585D02*
X86171980Y-59613776D01*
X86648171Y-59661395D01*
X86600552Y-59613776D01*
X86552933Y-59518538D01*
X86552933Y-59280442D01*
X86600552Y-59185204D01*
X86648171Y-59137585D01*
X86743409Y-59089966D01*
X86981504Y-59089966D01*
X87076742Y-59137585D01*
X87124361Y-59185204D01*
X87171980Y-59280442D01*
X87171980Y-59518538D01*
X87124361Y-59613776D01*
X87076742Y-59661395D01*
X86505314Y-58232823D02*
X87171980Y-58232823D01*
X86124361Y-58470919D02*
X86838647Y-58709014D01*
X86838647Y-58089966D01*
X86171980Y-57804252D02*
X86171980Y-57137585D01*
X87171980Y-57566157D01*
X90057219Y-59518538D02*
X90009600Y-59613776D01*
X89914361Y-59709014D01*
X89771504Y-59851871D01*
X89723885Y-59947109D01*
X89723885Y-60042347D01*
X89961980Y-59994728D02*
X89914361Y-60089966D01*
X89819123Y-60185204D01*
X89628647Y-60232823D01*
X89295314Y-60232823D01*
X89104838Y-60185204D01*
X89009600Y-60089966D01*
X88961980Y-59994728D01*
X88961980Y-59804252D01*
X89009600Y-59709014D01*
X89104838Y-59613776D01*
X89295314Y-59566157D01*
X89628647Y-59566157D01*
X89819123Y-59613776D01*
X89914361Y-59709014D01*
X89961980Y-59804252D01*
X89961980Y-59994728D01*
X89295314Y-58709014D02*
X89961980Y-58709014D01*
X88914361Y-58947109D02*
X89628647Y-59185204D01*
X89628647Y-58566157D01*
%TO.C,Q3*%
X84285971Y-40630242D02*
X84333590Y-40487385D01*
X84381209Y-40439766D01*
X84476447Y-40392147D01*
X84619304Y-40392147D01*
X84714542Y-40439766D01*
X84762161Y-40487385D01*
X84809780Y-40582623D01*
X84809780Y-40963576D01*
X83809780Y-40963576D01*
X83809780Y-40630242D01*
X83857400Y-40535004D01*
X83905019Y-40487385D01*
X84000257Y-40439766D01*
X84095495Y-40439766D01*
X84190733Y-40487385D01*
X84238352Y-40535004D01*
X84285971Y-40630242D01*
X84285971Y-40963576D01*
X84714542Y-39392147D02*
X84762161Y-39439766D01*
X84809780Y-39582623D01*
X84809780Y-39677861D01*
X84762161Y-39820719D01*
X84666923Y-39915957D01*
X84571685Y-39963576D01*
X84381209Y-40011195D01*
X84238352Y-40011195D01*
X84047876Y-39963576D01*
X83952638Y-39915957D01*
X83857400Y-39820719D01*
X83809780Y-39677861D01*
X83809780Y-39582623D01*
X83857400Y-39439766D01*
X83905019Y-39392147D01*
X83809780Y-38487385D02*
X83809780Y-38963576D01*
X84285971Y-39011195D01*
X84238352Y-38963576D01*
X84190733Y-38868338D01*
X84190733Y-38630242D01*
X84238352Y-38535004D01*
X84285971Y-38487385D01*
X84381209Y-38439766D01*
X84619304Y-38439766D01*
X84714542Y-38487385D01*
X84762161Y-38535004D01*
X84809780Y-38630242D01*
X84809780Y-38868338D01*
X84762161Y-38963576D01*
X84714542Y-39011195D01*
X84143114Y-37582623D02*
X84809780Y-37582623D01*
X83762161Y-37820719D02*
X84476447Y-38058814D01*
X84476447Y-37439766D01*
X83809780Y-37154052D02*
X83809780Y-36487385D01*
X84809780Y-36915957D01*
X87695019Y-38868338D02*
X87647400Y-38963576D01*
X87552161Y-39058814D01*
X87409304Y-39201671D01*
X87361685Y-39296909D01*
X87361685Y-39392147D01*
X87599780Y-39344528D02*
X87552161Y-39439766D01*
X87456923Y-39535004D01*
X87266447Y-39582623D01*
X86933114Y-39582623D01*
X86742638Y-39535004D01*
X86647400Y-39439766D01*
X86599780Y-39344528D01*
X86599780Y-39154052D01*
X86647400Y-39058814D01*
X86742638Y-38963576D01*
X86933114Y-38915957D01*
X87266447Y-38915957D01*
X87456923Y-38963576D01*
X87552161Y-39058814D01*
X87599780Y-39154052D01*
X87599780Y-39344528D01*
X86599780Y-38582623D02*
X86599780Y-37963576D01*
X86980733Y-38296909D01*
X86980733Y-38154052D01*
X87028352Y-38058814D01*
X87075971Y-38011195D01*
X87171209Y-37963576D01*
X87409304Y-37963576D01*
X87504542Y-38011195D01*
X87552161Y-38058814D01*
X87599780Y-38154052D01*
X87599780Y-38439766D01*
X87552161Y-38535004D01*
X87504542Y-38582623D01*
%TO.C,Q2*%
X87892771Y-82819642D02*
X87940390Y-82676785D01*
X87988009Y-82629166D01*
X88083247Y-82581547D01*
X88226104Y-82581547D01*
X88321342Y-82629166D01*
X88368961Y-82676785D01*
X88416580Y-82772023D01*
X88416580Y-83152976D01*
X87416580Y-83152976D01*
X87416580Y-82819642D01*
X87464200Y-82724404D01*
X87511819Y-82676785D01*
X87607057Y-82629166D01*
X87702295Y-82629166D01*
X87797533Y-82676785D01*
X87845152Y-82724404D01*
X87892771Y-82819642D01*
X87892771Y-83152976D01*
X88321342Y-81581547D02*
X88368961Y-81629166D01*
X88416580Y-81772023D01*
X88416580Y-81867261D01*
X88368961Y-82010119D01*
X88273723Y-82105357D01*
X88178485Y-82152976D01*
X87988009Y-82200595D01*
X87845152Y-82200595D01*
X87654676Y-82152976D01*
X87559438Y-82105357D01*
X87464200Y-82010119D01*
X87416580Y-81867261D01*
X87416580Y-81772023D01*
X87464200Y-81629166D01*
X87511819Y-81581547D01*
X87416580Y-80676785D02*
X87416580Y-81152976D01*
X87892771Y-81200595D01*
X87845152Y-81152976D01*
X87797533Y-81057738D01*
X87797533Y-80819642D01*
X87845152Y-80724404D01*
X87892771Y-80676785D01*
X87988009Y-80629166D01*
X88226104Y-80629166D01*
X88321342Y-80676785D01*
X88368961Y-80724404D01*
X88416580Y-80819642D01*
X88416580Y-81057738D01*
X88368961Y-81152976D01*
X88321342Y-81200595D01*
X87749914Y-79772023D02*
X88416580Y-79772023D01*
X87368961Y-80010119D02*
X88083247Y-80248214D01*
X88083247Y-79629166D01*
X87416580Y-79343452D02*
X87416580Y-78676785D01*
X88416580Y-79105357D01*
X91301819Y-81057738D02*
X91254200Y-81152976D01*
X91158961Y-81248214D01*
X91016104Y-81391071D01*
X90968485Y-81486309D01*
X90968485Y-81581547D01*
X91206580Y-81533928D02*
X91158961Y-81629166D01*
X91063723Y-81724404D01*
X90873247Y-81772023D01*
X90539914Y-81772023D01*
X90349438Y-81724404D01*
X90254200Y-81629166D01*
X90206580Y-81533928D01*
X90206580Y-81343452D01*
X90254200Y-81248214D01*
X90349438Y-81152976D01*
X90539914Y-81105357D01*
X90873247Y-81105357D01*
X91063723Y-81152976D01*
X91158961Y-81248214D01*
X91206580Y-81343452D01*
X91206580Y-81533928D01*
X90301819Y-80724404D02*
X90254200Y-80676785D01*
X90206580Y-80581547D01*
X90206580Y-80343452D01*
X90254200Y-80248214D01*
X90301819Y-80200595D01*
X90397057Y-80152976D01*
X90492295Y-80152976D01*
X90635152Y-80200595D01*
X91206580Y-80772023D01*
X91206580Y-80152976D01*
%TO.C,Q1*%
X80196571Y-104917642D02*
X80244190Y-104774785D01*
X80291809Y-104727166D01*
X80387047Y-104679547D01*
X80529904Y-104679547D01*
X80625142Y-104727166D01*
X80672761Y-104774785D01*
X80720380Y-104870023D01*
X80720380Y-105250976D01*
X79720380Y-105250976D01*
X79720380Y-104917642D01*
X79768000Y-104822404D01*
X79815619Y-104774785D01*
X79910857Y-104727166D01*
X80006095Y-104727166D01*
X80101333Y-104774785D01*
X80148952Y-104822404D01*
X80196571Y-104917642D01*
X80196571Y-105250976D01*
X80625142Y-103679547D02*
X80672761Y-103727166D01*
X80720380Y-103870023D01*
X80720380Y-103965261D01*
X80672761Y-104108119D01*
X80577523Y-104203357D01*
X80482285Y-104250976D01*
X80291809Y-104298595D01*
X80148952Y-104298595D01*
X79958476Y-104250976D01*
X79863238Y-104203357D01*
X79768000Y-104108119D01*
X79720380Y-103965261D01*
X79720380Y-103870023D01*
X79768000Y-103727166D01*
X79815619Y-103679547D01*
X79720380Y-102774785D02*
X79720380Y-103250976D01*
X80196571Y-103298595D01*
X80148952Y-103250976D01*
X80101333Y-103155738D01*
X80101333Y-102917642D01*
X80148952Y-102822404D01*
X80196571Y-102774785D01*
X80291809Y-102727166D01*
X80529904Y-102727166D01*
X80625142Y-102774785D01*
X80672761Y-102822404D01*
X80720380Y-102917642D01*
X80720380Y-103155738D01*
X80672761Y-103250976D01*
X80625142Y-103298595D01*
X80053714Y-101870023D02*
X80720380Y-101870023D01*
X79672761Y-102108119D02*
X80387047Y-102346214D01*
X80387047Y-101727166D01*
X79720380Y-101441452D02*
X79720380Y-100774785D01*
X80720380Y-101203357D01*
X83605619Y-103155738D02*
X83558000Y-103250976D01*
X83462761Y-103346214D01*
X83319904Y-103489071D01*
X83272285Y-103584309D01*
X83272285Y-103679547D01*
X83510380Y-103631928D02*
X83462761Y-103727166D01*
X83367523Y-103822404D01*
X83177047Y-103870023D01*
X82843714Y-103870023D01*
X82653238Y-103822404D01*
X82558000Y-103727166D01*
X82510380Y-103631928D01*
X82510380Y-103441452D01*
X82558000Y-103346214D01*
X82653238Y-103250976D01*
X82843714Y-103203357D01*
X83177047Y-103203357D01*
X83367523Y-103250976D01*
X83462761Y-103346214D01*
X83510380Y-103441452D01*
X83510380Y-103631928D01*
X83510380Y-102250976D02*
X83510380Y-102822404D01*
X83510380Y-102536690D02*
X82510380Y-102536690D01*
X82653238Y-102631928D01*
X82748476Y-102727166D01*
X82796095Y-102822404D01*
%TO.C,U2*%
X35158561Y-80993880D02*
X34682371Y-80993880D01*
X34682371Y-79993880D01*
X35396657Y-79993880D02*
X36063323Y-79993880D01*
X35634752Y-80993880D01*
X36587133Y-80422452D02*
X36491895Y-80374833D01*
X36444276Y-80327214D01*
X36396657Y-80231976D01*
X36396657Y-80184357D01*
X36444276Y-80089119D01*
X36491895Y-80041500D01*
X36587133Y-79993880D01*
X36777609Y-79993880D01*
X36872847Y-80041500D01*
X36920466Y-80089119D01*
X36968085Y-80184357D01*
X36968085Y-80231976D01*
X36920466Y-80327214D01*
X36872847Y-80374833D01*
X36777609Y-80422452D01*
X36587133Y-80422452D01*
X36491895Y-80470071D01*
X36444276Y-80517690D01*
X36396657Y-80612928D01*
X36396657Y-80803404D01*
X36444276Y-80898642D01*
X36491895Y-80946261D01*
X36587133Y-80993880D01*
X36777609Y-80993880D01*
X36872847Y-80946261D01*
X36920466Y-80898642D01*
X36968085Y-80803404D01*
X36968085Y-80612928D01*
X36920466Y-80517690D01*
X36872847Y-80470071D01*
X36777609Y-80422452D01*
X37587133Y-79993880D02*
X37682371Y-79993880D01*
X37777609Y-80041500D01*
X37825228Y-80089119D01*
X37872847Y-80184357D01*
X37920466Y-80374833D01*
X37920466Y-80612928D01*
X37872847Y-80803404D01*
X37825228Y-80898642D01*
X37777609Y-80946261D01*
X37682371Y-80993880D01*
X37587133Y-80993880D01*
X37491895Y-80946261D01*
X37444276Y-80898642D01*
X37396657Y-80803404D01*
X37349038Y-80612928D01*
X37349038Y-80374833D01*
X37396657Y-80184357D01*
X37444276Y-80089119D01*
X37491895Y-80041500D01*
X37587133Y-79993880D01*
X38825228Y-79993880D02*
X38349038Y-79993880D01*
X38301419Y-80470071D01*
X38349038Y-80422452D01*
X38444276Y-80374833D01*
X38682371Y-80374833D01*
X38777609Y-80422452D01*
X38825228Y-80470071D01*
X38872847Y-80565309D01*
X38872847Y-80803404D01*
X38825228Y-80898642D01*
X38777609Y-80946261D01*
X38682371Y-80993880D01*
X38444276Y-80993880D01*
X38349038Y-80946261D01*
X38301419Y-80898642D01*
X35991895Y-73223880D02*
X35991895Y-74033404D01*
X36039514Y-74128642D01*
X36087133Y-74176261D01*
X36182371Y-74223880D01*
X36372847Y-74223880D01*
X36468085Y-74176261D01*
X36515704Y-74128642D01*
X36563323Y-74033404D01*
X36563323Y-73223880D01*
X36991895Y-73319119D02*
X37039514Y-73271500D01*
X37134752Y-73223880D01*
X37372847Y-73223880D01*
X37468085Y-73271500D01*
X37515704Y-73319119D01*
X37563323Y-73414357D01*
X37563323Y-73509595D01*
X37515704Y-73652452D01*
X36944276Y-74223880D01*
X37563323Y-74223880D01*
%TO.C,SW4*%
X66871780Y-105517061D02*
X67014638Y-105564680D01*
X67252733Y-105564680D01*
X67347971Y-105517061D01*
X67395590Y-105469442D01*
X67443209Y-105374204D01*
X67443209Y-105278966D01*
X67395590Y-105183728D01*
X67347971Y-105136109D01*
X67252733Y-105088490D01*
X67062257Y-105040871D01*
X66967019Y-104993252D01*
X66919400Y-104945633D01*
X66871780Y-104850395D01*
X66871780Y-104755157D01*
X66919400Y-104659919D01*
X66967019Y-104612300D01*
X67062257Y-104564680D01*
X67300352Y-104564680D01*
X67443209Y-104612300D01*
X67776542Y-104564680D02*
X68014638Y-105564680D01*
X68205114Y-104850395D01*
X68395590Y-105564680D01*
X68633685Y-104564680D01*
X68776542Y-105659919D02*
X69538447Y-105659919D01*
X69776542Y-105564680D02*
X69776542Y-104564680D01*
X70157495Y-104564680D01*
X70252733Y-104612300D01*
X70300352Y-104659919D01*
X70347971Y-104755157D01*
X70347971Y-104898014D01*
X70300352Y-104993252D01*
X70252733Y-105040871D01*
X70157495Y-105088490D01*
X69776542Y-105088490D01*
X71205114Y-104898014D02*
X71205114Y-105564680D01*
X70776542Y-104898014D02*
X70776542Y-105421823D01*
X70824161Y-105517061D01*
X70919400Y-105564680D01*
X71062257Y-105564680D01*
X71157495Y-105517061D01*
X71205114Y-105469442D01*
X71633685Y-105517061D02*
X71728923Y-105564680D01*
X71919400Y-105564680D01*
X72014638Y-105517061D01*
X72062257Y-105421823D01*
X72062257Y-105374204D01*
X72014638Y-105278966D01*
X71919400Y-105231347D01*
X71776542Y-105231347D01*
X71681304Y-105183728D01*
X71633685Y-105088490D01*
X71633685Y-105040871D01*
X71681304Y-104945633D01*
X71776542Y-104898014D01*
X71919400Y-104898014D01*
X72014638Y-104945633D01*
X72490828Y-105564680D02*
X72490828Y-104564680D01*
X72919400Y-105564680D02*
X72919400Y-105040871D01*
X72871780Y-104945633D01*
X72776542Y-104898014D01*
X72633685Y-104898014D01*
X72538447Y-104945633D01*
X72490828Y-104993252D01*
X68086066Y-101067061D02*
X68228923Y-101114680D01*
X68467019Y-101114680D01*
X68562257Y-101067061D01*
X68609876Y-101019442D01*
X68657495Y-100924204D01*
X68657495Y-100828966D01*
X68609876Y-100733728D01*
X68562257Y-100686109D01*
X68467019Y-100638490D01*
X68276542Y-100590871D01*
X68181304Y-100543252D01*
X68133685Y-100495633D01*
X68086066Y-100400395D01*
X68086066Y-100305157D01*
X68133685Y-100209919D01*
X68181304Y-100162300D01*
X68276542Y-100114680D01*
X68514638Y-100114680D01*
X68657495Y-100162300D01*
X68990828Y-100114680D02*
X69228923Y-101114680D01*
X69419400Y-100400395D01*
X69609876Y-101114680D01*
X69847971Y-100114680D01*
X70657495Y-100448014D02*
X70657495Y-101114680D01*
X70419400Y-100067061D02*
X70181304Y-100781347D01*
X70800352Y-100781347D01*
%TO.C,SW3*%
X53130380Y-105589061D02*
X53273238Y-105636680D01*
X53511333Y-105636680D01*
X53606571Y-105589061D01*
X53654190Y-105541442D01*
X53701809Y-105446204D01*
X53701809Y-105350966D01*
X53654190Y-105255728D01*
X53606571Y-105208109D01*
X53511333Y-105160490D01*
X53320857Y-105112871D01*
X53225619Y-105065252D01*
X53178000Y-105017633D01*
X53130380Y-104922395D01*
X53130380Y-104827157D01*
X53178000Y-104731919D01*
X53225619Y-104684300D01*
X53320857Y-104636680D01*
X53558952Y-104636680D01*
X53701809Y-104684300D01*
X54035142Y-104636680D02*
X54273238Y-105636680D01*
X54463714Y-104922395D01*
X54654190Y-105636680D01*
X54892285Y-104636680D01*
X55035142Y-105731919D02*
X55797047Y-105731919D01*
X56035142Y-105636680D02*
X56035142Y-104636680D01*
X56416095Y-104636680D01*
X56511333Y-104684300D01*
X56558952Y-104731919D01*
X56606571Y-104827157D01*
X56606571Y-104970014D01*
X56558952Y-105065252D01*
X56511333Y-105112871D01*
X56416095Y-105160490D01*
X56035142Y-105160490D01*
X57463714Y-104970014D02*
X57463714Y-105636680D01*
X57035142Y-104970014D02*
X57035142Y-105493823D01*
X57082761Y-105589061D01*
X57178000Y-105636680D01*
X57320857Y-105636680D01*
X57416095Y-105589061D01*
X57463714Y-105541442D01*
X57892285Y-105589061D02*
X57987523Y-105636680D01*
X58178000Y-105636680D01*
X58273238Y-105589061D01*
X58320857Y-105493823D01*
X58320857Y-105446204D01*
X58273238Y-105350966D01*
X58178000Y-105303347D01*
X58035142Y-105303347D01*
X57939904Y-105255728D01*
X57892285Y-105160490D01*
X57892285Y-105112871D01*
X57939904Y-105017633D01*
X58035142Y-104970014D01*
X58178000Y-104970014D01*
X58273238Y-105017633D01*
X58749428Y-105636680D02*
X58749428Y-104636680D01*
X59178000Y-105636680D02*
X59178000Y-105112871D01*
X59130380Y-105017633D01*
X59035142Y-104970014D01*
X58892285Y-104970014D01*
X58797047Y-105017633D01*
X58749428Y-105065252D01*
X54320466Y-101175061D02*
X54463323Y-101222680D01*
X54701419Y-101222680D01*
X54796657Y-101175061D01*
X54844276Y-101127442D01*
X54891895Y-101032204D01*
X54891895Y-100936966D01*
X54844276Y-100841728D01*
X54796657Y-100794109D01*
X54701419Y-100746490D01*
X54510942Y-100698871D01*
X54415704Y-100651252D01*
X54368085Y-100603633D01*
X54320466Y-100508395D01*
X54320466Y-100413157D01*
X54368085Y-100317919D01*
X54415704Y-100270300D01*
X54510942Y-100222680D01*
X54749038Y-100222680D01*
X54891895Y-100270300D01*
X55225228Y-100222680D02*
X55463323Y-101222680D01*
X55653800Y-100508395D01*
X55844276Y-101222680D01*
X56082371Y-100222680D01*
X56368085Y-100222680D02*
X56987133Y-100222680D01*
X56653800Y-100603633D01*
X56796657Y-100603633D01*
X56891895Y-100651252D01*
X56939514Y-100698871D01*
X56987133Y-100794109D01*
X56987133Y-101032204D01*
X56939514Y-101127442D01*
X56891895Y-101175061D01*
X56796657Y-101222680D01*
X56510942Y-101222680D01*
X56415704Y-101175061D01*
X56368085Y-101127442D01*
%TO.C,R14*%
X94272180Y-49548776D02*
X93795990Y-49882109D01*
X94272180Y-50120204D02*
X93272180Y-50120204D01*
X93272180Y-49739252D01*
X93319800Y-49644014D01*
X93367419Y-49596395D01*
X93462657Y-49548776D01*
X93605514Y-49548776D01*
X93700752Y-49596395D01*
X93748371Y-49644014D01*
X93795990Y-49739252D01*
X93795990Y-50120204D01*
X94367419Y-49358300D02*
X94367419Y-48596395D01*
X94224561Y-48405919D02*
X94272180Y-48263061D01*
X94272180Y-48024966D01*
X94224561Y-47929728D01*
X94176942Y-47882109D01*
X94081704Y-47834490D01*
X93986466Y-47834490D01*
X93891228Y-47882109D01*
X93843609Y-47929728D01*
X93795990Y-48024966D01*
X93748371Y-48215442D01*
X93700752Y-48310680D01*
X93653133Y-48358300D01*
X93557895Y-48405919D01*
X93462657Y-48405919D01*
X93367419Y-48358300D01*
X93319800Y-48310680D01*
X93272180Y-48215442D01*
X93272180Y-47977347D01*
X93319800Y-47834490D01*
X94272180Y-47405919D02*
X93605514Y-47405919D01*
X93700752Y-47405919D02*
X93653133Y-47358300D01*
X93605514Y-47263061D01*
X93605514Y-47120204D01*
X93653133Y-47024966D01*
X93748371Y-46977347D01*
X94272180Y-46977347D01*
X93748371Y-46977347D02*
X93653133Y-46929728D01*
X93605514Y-46834490D01*
X93605514Y-46691633D01*
X93653133Y-46596395D01*
X93748371Y-46548776D01*
X94272180Y-46548776D01*
X94272180Y-45644014D02*
X93748371Y-45644014D01*
X93653133Y-45691633D01*
X93605514Y-45786871D01*
X93605514Y-45977347D01*
X93653133Y-46072585D01*
X94224561Y-45644014D02*
X94272180Y-45739252D01*
X94272180Y-45977347D01*
X94224561Y-46072585D01*
X94129323Y-46120204D01*
X94034085Y-46120204D01*
X93938847Y-46072585D01*
X93891228Y-45977347D01*
X93891228Y-45739252D01*
X93843609Y-45644014D01*
X94272180Y-45024966D02*
X94224561Y-45120204D01*
X94129323Y-45167823D01*
X93272180Y-45167823D01*
X94272180Y-44501157D02*
X94224561Y-44596395D01*
X94129323Y-44644014D01*
X93272180Y-44644014D01*
X96642180Y-48001157D02*
X96165990Y-48334490D01*
X96642180Y-48572585D02*
X95642180Y-48572585D01*
X95642180Y-48191633D01*
X95689800Y-48096395D01*
X95737419Y-48048776D01*
X95832657Y-48001157D01*
X95975514Y-48001157D01*
X96070752Y-48048776D01*
X96118371Y-48096395D01*
X96165990Y-48191633D01*
X96165990Y-48572585D01*
X96642180Y-47048776D02*
X96642180Y-47620204D01*
X96642180Y-47334490D02*
X95642180Y-47334490D01*
X95785038Y-47429728D01*
X95880276Y-47524966D01*
X95927895Y-47620204D01*
X95975514Y-46191633D02*
X96642180Y-46191633D01*
X95594561Y-46429728D02*
X96308847Y-46667823D01*
X96308847Y-46048776D01*
%TO.C,R13*%
X92163980Y-27399976D02*
X91687790Y-27733309D01*
X92163980Y-27971404D02*
X91163980Y-27971404D01*
X91163980Y-27590452D01*
X91211600Y-27495214D01*
X91259219Y-27447595D01*
X91354457Y-27399976D01*
X91497314Y-27399976D01*
X91592552Y-27447595D01*
X91640171Y-27495214D01*
X91687790Y-27590452D01*
X91687790Y-27971404D01*
X92259219Y-27209500D02*
X92259219Y-26447595D01*
X92116361Y-26257119D02*
X92163980Y-26114261D01*
X92163980Y-25876166D01*
X92116361Y-25780928D01*
X92068742Y-25733309D01*
X91973504Y-25685690D01*
X91878266Y-25685690D01*
X91783028Y-25733309D01*
X91735409Y-25780928D01*
X91687790Y-25876166D01*
X91640171Y-26066642D01*
X91592552Y-26161880D01*
X91544933Y-26209500D01*
X91449695Y-26257119D01*
X91354457Y-26257119D01*
X91259219Y-26209500D01*
X91211600Y-26161880D01*
X91163980Y-26066642D01*
X91163980Y-25828547D01*
X91211600Y-25685690D01*
X92163980Y-25257119D02*
X91497314Y-25257119D01*
X91592552Y-25257119D02*
X91544933Y-25209500D01*
X91497314Y-25114261D01*
X91497314Y-24971404D01*
X91544933Y-24876166D01*
X91640171Y-24828547D01*
X92163980Y-24828547D01*
X91640171Y-24828547D02*
X91544933Y-24780928D01*
X91497314Y-24685690D01*
X91497314Y-24542833D01*
X91544933Y-24447595D01*
X91640171Y-24399976D01*
X92163980Y-24399976D01*
X92163980Y-23495214D02*
X91640171Y-23495214D01*
X91544933Y-23542833D01*
X91497314Y-23638071D01*
X91497314Y-23828547D01*
X91544933Y-23923785D01*
X92116361Y-23495214D02*
X92163980Y-23590452D01*
X92163980Y-23828547D01*
X92116361Y-23923785D01*
X92021123Y-23971404D01*
X91925885Y-23971404D01*
X91830647Y-23923785D01*
X91783028Y-23828547D01*
X91783028Y-23590452D01*
X91735409Y-23495214D01*
X92163980Y-22876166D02*
X92116361Y-22971404D01*
X92021123Y-23019023D01*
X91163980Y-23019023D01*
X92163980Y-22352357D02*
X92116361Y-22447595D01*
X92021123Y-22495214D01*
X91163980Y-22495214D01*
X94533980Y-25852357D02*
X94057790Y-26185690D01*
X94533980Y-26423785D02*
X93533980Y-26423785D01*
X93533980Y-26042833D01*
X93581600Y-25947595D01*
X93629219Y-25899976D01*
X93724457Y-25852357D01*
X93867314Y-25852357D01*
X93962552Y-25899976D01*
X94010171Y-25947595D01*
X94057790Y-26042833D01*
X94057790Y-26423785D01*
X94533980Y-24899976D02*
X94533980Y-25471404D01*
X94533980Y-25185690D02*
X93533980Y-25185690D01*
X93676838Y-25280928D01*
X93772076Y-25376166D01*
X93819695Y-25471404D01*
X93533980Y-24566642D02*
X93533980Y-23947595D01*
X93914933Y-24280928D01*
X93914933Y-24138071D01*
X93962552Y-24042833D01*
X94010171Y-23995214D01*
X94105409Y-23947595D01*
X94343504Y-23947595D01*
X94438742Y-23995214D01*
X94486361Y-24042833D01*
X94533980Y-24138071D01*
X94533980Y-24423785D01*
X94486361Y-24519023D01*
X94438742Y-24566642D01*
%TO.C,R12*%
X95237380Y-71138776D02*
X94761190Y-71472109D01*
X95237380Y-71710204D02*
X94237380Y-71710204D01*
X94237380Y-71329252D01*
X94285000Y-71234014D01*
X94332619Y-71186395D01*
X94427857Y-71138776D01*
X94570714Y-71138776D01*
X94665952Y-71186395D01*
X94713571Y-71234014D01*
X94761190Y-71329252D01*
X94761190Y-71710204D01*
X95332619Y-70948300D02*
X95332619Y-70186395D01*
X95189761Y-69995919D02*
X95237380Y-69853061D01*
X95237380Y-69614966D01*
X95189761Y-69519728D01*
X95142142Y-69472109D01*
X95046904Y-69424490D01*
X94951666Y-69424490D01*
X94856428Y-69472109D01*
X94808809Y-69519728D01*
X94761190Y-69614966D01*
X94713571Y-69805442D01*
X94665952Y-69900680D01*
X94618333Y-69948300D01*
X94523095Y-69995919D01*
X94427857Y-69995919D01*
X94332619Y-69948300D01*
X94285000Y-69900680D01*
X94237380Y-69805442D01*
X94237380Y-69567347D01*
X94285000Y-69424490D01*
X95237380Y-68995919D02*
X94570714Y-68995919D01*
X94665952Y-68995919D02*
X94618333Y-68948300D01*
X94570714Y-68853061D01*
X94570714Y-68710204D01*
X94618333Y-68614966D01*
X94713571Y-68567347D01*
X95237380Y-68567347D01*
X94713571Y-68567347D02*
X94618333Y-68519728D01*
X94570714Y-68424490D01*
X94570714Y-68281633D01*
X94618333Y-68186395D01*
X94713571Y-68138776D01*
X95237380Y-68138776D01*
X95237380Y-67234014D02*
X94713571Y-67234014D01*
X94618333Y-67281633D01*
X94570714Y-67376871D01*
X94570714Y-67567347D01*
X94618333Y-67662585D01*
X95189761Y-67234014D02*
X95237380Y-67329252D01*
X95237380Y-67567347D01*
X95189761Y-67662585D01*
X95094523Y-67710204D01*
X94999285Y-67710204D01*
X94904047Y-67662585D01*
X94856428Y-67567347D01*
X94856428Y-67329252D01*
X94808809Y-67234014D01*
X95237380Y-66614966D02*
X95189761Y-66710204D01*
X95094523Y-66757823D01*
X94237380Y-66757823D01*
X95237380Y-66091157D02*
X95189761Y-66186395D01*
X95094523Y-66234014D01*
X94237380Y-66234014D01*
X97607380Y-69591157D02*
X97131190Y-69924490D01*
X97607380Y-70162585D02*
X96607380Y-70162585D01*
X96607380Y-69781633D01*
X96655000Y-69686395D01*
X96702619Y-69638776D01*
X96797857Y-69591157D01*
X96940714Y-69591157D01*
X97035952Y-69638776D01*
X97083571Y-69686395D01*
X97131190Y-69781633D01*
X97131190Y-70162585D01*
X97607380Y-68638776D02*
X97607380Y-69210204D01*
X97607380Y-68924490D02*
X96607380Y-68924490D01*
X96750238Y-69019728D01*
X96845476Y-69114966D01*
X96893095Y-69210204D01*
X96702619Y-68257823D02*
X96655000Y-68210204D01*
X96607380Y-68114966D01*
X96607380Y-67876871D01*
X96655000Y-67781633D01*
X96702619Y-67734014D01*
X96797857Y-67686395D01*
X96893095Y-67686395D01*
X97035952Y-67734014D01*
X97607380Y-68305442D01*
X97607380Y-67686395D01*
%TO.C,R11*%
X87277380Y-56482976D02*
X86801190Y-56816309D01*
X87277380Y-57054404D02*
X86277380Y-57054404D01*
X86277380Y-56673452D01*
X86325000Y-56578214D01*
X86372619Y-56530595D01*
X86467857Y-56482976D01*
X86610714Y-56482976D01*
X86705952Y-56530595D01*
X86753571Y-56578214D01*
X86801190Y-56673452D01*
X86801190Y-57054404D01*
X87372619Y-56292500D02*
X87372619Y-55530595D01*
X87229761Y-55340119D02*
X87277380Y-55197261D01*
X87277380Y-54959166D01*
X87229761Y-54863928D01*
X87182142Y-54816309D01*
X87086904Y-54768690D01*
X86991666Y-54768690D01*
X86896428Y-54816309D01*
X86848809Y-54863928D01*
X86801190Y-54959166D01*
X86753571Y-55149642D01*
X86705952Y-55244880D01*
X86658333Y-55292500D01*
X86563095Y-55340119D01*
X86467857Y-55340119D01*
X86372619Y-55292500D01*
X86325000Y-55244880D01*
X86277380Y-55149642D01*
X86277380Y-54911547D01*
X86325000Y-54768690D01*
X87277380Y-54340119D02*
X86610714Y-54340119D01*
X86705952Y-54340119D02*
X86658333Y-54292500D01*
X86610714Y-54197261D01*
X86610714Y-54054404D01*
X86658333Y-53959166D01*
X86753571Y-53911547D01*
X87277380Y-53911547D01*
X86753571Y-53911547D02*
X86658333Y-53863928D01*
X86610714Y-53768690D01*
X86610714Y-53625833D01*
X86658333Y-53530595D01*
X86753571Y-53482976D01*
X87277380Y-53482976D01*
X87277380Y-52578214D02*
X86753571Y-52578214D01*
X86658333Y-52625833D01*
X86610714Y-52721071D01*
X86610714Y-52911547D01*
X86658333Y-53006785D01*
X87229761Y-52578214D02*
X87277380Y-52673452D01*
X87277380Y-52911547D01*
X87229761Y-53006785D01*
X87134523Y-53054404D01*
X87039285Y-53054404D01*
X86944047Y-53006785D01*
X86896428Y-52911547D01*
X86896428Y-52673452D01*
X86848809Y-52578214D01*
X87277380Y-51959166D02*
X87229761Y-52054404D01*
X87134523Y-52102023D01*
X86277380Y-52102023D01*
X87277380Y-51435357D02*
X87229761Y-51530595D01*
X87134523Y-51578214D01*
X86277380Y-51578214D01*
X84907380Y-54935357D02*
X84431190Y-55268690D01*
X84907380Y-55506785D02*
X83907380Y-55506785D01*
X83907380Y-55125833D01*
X83955000Y-55030595D01*
X84002619Y-54982976D01*
X84097857Y-54935357D01*
X84240714Y-54935357D01*
X84335952Y-54982976D01*
X84383571Y-55030595D01*
X84431190Y-55125833D01*
X84431190Y-55506785D01*
X84907380Y-53982976D02*
X84907380Y-54554404D01*
X84907380Y-54268690D02*
X83907380Y-54268690D01*
X84050238Y-54363928D01*
X84145476Y-54459166D01*
X84193095Y-54554404D01*
X84907380Y-53030595D02*
X84907380Y-53602023D01*
X84907380Y-53316309D02*
X83907380Y-53316309D01*
X84050238Y-53411547D01*
X84145476Y-53506785D01*
X84193095Y-53602023D01*
%TO.C,R10*%
X84330980Y-35680376D02*
X83854790Y-36013709D01*
X84330980Y-36251804D02*
X83330980Y-36251804D01*
X83330980Y-35870852D01*
X83378600Y-35775614D01*
X83426219Y-35727995D01*
X83521457Y-35680376D01*
X83664314Y-35680376D01*
X83759552Y-35727995D01*
X83807171Y-35775614D01*
X83854790Y-35870852D01*
X83854790Y-36251804D01*
X84426219Y-35489900D02*
X84426219Y-34727995D01*
X84283361Y-34537519D02*
X84330980Y-34394661D01*
X84330980Y-34156566D01*
X84283361Y-34061328D01*
X84235742Y-34013709D01*
X84140504Y-33966090D01*
X84045266Y-33966090D01*
X83950028Y-34013709D01*
X83902409Y-34061328D01*
X83854790Y-34156566D01*
X83807171Y-34347042D01*
X83759552Y-34442280D01*
X83711933Y-34489900D01*
X83616695Y-34537519D01*
X83521457Y-34537519D01*
X83426219Y-34489900D01*
X83378600Y-34442280D01*
X83330980Y-34347042D01*
X83330980Y-34108947D01*
X83378600Y-33966090D01*
X84330980Y-33537519D02*
X83664314Y-33537519D01*
X83759552Y-33537519D02*
X83711933Y-33489900D01*
X83664314Y-33394661D01*
X83664314Y-33251804D01*
X83711933Y-33156566D01*
X83807171Y-33108947D01*
X84330980Y-33108947D01*
X83807171Y-33108947D02*
X83711933Y-33061328D01*
X83664314Y-32966090D01*
X83664314Y-32823233D01*
X83711933Y-32727995D01*
X83807171Y-32680376D01*
X84330980Y-32680376D01*
X84330980Y-31775614D02*
X83807171Y-31775614D01*
X83711933Y-31823233D01*
X83664314Y-31918471D01*
X83664314Y-32108947D01*
X83711933Y-32204185D01*
X84283361Y-31775614D02*
X84330980Y-31870852D01*
X84330980Y-32108947D01*
X84283361Y-32204185D01*
X84188123Y-32251804D01*
X84092885Y-32251804D01*
X83997647Y-32204185D01*
X83950028Y-32108947D01*
X83950028Y-31870852D01*
X83902409Y-31775614D01*
X84330980Y-31156566D02*
X84283361Y-31251804D01*
X84188123Y-31299423D01*
X83330980Y-31299423D01*
X84330980Y-30632757D02*
X84283361Y-30727995D01*
X84188123Y-30775614D01*
X83330980Y-30775614D01*
X81960980Y-34132757D02*
X81484790Y-34466090D01*
X81960980Y-34704185D02*
X80960980Y-34704185D01*
X80960980Y-34323233D01*
X81008600Y-34227995D01*
X81056219Y-34180376D01*
X81151457Y-34132757D01*
X81294314Y-34132757D01*
X81389552Y-34180376D01*
X81437171Y-34227995D01*
X81484790Y-34323233D01*
X81484790Y-34704185D01*
X81960980Y-33180376D02*
X81960980Y-33751804D01*
X81960980Y-33466090D02*
X80960980Y-33466090D01*
X81103838Y-33561328D01*
X81199076Y-33656566D01*
X81246695Y-33751804D01*
X80960980Y-32561328D02*
X80960980Y-32466090D01*
X81008600Y-32370852D01*
X81056219Y-32323233D01*
X81151457Y-32275614D01*
X81341933Y-32227995D01*
X81580028Y-32227995D01*
X81770504Y-32275614D01*
X81865742Y-32323233D01*
X81913361Y-32370852D01*
X81960980Y-32466090D01*
X81960980Y-32561328D01*
X81913361Y-32656566D01*
X81865742Y-32704185D01*
X81770504Y-32751804D01*
X81580028Y-32799423D01*
X81341933Y-32799423D01*
X81151457Y-32751804D01*
X81056219Y-32704185D01*
X81008600Y-32656566D01*
X80960980Y-32561328D01*
%TO.C,R9*%
X82595980Y-73475576D02*
X82119790Y-73808909D01*
X82595980Y-74047004D02*
X81595980Y-74047004D01*
X81595980Y-73666052D01*
X81643600Y-73570814D01*
X81691219Y-73523195D01*
X81786457Y-73475576D01*
X81929314Y-73475576D01*
X82024552Y-73523195D01*
X82072171Y-73570814D01*
X82119790Y-73666052D01*
X82119790Y-74047004D01*
X82691219Y-73285100D02*
X82691219Y-72523195D01*
X82548361Y-72332719D02*
X82595980Y-72189861D01*
X82595980Y-71951766D01*
X82548361Y-71856528D01*
X82500742Y-71808909D01*
X82405504Y-71761290D01*
X82310266Y-71761290D01*
X82215028Y-71808909D01*
X82167409Y-71856528D01*
X82119790Y-71951766D01*
X82072171Y-72142242D01*
X82024552Y-72237480D01*
X81976933Y-72285100D01*
X81881695Y-72332719D01*
X81786457Y-72332719D01*
X81691219Y-72285100D01*
X81643600Y-72237480D01*
X81595980Y-72142242D01*
X81595980Y-71904147D01*
X81643600Y-71761290D01*
X82595980Y-71332719D02*
X81929314Y-71332719D01*
X82024552Y-71332719D02*
X81976933Y-71285100D01*
X81929314Y-71189861D01*
X81929314Y-71047004D01*
X81976933Y-70951766D01*
X82072171Y-70904147D01*
X82595980Y-70904147D01*
X82072171Y-70904147D02*
X81976933Y-70856528D01*
X81929314Y-70761290D01*
X81929314Y-70618433D01*
X81976933Y-70523195D01*
X82072171Y-70475576D01*
X82595980Y-70475576D01*
X82595980Y-69570814D02*
X82072171Y-69570814D01*
X81976933Y-69618433D01*
X81929314Y-69713671D01*
X81929314Y-69904147D01*
X81976933Y-69999385D01*
X82548361Y-69570814D02*
X82595980Y-69666052D01*
X82595980Y-69904147D01*
X82548361Y-69999385D01*
X82453123Y-70047004D01*
X82357885Y-70047004D01*
X82262647Y-69999385D01*
X82215028Y-69904147D01*
X82215028Y-69666052D01*
X82167409Y-69570814D01*
X82595980Y-68951766D02*
X82548361Y-69047004D01*
X82453123Y-69094623D01*
X81595980Y-69094623D01*
X82595980Y-68427957D02*
X82548361Y-68523195D01*
X82453123Y-68570814D01*
X81595980Y-68570814D01*
X87371180Y-70359566D02*
X86894990Y-70692900D01*
X87371180Y-70930995D02*
X86371180Y-70930995D01*
X86371180Y-70550042D01*
X86418800Y-70454804D01*
X86466419Y-70407185D01*
X86561657Y-70359566D01*
X86704514Y-70359566D01*
X86799752Y-70407185D01*
X86847371Y-70454804D01*
X86894990Y-70550042D01*
X86894990Y-70930995D01*
X87371180Y-69883376D02*
X87371180Y-69692900D01*
X87323561Y-69597661D01*
X87275942Y-69550042D01*
X87133085Y-69454804D01*
X86942609Y-69407185D01*
X86561657Y-69407185D01*
X86466419Y-69454804D01*
X86418800Y-69502423D01*
X86371180Y-69597661D01*
X86371180Y-69788138D01*
X86418800Y-69883376D01*
X86466419Y-69930995D01*
X86561657Y-69978614D01*
X86799752Y-69978614D01*
X86894990Y-69930995D01*
X86942609Y-69883376D01*
X86990228Y-69788138D01*
X86990228Y-69597661D01*
X86942609Y-69502423D01*
X86894990Y-69454804D01*
X86799752Y-69407185D01*
%TO.C,R8*%
X65179380Y-103091976D02*
X64703190Y-103425309D01*
X65179380Y-103663404D02*
X64179380Y-103663404D01*
X64179380Y-103282452D01*
X64227000Y-103187214D01*
X64274619Y-103139595D01*
X64369857Y-103091976D01*
X64512714Y-103091976D01*
X64607952Y-103139595D01*
X64655571Y-103187214D01*
X64703190Y-103282452D01*
X64703190Y-103663404D01*
X65274619Y-102901500D02*
X65274619Y-102139595D01*
X65131761Y-101949119D02*
X65179380Y-101806261D01*
X65179380Y-101568166D01*
X65131761Y-101472928D01*
X65084142Y-101425309D01*
X64988904Y-101377690D01*
X64893666Y-101377690D01*
X64798428Y-101425309D01*
X64750809Y-101472928D01*
X64703190Y-101568166D01*
X64655571Y-101758642D01*
X64607952Y-101853880D01*
X64560333Y-101901500D01*
X64465095Y-101949119D01*
X64369857Y-101949119D01*
X64274619Y-101901500D01*
X64227000Y-101853880D01*
X64179380Y-101758642D01*
X64179380Y-101520547D01*
X64227000Y-101377690D01*
X65179380Y-100949119D02*
X64512714Y-100949119D01*
X64607952Y-100949119D02*
X64560333Y-100901500D01*
X64512714Y-100806261D01*
X64512714Y-100663404D01*
X64560333Y-100568166D01*
X64655571Y-100520547D01*
X65179380Y-100520547D01*
X64655571Y-100520547D02*
X64560333Y-100472928D01*
X64512714Y-100377690D01*
X64512714Y-100234833D01*
X64560333Y-100139595D01*
X64655571Y-100091976D01*
X65179380Y-100091976D01*
X65179380Y-99187214D02*
X64655571Y-99187214D01*
X64560333Y-99234833D01*
X64512714Y-99330071D01*
X64512714Y-99520547D01*
X64560333Y-99615785D01*
X65131761Y-99187214D02*
X65179380Y-99282452D01*
X65179380Y-99520547D01*
X65131761Y-99615785D01*
X65036523Y-99663404D01*
X64941285Y-99663404D01*
X64846047Y-99615785D01*
X64798428Y-99520547D01*
X64798428Y-99282452D01*
X64750809Y-99187214D01*
X65179380Y-98568166D02*
X65131761Y-98663404D01*
X65036523Y-98711023D01*
X64179380Y-98711023D01*
X65179380Y-98044357D02*
X65131761Y-98139595D01*
X65036523Y-98187214D01*
X64179380Y-98187214D01*
X62809380Y-101068166D02*
X62333190Y-101401500D01*
X62809380Y-101639595D02*
X61809380Y-101639595D01*
X61809380Y-101258642D01*
X61857000Y-101163404D01*
X61904619Y-101115785D01*
X61999857Y-101068166D01*
X62142714Y-101068166D01*
X62237952Y-101115785D01*
X62285571Y-101163404D01*
X62333190Y-101258642D01*
X62333190Y-101639595D01*
X62237952Y-100496738D02*
X62190333Y-100591976D01*
X62142714Y-100639595D01*
X62047476Y-100687214D01*
X61999857Y-100687214D01*
X61904619Y-100639595D01*
X61857000Y-100591976D01*
X61809380Y-100496738D01*
X61809380Y-100306261D01*
X61857000Y-100211023D01*
X61904619Y-100163404D01*
X61999857Y-100115785D01*
X62047476Y-100115785D01*
X62142714Y-100163404D01*
X62190333Y-100211023D01*
X62237952Y-100306261D01*
X62237952Y-100496738D01*
X62285571Y-100591976D01*
X62333190Y-100639595D01*
X62428428Y-100687214D01*
X62618904Y-100687214D01*
X62714142Y-100639595D01*
X62761761Y-100591976D01*
X62809380Y-100496738D01*
X62809380Y-100306261D01*
X62761761Y-100211023D01*
X62714142Y-100163404D01*
X62618904Y-100115785D01*
X62428428Y-100115785D01*
X62333190Y-100163404D01*
X62285571Y-100211023D01*
X62237952Y-100306261D01*
%TO.C,R7*%
X48965123Y-26898680D02*
X48631790Y-26422490D01*
X48393695Y-26898680D02*
X48393695Y-25898680D01*
X48774647Y-25898680D01*
X48869885Y-25946300D01*
X48917504Y-25993919D01*
X48965123Y-26089157D01*
X48965123Y-26232014D01*
X48917504Y-26327252D01*
X48869885Y-26374871D01*
X48774647Y-26422490D01*
X48393695Y-26422490D01*
X49155600Y-26993919D02*
X49917504Y-26993919D01*
X50107980Y-26851061D02*
X50250838Y-26898680D01*
X50488933Y-26898680D01*
X50584171Y-26851061D01*
X50631790Y-26803442D01*
X50679409Y-26708204D01*
X50679409Y-26612966D01*
X50631790Y-26517728D01*
X50584171Y-26470109D01*
X50488933Y-26422490D01*
X50298457Y-26374871D01*
X50203219Y-26327252D01*
X50155600Y-26279633D01*
X50107980Y-26184395D01*
X50107980Y-26089157D01*
X50155600Y-25993919D01*
X50203219Y-25946300D01*
X50298457Y-25898680D01*
X50536552Y-25898680D01*
X50679409Y-25946300D01*
X51107980Y-26898680D02*
X51107980Y-26232014D01*
X51107980Y-26327252D02*
X51155600Y-26279633D01*
X51250838Y-26232014D01*
X51393695Y-26232014D01*
X51488933Y-26279633D01*
X51536552Y-26374871D01*
X51536552Y-26898680D01*
X51536552Y-26374871D02*
X51584171Y-26279633D01*
X51679409Y-26232014D01*
X51822266Y-26232014D01*
X51917504Y-26279633D01*
X51965123Y-26374871D01*
X51965123Y-26898680D01*
X52869885Y-26898680D02*
X52869885Y-26374871D01*
X52822266Y-26279633D01*
X52727028Y-26232014D01*
X52536552Y-26232014D01*
X52441314Y-26279633D01*
X52869885Y-26851061D02*
X52774647Y-26898680D01*
X52536552Y-26898680D01*
X52441314Y-26851061D01*
X52393695Y-26755823D01*
X52393695Y-26660585D01*
X52441314Y-26565347D01*
X52536552Y-26517728D01*
X52774647Y-26517728D01*
X52869885Y-26470109D01*
X53488933Y-26898680D02*
X53393695Y-26851061D01*
X53346076Y-26755823D01*
X53346076Y-25898680D01*
X54012742Y-26898680D02*
X53917504Y-26851061D01*
X53869885Y-26755823D01*
X53869885Y-25898680D01*
X50988933Y-29268680D02*
X50655600Y-28792490D01*
X50417504Y-29268680D02*
X50417504Y-28268680D01*
X50798457Y-28268680D01*
X50893695Y-28316300D01*
X50941314Y-28363919D01*
X50988933Y-28459157D01*
X50988933Y-28602014D01*
X50941314Y-28697252D01*
X50893695Y-28744871D01*
X50798457Y-28792490D01*
X50417504Y-28792490D01*
X51322266Y-28268680D02*
X51988933Y-28268680D01*
X51560361Y-29268680D01*
%TO.C,R6*%
X89319180Y-92373176D02*
X88842990Y-92706509D01*
X89319180Y-92944604D02*
X88319180Y-92944604D01*
X88319180Y-92563652D01*
X88366800Y-92468414D01*
X88414419Y-92420795D01*
X88509657Y-92373176D01*
X88652514Y-92373176D01*
X88747752Y-92420795D01*
X88795371Y-92468414D01*
X88842990Y-92563652D01*
X88842990Y-92944604D01*
X89414419Y-92182700D02*
X89414419Y-91420795D01*
X89271561Y-91230319D02*
X89319180Y-91087461D01*
X89319180Y-90849366D01*
X89271561Y-90754128D01*
X89223942Y-90706509D01*
X89128704Y-90658890D01*
X89033466Y-90658890D01*
X88938228Y-90706509D01*
X88890609Y-90754128D01*
X88842990Y-90849366D01*
X88795371Y-91039842D01*
X88747752Y-91135080D01*
X88700133Y-91182700D01*
X88604895Y-91230319D01*
X88509657Y-91230319D01*
X88414419Y-91182700D01*
X88366800Y-91135080D01*
X88319180Y-91039842D01*
X88319180Y-90801747D01*
X88366800Y-90658890D01*
X89319180Y-90230319D02*
X88652514Y-90230319D01*
X88747752Y-90230319D02*
X88700133Y-90182700D01*
X88652514Y-90087461D01*
X88652514Y-89944604D01*
X88700133Y-89849366D01*
X88795371Y-89801747D01*
X89319180Y-89801747D01*
X88795371Y-89801747D02*
X88700133Y-89754128D01*
X88652514Y-89658890D01*
X88652514Y-89516033D01*
X88700133Y-89420795D01*
X88795371Y-89373176D01*
X89319180Y-89373176D01*
X89319180Y-88468414D02*
X88795371Y-88468414D01*
X88700133Y-88516033D01*
X88652514Y-88611271D01*
X88652514Y-88801747D01*
X88700133Y-88896985D01*
X89271561Y-88468414D02*
X89319180Y-88563652D01*
X89319180Y-88801747D01*
X89271561Y-88896985D01*
X89176323Y-88944604D01*
X89081085Y-88944604D01*
X88985847Y-88896985D01*
X88938228Y-88801747D01*
X88938228Y-88563652D01*
X88890609Y-88468414D01*
X89319180Y-87849366D02*
X89271561Y-87944604D01*
X89176323Y-87992223D01*
X88319180Y-87992223D01*
X89319180Y-87325557D02*
X89271561Y-87420795D01*
X89176323Y-87468414D01*
X88319180Y-87468414D01*
X91689180Y-90349366D02*
X91212990Y-90682700D01*
X91689180Y-90920795D02*
X90689180Y-90920795D01*
X90689180Y-90539842D01*
X90736800Y-90444604D01*
X90784419Y-90396985D01*
X90879657Y-90349366D01*
X91022514Y-90349366D01*
X91117752Y-90396985D01*
X91165371Y-90444604D01*
X91212990Y-90539842D01*
X91212990Y-90920795D01*
X90689180Y-89492223D02*
X90689180Y-89682700D01*
X90736800Y-89777938D01*
X90784419Y-89825557D01*
X90927276Y-89920795D01*
X91117752Y-89968414D01*
X91498704Y-89968414D01*
X91593942Y-89920795D01*
X91641561Y-89873176D01*
X91689180Y-89777938D01*
X91689180Y-89587461D01*
X91641561Y-89492223D01*
X91593942Y-89444604D01*
X91498704Y-89396985D01*
X91260609Y-89396985D01*
X91165371Y-89444604D01*
X91117752Y-89492223D01*
X91070133Y-89587461D01*
X91070133Y-89777938D01*
X91117752Y-89873176D01*
X91165371Y-89920795D01*
X91260609Y-89968414D01*
%TO.C,R5*%
X51691980Y-103091976D02*
X51215790Y-103425309D01*
X51691980Y-103663404D02*
X50691980Y-103663404D01*
X50691980Y-103282452D01*
X50739600Y-103187214D01*
X50787219Y-103139595D01*
X50882457Y-103091976D01*
X51025314Y-103091976D01*
X51120552Y-103139595D01*
X51168171Y-103187214D01*
X51215790Y-103282452D01*
X51215790Y-103663404D01*
X51787219Y-102901500D02*
X51787219Y-102139595D01*
X51644361Y-101949119D02*
X51691980Y-101806261D01*
X51691980Y-101568166D01*
X51644361Y-101472928D01*
X51596742Y-101425309D01*
X51501504Y-101377690D01*
X51406266Y-101377690D01*
X51311028Y-101425309D01*
X51263409Y-101472928D01*
X51215790Y-101568166D01*
X51168171Y-101758642D01*
X51120552Y-101853880D01*
X51072933Y-101901500D01*
X50977695Y-101949119D01*
X50882457Y-101949119D01*
X50787219Y-101901500D01*
X50739600Y-101853880D01*
X50691980Y-101758642D01*
X50691980Y-101520547D01*
X50739600Y-101377690D01*
X51691980Y-100949119D02*
X51025314Y-100949119D01*
X51120552Y-100949119D02*
X51072933Y-100901500D01*
X51025314Y-100806261D01*
X51025314Y-100663404D01*
X51072933Y-100568166D01*
X51168171Y-100520547D01*
X51691980Y-100520547D01*
X51168171Y-100520547D02*
X51072933Y-100472928D01*
X51025314Y-100377690D01*
X51025314Y-100234833D01*
X51072933Y-100139595D01*
X51168171Y-100091976D01*
X51691980Y-100091976D01*
X51691980Y-99187214D02*
X51168171Y-99187214D01*
X51072933Y-99234833D01*
X51025314Y-99330071D01*
X51025314Y-99520547D01*
X51072933Y-99615785D01*
X51644361Y-99187214D02*
X51691980Y-99282452D01*
X51691980Y-99520547D01*
X51644361Y-99615785D01*
X51549123Y-99663404D01*
X51453885Y-99663404D01*
X51358647Y-99615785D01*
X51311028Y-99520547D01*
X51311028Y-99282452D01*
X51263409Y-99187214D01*
X51691980Y-98568166D02*
X51644361Y-98663404D01*
X51549123Y-98711023D01*
X50691980Y-98711023D01*
X51691980Y-98044357D02*
X51644361Y-98139595D01*
X51549123Y-98187214D01*
X50691980Y-98187214D01*
X49321980Y-101068166D02*
X48845790Y-101401500D01*
X49321980Y-101639595D02*
X48321980Y-101639595D01*
X48321980Y-101258642D01*
X48369600Y-101163404D01*
X48417219Y-101115785D01*
X48512457Y-101068166D01*
X48655314Y-101068166D01*
X48750552Y-101115785D01*
X48798171Y-101163404D01*
X48845790Y-101258642D01*
X48845790Y-101639595D01*
X48321980Y-100163404D02*
X48321980Y-100639595D01*
X48798171Y-100687214D01*
X48750552Y-100639595D01*
X48702933Y-100544357D01*
X48702933Y-100306261D01*
X48750552Y-100211023D01*
X48798171Y-100163404D01*
X48893409Y-100115785D01*
X49131504Y-100115785D01*
X49226742Y-100163404D01*
X49274361Y-100211023D01*
X49321980Y-100306261D01*
X49321980Y-100544357D01*
X49274361Y-100639595D01*
X49226742Y-100687214D01*
%TO.C,R3*%
X77776523Y-96553280D02*
X77443190Y-96077090D01*
X77205095Y-96553280D02*
X77205095Y-95553280D01*
X77586047Y-95553280D01*
X77681285Y-95600900D01*
X77728904Y-95648519D01*
X77776523Y-95743757D01*
X77776523Y-95886614D01*
X77728904Y-95981852D01*
X77681285Y-96029471D01*
X77586047Y-96077090D01*
X77205095Y-96077090D01*
X77967000Y-96648519D02*
X78728904Y-96648519D01*
X78919380Y-96505661D02*
X79062238Y-96553280D01*
X79300333Y-96553280D01*
X79395571Y-96505661D01*
X79443190Y-96458042D01*
X79490809Y-96362804D01*
X79490809Y-96267566D01*
X79443190Y-96172328D01*
X79395571Y-96124709D01*
X79300333Y-96077090D01*
X79109857Y-96029471D01*
X79014619Y-95981852D01*
X78967000Y-95934233D01*
X78919380Y-95838995D01*
X78919380Y-95743757D01*
X78967000Y-95648519D01*
X79014619Y-95600900D01*
X79109857Y-95553280D01*
X79347952Y-95553280D01*
X79490809Y-95600900D01*
X79919380Y-96553280D02*
X79919380Y-95886614D01*
X79919380Y-95981852D02*
X79967000Y-95934233D01*
X80062238Y-95886614D01*
X80205095Y-95886614D01*
X80300333Y-95934233D01*
X80347952Y-96029471D01*
X80347952Y-96553280D01*
X80347952Y-96029471D02*
X80395571Y-95934233D01*
X80490809Y-95886614D01*
X80633666Y-95886614D01*
X80728904Y-95934233D01*
X80776523Y-96029471D01*
X80776523Y-96553280D01*
X81681285Y-96553280D02*
X81681285Y-96029471D01*
X81633666Y-95934233D01*
X81538428Y-95886614D01*
X81347952Y-95886614D01*
X81252714Y-95934233D01*
X81681285Y-96505661D02*
X81586047Y-96553280D01*
X81347952Y-96553280D01*
X81252714Y-96505661D01*
X81205095Y-96410423D01*
X81205095Y-96315185D01*
X81252714Y-96219947D01*
X81347952Y-96172328D01*
X81586047Y-96172328D01*
X81681285Y-96124709D01*
X82300333Y-96553280D02*
X82205095Y-96505661D01*
X82157476Y-96410423D01*
X82157476Y-95553280D01*
X82824142Y-96553280D02*
X82728904Y-96505661D01*
X82681285Y-96410423D01*
X82681285Y-95553280D01*
X77430333Y-96553280D02*
X77097000Y-96077090D01*
X76858904Y-96553280D02*
X76858904Y-95553280D01*
X77239857Y-95553280D01*
X77335095Y-95600900D01*
X77382714Y-95648519D01*
X77430333Y-95743757D01*
X77430333Y-95886614D01*
X77382714Y-95981852D01*
X77335095Y-96029471D01*
X77239857Y-96077090D01*
X76858904Y-96077090D01*
X77763666Y-95553280D02*
X78382714Y-95553280D01*
X78049380Y-95934233D01*
X78192238Y-95934233D01*
X78287476Y-95981852D01*
X78335095Y-96029471D01*
X78382714Y-96124709D01*
X78382714Y-96362804D01*
X78335095Y-96458042D01*
X78287476Y-96505661D01*
X78192238Y-96553280D01*
X77906523Y-96553280D01*
X77811285Y-96505661D01*
X77763666Y-96458042D01*
%TO.C,R1*%
X41354180Y-70630776D02*
X40877990Y-70964109D01*
X41354180Y-71202204D02*
X40354180Y-71202204D01*
X40354180Y-70821252D01*
X40401800Y-70726014D01*
X40449419Y-70678395D01*
X40544657Y-70630776D01*
X40687514Y-70630776D01*
X40782752Y-70678395D01*
X40830371Y-70726014D01*
X40877990Y-70821252D01*
X40877990Y-71202204D01*
X41449419Y-70440300D02*
X41449419Y-69678395D01*
X41306561Y-69487919D02*
X41354180Y-69345061D01*
X41354180Y-69106966D01*
X41306561Y-69011728D01*
X41258942Y-68964109D01*
X41163704Y-68916490D01*
X41068466Y-68916490D01*
X40973228Y-68964109D01*
X40925609Y-69011728D01*
X40877990Y-69106966D01*
X40830371Y-69297442D01*
X40782752Y-69392680D01*
X40735133Y-69440300D01*
X40639895Y-69487919D01*
X40544657Y-69487919D01*
X40449419Y-69440300D01*
X40401800Y-69392680D01*
X40354180Y-69297442D01*
X40354180Y-69059347D01*
X40401800Y-68916490D01*
X41354180Y-68487919D02*
X40687514Y-68487919D01*
X40782752Y-68487919D02*
X40735133Y-68440300D01*
X40687514Y-68345061D01*
X40687514Y-68202204D01*
X40735133Y-68106966D01*
X40830371Y-68059347D01*
X41354180Y-68059347D01*
X40830371Y-68059347D02*
X40735133Y-68011728D01*
X40687514Y-67916490D01*
X40687514Y-67773633D01*
X40735133Y-67678395D01*
X40830371Y-67630776D01*
X41354180Y-67630776D01*
X41354180Y-66726014D02*
X40830371Y-66726014D01*
X40735133Y-66773633D01*
X40687514Y-66868871D01*
X40687514Y-67059347D01*
X40735133Y-67154585D01*
X41306561Y-66726014D02*
X41354180Y-66821252D01*
X41354180Y-67059347D01*
X41306561Y-67154585D01*
X41211323Y-67202204D01*
X41116085Y-67202204D01*
X41020847Y-67154585D01*
X40973228Y-67059347D01*
X40973228Y-66821252D01*
X40925609Y-66726014D01*
X41354180Y-66106966D02*
X41306561Y-66202204D01*
X41211323Y-66249823D01*
X40354180Y-66249823D01*
X41354180Y-65583157D02*
X41306561Y-65678395D01*
X41211323Y-65726014D01*
X40354180Y-65726014D01*
X38984180Y-68606966D02*
X38507990Y-68940300D01*
X38984180Y-69178395D02*
X37984180Y-69178395D01*
X37984180Y-68797442D01*
X38031800Y-68702204D01*
X38079419Y-68654585D01*
X38174657Y-68606966D01*
X38317514Y-68606966D01*
X38412752Y-68654585D01*
X38460371Y-68702204D01*
X38507990Y-68797442D01*
X38507990Y-69178395D01*
X38984180Y-67654585D02*
X38984180Y-68226014D01*
X38984180Y-67940300D02*
X37984180Y-67940300D01*
X38127038Y-68035538D01*
X38222276Y-68130776D01*
X38269895Y-68226014D01*
%TO.C,J10*%
X29731295Y-55399500D02*
X29636057Y-55351880D01*
X29493200Y-55351880D01*
X29350342Y-55399500D01*
X29255104Y-55494738D01*
X29207485Y-55589976D01*
X29159866Y-55780452D01*
X29159866Y-55923309D01*
X29207485Y-56113785D01*
X29255104Y-56209023D01*
X29350342Y-56304261D01*
X29493200Y-56351880D01*
X29588438Y-56351880D01*
X29731295Y-56304261D01*
X29778914Y-56256642D01*
X29778914Y-55923309D01*
X29588438Y-55923309D01*
X30778914Y-56351880D02*
X30445580Y-55875690D01*
X30207485Y-56351880D02*
X30207485Y-55351880D01*
X30588438Y-55351880D01*
X30683676Y-55399500D01*
X30731295Y-55447119D01*
X30778914Y-55542357D01*
X30778914Y-55685214D01*
X30731295Y-55780452D01*
X30683676Y-55828071D01*
X30588438Y-55875690D01*
X30207485Y-55875690D01*
X31397961Y-55351880D02*
X31588438Y-55351880D01*
X31683676Y-55399500D01*
X31778914Y-55494738D01*
X31826533Y-55685214D01*
X31826533Y-56018547D01*
X31778914Y-56209023D01*
X31683676Y-56304261D01*
X31588438Y-56351880D01*
X31397961Y-56351880D01*
X31302723Y-56304261D01*
X31207485Y-56209023D01*
X31159866Y-56018547D01*
X31159866Y-55685214D01*
X31207485Y-55494738D01*
X31302723Y-55399500D01*
X31397961Y-55351880D01*
X32255104Y-55351880D02*
X32255104Y-56161404D01*
X32302723Y-56256642D01*
X32350342Y-56304261D01*
X32445580Y-56351880D01*
X32636057Y-56351880D01*
X32731295Y-56304261D01*
X32778914Y-56256642D01*
X32826533Y-56161404D01*
X32826533Y-55351880D01*
X33302723Y-56351880D02*
X33302723Y-55351880D01*
X33874152Y-56351880D01*
X33874152Y-55351880D01*
X34350342Y-56351880D02*
X34350342Y-55351880D01*
X34588438Y-55351880D01*
X34731295Y-55399500D01*
X34826533Y-55494738D01*
X34874152Y-55589976D01*
X34921771Y-55780452D01*
X34921771Y-55923309D01*
X34874152Y-56113785D01*
X34826533Y-56209023D01*
X34731295Y-56304261D01*
X34588438Y-56351880D01*
X34350342Y-56351880D01*
X35112247Y-56447119D02*
X35874152Y-56447119D01*
X36683676Y-56256642D02*
X36636057Y-56304261D01*
X36493200Y-56351880D01*
X36397961Y-56351880D01*
X36255104Y-56304261D01*
X36159866Y-56209023D01*
X36112247Y-56113785D01*
X36064628Y-55923309D01*
X36064628Y-55780452D01*
X36112247Y-55589976D01*
X36159866Y-55494738D01*
X36255104Y-55399500D01*
X36397961Y-55351880D01*
X36493200Y-55351880D01*
X36636057Y-55399500D01*
X36683676Y-55447119D01*
X37302723Y-55351880D02*
X37493200Y-55351880D01*
X37588438Y-55399500D01*
X37683676Y-55494738D01*
X37731295Y-55685214D01*
X37731295Y-56018547D01*
X37683676Y-56209023D01*
X37588438Y-56304261D01*
X37493200Y-56351880D01*
X37302723Y-56351880D01*
X37207485Y-56304261D01*
X37112247Y-56209023D01*
X37064628Y-56018547D01*
X37064628Y-55685214D01*
X37112247Y-55494738D01*
X37207485Y-55399500D01*
X37302723Y-55351880D01*
X38159866Y-56351880D02*
X38159866Y-55351880D01*
X38731295Y-56351880D01*
X38731295Y-55351880D01*
X39207485Y-56351880D02*
X39207485Y-55351880D01*
X39778914Y-56351880D01*
X39778914Y-55351880D01*
X33945580Y-61579023D02*
X34659866Y-61579023D01*
X34802723Y-61626642D01*
X34897961Y-61721880D01*
X34945580Y-61864738D01*
X34945580Y-61959976D01*
X34945580Y-60579023D02*
X34945580Y-61150452D01*
X34945580Y-60864738D02*
X33945580Y-60864738D01*
X34088438Y-60959976D01*
X34183676Y-61055214D01*
X34231295Y-61150452D01*
X33945580Y-59959976D02*
X33945580Y-59864738D01*
X33993200Y-59769500D01*
X34040819Y-59721880D01*
X34136057Y-59674261D01*
X34326533Y-59626642D01*
X34564628Y-59626642D01*
X34755104Y-59674261D01*
X34850342Y-59721880D01*
X34897961Y-59769500D01*
X34945580Y-59864738D01*
X34945580Y-59959976D01*
X34897961Y-60055214D01*
X34850342Y-60102833D01*
X34755104Y-60150452D01*
X34564628Y-60198071D01*
X34326533Y-60198071D01*
X34136057Y-60150452D01*
X34040819Y-60102833D01*
X33993200Y-60055214D01*
X33945580Y-59959976D01*
%TO.C,J9*%
X30646714Y-73586385D02*
X31646714Y-73586385D01*
X30694333Y-73586385D02*
X30646714Y-73491147D01*
X30646714Y-73300671D01*
X30694333Y-73205433D01*
X30741952Y-73157814D01*
X30837190Y-73110195D01*
X31122904Y-73110195D01*
X31218142Y-73157814D01*
X31265761Y-73205433D01*
X31313380Y-73300671D01*
X31313380Y-73491147D01*
X31265761Y-73586385D01*
X31313380Y-72538766D02*
X31265761Y-72634004D01*
X31218142Y-72681623D01*
X31122904Y-72729242D01*
X30837190Y-72729242D01*
X30741952Y-72681623D01*
X30694333Y-72634004D01*
X30646714Y-72538766D01*
X30646714Y-72395909D01*
X30694333Y-72300671D01*
X30741952Y-72253052D01*
X30837190Y-72205433D01*
X31122904Y-72205433D01*
X31218142Y-72253052D01*
X31265761Y-72300671D01*
X31313380Y-72395909D01*
X31313380Y-72538766D01*
X30646714Y-71872100D02*
X31313380Y-71681623D01*
X30837190Y-71491147D01*
X31313380Y-71300671D01*
X30646714Y-71110195D01*
X31265761Y-70348290D02*
X31313380Y-70443528D01*
X31313380Y-70634004D01*
X31265761Y-70729242D01*
X31170523Y-70776861D01*
X30789571Y-70776861D01*
X30694333Y-70729242D01*
X30646714Y-70634004D01*
X30646714Y-70443528D01*
X30694333Y-70348290D01*
X30789571Y-70300671D01*
X30884809Y-70300671D01*
X30980047Y-70776861D01*
X31313380Y-69872100D02*
X30646714Y-69872100D01*
X30837190Y-69872100D02*
X30741952Y-69824480D01*
X30694333Y-69776861D01*
X30646714Y-69681623D01*
X30646714Y-69586385D01*
X31408619Y-69491147D02*
X31408619Y-68729242D01*
X31265761Y-68538766D02*
X31313380Y-68443528D01*
X31313380Y-68253052D01*
X31265761Y-68157814D01*
X31170523Y-68110195D01*
X31122904Y-68110195D01*
X31027666Y-68157814D01*
X30980047Y-68253052D01*
X30980047Y-68395909D01*
X30932428Y-68491147D01*
X30837190Y-68538766D01*
X30789571Y-68538766D01*
X30694333Y-68491147D01*
X30646714Y-68395909D01*
X30646714Y-68253052D01*
X30694333Y-68157814D01*
X30646714Y-67253052D02*
X31313380Y-67253052D01*
X30646714Y-67681623D02*
X31170523Y-67681623D01*
X31265761Y-67634004D01*
X31313380Y-67538766D01*
X31313380Y-67395909D01*
X31265761Y-67300671D01*
X31218142Y-67253052D01*
X30646714Y-66776861D02*
X31646714Y-66776861D01*
X30694333Y-66776861D02*
X30646714Y-66681623D01*
X30646714Y-66491147D01*
X30694333Y-66395909D01*
X30741952Y-66348290D01*
X30837190Y-66300671D01*
X31122904Y-66300671D01*
X31218142Y-66348290D01*
X31265761Y-66395909D01*
X31313380Y-66491147D01*
X31313380Y-66681623D01*
X31265761Y-66776861D01*
X30646714Y-65872100D02*
X31646714Y-65872100D01*
X30694333Y-65872100D02*
X30646714Y-65776861D01*
X30646714Y-65586385D01*
X30694333Y-65491147D01*
X30741952Y-65443528D01*
X30837190Y-65395909D01*
X31122904Y-65395909D01*
X31218142Y-65443528D01*
X31265761Y-65491147D01*
X31313380Y-65586385D01*
X31313380Y-65776861D01*
X31265761Y-65872100D01*
X31313380Y-64824480D02*
X31265761Y-64919719D01*
X31170523Y-64967338D01*
X30313380Y-64967338D01*
X30646714Y-64538766D02*
X31313380Y-64300671D01*
X30646714Y-64062576D02*
X31313380Y-64300671D01*
X31551476Y-64395909D01*
X31599095Y-64443528D01*
X31646714Y-64538766D01*
X33945580Y-70196033D02*
X34659866Y-70196033D01*
X34802723Y-70243652D01*
X34897961Y-70338890D01*
X34945580Y-70481747D01*
X34945580Y-70576985D01*
X34945580Y-69672223D02*
X34945580Y-69481747D01*
X34897961Y-69386509D01*
X34850342Y-69338890D01*
X34707485Y-69243652D01*
X34517009Y-69196033D01*
X34136057Y-69196033D01*
X34040819Y-69243652D01*
X33993200Y-69291271D01*
X33945580Y-69386509D01*
X33945580Y-69576985D01*
X33993200Y-69672223D01*
X34040819Y-69719842D01*
X34136057Y-69767461D01*
X34374152Y-69767461D01*
X34469390Y-69719842D01*
X34517009Y-69672223D01*
X34564628Y-69576985D01*
X34564628Y-69386509D01*
X34517009Y-69291271D01*
X34469390Y-69243652D01*
X34374152Y-69196033D01*
%TO.C,J8*%
X136922380Y-55080042D02*
X136446190Y-55413376D01*
X136922380Y-55651471D02*
X135922380Y-55651471D01*
X135922380Y-55270519D01*
X135970000Y-55175280D01*
X136017619Y-55127661D01*
X136112857Y-55080042D01*
X136255714Y-55080042D01*
X136350952Y-55127661D01*
X136398571Y-55175280D01*
X136446190Y-55270519D01*
X136446190Y-55651471D01*
X136874761Y-54270519D02*
X136922380Y-54365757D01*
X136922380Y-54556233D01*
X136874761Y-54651471D01*
X136779523Y-54699090D01*
X136398571Y-54699090D01*
X136303333Y-54651471D01*
X136255714Y-54556233D01*
X136255714Y-54365757D01*
X136303333Y-54270519D01*
X136398571Y-54222900D01*
X136493809Y-54222900D01*
X136589047Y-54699090D01*
X136922380Y-53651471D02*
X136874761Y-53746709D01*
X136779523Y-53794328D01*
X135922380Y-53794328D01*
X136922380Y-52841947D02*
X136398571Y-52841947D01*
X136303333Y-52889566D01*
X136255714Y-52984804D01*
X136255714Y-53175280D01*
X136303333Y-53270519D01*
X136874761Y-52841947D02*
X136922380Y-52937185D01*
X136922380Y-53175280D01*
X136874761Y-53270519D01*
X136779523Y-53318138D01*
X136684285Y-53318138D01*
X136589047Y-53270519D01*
X136541428Y-53175280D01*
X136541428Y-52937185D01*
X136493809Y-52841947D01*
X136255714Y-52460995D02*
X136922380Y-52222900D01*
X136255714Y-51984804D02*
X136922380Y-52222900D01*
X137160476Y-52318138D01*
X137208095Y-52365757D01*
X137255714Y-52460995D01*
X136017619Y-51651471D02*
X135970000Y-51603852D01*
X135922380Y-51508614D01*
X135922380Y-51270519D01*
X135970000Y-51175280D01*
X136017619Y-51127661D01*
X136112857Y-51080042D01*
X136208095Y-51080042D01*
X136350952Y-51127661D01*
X136922380Y-51699090D01*
X136922380Y-51080042D01*
X137017619Y-50889566D02*
X137017619Y-50127661D01*
X136874761Y-49460995D02*
X136922380Y-49556233D01*
X136922380Y-49746709D01*
X136874761Y-49841947D01*
X136827142Y-49889566D01*
X136731904Y-49937185D01*
X136446190Y-49937185D01*
X136350952Y-49889566D01*
X136303333Y-49841947D01*
X136255714Y-49746709D01*
X136255714Y-49556233D01*
X136303333Y-49460995D01*
X136922380Y-48889566D02*
X136874761Y-48984804D01*
X136827142Y-49032423D01*
X136731904Y-49080042D01*
X136446190Y-49080042D01*
X136350952Y-49032423D01*
X136303333Y-48984804D01*
X136255714Y-48889566D01*
X136255714Y-48746709D01*
X136303333Y-48651471D01*
X136350952Y-48603852D01*
X136446190Y-48556233D01*
X136731904Y-48556233D01*
X136827142Y-48603852D01*
X136874761Y-48651471D01*
X136922380Y-48746709D01*
X136922380Y-48889566D01*
X136255714Y-48127661D02*
X136922380Y-48127661D01*
X136350952Y-48127661D02*
X136303333Y-48080042D01*
X136255714Y-47984804D01*
X136255714Y-47841947D01*
X136303333Y-47746709D01*
X136398571Y-47699090D01*
X136922380Y-47699090D01*
X136255714Y-47222900D02*
X136922380Y-47222900D01*
X136350952Y-47222900D02*
X136303333Y-47175280D01*
X136255714Y-47080042D01*
X136255714Y-46937185D01*
X136303333Y-46841947D01*
X136398571Y-46794328D01*
X136922380Y-46794328D01*
X133462380Y-51556233D02*
X134176666Y-51556233D01*
X134319523Y-51603852D01*
X134414761Y-51699090D01*
X134462380Y-51841947D01*
X134462380Y-51937185D01*
X133890952Y-50937185D02*
X133843333Y-51032423D01*
X133795714Y-51080042D01*
X133700476Y-51127661D01*
X133652857Y-51127661D01*
X133557619Y-51080042D01*
X133510000Y-51032423D01*
X133462380Y-50937185D01*
X133462380Y-50746709D01*
X133510000Y-50651471D01*
X133557619Y-50603852D01*
X133652857Y-50556233D01*
X133700476Y-50556233D01*
X133795714Y-50603852D01*
X133843333Y-50651471D01*
X133890952Y-50746709D01*
X133890952Y-50937185D01*
X133938571Y-51032423D01*
X133986190Y-51080042D01*
X134081428Y-51127661D01*
X134271904Y-51127661D01*
X134367142Y-51080042D01*
X134414761Y-51032423D01*
X134462380Y-50937185D01*
X134462380Y-50746709D01*
X134414761Y-50651471D01*
X134367142Y-50603852D01*
X134271904Y-50556233D01*
X134081428Y-50556233D01*
X133986190Y-50603852D01*
X133938571Y-50651471D01*
X133890952Y-50746709D01*
%TO.C,J7*%
X137155180Y-31860642D02*
X136678990Y-32193976D01*
X137155180Y-32432071D02*
X136155180Y-32432071D01*
X136155180Y-32051119D01*
X136202800Y-31955880D01*
X136250419Y-31908261D01*
X136345657Y-31860642D01*
X136488514Y-31860642D01*
X136583752Y-31908261D01*
X136631371Y-31955880D01*
X136678990Y-32051119D01*
X136678990Y-32432071D01*
X137107561Y-31051119D02*
X137155180Y-31146357D01*
X137155180Y-31336833D01*
X137107561Y-31432071D01*
X137012323Y-31479690D01*
X136631371Y-31479690D01*
X136536133Y-31432071D01*
X136488514Y-31336833D01*
X136488514Y-31146357D01*
X136536133Y-31051119D01*
X136631371Y-31003500D01*
X136726609Y-31003500D01*
X136821847Y-31479690D01*
X137155180Y-30432071D02*
X137107561Y-30527309D01*
X137012323Y-30574928D01*
X136155180Y-30574928D01*
X137155180Y-29622547D02*
X136631371Y-29622547D01*
X136536133Y-29670166D01*
X136488514Y-29765404D01*
X136488514Y-29955880D01*
X136536133Y-30051119D01*
X137107561Y-29622547D02*
X137155180Y-29717785D01*
X137155180Y-29955880D01*
X137107561Y-30051119D01*
X137012323Y-30098738D01*
X136917085Y-30098738D01*
X136821847Y-30051119D01*
X136774228Y-29955880D01*
X136774228Y-29717785D01*
X136726609Y-29622547D01*
X136488514Y-29241595D02*
X137155180Y-29003500D01*
X136488514Y-28765404D02*
X137155180Y-29003500D01*
X137393276Y-29098738D01*
X137440895Y-29146357D01*
X137488514Y-29241595D01*
X137155180Y-27860642D02*
X137155180Y-28432071D01*
X137155180Y-28146357D02*
X136155180Y-28146357D01*
X136298038Y-28241595D01*
X136393276Y-28336833D01*
X136440895Y-28432071D01*
X137250419Y-27670166D02*
X137250419Y-26908261D01*
X137107561Y-26241595D02*
X137155180Y-26336833D01*
X137155180Y-26527309D01*
X137107561Y-26622547D01*
X137059942Y-26670166D01*
X136964704Y-26717785D01*
X136678990Y-26717785D01*
X136583752Y-26670166D01*
X136536133Y-26622547D01*
X136488514Y-26527309D01*
X136488514Y-26336833D01*
X136536133Y-26241595D01*
X137155180Y-25670166D02*
X137107561Y-25765404D01*
X137059942Y-25813023D01*
X136964704Y-25860642D01*
X136678990Y-25860642D01*
X136583752Y-25813023D01*
X136536133Y-25765404D01*
X136488514Y-25670166D01*
X136488514Y-25527309D01*
X136536133Y-25432071D01*
X136583752Y-25384452D01*
X136678990Y-25336833D01*
X136964704Y-25336833D01*
X137059942Y-25384452D01*
X137107561Y-25432071D01*
X137155180Y-25527309D01*
X137155180Y-25670166D01*
X136488514Y-24908261D02*
X137155180Y-24908261D01*
X136583752Y-24908261D02*
X136536133Y-24860642D01*
X136488514Y-24765404D01*
X136488514Y-24622547D01*
X136536133Y-24527309D01*
X136631371Y-24479690D01*
X137155180Y-24479690D01*
X136488514Y-24003500D02*
X137155180Y-24003500D01*
X136583752Y-24003500D02*
X136536133Y-23955880D01*
X136488514Y-23860642D01*
X136488514Y-23717785D01*
X136536133Y-23622547D01*
X136631371Y-23574928D01*
X137155180Y-23574928D01*
X133614780Y-29128033D02*
X134329066Y-29128033D01*
X134471923Y-29175652D01*
X134567161Y-29270890D01*
X134614780Y-29413747D01*
X134614780Y-29508985D01*
X133614780Y-28747080D02*
X133614780Y-28080414D01*
X134614780Y-28508985D01*
%TO.C,J6*%
X137354180Y-76085842D02*
X136877990Y-76419176D01*
X137354180Y-76657271D02*
X136354180Y-76657271D01*
X136354180Y-76276319D01*
X136401800Y-76181080D01*
X136449419Y-76133461D01*
X136544657Y-76085842D01*
X136687514Y-76085842D01*
X136782752Y-76133461D01*
X136830371Y-76181080D01*
X136877990Y-76276319D01*
X136877990Y-76657271D01*
X137306561Y-75276319D02*
X137354180Y-75371557D01*
X137354180Y-75562033D01*
X137306561Y-75657271D01*
X137211323Y-75704890D01*
X136830371Y-75704890D01*
X136735133Y-75657271D01*
X136687514Y-75562033D01*
X136687514Y-75371557D01*
X136735133Y-75276319D01*
X136830371Y-75228700D01*
X136925609Y-75228700D01*
X137020847Y-75704890D01*
X137354180Y-74657271D02*
X137306561Y-74752509D01*
X137211323Y-74800128D01*
X136354180Y-74800128D01*
X137354180Y-73847747D02*
X136830371Y-73847747D01*
X136735133Y-73895366D01*
X136687514Y-73990604D01*
X136687514Y-74181080D01*
X136735133Y-74276319D01*
X137306561Y-73847747D02*
X137354180Y-73942985D01*
X137354180Y-74181080D01*
X137306561Y-74276319D01*
X137211323Y-74323938D01*
X137116085Y-74323938D01*
X137020847Y-74276319D01*
X136973228Y-74181080D01*
X136973228Y-73942985D01*
X136925609Y-73847747D01*
X136687514Y-73466795D02*
X137354180Y-73228700D01*
X136687514Y-72990604D02*
X137354180Y-73228700D01*
X137592276Y-73323938D01*
X137639895Y-73371557D01*
X137687514Y-73466795D01*
X136354180Y-72704890D02*
X136354180Y-72085842D01*
X136735133Y-72419176D01*
X136735133Y-72276319D01*
X136782752Y-72181080D01*
X136830371Y-72133461D01*
X136925609Y-72085842D01*
X137163704Y-72085842D01*
X137258942Y-72133461D01*
X137306561Y-72181080D01*
X137354180Y-72276319D01*
X137354180Y-72562033D01*
X137306561Y-72657271D01*
X137258942Y-72704890D01*
X137449419Y-71895366D02*
X137449419Y-71133461D01*
X137306561Y-70466795D02*
X137354180Y-70562033D01*
X137354180Y-70752509D01*
X137306561Y-70847747D01*
X137258942Y-70895366D01*
X137163704Y-70942985D01*
X136877990Y-70942985D01*
X136782752Y-70895366D01*
X136735133Y-70847747D01*
X136687514Y-70752509D01*
X136687514Y-70562033D01*
X136735133Y-70466795D01*
X137354180Y-69895366D02*
X137306561Y-69990604D01*
X137258942Y-70038223D01*
X137163704Y-70085842D01*
X136877990Y-70085842D01*
X136782752Y-70038223D01*
X136735133Y-69990604D01*
X136687514Y-69895366D01*
X136687514Y-69752509D01*
X136735133Y-69657271D01*
X136782752Y-69609652D01*
X136877990Y-69562033D01*
X137163704Y-69562033D01*
X137258942Y-69609652D01*
X137306561Y-69657271D01*
X137354180Y-69752509D01*
X137354180Y-69895366D01*
X136687514Y-69133461D02*
X137354180Y-69133461D01*
X136782752Y-69133461D02*
X136735133Y-69085842D01*
X136687514Y-68990604D01*
X136687514Y-68847747D01*
X136735133Y-68752509D01*
X136830371Y-68704890D01*
X137354180Y-68704890D01*
X136687514Y-68228700D02*
X137354180Y-68228700D01*
X136782752Y-68228700D02*
X136735133Y-68181080D01*
X136687514Y-68085842D01*
X136687514Y-67942985D01*
X136735133Y-67847747D01*
X136830371Y-67800128D01*
X137354180Y-67800128D01*
X133894180Y-72562033D02*
X134608466Y-72562033D01*
X134751323Y-72609652D01*
X134846561Y-72704890D01*
X134894180Y-72847747D01*
X134894180Y-72942985D01*
X133894180Y-71657271D02*
X133894180Y-71847747D01*
X133941800Y-71942985D01*
X133989419Y-71990604D01*
X134132276Y-72085842D01*
X134322752Y-72133461D01*
X134703704Y-72133461D01*
X134798942Y-72085842D01*
X134846561Y-72038223D01*
X134894180Y-71942985D01*
X134894180Y-71752509D01*
X134846561Y-71657271D01*
X134798942Y-71609652D01*
X134703704Y-71562033D01*
X134465609Y-71562033D01*
X134370371Y-71609652D01*
X134322752Y-71657271D01*
X134275133Y-71752509D01*
X134275133Y-71942985D01*
X134322752Y-72038223D01*
X134370371Y-72085842D01*
X134465609Y-72133461D01*
%TO.C,J5*%
X137481180Y-95694642D02*
X137004990Y-96027976D01*
X137481180Y-96266071D02*
X136481180Y-96266071D01*
X136481180Y-95885119D01*
X136528800Y-95789880D01*
X136576419Y-95742261D01*
X136671657Y-95694642D01*
X136814514Y-95694642D01*
X136909752Y-95742261D01*
X136957371Y-95789880D01*
X137004990Y-95885119D01*
X137004990Y-96266071D01*
X137433561Y-94885119D02*
X137481180Y-94980357D01*
X137481180Y-95170833D01*
X137433561Y-95266071D01*
X137338323Y-95313690D01*
X136957371Y-95313690D01*
X136862133Y-95266071D01*
X136814514Y-95170833D01*
X136814514Y-94980357D01*
X136862133Y-94885119D01*
X136957371Y-94837500D01*
X137052609Y-94837500D01*
X137147847Y-95313690D01*
X137481180Y-94266071D02*
X137433561Y-94361309D01*
X137338323Y-94408928D01*
X136481180Y-94408928D01*
X137481180Y-93456547D02*
X136957371Y-93456547D01*
X136862133Y-93504166D01*
X136814514Y-93599404D01*
X136814514Y-93789880D01*
X136862133Y-93885119D01*
X137433561Y-93456547D02*
X137481180Y-93551785D01*
X137481180Y-93789880D01*
X137433561Y-93885119D01*
X137338323Y-93932738D01*
X137243085Y-93932738D01*
X137147847Y-93885119D01*
X137100228Y-93789880D01*
X137100228Y-93551785D01*
X137052609Y-93456547D01*
X136814514Y-93075595D02*
X137481180Y-92837500D01*
X136814514Y-92599404D02*
X137481180Y-92837500D01*
X137719276Y-92932738D01*
X137766895Y-92980357D01*
X137814514Y-93075595D01*
X136576419Y-92266071D02*
X136528800Y-92218452D01*
X136481180Y-92123214D01*
X136481180Y-91885119D01*
X136528800Y-91789880D01*
X136576419Y-91742261D01*
X136671657Y-91694642D01*
X136766895Y-91694642D01*
X136909752Y-91742261D01*
X137481180Y-92313690D01*
X137481180Y-91694642D01*
X137576419Y-91504166D02*
X137576419Y-90742261D01*
X137433561Y-90075595D02*
X137481180Y-90170833D01*
X137481180Y-90361309D01*
X137433561Y-90456547D01*
X137385942Y-90504166D01*
X137290704Y-90551785D01*
X137004990Y-90551785D01*
X136909752Y-90504166D01*
X136862133Y-90456547D01*
X136814514Y-90361309D01*
X136814514Y-90170833D01*
X136862133Y-90075595D01*
X137481180Y-89504166D02*
X137433561Y-89599404D01*
X137385942Y-89647023D01*
X137290704Y-89694642D01*
X137004990Y-89694642D01*
X136909752Y-89647023D01*
X136862133Y-89599404D01*
X136814514Y-89504166D01*
X136814514Y-89361309D01*
X136862133Y-89266071D01*
X136909752Y-89218452D01*
X137004990Y-89170833D01*
X137290704Y-89170833D01*
X137385942Y-89218452D01*
X137433561Y-89266071D01*
X137481180Y-89361309D01*
X137481180Y-89504166D01*
X136814514Y-88742261D02*
X137481180Y-88742261D01*
X136909752Y-88742261D02*
X136862133Y-88694642D01*
X136814514Y-88599404D01*
X136814514Y-88456547D01*
X136862133Y-88361309D01*
X136957371Y-88313690D01*
X137481180Y-88313690D01*
X136814514Y-87837500D02*
X137481180Y-87837500D01*
X136909752Y-87837500D02*
X136862133Y-87789880D01*
X136814514Y-87694642D01*
X136814514Y-87551785D01*
X136862133Y-87456547D01*
X136957371Y-87408928D01*
X137481180Y-87408928D01*
X134021180Y-92170833D02*
X134735466Y-92170833D01*
X134878323Y-92218452D01*
X134973561Y-92313690D01*
X135021180Y-92456547D01*
X135021180Y-92551785D01*
X134021180Y-91218452D02*
X134021180Y-91694642D01*
X134497371Y-91742261D01*
X134449752Y-91694642D01*
X134402133Y-91599404D01*
X134402133Y-91361309D01*
X134449752Y-91266071D01*
X134497371Y-91218452D01*
X134592609Y-91170833D01*
X134830704Y-91170833D01*
X134925942Y-91218452D01*
X134973561Y-91266071D01*
X135021180Y-91361309D01*
X135021180Y-91599404D01*
X134973561Y-91694642D01*
X134925942Y-91742261D01*
%TO.C,J2*%
X29023371Y-101822595D02*
X29070990Y-101679738D01*
X29118609Y-101632119D01*
X29213847Y-101584500D01*
X29356704Y-101584500D01*
X29451942Y-101632119D01*
X29499561Y-101679738D01*
X29547180Y-101774976D01*
X29547180Y-102155928D01*
X28547180Y-102155928D01*
X28547180Y-101822595D01*
X28594800Y-101727357D01*
X28642419Y-101679738D01*
X28737657Y-101632119D01*
X28832895Y-101632119D01*
X28928133Y-101679738D01*
X28975752Y-101727357D01*
X29023371Y-101822595D01*
X29023371Y-102155928D01*
X29547180Y-100727357D02*
X29023371Y-100727357D01*
X28928133Y-100774976D01*
X28880514Y-100870214D01*
X28880514Y-101060690D01*
X28928133Y-101155928D01*
X29499561Y-100727357D02*
X29547180Y-100822595D01*
X29547180Y-101060690D01*
X29499561Y-101155928D01*
X29404323Y-101203547D01*
X29309085Y-101203547D01*
X29213847Y-101155928D01*
X29166228Y-101060690D01*
X29166228Y-100822595D01*
X29118609Y-100727357D01*
X29547180Y-100251166D02*
X28880514Y-100251166D01*
X29070990Y-100251166D02*
X28975752Y-100203547D01*
X28928133Y-100155928D01*
X28880514Y-100060690D01*
X28880514Y-99965452D01*
X29547180Y-99632119D02*
X28880514Y-99632119D01*
X29070990Y-99632119D02*
X28975752Y-99584500D01*
X28928133Y-99536880D01*
X28880514Y-99441642D01*
X28880514Y-99346404D01*
X29499561Y-98632119D02*
X29547180Y-98727357D01*
X29547180Y-98917833D01*
X29499561Y-99013071D01*
X29404323Y-99060690D01*
X29023371Y-99060690D01*
X28928133Y-99013071D01*
X28880514Y-98917833D01*
X28880514Y-98727357D01*
X28928133Y-98632119D01*
X29023371Y-98584500D01*
X29118609Y-98584500D01*
X29213847Y-99060690D01*
X29547180Y-98013071D02*
X29499561Y-98108309D01*
X29404323Y-98155928D01*
X28547180Y-98155928D01*
X29642419Y-97870214D02*
X29642419Y-97108309D01*
X28547180Y-96584500D02*
X29261466Y-96584500D01*
X29404323Y-96632119D01*
X29499561Y-96727357D01*
X29547180Y-96870214D01*
X29547180Y-96965452D01*
X29547180Y-95679738D02*
X29023371Y-95679738D01*
X28928133Y-95727357D01*
X28880514Y-95822595D01*
X28880514Y-96013071D01*
X28928133Y-96108309D01*
X29499561Y-95679738D02*
X29547180Y-95774976D01*
X29547180Y-96013071D01*
X29499561Y-96108309D01*
X29404323Y-96155928D01*
X29309085Y-96155928D01*
X29213847Y-96108309D01*
X29166228Y-96013071D01*
X29166228Y-95774976D01*
X29118609Y-95679738D01*
X29499561Y-94774976D02*
X29547180Y-94870214D01*
X29547180Y-95060690D01*
X29499561Y-95155928D01*
X29451942Y-95203547D01*
X29356704Y-95251166D01*
X29070990Y-95251166D01*
X28975752Y-95203547D01*
X28928133Y-95155928D01*
X28880514Y-95060690D01*
X28880514Y-94870214D01*
X28928133Y-94774976D01*
X29547180Y-94346404D02*
X28547180Y-94346404D01*
X29166228Y-94251166D02*
X29547180Y-93965452D01*
X28880514Y-93965452D02*
X29261466Y-94346404D01*
X31097180Y-95217833D02*
X31811466Y-95217833D01*
X31954323Y-95265452D01*
X32049561Y-95360690D01*
X32097180Y-95503547D01*
X32097180Y-95598785D01*
X31192419Y-94789261D02*
X31144800Y-94741642D01*
X31097180Y-94646404D01*
X31097180Y-94408309D01*
X31144800Y-94313071D01*
X31192419Y-94265452D01*
X31287657Y-94217833D01*
X31382895Y-94217833D01*
X31525752Y-94265452D01*
X32097180Y-94836880D01*
X32097180Y-94217833D01*
%TO.C,D9*%
X100652980Y-56662557D02*
X100652980Y-57138747D01*
X99652980Y-57138747D01*
X100129171Y-56329223D02*
X100129171Y-55995890D01*
X100652980Y-55853033D02*
X100652980Y-56329223D01*
X99652980Y-56329223D01*
X99652980Y-55853033D01*
X100652980Y-55424461D02*
X99652980Y-55424461D01*
X99652980Y-55186366D01*
X99700600Y-55043509D01*
X99795838Y-54948271D01*
X99891076Y-54900652D01*
X100081552Y-54853033D01*
X100224409Y-54853033D01*
X100414885Y-54900652D01*
X100510123Y-54948271D01*
X100605361Y-55043509D01*
X100652980Y-55186366D01*
X100652980Y-55424461D01*
D12*
X96602504Y-56630176D02*
X95802504Y-56630176D01*
X95802504Y-56439700D01*
X95840600Y-56325414D01*
X95916790Y-56249223D01*
X95992980Y-56211128D01*
X96145361Y-56173033D01*
X96259647Y-56173033D01*
X96412028Y-56211128D01*
X96488219Y-56249223D01*
X96564409Y-56325414D01*
X96602504Y-56439700D01*
X96602504Y-56630176D01*
X96602504Y-55792080D02*
X96602504Y-55639700D01*
X96564409Y-55563509D01*
X96526314Y-55525414D01*
X96412028Y-55449223D01*
X96259647Y-55411128D01*
X95954885Y-55411128D01*
X95878695Y-55449223D01*
X95840600Y-55487319D01*
X95802504Y-55563509D01*
X95802504Y-55715890D01*
X95840600Y-55792080D01*
X95878695Y-55830176D01*
X95954885Y-55868271D01*
X96145361Y-55868271D01*
X96221552Y-55830176D01*
X96259647Y-55792080D01*
X96297742Y-55715890D01*
X96297742Y-55563509D01*
X96259647Y-55487319D01*
X96221552Y-55449223D01*
X96145361Y-55411128D01*
%TO.C,D8*%
D11*
X98519380Y-34335957D02*
X98519380Y-34812147D01*
X97519380Y-34812147D01*
X97995571Y-34002623D02*
X97995571Y-33669290D01*
X98519380Y-33526433D02*
X98519380Y-34002623D01*
X97519380Y-34002623D01*
X97519380Y-33526433D01*
X98519380Y-33097861D02*
X97519380Y-33097861D01*
X97519380Y-32859766D01*
X97567000Y-32716909D01*
X97662238Y-32621671D01*
X97757476Y-32574052D01*
X97947952Y-32526433D01*
X98090809Y-32526433D01*
X98281285Y-32574052D01*
X98376523Y-32621671D01*
X98471761Y-32716909D01*
X98519380Y-32859766D01*
X98519380Y-33097861D01*
D12*
X94468904Y-34303576D02*
X93668904Y-34303576D01*
X93668904Y-34113100D01*
X93707000Y-33998814D01*
X93783190Y-33922623D01*
X93859380Y-33884528D01*
X94011761Y-33846433D01*
X94126047Y-33846433D01*
X94278428Y-33884528D01*
X94354619Y-33922623D01*
X94430809Y-33998814D01*
X94468904Y-34113100D01*
X94468904Y-34303576D01*
X94011761Y-33389290D02*
X93973666Y-33465480D01*
X93935571Y-33503576D01*
X93859380Y-33541671D01*
X93821285Y-33541671D01*
X93745095Y-33503576D01*
X93707000Y-33465480D01*
X93668904Y-33389290D01*
X93668904Y-33236909D01*
X93707000Y-33160719D01*
X93745095Y-33122623D01*
X93821285Y-33084528D01*
X93859380Y-33084528D01*
X93935571Y-33122623D01*
X93973666Y-33160719D01*
X94011761Y-33236909D01*
X94011761Y-33389290D01*
X94049857Y-33465480D01*
X94087952Y-33503576D01*
X94164142Y-33541671D01*
X94316523Y-33541671D01*
X94392714Y-33503576D01*
X94430809Y-33465480D01*
X94468904Y-33389290D01*
X94468904Y-33236909D01*
X94430809Y-33160719D01*
X94392714Y-33122623D01*
X94316523Y-33084528D01*
X94164142Y-33084528D01*
X94087952Y-33122623D01*
X94049857Y-33160719D01*
X94011761Y-33236909D01*
%TO.C,D7*%
D11*
X101491180Y-78506557D02*
X101491180Y-78982747D01*
X100491180Y-78982747D01*
X100967371Y-78173223D02*
X100967371Y-77839890D01*
X101491180Y-77697033D02*
X101491180Y-78173223D01*
X100491180Y-78173223D01*
X100491180Y-77697033D01*
X101491180Y-77268461D02*
X100491180Y-77268461D01*
X100491180Y-77030366D01*
X100538800Y-76887509D01*
X100634038Y-76792271D01*
X100729276Y-76744652D01*
X100919752Y-76697033D01*
X101062609Y-76697033D01*
X101253085Y-76744652D01*
X101348323Y-76792271D01*
X101443561Y-76887509D01*
X101491180Y-77030366D01*
X101491180Y-77268461D01*
D12*
X97440704Y-78474176D02*
X96640704Y-78474176D01*
X96640704Y-78283700D01*
X96678800Y-78169414D01*
X96754990Y-78093223D01*
X96831180Y-78055128D01*
X96983561Y-78017033D01*
X97097847Y-78017033D01*
X97250228Y-78055128D01*
X97326419Y-78093223D01*
X97402609Y-78169414D01*
X97440704Y-78283700D01*
X97440704Y-78474176D01*
X96640704Y-77750366D02*
X96640704Y-77217033D01*
X97440704Y-77559890D01*
%TO.C,D3*%
D11*
X95598380Y-99080557D02*
X95598380Y-99556747D01*
X94598380Y-99556747D01*
X95074571Y-98747223D02*
X95074571Y-98413890D01*
X95598380Y-98271033D02*
X95598380Y-98747223D01*
X94598380Y-98747223D01*
X94598380Y-98271033D01*
X95598380Y-97842461D02*
X94598380Y-97842461D01*
X94598380Y-97604366D01*
X94646000Y-97461509D01*
X94741238Y-97366271D01*
X94836476Y-97318652D01*
X95026952Y-97271033D01*
X95169809Y-97271033D01*
X95360285Y-97318652D01*
X95455523Y-97366271D01*
X95550761Y-97461509D01*
X95598380Y-97604366D01*
X95598380Y-97842461D01*
D12*
X91547904Y-99048176D02*
X90747904Y-99048176D01*
X90747904Y-98857700D01*
X90786000Y-98743414D01*
X90862190Y-98667223D01*
X90938380Y-98629128D01*
X91090761Y-98591033D01*
X91205047Y-98591033D01*
X91357428Y-98629128D01*
X91433619Y-98667223D01*
X91509809Y-98743414D01*
X91547904Y-98857700D01*
X91547904Y-99048176D01*
X90747904Y-98324366D02*
X90747904Y-97829128D01*
X91052666Y-98095795D01*
X91052666Y-97981509D01*
X91090761Y-97905319D01*
X91128857Y-97867223D01*
X91205047Y-97829128D01*
X91395523Y-97829128D01*
X91471714Y-97867223D01*
X91509809Y-97905319D01*
X91547904Y-97981509D01*
X91547904Y-98210080D01*
X91509809Y-98286271D01*
X91471714Y-98324366D01*
%TO.C,D1*%
D11*
X39209742Y-56245880D02*
X38733552Y-56245880D01*
X38733552Y-55245880D01*
X39543076Y-55722071D02*
X39876409Y-55722071D01*
X40019266Y-56245880D02*
X39543076Y-56245880D01*
X39543076Y-55245880D01*
X40019266Y-55245880D01*
X40447838Y-56245880D02*
X40447838Y-55245880D01*
X40685933Y-55245880D01*
X40828790Y-55293500D01*
X40924028Y-55388738D01*
X40971647Y-55483976D01*
X41019266Y-55674452D01*
X41019266Y-55817309D01*
X40971647Y-56007785D01*
X40924028Y-56103023D01*
X40828790Y-56198261D01*
X40685933Y-56245880D01*
X40447838Y-56245880D01*
D12*
X39282123Y-60115404D02*
X39282123Y-59315404D01*
X39472600Y-59315404D01*
X39586885Y-59353500D01*
X39663076Y-59429690D01*
X39701171Y-59505880D01*
X39739266Y-59658261D01*
X39739266Y-59772547D01*
X39701171Y-59924928D01*
X39663076Y-60001119D01*
X39586885Y-60077309D01*
X39472600Y-60115404D01*
X39282123Y-60115404D01*
X40501171Y-60115404D02*
X40044028Y-60115404D01*
X40272600Y-60115404D02*
X40272600Y-59315404D01*
X40196409Y-59429690D01*
X40120219Y-59505880D01*
X40044028Y-59543976D01*
%TO.C,C2*%
D11*
X33269742Y-87247776D02*
X33317361Y-87295395D01*
X33364980Y-87438252D01*
X33364980Y-87533490D01*
X33317361Y-87676347D01*
X33222123Y-87771585D01*
X33126885Y-87819204D01*
X32936409Y-87866823D01*
X32793552Y-87866823D01*
X32603076Y-87819204D01*
X32507838Y-87771585D01*
X32412600Y-87676347D01*
X32364980Y-87533490D01*
X32364980Y-87438252D01*
X32412600Y-87295395D01*
X32460219Y-87247776D01*
X33460219Y-87057300D02*
X33460219Y-86295395D01*
X33317361Y-86104919D02*
X33364980Y-85962061D01*
X33364980Y-85723966D01*
X33317361Y-85628728D01*
X33269742Y-85581109D01*
X33174504Y-85533490D01*
X33079266Y-85533490D01*
X32984028Y-85581109D01*
X32936409Y-85628728D01*
X32888790Y-85723966D01*
X32841171Y-85914442D01*
X32793552Y-86009680D01*
X32745933Y-86057300D01*
X32650695Y-86104919D01*
X32555457Y-86104919D01*
X32460219Y-86057300D01*
X32412600Y-86009680D01*
X32364980Y-85914442D01*
X32364980Y-85676347D01*
X32412600Y-85533490D01*
X33364980Y-85104919D02*
X32698314Y-85104919D01*
X32793552Y-85104919D02*
X32745933Y-85057300D01*
X32698314Y-84962061D01*
X32698314Y-84819204D01*
X32745933Y-84723966D01*
X32841171Y-84676347D01*
X33364980Y-84676347D01*
X32841171Y-84676347D02*
X32745933Y-84628728D01*
X32698314Y-84533490D01*
X32698314Y-84390633D01*
X32745933Y-84295395D01*
X32841171Y-84247776D01*
X33364980Y-84247776D01*
X33364980Y-83343014D02*
X32841171Y-83343014D01*
X32745933Y-83390633D01*
X32698314Y-83485871D01*
X32698314Y-83676347D01*
X32745933Y-83771585D01*
X33317361Y-83343014D02*
X33364980Y-83438252D01*
X33364980Y-83676347D01*
X33317361Y-83771585D01*
X33222123Y-83819204D01*
X33126885Y-83819204D01*
X33031647Y-83771585D01*
X32984028Y-83676347D01*
X32984028Y-83438252D01*
X32936409Y-83343014D01*
X33364980Y-82723966D02*
X33317361Y-82819204D01*
X33222123Y-82866823D01*
X32364980Y-82866823D01*
X33364980Y-82200157D02*
X33317361Y-82295395D01*
X33222123Y-82343014D01*
X32364980Y-82343014D01*
X37669742Y-85223966D02*
X37717361Y-85271585D01*
X37764980Y-85414442D01*
X37764980Y-85509680D01*
X37717361Y-85652538D01*
X37622123Y-85747776D01*
X37526885Y-85795395D01*
X37336409Y-85843014D01*
X37193552Y-85843014D01*
X37003076Y-85795395D01*
X36907838Y-85747776D01*
X36812600Y-85652538D01*
X36764980Y-85509680D01*
X36764980Y-85414442D01*
X36812600Y-85271585D01*
X36860219Y-85223966D01*
X36860219Y-84843014D02*
X36812600Y-84795395D01*
X36764980Y-84700157D01*
X36764980Y-84462061D01*
X36812600Y-84366823D01*
X36860219Y-84319204D01*
X36955457Y-84271585D01*
X37050695Y-84271585D01*
X37193552Y-84319204D01*
X37764980Y-84890633D01*
X37764980Y-84271585D01*
%TO.C,C1*%
X25167142Y-87349376D02*
X25214761Y-87396995D01*
X25262380Y-87539852D01*
X25262380Y-87635090D01*
X25214761Y-87777947D01*
X25119523Y-87873185D01*
X25024285Y-87920804D01*
X24833809Y-87968423D01*
X24690952Y-87968423D01*
X24500476Y-87920804D01*
X24405238Y-87873185D01*
X24310000Y-87777947D01*
X24262380Y-87635090D01*
X24262380Y-87539852D01*
X24310000Y-87396995D01*
X24357619Y-87349376D01*
X25357619Y-87158900D02*
X25357619Y-86396995D01*
X25214761Y-86206519D02*
X25262380Y-86063661D01*
X25262380Y-85825566D01*
X25214761Y-85730328D01*
X25167142Y-85682709D01*
X25071904Y-85635090D01*
X24976666Y-85635090D01*
X24881428Y-85682709D01*
X24833809Y-85730328D01*
X24786190Y-85825566D01*
X24738571Y-86016042D01*
X24690952Y-86111280D01*
X24643333Y-86158900D01*
X24548095Y-86206519D01*
X24452857Y-86206519D01*
X24357619Y-86158900D01*
X24310000Y-86111280D01*
X24262380Y-86016042D01*
X24262380Y-85777947D01*
X24310000Y-85635090D01*
X25262380Y-85206519D02*
X24595714Y-85206519D01*
X24690952Y-85206519D02*
X24643333Y-85158900D01*
X24595714Y-85063661D01*
X24595714Y-84920804D01*
X24643333Y-84825566D01*
X24738571Y-84777947D01*
X25262380Y-84777947D01*
X24738571Y-84777947D02*
X24643333Y-84730328D01*
X24595714Y-84635090D01*
X24595714Y-84492233D01*
X24643333Y-84396995D01*
X24738571Y-84349376D01*
X25262380Y-84349376D01*
X25262380Y-83444614D02*
X24738571Y-83444614D01*
X24643333Y-83492233D01*
X24595714Y-83587471D01*
X24595714Y-83777947D01*
X24643333Y-83873185D01*
X25214761Y-83444614D02*
X25262380Y-83539852D01*
X25262380Y-83777947D01*
X25214761Y-83873185D01*
X25119523Y-83920804D01*
X25024285Y-83920804D01*
X24929047Y-83873185D01*
X24881428Y-83777947D01*
X24881428Y-83539852D01*
X24833809Y-83444614D01*
X25262380Y-82825566D02*
X25214761Y-82920804D01*
X25119523Y-82968423D01*
X24262380Y-82968423D01*
X25262380Y-82301757D02*
X25214761Y-82396995D01*
X25119523Y-82444614D01*
X24262380Y-82444614D01*
X29567142Y-85325566D02*
X29614761Y-85373185D01*
X29662380Y-85516042D01*
X29662380Y-85611280D01*
X29614761Y-85754138D01*
X29519523Y-85849376D01*
X29424285Y-85896995D01*
X29233809Y-85944614D01*
X29090952Y-85944614D01*
X28900476Y-85896995D01*
X28805238Y-85849376D01*
X28710000Y-85754138D01*
X28662380Y-85611280D01*
X28662380Y-85516042D01*
X28710000Y-85373185D01*
X28757619Y-85325566D01*
X29662380Y-84373185D02*
X29662380Y-84944614D01*
X29662380Y-84658900D02*
X28662380Y-84658900D01*
X28805238Y-84754138D01*
X28900476Y-84849376D01*
X28948095Y-84944614D01*
%TO.C,K4*%
X123472400Y-53360366D02*
X123424780Y-53455604D01*
X123424780Y-53598461D01*
X123472400Y-53741319D01*
X123567638Y-53836557D01*
X123662876Y-53884176D01*
X123853352Y-53931795D01*
X123996209Y-53931795D01*
X124186685Y-53884176D01*
X124281923Y-53836557D01*
X124377161Y-53741319D01*
X124424780Y-53598461D01*
X124424780Y-53503223D01*
X124377161Y-53360366D01*
X124329542Y-53312747D01*
X123996209Y-53312747D01*
X123996209Y-53503223D01*
X123424780Y-52407985D02*
X123424780Y-52884176D01*
X123900971Y-52931795D01*
X123853352Y-52884176D01*
X123805733Y-52788938D01*
X123805733Y-52550842D01*
X123853352Y-52455604D01*
X123900971Y-52407985D01*
X123996209Y-52360366D01*
X124234304Y-52360366D01*
X124329542Y-52407985D01*
X124377161Y-52455604D01*
X124424780Y-52550842D01*
X124424780Y-52788938D01*
X124377161Y-52884176D01*
X124329542Y-52931795D01*
X124424780Y-51455604D02*
X124424780Y-51931795D01*
X123424780Y-51931795D01*
X123900971Y-51122271D02*
X123900971Y-50788938D01*
X124424780Y-50646080D02*
X124424780Y-51122271D01*
X123424780Y-51122271D01*
X123424780Y-50646080D01*
X124043828Y-50217509D02*
X124043828Y-49455604D01*
X124424780Y-48455604D02*
X124424780Y-49027033D01*
X124424780Y-48741319D02*
X123424780Y-48741319D01*
X123567638Y-48836557D01*
X123662876Y-48931795D01*
X123710495Y-49027033D01*
X112174780Y-51931795D02*
X111174780Y-51931795D01*
X112174780Y-51360366D02*
X111603352Y-51788938D01*
X111174780Y-51360366D02*
X111746209Y-51931795D01*
X111508114Y-50503223D02*
X112174780Y-50503223D01*
X111127161Y-50741319D02*
X111841447Y-50979414D01*
X111841447Y-50360366D01*
%TO.C,K3*%
X122786600Y-31084566D02*
X122738980Y-31179804D01*
X122738980Y-31322661D01*
X122786600Y-31465519D01*
X122881838Y-31560757D01*
X122977076Y-31608376D01*
X123167552Y-31655995D01*
X123310409Y-31655995D01*
X123500885Y-31608376D01*
X123596123Y-31560757D01*
X123691361Y-31465519D01*
X123738980Y-31322661D01*
X123738980Y-31227423D01*
X123691361Y-31084566D01*
X123643742Y-31036947D01*
X123310409Y-31036947D01*
X123310409Y-31227423D01*
X122738980Y-30132185D02*
X122738980Y-30608376D01*
X123215171Y-30655995D01*
X123167552Y-30608376D01*
X123119933Y-30513138D01*
X123119933Y-30275042D01*
X123167552Y-30179804D01*
X123215171Y-30132185D01*
X123310409Y-30084566D01*
X123548504Y-30084566D01*
X123643742Y-30132185D01*
X123691361Y-30179804D01*
X123738980Y-30275042D01*
X123738980Y-30513138D01*
X123691361Y-30608376D01*
X123643742Y-30655995D01*
X123738980Y-29179804D02*
X123738980Y-29655995D01*
X122738980Y-29655995D01*
X123215171Y-28846471D02*
X123215171Y-28513138D01*
X123738980Y-28370280D02*
X123738980Y-28846471D01*
X122738980Y-28846471D01*
X122738980Y-28370280D01*
X123358028Y-27941709D02*
X123358028Y-27179804D01*
X123738980Y-26179804D02*
X123738980Y-26751233D01*
X123738980Y-26465519D02*
X122738980Y-26465519D01*
X122881838Y-26560757D01*
X122977076Y-26655995D01*
X123024695Y-26751233D01*
X111488980Y-29655995D02*
X110488980Y-29655995D01*
X111488980Y-29084566D02*
X110917552Y-29513138D01*
X110488980Y-29084566D02*
X111060409Y-29655995D01*
X110488980Y-28751233D02*
X110488980Y-28132185D01*
X110869933Y-28465519D01*
X110869933Y-28322661D01*
X110917552Y-28227423D01*
X110965171Y-28179804D01*
X111060409Y-28132185D01*
X111298504Y-28132185D01*
X111393742Y-28179804D01*
X111441361Y-28227423D01*
X111488980Y-28322661D01*
X111488980Y-28608376D01*
X111441361Y-28703614D01*
X111393742Y-28751233D01*
%TO.C,K2*%
X124336000Y-74747166D02*
X124288380Y-74842404D01*
X124288380Y-74985261D01*
X124336000Y-75128119D01*
X124431238Y-75223357D01*
X124526476Y-75270976D01*
X124716952Y-75318595D01*
X124859809Y-75318595D01*
X125050285Y-75270976D01*
X125145523Y-75223357D01*
X125240761Y-75128119D01*
X125288380Y-74985261D01*
X125288380Y-74890023D01*
X125240761Y-74747166D01*
X125193142Y-74699547D01*
X124859809Y-74699547D01*
X124859809Y-74890023D01*
X124288380Y-73794785D02*
X124288380Y-74270976D01*
X124764571Y-74318595D01*
X124716952Y-74270976D01*
X124669333Y-74175738D01*
X124669333Y-73937642D01*
X124716952Y-73842404D01*
X124764571Y-73794785D01*
X124859809Y-73747166D01*
X125097904Y-73747166D01*
X125193142Y-73794785D01*
X125240761Y-73842404D01*
X125288380Y-73937642D01*
X125288380Y-74175738D01*
X125240761Y-74270976D01*
X125193142Y-74318595D01*
X125288380Y-72842404D02*
X125288380Y-73318595D01*
X124288380Y-73318595D01*
X124764571Y-72509071D02*
X124764571Y-72175738D01*
X125288380Y-72032880D02*
X125288380Y-72509071D01*
X124288380Y-72509071D01*
X124288380Y-72032880D01*
X124907428Y-71604309D02*
X124907428Y-70842404D01*
X125288380Y-69842404D02*
X125288380Y-70413833D01*
X125288380Y-70128119D02*
X124288380Y-70128119D01*
X124431238Y-70223357D01*
X124526476Y-70318595D01*
X124574095Y-70413833D01*
X113038380Y-73318595D02*
X112038380Y-73318595D01*
X113038380Y-72747166D02*
X112466952Y-73175738D01*
X112038380Y-72747166D02*
X112609809Y-73318595D01*
X112133619Y-72366214D02*
X112086000Y-72318595D01*
X112038380Y-72223357D01*
X112038380Y-71985261D01*
X112086000Y-71890023D01*
X112133619Y-71842404D01*
X112228857Y-71794785D01*
X112324095Y-71794785D01*
X112466952Y-71842404D01*
X113038380Y-72413833D01*
X113038380Y-71794785D01*
%TO.C,K1*%
X121211800Y-95803766D02*
X121164180Y-95899004D01*
X121164180Y-96041861D01*
X121211800Y-96184719D01*
X121307038Y-96279957D01*
X121402276Y-96327576D01*
X121592752Y-96375195D01*
X121735609Y-96375195D01*
X121926085Y-96327576D01*
X122021323Y-96279957D01*
X122116561Y-96184719D01*
X122164180Y-96041861D01*
X122164180Y-95946623D01*
X122116561Y-95803766D01*
X122068942Y-95756147D01*
X121735609Y-95756147D01*
X121735609Y-95946623D01*
X121164180Y-94851385D02*
X121164180Y-95327576D01*
X121640371Y-95375195D01*
X121592752Y-95327576D01*
X121545133Y-95232338D01*
X121545133Y-94994242D01*
X121592752Y-94899004D01*
X121640371Y-94851385D01*
X121735609Y-94803766D01*
X121973704Y-94803766D01*
X122068942Y-94851385D01*
X122116561Y-94899004D01*
X122164180Y-94994242D01*
X122164180Y-95232338D01*
X122116561Y-95327576D01*
X122068942Y-95375195D01*
X122164180Y-93899004D02*
X122164180Y-94375195D01*
X121164180Y-94375195D01*
X121640371Y-93565671D02*
X121640371Y-93232338D01*
X122164180Y-93089480D02*
X122164180Y-93565671D01*
X121164180Y-93565671D01*
X121164180Y-93089480D01*
X121783228Y-92660909D02*
X121783228Y-91899004D01*
X122164180Y-90899004D02*
X122164180Y-91470433D01*
X122164180Y-91184719D02*
X121164180Y-91184719D01*
X121307038Y-91279957D01*
X121402276Y-91375195D01*
X121449895Y-91470433D01*
X109914180Y-94375195D02*
X108914180Y-94375195D01*
X109914180Y-93803766D02*
X109342752Y-94232338D01*
X108914180Y-93803766D02*
X109485609Y-94375195D01*
X109914180Y-92851385D02*
X109914180Y-93422814D01*
X109914180Y-93137100D02*
X108914180Y-93137100D01*
X109057038Y-93232338D01*
X109152276Y-93327576D01*
X109199895Y-93422814D01*
%TO.C,D6*%
X88431780Y-50771157D02*
X88431780Y-51342585D01*
X88431780Y-51056871D02*
X87431780Y-51056871D01*
X87574638Y-51152109D01*
X87669876Y-51247347D01*
X87717495Y-51342585D01*
X88431780Y-50342585D02*
X87431780Y-50342585D01*
X88431780Y-49771157D01*
X87431780Y-49771157D01*
X87765114Y-48866395D02*
X88431780Y-48866395D01*
X87384161Y-49104490D02*
X88098447Y-49342585D01*
X88098447Y-48723538D01*
X87431780Y-48152109D02*
X87431780Y-48056871D01*
X87479400Y-47961633D01*
X87527019Y-47914014D01*
X87622257Y-47866395D01*
X87812733Y-47818776D01*
X88050828Y-47818776D01*
X88241304Y-47866395D01*
X88336542Y-47914014D01*
X88384161Y-47961633D01*
X88431780Y-48056871D01*
X88431780Y-48152109D01*
X88384161Y-48247347D01*
X88336542Y-48294966D01*
X88241304Y-48342585D01*
X88050828Y-48390204D01*
X87812733Y-48390204D01*
X87622257Y-48342585D01*
X87527019Y-48294966D01*
X87479400Y-48247347D01*
X87431780Y-48152109D01*
X87431780Y-47199728D02*
X87431780Y-47104490D01*
X87479400Y-47009252D01*
X87527019Y-46961633D01*
X87622257Y-46914014D01*
X87812733Y-46866395D01*
X88050828Y-46866395D01*
X88241304Y-46914014D01*
X88336542Y-46961633D01*
X88384161Y-47009252D01*
X88431780Y-47104490D01*
X88431780Y-47199728D01*
X88384161Y-47294966D01*
X88336542Y-47342585D01*
X88241304Y-47390204D01*
X88050828Y-47437823D01*
X87812733Y-47437823D01*
X87622257Y-47390204D01*
X87527019Y-47342585D01*
X87479400Y-47294966D01*
X87431780Y-47199728D01*
X87431780Y-46533061D02*
X87431780Y-45866395D01*
X88431780Y-46294966D01*
X93001780Y-43810204D02*
X92001780Y-43810204D01*
X93001780Y-43238776D02*
X92430352Y-43667347D01*
X92001780Y-43238776D02*
X92573209Y-43810204D01*
X90901780Y-49756395D02*
X89901780Y-49756395D01*
X89901780Y-49518300D01*
X89949400Y-49375442D01*
X90044638Y-49280204D01*
X90139876Y-49232585D01*
X90330352Y-49184966D01*
X90473209Y-49184966D01*
X90663685Y-49232585D01*
X90758923Y-49280204D01*
X90854161Y-49375442D01*
X90901780Y-49518300D01*
X90901780Y-49756395D01*
X89901780Y-48327823D02*
X89901780Y-48518300D01*
X89949400Y-48613538D01*
X89997019Y-48661157D01*
X90139876Y-48756395D01*
X90330352Y-48804014D01*
X90711304Y-48804014D01*
X90806542Y-48756395D01*
X90854161Y-48708776D01*
X90901780Y-48613538D01*
X90901780Y-48423061D01*
X90854161Y-48327823D01*
X90806542Y-48280204D01*
X90711304Y-48232585D01*
X90473209Y-48232585D01*
X90377971Y-48280204D01*
X90330352Y-48327823D01*
X90282733Y-48423061D01*
X90282733Y-48613538D01*
X90330352Y-48708776D01*
X90377971Y-48756395D01*
X90473209Y-48804014D01*
%TO.C,D5*%
X85358380Y-29993957D02*
X85358380Y-30565385D01*
X85358380Y-30279671D02*
X84358380Y-30279671D01*
X84501238Y-30374909D01*
X84596476Y-30470147D01*
X84644095Y-30565385D01*
X85358380Y-29565385D02*
X84358380Y-29565385D01*
X85358380Y-28993957D01*
X84358380Y-28993957D01*
X84691714Y-28089195D02*
X85358380Y-28089195D01*
X84310761Y-28327290D02*
X85025047Y-28565385D01*
X85025047Y-27946338D01*
X84358380Y-27374909D02*
X84358380Y-27279671D01*
X84406000Y-27184433D01*
X84453619Y-27136814D01*
X84548857Y-27089195D01*
X84739333Y-27041576D01*
X84977428Y-27041576D01*
X85167904Y-27089195D01*
X85263142Y-27136814D01*
X85310761Y-27184433D01*
X85358380Y-27279671D01*
X85358380Y-27374909D01*
X85310761Y-27470147D01*
X85263142Y-27517766D01*
X85167904Y-27565385D01*
X84977428Y-27613004D01*
X84739333Y-27613004D01*
X84548857Y-27565385D01*
X84453619Y-27517766D01*
X84406000Y-27470147D01*
X84358380Y-27374909D01*
X84358380Y-26422528D02*
X84358380Y-26327290D01*
X84406000Y-26232052D01*
X84453619Y-26184433D01*
X84548857Y-26136814D01*
X84739333Y-26089195D01*
X84977428Y-26089195D01*
X85167904Y-26136814D01*
X85263142Y-26184433D01*
X85310761Y-26232052D01*
X85358380Y-26327290D01*
X85358380Y-26422528D01*
X85310761Y-26517766D01*
X85263142Y-26565385D01*
X85167904Y-26613004D01*
X84977428Y-26660623D01*
X84739333Y-26660623D01*
X84548857Y-26613004D01*
X84453619Y-26565385D01*
X84406000Y-26517766D01*
X84358380Y-26422528D01*
X84358380Y-25755861D02*
X84358380Y-25089195D01*
X85358380Y-25517766D01*
X89928380Y-23033004D02*
X88928380Y-23033004D01*
X89928380Y-22461576D02*
X89356952Y-22890147D01*
X88928380Y-22461576D02*
X89499809Y-23033004D01*
X87828380Y-28979195D02*
X86828380Y-28979195D01*
X86828380Y-28741100D01*
X86876000Y-28598242D01*
X86971238Y-28503004D01*
X87066476Y-28455385D01*
X87256952Y-28407766D01*
X87399809Y-28407766D01*
X87590285Y-28455385D01*
X87685523Y-28503004D01*
X87780761Y-28598242D01*
X87828380Y-28741100D01*
X87828380Y-28979195D01*
X86828380Y-27503004D02*
X86828380Y-27979195D01*
X87304571Y-28026814D01*
X87256952Y-27979195D01*
X87209333Y-27883957D01*
X87209333Y-27645861D01*
X87256952Y-27550623D01*
X87304571Y-27503004D01*
X87399809Y-27455385D01*
X87637904Y-27455385D01*
X87733142Y-27503004D01*
X87780761Y-27550623D01*
X87828380Y-27645861D01*
X87828380Y-27883957D01*
X87780761Y-27979195D01*
X87733142Y-28026814D01*
%TO.C,D4*%
X89600180Y-72386557D02*
X89600180Y-72957985D01*
X89600180Y-72672271D02*
X88600180Y-72672271D01*
X88743038Y-72767509D01*
X88838276Y-72862747D01*
X88885895Y-72957985D01*
X89600180Y-71957985D02*
X88600180Y-71957985D01*
X89600180Y-71386557D01*
X88600180Y-71386557D01*
X88933514Y-70481795D02*
X89600180Y-70481795D01*
X88552561Y-70719890D02*
X89266847Y-70957985D01*
X89266847Y-70338938D01*
X88600180Y-69767509D02*
X88600180Y-69672271D01*
X88647800Y-69577033D01*
X88695419Y-69529414D01*
X88790657Y-69481795D01*
X88981133Y-69434176D01*
X89219228Y-69434176D01*
X89409704Y-69481795D01*
X89504942Y-69529414D01*
X89552561Y-69577033D01*
X89600180Y-69672271D01*
X89600180Y-69767509D01*
X89552561Y-69862747D01*
X89504942Y-69910366D01*
X89409704Y-69957985D01*
X89219228Y-70005604D01*
X88981133Y-70005604D01*
X88790657Y-69957985D01*
X88695419Y-69910366D01*
X88647800Y-69862747D01*
X88600180Y-69767509D01*
X88600180Y-68815128D02*
X88600180Y-68719890D01*
X88647800Y-68624652D01*
X88695419Y-68577033D01*
X88790657Y-68529414D01*
X88981133Y-68481795D01*
X89219228Y-68481795D01*
X89409704Y-68529414D01*
X89504942Y-68577033D01*
X89552561Y-68624652D01*
X89600180Y-68719890D01*
X89600180Y-68815128D01*
X89552561Y-68910366D01*
X89504942Y-68957985D01*
X89409704Y-69005604D01*
X89219228Y-69053223D01*
X88981133Y-69053223D01*
X88790657Y-69005604D01*
X88695419Y-68957985D01*
X88647800Y-68910366D01*
X88600180Y-68815128D01*
X88600180Y-68148461D02*
X88600180Y-67481795D01*
X89600180Y-67910366D01*
X94170180Y-65425604D02*
X93170180Y-65425604D01*
X94170180Y-64854176D02*
X93598752Y-65282747D01*
X93170180Y-64854176D02*
X93741609Y-65425604D01*
X92070180Y-71371795D02*
X91070180Y-71371795D01*
X91070180Y-71133700D01*
X91117800Y-70990842D01*
X91213038Y-70895604D01*
X91308276Y-70847985D01*
X91498752Y-70800366D01*
X91641609Y-70800366D01*
X91832085Y-70847985D01*
X91927323Y-70895604D01*
X92022561Y-70990842D01*
X92070180Y-71133700D01*
X92070180Y-71371795D01*
X91403514Y-69943223D02*
X92070180Y-69943223D01*
X91022561Y-70181319D02*
X91736847Y-70419414D01*
X91736847Y-69800366D01*
%TO.C,D2*%
X81243580Y-94001957D02*
X81243580Y-94573385D01*
X81243580Y-94287671D02*
X80243580Y-94287671D01*
X80386438Y-94382909D01*
X80481676Y-94478147D01*
X80529295Y-94573385D01*
X81243580Y-93573385D02*
X80243580Y-93573385D01*
X81243580Y-93001957D01*
X80243580Y-93001957D01*
X80576914Y-92097195D02*
X81243580Y-92097195D01*
X80195961Y-92335290D02*
X80910247Y-92573385D01*
X80910247Y-91954338D01*
X80243580Y-91382909D02*
X80243580Y-91287671D01*
X80291200Y-91192433D01*
X80338819Y-91144814D01*
X80434057Y-91097195D01*
X80624533Y-91049576D01*
X80862628Y-91049576D01*
X81053104Y-91097195D01*
X81148342Y-91144814D01*
X81195961Y-91192433D01*
X81243580Y-91287671D01*
X81243580Y-91382909D01*
X81195961Y-91478147D01*
X81148342Y-91525766D01*
X81053104Y-91573385D01*
X80862628Y-91621004D01*
X80624533Y-91621004D01*
X80434057Y-91573385D01*
X80338819Y-91525766D01*
X80291200Y-91478147D01*
X80243580Y-91382909D01*
X80243580Y-90430528D02*
X80243580Y-90335290D01*
X80291200Y-90240052D01*
X80338819Y-90192433D01*
X80434057Y-90144814D01*
X80624533Y-90097195D01*
X80862628Y-90097195D01*
X81053104Y-90144814D01*
X81148342Y-90192433D01*
X81195961Y-90240052D01*
X81243580Y-90335290D01*
X81243580Y-90430528D01*
X81195961Y-90525766D01*
X81148342Y-90573385D01*
X81053104Y-90621004D01*
X80862628Y-90668623D01*
X80624533Y-90668623D01*
X80434057Y-90621004D01*
X80338819Y-90573385D01*
X80291200Y-90525766D01*
X80243580Y-90430528D01*
X80243580Y-89763861D02*
X80243580Y-89097195D01*
X81243580Y-89525766D01*
X85813580Y-87041004D02*
X84813580Y-87041004D01*
X85813580Y-86469576D02*
X85242152Y-86898147D01*
X84813580Y-86469576D02*
X85385009Y-87041004D01*
X83713580Y-92987195D02*
X82713580Y-92987195D01*
X82713580Y-92749100D01*
X82761200Y-92606242D01*
X82856438Y-92511004D01*
X82951676Y-92463385D01*
X83142152Y-92415766D01*
X83285009Y-92415766D01*
X83475485Y-92463385D01*
X83570723Y-92511004D01*
X83665961Y-92606242D01*
X83713580Y-92749100D01*
X83713580Y-92987195D01*
X82808819Y-92034814D02*
X82761200Y-91987195D01*
X82713580Y-91891957D01*
X82713580Y-91653861D01*
X82761200Y-91558623D01*
X82808819Y-91511004D01*
X82904057Y-91463385D01*
X82999295Y-91463385D01*
X83142152Y-91511004D01*
X83713580Y-92082433D01*
X83713580Y-91463385D01*
%TD*%
M02*
