%TF.GenerationSoftware,KiCad,Pcbnew,(5.1.12)-1*%
%TF.CreationDate,2022-02-17T13:15:52+05:30*%
%TF.ProjectId,homeAutomation,686f6d65-4175-4746-9f6d-6174696f6e2e,rev?*%
%TF.SameCoordinates,Original*%
%TF.FileFunction,Copper,L2,Bot*%
%TF.FilePolarity,Positive*%
%FSLAX46Y46*%
G04 Gerber Fmt 4.6, Leading zero omitted, Abs format (unit mm)*
G04 Created by KiCad (PCBNEW (5.1.12)-1) date 2022-02-17 13:15:52*
%MOMM*%
%LPD*%
G01*
G04 APERTURE LIST*
%TA.AperFunction,ComponentPad*%
%ADD10C,2.000000*%
%TD*%
%TA.AperFunction,ComponentPad*%
%ADD11O,1.600000X1.600000*%
%TD*%
%TA.AperFunction,ComponentPad*%
%ADD12C,1.600000*%
%TD*%
%TA.AperFunction,ComponentPad*%
%ADD13C,1.524000*%
%TD*%
%TA.AperFunction,ComponentPad*%
%ADD14R,1.500000X1.500000*%
%TD*%
%TA.AperFunction,ComponentPad*%
%ADD15C,1.500000*%
%TD*%
%TA.AperFunction,ComponentPad*%
%ADD16O,1.905000X2.000000*%
%TD*%
%TA.AperFunction,ComponentPad*%
%ADD17R,1.905000X2.000000*%
%TD*%
%TA.AperFunction,ComponentPad*%
%ADD18O,1.700000X1.700000*%
%TD*%
%TA.AperFunction,ComponentPad*%
%ADD19R,1.700000X1.700000*%
%TD*%
%TA.AperFunction,ComponentPad*%
%ADD20C,2.600000*%
%TD*%
%TA.AperFunction,ComponentPad*%
%ADD21R,2.600000X2.600000*%
%TD*%
%TA.AperFunction,ComponentPad*%
%ADD22R,3.500000X3.500000*%
%TD*%
%TA.AperFunction,ComponentPad*%
%ADD23C,1.800000*%
%TD*%
%TA.AperFunction,ComponentPad*%
%ADD24R,1.800000X1.800000*%
%TD*%
%TA.AperFunction,ComponentPad*%
%ADD25R,1.600000X1.600000*%
%TD*%
%TA.AperFunction,ComponentPad*%
%ADD26O,2.500000X2.500000*%
%TD*%
%TA.AperFunction,ComponentPad*%
%ADD27R,2.500000X2.500000*%
%TD*%
%TA.AperFunction,ComponentPad*%
%ADD28O,2.200000X2.200000*%
%TD*%
%TA.AperFunction,ComponentPad*%
%ADD29R,2.200000X2.200000*%
%TD*%
G04 APERTURE END LIST*
D10*
%TO.P,SW2,1*%
%TO.N,S2*%
X47932200Y-25311100D03*
%TO.P,SW2,2*%
%TO.N,GND*%
X47932200Y-20811100D03*
%TO.P,SW2,1*%
%TO.N,S2*%
X54432200Y-25311100D03*
%TO.P,SW2,2*%
%TO.N,GND*%
X54432200Y-20811100D03*
%TD*%
D11*
%TO.P,R4,2*%
%TO.N,S1*%
X73558400Y-27901900D03*
D12*
%TO.P,R4,1*%
%TO.N,VCC*%
X73558400Y-20281900D03*
%TD*%
D13*
%TO.P,U1,30*%
%TO.N,S1*%
X73228200Y-42354500D03*
%TO.P,U1,29*%
%TO.N,Net-(U1-Pad29)*%
X73228200Y-44894500D03*
%TO.P,U1,28*%
%TO.N,Net-(U1-Pad28)*%
X73228200Y-47434500D03*
%TO.P,U1,27*%
%TO.N,S2*%
X73228200Y-49974500D03*
%TO.P,U1,26*%
%TO.N,M_data*%
X73228200Y-52514500D03*
%TO.P,U1,25*%
%TO.N,Net-(U1-Pad25)*%
X73228200Y-55054500D03*
%TO.P,U1,24*%
%TO.N,GND*%
X73228200Y-57594500D03*
%TO.P,U1,23*%
%TO.N,relay1*%
X73228200Y-60134500D03*
%TO.P,U1,22*%
%TO.N,relay2*%
X73228200Y-62674500D03*
%TO.P,U1,21*%
%TO.N,relay3*%
X73228200Y-65214500D03*
%TO.P,U1,20*%
%TO.N,relay4*%
X73228200Y-67754500D03*
%TO.P,U1,19*%
%TO.N,S3*%
X73228200Y-70294500D03*
%TO.P,U1,18*%
%TO.N,S4*%
X73228200Y-72834500D03*
%TO.P,U1,17*%
%TO.N,GND*%
X73228200Y-75374500D03*
%TO.P,U1,16*%
%TO.N,Net-(U1-Pad16)*%
X73228200Y-77914500D03*
%TO.P,U1,15*%
%TO.N,VCC*%
X45288200Y-77914500D03*
%TO.P,U1,14*%
%TO.N,GND*%
X45288200Y-75374500D03*
%TO.P,U1,13*%
%TO.N,Net-(U1-Pad13)*%
X45288200Y-72834500D03*
%TO.P,U1,12*%
%TO.N,Net-(U1-Pad12)*%
X45288200Y-70294500D03*
%TO.P,U1,11*%
%TO.N,+3V3*%
X45288200Y-67754500D03*
%TO.P,U1,10*%
%TO.N,GND*%
X45288200Y-65214500D03*
%TO.P,U1,9*%
%TO.N,Net-(U1-Pad9)*%
X45288200Y-62674500D03*
%TO.P,U1,8*%
%TO.N,Net-(U1-Pad8)*%
X45288200Y-60134500D03*
%TO.P,U1,7*%
%TO.N,Net-(U1-Pad7)*%
X45288200Y-57594500D03*
%TO.P,U1,6*%
%TO.N,Net-(U1-Pad6)*%
X45288200Y-55054500D03*
%TO.P,U1,5*%
%TO.N,Net-(U1-Pad5)*%
X45288200Y-52514500D03*
%TO.P,U1,4*%
%TO.N,Net-(U1-Pad4)*%
X45288200Y-49974500D03*
%TO.P,U1,3*%
%TO.N,Net-(U1-Pad3)*%
X45288200Y-47434500D03*
%TO.P,U1,2*%
%TO.N,GND*%
X45288200Y-44894500D03*
%TO.P,U1,1*%
%TO.N,Net-(U1-Pad1)*%
X45288200Y-42354500D03*
%TD*%
D10*
%TO.P,SW1,1*%
%TO.N,S1*%
X77015200Y-26835100D03*
%TO.P,SW1,2*%
%TO.N,GND*%
X77015200Y-22335100D03*
%TO.P,SW1,1*%
%TO.N,S1*%
X83515200Y-26835100D03*
%TO.P,SW1,2*%
%TO.N,GND*%
X83515200Y-22335100D03*
%TD*%
D14*
%TO.P,Q4,1*%
%TO.N,Net-(D6-Pad2)*%
X89509600Y-56883300D03*
D15*
%TO.P,Q4,3*%
%TO.N,GND*%
X89509600Y-61963300D03*
%TO.P,Q4,2*%
%TO.N,Net-(Q4-Pad2)*%
X89509600Y-59423300D03*
%TD*%
D14*
%TO.P,Q3,1*%
%TO.N,Net-(D5-Pad2)*%
X87147400Y-36233100D03*
D15*
%TO.P,Q3,3*%
%TO.N,GND*%
X87147400Y-41313100D03*
%TO.P,Q3,2*%
%TO.N,Net-(Q3-Pad2)*%
X87147400Y-38773100D03*
%TD*%
D14*
%TO.P,Q2,1*%
%TO.N,Net-(D4-Pad2)*%
X90754200Y-78422500D03*
D15*
%TO.P,Q2,3*%
%TO.N,GND*%
X90754200Y-83502500D03*
%TO.P,Q2,2*%
%TO.N,Net-(Q2-Pad2)*%
X90754200Y-80962500D03*
%TD*%
D14*
%TO.P,Q1,1*%
%TO.N,Net-(D2-Pad2)*%
X83058000Y-100520500D03*
D15*
%TO.P,Q1,3*%
%TO.N,GND*%
X83058000Y-105600500D03*
%TO.P,Q1,2*%
%TO.N,Net-(Q1-Pad2)*%
X83058000Y-103060500D03*
%TD*%
D16*
%TO.P,U2,3*%
%TO.N,VCC*%
X39293800Y-78041500D03*
%TO.P,U2,2*%
%TO.N,GND*%
X36753800Y-78041500D03*
D17*
%TO.P,U2,1*%
%TO.N,Net-(C1-Pad1)*%
X34213800Y-78041500D03*
%TD*%
D10*
%TO.P,SW4,1*%
%TO.N,S4*%
X72669400Y-98412300D03*
%TO.P,SW4,2*%
%TO.N,GND*%
X72669400Y-102912300D03*
%TO.P,SW4,1*%
%TO.N,S4*%
X66169400Y-98412300D03*
%TO.P,SW4,2*%
%TO.N,GND*%
X66169400Y-102912300D03*
%TD*%
%TO.P,SW3,1*%
%TO.N,S3*%
X58928000Y-98484300D03*
%TO.P,SW3,2*%
%TO.N,GND*%
X58928000Y-102984300D03*
%TO.P,SW3,1*%
%TO.N,S3*%
X52428000Y-98484300D03*
%TO.P,SW3,2*%
%TO.N,GND*%
X52428000Y-102984300D03*
%TD*%
D11*
%TO.P,R14,2*%
%TO.N,Net-(D9-Pad2)*%
X96189800Y-51168300D03*
D12*
%TO.P,R14,1*%
%TO.N,VCC*%
X96189800Y-43548300D03*
%TD*%
D11*
%TO.P,R13,2*%
%TO.N,Net-(D8-Pad2)*%
X94081600Y-29019500D03*
D12*
%TO.P,R13,1*%
%TO.N,VCC*%
X94081600Y-21399500D03*
%TD*%
D11*
%TO.P,R12,2*%
%TO.N,Net-(D7-Pad2)*%
X97155000Y-72758300D03*
D12*
%TO.P,R12,1*%
%TO.N,VCC*%
X97155000Y-65138300D03*
%TD*%
D11*
%TO.P,R11,2*%
%TO.N,relay2*%
X84455000Y-50482500D03*
D12*
%TO.P,R11,1*%
%TO.N,Net-(Q4-Pad2)*%
X84455000Y-58102500D03*
%TD*%
D11*
%TO.P,R10,2*%
%TO.N,relay1*%
X81508600Y-29679900D03*
D12*
%TO.P,R10,1*%
%TO.N,Net-(Q3-Pad2)*%
X81508600Y-37299900D03*
%TD*%
D11*
%TO.P,R9,2*%
%TO.N,relay3*%
X86918800Y-66382900D03*
D12*
%TO.P,R9,1*%
%TO.N,Net-(Q2-Pad2)*%
X86918800Y-74002900D03*
%TD*%
D11*
%TO.P,R8,2*%
%TO.N,S4*%
X62357000Y-97091500D03*
D12*
%TO.P,R8,1*%
%TO.N,VCC*%
X62357000Y-104711500D03*
%TD*%
D11*
%TO.P,R7,2*%
%TO.N,S2*%
X47345600Y-28816300D03*
D12*
%TO.P,R7,1*%
%TO.N,VCC*%
X54965600Y-28816300D03*
%TD*%
D11*
%TO.P,R6,2*%
%TO.N,Net-(D3-Pad2)*%
X91236800Y-93992700D03*
D12*
%TO.P,R6,1*%
%TO.N,VCC*%
X91236800Y-86372700D03*
%TD*%
D11*
%TO.P,R5,2*%
%TO.N,S3*%
X48869600Y-97091500D03*
D12*
%TO.P,R5,1*%
%TO.N,VCC*%
X48869600Y-104711500D03*
%TD*%
D11*
%TO.P,R3,2*%
%TO.N,relay4*%
X77597000Y-92290900D03*
D12*
%TO.P,R3,1*%
%TO.N,Net-(Q1-Pad2)*%
X77597000Y-99910900D03*
%TD*%
D11*
%TO.P,R1,2*%
%TO.N,Net-(D1-Pad2)*%
X38531800Y-64630300D03*
D12*
%TO.P,R1,1*%
%TO.N,VCC*%
X38531800Y-72250300D03*
%TD*%
D18*
%TO.P,J10,3*%
%TO.N,GND*%
X34493200Y-58229500D03*
%TO.P,J10,2*%
X34493200Y-60769500D03*
D19*
%TO.P,J10,1*%
X34493200Y-63309500D03*
%TD*%
D18*
%TO.P,J9,3*%
%TO.N,VCC*%
X34493200Y-67322700D03*
%TO.P,J9,2*%
X34493200Y-69862700D03*
D19*
%TO.P,J9,1*%
X34493200Y-72402700D03*
%TD*%
D20*
%TO.P,J8,3*%
%TO.N,Net-(J8-Pad3)*%
X130810000Y-46222900D03*
%TO.P,J8,2*%
%TO.N,Net-(J8-Pad2)*%
X130810000Y-51222900D03*
D21*
%TO.P,J8,1*%
%TO.N,Net-(J8-Pad1)*%
X130810000Y-56222900D03*
%TD*%
D20*
%TO.P,J7,3*%
%TO.N,Net-(J7-Pad3)*%
X130962400Y-23794700D03*
%TO.P,J7,2*%
%TO.N,Net-(J7-Pad2)*%
X130962400Y-28794700D03*
D21*
%TO.P,J7,1*%
%TO.N,Net-(J7-Pad1)*%
X130962400Y-33794700D03*
%TD*%
D20*
%TO.P,J6,3*%
%TO.N,Net-(J6-Pad3)*%
X131241800Y-67228700D03*
%TO.P,J6,2*%
%TO.N,Net-(J6-Pad2)*%
X131241800Y-72228700D03*
D21*
%TO.P,J6,1*%
%TO.N,Net-(J6-Pad1)*%
X131241800Y-77228700D03*
%TD*%
D20*
%TO.P,J5,3*%
%TO.N,Net-(J5-Pad3)*%
X131368800Y-86837500D03*
%TO.P,J5,2*%
%TO.N,Net-(J5-Pad2)*%
X131368800Y-91837500D03*
D21*
%TO.P,J5,1*%
%TO.N,Net-(J5-Pad1)*%
X131368800Y-96837500D03*
%TD*%
%TO.P,J2,3*%
%TO.N,N/C*%
%TA.AperFunction,ComponentPad*%
G36*
G01*
X40169800Y-96634500D02*
X38419800Y-96634500D01*
G75*
G02*
X37544800Y-95759500I0J875000D01*
G01*
X37544800Y-94009500D01*
G75*
G02*
X38419800Y-93134500I875000J0D01*
G01*
X40169800Y-93134500D01*
G75*
G02*
X41044800Y-94009500I0J-875000D01*
G01*
X41044800Y-95759500D01*
G75*
G02*
X40169800Y-96634500I-875000J0D01*
G01*
G37*
%TD.AperFunction*%
%TO.P,J2,2*%
%TO.N,GND*%
%TA.AperFunction,ComponentPad*%
G36*
G01*
X35594800Y-99384500D02*
X33594800Y-99384500D01*
G75*
G02*
X32844800Y-98634500I0J750000D01*
G01*
X32844800Y-97134500D01*
G75*
G02*
X33594800Y-96384500I750000J0D01*
G01*
X35594800Y-96384500D01*
G75*
G02*
X36344800Y-97134500I0J-750000D01*
G01*
X36344800Y-98634500D01*
G75*
G02*
X35594800Y-99384500I-750000J0D01*
G01*
G37*
%TD.AperFunction*%
D22*
%TO.P,J2,1*%
%TO.N,Net-(C1-Pad1)*%
X34594800Y-91884500D03*
%TD*%
D23*
%TO.P,D9,2*%
%TO.N,Net-(D9-Pad2)*%
X96240600Y-54749700D03*
D24*
%TO.P,D9,1*%
%TO.N,Net-(D6-Pad2)*%
X96240600Y-57289700D03*
%TD*%
D23*
%TO.P,D8,2*%
%TO.N,Net-(D8-Pad2)*%
X94107000Y-32423100D03*
D24*
%TO.P,D8,1*%
%TO.N,Net-(D5-Pad2)*%
X94107000Y-34963100D03*
%TD*%
D23*
%TO.P,D7,2*%
%TO.N,Net-(D7-Pad2)*%
X97078800Y-76593700D03*
D24*
%TO.P,D7,1*%
%TO.N,Net-(D4-Pad2)*%
X97078800Y-79133700D03*
%TD*%
D23*
%TO.P,D3,2*%
%TO.N,Net-(D3-Pad2)*%
X91186000Y-97167700D03*
D24*
%TO.P,D3,1*%
%TO.N,Net-(D2-Pad2)*%
X91186000Y-99707700D03*
%TD*%
D23*
%TO.P,D1,2*%
%TO.N,Net-(D1-Pad2)*%
X38582600Y-59753500D03*
D24*
%TO.P,D1,1*%
%TO.N,GND*%
X41122600Y-59753500D03*
%TD*%
D12*
%TO.P,C2,2*%
%TO.N,GND*%
X37312600Y-86307300D03*
D25*
%TO.P,C2,1*%
%TO.N,VCC*%
X37312600Y-83807300D03*
%TD*%
D12*
%TO.P,C1,2*%
%TO.N,GND*%
X29210000Y-86408900D03*
D25*
%TO.P,C1,1*%
%TO.N,Net-(C1-Pad1)*%
X29210000Y-83908900D03*
%TD*%
D26*
%TO.P,K4,5*%
%TO.N,VCC*%
X105022400Y-45193700D03*
%TO.P,K4,4*%
%TO.N,Net-(J8-Pad3)*%
X117222400Y-45193700D03*
%TO.P,K4,3*%
%TO.N,Net-(J8-Pad1)*%
X117222400Y-57193700D03*
%TO.P,K4,2*%
%TO.N,Net-(D6-Pad2)*%
X105022400Y-57193700D03*
D27*
%TO.P,K4,1*%
%TO.N,Net-(J8-Pad2)*%
X103022400Y-51193700D03*
%TD*%
D26*
%TO.P,K3,5*%
%TO.N,VCC*%
X104336600Y-22917900D03*
%TO.P,K3,4*%
%TO.N,Net-(J7-Pad3)*%
X116536600Y-22917900D03*
%TO.P,K3,3*%
%TO.N,Net-(J7-Pad1)*%
X116536600Y-34917900D03*
%TO.P,K3,2*%
%TO.N,Net-(D5-Pad2)*%
X104336600Y-34917900D03*
D27*
%TO.P,K3,1*%
%TO.N,Net-(J7-Pad2)*%
X102336600Y-28917900D03*
%TD*%
D26*
%TO.P,K2,5*%
%TO.N,VCC*%
X105886000Y-66580500D03*
%TO.P,K2,4*%
%TO.N,Net-(J6-Pad3)*%
X118086000Y-66580500D03*
%TO.P,K2,3*%
%TO.N,Net-(J6-Pad1)*%
X118086000Y-78580500D03*
%TO.P,K2,2*%
%TO.N,Net-(D4-Pad2)*%
X105886000Y-78580500D03*
D27*
%TO.P,K2,1*%
%TO.N,Net-(J6-Pad2)*%
X103886000Y-72580500D03*
%TD*%
D26*
%TO.P,K1,5*%
%TO.N,VCC*%
X102761800Y-87637100D03*
%TO.P,K1,4*%
%TO.N,Net-(J5-Pad3)*%
X114961800Y-87637100D03*
%TO.P,K1,3*%
%TO.N,Net-(J5-Pad1)*%
X114961800Y-99637100D03*
%TO.P,K1,2*%
%TO.N,Net-(D2-Pad2)*%
X102761800Y-99637100D03*
D27*
%TO.P,K1,1*%
%TO.N,Net-(J5-Pad2)*%
X100761800Y-93637100D03*
%TD*%
D28*
%TO.P,D6,2*%
%TO.N,Net-(D6-Pad2)*%
X90449400Y-53708300D03*
D29*
%TO.P,D6,1*%
%TO.N,VCC*%
X90449400Y-43548300D03*
%TD*%
D28*
%TO.P,D5,2*%
%TO.N,Net-(D5-Pad2)*%
X87376000Y-32931100D03*
D29*
%TO.P,D5,1*%
%TO.N,VCC*%
X87376000Y-22771100D03*
%TD*%
D28*
%TO.P,D4,2*%
%TO.N,Net-(D4-Pad2)*%
X91617800Y-75323700D03*
D29*
%TO.P,D4,1*%
%TO.N,VCC*%
X91617800Y-65163700D03*
%TD*%
D28*
%TO.P,D2,2*%
%TO.N,Net-(D2-Pad2)*%
X83261200Y-96939100D03*
D29*
%TO.P,D2,1*%
%TO.N,VCC*%
X83261200Y-86779100D03*
%TD*%
M02*
