%TF.GenerationSoftware,KiCad,Pcbnew,(5.1.12)-1*%
%TF.CreationDate,2022-02-17T13:15:52+05:30*%
%TF.ProjectId,homeAutomation,686f6d65-4175-4746-9f6d-6174696f6e2e,rev?*%
%TF.SameCoordinates,Original*%
%TF.FileFunction,Soldermask,Top*%
%TF.FilePolarity,Negative*%
%FSLAX46Y46*%
G04 Gerber Fmt 4.6, Leading zero omitted, Abs format (unit mm)*
G04 Created by KiCad (PCBNEW (5.1.12)-1) date 2022-02-17 13:15:52*
%MOMM*%
%LPD*%
G01*
G04 APERTURE LIST*
%ADD10C,2.000000*%
%ADD11O,1.600000X1.600000*%
%ADD12C,1.600000*%
%ADD13C,1.524000*%
%ADD14R,1.500000X1.500000*%
%ADD15C,1.500000*%
%ADD16O,1.905000X2.000000*%
%ADD17R,1.905000X2.000000*%
%ADD18O,1.700000X1.700000*%
%ADD19R,1.700000X1.700000*%
%ADD20C,2.600000*%
%ADD21R,2.600000X2.600000*%
%ADD22R,3.500000X3.500000*%
%ADD23C,1.800000*%
%ADD24R,1.800000X1.800000*%
%ADD25R,1.600000X1.600000*%
%ADD26O,2.500000X2.500000*%
%ADD27R,2.500000X2.500000*%
%ADD28O,2.200000X2.200000*%
%ADD29R,2.200000X2.200000*%
G04 APERTURE END LIST*
D10*
%TO.C,SW2*%
X47932200Y-25311100D03*
X47932200Y-20811100D03*
X54432200Y-25311100D03*
X54432200Y-20811100D03*
%TD*%
D11*
%TO.C,R4*%
X73558400Y-27901900D03*
D12*
X73558400Y-20281900D03*
%TD*%
D13*
%TO.C,U1*%
X73228200Y-42354500D03*
X73228200Y-44894500D03*
X73228200Y-47434500D03*
X73228200Y-49974500D03*
X73228200Y-52514500D03*
X73228200Y-55054500D03*
X73228200Y-57594500D03*
X73228200Y-60134500D03*
X73228200Y-62674500D03*
X73228200Y-65214500D03*
X73228200Y-67754500D03*
X73228200Y-70294500D03*
X73228200Y-72834500D03*
X73228200Y-75374500D03*
X73228200Y-77914500D03*
X45288200Y-77914500D03*
X45288200Y-75374500D03*
X45288200Y-72834500D03*
X45288200Y-70294500D03*
X45288200Y-67754500D03*
X45288200Y-65214500D03*
X45288200Y-62674500D03*
X45288200Y-60134500D03*
X45288200Y-57594500D03*
X45288200Y-55054500D03*
X45288200Y-52514500D03*
X45288200Y-49974500D03*
X45288200Y-47434500D03*
X45288200Y-44894500D03*
X45288200Y-42354500D03*
%TD*%
D10*
%TO.C,SW1*%
X77015200Y-26835100D03*
X77015200Y-22335100D03*
X83515200Y-26835100D03*
X83515200Y-22335100D03*
%TD*%
D14*
%TO.C,Q4*%
X89509600Y-56883300D03*
D15*
X89509600Y-61963300D03*
X89509600Y-59423300D03*
%TD*%
D14*
%TO.C,Q3*%
X87147400Y-36233100D03*
D15*
X87147400Y-41313100D03*
X87147400Y-38773100D03*
%TD*%
D14*
%TO.C,Q2*%
X90754200Y-78422500D03*
D15*
X90754200Y-83502500D03*
X90754200Y-80962500D03*
%TD*%
D14*
%TO.C,Q1*%
X83058000Y-100520500D03*
D15*
X83058000Y-105600500D03*
X83058000Y-103060500D03*
%TD*%
D16*
%TO.C,U2*%
X39293800Y-78041500D03*
X36753800Y-78041500D03*
D17*
X34213800Y-78041500D03*
%TD*%
D10*
%TO.C,SW4*%
X72669400Y-98412300D03*
X72669400Y-102912300D03*
X66169400Y-98412300D03*
X66169400Y-102912300D03*
%TD*%
%TO.C,SW3*%
X58928000Y-98484300D03*
X58928000Y-102984300D03*
X52428000Y-98484300D03*
X52428000Y-102984300D03*
%TD*%
D11*
%TO.C,R14*%
X96189800Y-51168300D03*
D12*
X96189800Y-43548300D03*
%TD*%
D11*
%TO.C,R13*%
X94081600Y-29019500D03*
D12*
X94081600Y-21399500D03*
%TD*%
D11*
%TO.C,R12*%
X97155000Y-72758300D03*
D12*
X97155000Y-65138300D03*
%TD*%
D11*
%TO.C,R11*%
X84455000Y-50482500D03*
D12*
X84455000Y-58102500D03*
%TD*%
D11*
%TO.C,R10*%
X81508600Y-29679900D03*
D12*
X81508600Y-37299900D03*
%TD*%
D11*
%TO.C,R9*%
X86918800Y-66382900D03*
D12*
X86918800Y-74002900D03*
%TD*%
D11*
%TO.C,R8*%
X62357000Y-97091500D03*
D12*
X62357000Y-104711500D03*
%TD*%
D11*
%TO.C,R7*%
X47345600Y-28816300D03*
D12*
X54965600Y-28816300D03*
%TD*%
D11*
%TO.C,R6*%
X91236800Y-93992700D03*
D12*
X91236800Y-86372700D03*
%TD*%
D11*
%TO.C,R5*%
X48869600Y-97091500D03*
D12*
X48869600Y-104711500D03*
%TD*%
D11*
%TO.C,R3*%
X77597000Y-92290900D03*
D12*
X77597000Y-99910900D03*
%TD*%
D11*
%TO.C,R1*%
X38531800Y-64630300D03*
D12*
X38531800Y-72250300D03*
%TD*%
D18*
%TO.C,J10*%
X34493200Y-58229500D03*
X34493200Y-60769500D03*
D19*
X34493200Y-63309500D03*
%TD*%
D18*
%TO.C,J9*%
X34493200Y-67322700D03*
X34493200Y-69862700D03*
D19*
X34493200Y-72402700D03*
%TD*%
D20*
%TO.C,J8*%
X130810000Y-46222900D03*
X130810000Y-51222900D03*
D21*
X130810000Y-56222900D03*
%TD*%
D20*
%TO.C,J7*%
X130962400Y-23794700D03*
X130962400Y-28794700D03*
D21*
X130962400Y-33794700D03*
%TD*%
D20*
%TO.C,J6*%
X131241800Y-67228700D03*
X131241800Y-72228700D03*
D21*
X131241800Y-77228700D03*
%TD*%
D20*
%TO.C,J5*%
X131368800Y-86837500D03*
X131368800Y-91837500D03*
D21*
X131368800Y-96837500D03*
%TD*%
%TO.C,J2*%
G36*
G01*
X40169800Y-96634500D02*
X38419800Y-96634500D01*
G75*
G02*
X37544800Y-95759500I0J875000D01*
G01*
X37544800Y-94009500D01*
G75*
G02*
X38419800Y-93134500I875000J0D01*
G01*
X40169800Y-93134500D01*
G75*
G02*
X41044800Y-94009500I0J-875000D01*
G01*
X41044800Y-95759500D01*
G75*
G02*
X40169800Y-96634500I-875000J0D01*
G01*
G37*
G36*
G01*
X35594800Y-99384500D02*
X33594800Y-99384500D01*
G75*
G02*
X32844800Y-98634500I0J750000D01*
G01*
X32844800Y-97134500D01*
G75*
G02*
X33594800Y-96384500I750000J0D01*
G01*
X35594800Y-96384500D01*
G75*
G02*
X36344800Y-97134500I0J-750000D01*
G01*
X36344800Y-98634500D01*
G75*
G02*
X35594800Y-99384500I-750000J0D01*
G01*
G37*
D22*
X34594800Y-91884500D03*
%TD*%
D23*
%TO.C,D9*%
X96240600Y-54749700D03*
D24*
X96240600Y-57289700D03*
%TD*%
D23*
%TO.C,D8*%
X94107000Y-32423100D03*
D24*
X94107000Y-34963100D03*
%TD*%
D23*
%TO.C,D7*%
X97078800Y-76593700D03*
D24*
X97078800Y-79133700D03*
%TD*%
D23*
%TO.C,D3*%
X91186000Y-97167700D03*
D24*
X91186000Y-99707700D03*
%TD*%
D23*
%TO.C,D1*%
X38582600Y-59753500D03*
D24*
X41122600Y-59753500D03*
%TD*%
D12*
%TO.C,C2*%
X37312600Y-86307300D03*
D25*
X37312600Y-83807300D03*
%TD*%
D12*
%TO.C,C1*%
X29210000Y-86408900D03*
D25*
X29210000Y-83908900D03*
%TD*%
D26*
%TO.C,K4*%
X105022400Y-45193700D03*
X117222400Y-45193700D03*
X117222400Y-57193700D03*
X105022400Y-57193700D03*
D27*
X103022400Y-51193700D03*
%TD*%
D26*
%TO.C,K3*%
X104336600Y-22917900D03*
X116536600Y-22917900D03*
X116536600Y-34917900D03*
X104336600Y-34917900D03*
D27*
X102336600Y-28917900D03*
%TD*%
D26*
%TO.C,K2*%
X105886000Y-66580500D03*
X118086000Y-66580500D03*
X118086000Y-78580500D03*
X105886000Y-78580500D03*
D27*
X103886000Y-72580500D03*
%TD*%
D26*
%TO.C,K1*%
X102761800Y-87637100D03*
X114961800Y-87637100D03*
X114961800Y-99637100D03*
X102761800Y-99637100D03*
D27*
X100761800Y-93637100D03*
%TD*%
D28*
%TO.C,D6*%
X90449400Y-53708300D03*
D29*
X90449400Y-43548300D03*
%TD*%
D28*
%TO.C,D5*%
X87376000Y-32931100D03*
D29*
X87376000Y-22771100D03*
%TD*%
D28*
%TO.C,D4*%
X91617800Y-75323700D03*
D29*
X91617800Y-65163700D03*
%TD*%
D28*
%TO.C,D2*%
X83261200Y-96939100D03*
D29*
X83261200Y-86779100D03*
%TD*%
M02*
