%TF.GenerationSoftware,KiCad,Pcbnew,(5.1.12)-1*%
%TF.CreationDate,2022-04-15T12:04:31+05:30*%
%TF.ProjectId,smart_car,736d6172-745f-4636-9172-2e6b69636164,rev?*%
%TF.SameCoordinates,Original*%
%TF.FileFunction,Soldermask,Top*%
%TF.FilePolarity,Negative*%
%FSLAX46Y46*%
G04 Gerber Fmt 4.6, Leading zero omitted, Abs format (unit mm)*
G04 Created by KiCad (PCBNEW (5.1.12)-1) date 2022-04-15 12:04:31*
%MOMM*%
%LPD*%
G01*
G04 APERTURE LIST*
%ADD10R,1.700000X1.700000*%
%ADD11C,2.600000*%
%ADD12R,2.600000X2.600000*%
%ADD13C,1.600000*%
%ADD14R,1.600000X1.600000*%
%ADD15C,1.524000*%
%ADD16O,1.600000X1.600000*%
%ADD17R,1.500000X1.500000*%
%ADD18C,1.500000*%
%ADD19O,2.500000X2.500000*%
%ADD20R,2.500000X2.500000*%
%ADD21O,1.700000X1.700000*%
%ADD22C,1.800000*%
%ADD23R,1.800000X1.800000*%
%ADD24O,2.200000X2.200000*%
%ADD25R,2.200000X2.200000*%
%ADD26R,2.000000X2.000000*%
%ADD27C,2.000000*%
%ADD28O,1.905000X2.000000*%
%ADD29R,1.905000X2.000000*%
%ADD30R,3.500000X3.500000*%
G04 APERTURE END LIST*
D10*
%TO.C,J9*%
X66040000Y-123190000D03*
%TD*%
%TO.C,J8*%
X66040000Y-119380000D03*
%TD*%
%TO.C,J7*%
X102870000Y-144145000D03*
%TD*%
%TO.C,J6*%
X102870000Y-140335000D03*
%TD*%
%TO.C,J5*%
X66040000Y-112268000D03*
%TD*%
D11*
%TO.C,J14*%
X150431500Y-149415500D03*
D12*
X150431500Y-154495500D03*
%TD*%
D11*
%TO.C,J13*%
X150431500Y-134493000D03*
D12*
X150431500Y-139573000D03*
%TD*%
D11*
%TO.C,J12*%
X150558500Y-99250500D03*
D12*
X150558500Y-104330500D03*
%TD*%
D11*
%TO.C,J11*%
X150749000Y-116713000D03*
D12*
X150749000Y-121793000D03*
%TD*%
D11*
%TO.C,J10*%
X43688000Y-95504000D03*
D12*
X43688000Y-90424000D03*
%TD*%
D13*
%TO.C,C2*%
X62585600Y-139139300D03*
D14*
X62585600Y-136639300D03*
%TD*%
D15*
%TO.C,U2*%
X98298000Y-112141000D03*
X98298000Y-114681000D03*
X98298000Y-117221000D03*
X98298000Y-119761000D03*
X98298000Y-122301000D03*
X98298000Y-124841000D03*
X98298000Y-127381000D03*
X98298000Y-129921000D03*
X98298000Y-132461000D03*
X98298000Y-135001000D03*
X98298000Y-137541000D03*
X98298000Y-140081000D03*
X98298000Y-142621000D03*
X98298000Y-145161000D03*
X98298000Y-147701000D03*
X70358000Y-147701000D03*
X70358000Y-145161000D03*
X70358000Y-142621000D03*
X70358000Y-140081000D03*
X70358000Y-137541000D03*
X70358000Y-135001000D03*
X70358000Y-132461000D03*
X70358000Y-129921000D03*
X70358000Y-127381000D03*
X70358000Y-124841000D03*
X70358000Y-122301000D03*
X70358000Y-119761000D03*
X70358000Y-117221000D03*
X70358000Y-114681000D03*
X70358000Y-112141000D03*
%TD*%
D16*
%TO.C,R7*%
X75844400Y-91643200D03*
D13*
X83464400Y-91643200D03*
%TD*%
D16*
%TO.C,R4*%
X94691200Y-99466400D03*
D13*
X94691200Y-91846400D03*
%TD*%
D16*
%TO.C,R2*%
X101092000Y-90424000D03*
D13*
X101092000Y-98044000D03*
%TD*%
D16*
%TO.C,R1*%
X87947500Y-114681000D03*
D13*
X80327500Y-114681000D03*
%TD*%
D17*
%TO.C,Q1*%
X82651600Y-94843600D03*
D18*
X82651600Y-99923600D03*
X82651600Y-97383600D03*
%TD*%
D19*
%TO.C,K1*%
X68358000Y-98354400D03*
X56158000Y-98354400D03*
X56158000Y-86354400D03*
X68358000Y-86354400D03*
D20*
X70358000Y-92354400D03*
%TD*%
D21*
%TO.C,J2*%
X102108000Y-122301000D03*
X102108000Y-119761000D03*
X102108000Y-117221000D03*
D10*
X102108000Y-114681000D03*
%TD*%
D22*
%TO.C,D6*%
X77114400Y-96418400D03*
D23*
X77114400Y-98958400D03*
%TD*%
D24*
%TO.C,D3*%
X87249000Y-89408000D03*
D25*
X87249000Y-99568000D03*
%TD*%
D22*
%TO.C,D1*%
X101092000Y-85852000D03*
D23*
X101092000Y-83312000D03*
%TD*%
D26*
%TO.C,BZ1*%
X80264000Y-126873000D03*
D27*
X90264000Y-126873000D03*
%TD*%
D17*
%TO.C,Q2*%
X113411000Y-110617000D03*
D18*
X113411000Y-115697000D03*
X113411000Y-113157000D03*
%TD*%
D17*
%TO.C,Q3*%
X112839500Y-92837000D03*
D18*
X112839500Y-97917000D03*
X112839500Y-95377000D03*
%TD*%
D17*
%TO.C,Q4*%
X112966500Y-128016000D03*
D18*
X112966500Y-133096000D03*
X112966500Y-130556000D03*
%TD*%
D17*
%TO.C,Q5*%
X113411000Y-147510500D03*
D18*
X113411000Y-152590500D03*
X113411000Y-150050500D03*
%TD*%
D28*
%TO.C,U1*%
X59690000Y-130873500D03*
X57150000Y-130873500D03*
D29*
X54610000Y-130873500D03*
%TD*%
D16*
%TO.C,R8*%
X117983000Y-116903500D03*
D13*
X117983000Y-109283500D03*
%TD*%
D16*
%TO.C,R9*%
X117538500Y-99250500D03*
D13*
X117538500Y-91630500D03*
%TD*%
D16*
%TO.C,R12*%
X117602000Y-134493000D03*
D13*
X117602000Y-126873000D03*
%TD*%
D16*
%TO.C,R5*%
X105867200Y-120751600D03*
D13*
X105867200Y-113131600D03*
%TD*%
D16*
%TO.C,R6*%
X105206800Y-101346000D03*
D13*
X105206800Y-93726000D03*
%TD*%
D16*
%TO.C,R10*%
X105410000Y-128460500D03*
D13*
X105410000Y-136080500D03*
%TD*%
D16*
%TO.C,R13*%
X117983000Y-152590500D03*
D13*
X117983000Y-144970500D03*
%TD*%
D16*
%TO.C,R11*%
X105600500Y-157607000D03*
D13*
X105600500Y-149987000D03*
%TD*%
D16*
%TO.C,R3*%
X56388000Y-116840000D03*
D13*
X56388000Y-124460000D03*
%TD*%
D21*
%TO.C,J4*%
X51816000Y-106680000D03*
X51816000Y-109220000D03*
D10*
X51816000Y-111760000D03*
%TD*%
D21*
%TO.C,J3*%
X51816000Y-117856000D03*
X51816000Y-120396000D03*
D10*
X51816000Y-122936000D03*
%TD*%
%TO.C,J1*%
G36*
G01*
X65442800Y-149466500D02*
X63692800Y-149466500D01*
G75*
G02*
X62817800Y-148591500I0J875000D01*
G01*
X62817800Y-146841500D01*
G75*
G02*
X63692800Y-145966500I875000J0D01*
G01*
X65442800Y-145966500D01*
G75*
G02*
X66317800Y-146841500I0J-875000D01*
G01*
X66317800Y-148591500D01*
G75*
G02*
X65442800Y-149466500I-875000J0D01*
G01*
G37*
G36*
G01*
X60867800Y-152216500D02*
X58867800Y-152216500D01*
G75*
G02*
X58117800Y-151466500I0J750000D01*
G01*
X58117800Y-149966500D01*
G75*
G02*
X58867800Y-149216500I750000J0D01*
G01*
X60867800Y-149216500D01*
G75*
G02*
X61617800Y-149966500I0J-750000D01*
G01*
X61617800Y-151466500D01*
G75*
G02*
X60867800Y-152216500I-750000J0D01*
G01*
G37*
D30*
X59867800Y-144716500D03*
%TD*%
D22*
%TO.C,D7*%
X116522500Y-120459500D03*
D23*
X116522500Y-122999500D03*
%TD*%
D22*
%TO.C,D8*%
X116078000Y-102616000D03*
D23*
X116078000Y-105156000D03*
%TD*%
D22*
%TO.C,D11*%
X116268500Y-137858500D03*
D23*
X116268500Y-140398500D03*
%TD*%
D22*
%TO.C,D12*%
X116332000Y-155892500D03*
D23*
X116332000Y-158432500D03*
%TD*%
D22*
%TO.C,D2*%
X56896000Y-110236000D03*
D23*
X59436000Y-110236000D03*
%TD*%
D13*
%TO.C,C1*%
X54483000Y-139240900D03*
D14*
X54483000Y-136740900D03*
%TD*%
D19*
%TO.C,K2*%
X124936000Y-110649500D03*
X137136000Y-110649500D03*
X137136000Y-122649500D03*
X124936000Y-122649500D03*
D20*
X122936000Y-116649500D03*
%TD*%
D19*
%TO.C,K3*%
X124809000Y-93250500D03*
X137009000Y-93250500D03*
X137009000Y-105250500D03*
X124809000Y-105250500D03*
D20*
X122809000Y-99250500D03*
%TD*%
D19*
%TO.C,K4*%
X124936000Y-128429500D03*
X137136000Y-128429500D03*
X137136000Y-140429500D03*
X124936000Y-140429500D03*
D20*
X122936000Y-134429500D03*
%TD*%
D19*
%TO.C,K5*%
X124999500Y-145828500D03*
X137199500Y-145828500D03*
X137199500Y-157828500D03*
X124999500Y-157828500D03*
D20*
X122999500Y-151828500D03*
%TD*%
D24*
%TO.C,D4*%
X109410500Y-119824500D03*
D25*
X109410500Y-109664500D03*
%TD*%
D24*
%TO.C,D5*%
X108648500Y-101790500D03*
D25*
X108648500Y-91630500D03*
%TD*%
D24*
%TO.C,D9*%
X109093000Y-137033000D03*
D25*
X109093000Y-126873000D03*
%TD*%
D24*
%TO.C,D10*%
X109410500Y-155130500D03*
D25*
X109410500Y-144970500D03*
%TD*%
M02*
