%TF.GenerationSoftware,KiCad,Pcbnew,(5.1.12)-1*%
%TF.CreationDate,2022-04-15T12:04:31+05:30*%
%TF.ProjectId,smart_car,736d6172-745f-4636-9172-2e6b69636164,rev?*%
%TF.SameCoordinates,Original*%
%TF.FileFunction,Copper,L2,Bot*%
%TF.FilePolarity,Positive*%
%FSLAX46Y46*%
G04 Gerber Fmt 4.6, Leading zero omitted, Abs format (unit mm)*
G04 Created by KiCad (PCBNEW (5.1.12)-1) date 2022-04-15 12:04:31*
%MOMM*%
%LPD*%
G01*
G04 APERTURE LIST*
%TA.AperFunction,ComponentPad*%
%ADD10R,1.700000X1.700000*%
%TD*%
%TA.AperFunction,ComponentPad*%
%ADD11C,2.600000*%
%TD*%
%TA.AperFunction,ComponentPad*%
%ADD12R,2.600000X2.600000*%
%TD*%
%TA.AperFunction,ComponentPad*%
%ADD13C,1.600000*%
%TD*%
%TA.AperFunction,ComponentPad*%
%ADD14R,1.600000X1.600000*%
%TD*%
%TA.AperFunction,ComponentPad*%
%ADD15C,1.524000*%
%TD*%
%TA.AperFunction,ComponentPad*%
%ADD16O,1.600000X1.600000*%
%TD*%
%TA.AperFunction,ComponentPad*%
%ADD17R,1.500000X1.500000*%
%TD*%
%TA.AperFunction,ComponentPad*%
%ADD18C,1.500000*%
%TD*%
%TA.AperFunction,ComponentPad*%
%ADD19O,2.500000X2.500000*%
%TD*%
%TA.AperFunction,ComponentPad*%
%ADD20R,2.500000X2.500000*%
%TD*%
%TA.AperFunction,ComponentPad*%
%ADD21O,1.700000X1.700000*%
%TD*%
%TA.AperFunction,ComponentPad*%
%ADD22C,1.800000*%
%TD*%
%TA.AperFunction,ComponentPad*%
%ADD23R,1.800000X1.800000*%
%TD*%
%TA.AperFunction,ComponentPad*%
%ADD24O,2.200000X2.200000*%
%TD*%
%TA.AperFunction,ComponentPad*%
%ADD25R,2.200000X2.200000*%
%TD*%
%TA.AperFunction,ComponentPad*%
%ADD26R,2.000000X2.000000*%
%TD*%
%TA.AperFunction,ComponentPad*%
%ADD27C,2.000000*%
%TD*%
%TA.AperFunction,ComponentPad*%
%ADD28O,1.905000X2.000000*%
%TD*%
%TA.AperFunction,ComponentPad*%
%ADD29R,1.905000X2.000000*%
%TD*%
%TA.AperFunction,ComponentPad*%
%ADD30R,3.500000X3.500000*%
%TD*%
%TA.AperFunction,Conductor*%
%ADD31C,1.500000*%
%TD*%
G04 APERTURE END LIST*
D10*
%TO.P,J9,1*%
%TO.N,expin4*%
X66040000Y-123190000D03*
%TD*%
%TO.P,J8,1*%
%TO.N,expin3*%
X66040000Y-119380000D03*
%TD*%
%TO.P,J7,1*%
%TO.N,espin2*%
X102870000Y-144145000D03*
%TD*%
%TO.P,J6,1*%
%TO.N,espin1*%
X102870000Y-140335000D03*
%TD*%
%TO.P,J5,1*%
%TO.N,expin*%
X66040000Y-112268000D03*
%TD*%
D11*
%TO.P,J14,2*%
%TO.N,Net-(J14-Pad2)*%
X150431500Y-149415500D03*
D12*
%TO.P,J14,1*%
%TO.N,Net-(J14-Pad1)*%
X150431500Y-154495500D03*
%TD*%
D11*
%TO.P,J13,2*%
%TO.N,Net-(J13-Pad2)*%
X150431500Y-134493000D03*
D12*
%TO.P,J13,1*%
%TO.N,Net-(J13-Pad1)*%
X150431500Y-139573000D03*
%TD*%
D11*
%TO.P,J12,2*%
%TO.N,Net-(J12-Pad2)*%
X150558500Y-99250500D03*
D12*
%TO.P,J12,1*%
%TO.N,Net-(J12-Pad1)*%
X150558500Y-104330500D03*
%TD*%
D11*
%TO.P,J11,2*%
%TO.N,Net-(J11-Pad2)*%
X150749000Y-116713000D03*
D12*
%TO.P,J11,1*%
%TO.N,Net-(J11-Pad1)*%
X150749000Y-121793000D03*
%TD*%
D11*
%TO.P,J10,2*%
%TO.N,Net-(J10-Pad2)*%
X43688000Y-95504000D03*
D12*
%TO.P,J10,1*%
%TO.N,Net-(J10-Pad1)*%
X43688000Y-90424000D03*
%TD*%
D13*
%TO.P,C2,2*%
%TO.N,GND*%
X62585600Y-139139300D03*
D14*
%TO.P,C2,1*%
%TO.N,VCC*%
X62585600Y-136639300D03*
%TD*%
D15*
%TO.P,U2,30*%
%TO.N,headlamp*%
X98298000Y-112141000D03*
%TO.P,U2,29*%
%TO.N,buzz*%
X98298000Y-114681000D03*
%TO.P,U2,28*%
%TO.N,echo*%
X98298000Y-117221000D03*
%TO.P,U2,27*%
%TO.N,trigger*%
X98298000Y-119761000D03*
%TO.P,U2,26*%
%TO.N,relay5*%
X98298000Y-122301000D03*
%TO.P,U2,25*%
%TO.N,N/C*%
X98298000Y-124841000D03*
%TO.P,U2,24*%
%TO.N,GND*%
X98298000Y-127381000D03*
%TO.P,U2,23*%
%TO.N,relay1*%
X98298000Y-129921000D03*
%TO.P,U2,22*%
%TO.N,relay2*%
X98298000Y-132461000D03*
%TO.P,U2,21*%
%TO.N,relay3*%
X98298000Y-135001000D03*
%TO.P,U2,20*%
%TO.N,relay4*%
X98298000Y-137541000D03*
%TO.P,U2,19*%
%TO.N,espin1*%
X98298000Y-140081000D03*
%TO.P,U2,18*%
%TO.N,espin2*%
X98298000Y-142621000D03*
%TO.P,U2,17*%
%TO.N,GND*%
X98298000Y-145161000D03*
%TO.P,U2,16*%
%TO.N,N/C*%
X98298000Y-147701000D03*
%TO.P,U2,15*%
%TO.N,VCC*%
X70358000Y-147701000D03*
%TO.P,U2,14*%
%TO.N,GND*%
X70358000Y-145161000D03*
%TO.P,U2,13*%
%TO.N,N/C*%
X70358000Y-142621000D03*
%TO.P,U2,12*%
X70358000Y-140081000D03*
%TO.P,U2,11*%
X70358000Y-137541000D03*
%TO.P,U2,10*%
%TO.N,GND*%
X70358000Y-135001000D03*
%TO.P,U2,9*%
%TO.N,N/C*%
X70358000Y-132461000D03*
%TO.P,U2,8*%
X70358000Y-129921000D03*
%TO.P,U2,7*%
X70358000Y-127381000D03*
%TO.P,U2,6*%
X70358000Y-124841000D03*
%TO.P,U2,5*%
%TO.N,expin4*%
X70358000Y-122301000D03*
%TO.P,U2,4*%
%TO.N,expin3*%
X70358000Y-119761000D03*
%TO.P,U2,3*%
%TO.N,N/C*%
X70358000Y-117221000D03*
%TO.P,U2,2*%
%TO.N,GND*%
X70358000Y-114681000D03*
%TO.P,U2,1*%
%TO.N,expin*%
X70358000Y-112141000D03*
%TD*%
D16*
%TO.P,R7,2*%
%TO.N,Net-(D6-Pad2)*%
X75844400Y-91643200D03*
D13*
%TO.P,R7,1*%
%TO.N,VCC*%
X83464400Y-91643200D03*
%TD*%
D16*
%TO.P,R4,2*%
%TO.N,relay5*%
X94691200Y-99466400D03*
D13*
%TO.P,R4,1*%
%TO.N,Net-(Q1-Pad2)*%
X94691200Y-91846400D03*
%TD*%
D16*
%TO.P,R2,2*%
%TO.N,Net-(D1-Pad2)*%
X101092000Y-90424000D03*
D13*
%TO.P,R2,1*%
%TO.N,headlamp*%
X101092000Y-98044000D03*
%TD*%
D16*
%TO.P,R1,2*%
%TO.N,buzz*%
X87947500Y-114681000D03*
D13*
%TO.P,R1,1*%
%TO.N,Net-(BZ1-Pad1)*%
X80327500Y-114681000D03*
%TD*%
D17*
%TO.P,Q1,1*%
%TO.N,Net-(D3-Pad2)*%
X82651600Y-94843600D03*
D18*
%TO.P,Q1,3*%
%TO.N,GND*%
X82651600Y-99923600D03*
%TO.P,Q1,2*%
%TO.N,Net-(Q1-Pad2)*%
X82651600Y-97383600D03*
%TD*%
D19*
%TO.P,K1,5*%
%TO.N,VCC*%
X68358000Y-98354400D03*
%TO.P,K1,4*%
%TO.N,N/C*%
X56158000Y-98354400D03*
%TO.P,K1,3*%
%TO.N,Net-(J10-Pad1)*%
X56158000Y-86354400D03*
%TO.P,K1,2*%
%TO.N,Net-(D3-Pad2)*%
X68358000Y-86354400D03*
D20*
%TO.P,K1,1*%
%TO.N,Net-(J10-Pad2)*%
X70358000Y-92354400D03*
%TD*%
D21*
%TO.P,J2,4*%
%TO.N,GND*%
X102108000Y-122301000D03*
%TO.P,J2,3*%
%TO.N,trigger*%
X102108000Y-119761000D03*
%TO.P,J2,2*%
%TO.N,echo*%
X102108000Y-117221000D03*
D10*
%TO.P,J2,1*%
%TO.N,VCC*%
X102108000Y-114681000D03*
%TD*%
D22*
%TO.P,D6,2*%
%TO.N,Net-(D6-Pad2)*%
X77114400Y-96418400D03*
D23*
%TO.P,D6,1*%
%TO.N,Net-(D3-Pad2)*%
X77114400Y-98958400D03*
%TD*%
D24*
%TO.P,D3,2*%
%TO.N,Net-(D3-Pad2)*%
X87249000Y-89408000D03*
D25*
%TO.P,D3,1*%
%TO.N,VCC*%
X87249000Y-99568000D03*
%TD*%
D22*
%TO.P,D1,2*%
%TO.N,Net-(D1-Pad2)*%
X101092000Y-85852000D03*
D23*
%TO.P,D1,1*%
%TO.N,GND*%
X101092000Y-83312000D03*
%TD*%
D26*
%TO.P,BZ1,1*%
%TO.N,Net-(BZ1-Pad1)*%
X80264000Y-126873000D03*
D27*
%TO.P,BZ1,2*%
%TO.N,GND*%
X90264000Y-126873000D03*
%TD*%
D17*
%TO.P,Q2,1*%
%TO.N,Net-(D4-Pad2)*%
X113411000Y-110617000D03*
D18*
%TO.P,Q2,3*%
%TO.N,GND*%
X113411000Y-115697000D03*
%TO.P,Q2,2*%
%TO.N,Net-(Q2-Pad2)*%
X113411000Y-113157000D03*
%TD*%
D17*
%TO.P,Q3,1*%
%TO.N,Net-(D5-Pad2)*%
X112839500Y-92837000D03*
D18*
%TO.P,Q3,3*%
%TO.N,GND*%
X112839500Y-97917000D03*
%TO.P,Q3,2*%
%TO.N,Net-(Q3-Pad2)*%
X112839500Y-95377000D03*
%TD*%
D17*
%TO.P,Q4,1*%
%TO.N,Net-(D11-Pad1)*%
X112966500Y-128016000D03*
D18*
%TO.P,Q4,3*%
%TO.N,GND*%
X112966500Y-133096000D03*
%TO.P,Q4,2*%
%TO.N,Net-(Q4-Pad2)*%
X112966500Y-130556000D03*
%TD*%
D17*
%TO.P,Q5,1*%
%TO.N,Net-(D10-Pad2)*%
X113411000Y-147510500D03*
D18*
%TO.P,Q5,3*%
%TO.N,GND*%
X113411000Y-152590500D03*
%TO.P,Q5,2*%
%TO.N,Net-(Q5-Pad2)*%
X113411000Y-150050500D03*
%TD*%
D28*
%TO.P,U1,3*%
%TO.N,VCC*%
X59690000Y-130873500D03*
%TO.P,U1,2*%
%TO.N,GND*%
X57150000Y-130873500D03*
D29*
%TO.P,U1,1*%
%TO.N,Net-(C1-Pad1)*%
X54610000Y-130873500D03*
%TD*%
D16*
%TO.P,R8,2*%
%TO.N,Net-(D7-Pad2)*%
X117983000Y-116903500D03*
D13*
%TO.P,R8,1*%
%TO.N,VCC*%
X117983000Y-109283500D03*
%TD*%
D16*
%TO.P,R9,2*%
%TO.N,Net-(D8-Pad2)*%
X117538500Y-99250500D03*
D13*
%TO.P,R9,1*%
%TO.N,VCC*%
X117538500Y-91630500D03*
%TD*%
D16*
%TO.P,R12,2*%
%TO.N,Net-(D11-Pad2)*%
X117602000Y-134493000D03*
D13*
%TO.P,R12,1*%
%TO.N,VCC*%
X117602000Y-126873000D03*
%TD*%
D16*
%TO.P,R5,2*%
%TO.N,relay2*%
X105867200Y-120751600D03*
D13*
%TO.P,R5,1*%
%TO.N,Net-(Q2-Pad2)*%
X105867200Y-113131600D03*
%TD*%
D16*
%TO.P,R6,2*%
%TO.N,relay1*%
X105206800Y-101346000D03*
D13*
%TO.P,R6,1*%
%TO.N,Net-(Q3-Pad2)*%
X105206800Y-93726000D03*
%TD*%
D16*
%TO.P,R10,2*%
%TO.N,relay3*%
X105410000Y-128460500D03*
D13*
%TO.P,R10,1*%
%TO.N,Net-(Q4-Pad2)*%
X105410000Y-136080500D03*
%TD*%
D16*
%TO.P,R13,2*%
%TO.N,Net-(D12-Pad2)*%
X117983000Y-152590500D03*
D13*
%TO.P,R13,1*%
%TO.N,VCC*%
X117983000Y-144970500D03*
%TD*%
D16*
%TO.P,R11,2*%
%TO.N,relay4*%
X105600500Y-157607000D03*
D13*
%TO.P,R11,1*%
%TO.N,Net-(Q5-Pad2)*%
X105600500Y-149987000D03*
%TD*%
D16*
%TO.P,R3,2*%
%TO.N,Net-(D2-Pad2)*%
X56388000Y-116840000D03*
D13*
%TO.P,R3,1*%
%TO.N,VCC*%
X56388000Y-124460000D03*
%TD*%
D21*
%TO.P,J4,3*%
%TO.N,GND*%
X51816000Y-106680000D03*
%TO.P,J4,2*%
X51816000Y-109220000D03*
D10*
%TO.P,J4,1*%
X51816000Y-111760000D03*
%TD*%
D21*
%TO.P,J3,3*%
%TO.N,VCC*%
X51816000Y-117856000D03*
%TO.P,J3,2*%
X51816000Y-120396000D03*
D10*
%TO.P,J3,1*%
X51816000Y-122936000D03*
%TD*%
%TO.P,J1,3*%
%TO.N,N/C*%
%TA.AperFunction,ComponentPad*%
G36*
G01*
X65442800Y-149466500D02*
X63692800Y-149466500D01*
G75*
G02*
X62817800Y-148591500I0J875000D01*
G01*
X62817800Y-146841500D01*
G75*
G02*
X63692800Y-145966500I875000J0D01*
G01*
X65442800Y-145966500D01*
G75*
G02*
X66317800Y-146841500I0J-875000D01*
G01*
X66317800Y-148591500D01*
G75*
G02*
X65442800Y-149466500I-875000J0D01*
G01*
G37*
%TD.AperFunction*%
%TO.P,J1,2*%
%TO.N,GND*%
%TA.AperFunction,ComponentPad*%
G36*
G01*
X60867800Y-152216500D02*
X58867800Y-152216500D01*
G75*
G02*
X58117800Y-151466500I0J750000D01*
G01*
X58117800Y-149966500D01*
G75*
G02*
X58867800Y-149216500I750000J0D01*
G01*
X60867800Y-149216500D01*
G75*
G02*
X61617800Y-149966500I0J-750000D01*
G01*
X61617800Y-151466500D01*
G75*
G02*
X60867800Y-152216500I-750000J0D01*
G01*
G37*
%TD.AperFunction*%
D30*
%TO.P,J1,1*%
%TO.N,Net-(C1-Pad1)*%
X59867800Y-144716500D03*
%TD*%
D22*
%TO.P,D7,2*%
%TO.N,Net-(D7-Pad2)*%
X116522500Y-120459500D03*
D23*
%TO.P,D7,1*%
%TO.N,Net-(D4-Pad2)*%
X116522500Y-122999500D03*
%TD*%
D22*
%TO.P,D8,2*%
%TO.N,Net-(D8-Pad2)*%
X116078000Y-102616000D03*
D23*
%TO.P,D8,1*%
%TO.N,Net-(D5-Pad2)*%
X116078000Y-105156000D03*
%TD*%
D22*
%TO.P,D11,2*%
%TO.N,Net-(D11-Pad2)*%
X116268500Y-137858500D03*
D23*
%TO.P,D11,1*%
%TO.N,Net-(D11-Pad1)*%
X116268500Y-140398500D03*
%TD*%
D22*
%TO.P,D12,2*%
%TO.N,Net-(D12-Pad2)*%
X116332000Y-155892500D03*
D23*
%TO.P,D12,1*%
%TO.N,Net-(D10-Pad2)*%
X116332000Y-158432500D03*
%TD*%
D22*
%TO.P,D2,2*%
%TO.N,Net-(D2-Pad2)*%
X56896000Y-110236000D03*
D23*
%TO.P,D2,1*%
%TO.N,GND*%
X59436000Y-110236000D03*
%TD*%
D13*
%TO.P,C1,2*%
%TO.N,GND*%
X54483000Y-139240900D03*
D14*
%TO.P,C1,1*%
%TO.N,Net-(C1-Pad1)*%
X54483000Y-136740900D03*
%TD*%
D19*
%TO.P,K2,5*%
%TO.N,VCC*%
X124936000Y-110649500D03*
%TO.P,K2,4*%
%TO.N,N/C*%
X137136000Y-110649500D03*
%TO.P,K2,3*%
%TO.N,Net-(J11-Pad1)*%
X137136000Y-122649500D03*
%TO.P,K2,2*%
%TO.N,Net-(D4-Pad2)*%
X124936000Y-122649500D03*
D20*
%TO.P,K2,1*%
%TO.N,Net-(J11-Pad2)*%
X122936000Y-116649500D03*
%TD*%
D19*
%TO.P,K3,5*%
%TO.N,VCC*%
X124809000Y-93250500D03*
%TO.P,K3,4*%
%TO.N,N/C*%
X137009000Y-93250500D03*
%TO.P,K3,3*%
%TO.N,Net-(J12-Pad1)*%
X137009000Y-105250500D03*
%TO.P,K3,2*%
%TO.N,Net-(D5-Pad2)*%
X124809000Y-105250500D03*
D20*
%TO.P,K3,1*%
%TO.N,Net-(J12-Pad2)*%
X122809000Y-99250500D03*
%TD*%
D19*
%TO.P,K4,5*%
%TO.N,VCC*%
X124936000Y-128429500D03*
%TO.P,K4,4*%
%TO.N,N/C*%
X137136000Y-128429500D03*
%TO.P,K4,3*%
%TO.N,Net-(J13-Pad1)*%
X137136000Y-140429500D03*
%TO.P,K4,2*%
%TO.N,Net-(D11-Pad1)*%
X124936000Y-140429500D03*
D20*
%TO.P,K4,1*%
%TO.N,Net-(J13-Pad2)*%
X122936000Y-134429500D03*
%TD*%
D19*
%TO.P,K5,5*%
%TO.N,VCC*%
X124999500Y-145828500D03*
%TO.P,K5,4*%
%TO.N,N/C*%
X137199500Y-145828500D03*
%TO.P,K5,3*%
%TO.N,Net-(J14-Pad1)*%
X137199500Y-157828500D03*
%TO.P,K5,2*%
%TO.N,Net-(D10-Pad2)*%
X124999500Y-157828500D03*
D20*
%TO.P,K5,1*%
%TO.N,Net-(J14-Pad2)*%
X122999500Y-151828500D03*
%TD*%
D24*
%TO.P,D4,2*%
%TO.N,Net-(D4-Pad2)*%
X109410500Y-119824500D03*
D25*
%TO.P,D4,1*%
%TO.N,VCC*%
X109410500Y-109664500D03*
%TD*%
D24*
%TO.P,D5,2*%
%TO.N,Net-(D5-Pad2)*%
X108648500Y-101790500D03*
D25*
%TO.P,D5,1*%
%TO.N,VCC*%
X108648500Y-91630500D03*
%TD*%
D24*
%TO.P,D9,2*%
%TO.N,Net-(D11-Pad1)*%
X109093000Y-137033000D03*
D25*
%TO.P,D9,1*%
%TO.N,VCC*%
X109093000Y-126873000D03*
%TD*%
D24*
%TO.P,D10,2*%
%TO.N,Net-(D10-Pad2)*%
X109410500Y-155130500D03*
D25*
%TO.P,D10,1*%
%TO.N,VCC*%
X109410500Y-144970500D03*
%TD*%
D31*
%TO.N,GND*%
X97790000Y-126873000D02*
X98298000Y-127381000D01*
X90264000Y-126873000D02*
X97790000Y-126873000D01*
%TD*%
M02*
