%TF.GenerationSoftware,KiCad,Pcbnew,(5.1.12)-1*%
%TF.CreationDate,2022-04-15T12:04:31+05:30*%
%TF.ProjectId,smart_car,736d6172-745f-4636-9172-2e6b69636164,rev?*%
%TF.SameCoordinates,Original*%
%TF.FileFunction,AssemblyDrawing,Top*%
%FSLAX46Y46*%
G04 Gerber Fmt 4.6, Leading zero omitted, Abs format (unit mm)*
G04 Created by KiCad (PCBNEW (5.1.12)-1) date 2022-04-15 12:04:31*
%MOMM*%
%LPD*%
G01*
G04 APERTURE LIST*
%ADD10C,0.100000*%
%ADD11C,0.150000*%
%ADD12C,0.200000*%
G04 APERTURE END LIST*
D10*
%TO.C,J9*%
X65405000Y-121920000D02*
X67310000Y-121920000D01*
X67310000Y-121920000D02*
X67310000Y-124460000D01*
X67310000Y-124460000D02*
X64770000Y-124460000D01*
X64770000Y-124460000D02*
X64770000Y-122555000D01*
X64770000Y-122555000D02*
X65405000Y-121920000D01*
%TO.C,J8*%
X65405000Y-118110000D02*
X67310000Y-118110000D01*
X67310000Y-118110000D02*
X67310000Y-120650000D01*
X67310000Y-120650000D02*
X64770000Y-120650000D01*
X64770000Y-120650000D02*
X64770000Y-118745000D01*
X64770000Y-118745000D02*
X65405000Y-118110000D01*
%TO.C,J7*%
X102235000Y-142875000D02*
X104140000Y-142875000D01*
X104140000Y-142875000D02*
X104140000Y-145415000D01*
X104140000Y-145415000D02*
X101600000Y-145415000D01*
X101600000Y-145415000D02*
X101600000Y-143510000D01*
X101600000Y-143510000D02*
X102235000Y-142875000D01*
%TO.C,J6*%
X102235000Y-139065000D02*
X104140000Y-139065000D01*
X104140000Y-139065000D02*
X104140000Y-141605000D01*
X104140000Y-141605000D02*
X101600000Y-141605000D01*
X101600000Y-141605000D02*
X101600000Y-139700000D01*
X101600000Y-139700000D02*
X102235000Y-139065000D01*
%TO.C,J5*%
X65405000Y-110998000D02*
X67310000Y-110998000D01*
X67310000Y-110998000D02*
X67310000Y-113538000D01*
X67310000Y-113538000D02*
X64770000Y-113538000D01*
X64770000Y-113538000D02*
X64770000Y-111633000D01*
X64770000Y-111633000D02*
X65405000Y-110998000D01*
%TO.C,J14*%
X149293500Y-148460500D02*
X151386500Y-150552500D01*
X149476500Y-148277500D02*
X151569500Y-150369500D01*
X149293500Y-153540500D02*
X151386500Y-155633500D01*
X149476500Y-153357500D02*
X151569500Y-155450500D01*
X148131500Y-157035500D02*
X148131500Y-146875500D01*
X153031500Y-157035500D02*
X153031500Y-146875500D01*
X154531500Y-157035500D02*
X154531500Y-146875500D01*
X154531500Y-157035500D02*
X145231500Y-157035500D01*
X155031500Y-156535500D02*
X154531500Y-157035500D01*
X155031500Y-146875500D02*
X155031500Y-156535500D01*
X145231500Y-146875500D02*
X155031500Y-146875500D01*
X145231500Y-157035500D02*
X145231500Y-146875500D01*
X151931500Y-149415500D02*
G75*
G03*
X151931500Y-149415500I-1500000J0D01*
G01*
X151931500Y-154495500D02*
G75*
G03*
X151931500Y-154495500I-1500000J0D01*
G01*
%TO.C,J13*%
X149293500Y-133538000D02*
X151386500Y-135630000D01*
X149476500Y-133355000D02*
X151569500Y-135447000D01*
X149293500Y-138618000D02*
X151386500Y-140711000D01*
X149476500Y-138435000D02*
X151569500Y-140528000D01*
X148131500Y-142113000D02*
X148131500Y-131953000D01*
X153031500Y-142113000D02*
X153031500Y-131953000D01*
X154531500Y-142113000D02*
X154531500Y-131953000D01*
X154531500Y-142113000D02*
X145231500Y-142113000D01*
X155031500Y-141613000D02*
X154531500Y-142113000D01*
X155031500Y-131953000D02*
X155031500Y-141613000D01*
X145231500Y-131953000D02*
X155031500Y-131953000D01*
X145231500Y-142113000D02*
X145231500Y-131953000D01*
X151931500Y-134493000D02*
G75*
G03*
X151931500Y-134493000I-1500000J0D01*
G01*
X151931500Y-139573000D02*
G75*
G03*
X151931500Y-139573000I-1500000J0D01*
G01*
%TO.C,J12*%
X149420500Y-98295500D02*
X151513500Y-100387500D01*
X149603500Y-98112500D02*
X151696500Y-100204500D01*
X149420500Y-103375500D02*
X151513500Y-105468500D01*
X149603500Y-103192500D02*
X151696500Y-105285500D01*
X148258500Y-106870500D02*
X148258500Y-96710500D01*
X153158500Y-106870500D02*
X153158500Y-96710500D01*
X154658500Y-106870500D02*
X154658500Y-96710500D01*
X154658500Y-106870500D02*
X145358500Y-106870500D01*
X155158500Y-106370500D02*
X154658500Y-106870500D01*
X155158500Y-96710500D02*
X155158500Y-106370500D01*
X145358500Y-96710500D02*
X155158500Y-96710500D01*
X145358500Y-106870500D02*
X145358500Y-96710500D01*
X152058500Y-99250500D02*
G75*
G03*
X152058500Y-99250500I-1500000J0D01*
G01*
X152058500Y-104330500D02*
G75*
G03*
X152058500Y-104330500I-1500000J0D01*
G01*
%TO.C,J11*%
X149611000Y-115758000D02*
X151704000Y-117850000D01*
X149794000Y-115575000D02*
X151887000Y-117667000D01*
X149611000Y-120838000D02*
X151704000Y-122931000D01*
X149794000Y-120655000D02*
X151887000Y-122748000D01*
X148449000Y-124333000D02*
X148449000Y-114173000D01*
X153349000Y-124333000D02*
X153349000Y-114173000D01*
X154849000Y-124333000D02*
X154849000Y-114173000D01*
X154849000Y-124333000D02*
X145549000Y-124333000D01*
X155349000Y-123833000D02*
X154849000Y-124333000D01*
X155349000Y-114173000D02*
X155349000Y-123833000D01*
X145549000Y-114173000D02*
X155349000Y-114173000D01*
X145549000Y-124333000D02*
X145549000Y-114173000D01*
X152249000Y-116713000D02*
G75*
G03*
X152249000Y-116713000I-1500000J0D01*
G01*
X152249000Y-121793000D02*
G75*
G03*
X152249000Y-121793000I-1500000J0D01*
G01*
%TO.C,J10*%
X44826000Y-96459000D02*
X42733000Y-94367000D01*
X44643000Y-96642000D02*
X42550000Y-94550000D01*
X44826000Y-91379000D02*
X42733000Y-89286000D01*
X44643000Y-91562000D02*
X42550000Y-89469000D01*
X45988000Y-87884000D02*
X45988000Y-98044000D01*
X41088000Y-87884000D02*
X41088000Y-98044000D01*
X39588000Y-87884000D02*
X39588000Y-98044000D01*
X39588000Y-87884000D02*
X48888000Y-87884000D01*
X39088000Y-88384000D02*
X39588000Y-87884000D01*
X39088000Y-98044000D02*
X39088000Y-88384000D01*
X48888000Y-98044000D02*
X39088000Y-98044000D01*
X48888000Y-87884000D02*
X48888000Y-98044000D01*
X45188000Y-95504000D02*
G75*
G03*
X45188000Y-95504000I-1500000J0D01*
G01*
X45188000Y-90424000D02*
G75*
G03*
X45188000Y-90424000I-1500000J0D01*
G01*
%TO.C,C2*%
X65735600Y-137889300D02*
G75*
G03*
X65735600Y-137889300I-3150000J0D01*
G01*
X63959100Y-135195328D02*
X63959100Y-135825328D01*
X64274100Y-135510328D02*
X63644100Y-135510328D01*
%TO.C,R7*%
X75844400Y-91643200D02*
X76504400Y-91643200D01*
X83464400Y-91643200D02*
X82804400Y-91643200D01*
X76504400Y-92893200D02*
X82804400Y-92893200D01*
X76504400Y-90393200D02*
X76504400Y-92893200D01*
X82804400Y-90393200D02*
X76504400Y-90393200D01*
X82804400Y-92893200D02*
X82804400Y-90393200D01*
%TO.C,R4*%
X94691200Y-99466400D02*
X94691200Y-98806400D01*
X94691200Y-91846400D02*
X94691200Y-92506400D01*
X95941200Y-98806400D02*
X95941200Y-92506400D01*
X93441200Y-98806400D02*
X95941200Y-98806400D01*
X93441200Y-92506400D02*
X93441200Y-98806400D01*
X95941200Y-92506400D02*
X93441200Y-92506400D01*
%TO.C,R2*%
X101092000Y-90424000D02*
X101092000Y-91084000D01*
X101092000Y-98044000D02*
X101092000Y-97384000D01*
X99842000Y-91084000D02*
X99842000Y-97384000D01*
X102342000Y-91084000D02*
X99842000Y-91084000D01*
X102342000Y-97384000D02*
X102342000Y-91084000D01*
X99842000Y-97384000D02*
X102342000Y-97384000D01*
%TO.C,R1*%
X87947500Y-114681000D02*
X87287500Y-114681000D01*
X80327500Y-114681000D02*
X80987500Y-114681000D01*
X87287500Y-113431000D02*
X80987500Y-113431000D01*
X87287500Y-115931000D02*
X87287500Y-113431000D01*
X80987500Y-115931000D02*
X87287500Y-115931000D01*
X80987500Y-113431000D02*
X80987500Y-115931000D01*
%TO.C,Q1*%
X80901600Y-95643600D02*
X80901600Y-99143600D01*
X80897975Y-95629975D02*
G75*
G02*
X85131600Y-97383600I1753625J-1753625D01*
G01*
X80897975Y-99137225D02*
G75*
G03*
X85131600Y-97383600I1753625J1753625D01*
G01*
%TO.C,K1*%
X68358000Y-87854400D02*
X68358000Y-96854400D01*
X72908000Y-91354400D02*
X71908000Y-92354400D01*
X72908000Y-84104400D02*
X72908000Y-91354400D01*
X50408000Y-84104400D02*
X72908000Y-84104400D01*
X50408000Y-100604400D02*
X50408000Y-84104400D01*
X72908000Y-100604400D02*
X50408000Y-100604400D01*
X72908000Y-93354400D02*
X72908000Y-100604400D01*
X71908000Y-92354400D02*
X72908000Y-93354400D01*
%TO.C,J2*%
X100838000Y-114046000D02*
X101473000Y-113411000D01*
X100838000Y-123571000D02*
X100838000Y-114046000D01*
X103378000Y-123571000D02*
X100838000Y-123571000D01*
X103378000Y-113411000D02*
X103378000Y-123571000D01*
X101473000Y-113411000D02*
X103378000Y-113411000D01*
%TO.C,D6*%
X75644706Y-100188400D02*
X78584094Y-100188400D01*
X79614400Y-97688400D02*
G75*
G03*
X79614400Y-97688400I-2500000J0D01*
G01*
X78584066Y-100188416D02*
G75*
G03*
X75644706Y-100188400I-1469666J2500016D01*
G01*
%TO.C,D3*%
X85899000Y-96408000D02*
X88599000Y-96408000D01*
X85899000Y-96208000D02*
X88599000Y-96208000D01*
X85899000Y-96308000D02*
X88599000Y-96308000D01*
X87249000Y-89408000D02*
X87249000Y-91888000D01*
X87249000Y-99568000D02*
X87249000Y-97088000D01*
X85899000Y-91888000D02*
X85899000Y-97088000D01*
X88599000Y-91888000D02*
X85899000Y-91888000D01*
X88599000Y-97088000D02*
X88599000Y-91888000D01*
X85899000Y-97088000D02*
X88599000Y-97088000D01*
%TO.C,D1*%
X102561694Y-82082000D02*
X99622306Y-82082000D01*
X103592000Y-84582000D02*
G75*
G03*
X103592000Y-84582000I-2500000J0D01*
G01*
X99622334Y-82081984D02*
G75*
G03*
X102561694Y-82082000I1469666J-2500016D01*
G01*
%TO.C,BZ1*%
X92264000Y-126873000D02*
G75*
G03*
X92264000Y-126873000I-7000000J0D01*
G01*
X86264000Y-126873000D02*
G75*
G03*
X86264000Y-126873000I-1000000J0D01*
G01*
%TO.C,Q2*%
X111661000Y-111417000D02*
X111661000Y-114917000D01*
X111657375Y-111403375D02*
G75*
G02*
X115891000Y-113157000I1753625J-1753625D01*
G01*
X111657375Y-114910625D02*
G75*
G03*
X115891000Y-113157000I1753625J1753625D01*
G01*
%TO.C,Q3*%
X111089500Y-93637000D02*
X111089500Y-97137000D01*
X111085875Y-93623375D02*
G75*
G02*
X115319500Y-95377000I1753625J-1753625D01*
G01*
X111085875Y-97130625D02*
G75*
G03*
X115319500Y-95377000I1753625J1753625D01*
G01*
%TO.C,Q4*%
X111216500Y-128816000D02*
X111216500Y-132316000D01*
X111212875Y-128802375D02*
G75*
G02*
X115446500Y-130556000I1753625J-1753625D01*
G01*
X111212875Y-132309625D02*
G75*
G03*
X115446500Y-130556000I1753625J1753625D01*
G01*
%TO.C,Q5*%
X111661000Y-148310500D02*
X111661000Y-151810500D01*
X111657375Y-148296875D02*
G75*
G02*
X115891000Y-150050500I1753625J-1753625D01*
G01*
X111657375Y-151804125D02*
G75*
G03*
X115891000Y-150050500I1753625J1753625D01*
G01*
%TO.C,U1*%
X52150000Y-127723500D02*
X52150000Y-132123500D01*
X52150000Y-132123500D02*
X62150000Y-132123500D01*
X62150000Y-132123500D02*
X62150000Y-127723500D01*
X62150000Y-127723500D02*
X52150000Y-127723500D01*
X52150000Y-128993500D02*
X62150000Y-128993500D01*
X55300000Y-127723500D02*
X55300000Y-128993500D01*
X59000000Y-127723500D02*
X59000000Y-128993500D01*
%TO.C,R8*%
X119233000Y-109943500D02*
X116733000Y-109943500D01*
X116733000Y-109943500D02*
X116733000Y-116243500D01*
X116733000Y-116243500D02*
X119233000Y-116243500D01*
X119233000Y-116243500D02*
X119233000Y-109943500D01*
X117983000Y-109283500D02*
X117983000Y-109943500D01*
X117983000Y-116903500D02*
X117983000Y-116243500D01*
%TO.C,R9*%
X118788500Y-92290500D02*
X116288500Y-92290500D01*
X116288500Y-92290500D02*
X116288500Y-98590500D01*
X116288500Y-98590500D02*
X118788500Y-98590500D01*
X118788500Y-98590500D02*
X118788500Y-92290500D01*
X117538500Y-91630500D02*
X117538500Y-92290500D01*
X117538500Y-99250500D02*
X117538500Y-98590500D01*
%TO.C,R12*%
X118852000Y-127533000D02*
X116352000Y-127533000D01*
X116352000Y-127533000D02*
X116352000Y-133833000D01*
X116352000Y-133833000D02*
X118852000Y-133833000D01*
X118852000Y-133833000D02*
X118852000Y-127533000D01*
X117602000Y-126873000D02*
X117602000Y-127533000D01*
X117602000Y-134493000D02*
X117602000Y-133833000D01*
%TO.C,R5*%
X107117200Y-113791600D02*
X104617200Y-113791600D01*
X104617200Y-113791600D02*
X104617200Y-120091600D01*
X104617200Y-120091600D02*
X107117200Y-120091600D01*
X107117200Y-120091600D02*
X107117200Y-113791600D01*
X105867200Y-113131600D02*
X105867200Y-113791600D01*
X105867200Y-120751600D02*
X105867200Y-120091600D01*
%TO.C,R6*%
X106456800Y-94386000D02*
X103956800Y-94386000D01*
X103956800Y-94386000D02*
X103956800Y-100686000D01*
X103956800Y-100686000D02*
X106456800Y-100686000D01*
X106456800Y-100686000D02*
X106456800Y-94386000D01*
X105206800Y-93726000D02*
X105206800Y-94386000D01*
X105206800Y-101346000D02*
X105206800Y-100686000D01*
%TO.C,R10*%
X104160000Y-135420500D02*
X106660000Y-135420500D01*
X106660000Y-135420500D02*
X106660000Y-129120500D01*
X106660000Y-129120500D02*
X104160000Y-129120500D01*
X104160000Y-129120500D02*
X104160000Y-135420500D01*
X105410000Y-136080500D02*
X105410000Y-135420500D01*
X105410000Y-128460500D02*
X105410000Y-129120500D01*
%TO.C,R13*%
X119233000Y-145630500D02*
X116733000Y-145630500D01*
X116733000Y-145630500D02*
X116733000Y-151930500D01*
X116733000Y-151930500D02*
X119233000Y-151930500D01*
X119233000Y-151930500D02*
X119233000Y-145630500D01*
X117983000Y-144970500D02*
X117983000Y-145630500D01*
X117983000Y-152590500D02*
X117983000Y-151930500D01*
%TO.C,R11*%
X106850500Y-150647000D02*
X104350500Y-150647000D01*
X104350500Y-150647000D02*
X104350500Y-156947000D01*
X104350500Y-156947000D02*
X106850500Y-156947000D01*
X106850500Y-156947000D02*
X106850500Y-150647000D01*
X105600500Y-149987000D02*
X105600500Y-150647000D01*
X105600500Y-157607000D02*
X105600500Y-156947000D01*
%TO.C,R3*%
X55138000Y-123800000D02*
X57638000Y-123800000D01*
X57638000Y-123800000D02*
X57638000Y-117500000D01*
X57638000Y-117500000D02*
X55138000Y-117500000D01*
X55138000Y-117500000D02*
X55138000Y-123800000D01*
X56388000Y-124460000D02*
X56388000Y-123800000D01*
X56388000Y-116840000D02*
X56388000Y-117500000D01*
%TO.C,J4*%
X52451000Y-113030000D02*
X50546000Y-113030000D01*
X50546000Y-113030000D02*
X50546000Y-105410000D01*
X50546000Y-105410000D02*
X53086000Y-105410000D01*
X53086000Y-105410000D02*
X53086000Y-112395000D01*
X53086000Y-112395000D02*
X52451000Y-113030000D01*
%TO.C,J3*%
X52451000Y-124206000D02*
X50546000Y-124206000D01*
X50546000Y-124206000D02*
X50546000Y-116586000D01*
X50546000Y-116586000D02*
X53086000Y-116586000D01*
X53086000Y-116586000D02*
X53086000Y-123571000D01*
X53086000Y-123571000D02*
X52451000Y-124206000D01*
%TO.C,J1*%
X55362375Y-144719713D02*
X56117800Y-143916500D01*
X55367800Y-154916500D02*
X64367800Y-154916500D01*
X55367800Y-158416500D02*
X64367800Y-158416500D01*
X64367800Y-158416500D02*
X64367800Y-143916500D01*
X64367800Y-143916500D02*
X56117800Y-143916500D01*
X55367800Y-144716500D02*
X55367800Y-158416500D01*
%TO.C,D7*%
X119022500Y-121729500D02*
G75*
G03*
X119022500Y-121729500I-2500000J0D01*
G01*
X115052806Y-124229500D02*
X117992194Y-124229500D01*
X117992166Y-124229516D02*
G75*
G03*
X115052806Y-124229500I-1469666J2500016D01*
G01*
%TO.C,D8*%
X118578000Y-103886000D02*
G75*
G03*
X118578000Y-103886000I-2500000J0D01*
G01*
X114608306Y-106386000D02*
X117547694Y-106386000D01*
X117547666Y-106386016D02*
G75*
G03*
X114608306Y-106386000I-1469666J2500016D01*
G01*
%TO.C,D11*%
X118768500Y-139128500D02*
G75*
G03*
X118768500Y-139128500I-2500000J0D01*
G01*
X114798806Y-141628500D02*
X117738194Y-141628500D01*
X117738166Y-141628516D02*
G75*
G03*
X114798806Y-141628500I-1469666J2500016D01*
G01*
%TO.C,D12*%
X118832000Y-157162500D02*
G75*
G03*
X118832000Y-157162500I-2500000J0D01*
G01*
X114862306Y-159662500D02*
X117801694Y-159662500D01*
X117801666Y-159662516D02*
G75*
G03*
X114862306Y-159662500I-1469666J2500016D01*
G01*
%TO.C,D2*%
X60666000Y-110236000D02*
G75*
G03*
X60666000Y-110236000I-2500000J0D01*
G01*
X60666000Y-111705694D02*
X60666000Y-108766306D01*
X60666016Y-108766334D02*
G75*
G03*
X60666000Y-111705694I-2500016J-1469666D01*
G01*
%TO.C,C1*%
X57633000Y-137990900D02*
G75*
G03*
X57633000Y-137990900I-3150000J0D01*
G01*
X55856500Y-135296928D02*
X55856500Y-135926928D01*
X56171500Y-135611928D02*
X55541500Y-135611928D01*
%TO.C,K2*%
X121386000Y-116649500D02*
X120386000Y-115649500D01*
X120386000Y-115649500D02*
X120386000Y-108399500D01*
X120386000Y-108399500D02*
X142886000Y-108399500D01*
X142886000Y-108399500D02*
X142886000Y-124899500D01*
X142886000Y-124899500D02*
X120386000Y-124899500D01*
X120386000Y-124899500D02*
X120386000Y-117649500D01*
X120386000Y-117649500D02*
X121386000Y-116649500D01*
X124936000Y-121149500D02*
X124936000Y-112149500D01*
%TO.C,K3*%
X121259000Y-99250500D02*
X120259000Y-98250500D01*
X120259000Y-98250500D02*
X120259000Y-91000500D01*
X120259000Y-91000500D02*
X142759000Y-91000500D01*
X142759000Y-91000500D02*
X142759000Y-107500500D01*
X142759000Y-107500500D02*
X120259000Y-107500500D01*
X120259000Y-107500500D02*
X120259000Y-100250500D01*
X120259000Y-100250500D02*
X121259000Y-99250500D01*
X124809000Y-103750500D02*
X124809000Y-94750500D01*
%TO.C,K4*%
X121386000Y-134429500D02*
X120386000Y-133429500D01*
X120386000Y-133429500D02*
X120386000Y-126179500D01*
X120386000Y-126179500D02*
X142886000Y-126179500D01*
X142886000Y-126179500D02*
X142886000Y-142679500D01*
X142886000Y-142679500D02*
X120386000Y-142679500D01*
X120386000Y-142679500D02*
X120386000Y-135429500D01*
X120386000Y-135429500D02*
X121386000Y-134429500D01*
X124936000Y-138929500D02*
X124936000Y-129929500D01*
%TO.C,K5*%
X121449500Y-151828500D02*
X120449500Y-150828500D01*
X120449500Y-150828500D02*
X120449500Y-143578500D01*
X120449500Y-143578500D02*
X142949500Y-143578500D01*
X142949500Y-143578500D02*
X142949500Y-160078500D01*
X142949500Y-160078500D02*
X120449500Y-160078500D01*
X120449500Y-160078500D02*
X120449500Y-152828500D01*
X120449500Y-152828500D02*
X121449500Y-151828500D01*
X124999500Y-156328500D02*
X124999500Y-147328500D01*
%TO.C,D4*%
X110760500Y-112144500D02*
X108060500Y-112144500D01*
X108060500Y-112144500D02*
X108060500Y-117344500D01*
X108060500Y-117344500D02*
X110760500Y-117344500D01*
X110760500Y-117344500D02*
X110760500Y-112144500D01*
X109410500Y-109664500D02*
X109410500Y-112144500D01*
X109410500Y-119824500D02*
X109410500Y-117344500D01*
X110760500Y-112924500D02*
X108060500Y-112924500D01*
X110760500Y-113024500D02*
X108060500Y-113024500D01*
X110760500Y-112824500D02*
X108060500Y-112824500D01*
%TO.C,D5*%
X109998500Y-94110500D02*
X107298500Y-94110500D01*
X107298500Y-94110500D02*
X107298500Y-99310500D01*
X107298500Y-99310500D02*
X109998500Y-99310500D01*
X109998500Y-99310500D02*
X109998500Y-94110500D01*
X108648500Y-91630500D02*
X108648500Y-94110500D01*
X108648500Y-101790500D02*
X108648500Y-99310500D01*
X109998500Y-94890500D02*
X107298500Y-94890500D01*
X109998500Y-94990500D02*
X107298500Y-94990500D01*
X109998500Y-94790500D02*
X107298500Y-94790500D01*
%TO.C,D9*%
X110443000Y-129353000D02*
X107743000Y-129353000D01*
X107743000Y-129353000D02*
X107743000Y-134553000D01*
X107743000Y-134553000D02*
X110443000Y-134553000D01*
X110443000Y-134553000D02*
X110443000Y-129353000D01*
X109093000Y-126873000D02*
X109093000Y-129353000D01*
X109093000Y-137033000D02*
X109093000Y-134553000D01*
X110443000Y-130133000D02*
X107743000Y-130133000D01*
X110443000Y-130233000D02*
X107743000Y-130233000D01*
X110443000Y-130033000D02*
X107743000Y-130033000D01*
%TO.C,D10*%
X110760500Y-147450500D02*
X108060500Y-147450500D01*
X108060500Y-147450500D02*
X108060500Y-152650500D01*
X108060500Y-152650500D02*
X110760500Y-152650500D01*
X110760500Y-152650500D02*
X110760500Y-147450500D01*
X109410500Y-144970500D02*
X109410500Y-147450500D01*
X109410500Y-155130500D02*
X109410500Y-152650500D01*
X110760500Y-148230500D02*
X108060500Y-148230500D01*
X110760500Y-148330500D02*
X108060500Y-148330500D01*
X110760500Y-148130500D02*
X108060500Y-148130500D01*
%TD*%
%TO.C,J9*%
D11*
X63904761Y-125658333D02*
X63952380Y-125753571D01*
X63952380Y-125944047D01*
X63904761Y-126039285D01*
X63809523Y-126086904D01*
X63428571Y-126086904D01*
X63333333Y-126039285D01*
X63285714Y-125944047D01*
X63285714Y-125753571D01*
X63333333Y-125658333D01*
X63428571Y-125610714D01*
X63523809Y-125610714D01*
X63619047Y-126086904D01*
X63952380Y-125277380D02*
X63285714Y-124753571D01*
X63285714Y-125277380D02*
X63952380Y-124753571D01*
X63285714Y-124372619D02*
X64285714Y-124372619D01*
X63333333Y-124372619D02*
X63285714Y-124277380D01*
X63285714Y-124086904D01*
X63333333Y-123991666D01*
X63380952Y-123944047D01*
X63476190Y-123896428D01*
X63761904Y-123896428D01*
X63857142Y-123944047D01*
X63904761Y-123991666D01*
X63952380Y-124086904D01*
X63952380Y-124277380D01*
X63904761Y-124372619D01*
X63952380Y-123467857D02*
X63285714Y-123467857D01*
X62952380Y-123467857D02*
X63000000Y-123515476D01*
X63047619Y-123467857D01*
X63000000Y-123420238D01*
X62952380Y-123467857D01*
X63047619Y-123467857D01*
X63285714Y-122991666D02*
X63952380Y-122991666D01*
X63380952Y-122991666D02*
X63333333Y-122944047D01*
X63285714Y-122848809D01*
X63285714Y-122705952D01*
X63333333Y-122610714D01*
X63428571Y-122563095D01*
X63952380Y-122563095D01*
X63285714Y-121658333D02*
X63952380Y-121658333D01*
X62904761Y-121896428D02*
X63619047Y-122134523D01*
X63619047Y-121515476D01*
X65082380Y-122888333D02*
X65796666Y-122888333D01*
X65939523Y-122935952D01*
X66034761Y-123031190D01*
X66082380Y-123174047D01*
X66082380Y-123269285D01*
X66082380Y-122364523D02*
X66082380Y-122174047D01*
X66034761Y-122078809D01*
X65987142Y-122031190D01*
X65844285Y-121935952D01*
X65653809Y-121888333D01*
X65272857Y-121888333D01*
X65177619Y-121935952D01*
X65130000Y-121983571D01*
X65082380Y-122078809D01*
X65082380Y-122269285D01*
X65130000Y-122364523D01*
X65177619Y-122412142D01*
X65272857Y-122459761D01*
X65510952Y-122459761D01*
X65606190Y-122412142D01*
X65653809Y-122364523D01*
X65701428Y-122269285D01*
X65701428Y-122078809D01*
X65653809Y-121983571D01*
X65606190Y-121935952D01*
X65510952Y-121888333D01*
%TO.C,J8*%
X63904761Y-121213333D02*
X63952380Y-121308571D01*
X63952380Y-121499047D01*
X63904761Y-121594285D01*
X63809523Y-121641904D01*
X63428571Y-121641904D01*
X63333333Y-121594285D01*
X63285714Y-121499047D01*
X63285714Y-121308571D01*
X63333333Y-121213333D01*
X63428571Y-121165714D01*
X63523809Y-121165714D01*
X63619047Y-121641904D01*
X63952380Y-120832380D02*
X63285714Y-120308571D01*
X63285714Y-120832380D02*
X63952380Y-120308571D01*
X63285714Y-119927619D02*
X64285714Y-119927619D01*
X63333333Y-119927619D02*
X63285714Y-119832380D01*
X63285714Y-119641904D01*
X63333333Y-119546666D01*
X63380952Y-119499047D01*
X63476190Y-119451428D01*
X63761904Y-119451428D01*
X63857142Y-119499047D01*
X63904761Y-119546666D01*
X63952380Y-119641904D01*
X63952380Y-119832380D01*
X63904761Y-119927619D01*
X63952380Y-119022857D02*
X63285714Y-119022857D01*
X62952380Y-119022857D02*
X63000000Y-119070476D01*
X63047619Y-119022857D01*
X63000000Y-118975238D01*
X62952380Y-119022857D01*
X63047619Y-119022857D01*
X63285714Y-118546666D02*
X63952380Y-118546666D01*
X63380952Y-118546666D02*
X63333333Y-118499047D01*
X63285714Y-118403809D01*
X63285714Y-118260952D01*
X63333333Y-118165714D01*
X63428571Y-118118095D01*
X63952380Y-118118095D01*
X62952380Y-117737142D02*
X62952380Y-117118095D01*
X63333333Y-117451428D01*
X63333333Y-117308571D01*
X63380952Y-117213333D01*
X63428571Y-117165714D01*
X63523809Y-117118095D01*
X63761904Y-117118095D01*
X63857142Y-117165714D01*
X63904761Y-117213333D01*
X63952380Y-117308571D01*
X63952380Y-117594285D01*
X63904761Y-117689523D01*
X63857142Y-117737142D01*
X65492380Y-119713333D02*
X66206666Y-119713333D01*
X66349523Y-119760952D01*
X66444761Y-119856190D01*
X66492380Y-119999047D01*
X66492380Y-120094285D01*
X65920952Y-119094285D02*
X65873333Y-119189523D01*
X65825714Y-119237142D01*
X65730476Y-119284761D01*
X65682857Y-119284761D01*
X65587619Y-119237142D01*
X65540000Y-119189523D01*
X65492380Y-119094285D01*
X65492380Y-118903809D01*
X65540000Y-118808571D01*
X65587619Y-118760952D01*
X65682857Y-118713333D01*
X65730476Y-118713333D01*
X65825714Y-118760952D01*
X65873333Y-118808571D01*
X65920952Y-118903809D01*
X65920952Y-119094285D01*
X65968571Y-119189523D01*
X66016190Y-119237142D01*
X66111428Y-119284761D01*
X66301904Y-119284761D01*
X66397142Y-119237142D01*
X66444761Y-119189523D01*
X66492380Y-119094285D01*
X66492380Y-118903809D01*
X66444761Y-118808571D01*
X66397142Y-118760952D01*
X66301904Y-118713333D01*
X66111428Y-118713333D01*
X66016190Y-118760952D01*
X65968571Y-118808571D01*
X65920952Y-118903809D01*
%TO.C,J7*%
X101036666Y-146879761D02*
X100941428Y-146927380D01*
X100750952Y-146927380D01*
X100655714Y-146879761D01*
X100608095Y-146784523D01*
X100608095Y-146403571D01*
X100655714Y-146308333D01*
X100750952Y-146260714D01*
X100941428Y-146260714D01*
X101036666Y-146308333D01*
X101084285Y-146403571D01*
X101084285Y-146498809D01*
X100608095Y-146594047D01*
X101417619Y-146927380D02*
X101941428Y-146260714D01*
X101417619Y-146260714D02*
X101941428Y-146927380D01*
X102322380Y-146260714D02*
X102322380Y-147260714D01*
X102322380Y-146308333D02*
X102417619Y-146260714D01*
X102608095Y-146260714D01*
X102703333Y-146308333D01*
X102750952Y-146355952D01*
X102798571Y-146451190D01*
X102798571Y-146736904D01*
X102750952Y-146832142D01*
X102703333Y-146879761D01*
X102608095Y-146927380D01*
X102417619Y-146927380D01*
X102322380Y-146879761D01*
X103227142Y-146927380D02*
X103227142Y-146260714D01*
X103227142Y-145927380D02*
X103179523Y-145975000D01*
X103227142Y-146022619D01*
X103274761Y-145975000D01*
X103227142Y-145927380D01*
X103227142Y-146022619D01*
X103703333Y-146260714D02*
X103703333Y-146927380D01*
X103703333Y-146355952D02*
X103750952Y-146308333D01*
X103846190Y-146260714D01*
X103989047Y-146260714D01*
X104084285Y-146308333D01*
X104131904Y-146403571D01*
X104131904Y-146927380D01*
X104560476Y-146022619D02*
X104608095Y-145975000D01*
X104703333Y-145927380D01*
X104941428Y-145927380D01*
X105036666Y-145975000D01*
X105084285Y-146022619D01*
X105131904Y-146117857D01*
X105131904Y-146213095D01*
X105084285Y-146355952D01*
X104512857Y-146927380D01*
X105131904Y-146927380D01*
X102322380Y-144478333D02*
X103036666Y-144478333D01*
X103179523Y-144525952D01*
X103274761Y-144621190D01*
X103322380Y-144764047D01*
X103322380Y-144859285D01*
X102322380Y-144097380D02*
X102322380Y-143430714D01*
X103322380Y-143859285D01*
%TO.C,J6*%
X101036666Y-143069761D02*
X100941428Y-143117380D01*
X100750952Y-143117380D01*
X100655714Y-143069761D01*
X100608095Y-142974523D01*
X100608095Y-142593571D01*
X100655714Y-142498333D01*
X100750952Y-142450714D01*
X100941428Y-142450714D01*
X101036666Y-142498333D01*
X101084285Y-142593571D01*
X101084285Y-142688809D01*
X100608095Y-142784047D01*
X101417619Y-143117380D02*
X101941428Y-142450714D01*
X101417619Y-142450714D02*
X101941428Y-143117380D01*
X102322380Y-142450714D02*
X102322380Y-143450714D01*
X102322380Y-142498333D02*
X102417619Y-142450714D01*
X102608095Y-142450714D01*
X102703333Y-142498333D01*
X102750952Y-142545952D01*
X102798571Y-142641190D01*
X102798571Y-142926904D01*
X102750952Y-143022142D01*
X102703333Y-143069761D01*
X102608095Y-143117380D01*
X102417619Y-143117380D01*
X102322380Y-143069761D01*
X103227142Y-143117380D02*
X103227142Y-142450714D01*
X103227142Y-142117380D02*
X103179523Y-142165000D01*
X103227142Y-142212619D01*
X103274761Y-142165000D01*
X103227142Y-142117380D01*
X103227142Y-142212619D01*
X103703333Y-142450714D02*
X103703333Y-143117380D01*
X103703333Y-142545952D02*
X103750952Y-142498333D01*
X103846190Y-142450714D01*
X103989047Y-142450714D01*
X104084285Y-142498333D01*
X104131904Y-142593571D01*
X104131904Y-143117380D01*
X105131904Y-143117380D02*
X104560476Y-143117380D01*
X104846190Y-143117380D02*
X104846190Y-142117380D01*
X104750952Y-142260238D01*
X104655714Y-142355476D01*
X104560476Y-142403095D01*
X102322380Y-140668333D02*
X103036666Y-140668333D01*
X103179523Y-140715952D01*
X103274761Y-140811190D01*
X103322380Y-140954047D01*
X103322380Y-141049285D01*
X102322380Y-139763571D02*
X102322380Y-139954047D01*
X102370000Y-140049285D01*
X102417619Y-140096904D01*
X102560476Y-140192142D01*
X102750952Y-140239761D01*
X103131904Y-140239761D01*
X103227142Y-140192142D01*
X103274761Y-140144523D01*
X103322380Y-140049285D01*
X103322380Y-139858809D01*
X103274761Y-139763571D01*
X103227142Y-139715952D01*
X103131904Y-139668333D01*
X102893809Y-139668333D01*
X102798571Y-139715952D01*
X102750952Y-139763571D01*
X102703333Y-139858809D01*
X102703333Y-140049285D01*
X102750952Y-140144523D01*
X102798571Y-140192142D01*
X102893809Y-140239761D01*
%TO.C,J5*%
X64682857Y-115002761D02*
X64587619Y-115050380D01*
X64397142Y-115050380D01*
X64301904Y-115002761D01*
X64254285Y-114907523D01*
X64254285Y-114526571D01*
X64301904Y-114431333D01*
X64397142Y-114383714D01*
X64587619Y-114383714D01*
X64682857Y-114431333D01*
X64730476Y-114526571D01*
X64730476Y-114621809D01*
X64254285Y-114717047D01*
X65063809Y-115050380D02*
X65587619Y-114383714D01*
X65063809Y-114383714D02*
X65587619Y-115050380D01*
X65968571Y-114383714D02*
X65968571Y-115383714D01*
X65968571Y-114431333D02*
X66063809Y-114383714D01*
X66254285Y-114383714D01*
X66349523Y-114431333D01*
X66397142Y-114478952D01*
X66444761Y-114574190D01*
X66444761Y-114859904D01*
X66397142Y-114955142D01*
X66349523Y-115002761D01*
X66254285Y-115050380D01*
X66063809Y-115050380D01*
X65968571Y-115002761D01*
X66873333Y-115050380D02*
X66873333Y-114383714D01*
X66873333Y-114050380D02*
X66825714Y-114098000D01*
X66873333Y-114145619D01*
X66920952Y-114098000D01*
X66873333Y-114050380D01*
X66873333Y-114145619D01*
X67349523Y-114383714D02*
X67349523Y-115050380D01*
X67349523Y-114478952D02*
X67397142Y-114431333D01*
X67492380Y-114383714D01*
X67635238Y-114383714D01*
X67730476Y-114431333D01*
X67778095Y-114526571D01*
X67778095Y-115050380D01*
X65492380Y-112601333D02*
X66206666Y-112601333D01*
X66349523Y-112648952D01*
X66444761Y-112744190D01*
X66492380Y-112887047D01*
X66492380Y-112982285D01*
X65492380Y-111648952D02*
X65492380Y-112125142D01*
X65968571Y-112172761D01*
X65920952Y-112125142D01*
X65873333Y-112029904D01*
X65873333Y-111791809D01*
X65920952Y-111696571D01*
X65968571Y-111648952D01*
X66063809Y-111601333D01*
X66301904Y-111601333D01*
X66397142Y-111648952D01*
X66444761Y-111696571D01*
X66492380Y-111791809D01*
X66492380Y-112029904D01*
X66444761Y-112125142D01*
X66397142Y-112172761D01*
%TO.C,J14*%
X156543880Y-154669785D02*
X155877214Y-154669785D01*
X156067690Y-154669785D02*
X155972452Y-154622166D01*
X155924833Y-154574547D01*
X155877214Y-154479309D01*
X155877214Y-154384071D01*
X155877214Y-153622166D02*
X156543880Y-153622166D01*
X155496261Y-153860261D02*
X156210547Y-154098357D01*
X156210547Y-153479309D01*
X156639119Y-153336452D02*
X156639119Y-152574547D01*
X156496261Y-151907880D02*
X156543880Y-152003119D01*
X156543880Y-152193595D01*
X156496261Y-152288833D01*
X156448642Y-152336452D01*
X156353404Y-152384071D01*
X156067690Y-152384071D01*
X155972452Y-152336452D01*
X155924833Y-152288833D01*
X155877214Y-152193595D01*
X155877214Y-152003119D01*
X155924833Y-151907880D01*
X156543880Y-151336452D02*
X156496261Y-151431690D01*
X156448642Y-151479309D01*
X156353404Y-151526928D01*
X156067690Y-151526928D01*
X155972452Y-151479309D01*
X155924833Y-151431690D01*
X155877214Y-151336452D01*
X155877214Y-151193595D01*
X155924833Y-151098357D01*
X155972452Y-151050738D01*
X156067690Y-151003119D01*
X156353404Y-151003119D01*
X156448642Y-151050738D01*
X156496261Y-151098357D01*
X156543880Y-151193595D01*
X156543880Y-151336452D01*
X155877214Y-150574547D02*
X156543880Y-150574547D01*
X155972452Y-150574547D02*
X155924833Y-150526928D01*
X155877214Y-150431690D01*
X155877214Y-150288833D01*
X155924833Y-150193595D01*
X156020071Y-150145976D01*
X156543880Y-150145976D01*
X155877214Y-149669785D02*
X156543880Y-149669785D01*
X155972452Y-149669785D02*
X155924833Y-149622166D01*
X155877214Y-149526928D01*
X155877214Y-149384071D01*
X155924833Y-149288833D01*
X156020071Y-149241214D01*
X156543880Y-149241214D01*
X153083880Y-152765023D02*
X153798166Y-152765023D01*
X153941023Y-152812642D01*
X154036261Y-152907880D01*
X154083880Y-153050738D01*
X154083880Y-153145976D01*
X154083880Y-151765023D02*
X154083880Y-152336452D01*
X154083880Y-152050738D02*
X153083880Y-152050738D01*
X153226738Y-152145976D01*
X153321976Y-152241214D01*
X153369595Y-152336452D01*
X153417214Y-150907880D02*
X154083880Y-150907880D01*
X153036261Y-151145976D02*
X153750547Y-151384071D01*
X153750547Y-150765023D01*
%TO.C,J13*%
X156543880Y-139747285D02*
X155877214Y-139747285D01*
X156067690Y-139747285D02*
X155972452Y-139699666D01*
X155924833Y-139652047D01*
X155877214Y-139556809D01*
X155877214Y-139461571D01*
X155543880Y-139223476D02*
X155543880Y-138604428D01*
X155924833Y-138937761D01*
X155924833Y-138794904D01*
X155972452Y-138699666D01*
X156020071Y-138652047D01*
X156115309Y-138604428D01*
X156353404Y-138604428D01*
X156448642Y-138652047D01*
X156496261Y-138699666D01*
X156543880Y-138794904D01*
X156543880Y-139080619D01*
X156496261Y-139175857D01*
X156448642Y-139223476D01*
X156639119Y-138413952D02*
X156639119Y-137652047D01*
X156496261Y-136985380D02*
X156543880Y-137080619D01*
X156543880Y-137271095D01*
X156496261Y-137366333D01*
X156448642Y-137413952D01*
X156353404Y-137461571D01*
X156067690Y-137461571D01*
X155972452Y-137413952D01*
X155924833Y-137366333D01*
X155877214Y-137271095D01*
X155877214Y-137080619D01*
X155924833Y-136985380D01*
X156543880Y-136413952D02*
X156496261Y-136509190D01*
X156448642Y-136556809D01*
X156353404Y-136604428D01*
X156067690Y-136604428D01*
X155972452Y-136556809D01*
X155924833Y-136509190D01*
X155877214Y-136413952D01*
X155877214Y-136271095D01*
X155924833Y-136175857D01*
X155972452Y-136128238D01*
X156067690Y-136080619D01*
X156353404Y-136080619D01*
X156448642Y-136128238D01*
X156496261Y-136175857D01*
X156543880Y-136271095D01*
X156543880Y-136413952D01*
X155877214Y-135652047D02*
X156543880Y-135652047D01*
X155972452Y-135652047D02*
X155924833Y-135604428D01*
X155877214Y-135509190D01*
X155877214Y-135366333D01*
X155924833Y-135271095D01*
X156020071Y-135223476D01*
X156543880Y-135223476D01*
X155877214Y-134747285D02*
X156543880Y-134747285D01*
X155972452Y-134747285D02*
X155924833Y-134699666D01*
X155877214Y-134604428D01*
X155877214Y-134461571D01*
X155924833Y-134366333D01*
X156020071Y-134318714D01*
X156543880Y-134318714D01*
X153083880Y-137842523D02*
X153798166Y-137842523D01*
X153941023Y-137890142D01*
X154036261Y-137985380D01*
X154083880Y-138128238D01*
X154083880Y-138223476D01*
X154083880Y-136842523D02*
X154083880Y-137413952D01*
X154083880Y-137128238D02*
X153083880Y-137128238D01*
X153226738Y-137223476D01*
X153321976Y-137318714D01*
X153369595Y-137413952D01*
X153083880Y-136509190D02*
X153083880Y-135890142D01*
X153464833Y-136223476D01*
X153464833Y-136080619D01*
X153512452Y-135985380D01*
X153560071Y-135937761D01*
X153655309Y-135890142D01*
X153893404Y-135890142D01*
X153988642Y-135937761D01*
X154036261Y-135985380D01*
X154083880Y-136080619D01*
X154083880Y-136366333D01*
X154036261Y-136461571D01*
X153988642Y-136509190D01*
%TO.C,J12*%
X156670880Y-104504785D02*
X156004214Y-104504785D01*
X156194690Y-104504785D02*
X156099452Y-104457166D01*
X156051833Y-104409547D01*
X156004214Y-104314309D01*
X156004214Y-104219071D01*
X156670880Y-103361928D02*
X156670880Y-103933357D01*
X156670880Y-103647642D02*
X155670880Y-103647642D01*
X155813738Y-103742880D01*
X155908976Y-103838119D01*
X155956595Y-103933357D01*
X156766119Y-103171452D02*
X156766119Y-102409547D01*
X156623261Y-101742880D02*
X156670880Y-101838119D01*
X156670880Y-102028595D01*
X156623261Y-102123833D01*
X156575642Y-102171452D01*
X156480404Y-102219071D01*
X156194690Y-102219071D01*
X156099452Y-102171452D01*
X156051833Y-102123833D01*
X156004214Y-102028595D01*
X156004214Y-101838119D01*
X156051833Y-101742880D01*
X156670880Y-101171452D02*
X156623261Y-101266690D01*
X156575642Y-101314309D01*
X156480404Y-101361928D01*
X156194690Y-101361928D01*
X156099452Y-101314309D01*
X156051833Y-101266690D01*
X156004214Y-101171452D01*
X156004214Y-101028595D01*
X156051833Y-100933357D01*
X156099452Y-100885738D01*
X156194690Y-100838119D01*
X156480404Y-100838119D01*
X156575642Y-100885738D01*
X156623261Y-100933357D01*
X156670880Y-101028595D01*
X156670880Y-101171452D01*
X156004214Y-100409547D02*
X156670880Y-100409547D01*
X156099452Y-100409547D02*
X156051833Y-100361928D01*
X156004214Y-100266690D01*
X156004214Y-100123833D01*
X156051833Y-100028595D01*
X156147071Y-99980976D01*
X156670880Y-99980976D01*
X156004214Y-99504785D02*
X156670880Y-99504785D01*
X156099452Y-99504785D02*
X156051833Y-99457166D01*
X156004214Y-99361928D01*
X156004214Y-99219071D01*
X156051833Y-99123833D01*
X156147071Y-99076214D01*
X156670880Y-99076214D01*
X153210880Y-102600023D02*
X153925166Y-102600023D01*
X154068023Y-102647642D01*
X154163261Y-102742880D01*
X154210880Y-102885738D01*
X154210880Y-102980976D01*
X154210880Y-101600023D02*
X154210880Y-102171452D01*
X154210880Y-101885738D02*
X153210880Y-101885738D01*
X153353738Y-101980976D01*
X153448976Y-102076214D01*
X153496595Y-102171452D01*
X153306119Y-101219071D02*
X153258500Y-101171452D01*
X153210880Y-101076214D01*
X153210880Y-100838119D01*
X153258500Y-100742880D01*
X153306119Y-100695261D01*
X153401357Y-100647642D01*
X153496595Y-100647642D01*
X153639452Y-100695261D01*
X154210880Y-101266690D01*
X154210880Y-100647642D01*
%TO.C,J11*%
X156861380Y-121967285D02*
X156194714Y-121967285D01*
X156385190Y-121967285D02*
X156289952Y-121919666D01*
X156242333Y-121872047D01*
X156194714Y-121776809D01*
X156194714Y-121681571D01*
X155956619Y-121395857D02*
X155909000Y-121348238D01*
X155861380Y-121253000D01*
X155861380Y-121014904D01*
X155909000Y-120919666D01*
X155956619Y-120872047D01*
X156051857Y-120824428D01*
X156147095Y-120824428D01*
X156289952Y-120872047D01*
X156861380Y-121443476D01*
X156861380Y-120824428D01*
X156956619Y-120633952D02*
X156956619Y-119872047D01*
X156813761Y-119205380D02*
X156861380Y-119300619D01*
X156861380Y-119491095D01*
X156813761Y-119586333D01*
X156766142Y-119633952D01*
X156670904Y-119681571D01*
X156385190Y-119681571D01*
X156289952Y-119633952D01*
X156242333Y-119586333D01*
X156194714Y-119491095D01*
X156194714Y-119300619D01*
X156242333Y-119205380D01*
X156861380Y-118633952D02*
X156813761Y-118729190D01*
X156766142Y-118776809D01*
X156670904Y-118824428D01*
X156385190Y-118824428D01*
X156289952Y-118776809D01*
X156242333Y-118729190D01*
X156194714Y-118633952D01*
X156194714Y-118491095D01*
X156242333Y-118395857D01*
X156289952Y-118348238D01*
X156385190Y-118300619D01*
X156670904Y-118300619D01*
X156766142Y-118348238D01*
X156813761Y-118395857D01*
X156861380Y-118491095D01*
X156861380Y-118633952D01*
X156194714Y-117872047D02*
X156861380Y-117872047D01*
X156289952Y-117872047D02*
X156242333Y-117824428D01*
X156194714Y-117729190D01*
X156194714Y-117586333D01*
X156242333Y-117491095D01*
X156337571Y-117443476D01*
X156861380Y-117443476D01*
X156194714Y-116967285D02*
X156861380Y-116967285D01*
X156289952Y-116967285D02*
X156242333Y-116919666D01*
X156194714Y-116824428D01*
X156194714Y-116681571D01*
X156242333Y-116586333D01*
X156337571Y-116538714D01*
X156861380Y-116538714D01*
X153401380Y-120062523D02*
X154115666Y-120062523D01*
X154258523Y-120110142D01*
X154353761Y-120205380D01*
X154401380Y-120348238D01*
X154401380Y-120443476D01*
X154401380Y-119062523D02*
X154401380Y-119633952D01*
X154401380Y-119348238D02*
X153401380Y-119348238D01*
X153544238Y-119443476D01*
X153639476Y-119538714D01*
X153687095Y-119633952D01*
X154401380Y-118110142D02*
X154401380Y-118681571D01*
X154401380Y-118395857D02*
X153401380Y-118395857D01*
X153544238Y-118491095D01*
X153639476Y-118586333D01*
X153687095Y-118681571D01*
%TO.C,J10*%
X38480380Y-95678285D02*
X37813714Y-95678285D01*
X38004190Y-95678285D02*
X37908952Y-95630666D01*
X37861333Y-95583047D01*
X37813714Y-95487809D01*
X37813714Y-95392571D01*
X37480380Y-94583047D02*
X37480380Y-95059238D01*
X37956571Y-95106857D01*
X37908952Y-95059238D01*
X37861333Y-94964000D01*
X37861333Y-94725904D01*
X37908952Y-94630666D01*
X37956571Y-94583047D01*
X38051809Y-94535428D01*
X38289904Y-94535428D01*
X38385142Y-94583047D01*
X38432761Y-94630666D01*
X38480380Y-94725904D01*
X38480380Y-94964000D01*
X38432761Y-95059238D01*
X38385142Y-95106857D01*
X38575619Y-94344952D02*
X38575619Y-93583047D01*
X38432761Y-92916380D02*
X38480380Y-93011619D01*
X38480380Y-93202095D01*
X38432761Y-93297333D01*
X38385142Y-93344952D01*
X38289904Y-93392571D01*
X38004190Y-93392571D01*
X37908952Y-93344952D01*
X37861333Y-93297333D01*
X37813714Y-93202095D01*
X37813714Y-93011619D01*
X37861333Y-92916380D01*
X38480380Y-92344952D02*
X38432761Y-92440190D01*
X38385142Y-92487809D01*
X38289904Y-92535428D01*
X38004190Y-92535428D01*
X37908952Y-92487809D01*
X37861333Y-92440190D01*
X37813714Y-92344952D01*
X37813714Y-92202095D01*
X37861333Y-92106857D01*
X37908952Y-92059238D01*
X38004190Y-92011619D01*
X38289904Y-92011619D01*
X38385142Y-92059238D01*
X38432761Y-92106857D01*
X38480380Y-92202095D01*
X38480380Y-92344952D01*
X37813714Y-91583047D02*
X38480380Y-91583047D01*
X37908952Y-91583047D02*
X37861333Y-91535428D01*
X37813714Y-91440190D01*
X37813714Y-91297333D01*
X37861333Y-91202095D01*
X37956571Y-91154476D01*
X38480380Y-91154476D01*
X37813714Y-90678285D02*
X38480380Y-90678285D01*
X37908952Y-90678285D02*
X37861333Y-90630666D01*
X37813714Y-90535428D01*
X37813714Y-90392571D01*
X37861333Y-90297333D01*
X37956571Y-90249714D01*
X38480380Y-90249714D01*
X39940380Y-93773523D02*
X40654666Y-93773523D01*
X40797523Y-93821142D01*
X40892761Y-93916380D01*
X40940380Y-94059238D01*
X40940380Y-94154476D01*
X40940380Y-92773523D02*
X40940380Y-93344952D01*
X40940380Y-93059238D02*
X39940380Y-93059238D01*
X40083238Y-93154476D01*
X40178476Y-93249714D01*
X40226095Y-93344952D01*
X39940380Y-92154476D02*
X39940380Y-92059238D01*
X39988000Y-91964000D01*
X40035619Y-91916380D01*
X40130857Y-91868761D01*
X40321333Y-91821142D01*
X40559428Y-91821142D01*
X40749904Y-91868761D01*
X40845142Y-91916380D01*
X40892761Y-91964000D01*
X40940380Y-92059238D01*
X40940380Y-92154476D01*
X40892761Y-92249714D01*
X40845142Y-92297333D01*
X40749904Y-92344952D01*
X40559428Y-92392571D01*
X40321333Y-92392571D01*
X40130857Y-92344952D01*
X40035619Y-92297333D01*
X39988000Y-92249714D01*
X39940380Y-92154476D01*
%TO.C,C2*%
X58542742Y-140079776D02*
X58590361Y-140127395D01*
X58637980Y-140270252D01*
X58637980Y-140365490D01*
X58590361Y-140508347D01*
X58495123Y-140603585D01*
X58399885Y-140651204D01*
X58209409Y-140698823D01*
X58066552Y-140698823D01*
X57876076Y-140651204D01*
X57780838Y-140603585D01*
X57685600Y-140508347D01*
X57637980Y-140365490D01*
X57637980Y-140270252D01*
X57685600Y-140127395D01*
X57733219Y-140079776D01*
X58733219Y-139889300D02*
X58733219Y-139127395D01*
X58590361Y-138936919D02*
X58637980Y-138794061D01*
X58637980Y-138555966D01*
X58590361Y-138460728D01*
X58542742Y-138413109D01*
X58447504Y-138365490D01*
X58352266Y-138365490D01*
X58257028Y-138413109D01*
X58209409Y-138460728D01*
X58161790Y-138555966D01*
X58114171Y-138746442D01*
X58066552Y-138841680D01*
X58018933Y-138889300D01*
X57923695Y-138936919D01*
X57828457Y-138936919D01*
X57733219Y-138889300D01*
X57685600Y-138841680D01*
X57637980Y-138746442D01*
X57637980Y-138508347D01*
X57685600Y-138365490D01*
X58637980Y-137936919D02*
X57971314Y-137936919D01*
X58066552Y-137936919D02*
X58018933Y-137889300D01*
X57971314Y-137794061D01*
X57971314Y-137651204D01*
X58018933Y-137555966D01*
X58114171Y-137508347D01*
X58637980Y-137508347D01*
X58114171Y-137508347D02*
X58018933Y-137460728D01*
X57971314Y-137365490D01*
X57971314Y-137222633D01*
X58018933Y-137127395D01*
X58114171Y-137079776D01*
X58637980Y-137079776D01*
X58637980Y-136175014D02*
X58114171Y-136175014D01*
X58018933Y-136222633D01*
X57971314Y-136317871D01*
X57971314Y-136508347D01*
X58018933Y-136603585D01*
X58590361Y-136175014D02*
X58637980Y-136270252D01*
X58637980Y-136508347D01*
X58590361Y-136603585D01*
X58495123Y-136651204D01*
X58399885Y-136651204D01*
X58304647Y-136603585D01*
X58257028Y-136508347D01*
X58257028Y-136270252D01*
X58209409Y-136175014D01*
X58637980Y-135555966D02*
X58590361Y-135651204D01*
X58495123Y-135698823D01*
X57637980Y-135698823D01*
X58637980Y-135032157D02*
X58590361Y-135127395D01*
X58495123Y-135175014D01*
X57637980Y-135175014D01*
X62942742Y-138055966D02*
X62990361Y-138103585D01*
X63037980Y-138246442D01*
X63037980Y-138341680D01*
X62990361Y-138484538D01*
X62895123Y-138579776D01*
X62799885Y-138627395D01*
X62609409Y-138675014D01*
X62466552Y-138675014D01*
X62276076Y-138627395D01*
X62180838Y-138579776D01*
X62085600Y-138484538D01*
X62037980Y-138341680D01*
X62037980Y-138246442D01*
X62085600Y-138103585D01*
X62133219Y-138055966D01*
X62133219Y-137675014D02*
X62085600Y-137627395D01*
X62037980Y-137532157D01*
X62037980Y-137294061D01*
X62085600Y-137198823D01*
X62133219Y-137151204D01*
X62228457Y-137103585D01*
X62323695Y-137103585D01*
X62466552Y-137151204D01*
X63037980Y-137722633D01*
X63037980Y-137103585D01*
%TO.C,U2*%
X75042285Y-103703380D02*
X75042285Y-102703380D01*
X75613714Y-103703380D01*
X75613714Y-102703380D01*
X76232761Y-103703380D02*
X76137523Y-103655761D01*
X76089904Y-103608142D01*
X76042285Y-103512904D01*
X76042285Y-103227190D01*
X76089904Y-103131952D01*
X76137523Y-103084333D01*
X76232761Y-103036714D01*
X76375619Y-103036714D01*
X76470857Y-103084333D01*
X76518476Y-103131952D01*
X76566095Y-103227190D01*
X76566095Y-103512904D01*
X76518476Y-103608142D01*
X76470857Y-103655761D01*
X76375619Y-103703380D01*
X76232761Y-103703380D01*
X77423238Y-103703380D02*
X77423238Y-102703380D01*
X77423238Y-103655761D02*
X77328000Y-103703380D01*
X77137523Y-103703380D01*
X77042285Y-103655761D01*
X76994666Y-103608142D01*
X76947047Y-103512904D01*
X76947047Y-103227190D01*
X76994666Y-103131952D01*
X77042285Y-103084333D01*
X77137523Y-103036714D01*
X77328000Y-103036714D01*
X77423238Y-103084333D01*
X78280380Y-103655761D02*
X78185142Y-103703380D01*
X77994666Y-103703380D01*
X77899428Y-103655761D01*
X77851809Y-103560523D01*
X77851809Y-103179571D01*
X77899428Y-103084333D01*
X77994666Y-103036714D01*
X78185142Y-103036714D01*
X78280380Y-103084333D01*
X78328000Y-103179571D01*
X78328000Y-103274809D01*
X77851809Y-103370047D01*
X78756571Y-103703380D02*
X78756571Y-102703380D01*
X79089904Y-103417666D01*
X79423238Y-102703380D01*
X79423238Y-103703380D01*
X80470857Y-103608142D02*
X80423238Y-103655761D01*
X80280380Y-103703380D01*
X80185142Y-103703380D01*
X80042285Y-103655761D01*
X79947047Y-103560523D01*
X79899428Y-103465285D01*
X79851809Y-103274809D01*
X79851809Y-103131952D01*
X79899428Y-102941476D01*
X79947047Y-102846238D01*
X80042285Y-102751000D01*
X80185142Y-102703380D01*
X80280380Y-102703380D01*
X80423238Y-102751000D01*
X80470857Y-102798619D01*
X80899428Y-102703380D02*
X80899428Y-103512904D01*
X80947047Y-103608142D01*
X80994666Y-103655761D01*
X81089904Y-103703380D01*
X81280380Y-103703380D01*
X81375619Y-103655761D01*
X81423238Y-103608142D01*
X81470857Y-103512904D01*
X81470857Y-102703380D01*
X81708952Y-103798619D02*
X82470857Y-103798619D01*
X83232761Y-103703380D02*
X82661333Y-103703380D01*
X82947047Y-103703380D02*
X82947047Y-102703380D01*
X82851809Y-102846238D01*
X82756571Y-102941476D01*
X82661333Y-102989095D01*
X83661333Y-103608142D02*
X83708952Y-103655761D01*
X83661333Y-103703380D01*
X83613714Y-103655761D01*
X83661333Y-103608142D01*
X83661333Y-103703380D01*
X84328000Y-102703380D02*
X84423238Y-102703380D01*
X84518476Y-102751000D01*
X84566095Y-102798619D01*
X84613714Y-102893857D01*
X84661333Y-103084333D01*
X84661333Y-103322428D01*
X84613714Y-103512904D01*
X84566095Y-103608142D01*
X84518476Y-103655761D01*
X84423238Y-103703380D01*
X84328000Y-103703380D01*
X84232761Y-103655761D01*
X84185142Y-103608142D01*
X84137523Y-103512904D01*
X84089904Y-103322428D01*
X84089904Y-103084333D01*
X84137523Y-102893857D01*
X84185142Y-102798619D01*
X84232761Y-102751000D01*
X84328000Y-102703380D01*
X84851809Y-103798619D02*
X85613714Y-103798619D01*
X86137523Y-104084333D02*
X86089904Y-104036714D01*
X85994666Y-103893857D01*
X85947047Y-103798619D01*
X85899428Y-103655761D01*
X85851809Y-103417666D01*
X85851809Y-103227190D01*
X85899428Y-102989095D01*
X85947047Y-102846238D01*
X85994666Y-102751000D01*
X86089904Y-102608142D01*
X86137523Y-102560523D01*
X86518476Y-103179571D02*
X86851809Y-103179571D01*
X86994666Y-103703380D02*
X86518476Y-103703380D01*
X86518476Y-102703380D01*
X86994666Y-102703380D01*
X87375619Y-103655761D02*
X87518476Y-103703380D01*
X87756571Y-103703380D01*
X87851809Y-103655761D01*
X87899428Y-103608142D01*
X87947047Y-103512904D01*
X87947047Y-103417666D01*
X87899428Y-103322428D01*
X87851809Y-103274809D01*
X87756571Y-103227190D01*
X87566095Y-103179571D01*
X87470857Y-103131952D01*
X87423238Y-103084333D01*
X87375619Y-102989095D01*
X87375619Y-102893857D01*
X87423238Y-102798619D01*
X87470857Y-102751000D01*
X87566095Y-102703380D01*
X87804190Y-102703380D01*
X87947047Y-102751000D01*
X88375619Y-103703380D02*
X88375619Y-102703380D01*
X88756571Y-102703380D01*
X88851809Y-102751000D01*
X88899428Y-102798619D01*
X88947047Y-102893857D01*
X88947047Y-103036714D01*
X88899428Y-103131952D01*
X88851809Y-103179571D01*
X88756571Y-103227190D01*
X88375619Y-103227190D01*
X89375619Y-103322428D02*
X90137523Y-103322428D01*
X91137523Y-103703380D02*
X90566095Y-103703380D01*
X90851809Y-103703380D02*
X90851809Y-102703380D01*
X90756571Y-102846238D01*
X90661333Y-102941476D01*
X90566095Y-102989095D01*
X91518476Y-102798619D02*
X91566095Y-102751000D01*
X91661333Y-102703380D01*
X91899428Y-102703380D01*
X91994666Y-102751000D01*
X92042285Y-102798619D01*
X92089904Y-102893857D01*
X92089904Y-102989095D01*
X92042285Y-103131952D01*
X91470857Y-103703380D01*
X92089904Y-103703380D01*
X92518476Y-103179571D02*
X92851809Y-103179571D01*
X92994666Y-103703380D02*
X92518476Y-103703380D01*
X92518476Y-102703380D01*
X92994666Y-102703380D01*
X93328000Y-104084333D02*
X93375619Y-104036714D01*
X93470857Y-103893857D01*
X93518476Y-103798619D01*
X93566095Y-103655761D01*
X93613714Y-103417666D01*
X93613714Y-103227190D01*
X93566095Y-102989095D01*
X93518476Y-102846238D01*
X93470857Y-102751000D01*
X93375619Y-102608142D01*
X93328000Y-102560523D01*
%TO.C,R7*%
X77463923Y-89725580D02*
X77130590Y-89249390D01*
X76892495Y-89725580D02*
X76892495Y-88725580D01*
X77273447Y-88725580D01*
X77368685Y-88773200D01*
X77416304Y-88820819D01*
X77463923Y-88916057D01*
X77463923Y-89058914D01*
X77416304Y-89154152D01*
X77368685Y-89201771D01*
X77273447Y-89249390D01*
X76892495Y-89249390D01*
X77654400Y-89820819D02*
X78416304Y-89820819D01*
X78606780Y-89677961D02*
X78749638Y-89725580D01*
X78987733Y-89725580D01*
X79082971Y-89677961D01*
X79130590Y-89630342D01*
X79178209Y-89535104D01*
X79178209Y-89439866D01*
X79130590Y-89344628D01*
X79082971Y-89297009D01*
X78987733Y-89249390D01*
X78797257Y-89201771D01*
X78702019Y-89154152D01*
X78654400Y-89106533D01*
X78606780Y-89011295D01*
X78606780Y-88916057D01*
X78654400Y-88820819D01*
X78702019Y-88773200D01*
X78797257Y-88725580D01*
X79035352Y-88725580D01*
X79178209Y-88773200D01*
X79606780Y-89725580D02*
X79606780Y-89058914D01*
X79606780Y-89154152D02*
X79654400Y-89106533D01*
X79749638Y-89058914D01*
X79892495Y-89058914D01*
X79987733Y-89106533D01*
X80035352Y-89201771D01*
X80035352Y-89725580D01*
X80035352Y-89201771D02*
X80082971Y-89106533D01*
X80178209Y-89058914D01*
X80321066Y-89058914D01*
X80416304Y-89106533D01*
X80463923Y-89201771D01*
X80463923Y-89725580D01*
X81368685Y-89725580D02*
X81368685Y-89201771D01*
X81321066Y-89106533D01*
X81225828Y-89058914D01*
X81035352Y-89058914D01*
X80940114Y-89106533D01*
X81368685Y-89677961D02*
X81273447Y-89725580D01*
X81035352Y-89725580D01*
X80940114Y-89677961D01*
X80892495Y-89582723D01*
X80892495Y-89487485D01*
X80940114Y-89392247D01*
X81035352Y-89344628D01*
X81273447Y-89344628D01*
X81368685Y-89297009D01*
X81987733Y-89725580D02*
X81892495Y-89677961D01*
X81844876Y-89582723D01*
X81844876Y-88725580D01*
X82511542Y-89725580D02*
X82416304Y-89677961D01*
X82368685Y-89582723D01*
X82368685Y-88725580D01*
X79487733Y-92095580D02*
X79154400Y-91619390D01*
X78916304Y-92095580D02*
X78916304Y-91095580D01*
X79297257Y-91095580D01*
X79392495Y-91143200D01*
X79440114Y-91190819D01*
X79487733Y-91286057D01*
X79487733Y-91428914D01*
X79440114Y-91524152D01*
X79392495Y-91571771D01*
X79297257Y-91619390D01*
X78916304Y-91619390D01*
X79821066Y-91095580D02*
X80487733Y-91095580D01*
X80059161Y-92095580D01*
%TO.C,R4*%
X92773580Y-97846876D02*
X92297390Y-98180209D01*
X92773580Y-98418304D02*
X91773580Y-98418304D01*
X91773580Y-98037352D01*
X91821200Y-97942114D01*
X91868819Y-97894495D01*
X91964057Y-97846876D01*
X92106914Y-97846876D01*
X92202152Y-97894495D01*
X92249771Y-97942114D01*
X92297390Y-98037352D01*
X92297390Y-98418304D01*
X92868819Y-97656400D02*
X92868819Y-96894495D01*
X92725961Y-96704019D02*
X92773580Y-96561161D01*
X92773580Y-96323066D01*
X92725961Y-96227828D01*
X92678342Y-96180209D01*
X92583104Y-96132590D01*
X92487866Y-96132590D01*
X92392628Y-96180209D01*
X92345009Y-96227828D01*
X92297390Y-96323066D01*
X92249771Y-96513542D01*
X92202152Y-96608780D01*
X92154533Y-96656400D01*
X92059295Y-96704019D01*
X91964057Y-96704019D01*
X91868819Y-96656400D01*
X91821200Y-96608780D01*
X91773580Y-96513542D01*
X91773580Y-96275447D01*
X91821200Y-96132590D01*
X92773580Y-95704019D02*
X92106914Y-95704019D01*
X92202152Y-95704019D02*
X92154533Y-95656400D01*
X92106914Y-95561161D01*
X92106914Y-95418304D01*
X92154533Y-95323066D01*
X92249771Y-95275447D01*
X92773580Y-95275447D01*
X92249771Y-95275447D02*
X92154533Y-95227828D01*
X92106914Y-95132590D01*
X92106914Y-94989733D01*
X92154533Y-94894495D01*
X92249771Y-94846876D01*
X92773580Y-94846876D01*
X92773580Y-93942114D02*
X92249771Y-93942114D01*
X92154533Y-93989733D01*
X92106914Y-94084971D01*
X92106914Y-94275447D01*
X92154533Y-94370685D01*
X92725961Y-93942114D02*
X92773580Y-94037352D01*
X92773580Y-94275447D01*
X92725961Y-94370685D01*
X92630723Y-94418304D01*
X92535485Y-94418304D01*
X92440247Y-94370685D01*
X92392628Y-94275447D01*
X92392628Y-94037352D01*
X92345009Y-93942114D01*
X92773580Y-93323066D02*
X92725961Y-93418304D01*
X92630723Y-93465923D01*
X91773580Y-93465923D01*
X92773580Y-92799257D02*
X92725961Y-92894495D01*
X92630723Y-92942114D01*
X91773580Y-92942114D01*
X95143580Y-95823066D02*
X94667390Y-96156400D01*
X95143580Y-96394495D02*
X94143580Y-96394495D01*
X94143580Y-96013542D01*
X94191200Y-95918304D01*
X94238819Y-95870685D01*
X94334057Y-95823066D01*
X94476914Y-95823066D01*
X94572152Y-95870685D01*
X94619771Y-95918304D01*
X94667390Y-96013542D01*
X94667390Y-96394495D01*
X94476914Y-94965923D02*
X95143580Y-94965923D01*
X94095961Y-95204019D02*
X94810247Y-95442114D01*
X94810247Y-94823066D01*
%TO.C,R2*%
X103914380Y-96424476D02*
X103438190Y-96757809D01*
X103914380Y-96995904D02*
X102914380Y-96995904D01*
X102914380Y-96614952D01*
X102962000Y-96519714D01*
X103009619Y-96472095D01*
X103104857Y-96424476D01*
X103247714Y-96424476D01*
X103342952Y-96472095D01*
X103390571Y-96519714D01*
X103438190Y-96614952D01*
X103438190Y-96995904D01*
X104009619Y-96234000D02*
X104009619Y-95472095D01*
X103866761Y-95281619D02*
X103914380Y-95138761D01*
X103914380Y-94900666D01*
X103866761Y-94805428D01*
X103819142Y-94757809D01*
X103723904Y-94710190D01*
X103628666Y-94710190D01*
X103533428Y-94757809D01*
X103485809Y-94805428D01*
X103438190Y-94900666D01*
X103390571Y-95091142D01*
X103342952Y-95186380D01*
X103295333Y-95234000D01*
X103200095Y-95281619D01*
X103104857Y-95281619D01*
X103009619Y-95234000D01*
X102962000Y-95186380D01*
X102914380Y-95091142D01*
X102914380Y-94853047D01*
X102962000Y-94710190D01*
X103914380Y-94281619D02*
X103247714Y-94281619D01*
X103342952Y-94281619D02*
X103295333Y-94234000D01*
X103247714Y-94138761D01*
X103247714Y-93995904D01*
X103295333Y-93900666D01*
X103390571Y-93853047D01*
X103914380Y-93853047D01*
X103390571Y-93853047D02*
X103295333Y-93805428D01*
X103247714Y-93710190D01*
X103247714Y-93567333D01*
X103295333Y-93472095D01*
X103390571Y-93424476D01*
X103914380Y-93424476D01*
X103914380Y-92519714D02*
X103390571Y-92519714D01*
X103295333Y-92567333D01*
X103247714Y-92662571D01*
X103247714Y-92853047D01*
X103295333Y-92948285D01*
X103866761Y-92519714D02*
X103914380Y-92614952D01*
X103914380Y-92853047D01*
X103866761Y-92948285D01*
X103771523Y-92995904D01*
X103676285Y-92995904D01*
X103581047Y-92948285D01*
X103533428Y-92853047D01*
X103533428Y-92614952D01*
X103485809Y-92519714D01*
X103914380Y-91900666D02*
X103866761Y-91995904D01*
X103771523Y-92043523D01*
X102914380Y-92043523D01*
X103914380Y-91376857D02*
X103866761Y-91472095D01*
X103771523Y-91519714D01*
X102914380Y-91519714D01*
X101544380Y-94400666D02*
X101068190Y-94734000D01*
X101544380Y-94972095D02*
X100544380Y-94972095D01*
X100544380Y-94591142D01*
X100592000Y-94495904D01*
X100639619Y-94448285D01*
X100734857Y-94400666D01*
X100877714Y-94400666D01*
X100972952Y-94448285D01*
X101020571Y-94495904D01*
X101068190Y-94591142D01*
X101068190Y-94972095D01*
X100639619Y-94019714D02*
X100592000Y-93972095D01*
X100544380Y-93876857D01*
X100544380Y-93638761D01*
X100592000Y-93543523D01*
X100639619Y-93495904D01*
X100734857Y-93448285D01*
X100830095Y-93448285D01*
X100972952Y-93495904D01*
X101544380Y-94067333D01*
X101544380Y-93448285D01*
%TO.C,R1*%
X81947023Y-117503380D02*
X81613690Y-117027190D01*
X81375595Y-117503380D02*
X81375595Y-116503380D01*
X81756547Y-116503380D01*
X81851785Y-116551000D01*
X81899404Y-116598619D01*
X81947023Y-116693857D01*
X81947023Y-116836714D01*
X81899404Y-116931952D01*
X81851785Y-116979571D01*
X81756547Y-117027190D01*
X81375595Y-117027190D01*
X82137500Y-117598619D02*
X82899404Y-117598619D01*
X83089880Y-117455761D02*
X83232738Y-117503380D01*
X83470833Y-117503380D01*
X83566071Y-117455761D01*
X83613690Y-117408142D01*
X83661309Y-117312904D01*
X83661309Y-117217666D01*
X83613690Y-117122428D01*
X83566071Y-117074809D01*
X83470833Y-117027190D01*
X83280357Y-116979571D01*
X83185119Y-116931952D01*
X83137500Y-116884333D01*
X83089880Y-116789095D01*
X83089880Y-116693857D01*
X83137500Y-116598619D01*
X83185119Y-116551000D01*
X83280357Y-116503380D01*
X83518452Y-116503380D01*
X83661309Y-116551000D01*
X84089880Y-117503380D02*
X84089880Y-116836714D01*
X84089880Y-116931952D02*
X84137500Y-116884333D01*
X84232738Y-116836714D01*
X84375595Y-116836714D01*
X84470833Y-116884333D01*
X84518452Y-116979571D01*
X84518452Y-117503380D01*
X84518452Y-116979571D02*
X84566071Y-116884333D01*
X84661309Y-116836714D01*
X84804166Y-116836714D01*
X84899404Y-116884333D01*
X84947023Y-116979571D01*
X84947023Y-117503380D01*
X85851785Y-117503380D02*
X85851785Y-116979571D01*
X85804166Y-116884333D01*
X85708928Y-116836714D01*
X85518452Y-116836714D01*
X85423214Y-116884333D01*
X85851785Y-117455761D02*
X85756547Y-117503380D01*
X85518452Y-117503380D01*
X85423214Y-117455761D01*
X85375595Y-117360523D01*
X85375595Y-117265285D01*
X85423214Y-117170047D01*
X85518452Y-117122428D01*
X85756547Y-117122428D01*
X85851785Y-117074809D01*
X86470833Y-117503380D02*
X86375595Y-117455761D01*
X86327976Y-117360523D01*
X86327976Y-116503380D01*
X86994642Y-117503380D02*
X86899404Y-117455761D01*
X86851785Y-117360523D01*
X86851785Y-116503380D01*
X83970833Y-115133380D02*
X83637500Y-114657190D01*
X83399404Y-115133380D02*
X83399404Y-114133380D01*
X83780357Y-114133380D01*
X83875595Y-114181000D01*
X83923214Y-114228619D01*
X83970833Y-114323857D01*
X83970833Y-114466714D01*
X83923214Y-114561952D01*
X83875595Y-114609571D01*
X83780357Y-114657190D01*
X83399404Y-114657190D01*
X84923214Y-115133380D02*
X84351785Y-115133380D01*
X84637500Y-115133380D02*
X84637500Y-114133380D01*
X84542261Y-114276238D01*
X84447023Y-114371476D01*
X84351785Y-114419095D01*
%TO.C,Q1*%
X79790171Y-99240742D02*
X79837790Y-99097885D01*
X79885409Y-99050266D01*
X79980647Y-99002647D01*
X80123504Y-99002647D01*
X80218742Y-99050266D01*
X80266361Y-99097885D01*
X80313980Y-99193123D01*
X80313980Y-99574076D01*
X79313980Y-99574076D01*
X79313980Y-99240742D01*
X79361600Y-99145504D01*
X79409219Y-99097885D01*
X79504457Y-99050266D01*
X79599695Y-99050266D01*
X79694933Y-99097885D01*
X79742552Y-99145504D01*
X79790171Y-99240742D01*
X79790171Y-99574076D01*
X80218742Y-98002647D02*
X80266361Y-98050266D01*
X80313980Y-98193123D01*
X80313980Y-98288361D01*
X80266361Y-98431219D01*
X80171123Y-98526457D01*
X80075885Y-98574076D01*
X79885409Y-98621695D01*
X79742552Y-98621695D01*
X79552076Y-98574076D01*
X79456838Y-98526457D01*
X79361600Y-98431219D01*
X79313980Y-98288361D01*
X79313980Y-98193123D01*
X79361600Y-98050266D01*
X79409219Y-98002647D01*
X79313980Y-97097885D02*
X79313980Y-97574076D01*
X79790171Y-97621695D01*
X79742552Y-97574076D01*
X79694933Y-97478838D01*
X79694933Y-97240742D01*
X79742552Y-97145504D01*
X79790171Y-97097885D01*
X79885409Y-97050266D01*
X80123504Y-97050266D01*
X80218742Y-97097885D01*
X80266361Y-97145504D01*
X80313980Y-97240742D01*
X80313980Y-97478838D01*
X80266361Y-97574076D01*
X80218742Y-97621695D01*
X79647314Y-96193123D02*
X80313980Y-96193123D01*
X79266361Y-96431219D02*
X79980647Y-96669314D01*
X79980647Y-96050266D01*
X79313980Y-95764552D02*
X79313980Y-95097885D01*
X80313980Y-95526457D01*
X83199219Y-97478838D02*
X83151600Y-97574076D01*
X83056361Y-97669314D01*
X82913504Y-97812171D01*
X82865885Y-97907409D01*
X82865885Y-98002647D01*
X83103980Y-97955028D02*
X83056361Y-98050266D01*
X82961123Y-98145504D01*
X82770647Y-98193123D01*
X82437314Y-98193123D01*
X82246838Y-98145504D01*
X82151600Y-98050266D01*
X82103980Y-97955028D01*
X82103980Y-97764552D01*
X82151600Y-97669314D01*
X82246838Y-97574076D01*
X82437314Y-97526457D01*
X82770647Y-97526457D01*
X82961123Y-97574076D01*
X83056361Y-97669314D01*
X83103980Y-97764552D01*
X83103980Y-97955028D01*
X83103980Y-96574076D02*
X83103980Y-97145504D01*
X83103980Y-96859790D02*
X82103980Y-96859790D01*
X82246838Y-96955028D01*
X82342076Y-97050266D01*
X82389695Y-97145504D01*
%TO.C,K1*%
X48908000Y-94521066D02*
X48860380Y-94616304D01*
X48860380Y-94759161D01*
X48908000Y-94902019D01*
X49003238Y-94997257D01*
X49098476Y-95044876D01*
X49288952Y-95092495D01*
X49431809Y-95092495D01*
X49622285Y-95044876D01*
X49717523Y-94997257D01*
X49812761Y-94902019D01*
X49860380Y-94759161D01*
X49860380Y-94663923D01*
X49812761Y-94521066D01*
X49765142Y-94473447D01*
X49431809Y-94473447D01*
X49431809Y-94663923D01*
X48860380Y-93568685D02*
X48860380Y-94044876D01*
X49336571Y-94092495D01*
X49288952Y-94044876D01*
X49241333Y-93949638D01*
X49241333Y-93711542D01*
X49288952Y-93616304D01*
X49336571Y-93568685D01*
X49431809Y-93521066D01*
X49669904Y-93521066D01*
X49765142Y-93568685D01*
X49812761Y-93616304D01*
X49860380Y-93711542D01*
X49860380Y-93949638D01*
X49812761Y-94044876D01*
X49765142Y-94092495D01*
X49860380Y-92616304D02*
X49860380Y-93092495D01*
X48860380Y-93092495D01*
X49336571Y-92282971D02*
X49336571Y-91949638D01*
X49860380Y-91806780D02*
X49860380Y-92282971D01*
X48860380Y-92282971D01*
X48860380Y-91806780D01*
X49479428Y-91378209D02*
X49479428Y-90616304D01*
X49860380Y-89616304D02*
X49860380Y-90187733D01*
X49860380Y-89902019D02*
X48860380Y-89902019D01*
X49003238Y-89997257D01*
X49098476Y-90092495D01*
X49146095Y-90187733D01*
X62110380Y-93092495D02*
X61110380Y-93092495D01*
X62110380Y-92521066D02*
X61538952Y-92949638D01*
X61110380Y-92521066D02*
X61681809Y-93092495D01*
X62110380Y-91568685D02*
X62110380Y-92140114D01*
X62110380Y-91854400D02*
X61110380Y-91854400D01*
X61253238Y-91949638D01*
X61348476Y-92044876D01*
X61396095Y-92140114D01*
%TO.C,J2*%
X99036571Y-124416714D02*
X99036571Y-125083380D01*
X98608000Y-124416714D02*
X98608000Y-124940523D01*
X98655619Y-125035761D01*
X98750857Y-125083380D01*
X98893714Y-125083380D01*
X98988952Y-125035761D01*
X99036571Y-124988142D01*
X99655619Y-125083380D02*
X99560380Y-125035761D01*
X99512761Y-124940523D01*
X99512761Y-124083380D01*
X99893714Y-124416714D02*
X100274666Y-124416714D01*
X100036571Y-124083380D02*
X100036571Y-124940523D01*
X100084190Y-125035761D01*
X100179428Y-125083380D01*
X100274666Y-125083380D01*
X100608000Y-125083380D02*
X100608000Y-124416714D01*
X100608000Y-124607190D02*
X100655619Y-124511952D01*
X100703238Y-124464333D01*
X100798476Y-124416714D01*
X100893714Y-124416714D01*
X101655619Y-125083380D02*
X101655619Y-124559571D01*
X101608000Y-124464333D01*
X101512761Y-124416714D01*
X101322285Y-124416714D01*
X101227047Y-124464333D01*
X101655619Y-125035761D02*
X101560380Y-125083380D01*
X101322285Y-125083380D01*
X101227047Y-125035761D01*
X101179428Y-124940523D01*
X101179428Y-124845285D01*
X101227047Y-124750047D01*
X101322285Y-124702428D01*
X101560380Y-124702428D01*
X101655619Y-124654809D01*
X102084190Y-125035761D02*
X102179428Y-125083380D01*
X102369904Y-125083380D01*
X102465142Y-125035761D01*
X102512761Y-124940523D01*
X102512761Y-124892904D01*
X102465142Y-124797666D01*
X102369904Y-124750047D01*
X102227047Y-124750047D01*
X102131809Y-124702428D01*
X102084190Y-124607190D01*
X102084190Y-124559571D01*
X102131809Y-124464333D01*
X102227047Y-124416714D01*
X102369904Y-124416714D01*
X102465142Y-124464333D01*
X103084190Y-125083380D02*
X102988952Y-125035761D01*
X102941333Y-124988142D01*
X102893714Y-124892904D01*
X102893714Y-124607190D01*
X102941333Y-124511952D01*
X102988952Y-124464333D01*
X103084190Y-124416714D01*
X103227047Y-124416714D01*
X103322285Y-124464333D01*
X103369904Y-124511952D01*
X103417523Y-124607190D01*
X103417523Y-124892904D01*
X103369904Y-124988142D01*
X103322285Y-125035761D01*
X103227047Y-125083380D01*
X103084190Y-125083380D01*
X103846095Y-124416714D02*
X103846095Y-125083380D01*
X103846095Y-124511952D02*
X103893714Y-124464333D01*
X103988952Y-124416714D01*
X104131809Y-124416714D01*
X104227047Y-124464333D01*
X104274666Y-124559571D01*
X104274666Y-125083380D01*
X104750857Y-125083380D02*
X104750857Y-124416714D01*
X104750857Y-124083380D02*
X104703238Y-124131000D01*
X104750857Y-124178619D01*
X104798476Y-124131000D01*
X104750857Y-124083380D01*
X104750857Y-124178619D01*
X105655619Y-125035761D02*
X105560380Y-125083380D01*
X105369904Y-125083380D01*
X105274666Y-125035761D01*
X105227047Y-124988142D01*
X105179428Y-124892904D01*
X105179428Y-124607190D01*
X105227047Y-124511952D01*
X105274666Y-124464333D01*
X105369904Y-124416714D01*
X105560380Y-124416714D01*
X105655619Y-124464333D01*
X101560380Y-118824333D02*
X102274666Y-118824333D01*
X102417523Y-118871952D01*
X102512761Y-118967190D01*
X102560380Y-119110047D01*
X102560380Y-119205285D01*
X101655619Y-118395761D02*
X101608000Y-118348142D01*
X101560380Y-118252904D01*
X101560380Y-118014809D01*
X101608000Y-117919571D01*
X101655619Y-117871952D01*
X101750857Y-117824333D01*
X101846095Y-117824333D01*
X101988952Y-117871952D01*
X102560380Y-118443380D01*
X102560380Y-117824333D01*
%TO.C,D6*%
X81526780Y-98331257D02*
X81526780Y-98807447D01*
X80526780Y-98807447D01*
X81002971Y-97997923D02*
X81002971Y-97664590D01*
X81526780Y-97521733D02*
X81526780Y-97997923D01*
X80526780Y-97997923D01*
X80526780Y-97521733D01*
X81526780Y-97093161D02*
X80526780Y-97093161D01*
X80526780Y-96855066D01*
X80574400Y-96712209D01*
X80669638Y-96616971D01*
X80764876Y-96569352D01*
X80955352Y-96521733D01*
X81098209Y-96521733D01*
X81288685Y-96569352D01*
X81383923Y-96616971D01*
X81479161Y-96712209D01*
X81526780Y-96855066D01*
X81526780Y-97093161D01*
D12*
X77476304Y-98298876D02*
X76676304Y-98298876D01*
X76676304Y-98108400D01*
X76714400Y-97994114D01*
X76790590Y-97917923D01*
X76866780Y-97879828D01*
X77019161Y-97841733D01*
X77133447Y-97841733D01*
X77285828Y-97879828D01*
X77362019Y-97917923D01*
X77438209Y-97994114D01*
X77476304Y-98108400D01*
X77476304Y-98298876D01*
X76676304Y-97156019D02*
X76676304Y-97308400D01*
X76714400Y-97384590D01*
X76752495Y-97422685D01*
X76866780Y-97498876D01*
X77019161Y-97536971D01*
X77323923Y-97536971D01*
X77400114Y-97498876D01*
X77438209Y-97460780D01*
X77476304Y-97384590D01*
X77476304Y-97232209D01*
X77438209Y-97156019D01*
X77400114Y-97117923D01*
X77323923Y-97079828D01*
X77133447Y-97079828D01*
X77057257Y-97117923D01*
X77019161Y-97156019D01*
X76981066Y-97232209D01*
X76981066Y-97384590D01*
X77019161Y-97460780D01*
X77057257Y-97498876D01*
X77133447Y-97536971D01*
%TO.C,D3*%
D11*
X90171380Y-96630857D02*
X90171380Y-97202285D01*
X90171380Y-96916571D02*
X89171380Y-96916571D01*
X89314238Y-97011809D01*
X89409476Y-97107047D01*
X89457095Y-97202285D01*
X90171380Y-96202285D02*
X89171380Y-96202285D01*
X90171380Y-95630857D01*
X89171380Y-95630857D01*
X89504714Y-94726095D02*
X90171380Y-94726095D01*
X89123761Y-94964190D02*
X89838047Y-95202285D01*
X89838047Y-94583238D01*
X89171380Y-94011809D02*
X89171380Y-93916571D01*
X89219000Y-93821333D01*
X89266619Y-93773714D01*
X89361857Y-93726095D01*
X89552333Y-93678476D01*
X89790428Y-93678476D01*
X89980904Y-93726095D01*
X90076142Y-93773714D01*
X90123761Y-93821333D01*
X90171380Y-93916571D01*
X90171380Y-94011809D01*
X90123761Y-94107047D01*
X90076142Y-94154666D01*
X89980904Y-94202285D01*
X89790428Y-94249904D01*
X89552333Y-94249904D01*
X89361857Y-94202285D01*
X89266619Y-94154666D01*
X89219000Y-94107047D01*
X89171380Y-94011809D01*
X89171380Y-93059428D02*
X89171380Y-92964190D01*
X89219000Y-92868952D01*
X89266619Y-92821333D01*
X89361857Y-92773714D01*
X89552333Y-92726095D01*
X89790428Y-92726095D01*
X89980904Y-92773714D01*
X90076142Y-92821333D01*
X90123761Y-92868952D01*
X90171380Y-92964190D01*
X90171380Y-93059428D01*
X90123761Y-93154666D01*
X90076142Y-93202285D01*
X89980904Y-93249904D01*
X89790428Y-93297523D01*
X89552333Y-93297523D01*
X89361857Y-93249904D01*
X89266619Y-93202285D01*
X89219000Y-93154666D01*
X89171380Y-93059428D01*
X89171380Y-92392761D02*
X89171380Y-91726095D01*
X90171380Y-92154666D01*
X85601380Y-99829904D02*
X84601380Y-99829904D01*
X85601380Y-99258476D02*
X85029952Y-99687047D01*
X84601380Y-99258476D02*
X85172809Y-99829904D01*
X87701380Y-94836095D02*
X86701380Y-94836095D01*
X86701380Y-94598000D01*
X86749000Y-94455142D01*
X86844238Y-94359904D01*
X86939476Y-94312285D01*
X87129952Y-94264666D01*
X87272809Y-94264666D01*
X87463285Y-94312285D01*
X87558523Y-94359904D01*
X87653761Y-94455142D01*
X87701380Y-94598000D01*
X87701380Y-94836095D01*
X86701380Y-93931333D02*
X86701380Y-93312285D01*
X87082333Y-93645619D01*
X87082333Y-93502761D01*
X87129952Y-93407523D01*
X87177571Y-93359904D01*
X87272809Y-93312285D01*
X87510904Y-93312285D01*
X87606142Y-93359904D01*
X87653761Y-93407523D01*
X87701380Y-93502761D01*
X87701380Y-93788476D01*
X87653761Y-93883714D01*
X87606142Y-93931333D01*
%TO.C,D1*%
X97584380Y-85224857D02*
X97584380Y-85701047D01*
X96584380Y-85701047D01*
X97060571Y-84891523D02*
X97060571Y-84558190D01*
X97584380Y-84415333D02*
X97584380Y-84891523D01*
X96584380Y-84891523D01*
X96584380Y-84415333D01*
X97584380Y-83986761D02*
X96584380Y-83986761D01*
X96584380Y-83748666D01*
X96632000Y-83605809D01*
X96727238Y-83510571D01*
X96822476Y-83462952D01*
X97012952Y-83415333D01*
X97155809Y-83415333D01*
X97346285Y-83462952D01*
X97441523Y-83510571D01*
X97536761Y-83605809D01*
X97584380Y-83748666D01*
X97584380Y-83986761D01*
D12*
X101453904Y-85152476D02*
X100653904Y-85152476D01*
X100653904Y-84962000D01*
X100692000Y-84847714D01*
X100768190Y-84771523D01*
X100844380Y-84733428D01*
X100996761Y-84695333D01*
X101111047Y-84695333D01*
X101263428Y-84733428D01*
X101339619Y-84771523D01*
X101415809Y-84847714D01*
X101453904Y-84962000D01*
X101453904Y-85152476D01*
X101453904Y-83933428D02*
X101453904Y-84390571D01*
X101453904Y-84162000D02*
X100653904Y-84162000D01*
X100768190Y-84238190D01*
X100844380Y-84314380D01*
X100882476Y-84390571D01*
%TO.C,BZ1*%
D11*
X83025428Y-135211571D02*
X83168285Y-135259190D01*
X83215904Y-135306809D01*
X83263523Y-135402047D01*
X83263523Y-135544904D01*
X83215904Y-135640142D01*
X83168285Y-135687761D01*
X83073047Y-135735380D01*
X82692095Y-135735380D01*
X82692095Y-134735380D01*
X83025428Y-134735380D01*
X83120666Y-134783000D01*
X83168285Y-134830619D01*
X83215904Y-134925857D01*
X83215904Y-135021095D01*
X83168285Y-135116333D01*
X83120666Y-135163952D01*
X83025428Y-135211571D01*
X82692095Y-135211571D01*
X84120666Y-135068714D02*
X84120666Y-135735380D01*
X83692095Y-135068714D02*
X83692095Y-135592523D01*
X83739714Y-135687761D01*
X83834952Y-135735380D01*
X83977809Y-135735380D01*
X84073047Y-135687761D01*
X84120666Y-135640142D01*
X84501619Y-135068714D02*
X85025428Y-135068714D01*
X84501619Y-135735380D01*
X85025428Y-135735380D01*
X85311142Y-135068714D02*
X85834952Y-135068714D01*
X85311142Y-135735380D01*
X85834952Y-135735380D01*
X86596857Y-135687761D02*
X86501619Y-135735380D01*
X86311142Y-135735380D01*
X86215904Y-135687761D01*
X86168285Y-135592523D01*
X86168285Y-135211571D01*
X86215904Y-135116333D01*
X86311142Y-135068714D01*
X86501619Y-135068714D01*
X86596857Y-135116333D01*
X86644476Y-135211571D01*
X86644476Y-135306809D01*
X86168285Y-135402047D01*
X87073047Y-135735380D02*
X87073047Y-135068714D01*
X87073047Y-135259190D02*
X87120666Y-135163952D01*
X87168285Y-135116333D01*
X87263523Y-135068714D01*
X87358761Y-135068714D01*
X79873047Y-124404428D02*
X80634952Y-124404428D01*
X80254000Y-124785380D02*
X80254000Y-124023476D01*
X84703047Y-129071571D02*
X84845904Y-129119190D01*
X84893523Y-129166809D01*
X84941142Y-129262047D01*
X84941142Y-129404904D01*
X84893523Y-129500142D01*
X84845904Y-129547761D01*
X84750666Y-129595380D01*
X84369714Y-129595380D01*
X84369714Y-128595380D01*
X84703047Y-128595380D01*
X84798285Y-128643000D01*
X84845904Y-128690619D01*
X84893523Y-128785857D01*
X84893523Y-128881095D01*
X84845904Y-128976333D01*
X84798285Y-129023952D01*
X84703047Y-129071571D01*
X84369714Y-129071571D01*
X85274476Y-128595380D02*
X85941142Y-128595380D01*
X85274476Y-129595380D01*
X85941142Y-129595380D01*
X86845904Y-129595380D02*
X86274476Y-129595380D01*
X86560190Y-129595380D02*
X86560190Y-128595380D01*
X86464952Y-128738238D01*
X86369714Y-128833476D01*
X86274476Y-128881095D01*
%TO.C,Q2*%
X110549571Y-115014142D02*
X110597190Y-114871285D01*
X110644809Y-114823666D01*
X110740047Y-114776047D01*
X110882904Y-114776047D01*
X110978142Y-114823666D01*
X111025761Y-114871285D01*
X111073380Y-114966523D01*
X111073380Y-115347476D01*
X110073380Y-115347476D01*
X110073380Y-115014142D01*
X110121000Y-114918904D01*
X110168619Y-114871285D01*
X110263857Y-114823666D01*
X110359095Y-114823666D01*
X110454333Y-114871285D01*
X110501952Y-114918904D01*
X110549571Y-115014142D01*
X110549571Y-115347476D01*
X110978142Y-113776047D02*
X111025761Y-113823666D01*
X111073380Y-113966523D01*
X111073380Y-114061761D01*
X111025761Y-114204619D01*
X110930523Y-114299857D01*
X110835285Y-114347476D01*
X110644809Y-114395095D01*
X110501952Y-114395095D01*
X110311476Y-114347476D01*
X110216238Y-114299857D01*
X110121000Y-114204619D01*
X110073380Y-114061761D01*
X110073380Y-113966523D01*
X110121000Y-113823666D01*
X110168619Y-113776047D01*
X110073380Y-112871285D02*
X110073380Y-113347476D01*
X110549571Y-113395095D01*
X110501952Y-113347476D01*
X110454333Y-113252238D01*
X110454333Y-113014142D01*
X110501952Y-112918904D01*
X110549571Y-112871285D01*
X110644809Y-112823666D01*
X110882904Y-112823666D01*
X110978142Y-112871285D01*
X111025761Y-112918904D01*
X111073380Y-113014142D01*
X111073380Y-113252238D01*
X111025761Y-113347476D01*
X110978142Y-113395095D01*
X110406714Y-111966523D02*
X111073380Y-111966523D01*
X110025761Y-112204619D02*
X110740047Y-112442714D01*
X110740047Y-111823666D01*
X110073380Y-111537952D02*
X110073380Y-110871285D01*
X111073380Y-111299857D01*
X113958619Y-113252238D02*
X113911000Y-113347476D01*
X113815761Y-113442714D01*
X113672904Y-113585571D01*
X113625285Y-113680809D01*
X113625285Y-113776047D01*
X113863380Y-113728428D02*
X113815761Y-113823666D01*
X113720523Y-113918904D01*
X113530047Y-113966523D01*
X113196714Y-113966523D01*
X113006238Y-113918904D01*
X112911000Y-113823666D01*
X112863380Y-113728428D01*
X112863380Y-113537952D01*
X112911000Y-113442714D01*
X113006238Y-113347476D01*
X113196714Y-113299857D01*
X113530047Y-113299857D01*
X113720523Y-113347476D01*
X113815761Y-113442714D01*
X113863380Y-113537952D01*
X113863380Y-113728428D01*
X112958619Y-112918904D02*
X112911000Y-112871285D01*
X112863380Y-112776047D01*
X112863380Y-112537952D01*
X112911000Y-112442714D01*
X112958619Y-112395095D01*
X113053857Y-112347476D01*
X113149095Y-112347476D01*
X113291952Y-112395095D01*
X113863380Y-112966523D01*
X113863380Y-112347476D01*
%TO.C,Q3*%
X109978071Y-97234142D02*
X110025690Y-97091285D01*
X110073309Y-97043666D01*
X110168547Y-96996047D01*
X110311404Y-96996047D01*
X110406642Y-97043666D01*
X110454261Y-97091285D01*
X110501880Y-97186523D01*
X110501880Y-97567476D01*
X109501880Y-97567476D01*
X109501880Y-97234142D01*
X109549500Y-97138904D01*
X109597119Y-97091285D01*
X109692357Y-97043666D01*
X109787595Y-97043666D01*
X109882833Y-97091285D01*
X109930452Y-97138904D01*
X109978071Y-97234142D01*
X109978071Y-97567476D01*
X110406642Y-95996047D02*
X110454261Y-96043666D01*
X110501880Y-96186523D01*
X110501880Y-96281761D01*
X110454261Y-96424619D01*
X110359023Y-96519857D01*
X110263785Y-96567476D01*
X110073309Y-96615095D01*
X109930452Y-96615095D01*
X109739976Y-96567476D01*
X109644738Y-96519857D01*
X109549500Y-96424619D01*
X109501880Y-96281761D01*
X109501880Y-96186523D01*
X109549500Y-96043666D01*
X109597119Y-95996047D01*
X109501880Y-95091285D02*
X109501880Y-95567476D01*
X109978071Y-95615095D01*
X109930452Y-95567476D01*
X109882833Y-95472238D01*
X109882833Y-95234142D01*
X109930452Y-95138904D01*
X109978071Y-95091285D01*
X110073309Y-95043666D01*
X110311404Y-95043666D01*
X110406642Y-95091285D01*
X110454261Y-95138904D01*
X110501880Y-95234142D01*
X110501880Y-95472238D01*
X110454261Y-95567476D01*
X110406642Y-95615095D01*
X109835214Y-94186523D02*
X110501880Y-94186523D01*
X109454261Y-94424619D02*
X110168547Y-94662714D01*
X110168547Y-94043666D01*
X109501880Y-93757952D02*
X109501880Y-93091285D01*
X110501880Y-93519857D01*
X113387119Y-95472238D02*
X113339500Y-95567476D01*
X113244261Y-95662714D01*
X113101404Y-95805571D01*
X113053785Y-95900809D01*
X113053785Y-95996047D01*
X113291880Y-95948428D02*
X113244261Y-96043666D01*
X113149023Y-96138904D01*
X112958547Y-96186523D01*
X112625214Y-96186523D01*
X112434738Y-96138904D01*
X112339500Y-96043666D01*
X112291880Y-95948428D01*
X112291880Y-95757952D01*
X112339500Y-95662714D01*
X112434738Y-95567476D01*
X112625214Y-95519857D01*
X112958547Y-95519857D01*
X113149023Y-95567476D01*
X113244261Y-95662714D01*
X113291880Y-95757952D01*
X113291880Y-95948428D01*
X112291880Y-95186523D02*
X112291880Y-94567476D01*
X112672833Y-94900809D01*
X112672833Y-94757952D01*
X112720452Y-94662714D01*
X112768071Y-94615095D01*
X112863309Y-94567476D01*
X113101404Y-94567476D01*
X113196642Y-94615095D01*
X113244261Y-94662714D01*
X113291880Y-94757952D01*
X113291880Y-95043666D01*
X113244261Y-95138904D01*
X113196642Y-95186523D01*
%TO.C,Q4*%
X114800071Y-132794142D02*
X114847690Y-132651285D01*
X114895309Y-132603666D01*
X114990547Y-132556047D01*
X115133404Y-132556047D01*
X115228642Y-132603666D01*
X115276261Y-132651285D01*
X115323880Y-132746523D01*
X115323880Y-133127476D01*
X114323880Y-133127476D01*
X114323880Y-132794142D01*
X114371500Y-132698904D01*
X114419119Y-132651285D01*
X114514357Y-132603666D01*
X114609595Y-132603666D01*
X114704833Y-132651285D01*
X114752452Y-132698904D01*
X114800071Y-132794142D01*
X114800071Y-133127476D01*
X115228642Y-131556047D02*
X115276261Y-131603666D01*
X115323880Y-131746523D01*
X115323880Y-131841761D01*
X115276261Y-131984619D01*
X115181023Y-132079857D01*
X115085785Y-132127476D01*
X114895309Y-132175095D01*
X114752452Y-132175095D01*
X114561976Y-132127476D01*
X114466738Y-132079857D01*
X114371500Y-131984619D01*
X114323880Y-131841761D01*
X114323880Y-131746523D01*
X114371500Y-131603666D01*
X114419119Y-131556047D01*
X114323880Y-130651285D02*
X114323880Y-131127476D01*
X114800071Y-131175095D01*
X114752452Y-131127476D01*
X114704833Y-131032238D01*
X114704833Y-130794142D01*
X114752452Y-130698904D01*
X114800071Y-130651285D01*
X114895309Y-130603666D01*
X115133404Y-130603666D01*
X115228642Y-130651285D01*
X115276261Y-130698904D01*
X115323880Y-130794142D01*
X115323880Y-131032238D01*
X115276261Y-131127476D01*
X115228642Y-131175095D01*
X114657214Y-129746523D02*
X115323880Y-129746523D01*
X114276261Y-129984619D02*
X114990547Y-130222714D01*
X114990547Y-129603666D01*
X114323880Y-129317952D02*
X114323880Y-128651285D01*
X115323880Y-129079857D01*
X113514119Y-130651238D02*
X113466500Y-130746476D01*
X113371261Y-130841714D01*
X113228404Y-130984571D01*
X113180785Y-131079809D01*
X113180785Y-131175047D01*
X113418880Y-131127428D02*
X113371261Y-131222666D01*
X113276023Y-131317904D01*
X113085547Y-131365523D01*
X112752214Y-131365523D01*
X112561738Y-131317904D01*
X112466500Y-131222666D01*
X112418880Y-131127428D01*
X112418880Y-130936952D01*
X112466500Y-130841714D01*
X112561738Y-130746476D01*
X112752214Y-130698857D01*
X113085547Y-130698857D01*
X113276023Y-130746476D01*
X113371261Y-130841714D01*
X113418880Y-130936952D01*
X113418880Y-131127428D01*
X112752214Y-129841714D02*
X113418880Y-129841714D01*
X112371261Y-130079809D02*
X113085547Y-130317904D01*
X113085547Y-129698857D01*
%TO.C,Q5*%
X110549571Y-151907642D02*
X110597190Y-151764785D01*
X110644809Y-151717166D01*
X110740047Y-151669547D01*
X110882904Y-151669547D01*
X110978142Y-151717166D01*
X111025761Y-151764785D01*
X111073380Y-151860023D01*
X111073380Y-152240976D01*
X110073380Y-152240976D01*
X110073380Y-151907642D01*
X110121000Y-151812404D01*
X110168619Y-151764785D01*
X110263857Y-151717166D01*
X110359095Y-151717166D01*
X110454333Y-151764785D01*
X110501952Y-151812404D01*
X110549571Y-151907642D01*
X110549571Y-152240976D01*
X110978142Y-150669547D02*
X111025761Y-150717166D01*
X111073380Y-150860023D01*
X111073380Y-150955261D01*
X111025761Y-151098119D01*
X110930523Y-151193357D01*
X110835285Y-151240976D01*
X110644809Y-151288595D01*
X110501952Y-151288595D01*
X110311476Y-151240976D01*
X110216238Y-151193357D01*
X110121000Y-151098119D01*
X110073380Y-150955261D01*
X110073380Y-150860023D01*
X110121000Y-150717166D01*
X110168619Y-150669547D01*
X110073380Y-149764785D02*
X110073380Y-150240976D01*
X110549571Y-150288595D01*
X110501952Y-150240976D01*
X110454333Y-150145738D01*
X110454333Y-149907642D01*
X110501952Y-149812404D01*
X110549571Y-149764785D01*
X110644809Y-149717166D01*
X110882904Y-149717166D01*
X110978142Y-149764785D01*
X111025761Y-149812404D01*
X111073380Y-149907642D01*
X111073380Y-150145738D01*
X111025761Y-150240976D01*
X110978142Y-150288595D01*
X110406714Y-148860023D02*
X111073380Y-148860023D01*
X110025761Y-149098119D02*
X110740047Y-149336214D01*
X110740047Y-148717166D01*
X110073380Y-148431452D02*
X110073380Y-147764785D01*
X111073380Y-148193357D01*
X113958619Y-150145738D02*
X113911000Y-150240976D01*
X113815761Y-150336214D01*
X113672904Y-150479071D01*
X113625285Y-150574309D01*
X113625285Y-150669547D01*
X113863380Y-150621928D02*
X113815761Y-150717166D01*
X113720523Y-150812404D01*
X113530047Y-150860023D01*
X113196714Y-150860023D01*
X113006238Y-150812404D01*
X112911000Y-150717166D01*
X112863380Y-150621928D01*
X112863380Y-150431452D01*
X112911000Y-150336214D01*
X113006238Y-150240976D01*
X113196714Y-150193357D01*
X113530047Y-150193357D01*
X113720523Y-150240976D01*
X113815761Y-150336214D01*
X113863380Y-150431452D01*
X113863380Y-150621928D01*
X112863380Y-149288595D02*
X112863380Y-149764785D01*
X113339571Y-149812404D01*
X113291952Y-149764785D01*
X113244333Y-149669547D01*
X113244333Y-149431452D01*
X113291952Y-149336214D01*
X113339571Y-149288595D01*
X113434809Y-149240976D01*
X113672904Y-149240976D01*
X113768142Y-149288595D01*
X113815761Y-149336214D01*
X113863380Y-149431452D01*
X113863380Y-149669547D01*
X113815761Y-149764785D01*
X113768142Y-149812404D01*
%TO.C,U1*%
X55554761Y-133825880D02*
X55078571Y-133825880D01*
X55078571Y-132825880D01*
X55792857Y-132825880D02*
X56459523Y-132825880D01*
X56030952Y-133825880D01*
X56983333Y-133254452D02*
X56888095Y-133206833D01*
X56840476Y-133159214D01*
X56792857Y-133063976D01*
X56792857Y-133016357D01*
X56840476Y-132921119D01*
X56888095Y-132873500D01*
X56983333Y-132825880D01*
X57173809Y-132825880D01*
X57269047Y-132873500D01*
X57316666Y-132921119D01*
X57364285Y-133016357D01*
X57364285Y-133063976D01*
X57316666Y-133159214D01*
X57269047Y-133206833D01*
X57173809Y-133254452D01*
X56983333Y-133254452D01*
X56888095Y-133302071D01*
X56840476Y-133349690D01*
X56792857Y-133444928D01*
X56792857Y-133635404D01*
X56840476Y-133730642D01*
X56888095Y-133778261D01*
X56983333Y-133825880D01*
X57173809Y-133825880D01*
X57269047Y-133778261D01*
X57316666Y-133730642D01*
X57364285Y-133635404D01*
X57364285Y-133444928D01*
X57316666Y-133349690D01*
X57269047Y-133302071D01*
X57173809Y-133254452D01*
X57983333Y-132825880D02*
X58078571Y-132825880D01*
X58173809Y-132873500D01*
X58221428Y-132921119D01*
X58269047Y-133016357D01*
X58316666Y-133206833D01*
X58316666Y-133444928D01*
X58269047Y-133635404D01*
X58221428Y-133730642D01*
X58173809Y-133778261D01*
X58078571Y-133825880D01*
X57983333Y-133825880D01*
X57888095Y-133778261D01*
X57840476Y-133730642D01*
X57792857Y-133635404D01*
X57745238Y-133444928D01*
X57745238Y-133206833D01*
X57792857Y-133016357D01*
X57840476Y-132921119D01*
X57888095Y-132873500D01*
X57983333Y-132825880D01*
X59221428Y-132825880D02*
X58745238Y-132825880D01*
X58697619Y-133302071D01*
X58745238Y-133254452D01*
X58840476Y-133206833D01*
X59078571Y-133206833D01*
X59173809Y-133254452D01*
X59221428Y-133302071D01*
X59269047Y-133397309D01*
X59269047Y-133635404D01*
X59221428Y-133730642D01*
X59173809Y-133778261D01*
X59078571Y-133825880D01*
X58840476Y-133825880D01*
X58745238Y-133778261D01*
X58697619Y-133730642D01*
X56388095Y-126055880D02*
X56388095Y-126865404D01*
X56435714Y-126960642D01*
X56483333Y-127008261D01*
X56578571Y-127055880D01*
X56769047Y-127055880D01*
X56864285Y-127008261D01*
X56911904Y-126960642D01*
X56959523Y-126865404D01*
X56959523Y-126055880D01*
X57959523Y-127055880D02*
X57388095Y-127055880D01*
X57673809Y-127055880D02*
X57673809Y-126055880D01*
X57578571Y-126198738D01*
X57483333Y-126293976D01*
X57388095Y-126341595D01*
%TO.C,R8*%
X118625880Y-115220476D02*
X118149690Y-115553809D01*
X118625880Y-115791904D02*
X117625880Y-115791904D01*
X117625880Y-115410952D01*
X117673500Y-115315714D01*
X117721119Y-115268095D01*
X117816357Y-115220476D01*
X117959214Y-115220476D01*
X118054452Y-115268095D01*
X118102071Y-115315714D01*
X118149690Y-115410952D01*
X118149690Y-115791904D01*
X118721119Y-115030000D02*
X118721119Y-114268095D01*
X118578261Y-114077619D02*
X118625880Y-113934761D01*
X118625880Y-113696666D01*
X118578261Y-113601428D01*
X118530642Y-113553809D01*
X118435404Y-113506190D01*
X118340166Y-113506190D01*
X118244928Y-113553809D01*
X118197309Y-113601428D01*
X118149690Y-113696666D01*
X118102071Y-113887142D01*
X118054452Y-113982380D01*
X118006833Y-114030000D01*
X117911595Y-114077619D01*
X117816357Y-114077619D01*
X117721119Y-114030000D01*
X117673500Y-113982380D01*
X117625880Y-113887142D01*
X117625880Y-113649047D01*
X117673500Y-113506190D01*
X118625880Y-113077619D02*
X117959214Y-113077619D01*
X118054452Y-113077619D02*
X118006833Y-113030000D01*
X117959214Y-112934761D01*
X117959214Y-112791904D01*
X118006833Y-112696666D01*
X118102071Y-112649047D01*
X118625880Y-112649047D01*
X118102071Y-112649047D02*
X118006833Y-112601428D01*
X117959214Y-112506190D01*
X117959214Y-112363333D01*
X118006833Y-112268095D01*
X118102071Y-112220476D01*
X118625880Y-112220476D01*
X118625880Y-111315714D02*
X118102071Y-111315714D01*
X118006833Y-111363333D01*
X117959214Y-111458571D01*
X117959214Y-111649047D01*
X118006833Y-111744285D01*
X118578261Y-111315714D02*
X118625880Y-111410952D01*
X118625880Y-111649047D01*
X118578261Y-111744285D01*
X118483023Y-111791904D01*
X118387785Y-111791904D01*
X118292547Y-111744285D01*
X118244928Y-111649047D01*
X118244928Y-111410952D01*
X118197309Y-111315714D01*
X118625880Y-110696666D02*
X118578261Y-110791904D01*
X118483023Y-110839523D01*
X117625880Y-110839523D01*
X118625880Y-110172857D02*
X118578261Y-110268095D01*
X118483023Y-110315714D01*
X117625880Y-110315714D01*
X118435380Y-113260166D02*
X117959190Y-113593500D01*
X118435380Y-113831595D02*
X117435380Y-113831595D01*
X117435380Y-113450642D01*
X117483000Y-113355404D01*
X117530619Y-113307785D01*
X117625857Y-113260166D01*
X117768714Y-113260166D01*
X117863952Y-113307785D01*
X117911571Y-113355404D01*
X117959190Y-113450642D01*
X117959190Y-113831595D01*
X117863952Y-112688738D02*
X117816333Y-112783976D01*
X117768714Y-112831595D01*
X117673476Y-112879214D01*
X117625857Y-112879214D01*
X117530619Y-112831595D01*
X117483000Y-112783976D01*
X117435380Y-112688738D01*
X117435380Y-112498261D01*
X117483000Y-112403023D01*
X117530619Y-112355404D01*
X117625857Y-112307785D01*
X117673476Y-112307785D01*
X117768714Y-112355404D01*
X117816333Y-112403023D01*
X117863952Y-112498261D01*
X117863952Y-112688738D01*
X117911571Y-112783976D01*
X117959190Y-112831595D01*
X118054428Y-112879214D01*
X118244904Y-112879214D01*
X118340142Y-112831595D01*
X118387761Y-112783976D01*
X118435380Y-112688738D01*
X118435380Y-112498261D01*
X118387761Y-112403023D01*
X118340142Y-112355404D01*
X118244904Y-112307785D01*
X118054428Y-112307785D01*
X117959190Y-112355404D01*
X117911571Y-112403023D01*
X117863952Y-112498261D01*
%TO.C,R9*%
X115620880Y-97630976D02*
X115144690Y-97964309D01*
X115620880Y-98202404D02*
X114620880Y-98202404D01*
X114620880Y-97821452D01*
X114668500Y-97726214D01*
X114716119Y-97678595D01*
X114811357Y-97630976D01*
X114954214Y-97630976D01*
X115049452Y-97678595D01*
X115097071Y-97726214D01*
X115144690Y-97821452D01*
X115144690Y-98202404D01*
X115716119Y-97440500D02*
X115716119Y-96678595D01*
X115573261Y-96488119D02*
X115620880Y-96345261D01*
X115620880Y-96107166D01*
X115573261Y-96011928D01*
X115525642Y-95964309D01*
X115430404Y-95916690D01*
X115335166Y-95916690D01*
X115239928Y-95964309D01*
X115192309Y-96011928D01*
X115144690Y-96107166D01*
X115097071Y-96297642D01*
X115049452Y-96392880D01*
X115001833Y-96440500D01*
X114906595Y-96488119D01*
X114811357Y-96488119D01*
X114716119Y-96440500D01*
X114668500Y-96392880D01*
X114620880Y-96297642D01*
X114620880Y-96059547D01*
X114668500Y-95916690D01*
X115620880Y-95488119D02*
X114954214Y-95488119D01*
X115049452Y-95488119D02*
X115001833Y-95440500D01*
X114954214Y-95345261D01*
X114954214Y-95202404D01*
X115001833Y-95107166D01*
X115097071Y-95059547D01*
X115620880Y-95059547D01*
X115097071Y-95059547D02*
X115001833Y-95011928D01*
X114954214Y-94916690D01*
X114954214Y-94773833D01*
X115001833Y-94678595D01*
X115097071Y-94630976D01*
X115620880Y-94630976D01*
X115620880Y-93726214D02*
X115097071Y-93726214D01*
X115001833Y-93773833D01*
X114954214Y-93869071D01*
X114954214Y-94059547D01*
X115001833Y-94154785D01*
X115573261Y-93726214D02*
X115620880Y-93821452D01*
X115620880Y-94059547D01*
X115573261Y-94154785D01*
X115478023Y-94202404D01*
X115382785Y-94202404D01*
X115287547Y-94154785D01*
X115239928Y-94059547D01*
X115239928Y-93821452D01*
X115192309Y-93726214D01*
X115620880Y-93107166D02*
X115573261Y-93202404D01*
X115478023Y-93250023D01*
X114620880Y-93250023D01*
X115620880Y-92583357D02*
X115573261Y-92678595D01*
X115478023Y-92726214D01*
X114620880Y-92726214D01*
X117990880Y-95607166D02*
X117514690Y-95940500D01*
X117990880Y-96178595D02*
X116990880Y-96178595D01*
X116990880Y-95797642D01*
X117038500Y-95702404D01*
X117086119Y-95654785D01*
X117181357Y-95607166D01*
X117324214Y-95607166D01*
X117419452Y-95654785D01*
X117467071Y-95702404D01*
X117514690Y-95797642D01*
X117514690Y-96178595D01*
X117990880Y-95130976D02*
X117990880Y-94940500D01*
X117943261Y-94845261D01*
X117895642Y-94797642D01*
X117752785Y-94702404D01*
X117562309Y-94654785D01*
X117181357Y-94654785D01*
X117086119Y-94702404D01*
X117038500Y-94750023D01*
X116990880Y-94845261D01*
X116990880Y-95035738D01*
X117038500Y-95130976D01*
X117086119Y-95178595D01*
X117181357Y-95226214D01*
X117419452Y-95226214D01*
X117514690Y-95178595D01*
X117562309Y-95130976D01*
X117609928Y-95035738D01*
X117609928Y-94845261D01*
X117562309Y-94750023D01*
X117514690Y-94702404D01*
X117419452Y-94654785D01*
%TO.C,R12*%
X115684380Y-132873476D02*
X115208190Y-133206809D01*
X115684380Y-133444904D02*
X114684380Y-133444904D01*
X114684380Y-133063952D01*
X114732000Y-132968714D01*
X114779619Y-132921095D01*
X114874857Y-132873476D01*
X115017714Y-132873476D01*
X115112952Y-132921095D01*
X115160571Y-132968714D01*
X115208190Y-133063952D01*
X115208190Y-133444904D01*
X115779619Y-132683000D02*
X115779619Y-131921095D01*
X115636761Y-131730619D02*
X115684380Y-131587761D01*
X115684380Y-131349666D01*
X115636761Y-131254428D01*
X115589142Y-131206809D01*
X115493904Y-131159190D01*
X115398666Y-131159190D01*
X115303428Y-131206809D01*
X115255809Y-131254428D01*
X115208190Y-131349666D01*
X115160571Y-131540142D01*
X115112952Y-131635380D01*
X115065333Y-131683000D01*
X114970095Y-131730619D01*
X114874857Y-131730619D01*
X114779619Y-131683000D01*
X114732000Y-131635380D01*
X114684380Y-131540142D01*
X114684380Y-131302047D01*
X114732000Y-131159190D01*
X115684380Y-130730619D02*
X115017714Y-130730619D01*
X115112952Y-130730619D02*
X115065333Y-130683000D01*
X115017714Y-130587761D01*
X115017714Y-130444904D01*
X115065333Y-130349666D01*
X115160571Y-130302047D01*
X115684380Y-130302047D01*
X115160571Y-130302047D02*
X115065333Y-130254428D01*
X115017714Y-130159190D01*
X115017714Y-130016333D01*
X115065333Y-129921095D01*
X115160571Y-129873476D01*
X115684380Y-129873476D01*
X115684380Y-128968714D02*
X115160571Y-128968714D01*
X115065333Y-129016333D01*
X115017714Y-129111571D01*
X115017714Y-129302047D01*
X115065333Y-129397285D01*
X115636761Y-128968714D02*
X115684380Y-129063952D01*
X115684380Y-129302047D01*
X115636761Y-129397285D01*
X115541523Y-129444904D01*
X115446285Y-129444904D01*
X115351047Y-129397285D01*
X115303428Y-129302047D01*
X115303428Y-129063952D01*
X115255809Y-128968714D01*
X115684380Y-128349666D02*
X115636761Y-128444904D01*
X115541523Y-128492523D01*
X114684380Y-128492523D01*
X115684380Y-127825857D02*
X115636761Y-127921095D01*
X115541523Y-127968714D01*
X114684380Y-127968714D01*
X118054380Y-131325857D02*
X117578190Y-131659190D01*
X118054380Y-131897285D02*
X117054380Y-131897285D01*
X117054380Y-131516333D01*
X117102000Y-131421095D01*
X117149619Y-131373476D01*
X117244857Y-131325857D01*
X117387714Y-131325857D01*
X117482952Y-131373476D01*
X117530571Y-131421095D01*
X117578190Y-131516333D01*
X117578190Y-131897285D01*
X118054380Y-130373476D02*
X118054380Y-130944904D01*
X118054380Y-130659190D02*
X117054380Y-130659190D01*
X117197238Y-130754428D01*
X117292476Y-130849666D01*
X117340095Y-130944904D01*
X117149619Y-129992523D02*
X117102000Y-129944904D01*
X117054380Y-129849666D01*
X117054380Y-129611571D01*
X117102000Y-129516333D01*
X117149619Y-129468714D01*
X117244857Y-129421095D01*
X117340095Y-129421095D01*
X117482952Y-129468714D01*
X118054380Y-130040142D01*
X118054380Y-129421095D01*
%TO.C,R5*%
X103949580Y-119132076D02*
X103473390Y-119465409D01*
X103949580Y-119703504D02*
X102949580Y-119703504D01*
X102949580Y-119322552D01*
X102997200Y-119227314D01*
X103044819Y-119179695D01*
X103140057Y-119132076D01*
X103282914Y-119132076D01*
X103378152Y-119179695D01*
X103425771Y-119227314D01*
X103473390Y-119322552D01*
X103473390Y-119703504D01*
X104044819Y-118941600D02*
X104044819Y-118179695D01*
X103901961Y-117989219D02*
X103949580Y-117846361D01*
X103949580Y-117608266D01*
X103901961Y-117513028D01*
X103854342Y-117465409D01*
X103759104Y-117417790D01*
X103663866Y-117417790D01*
X103568628Y-117465409D01*
X103521009Y-117513028D01*
X103473390Y-117608266D01*
X103425771Y-117798742D01*
X103378152Y-117893980D01*
X103330533Y-117941600D01*
X103235295Y-117989219D01*
X103140057Y-117989219D01*
X103044819Y-117941600D01*
X102997200Y-117893980D01*
X102949580Y-117798742D01*
X102949580Y-117560647D01*
X102997200Y-117417790D01*
X103949580Y-116989219D02*
X103282914Y-116989219D01*
X103378152Y-116989219D02*
X103330533Y-116941600D01*
X103282914Y-116846361D01*
X103282914Y-116703504D01*
X103330533Y-116608266D01*
X103425771Y-116560647D01*
X103949580Y-116560647D01*
X103425771Y-116560647D02*
X103330533Y-116513028D01*
X103282914Y-116417790D01*
X103282914Y-116274933D01*
X103330533Y-116179695D01*
X103425771Y-116132076D01*
X103949580Y-116132076D01*
X103949580Y-115227314D02*
X103425771Y-115227314D01*
X103330533Y-115274933D01*
X103282914Y-115370171D01*
X103282914Y-115560647D01*
X103330533Y-115655885D01*
X103901961Y-115227314D02*
X103949580Y-115322552D01*
X103949580Y-115560647D01*
X103901961Y-115655885D01*
X103806723Y-115703504D01*
X103711485Y-115703504D01*
X103616247Y-115655885D01*
X103568628Y-115560647D01*
X103568628Y-115322552D01*
X103521009Y-115227314D01*
X103949580Y-114608266D02*
X103901961Y-114703504D01*
X103806723Y-114751123D01*
X102949580Y-114751123D01*
X103949580Y-114084457D02*
X103901961Y-114179695D01*
X103806723Y-114227314D01*
X102949580Y-114227314D01*
X106319580Y-117108266D02*
X105843390Y-117441600D01*
X106319580Y-117679695D02*
X105319580Y-117679695D01*
X105319580Y-117298742D01*
X105367200Y-117203504D01*
X105414819Y-117155885D01*
X105510057Y-117108266D01*
X105652914Y-117108266D01*
X105748152Y-117155885D01*
X105795771Y-117203504D01*
X105843390Y-117298742D01*
X105843390Y-117679695D01*
X105319580Y-116203504D02*
X105319580Y-116679695D01*
X105795771Y-116727314D01*
X105748152Y-116679695D01*
X105700533Y-116584457D01*
X105700533Y-116346361D01*
X105748152Y-116251123D01*
X105795771Y-116203504D01*
X105891009Y-116155885D01*
X106129104Y-116155885D01*
X106224342Y-116203504D01*
X106271961Y-116251123D01*
X106319580Y-116346361D01*
X106319580Y-116584457D01*
X106271961Y-116679695D01*
X106224342Y-116727314D01*
%TO.C,R6*%
X103289180Y-99726476D02*
X102812990Y-100059809D01*
X103289180Y-100297904D02*
X102289180Y-100297904D01*
X102289180Y-99916952D01*
X102336800Y-99821714D01*
X102384419Y-99774095D01*
X102479657Y-99726476D01*
X102622514Y-99726476D01*
X102717752Y-99774095D01*
X102765371Y-99821714D01*
X102812990Y-99916952D01*
X102812990Y-100297904D01*
X103384419Y-99536000D02*
X103384419Y-98774095D01*
X103241561Y-98583619D02*
X103289180Y-98440761D01*
X103289180Y-98202666D01*
X103241561Y-98107428D01*
X103193942Y-98059809D01*
X103098704Y-98012190D01*
X103003466Y-98012190D01*
X102908228Y-98059809D01*
X102860609Y-98107428D01*
X102812990Y-98202666D01*
X102765371Y-98393142D01*
X102717752Y-98488380D01*
X102670133Y-98536000D01*
X102574895Y-98583619D01*
X102479657Y-98583619D01*
X102384419Y-98536000D01*
X102336800Y-98488380D01*
X102289180Y-98393142D01*
X102289180Y-98155047D01*
X102336800Y-98012190D01*
X103289180Y-97583619D02*
X102622514Y-97583619D01*
X102717752Y-97583619D02*
X102670133Y-97536000D01*
X102622514Y-97440761D01*
X102622514Y-97297904D01*
X102670133Y-97202666D01*
X102765371Y-97155047D01*
X103289180Y-97155047D01*
X102765371Y-97155047D02*
X102670133Y-97107428D01*
X102622514Y-97012190D01*
X102622514Y-96869333D01*
X102670133Y-96774095D01*
X102765371Y-96726476D01*
X103289180Y-96726476D01*
X103289180Y-95821714D02*
X102765371Y-95821714D01*
X102670133Y-95869333D01*
X102622514Y-95964571D01*
X102622514Y-96155047D01*
X102670133Y-96250285D01*
X103241561Y-95821714D02*
X103289180Y-95916952D01*
X103289180Y-96155047D01*
X103241561Y-96250285D01*
X103146323Y-96297904D01*
X103051085Y-96297904D01*
X102955847Y-96250285D01*
X102908228Y-96155047D01*
X102908228Y-95916952D01*
X102860609Y-95821714D01*
X103289180Y-95202666D02*
X103241561Y-95297904D01*
X103146323Y-95345523D01*
X102289180Y-95345523D01*
X103289180Y-94678857D02*
X103241561Y-94774095D01*
X103146323Y-94821714D01*
X102289180Y-94821714D01*
X105659180Y-97702666D02*
X105182990Y-98036000D01*
X105659180Y-98274095D02*
X104659180Y-98274095D01*
X104659180Y-97893142D01*
X104706800Y-97797904D01*
X104754419Y-97750285D01*
X104849657Y-97702666D01*
X104992514Y-97702666D01*
X105087752Y-97750285D01*
X105135371Y-97797904D01*
X105182990Y-97893142D01*
X105182990Y-98274095D01*
X104659180Y-96845523D02*
X104659180Y-97036000D01*
X104706800Y-97131238D01*
X104754419Y-97178857D01*
X104897276Y-97274095D01*
X105087752Y-97321714D01*
X105468704Y-97321714D01*
X105563942Y-97274095D01*
X105611561Y-97226476D01*
X105659180Y-97131238D01*
X105659180Y-96940761D01*
X105611561Y-96845523D01*
X105563942Y-96797904D01*
X105468704Y-96750285D01*
X105230609Y-96750285D01*
X105135371Y-96797904D01*
X105087752Y-96845523D01*
X105040133Y-96940761D01*
X105040133Y-97131238D01*
X105087752Y-97226476D01*
X105135371Y-97274095D01*
X105230609Y-97321714D01*
%TO.C,R10*%
X101087180Y-135553176D02*
X100610990Y-135886509D01*
X101087180Y-136124604D02*
X100087180Y-136124604D01*
X100087180Y-135743652D01*
X100134800Y-135648414D01*
X100182419Y-135600795D01*
X100277657Y-135553176D01*
X100420514Y-135553176D01*
X100515752Y-135600795D01*
X100563371Y-135648414D01*
X100610990Y-135743652D01*
X100610990Y-136124604D01*
X101182419Y-135362700D02*
X101182419Y-134600795D01*
X101039561Y-134410319D02*
X101087180Y-134267461D01*
X101087180Y-134029366D01*
X101039561Y-133934128D01*
X100991942Y-133886509D01*
X100896704Y-133838890D01*
X100801466Y-133838890D01*
X100706228Y-133886509D01*
X100658609Y-133934128D01*
X100610990Y-134029366D01*
X100563371Y-134219842D01*
X100515752Y-134315080D01*
X100468133Y-134362700D01*
X100372895Y-134410319D01*
X100277657Y-134410319D01*
X100182419Y-134362700D01*
X100134800Y-134315080D01*
X100087180Y-134219842D01*
X100087180Y-133981747D01*
X100134800Y-133838890D01*
X101087180Y-133410319D02*
X100420514Y-133410319D01*
X100515752Y-133410319D02*
X100468133Y-133362700D01*
X100420514Y-133267461D01*
X100420514Y-133124604D01*
X100468133Y-133029366D01*
X100563371Y-132981747D01*
X101087180Y-132981747D01*
X100563371Y-132981747D02*
X100468133Y-132934128D01*
X100420514Y-132838890D01*
X100420514Y-132696033D01*
X100468133Y-132600795D01*
X100563371Y-132553176D01*
X101087180Y-132553176D01*
X101087180Y-131648414D02*
X100563371Y-131648414D01*
X100468133Y-131696033D01*
X100420514Y-131791271D01*
X100420514Y-131981747D01*
X100468133Y-132076985D01*
X101039561Y-131648414D02*
X101087180Y-131743652D01*
X101087180Y-131981747D01*
X101039561Y-132076985D01*
X100944323Y-132124604D01*
X100849085Y-132124604D01*
X100753847Y-132076985D01*
X100706228Y-131981747D01*
X100706228Y-131743652D01*
X100658609Y-131648414D01*
X101087180Y-131029366D02*
X101039561Y-131124604D01*
X100944323Y-131172223D01*
X100087180Y-131172223D01*
X101087180Y-130505557D02*
X101039561Y-130600795D01*
X100944323Y-130648414D01*
X100087180Y-130648414D01*
X105862380Y-132913357D02*
X105386190Y-133246690D01*
X105862380Y-133484785D02*
X104862380Y-133484785D01*
X104862380Y-133103833D01*
X104910000Y-133008595D01*
X104957619Y-132960976D01*
X105052857Y-132913357D01*
X105195714Y-132913357D01*
X105290952Y-132960976D01*
X105338571Y-133008595D01*
X105386190Y-133103833D01*
X105386190Y-133484785D01*
X105862380Y-131960976D02*
X105862380Y-132532404D01*
X105862380Y-132246690D02*
X104862380Y-132246690D01*
X105005238Y-132341928D01*
X105100476Y-132437166D01*
X105148095Y-132532404D01*
X104862380Y-131341928D02*
X104862380Y-131246690D01*
X104910000Y-131151452D01*
X104957619Y-131103833D01*
X105052857Y-131056214D01*
X105243333Y-131008595D01*
X105481428Y-131008595D01*
X105671904Y-131056214D01*
X105767142Y-131103833D01*
X105814761Y-131151452D01*
X105862380Y-131246690D01*
X105862380Y-131341928D01*
X105814761Y-131437166D01*
X105767142Y-131484785D01*
X105671904Y-131532404D01*
X105481428Y-131580023D01*
X105243333Y-131580023D01*
X105052857Y-131532404D01*
X104957619Y-131484785D01*
X104910000Y-131437166D01*
X104862380Y-131341928D01*
%TO.C,R13*%
X116065380Y-150970976D02*
X115589190Y-151304309D01*
X116065380Y-151542404D02*
X115065380Y-151542404D01*
X115065380Y-151161452D01*
X115113000Y-151066214D01*
X115160619Y-151018595D01*
X115255857Y-150970976D01*
X115398714Y-150970976D01*
X115493952Y-151018595D01*
X115541571Y-151066214D01*
X115589190Y-151161452D01*
X115589190Y-151542404D01*
X116160619Y-150780500D02*
X116160619Y-150018595D01*
X116017761Y-149828119D02*
X116065380Y-149685261D01*
X116065380Y-149447166D01*
X116017761Y-149351928D01*
X115970142Y-149304309D01*
X115874904Y-149256690D01*
X115779666Y-149256690D01*
X115684428Y-149304309D01*
X115636809Y-149351928D01*
X115589190Y-149447166D01*
X115541571Y-149637642D01*
X115493952Y-149732880D01*
X115446333Y-149780500D01*
X115351095Y-149828119D01*
X115255857Y-149828119D01*
X115160619Y-149780500D01*
X115113000Y-149732880D01*
X115065380Y-149637642D01*
X115065380Y-149399547D01*
X115113000Y-149256690D01*
X116065380Y-148828119D02*
X115398714Y-148828119D01*
X115493952Y-148828119D02*
X115446333Y-148780500D01*
X115398714Y-148685261D01*
X115398714Y-148542404D01*
X115446333Y-148447166D01*
X115541571Y-148399547D01*
X116065380Y-148399547D01*
X115541571Y-148399547D02*
X115446333Y-148351928D01*
X115398714Y-148256690D01*
X115398714Y-148113833D01*
X115446333Y-148018595D01*
X115541571Y-147970976D01*
X116065380Y-147970976D01*
X116065380Y-147066214D02*
X115541571Y-147066214D01*
X115446333Y-147113833D01*
X115398714Y-147209071D01*
X115398714Y-147399547D01*
X115446333Y-147494785D01*
X116017761Y-147066214D02*
X116065380Y-147161452D01*
X116065380Y-147399547D01*
X116017761Y-147494785D01*
X115922523Y-147542404D01*
X115827285Y-147542404D01*
X115732047Y-147494785D01*
X115684428Y-147399547D01*
X115684428Y-147161452D01*
X115636809Y-147066214D01*
X116065380Y-146447166D02*
X116017761Y-146542404D01*
X115922523Y-146590023D01*
X115065380Y-146590023D01*
X116065380Y-145923357D02*
X116017761Y-146018595D01*
X115922523Y-146066214D01*
X115065380Y-146066214D01*
X118435380Y-149423357D02*
X117959190Y-149756690D01*
X118435380Y-149994785D02*
X117435380Y-149994785D01*
X117435380Y-149613833D01*
X117483000Y-149518595D01*
X117530619Y-149470976D01*
X117625857Y-149423357D01*
X117768714Y-149423357D01*
X117863952Y-149470976D01*
X117911571Y-149518595D01*
X117959190Y-149613833D01*
X117959190Y-149994785D01*
X118435380Y-148470976D02*
X118435380Y-149042404D01*
X118435380Y-148756690D02*
X117435380Y-148756690D01*
X117578238Y-148851928D01*
X117673476Y-148947166D01*
X117721095Y-149042404D01*
X117435380Y-148137642D02*
X117435380Y-147518595D01*
X117816333Y-147851928D01*
X117816333Y-147709071D01*
X117863952Y-147613833D01*
X117911571Y-147566214D01*
X118006809Y-147518595D01*
X118244904Y-147518595D01*
X118340142Y-147566214D01*
X118387761Y-147613833D01*
X118435380Y-147709071D01*
X118435380Y-147994785D01*
X118387761Y-148090023D01*
X118340142Y-148137642D01*
%TO.C,R11*%
X101040023Y-154249380D02*
X100706690Y-153773190D01*
X100468595Y-154249380D02*
X100468595Y-153249380D01*
X100849547Y-153249380D01*
X100944785Y-153297000D01*
X100992404Y-153344619D01*
X101040023Y-153439857D01*
X101040023Y-153582714D01*
X100992404Y-153677952D01*
X100944785Y-153725571D01*
X100849547Y-153773190D01*
X100468595Y-153773190D01*
X101230500Y-154344619D02*
X101992404Y-154344619D01*
X102182880Y-154201761D02*
X102325738Y-154249380D01*
X102563833Y-154249380D01*
X102659071Y-154201761D01*
X102706690Y-154154142D01*
X102754309Y-154058904D01*
X102754309Y-153963666D01*
X102706690Y-153868428D01*
X102659071Y-153820809D01*
X102563833Y-153773190D01*
X102373357Y-153725571D01*
X102278119Y-153677952D01*
X102230500Y-153630333D01*
X102182880Y-153535095D01*
X102182880Y-153439857D01*
X102230500Y-153344619D01*
X102278119Y-153297000D01*
X102373357Y-153249380D01*
X102611452Y-153249380D01*
X102754309Y-153297000D01*
X103182880Y-154249380D02*
X103182880Y-153582714D01*
X103182880Y-153677952D02*
X103230500Y-153630333D01*
X103325738Y-153582714D01*
X103468595Y-153582714D01*
X103563833Y-153630333D01*
X103611452Y-153725571D01*
X103611452Y-154249380D01*
X103611452Y-153725571D02*
X103659071Y-153630333D01*
X103754309Y-153582714D01*
X103897166Y-153582714D01*
X103992404Y-153630333D01*
X104040023Y-153725571D01*
X104040023Y-154249380D01*
X104944785Y-154249380D02*
X104944785Y-153725571D01*
X104897166Y-153630333D01*
X104801928Y-153582714D01*
X104611452Y-153582714D01*
X104516214Y-153630333D01*
X104944785Y-154201761D02*
X104849547Y-154249380D01*
X104611452Y-154249380D01*
X104516214Y-154201761D01*
X104468595Y-154106523D01*
X104468595Y-154011285D01*
X104516214Y-153916047D01*
X104611452Y-153868428D01*
X104849547Y-153868428D01*
X104944785Y-153820809D01*
X105563833Y-154249380D02*
X105468595Y-154201761D01*
X105420976Y-154106523D01*
X105420976Y-153249380D01*
X106087642Y-154249380D02*
X105992404Y-154201761D01*
X105944785Y-154106523D01*
X105944785Y-153249380D01*
X104957642Y-154249380D02*
X104624309Y-153773190D01*
X104386214Y-154249380D02*
X104386214Y-153249380D01*
X104767166Y-153249380D01*
X104862404Y-153297000D01*
X104910023Y-153344619D01*
X104957642Y-153439857D01*
X104957642Y-153582714D01*
X104910023Y-153677952D01*
X104862404Y-153725571D01*
X104767166Y-153773190D01*
X104386214Y-153773190D01*
X105910023Y-154249380D02*
X105338595Y-154249380D01*
X105624309Y-154249380D02*
X105624309Y-153249380D01*
X105529071Y-153392238D01*
X105433833Y-153487476D01*
X105338595Y-153535095D01*
X106862404Y-154249380D02*
X106290976Y-154249380D01*
X106576690Y-154249380D02*
X106576690Y-153249380D01*
X106481452Y-153392238D01*
X106386214Y-153487476D01*
X106290976Y-153535095D01*
%TO.C,R3*%
X59210380Y-122840476D02*
X58734190Y-123173809D01*
X59210380Y-123411904D02*
X58210380Y-123411904D01*
X58210380Y-123030952D01*
X58258000Y-122935714D01*
X58305619Y-122888095D01*
X58400857Y-122840476D01*
X58543714Y-122840476D01*
X58638952Y-122888095D01*
X58686571Y-122935714D01*
X58734190Y-123030952D01*
X58734190Y-123411904D01*
X59305619Y-122650000D02*
X59305619Y-121888095D01*
X59162761Y-121697619D02*
X59210380Y-121554761D01*
X59210380Y-121316666D01*
X59162761Y-121221428D01*
X59115142Y-121173809D01*
X59019904Y-121126190D01*
X58924666Y-121126190D01*
X58829428Y-121173809D01*
X58781809Y-121221428D01*
X58734190Y-121316666D01*
X58686571Y-121507142D01*
X58638952Y-121602380D01*
X58591333Y-121650000D01*
X58496095Y-121697619D01*
X58400857Y-121697619D01*
X58305619Y-121650000D01*
X58258000Y-121602380D01*
X58210380Y-121507142D01*
X58210380Y-121269047D01*
X58258000Y-121126190D01*
X59210380Y-120697619D02*
X58543714Y-120697619D01*
X58638952Y-120697619D02*
X58591333Y-120650000D01*
X58543714Y-120554761D01*
X58543714Y-120411904D01*
X58591333Y-120316666D01*
X58686571Y-120269047D01*
X59210380Y-120269047D01*
X58686571Y-120269047D02*
X58591333Y-120221428D01*
X58543714Y-120126190D01*
X58543714Y-119983333D01*
X58591333Y-119888095D01*
X58686571Y-119840476D01*
X59210380Y-119840476D01*
X59210380Y-118935714D02*
X58686571Y-118935714D01*
X58591333Y-118983333D01*
X58543714Y-119078571D01*
X58543714Y-119269047D01*
X58591333Y-119364285D01*
X59162761Y-118935714D02*
X59210380Y-119030952D01*
X59210380Y-119269047D01*
X59162761Y-119364285D01*
X59067523Y-119411904D01*
X58972285Y-119411904D01*
X58877047Y-119364285D01*
X58829428Y-119269047D01*
X58829428Y-119030952D01*
X58781809Y-118935714D01*
X59210380Y-118316666D02*
X59162761Y-118411904D01*
X59067523Y-118459523D01*
X58210380Y-118459523D01*
X59210380Y-117792857D02*
X59162761Y-117888095D01*
X59067523Y-117935714D01*
X58210380Y-117935714D01*
X56713380Y-119419666D02*
X56237190Y-119753000D01*
X56713380Y-119991095D02*
X55713380Y-119991095D01*
X55713380Y-119610142D01*
X55761000Y-119514904D01*
X55808619Y-119467285D01*
X55903857Y-119419666D01*
X56046714Y-119419666D01*
X56141952Y-119467285D01*
X56189571Y-119514904D01*
X56237190Y-119610142D01*
X56237190Y-119991095D01*
X55713380Y-119086333D02*
X55713380Y-118467285D01*
X56094333Y-118800619D01*
X56094333Y-118657761D01*
X56141952Y-118562523D01*
X56189571Y-118514904D01*
X56284809Y-118467285D01*
X56522904Y-118467285D01*
X56618142Y-118514904D01*
X56665761Y-118562523D01*
X56713380Y-118657761D01*
X56713380Y-118943476D01*
X56665761Y-119038714D01*
X56618142Y-119086333D01*
%TO.C,J4*%
X47054095Y-103850000D02*
X46958857Y-103802380D01*
X46816000Y-103802380D01*
X46673142Y-103850000D01*
X46577904Y-103945238D01*
X46530285Y-104040476D01*
X46482666Y-104230952D01*
X46482666Y-104373809D01*
X46530285Y-104564285D01*
X46577904Y-104659523D01*
X46673142Y-104754761D01*
X46816000Y-104802380D01*
X46911238Y-104802380D01*
X47054095Y-104754761D01*
X47101714Y-104707142D01*
X47101714Y-104373809D01*
X46911238Y-104373809D01*
X48101714Y-104802380D02*
X47768380Y-104326190D01*
X47530285Y-104802380D02*
X47530285Y-103802380D01*
X47911238Y-103802380D01*
X48006476Y-103850000D01*
X48054095Y-103897619D01*
X48101714Y-103992857D01*
X48101714Y-104135714D01*
X48054095Y-104230952D01*
X48006476Y-104278571D01*
X47911238Y-104326190D01*
X47530285Y-104326190D01*
X48720761Y-103802380D02*
X48911238Y-103802380D01*
X49006476Y-103850000D01*
X49101714Y-103945238D01*
X49149333Y-104135714D01*
X49149333Y-104469047D01*
X49101714Y-104659523D01*
X49006476Y-104754761D01*
X48911238Y-104802380D01*
X48720761Y-104802380D01*
X48625523Y-104754761D01*
X48530285Y-104659523D01*
X48482666Y-104469047D01*
X48482666Y-104135714D01*
X48530285Y-103945238D01*
X48625523Y-103850000D01*
X48720761Y-103802380D01*
X49577904Y-103802380D02*
X49577904Y-104611904D01*
X49625523Y-104707142D01*
X49673142Y-104754761D01*
X49768380Y-104802380D01*
X49958857Y-104802380D01*
X50054095Y-104754761D01*
X50101714Y-104707142D01*
X50149333Y-104611904D01*
X50149333Y-103802380D01*
X50625523Y-104802380D02*
X50625523Y-103802380D01*
X51196952Y-104802380D01*
X51196952Y-103802380D01*
X51673142Y-104802380D02*
X51673142Y-103802380D01*
X51911238Y-103802380D01*
X52054095Y-103850000D01*
X52149333Y-103945238D01*
X52196952Y-104040476D01*
X52244571Y-104230952D01*
X52244571Y-104373809D01*
X52196952Y-104564285D01*
X52149333Y-104659523D01*
X52054095Y-104754761D01*
X51911238Y-104802380D01*
X51673142Y-104802380D01*
X52435047Y-104897619D02*
X53196952Y-104897619D01*
X54006476Y-104707142D02*
X53958857Y-104754761D01*
X53816000Y-104802380D01*
X53720761Y-104802380D01*
X53577904Y-104754761D01*
X53482666Y-104659523D01*
X53435047Y-104564285D01*
X53387428Y-104373809D01*
X53387428Y-104230952D01*
X53435047Y-104040476D01*
X53482666Y-103945238D01*
X53577904Y-103850000D01*
X53720761Y-103802380D01*
X53816000Y-103802380D01*
X53958857Y-103850000D01*
X54006476Y-103897619D01*
X54625523Y-103802380D02*
X54816000Y-103802380D01*
X54911238Y-103850000D01*
X55006476Y-103945238D01*
X55054095Y-104135714D01*
X55054095Y-104469047D01*
X55006476Y-104659523D01*
X54911238Y-104754761D01*
X54816000Y-104802380D01*
X54625523Y-104802380D01*
X54530285Y-104754761D01*
X54435047Y-104659523D01*
X54387428Y-104469047D01*
X54387428Y-104135714D01*
X54435047Y-103945238D01*
X54530285Y-103850000D01*
X54625523Y-103802380D01*
X55482666Y-104802380D02*
X55482666Y-103802380D01*
X56054095Y-104802380D01*
X56054095Y-103802380D01*
X56530285Y-104802380D02*
X56530285Y-103802380D01*
X57101714Y-104802380D01*
X57101714Y-103802380D01*
X51268380Y-109553333D02*
X51982666Y-109553333D01*
X52125523Y-109600952D01*
X52220761Y-109696190D01*
X52268380Y-109839047D01*
X52268380Y-109934285D01*
X51601714Y-108648571D02*
X52268380Y-108648571D01*
X51220761Y-108886666D02*
X51935047Y-109124761D01*
X51935047Y-108505714D01*
%TO.C,J3*%
X47969514Y-124119685D02*
X48969514Y-124119685D01*
X48017133Y-124119685D02*
X47969514Y-124024447D01*
X47969514Y-123833971D01*
X48017133Y-123738733D01*
X48064752Y-123691114D01*
X48159990Y-123643495D01*
X48445704Y-123643495D01*
X48540942Y-123691114D01*
X48588561Y-123738733D01*
X48636180Y-123833971D01*
X48636180Y-124024447D01*
X48588561Y-124119685D01*
X48636180Y-123072066D02*
X48588561Y-123167304D01*
X48540942Y-123214923D01*
X48445704Y-123262542D01*
X48159990Y-123262542D01*
X48064752Y-123214923D01*
X48017133Y-123167304D01*
X47969514Y-123072066D01*
X47969514Y-122929209D01*
X48017133Y-122833971D01*
X48064752Y-122786352D01*
X48159990Y-122738733D01*
X48445704Y-122738733D01*
X48540942Y-122786352D01*
X48588561Y-122833971D01*
X48636180Y-122929209D01*
X48636180Y-123072066D01*
X47969514Y-122405400D02*
X48636180Y-122214923D01*
X48159990Y-122024447D01*
X48636180Y-121833971D01*
X47969514Y-121643495D01*
X48588561Y-120881590D02*
X48636180Y-120976828D01*
X48636180Y-121167304D01*
X48588561Y-121262542D01*
X48493323Y-121310161D01*
X48112371Y-121310161D01*
X48017133Y-121262542D01*
X47969514Y-121167304D01*
X47969514Y-120976828D01*
X48017133Y-120881590D01*
X48112371Y-120833971D01*
X48207609Y-120833971D01*
X48302847Y-121310161D01*
X48636180Y-120405400D02*
X47969514Y-120405400D01*
X48159990Y-120405400D02*
X48064752Y-120357780D01*
X48017133Y-120310161D01*
X47969514Y-120214923D01*
X47969514Y-120119685D01*
X48731419Y-120024447D02*
X48731419Y-119262542D01*
X48588561Y-119072066D02*
X48636180Y-118976828D01*
X48636180Y-118786352D01*
X48588561Y-118691114D01*
X48493323Y-118643495D01*
X48445704Y-118643495D01*
X48350466Y-118691114D01*
X48302847Y-118786352D01*
X48302847Y-118929209D01*
X48255228Y-119024447D01*
X48159990Y-119072066D01*
X48112371Y-119072066D01*
X48017133Y-119024447D01*
X47969514Y-118929209D01*
X47969514Y-118786352D01*
X48017133Y-118691114D01*
X47969514Y-117786352D02*
X48636180Y-117786352D01*
X47969514Y-118214923D02*
X48493323Y-118214923D01*
X48588561Y-118167304D01*
X48636180Y-118072066D01*
X48636180Y-117929209D01*
X48588561Y-117833971D01*
X48540942Y-117786352D01*
X47969514Y-117310161D02*
X48969514Y-117310161D01*
X48017133Y-117310161D02*
X47969514Y-117214923D01*
X47969514Y-117024447D01*
X48017133Y-116929209D01*
X48064752Y-116881590D01*
X48159990Y-116833971D01*
X48445704Y-116833971D01*
X48540942Y-116881590D01*
X48588561Y-116929209D01*
X48636180Y-117024447D01*
X48636180Y-117214923D01*
X48588561Y-117310161D01*
X47969514Y-116405400D02*
X48969514Y-116405400D01*
X48017133Y-116405400D02*
X47969514Y-116310161D01*
X47969514Y-116119685D01*
X48017133Y-116024447D01*
X48064752Y-115976828D01*
X48159990Y-115929209D01*
X48445704Y-115929209D01*
X48540942Y-115976828D01*
X48588561Y-116024447D01*
X48636180Y-116119685D01*
X48636180Y-116310161D01*
X48588561Y-116405400D01*
X48636180Y-115357780D02*
X48588561Y-115453019D01*
X48493323Y-115500638D01*
X47636180Y-115500638D01*
X47969514Y-115072066D02*
X48636180Y-114833971D01*
X47969514Y-114595876D02*
X48636180Y-114833971D01*
X48874276Y-114929209D01*
X48921895Y-114976828D01*
X48969514Y-115072066D01*
X51268380Y-120729333D02*
X51982666Y-120729333D01*
X52125523Y-120776952D01*
X52220761Y-120872190D01*
X52268380Y-121015047D01*
X52268380Y-121110285D01*
X51268380Y-120348380D02*
X51268380Y-119729333D01*
X51649333Y-120062666D01*
X51649333Y-119919809D01*
X51696952Y-119824571D01*
X51744571Y-119776952D01*
X51839809Y-119729333D01*
X52077904Y-119729333D01*
X52173142Y-119776952D01*
X52220761Y-119824571D01*
X52268380Y-119919809D01*
X52268380Y-120205523D01*
X52220761Y-120300761D01*
X52173142Y-120348380D01*
%TO.C,J1*%
X54296371Y-154654595D02*
X54343990Y-154511738D01*
X54391609Y-154464119D01*
X54486847Y-154416500D01*
X54629704Y-154416500D01*
X54724942Y-154464119D01*
X54772561Y-154511738D01*
X54820180Y-154606976D01*
X54820180Y-154987928D01*
X53820180Y-154987928D01*
X53820180Y-154654595D01*
X53867800Y-154559357D01*
X53915419Y-154511738D01*
X54010657Y-154464119D01*
X54105895Y-154464119D01*
X54201133Y-154511738D01*
X54248752Y-154559357D01*
X54296371Y-154654595D01*
X54296371Y-154987928D01*
X54820180Y-153559357D02*
X54296371Y-153559357D01*
X54201133Y-153606976D01*
X54153514Y-153702214D01*
X54153514Y-153892690D01*
X54201133Y-153987928D01*
X54772561Y-153559357D02*
X54820180Y-153654595D01*
X54820180Y-153892690D01*
X54772561Y-153987928D01*
X54677323Y-154035547D01*
X54582085Y-154035547D01*
X54486847Y-153987928D01*
X54439228Y-153892690D01*
X54439228Y-153654595D01*
X54391609Y-153559357D01*
X54820180Y-153083166D02*
X54153514Y-153083166D01*
X54343990Y-153083166D02*
X54248752Y-153035547D01*
X54201133Y-152987928D01*
X54153514Y-152892690D01*
X54153514Y-152797452D01*
X54820180Y-152464119D02*
X54153514Y-152464119D01*
X54343990Y-152464119D02*
X54248752Y-152416500D01*
X54201133Y-152368880D01*
X54153514Y-152273642D01*
X54153514Y-152178404D01*
X54772561Y-151464119D02*
X54820180Y-151559357D01*
X54820180Y-151749833D01*
X54772561Y-151845071D01*
X54677323Y-151892690D01*
X54296371Y-151892690D01*
X54201133Y-151845071D01*
X54153514Y-151749833D01*
X54153514Y-151559357D01*
X54201133Y-151464119D01*
X54296371Y-151416500D01*
X54391609Y-151416500D01*
X54486847Y-151892690D01*
X54820180Y-150845071D02*
X54772561Y-150940309D01*
X54677323Y-150987928D01*
X53820180Y-150987928D01*
X54915419Y-150702214D02*
X54915419Y-149940309D01*
X53820180Y-149416500D02*
X54534466Y-149416500D01*
X54677323Y-149464119D01*
X54772561Y-149559357D01*
X54820180Y-149702214D01*
X54820180Y-149797452D01*
X54820180Y-148511738D02*
X54296371Y-148511738D01*
X54201133Y-148559357D01*
X54153514Y-148654595D01*
X54153514Y-148845071D01*
X54201133Y-148940309D01*
X54772561Y-148511738D02*
X54820180Y-148606976D01*
X54820180Y-148845071D01*
X54772561Y-148940309D01*
X54677323Y-148987928D01*
X54582085Y-148987928D01*
X54486847Y-148940309D01*
X54439228Y-148845071D01*
X54439228Y-148606976D01*
X54391609Y-148511738D01*
X54772561Y-147606976D02*
X54820180Y-147702214D01*
X54820180Y-147892690D01*
X54772561Y-147987928D01*
X54724942Y-148035547D01*
X54629704Y-148083166D01*
X54343990Y-148083166D01*
X54248752Y-148035547D01*
X54201133Y-147987928D01*
X54153514Y-147892690D01*
X54153514Y-147702214D01*
X54201133Y-147606976D01*
X54820180Y-147178404D02*
X53820180Y-147178404D01*
X54439228Y-147083166D02*
X54820180Y-146797452D01*
X54153514Y-146797452D02*
X54534466Y-147178404D01*
X56370180Y-148049833D02*
X57084466Y-148049833D01*
X57227323Y-148097452D01*
X57322561Y-148192690D01*
X57370180Y-148335547D01*
X57370180Y-148430785D01*
X57370180Y-147049833D02*
X57370180Y-147621261D01*
X57370180Y-147335547D02*
X56370180Y-147335547D01*
X56513038Y-147430785D01*
X56608276Y-147526023D01*
X56655895Y-147621261D01*
%TO.C,D7*%
X120934880Y-122372357D02*
X120934880Y-122848547D01*
X119934880Y-122848547D01*
X120411071Y-122039023D02*
X120411071Y-121705690D01*
X120934880Y-121562833D02*
X120934880Y-122039023D01*
X119934880Y-122039023D01*
X119934880Y-121562833D01*
X120934880Y-121134261D02*
X119934880Y-121134261D01*
X119934880Y-120896166D01*
X119982500Y-120753309D01*
X120077738Y-120658071D01*
X120172976Y-120610452D01*
X120363452Y-120562833D01*
X120506309Y-120562833D01*
X120696785Y-120610452D01*
X120792023Y-120658071D01*
X120887261Y-120753309D01*
X120934880Y-120896166D01*
X120934880Y-121134261D01*
D12*
X116884404Y-122339976D02*
X116084404Y-122339976D01*
X116084404Y-122149500D01*
X116122500Y-122035214D01*
X116198690Y-121959023D01*
X116274880Y-121920928D01*
X116427261Y-121882833D01*
X116541547Y-121882833D01*
X116693928Y-121920928D01*
X116770119Y-121959023D01*
X116846309Y-122035214D01*
X116884404Y-122149500D01*
X116884404Y-122339976D01*
X116084404Y-121616166D02*
X116084404Y-121082833D01*
X116884404Y-121425690D01*
%TO.C,D8*%
D11*
X120490380Y-104528857D02*
X120490380Y-105005047D01*
X119490380Y-105005047D01*
X119966571Y-104195523D02*
X119966571Y-103862190D01*
X120490380Y-103719333D02*
X120490380Y-104195523D01*
X119490380Y-104195523D01*
X119490380Y-103719333D01*
X120490380Y-103290761D02*
X119490380Y-103290761D01*
X119490380Y-103052666D01*
X119538000Y-102909809D01*
X119633238Y-102814571D01*
X119728476Y-102766952D01*
X119918952Y-102719333D01*
X120061809Y-102719333D01*
X120252285Y-102766952D01*
X120347523Y-102814571D01*
X120442761Y-102909809D01*
X120490380Y-103052666D01*
X120490380Y-103290761D01*
D12*
X116439904Y-104496476D02*
X115639904Y-104496476D01*
X115639904Y-104306000D01*
X115678000Y-104191714D01*
X115754190Y-104115523D01*
X115830380Y-104077428D01*
X115982761Y-104039333D01*
X116097047Y-104039333D01*
X116249428Y-104077428D01*
X116325619Y-104115523D01*
X116401809Y-104191714D01*
X116439904Y-104306000D01*
X116439904Y-104496476D01*
X115982761Y-103582190D02*
X115944666Y-103658380D01*
X115906571Y-103696476D01*
X115830380Y-103734571D01*
X115792285Y-103734571D01*
X115716095Y-103696476D01*
X115678000Y-103658380D01*
X115639904Y-103582190D01*
X115639904Y-103429809D01*
X115678000Y-103353619D01*
X115716095Y-103315523D01*
X115792285Y-103277428D01*
X115830380Y-103277428D01*
X115906571Y-103315523D01*
X115944666Y-103353619D01*
X115982761Y-103429809D01*
X115982761Y-103582190D01*
X116020857Y-103658380D01*
X116058952Y-103696476D01*
X116135142Y-103734571D01*
X116287523Y-103734571D01*
X116363714Y-103696476D01*
X116401809Y-103658380D01*
X116439904Y-103582190D01*
X116439904Y-103429809D01*
X116401809Y-103353619D01*
X116363714Y-103315523D01*
X116287523Y-103277428D01*
X116135142Y-103277428D01*
X116058952Y-103315523D01*
X116020857Y-103353619D01*
X115982761Y-103429809D01*
%TO.C,D11*%
D11*
X120680880Y-139771357D02*
X120680880Y-140247547D01*
X119680880Y-140247547D01*
X120157071Y-139438023D02*
X120157071Y-139104690D01*
X120680880Y-138961833D02*
X120680880Y-139438023D01*
X119680880Y-139438023D01*
X119680880Y-138961833D01*
X120680880Y-138533261D02*
X119680880Y-138533261D01*
X119680880Y-138295166D01*
X119728500Y-138152309D01*
X119823738Y-138057071D01*
X119918976Y-138009452D01*
X120109452Y-137961833D01*
X120252309Y-137961833D01*
X120442785Y-138009452D01*
X120538023Y-138057071D01*
X120633261Y-138152309D01*
X120680880Y-138295166D01*
X120680880Y-138533261D01*
D12*
X116630404Y-140119928D02*
X115830404Y-140119928D01*
X115830404Y-139929452D01*
X115868500Y-139815166D01*
X115944690Y-139738976D01*
X116020880Y-139700880D01*
X116173261Y-139662785D01*
X116287547Y-139662785D01*
X116439928Y-139700880D01*
X116516119Y-139738976D01*
X116592309Y-139815166D01*
X116630404Y-139929452D01*
X116630404Y-140119928D01*
X116630404Y-138900880D02*
X116630404Y-139358023D01*
X116630404Y-139129452D02*
X115830404Y-139129452D01*
X115944690Y-139205642D01*
X116020880Y-139281833D01*
X116058976Y-139358023D01*
X116630404Y-138138976D02*
X116630404Y-138596119D01*
X116630404Y-138367547D02*
X115830404Y-138367547D01*
X115944690Y-138443738D01*
X116020880Y-138519928D01*
X116058976Y-138596119D01*
%TO.C,D12*%
D11*
X120744380Y-157805357D02*
X120744380Y-158281547D01*
X119744380Y-158281547D01*
X120220571Y-157472023D02*
X120220571Y-157138690D01*
X120744380Y-156995833D02*
X120744380Y-157472023D01*
X119744380Y-157472023D01*
X119744380Y-156995833D01*
X120744380Y-156567261D02*
X119744380Y-156567261D01*
X119744380Y-156329166D01*
X119792000Y-156186309D01*
X119887238Y-156091071D01*
X119982476Y-156043452D01*
X120172952Y-155995833D01*
X120315809Y-155995833D01*
X120506285Y-156043452D01*
X120601523Y-156091071D01*
X120696761Y-156186309D01*
X120744380Y-156329166D01*
X120744380Y-156567261D01*
D12*
X116693904Y-158153928D02*
X115893904Y-158153928D01*
X115893904Y-157963452D01*
X115932000Y-157849166D01*
X116008190Y-157772976D01*
X116084380Y-157734880D01*
X116236761Y-157696785D01*
X116351047Y-157696785D01*
X116503428Y-157734880D01*
X116579619Y-157772976D01*
X116655809Y-157849166D01*
X116693904Y-157963452D01*
X116693904Y-158153928D01*
X116693904Y-156934880D02*
X116693904Y-157392023D01*
X116693904Y-157163452D02*
X115893904Y-157163452D01*
X116008190Y-157239642D01*
X116084380Y-157315833D01*
X116122476Y-157392023D01*
X115970095Y-156630119D02*
X115932000Y-156592023D01*
X115893904Y-156515833D01*
X115893904Y-156325357D01*
X115932000Y-156249166D01*
X115970095Y-156211071D01*
X116046285Y-156172976D01*
X116122476Y-156172976D01*
X116236761Y-156211071D01*
X116693904Y-156668214D01*
X116693904Y-156172976D01*
%TO.C,D2*%
D11*
X57523142Y-106728380D02*
X57046952Y-106728380D01*
X57046952Y-105728380D01*
X57856476Y-106204571D02*
X58189809Y-106204571D01*
X58332666Y-106728380D02*
X57856476Y-106728380D01*
X57856476Y-105728380D01*
X58332666Y-105728380D01*
X58761238Y-106728380D02*
X58761238Y-105728380D01*
X58999333Y-105728380D01*
X59142190Y-105776000D01*
X59237428Y-105871238D01*
X59285047Y-105966476D01*
X59332666Y-106156952D01*
X59332666Y-106299809D01*
X59285047Y-106490285D01*
X59237428Y-106585523D01*
X59142190Y-106680761D01*
X58999333Y-106728380D01*
X58761238Y-106728380D01*
D12*
X57595523Y-110597904D02*
X57595523Y-109797904D01*
X57786000Y-109797904D01*
X57900285Y-109836000D01*
X57976476Y-109912190D01*
X58014571Y-109988380D01*
X58052666Y-110140761D01*
X58052666Y-110255047D01*
X58014571Y-110407428D01*
X57976476Y-110483619D01*
X57900285Y-110559809D01*
X57786000Y-110597904D01*
X57595523Y-110597904D01*
X58357428Y-109874095D02*
X58395523Y-109836000D01*
X58471714Y-109797904D01*
X58662190Y-109797904D01*
X58738380Y-109836000D01*
X58776476Y-109874095D01*
X58814571Y-109950285D01*
X58814571Y-110026476D01*
X58776476Y-110140761D01*
X58319333Y-110597904D01*
X58814571Y-110597904D01*
%TO.C,C1*%
D11*
X50440142Y-140181376D02*
X50487761Y-140228995D01*
X50535380Y-140371852D01*
X50535380Y-140467090D01*
X50487761Y-140609947D01*
X50392523Y-140705185D01*
X50297285Y-140752804D01*
X50106809Y-140800423D01*
X49963952Y-140800423D01*
X49773476Y-140752804D01*
X49678238Y-140705185D01*
X49583000Y-140609947D01*
X49535380Y-140467090D01*
X49535380Y-140371852D01*
X49583000Y-140228995D01*
X49630619Y-140181376D01*
X50630619Y-139990900D02*
X50630619Y-139228995D01*
X50487761Y-139038519D02*
X50535380Y-138895661D01*
X50535380Y-138657566D01*
X50487761Y-138562328D01*
X50440142Y-138514709D01*
X50344904Y-138467090D01*
X50249666Y-138467090D01*
X50154428Y-138514709D01*
X50106809Y-138562328D01*
X50059190Y-138657566D01*
X50011571Y-138848042D01*
X49963952Y-138943280D01*
X49916333Y-138990900D01*
X49821095Y-139038519D01*
X49725857Y-139038519D01*
X49630619Y-138990900D01*
X49583000Y-138943280D01*
X49535380Y-138848042D01*
X49535380Y-138609947D01*
X49583000Y-138467090D01*
X50535380Y-138038519D02*
X49868714Y-138038519D01*
X49963952Y-138038519D02*
X49916333Y-137990900D01*
X49868714Y-137895661D01*
X49868714Y-137752804D01*
X49916333Y-137657566D01*
X50011571Y-137609947D01*
X50535380Y-137609947D01*
X50011571Y-137609947D02*
X49916333Y-137562328D01*
X49868714Y-137467090D01*
X49868714Y-137324233D01*
X49916333Y-137228995D01*
X50011571Y-137181376D01*
X50535380Y-137181376D01*
X50535380Y-136276614D02*
X50011571Y-136276614D01*
X49916333Y-136324233D01*
X49868714Y-136419471D01*
X49868714Y-136609947D01*
X49916333Y-136705185D01*
X50487761Y-136276614D02*
X50535380Y-136371852D01*
X50535380Y-136609947D01*
X50487761Y-136705185D01*
X50392523Y-136752804D01*
X50297285Y-136752804D01*
X50202047Y-136705185D01*
X50154428Y-136609947D01*
X50154428Y-136371852D01*
X50106809Y-136276614D01*
X50535380Y-135657566D02*
X50487761Y-135752804D01*
X50392523Y-135800423D01*
X49535380Y-135800423D01*
X50535380Y-135133757D02*
X50487761Y-135228995D01*
X50392523Y-135276614D01*
X49535380Y-135276614D01*
X54840142Y-138157566D02*
X54887761Y-138205185D01*
X54935380Y-138348042D01*
X54935380Y-138443280D01*
X54887761Y-138586138D01*
X54792523Y-138681376D01*
X54697285Y-138728995D01*
X54506809Y-138776614D01*
X54363952Y-138776614D01*
X54173476Y-138728995D01*
X54078238Y-138681376D01*
X53983000Y-138586138D01*
X53935380Y-138443280D01*
X53935380Y-138348042D01*
X53983000Y-138205185D01*
X54030619Y-138157566D01*
X54935380Y-137205185D02*
X54935380Y-137776614D01*
X54935380Y-137490900D02*
X53935380Y-137490900D01*
X54078238Y-137586138D01*
X54173476Y-137681376D01*
X54221095Y-137776614D01*
%TO.C,K2*%
X143386000Y-118816166D02*
X143338380Y-118911404D01*
X143338380Y-119054261D01*
X143386000Y-119197119D01*
X143481238Y-119292357D01*
X143576476Y-119339976D01*
X143766952Y-119387595D01*
X143909809Y-119387595D01*
X144100285Y-119339976D01*
X144195523Y-119292357D01*
X144290761Y-119197119D01*
X144338380Y-119054261D01*
X144338380Y-118959023D01*
X144290761Y-118816166D01*
X144243142Y-118768547D01*
X143909809Y-118768547D01*
X143909809Y-118959023D01*
X143338380Y-117863785D02*
X143338380Y-118339976D01*
X143814571Y-118387595D01*
X143766952Y-118339976D01*
X143719333Y-118244738D01*
X143719333Y-118006642D01*
X143766952Y-117911404D01*
X143814571Y-117863785D01*
X143909809Y-117816166D01*
X144147904Y-117816166D01*
X144243142Y-117863785D01*
X144290761Y-117911404D01*
X144338380Y-118006642D01*
X144338380Y-118244738D01*
X144290761Y-118339976D01*
X144243142Y-118387595D01*
X144338380Y-116911404D02*
X144338380Y-117387595D01*
X143338380Y-117387595D01*
X143814571Y-116578071D02*
X143814571Y-116244738D01*
X144338380Y-116101880D02*
X144338380Y-116578071D01*
X143338380Y-116578071D01*
X143338380Y-116101880D01*
X143957428Y-115673309D02*
X143957428Y-114911404D01*
X144338380Y-113911404D02*
X144338380Y-114482833D01*
X144338380Y-114197119D02*
X143338380Y-114197119D01*
X143481238Y-114292357D01*
X143576476Y-114387595D01*
X143624095Y-114482833D01*
X132088380Y-117387595D02*
X131088380Y-117387595D01*
X132088380Y-116816166D02*
X131516952Y-117244738D01*
X131088380Y-116816166D02*
X131659809Y-117387595D01*
X131183619Y-116435214D02*
X131136000Y-116387595D01*
X131088380Y-116292357D01*
X131088380Y-116054261D01*
X131136000Y-115959023D01*
X131183619Y-115911404D01*
X131278857Y-115863785D01*
X131374095Y-115863785D01*
X131516952Y-115911404D01*
X132088380Y-116482833D01*
X132088380Y-115863785D01*
%TO.C,K3*%
X143259000Y-101417166D02*
X143211380Y-101512404D01*
X143211380Y-101655261D01*
X143259000Y-101798119D01*
X143354238Y-101893357D01*
X143449476Y-101940976D01*
X143639952Y-101988595D01*
X143782809Y-101988595D01*
X143973285Y-101940976D01*
X144068523Y-101893357D01*
X144163761Y-101798119D01*
X144211380Y-101655261D01*
X144211380Y-101560023D01*
X144163761Y-101417166D01*
X144116142Y-101369547D01*
X143782809Y-101369547D01*
X143782809Y-101560023D01*
X143211380Y-100464785D02*
X143211380Y-100940976D01*
X143687571Y-100988595D01*
X143639952Y-100940976D01*
X143592333Y-100845738D01*
X143592333Y-100607642D01*
X143639952Y-100512404D01*
X143687571Y-100464785D01*
X143782809Y-100417166D01*
X144020904Y-100417166D01*
X144116142Y-100464785D01*
X144163761Y-100512404D01*
X144211380Y-100607642D01*
X144211380Y-100845738D01*
X144163761Y-100940976D01*
X144116142Y-100988595D01*
X144211380Y-99512404D02*
X144211380Y-99988595D01*
X143211380Y-99988595D01*
X143687571Y-99179071D02*
X143687571Y-98845738D01*
X144211380Y-98702880D02*
X144211380Y-99179071D01*
X143211380Y-99179071D01*
X143211380Y-98702880D01*
X143830428Y-98274309D02*
X143830428Y-97512404D01*
X144211380Y-96512404D02*
X144211380Y-97083833D01*
X144211380Y-96798119D02*
X143211380Y-96798119D01*
X143354238Y-96893357D01*
X143449476Y-96988595D01*
X143497095Y-97083833D01*
X131961380Y-99988595D02*
X130961380Y-99988595D01*
X131961380Y-99417166D02*
X131389952Y-99845738D01*
X130961380Y-99417166D02*
X131532809Y-99988595D01*
X130961380Y-99083833D02*
X130961380Y-98464785D01*
X131342333Y-98798119D01*
X131342333Y-98655261D01*
X131389952Y-98560023D01*
X131437571Y-98512404D01*
X131532809Y-98464785D01*
X131770904Y-98464785D01*
X131866142Y-98512404D01*
X131913761Y-98560023D01*
X131961380Y-98655261D01*
X131961380Y-98940976D01*
X131913761Y-99036214D01*
X131866142Y-99083833D01*
%TO.C,K4*%
X143386000Y-136596166D02*
X143338380Y-136691404D01*
X143338380Y-136834261D01*
X143386000Y-136977119D01*
X143481238Y-137072357D01*
X143576476Y-137119976D01*
X143766952Y-137167595D01*
X143909809Y-137167595D01*
X144100285Y-137119976D01*
X144195523Y-137072357D01*
X144290761Y-136977119D01*
X144338380Y-136834261D01*
X144338380Y-136739023D01*
X144290761Y-136596166D01*
X144243142Y-136548547D01*
X143909809Y-136548547D01*
X143909809Y-136739023D01*
X143338380Y-135643785D02*
X143338380Y-136119976D01*
X143814571Y-136167595D01*
X143766952Y-136119976D01*
X143719333Y-136024738D01*
X143719333Y-135786642D01*
X143766952Y-135691404D01*
X143814571Y-135643785D01*
X143909809Y-135596166D01*
X144147904Y-135596166D01*
X144243142Y-135643785D01*
X144290761Y-135691404D01*
X144338380Y-135786642D01*
X144338380Y-136024738D01*
X144290761Y-136119976D01*
X144243142Y-136167595D01*
X144338380Y-134691404D02*
X144338380Y-135167595D01*
X143338380Y-135167595D01*
X143814571Y-134358071D02*
X143814571Y-134024738D01*
X144338380Y-133881880D02*
X144338380Y-134358071D01*
X143338380Y-134358071D01*
X143338380Y-133881880D01*
X143957428Y-133453309D02*
X143957428Y-132691404D01*
X144338380Y-131691404D02*
X144338380Y-132262833D01*
X144338380Y-131977119D02*
X143338380Y-131977119D01*
X143481238Y-132072357D01*
X143576476Y-132167595D01*
X143624095Y-132262833D01*
X132088380Y-135167595D02*
X131088380Y-135167595D01*
X132088380Y-134596166D02*
X131516952Y-135024738D01*
X131088380Y-134596166D02*
X131659809Y-135167595D01*
X131421714Y-133739023D02*
X132088380Y-133739023D01*
X131040761Y-133977119D02*
X131755047Y-134215214D01*
X131755047Y-133596166D01*
%TO.C,K5*%
X143449500Y-153995166D02*
X143401880Y-154090404D01*
X143401880Y-154233261D01*
X143449500Y-154376119D01*
X143544738Y-154471357D01*
X143639976Y-154518976D01*
X143830452Y-154566595D01*
X143973309Y-154566595D01*
X144163785Y-154518976D01*
X144259023Y-154471357D01*
X144354261Y-154376119D01*
X144401880Y-154233261D01*
X144401880Y-154138023D01*
X144354261Y-153995166D01*
X144306642Y-153947547D01*
X143973309Y-153947547D01*
X143973309Y-154138023D01*
X143401880Y-153042785D02*
X143401880Y-153518976D01*
X143878071Y-153566595D01*
X143830452Y-153518976D01*
X143782833Y-153423738D01*
X143782833Y-153185642D01*
X143830452Y-153090404D01*
X143878071Y-153042785D01*
X143973309Y-152995166D01*
X144211404Y-152995166D01*
X144306642Y-153042785D01*
X144354261Y-153090404D01*
X144401880Y-153185642D01*
X144401880Y-153423738D01*
X144354261Y-153518976D01*
X144306642Y-153566595D01*
X144401880Y-152090404D02*
X144401880Y-152566595D01*
X143401880Y-152566595D01*
X143878071Y-151757071D02*
X143878071Y-151423738D01*
X144401880Y-151280880D02*
X144401880Y-151757071D01*
X143401880Y-151757071D01*
X143401880Y-151280880D01*
X144020928Y-150852309D02*
X144020928Y-150090404D01*
X144401880Y-149090404D02*
X144401880Y-149661833D01*
X144401880Y-149376119D02*
X143401880Y-149376119D01*
X143544738Y-149471357D01*
X143639976Y-149566595D01*
X143687595Y-149661833D01*
X132151880Y-152566595D02*
X131151880Y-152566595D01*
X132151880Y-151995166D02*
X131580452Y-152423738D01*
X131151880Y-151995166D02*
X131723309Y-152566595D01*
X131151880Y-151090404D02*
X131151880Y-151566595D01*
X131628071Y-151614214D01*
X131580452Y-151566595D01*
X131532833Y-151471357D01*
X131532833Y-151233261D01*
X131580452Y-151138023D01*
X131628071Y-151090404D01*
X131723309Y-151042785D01*
X131961404Y-151042785D01*
X132056642Y-151090404D01*
X132104261Y-151138023D01*
X132151880Y-151233261D01*
X132151880Y-151471357D01*
X132104261Y-151566595D01*
X132056642Y-151614214D01*
%TO.C,D4*%
X107392880Y-116887357D02*
X107392880Y-117458785D01*
X107392880Y-117173071D02*
X106392880Y-117173071D01*
X106535738Y-117268309D01*
X106630976Y-117363547D01*
X106678595Y-117458785D01*
X107392880Y-116458785D02*
X106392880Y-116458785D01*
X107392880Y-115887357D01*
X106392880Y-115887357D01*
X106726214Y-114982595D02*
X107392880Y-114982595D01*
X106345261Y-115220690D02*
X107059547Y-115458785D01*
X107059547Y-114839738D01*
X106392880Y-114268309D02*
X106392880Y-114173071D01*
X106440500Y-114077833D01*
X106488119Y-114030214D01*
X106583357Y-113982595D01*
X106773833Y-113934976D01*
X107011928Y-113934976D01*
X107202404Y-113982595D01*
X107297642Y-114030214D01*
X107345261Y-114077833D01*
X107392880Y-114173071D01*
X107392880Y-114268309D01*
X107345261Y-114363547D01*
X107297642Y-114411166D01*
X107202404Y-114458785D01*
X107011928Y-114506404D01*
X106773833Y-114506404D01*
X106583357Y-114458785D01*
X106488119Y-114411166D01*
X106440500Y-114363547D01*
X106392880Y-114268309D01*
X106392880Y-113315928D02*
X106392880Y-113220690D01*
X106440500Y-113125452D01*
X106488119Y-113077833D01*
X106583357Y-113030214D01*
X106773833Y-112982595D01*
X107011928Y-112982595D01*
X107202404Y-113030214D01*
X107297642Y-113077833D01*
X107345261Y-113125452D01*
X107392880Y-113220690D01*
X107392880Y-113315928D01*
X107345261Y-113411166D01*
X107297642Y-113458785D01*
X107202404Y-113506404D01*
X107011928Y-113554023D01*
X106773833Y-113554023D01*
X106583357Y-113506404D01*
X106488119Y-113458785D01*
X106440500Y-113411166D01*
X106392880Y-113315928D01*
X106392880Y-112649261D02*
X106392880Y-111982595D01*
X107392880Y-112411166D01*
X111962880Y-109926404D02*
X110962880Y-109926404D01*
X111962880Y-109354976D02*
X111391452Y-109783547D01*
X110962880Y-109354976D02*
X111534309Y-109926404D01*
X109862880Y-115872595D02*
X108862880Y-115872595D01*
X108862880Y-115634500D01*
X108910500Y-115491642D01*
X109005738Y-115396404D01*
X109100976Y-115348785D01*
X109291452Y-115301166D01*
X109434309Y-115301166D01*
X109624785Y-115348785D01*
X109720023Y-115396404D01*
X109815261Y-115491642D01*
X109862880Y-115634500D01*
X109862880Y-115872595D01*
X109196214Y-114444023D02*
X109862880Y-114444023D01*
X108815261Y-114682119D02*
X109529547Y-114920214D01*
X109529547Y-114301166D01*
%TO.C,D5*%
X106630880Y-98853357D02*
X106630880Y-99424785D01*
X106630880Y-99139071D02*
X105630880Y-99139071D01*
X105773738Y-99234309D01*
X105868976Y-99329547D01*
X105916595Y-99424785D01*
X106630880Y-98424785D02*
X105630880Y-98424785D01*
X106630880Y-97853357D01*
X105630880Y-97853357D01*
X105964214Y-96948595D02*
X106630880Y-96948595D01*
X105583261Y-97186690D02*
X106297547Y-97424785D01*
X106297547Y-96805738D01*
X105630880Y-96234309D02*
X105630880Y-96139071D01*
X105678500Y-96043833D01*
X105726119Y-95996214D01*
X105821357Y-95948595D01*
X106011833Y-95900976D01*
X106249928Y-95900976D01*
X106440404Y-95948595D01*
X106535642Y-95996214D01*
X106583261Y-96043833D01*
X106630880Y-96139071D01*
X106630880Y-96234309D01*
X106583261Y-96329547D01*
X106535642Y-96377166D01*
X106440404Y-96424785D01*
X106249928Y-96472404D01*
X106011833Y-96472404D01*
X105821357Y-96424785D01*
X105726119Y-96377166D01*
X105678500Y-96329547D01*
X105630880Y-96234309D01*
X105630880Y-95281928D02*
X105630880Y-95186690D01*
X105678500Y-95091452D01*
X105726119Y-95043833D01*
X105821357Y-94996214D01*
X106011833Y-94948595D01*
X106249928Y-94948595D01*
X106440404Y-94996214D01*
X106535642Y-95043833D01*
X106583261Y-95091452D01*
X106630880Y-95186690D01*
X106630880Y-95281928D01*
X106583261Y-95377166D01*
X106535642Y-95424785D01*
X106440404Y-95472404D01*
X106249928Y-95520023D01*
X106011833Y-95520023D01*
X105821357Y-95472404D01*
X105726119Y-95424785D01*
X105678500Y-95377166D01*
X105630880Y-95281928D01*
X105630880Y-94615261D02*
X105630880Y-93948595D01*
X106630880Y-94377166D01*
X111200880Y-91892404D02*
X110200880Y-91892404D01*
X111200880Y-91320976D02*
X110629452Y-91749547D01*
X110200880Y-91320976D02*
X110772309Y-91892404D01*
X109100880Y-97838595D02*
X108100880Y-97838595D01*
X108100880Y-97600500D01*
X108148500Y-97457642D01*
X108243738Y-97362404D01*
X108338976Y-97314785D01*
X108529452Y-97267166D01*
X108672309Y-97267166D01*
X108862785Y-97314785D01*
X108958023Y-97362404D01*
X109053261Y-97457642D01*
X109100880Y-97600500D01*
X109100880Y-97838595D01*
X108100880Y-96362404D02*
X108100880Y-96838595D01*
X108577071Y-96886214D01*
X108529452Y-96838595D01*
X108481833Y-96743357D01*
X108481833Y-96505261D01*
X108529452Y-96410023D01*
X108577071Y-96362404D01*
X108672309Y-96314785D01*
X108910404Y-96314785D01*
X109005642Y-96362404D01*
X109053261Y-96410023D01*
X109100880Y-96505261D01*
X109100880Y-96743357D01*
X109053261Y-96838595D01*
X109005642Y-96886214D01*
%TO.C,D9*%
X107075380Y-134095857D02*
X107075380Y-134667285D01*
X107075380Y-134381571D02*
X106075380Y-134381571D01*
X106218238Y-134476809D01*
X106313476Y-134572047D01*
X106361095Y-134667285D01*
X107075380Y-133667285D02*
X106075380Y-133667285D01*
X107075380Y-133095857D01*
X106075380Y-133095857D01*
X106408714Y-132191095D02*
X107075380Y-132191095D01*
X106027761Y-132429190D02*
X106742047Y-132667285D01*
X106742047Y-132048238D01*
X106075380Y-131476809D02*
X106075380Y-131381571D01*
X106123000Y-131286333D01*
X106170619Y-131238714D01*
X106265857Y-131191095D01*
X106456333Y-131143476D01*
X106694428Y-131143476D01*
X106884904Y-131191095D01*
X106980142Y-131238714D01*
X107027761Y-131286333D01*
X107075380Y-131381571D01*
X107075380Y-131476809D01*
X107027761Y-131572047D01*
X106980142Y-131619666D01*
X106884904Y-131667285D01*
X106694428Y-131714904D01*
X106456333Y-131714904D01*
X106265857Y-131667285D01*
X106170619Y-131619666D01*
X106123000Y-131572047D01*
X106075380Y-131476809D01*
X106075380Y-130524428D02*
X106075380Y-130429190D01*
X106123000Y-130333952D01*
X106170619Y-130286333D01*
X106265857Y-130238714D01*
X106456333Y-130191095D01*
X106694428Y-130191095D01*
X106884904Y-130238714D01*
X106980142Y-130286333D01*
X107027761Y-130333952D01*
X107075380Y-130429190D01*
X107075380Y-130524428D01*
X107027761Y-130619666D01*
X106980142Y-130667285D01*
X106884904Y-130714904D01*
X106694428Y-130762523D01*
X106456333Y-130762523D01*
X106265857Y-130714904D01*
X106170619Y-130667285D01*
X106123000Y-130619666D01*
X106075380Y-130524428D01*
X106075380Y-129857761D02*
X106075380Y-129191095D01*
X107075380Y-129619666D01*
X111645380Y-127134904D02*
X110645380Y-127134904D01*
X111645380Y-126563476D02*
X111073952Y-126992047D01*
X110645380Y-126563476D02*
X111216809Y-127134904D01*
X109545380Y-133081095D02*
X108545380Y-133081095D01*
X108545380Y-132843000D01*
X108593000Y-132700142D01*
X108688238Y-132604904D01*
X108783476Y-132557285D01*
X108973952Y-132509666D01*
X109116809Y-132509666D01*
X109307285Y-132557285D01*
X109402523Y-132604904D01*
X109497761Y-132700142D01*
X109545380Y-132843000D01*
X109545380Y-133081095D01*
X109545380Y-132033476D02*
X109545380Y-131843000D01*
X109497761Y-131747761D01*
X109450142Y-131700142D01*
X109307285Y-131604904D01*
X109116809Y-131557285D01*
X108735857Y-131557285D01*
X108640619Y-131604904D01*
X108593000Y-131652523D01*
X108545380Y-131747761D01*
X108545380Y-131938238D01*
X108593000Y-132033476D01*
X108640619Y-132081095D01*
X108735857Y-132128714D01*
X108973952Y-132128714D01*
X109069190Y-132081095D01*
X109116809Y-132033476D01*
X109164428Y-131938238D01*
X109164428Y-131747761D01*
X109116809Y-131652523D01*
X109069190Y-131604904D01*
X108973952Y-131557285D01*
%TO.C,D10*%
X107392880Y-152193357D02*
X107392880Y-152764785D01*
X107392880Y-152479071D02*
X106392880Y-152479071D01*
X106535738Y-152574309D01*
X106630976Y-152669547D01*
X106678595Y-152764785D01*
X107392880Y-151764785D02*
X106392880Y-151764785D01*
X107392880Y-151193357D01*
X106392880Y-151193357D01*
X106726214Y-150288595D02*
X107392880Y-150288595D01*
X106345261Y-150526690D02*
X107059547Y-150764785D01*
X107059547Y-150145738D01*
X106392880Y-149574309D02*
X106392880Y-149479071D01*
X106440500Y-149383833D01*
X106488119Y-149336214D01*
X106583357Y-149288595D01*
X106773833Y-149240976D01*
X107011928Y-149240976D01*
X107202404Y-149288595D01*
X107297642Y-149336214D01*
X107345261Y-149383833D01*
X107392880Y-149479071D01*
X107392880Y-149574309D01*
X107345261Y-149669547D01*
X107297642Y-149717166D01*
X107202404Y-149764785D01*
X107011928Y-149812404D01*
X106773833Y-149812404D01*
X106583357Y-149764785D01*
X106488119Y-149717166D01*
X106440500Y-149669547D01*
X106392880Y-149574309D01*
X106392880Y-148621928D02*
X106392880Y-148526690D01*
X106440500Y-148431452D01*
X106488119Y-148383833D01*
X106583357Y-148336214D01*
X106773833Y-148288595D01*
X107011928Y-148288595D01*
X107202404Y-148336214D01*
X107297642Y-148383833D01*
X107345261Y-148431452D01*
X107392880Y-148526690D01*
X107392880Y-148621928D01*
X107345261Y-148717166D01*
X107297642Y-148764785D01*
X107202404Y-148812404D01*
X107011928Y-148860023D01*
X106773833Y-148860023D01*
X106583357Y-148812404D01*
X106488119Y-148764785D01*
X106440500Y-148717166D01*
X106392880Y-148621928D01*
X106392880Y-147955261D02*
X106392880Y-147288595D01*
X107392880Y-147717166D01*
X111962880Y-145232404D02*
X110962880Y-145232404D01*
X111962880Y-144660976D02*
X111391452Y-145089547D01*
X110962880Y-144660976D02*
X111534309Y-145232404D01*
X109862880Y-151654785D02*
X108862880Y-151654785D01*
X108862880Y-151416690D01*
X108910500Y-151273833D01*
X109005738Y-151178595D01*
X109100976Y-151130976D01*
X109291452Y-151083357D01*
X109434309Y-151083357D01*
X109624785Y-151130976D01*
X109720023Y-151178595D01*
X109815261Y-151273833D01*
X109862880Y-151416690D01*
X109862880Y-151654785D01*
X109862880Y-150130976D02*
X109862880Y-150702404D01*
X109862880Y-150416690D02*
X108862880Y-150416690D01*
X109005738Y-150511928D01*
X109100976Y-150607166D01*
X109148595Y-150702404D01*
X108862880Y-149511928D02*
X108862880Y-149416690D01*
X108910500Y-149321452D01*
X108958119Y-149273833D01*
X109053357Y-149226214D01*
X109243833Y-149178595D01*
X109481928Y-149178595D01*
X109672404Y-149226214D01*
X109767642Y-149273833D01*
X109815261Y-149321452D01*
X109862880Y-149416690D01*
X109862880Y-149511928D01*
X109815261Y-149607166D01*
X109767642Y-149654785D01*
X109672404Y-149702404D01*
X109481928Y-149750023D01*
X109243833Y-149750023D01*
X109053357Y-149702404D01*
X108958119Y-149654785D01*
X108910500Y-149607166D01*
X108862880Y-149511928D01*
%TD*%
M02*
