M48
; DRILL file {KiCad (5.1.12)-1} date 03/25/22 13:53:09
; FORMAT={-:-/ absolute / inch / decimal}
; #@! TF.CreationDate,2022-03-25T13:53:09+05:30
; #@! TF.GenerationSoftware,Kicad,Pcbnew,(5.1.12)-1
; #@! TF.FileFunction,Plated,1,2,PTH
FMAT,2
INCH
T1C0.0315
T2C0.0354
T3C0.0394
T4C0.0433
T5C0.0512
%
G90
G05
T1
X3.475Y-3.6
X3.475Y-3.9
X4.8266Y-3.725
X4.8266Y-3.975
X4.875Y-3.15
X4.875Y-3.45
X4.925Y-3.725
X4.925Y-3.975
T2
X4.65Y-3.175
X4.65Y-3.275
T3
X3.075Y-3.525
X3.225Y-3.225
X3.225Y-3.325
X3.225Y-3.425
X3.225Y-3.525
X3.225Y-4.525
X3.225Y-4.625
X3.225Y-4.725
X3.225Y-4.825
X3.475Y-4.025
X3.475Y-4.175
X3.475Y-4.325
X3.575Y-4.025
X3.575Y-4.175
X3.575Y-4.325
X3.65Y-3.575
X3.65Y-3.675
X3.65Y-3.775
X3.65Y-3.875
X3.675Y-4.025
X3.675Y-4.175
X3.675Y-4.325
X3.675Y-4.475
X3.675Y-4.75
X3.85Y-3.25
X3.85Y-3.35
X3.85Y-3.45
X3.85Y-3.55
X3.85Y-3.65
X3.85Y-3.75
X3.85Y-3.85
X3.85Y-3.95
X3.85Y-4.05
X3.85Y-4.15
X3.85Y-4.25
X3.85Y-4.35
X3.85Y-4.45
X3.85Y-4.55
X3.85Y-4.65
X4.45Y-3.25
X4.45Y-3.35
X4.45Y-3.45
X4.45Y-3.55
X4.45Y-3.65
X4.45Y-3.75
X4.45Y-3.85
X4.45Y-3.95
X4.45Y-4.05
X4.45Y-4.15
X4.45Y-4.25
X4.45Y-4.35
X4.45Y-4.45
X4.45Y-4.55
X4.45Y-4.65
X4.625Y-3.525
X4.625Y-3.625
X4.625Y-3.725
X4.625Y-3.825
X4.625Y-3.975
X4.625Y-4.075
X4.625Y-4.175
X4.625Y-4.675
X4.625Y-4.825
X4.65Y-4.325
X4.65Y-4.425
X4.65Y-4.525
X5.025Y-3.175
X5.025Y-3.275
X5.025Y-3.375
X5.025Y-3.475
T4
X5.15Y-3.75
X5.15Y-3.85
X5.15Y-3.95
T5
X3.4531Y-3.25
X3.65Y-3.25
T3
G00X4.9356Y-4.2
M15
G01X5.0144Y-4.2
M16
G05
G00X4.9356Y-4.4362
M15
G01X5.0144Y-4.4362
M16
G05
G00X5.16Y-4.3575
M15
G01X5.16Y-4.2787
M16
G05
T0
M30
