%TF.GenerationSoftware,KiCad,Pcbnew,(5.1.12)-1*%
%TF.CreationDate,2022-03-25T13:53:05+05:30*%
%TF.ProjectId,smart_menu,736d6172-745f-46d6-956e-752e6b696361,rev?*%
%TF.SameCoordinates,Original*%
%TF.FileFunction,Copper,L1,Top*%
%TF.FilePolarity,Positive*%
%FSLAX46Y46*%
G04 Gerber Fmt 4.6, Leading zero omitted, Abs format (unit mm)*
G04 Created by KiCad (PCBNEW (5.1.12)-1) date 2022-03-25 13:53:05*
%MOMM*%
%LPD*%
G01*
G04 APERTURE LIST*
%TA.AperFunction,ComponentPad*%
%ADD10C,2.600000*%
%TD*%
%TA.AperFunction,ComponentPad*%
%ADD11R,2.600000X2.600000*%
%TD*%
%TA.AperFunction,ComponentPad*%
%ADD12O,2.000000X1.905000*%
%TD*%
%TA.AperFunction,ComponentPad*%
%ADD13R,2.000000X1.905000*%
%TD*%
%TA.AperFunction,ComponentPad*%
%ADD14O,1.600000X1.600000*%
%TD*%
%TA.AperFunction,ComponentPad*%
%ADD15C,1.600000*%
%TD*%
%TA.AperFunction,ComponentPad*%
%ADD16R,1.700000X1.700000*%
%TD*%
%TA.AperFunction,ComponentPad*%
%ADD17O,1.700000X1.700000*%
%TD*%
%TA.AperFunction,ComponentPad*%
%ADD18R,3.500000X3.500000*%
%TD*%
%TA.AperFunction,ComponentPad*%
%ADD19C,1.800000*%
%TD*%
%TA.AperFunction,ComponentPad*%
%ADD20R,1.800000X1.800000*%
%TD*%
%TA.AperFunction,ComponentPad*%
%ADD21R,1.600000X1.600000*%
%TD*%
%TA.AperFunction,ViaPad*%
%ADD22C,2.000000*%
%TD*%
%TA.AperFunction,Conductor*%
%ADD23C,1.200000*%
%TD*%
%TA.AperFunction,Conductor*%
%ADD24C,1.600000*%
%TD*%
%TA.AperFunction,Conductor*%
%ADD25C,0.254000*%
%TD*%
%TA.AperFunction,Conductor*%
%ADD26C,0.100000*%
%TD*%
G04 APERTURE END LIST*
D10*
%TO.P,J4,2*%
%TO.N,SW*%
X87710000Y-82550000D03*
D11*
%TO.P,J4,1*%
%TO.N,GND*%
X92710000Y-82550000D03*
%TD*%
D12*
%TO.P,U1,3*%
%TO.N,+5V*%
X130810000Y-95250000D03*
%TO.P,U1,2*%
%TO.N,GND*%
X130810000Y-97790000D03*
D13*
%TO.P,U1,1*%
%TO.N,Net-(C1-Pad1)*%
X130810000Y-100330000D03*
%TD*%
D14*
%TO.P,R1,2*%
%TO.N,Net-(D1-Pad2)*%
X123825000Y-80010000D03*
D15*
%TO.P,R1,1*%
%TO.N,+5V*%
X123825000Y-87630000D03*
%TD*%
D16*
%TO.P,J18,1*%
%TO.N,Net-(A1-Pad17)*%
X117475000Y-118745000D03*
%TD*%
%TO.P,J17,1*%
%TO.N,Net-(A1-Pad16)*%
X117475000Y-122555000D03*
%TD*%
%TO.P,J16,1*%
%TO.N,Net-(A1-Pad15)*%
X93345000Y-120650000D03*
%TD*%
%TO.P,J15,1*%
%TO.N,Net-(A1-Pad13)*%
X93345000Y-113665000D03*
%TD*%
D17*
%TO.P,J14,4*%
%TO.N,Net-(A1-Pad6)*%
X92710000Y-90805000D03*
%TO.P,J14,3*%
%TO.N,Net-(A1-Pad7)*%
X92710000Y-93345000D03*
%TO.P,J14,2*%
%TO.N,Net-(A1-Pad8)*%
X92710000Y-95885000D03*
D16*
%TO.P,J14,1*%
%TO.N,Net-(A1-Pad9)*%
X92710000Y-98425000D03*
%TD*%
D17*
%TO.P,J13,4*%
%TO.N,GND*%
X127635000Y-88265000D03*
%TO.P,J13,3*%
X127635000Y-85725000D03*
%TO.P,J13,2*%
X127635000Y-83185000D03*
D16*
%TO.P,J13,1*%
X127635000Y-80645000D03*
%TD*%
D17*
%TO.P,J12,4*%
%TO.N,VCC*%
X117475000Y-97155000D03*
%TO.P,J12,3*%
X117475000Y-94615000D03*
%TO.P,J12,2*%
X117475000Y-92075000D03*
D16*
%TO.P,J12,1*%
X117475000Y-89535000D03*
%TD*%
D17*
%TO.P,J9,4*%
%TO.N,VCC*%
X81915000Y-81915000D03*
%TO.P,J9,3*%
%TO.N,GND*%
X81915000Y-84455000D03*
%TO.P,J9,2*%
X81915000Y-86995000D03*
D16*
%TO.P,J9,1*%
%TO.N,Net-(J10-Pad1)*%
X81915000Y-89535000D03*
%TD*%
D17*
%TO.P,J8,4*%
%TO.N,GND*%
X81915000Y-122555000D03*
%TO.P,J8,3*%
%TO.N,RF_DATA*%
X81915000Y-120015000D03*
%TO.P,J8,2*%
X81915000Y-117475000D03*
D16*
%TO.P,J8,1*%
%TO.N,VCC*%
X81915000Y-114935000D03*
%TD*%
D17*
%TO.P,J7,3*%
%TO.N,IR4_DATA*%
X118110000Y-114935000D03*
%TO.P,J7,2*%
%TO.N,GND*%
X118110000Y-112395000D03*
D16*
%TO.P,J7,1*%
%TO.N,VCC*%
X118110000Y-109855000D03*
%TD*%
D17*
%TO.P,J6,3*%
%TO.N,IR3_DATA*%
X93345000Y-109855000D03*
%TO.P,J6,2*%
%TO.N,GND*%
X90805000Y-109855000D03*
D16*
%TO.P,J6,1*%
%TO.N,VCC*%
X88265000Y-109855000D03*
%TD*%
D17*
%TO.P,J5,3*%
%TO.N,IR5_DATA*%
X117475000Y-106045000D03*
%TO.P,J5,2*%
%TO.N,GND*%
X117475000Y-103505000D03*
D16*
%TO.P,J5,1*%
%TO.N,VCC*%
X117475000Y-100965000D03*
%TD*%
D17*
%TO.P,J3,3*%
%TO.N,IR2_DATA*%
X93345000Y-106045000D03*
%TO.P,J3,2*%
%TO.N,GND*%
X90805000Y-106045000D03*
D16*
%TO.P,J3,1*%
%TO.N,VCC*%
X88265000Y-106045000D03*
%TD*%
D17*
%TO.P,J2,3*%
%TO.N,IR1_DATA*%
X93345000Y-102235000D03*
%TO.P,J2,2*%
%TO.N,GND*%
X90805000Y-102235000D03*
D16*
%TO.P,J2,1*%
%TO.N,VCC*%
X88265000Y-102235000D03*
%TD*%
%TO.P,J1,3*%
%TO.N,N/C*%
%TA.AperFunction,ComponentPad*%
G36*
G01*
X131940000Y-111430000D02*
X130190000Y-111430000D01*
G75*
G02*
X129315000Y-110555000I0J875000D01*
G01*
X129315000Y-108805000D01*
G75*
G02*
X130190000Y-107930000I875000J0D01*
G01*
X131940000Y-107930000D01*
G75*
G02*
X132815000Y-108805000I0J-875000D01*
G01*
X132815000Y-110555000D01*
G75*
G02*
X131940000Y-111430000I-875000J0D01*
G01*
G37*
%TD.AperFunction*%
%TO.P,J1,2*%
%TO.N,GND*%
%TA.AperFunction,ComponentPad*%
G36*
G01*
X127365000Y-114180000D02*
X125365000Y-114180000D01*
G75*
G02*
X124615000Y-113430000I0J750000D01*
G01*
X124615000Y-111930000D01*
G75*
G02*
X125365000Y-111180000I750000J0D01*
G01*
X127365000Y-111180000D01*
G75*
G02*
X128115000Y-111930000I0J-750000D01*
G01*
X128115000Y-113430000D01*
G75*
G02*
X127365000Y-114180000I-750000J0D01*
G01*
G37*
%TD.AperFunction*%
D18*
%TO.P,J1,1*%
%TO.N,Net-(C1-Pad1)*%
X126365000Y-106680000D03*
%TD*%
D19*
%TO.P,D1,2*%
%TO.N,Net-(D1-Pad2)*%
X118110000Y-80645000D03*
D20*
%TO.P,D1,1*%
%TO.N,GND*%
X118110000Y-83185000D03*
%TD*%
D15*
%TO.P,C2,2*%
%TO.N,GND*%
X122595000Y-94615000D03*
D21*
%TO.P,C2,1*%
%TO.N,+5V*%
X125095000Y-94615000D03*
%TD*%
D15*
%TO.P,C1,2*%
%TO.N,GND*%
X122595000Y-100965000D03*
D21*
%TO.P,C1,1*%
%TO.N,Net-(C1-Pad1)*%
X125095000Y-100965000D03*
%TD*%
D14*
%TO.P,A1,16*%
%TO.N,Net-(A1-Pad16)*%
X113030000Y-118110000D03*
%TO.P,A1,15*%
%TO.N,Net-(A1-Pad15)*%
X97790000Y-118110000D03*
%TO.P,A1,30*%
%TO.N,+5V*%
X113030000Y-82550000D03*
%TO.P,A1,14*%
%TO.N,RF_DATA*%
X97790000Y-115570000D03*
%TO.P,A1,29*%
%TO.N,GND*%
X113030000Y-85090000D03*
%TO.P,A1,13*%
%TO.N,Net-(A1-Pad13)*%
X97790000Y-113030000D03*
%TO.P,A1,28*%
%TO.N,N/C*%
X113030000Y-87630000D03*
%TO.P,A1,12*%
%TO.N,IR3_DATA*%
X97790000Y-110490000D03*
%TO.P,A1,27*%
%TO.N,VCC*%
X113030000Y-90170000D03*
%TO.P,A1,11*%
%TO.N,IR2_DATA*%
X97790000Y-107950000D03*
%TO.P,A1,26*%
%TO.N,N/C*%
X113030000Y-92710000D03*
%TO.P,A1,10*%
%TO.N,IR1_DATA*%
X97790000Y-105410000D03*
%TO.P,A1,25*%
%TO.N,N/C*%
X113030000Y-95250000D03*
%TO.P,A1,9*%
%TO.N,Net-(A1-Pad9)*%
X97790000Y-102870000D03*
%TO.P,A1,24*%
%TO.N,N/C*%
X113030000Y-97790000D03*
%TO.P,A1,8*%
%TO.N,Net-(A1-Pad8)*%
X97790000Y-100330000D03*
%TO.P,A1,23*%
%TO.N,N/C*%
X113030000Y-100330000D03*
%TO.P,A1,7*%
%TO.N,Net-(A1-Pad7)*%
X97790000Y-97790000D03*
%TO.P,A1,22*%
%TO.N,N/C*%
X113030000Y-102870000D03*
%TO.P,A1,6*%
%TO.N,Net-(A1-Pad6)*%
X97790000Y-95250000D03*
%TO.P,A1,21*%
%TO.N,N/C*%
X113030000Y-105410000D03*
%TO.P,A1,5*%
%TO.N,SW*%
X97790000Y-92710000D03*
%TO.P,A1,20*%
%TO.N,IR5_DATA*%
X113030000Y-107950000D03*
%TO.P,A1,4*%
%TO.N,GND*%
X97790000Y-90170000D03*
%TO.P,A1,19*%
%TO.N,IR4_DATA*%
X113030000Y-110490000D03*
%TO.P,A1,3*%
%TO.N,N/C*%
X97790000Y-87630000D03*
%TO.P,A1,18*%
X113030000Y-113030000D03*
%TO.P,A1,2*%
X97790000Y-85090000D03*
%TO.P,A1,17*%
%TO.N,Net-(A1-Pad17)*%
X113030000Y-115570000D03*
D21*
%TO.P,A1,1*%
%TO.N,N/C*%
X97790000Y-82550000D03*
%TD*%
D14*
%TO.P,10K1,2*%
%TO.N,SW*%
X88265000Y-91440000D03*
D15*
%TO.P,10K1,1*%
%TO.N,VCC*%
X88265000Y-99060000D03*
%TD*%
D22*
%TO.N,Net-(J10-Pad1)*%
X78105000Y-89535000D03*
%TD*%
D23*
%TO.N,SW*%
X97790000Y-92710000D02*
X94234999Y-89154999D01*
X88265000Y-90170000D02*
X88265000Y-91440000D01*
X89280001Y-89154999D02*
X88265000Y-90170000D01*
X92630000Y-88980000D02*
X92455001Y-89154999D01*
X92455001Y-89154999D02*
X89280001Y-89154999D01*
X94234999Y-89154999D02*
X92455001Y-89154999D01*
X87630000Y-82630000D02*
X87710000Y-82550000D01*
X87630000Y-87504998D02*
X87630000Y-82630000D01*
X89280001Y-89154999D02*
X87630000Y-87504998D01*
D24*
%TO.N,VCC*%
X117475000Y-97155000D02*
X117475000Y-94615000D01*
X117475000Y-94615000D02*
X117475000Y-92075000D01*
X117475000Y-92075000D02*
X117475000Y-89535000D01*
X117475000Y-97155000D02*
X117475000Y-100965000D01*
X116840000Y-90170000D02*
X113030000Y-90170000D01*
X117475000Y-89535000D02*
X116840000Y-90170000D01*
X88265000Y-109855000D02*
X88265000Y-106045000D01*
X88265000Y-106045000D02*
X88265000Y-102235000D01*
X88265000Y-102235000D02*
X88265000Y-99695000D01*
X88265000Y-99695000D02*
X88265000Y-99060000D01*
X81915000Y-114935000D02*
X86360000Y-114935000D01*
X88265000Y-113030000D02*
X88265000Y-109855000D01*
X86360000Y-114935000D02*
X88265000Y-113030000D01*
X81915000Y-78105000D02*
X81915000Y-81915000D01*
X85725000Y-74295000D02*
X81915000Y-78105000D01*
X104775000Y-74295000D02*
X85725000Y-74295000D01*
X133985000Y-74295000D02*
X104775000Y-74295000D01*
X135890000Y-76200000D02*
X133985000Y-74295000D01*
X134620000Y-119380000D02*
X135890000Y-118110000D01*
X122555000Y-118110000D02*
X123825000Y-119380000D01*
X122555000Y-112395000D02*
X122555000Y-118110000D01*
X120015000Y-109855000D02*
X122555000Y-112395000D01*
X135890000Y-118110000D02*
X135890000Y-76200000D01*
X118110000Y-109855000D02*
X120015000Y-109855000D01*
X126365000Y-119380000D02*
X134620000Y-119380000D01*
X123825000Y-119380000D02*
X126365000Y-119380000D01*
X126365000Y-121920000D02*
X126365000Y-119380000D01*
X122555000Y-125730000D02*
X126365000Y-121920000D01*
X80645000Y-125730000D02*
X122555000Y-125730000D01*
X78740000Y-123825000D02*
X80645000Y-125730000D01*
X78740000Y-115660000D02*
X78740000Y-123825000D01*
X79465000Y-114935000D02*
X78740000Y-115660000D01*
X81915000Y-114935000D02*
X79465000Y-114935000D01*
X104775000Y-86995000D02*
X104775000Y-74295000D01*
X107950000Y-90170000D02*
X104775000Y-86995000D01*
X113030000Y-90170000D02*
X107950000Y-90170000D01*
D23*
%TO.N,Net-(A1-Pad16)*%
X117475000Y-122555000D02*
X114300000Y-122555000D01*
X113030000Y-121285000D02*
X113030000Y-118110000D01*
X114300000Y-122555000D02*
X113030000Y-121285000D01*
%TO.N,Net-(A1-Pad15)*%
X97790000Y-120015000D02*
X97790000Y-118110000D01*
X97155000Y-120650000D02*
X97790000Y-120015000D01*
X93345000Y-120650000D02*
X97155000Y-120650000D01*
D24*
%TO.N,+5V*%
X130175000Y-94615000D02*
X125095000Y-94615000D01*
X130810000Y-95250000D02*
X130175000Y-94615000D01*
X125095000Y-88900000D02*
X125095000Y-94615000D01*
X123825000Y-87630000D02*
X125095000Y-88900000D01*
X128905000Y-77470000D02*
X130810000Y-79375000D01*
X114300000Y-77470000D02*
X128905000Y-77470000D01*
X113030000Y-78740000D02*
X114300000Y-77470000D01*
X130810000Y-79375000D02*
X130810000Y-95250000D01*
X113030000Y-82550000D02*
X113030000Y-78740000D01*
D23*
%TO.N,RF_DATA*%
X81915000Y-120015000D02*
X81915000Y-117475000D01*
X96520000Y-115570000D02*
X97790000Y-115570000D01*
X94615000Y-117475000D02*
X96520000Y-115570000D01*
X81915000Y-117475000D02*
X94615000Y-117475000D01*
%TO.N,GND*%
X127635000Y-88265000D02*
X127635000Y-85725000D01*
X127635000Y-85725000D02*
X127635000Y-83185000D01*
X127635000Y-83185000D02*
X127635000Y-80645000D01*
X127635000Y-83185000D02*
X118110000Y-83185000D01*
X81915000Y-84455000D02*
X81915000Y-86995000D01*
X120055000Y-103505000D02*
X122595000Y-100965000D01*
X117475000Y-103505000D02*
X120055000Y-103505000D01*
X130810000Y-97790000D02*
X124638630Y-97790000D01*
X122595000Y-99020000D02*
X122595000Y-100965000D01*
X123825000Y-97790000D02*
X122595000Y-99020000D01*
X124638630Y-97790000D02*
X123825000Y-97790000D01*
X122595000Y-96560000D02*
X123825000Y-97790000D01*
X122595000Y-94615000D02*
X122595000Y-96560000D01*
X118110000Y-84455000D02*
X118110000Y-83185000D01*
X117475000Y-85090000D02*
X118110000Y-84455000D01*
X113030000Y-85090000D02*
X117475000Y-85090000D01*
X90805000Y-102235000D02*
X90805000Y-106045000D01*
X90805000Y-106045000D02*
X90805000Y-109855000D01*
%TO.N,Net-(A1-Pad13)*%
X93980000Y-113030000D02*
X97790000Y-113030000D01*
X93345000Y-113665000D02*
X93980000Y-113030000D01*
%TO.N,IR3_DATA*%
X93345000Y-109855000D02*
X94615000Y-109855000D01*
X95250000Y-110490000D02*
X97790000Y-110490000D01*
X94615000Y-109855000D02*
X95250000Y-110490000D01*
%TO.N,IR2_DATA*%
X95250000Y-107950000D02*
X93345000Y-106045000D01*
X97790000Y-107950000D02*
X95250000Y-107950000D01*
%TO.N,IR1_DATA*%
X96520000Y-105410000D02*
X97790000Y-105410000D01*
X93345000Y-102235000D02*
X96520000Y-105410000D01*
%TO.N,Net-(A1-Pad9)*%
X93345000Y-98425000D02*
X92710000Y-98425000D01*
X95885000Y-100965000D02*
X93345000Y-98425000D01*
X95885000Y-102235000D02*
X95885000Y-100965000D01*
X96520000Y-102870000D02*
X95885000Y-102235000D01*
X97790000Y-102870000D02*
X96520000Y-102870000D01*
%TO.N,Net-(A1-Pad8)*%
X93345000Y-95885000D02*
X92710000Y-95885000D01*
X97790000Y-100330000D02*
X93345000Y-95885000D01*
%TO.N,Net-(A1-Pad7)*%
X93345000Y-93345000D02*
X92710000Y-93345000D01*
X97790000Y-97790000D02*
X93345000Y-93345000D01*
%TO.N,Net-(A1-Pad6)*%
X93345000Y-90805000D02*
X97790000Y-95250000D01*
X92710000Y-90805000D02*
X93345000Y-90805000D01*
%TO.N,IR5_DATA*%
X114300000Y-107950000D02*
X113030000Y-107950000D01*
X116205000Y-106045000D02*
X114300000Y-107950000D01*
X117475000Y-106045000D02*
X116205000Y-106045000D01*
%TO.N,IR4_DATA*%
X114300000Y-110490000D02*
X113030000Y-110490000D01*
X114935000Y-111125000D02*
X114300000Y-110490000D01*
X114935000Y-113665000D02*
X114935000Y-111125000D01*
X116205000Y-114935000D02*
X114935000Y-113665000D01*
X118110000Y-114935000D02*
X116205000Y-114935000D01*
%TO.N,Net-(A1-Pad17)*%
X114300000Y-115570000D02*
X113030000Y-115570000D01*
X117475000Y-118745000D02*
X114300000Y-115570000D01*
%TO.N,Net-(C1-Pad1)*%
X127000000Y-100965000D02*
X125095000Y-100965000D01*
X127635000Y-100330000D02*
X127000000Y-100965000D01*
X130810000Y-100330000D02*
X127635000Y-100330000D01*
X126365000Y-101600000D02*
X127000000Y-100965000D01*
X126365000Y-106680000D02*
X126365000Y-101600000D01*
%TO.N,Net-(D1-Pad2)*%
X121285000Y-80010000D02*
X123825000Y-80010000D01*
X120650000Y-80645000D02*
X121285000Y-80010000D01*
X118110000Y-80645000D02*
X120650000Y-80645000D01*
%TO.N,Net-(J10-Pad1)*%
X81915000Y-89535000D02*
X78105000Y-89535000D01*
%TD*%
D25*
%TO.N,GND*%
X138303000Y-128778000D02*
X73787000Y-128778000D01*
X73787000Y-115660000D01*
X77298057Y-115660000D01*
X77305000Y-115730492D01*
X77305001Y-123754498D01*
X77298057Y-123825000D01*
X77325764Y-124106308D01*
X77407818Y-124376807D01*
X77407819Y-124376808D01*
X77541069Y-124626101D01*
X77720393Y-124844608D01*
X77775155Y-124889550D01*
X79580450Y-126694846D01*
X79625392Y-126749608D01*
X79843899Y-126928932D01*
X80093192Y-127062182D01*
X80363691Y-127144237D01*
X80645000Y-127171943D01*
X80715495Y-127165000D01*
X122484508Y-127165000D01*
X122555000Y-127171943D01*
X122625492Y-127165000D01*
X122836309Y-127144236D01*
X123106808Y-127062182D01*
X123356101Y-126928932D01*
X123574608Y-126749608D01*
X123619554Y-126694841D01*
X127329850Y-122984546D01*
X127384607Y-122939608D01*
X127563932Y-122721101D01*
X127697182Y-122471808D01*
X127710471Y-122428000D01*
X127779237Y-122201309D01*
X127806943Y-121920000D01*
X127800000Y-121849505D01*
X127800000Y-120815000D01*
X134549508Y-120815000D01*
X134620000Y-120821943D01*
X134690492Y-120815000D01*
X134901309Y-120794236D01*
X135171808Y-120712182D01*
X135421101Y-120578932D01*
X135639608Y-120399608D01*
X135684554Y-120344841D01*
X136854855Y-119174541D01*
X136909607Y-119129608D01*
X136954545Y-119074852D01*
X137026559Y-118987102D01*
X137088932Y-118911101D01*
X137222182Y-118661808D01*
X137304236Y-118391309D01*
X137316174Y-118270099D01*
X137331943Y-118110001D01*
X137325000Y-118039509D01*
X137325000Y-76270495D01*
X137331943Y-76200000D01*
X137304237Y-75918691D01*
X137222182Y-75648192D01*
X137139728Y-75493932D01*
X137088932Y-75398899D01*
X136909608Y-75180392D01*
X136854846Y-75135450D01*
X135049554Y-73330159D01*
X135004608Y-73275392D01*
X134786101Y-73096068D01*
X134536808Y-72962818D01*
X134266309Y-72880764D01*
X134055492Y-72860000D01*
X133985000Y-72853057D01*
X133914508Y-72860000D01*
X104845492Y-72860000D01*
X104775000Y-72853057D01*
X104704508Y-72860000D01*
X85795495Y-72860000D01*
X85725000Y-72853057D01*
X85443691Y-72880763D01*
X85173192Y-72962818D01*
X84923899Y-73096068D01*
X84705392Y-73275392D01*
X84660450Y-73330154D01*
X80950155Y-77040450D01*
X80895392Y-77085393D01*
X80716068Y-77303900D01*
X80665273Y-77398931D01*
X80582818Y-77553193D01*
X80500764Y-77823692D01*
X80473057Y-78105000D01*
X80480000Y-78175492D01*
X80480001Y-81517371D01*
X80430000Y-81768740D01*
X80430000Y-82061260D01*
X80487068Y-82348158D01*
X80599010Y-82618411D01*
X80761525Y-82861632D01*
X80968368Y-83068475D01*
X81150534Y-83190195D01*
X81033645Y-83259822D01*
X80817412Y-83454731D01*
X80643359Y-83688080D01*
X80518175Y-83950901D01*
X80473524Y-84098110D01*
X80594845Y-84328000D01*
X81788000Y-84328000D01*
X81788000Y-84308000D01*
X82042000Y-84308000D01*
X82042000Y-84328000D01*
X83235155Y-84328000D01*
X83356476Y-84098110D01*
X83311825Y-83950901D01*
X83186641Y-83688080D01*
X83012588Y-83454731D01*
X82796355Y-83259822D01*
X82679466Y-83190195D01*
X82861632Y-83068475D01*
X83068475Y-82861632D01*
X83230990Y-82618411D01*
X83342932Y-82348158D01*
X83400000Y-82061260D01*
X83400000Y-81768740D01*
X83350000Y-81517375D01*
X83350000Y-78699395D01*
X86319396Y-75730000D01*
X103340001Y-75730000D01*
X103340000Y-86924508D01*
X103333057Y-86995000D01*
X103341251Y-87078193D01*
X103360764Y-87276308D01*
X103442818Y-87546807D01*
X103576068Y-87796100D01*
X103755392Y-88014607D01*
X103810155Y-88059550D01*
X106885450Y-91134846D01*
X106930392Y-91189608D01*
X107148899Y-91368932D01*
X107383723Y-91494448D01*
X107398192Y-91502182D01*
X107668690Y-91584236D01*
X107949999Y-91611943D01*
X108020491Y-91605000D01*
X112105604Y-91605000D01*
X111915363Y-91795241D01*
X111758320Y-92030273D01*
X111650147Y-92291426D01*
X111595000Y-92568665D01*
X111595000Y-92851335D01*
X111650147Y-93128574D01*
X111758320Y-93389727D01*
X111915363Y-93624759D01*
X112115241Y-93824637D01*
X112347759Y-93980000D01*
X112115241Y-94135363D01*
X111915363Y-94335241D01*
X111758320Y-94570273D01*
X111650147Y-94831426D01*
X111595000Y-95108665D01*
X111595000Y-95391335D01*
X111650147Y-95668574D01*
X111758320Y-95929727D01*
X111915363Y-96164759D01*
X112115241Y-96364637D01*
X112347759Y-96520000D01*
X112115241Y-96675363D01*
X111915363Y-96875241D01*
X111758320Y-97110273D01*
X111650147Y-97371426D01*
X111595000Y-97648665D01*
X111595000Y-97931335D01*
X111650147Y-98208574D01*
X111758320Y-98469727D01*
X111915363Y-98704759D01*
X112115241Y-98904637D01*
X112347759Y-99060000D01*
X112115241Y-99215363D01*
X111915363Y-99415241D01*
X111758320Y-99650273D01*
X111650147Y-99911426D01*
X111595000Y-100188665D01*
X111595000Y-100471335D01*
X111650147Y-100748574D01*
X111758320Y-101009727D01*
X111915363Y-101244759D01*
X112115241Y-101444637D01*
X112347759Y-101600000D01*
X112115241Y-101755363D01*
X111915363Y-101955241D01*
X111758320Y-102190273D01*
X111650147Y-102451426D01*
X111595000Y-102728665D01*
X111595000Y-103011335D01*
X111650147Y-103288574D01*
X111758320Y-103549727D01*
X111915363Y-103784759D01*
X112115241Y-103984637D01*
X112347759Y-104140000D01*
X112115241Y-104295363D01*
X111915363Y-104495241D01*
X111758320Y-104730273D01*
X111650147Y-104991426D01*
X111595000Y-105268665D01*
X111595000Y-105551335D01*
X111650147Y-105828574D01*
X111758320Y-106089727D01*
X111915363Y-106324759D01*
X112115241Y-106524637D01*
X112347759Y-106680000D01*
X112115241Y-106835363D01*
X111915363Y-107035241D01*
X111758320Y-107270273D01*
X111650147Y-107531426D01*
X111595000Y-107808665D01*
X111595000Y-108091335D01*
X111650147Y-108368574D01*
X111758320Y-108629727D01*
X111915363Y-108864759D01*
X112115241Y-109064637D01*
X112347759Y-109220000D01*
X112115241Y-109375363D01*
X111915363Y-109575241D01*
X111758320Y-109810273D01*
X111650147Y-110071426D01*
X111595000Y-110348665D01*
X111595000Y-110631335D01*
X111650147Y-110908574D01*
X111758320Y-111169727D01*
X111915363Y-111404759D01*
X112115241Y-111604637D01*
X112347759Y-111760000D01*
X112115241Y-111915363D01*
X111915363Y-112115241D01*
X111758320Y-112350273D01*
X111650147Y-112611426D01*
X111595000Y-112888665D01*
X111595000Y-113171335D01*
X111650147Y-113448574D01*
X111758320Y-113709727D01*
X111915363Y-113944759D01*
X112115241Y-114144637D01*
X112347759Y-114300000D01*
X112115241Y-114455363D01*
X111915363Y-114655241D01*
X111758320Y-114890273D01*
X111650147Y-115151426D01*
X111595000Y-115428665D01*
X111595000Y-115711335D01*
X111650147Y-115988574D01*
X111758320Y-116249727D01*
X111915363Y-116484759D01*
X112115241Y-116684637D01*
X112347759Y-116840000D01*
X112115241Y-116995363D01*
X111915363Y-117195241D01*
X111758320Y-117430273D01*
X111650147Y-117691426D01*
X111595000Y-117968665D01*
X111595000Y-118251335D01*
X111650147Y-118528574D01*
X111758320Y-118789727D01*
X111795001Y-118844624D01*
X111795000Y-121224335D01*
X111789025Y-121285000D01*
X111812870Y-121527102D01*
X111821251Y-121554731D01*
X111883489Y-121759900D01*
X111998167Y-121974448D01*
X112152498Y-122162502D01*
X112199625Y-122201178D01*
X113383826Y-123385380D01*
X113422498Y-123432502D01*
X113610551Y-123586833D01*
X113825099Y-123701511D01*
X114057897Y-123772130D01*
X114299999Y-123795975D01*
X114360664Y-123790000D01*
X116119499Y-123790000D01*
X116173815Y-123856185D01*
X116270506Y-123935537D01*
X116380820Y-123994502D01*
X116500518Y-124030812D01*
X116625000Y-124043072D01*
X118325000Y-124043072D01*
X118449482Y-124030812D01*
X118569180Y-123994502D01*
X118679494Y-123935537D01*
X118776185Y-123856185D01*
X118855537Y-123759494D01*
X118914502Y-123649180D01*
X118950812Y-123529482D01*
X118963072Y-123405000D01*
X118963072Y-121705000D01*
X118950812Y-121580518D01*
X118914502Y-121460820D01*
X118855537Y-121350506D01*
X118776185Y-121253815D01*
X118679494Y-121174463D01*
X118569180Y-121115498D01*
X118449482Y-121079188D01*
X118325000Y-121066928D01*
X116625000Y-121066928D01*
X116500518Y-121079188D01*
X116380820Y-121115498D01*
X116270506Y-121174463D01*
X116173815Y-121253815D01*
X116119499Y-121320000D01*
X114811554Y-121320000D01*
X114265000Y-120773447D01*
X114265000Y-118844623D01*
X114301680Y-118789727D01*
X114409853Y-118528574D01*
X114465000Y-118251335D01*
X114465000Y-117968665D01*
X114409853Y-117691426D01*
X114301680Y-117430273D01*
X114144637Y-117195241D01*
X113944759Y-116995363D01*
X113712241Y-116840000D01*
X113764623Y-116805000D01*
X113788447Y-116805000D01*
X115986928Y-119003482D01*
X115986928Y-119595000D01*
X115999188Y-119719482D01*
X116035498Y-119839180D01*
X116094463Y-119949494D01*
X116173815Y-120046185D01*
X116270506Y-120125537D01*
X116380820Y-120184502D01*
X116500518Y-120220812D01*
X116625000Y-120233072D01*
X118325000Y-120233072D01*
X118449482Y-120220812D01*
X118569180Y-120184502D01*
X118679494Y-120125537D01*
X118776185Y-120046185D01*
X118855537Y-119949494D01*
X118914502Y-119839180D01*
X118950812Y-119719482D01*
X118963072Y-119595000D01*
X118963072Y-117895000D01*
X118950812Y-117770518D01*
X118914502Y-117650820D01*
X118855537Y-117540506D01*
X118776185Y-117443815D01*
X118679494Y-117364463D01*
X118569180Y-117305498D01*
X118449482Y-117269188D01*
X118325000Y-117256928D01*
X117733482Y-117256928D01*
X116646553Y-116170000D01*
X117285379Y-116170000D01*
X117406589Y-116250990D01*
X117676842Y-116362932D01*
X117963740Y-116420000D01*
X118256260Y-116420000D01*
X118543158Y-116362932D01*
X118813411Y-116250990D01*
X119056632Y-116088475D01*
X119263475Y-115881632D01*
X119425990Y-115638411D01*
X119537932Y-115368158D01*
X119595000Y-115081260D01*
X119595000Y-114788740D01*
X119537932Y-114501842D01*
X119425990Y-114231589D01*
X119263475Y-113988368D01*
X119056632Y-113781525D01*
X118874466Y-113659805D01*
X118991355Y-113590178D01*
X119207588Y-113395269D01*
X119381641Y-113161920D01*
X119506825Y-112899099D01*
X119551476Y-112751890D01*
X119430155Y-112522000D01*
X118237000Y-112522000D01*
X118237000Y-112542000D01*
X117983000Y-112542000D01*
X117983000Y-112522000D01*
X116789845Y-112522000D01*
X116668524Y-112751890D01*
X116713175Y-112899099D01*
X116838359Y-113161920D01*
X117012412Y-113395269D01*
X117228645Y-113590178D01*
X117345534Y-113659805D01*
X117285379Y-113700000D01*
X116716554Y-113700000D01*
X116170000Y-113153447D01*
X116170000Y-111185665D01*
X116175975Y-111125000D01*
X116152130Y-110882898D01*
X116127478Y-110801632D01*
X116081511Y-110650099D01*
X115966833Y-110435551D01*
X115812502Y-110247498D01*
X115765370Y-110208817D01*
X115216179Y-109659626D01*
X115177502Y-109612498D01*
X114989449Y-109458167D01*
X114774901Y-109343489D01*
X114542102Y-109272870D01*
X114360665Y-109255000D01*
X114300000Y-109249025D01*
X114239335Y-109255000D01*
X113764623Y-109255000D01*
X113712241Y-109220000D01*
X113764623Y-109185000D01*
X114239335Y-109185000D01*
X114300000Y-109190975D01*
X114360665Y-109185000D01*
X114542102Y-109167130D01*
X114774901Y-109096511D01*
X114989449Y-108981833D01*
X115177502Y-108827502D01*
X115216178Y-108780375D01*
X116690048Y-107306506D01*
X116771589Y-107360990D01*
X117041842Y-107472932D01*
X117328740Y-107530000D01*
X117621260Y-107530000D01*
X117908158Y-107472932D01*
X118178411Y-107360990D01*
X118421632Y-107198475D01*
X118628475Y-106991632D01*
X118790990Y-106748411D01*
X118902932Y-106478158D01*
X118960000Y-106191260D01*
X118960000Y-105898740D01*
X118902932Y-105611842D01*
X118790990Y-105341589D01*
X118628475Y-105098368D01*
X118421632Y-104891525D01*
X118239466Y-104769805D01*
X118356355Y-104700178D01*
X118572588Y-104505269D01*
X118746641Y-104271920D01*
X118871825Y-104009099D01*
X118916476Y-103861890D01*
X118795155Y-103632000D01*
X117602000Y-103632000D01*
X117602000Y-103652000D01*
X117348000Y-103652000D01*
X117348000Y-103632000D01*
X116154845Y-103632000D01*
X116033524Y-103861890D01*
X116078175Y-104009099D01*
X116203359Y-104271920D01*
X116377412Y-104505269D01*
X116593645Y-104700178D01*
X116710534Y-104769805D01*
X116650379Y-104810000D01*
X116265665Y-104810000D01*
X116205000Y-104804025D01*
X116144335Y-104810000D01*
X115962898Y-104827870D01*
X115730099Y-104898489D01*
X115515551Y-105013167D01*
X115327498Y-105167498D01*
X115288826Y-105214620D01*
X113788447Y-106715000D01*
X113764623Y-106715000D01*
X113712241Y-106680000D01*
X113944759Y-106524637D01*
X114144637Y-106324759D01*
X114301680Y-106089727D01*
X114409853Y-105828574D01*
X114465000Y-105551335D01*
X114465000Y-105268665D01*
X114409853Y-104991426D01*
X114301680Y-104730273D01*
X114144637Y-104495241D01*
X113944759Y-104295363D01*
X113712241Y-104140000D01*
X113944759Y-103984637D01*
X114144637Y-103784759D01*
X114301680Y-103549727D01*
X114409853Y-103288574D01*
X114465000Y-103011335D01*
X114465000Y-102728665D01*
X114409853Y-102451426D01*
X114301680Y-102190273D01*
X114144637Y-101955241D01*
X113944759Y-101755363D01*
X113712241Y-101600000D01*
X113944759Y-101444637D01*
X114144637Y-101244759D01*
X114301680Y-101009727D01*
X114409853Y-100748574D01*
X114465000Y-100471335D01*
X114465000Y-100188665D01*
X114409853Y-99911426D01*
X114301680Y-99650273D01*
X114144637Y-99415241D01*
X113944759Y-99215363D01*
X113712241Y-99060000D01*
X113944759Y-98904637D01*
X114144637Y-98704759D01*
X114301680Y-98469727D01*
X114409853Y-98208574D01*
X114465000Y-97931335D01*
X114465000Y-97648665D01*
X114409853Y-97371426D01*
X114301680Y-97110273D01*
X114144637Y-96875241D01*
X113944759Y-96675363D01*
X113712241Y-96520000D01*
X113944759Y-96364637D01*
X114144637Y-96164759D01*
X114301680Y-95929727D01*
X114409853Y-95668574D01*
X114465000Y-95391335D01*
X114465000Y-95108665D01*
X114409853Y-94831426D01*
X114301680Y-94570273D01*
X114144637Y-94335241D01*
X113944759Y-94135363D01*
X113712241Y-93980000D01*
X113944759Y-93824637D01*
X114144637Y-93624759D01*
X114301680Y-93389727D01*
X114409853Y-93128574D01*
X114465000Y-92851335D01*
X114465000Y-92568665D01*
X114409853Y-92291426D01*
X114301680Y-92030273D01*
X114144637Y-91795241D01*
X113954396Y-91605000D01*
X116040000Y-91605000D01*
X116040000Y-91677374D01*
X115990000Y-91928740D01*
X115990000Y-92221260D01*
X116040001Y-92472629D01*
X116040000Y-94217374D01*
X115990000Y-94468740D01*
X115990000Y-94761260D01*
X116040001Y-95012629D01*
X116040000Y-96757374D01*
X115990000Y-97008740D01*
X115990000Y-97301260D01*
X116040000Y-97552626D01*
X116040001Y-99862396D01*
X116035498Y-99870820D01*
X115999188Y-99990518D01*
X115986928Y-100115000D01*
X115986928Y-101815000D01*
X115999188Y-101939482D01*
X116035498Y-102059180D01*
X116094463Y-102169494D01*
X116173815Y-102266185D01*
X116270506Y-102345537D01*
X116380820Y-102404502D01*
X116461466Y-102428966D01*
X116377412Y-102504731D01*
X116203359Y-102738080D01*
X116078175Y-103000901D01*
X116033524Y-103148110D01*
X116154845Y-103378000D01*
X117348000Y-103378000D01*
X117348000Y-103358000D01*
X117602000Y-103358000D01*
X117602000Y-103378000D01*
X118795155Y-103378000D01*
X118916476Y-103148110D01*
X118871825Y-103000901D01*
X118746641Y-102738080D01*
X118572588Y-102504731D01*
X118488534Y-102428966D01*
X118569180Y-102404502D01*
X118679494Y-102345537D01*
X118776185Y-102266185D01*
X118855537Y-102169494D01*
X118914502Y-102059180D01*
X118945285Y-101957702D01*
X121781903Y-101957702D01*
X121853486Y-102201671D01*
X122108996Y-102322571D01*
X122383184Y-102391300D01*
X122665512Y-102405217D01*
X122945130Y-102363787D01*
X123211292Y-102268603D01*
X123336514Y-102201671D01*
X123408097Y-101957702D01*
X122595000Y-101144605D01*
X121781903Y-101957702D01*
X118945285Y-101957702D01*
X118950812Y-101939482D01*
X118963072Y-101815000D01*
X118963072Y-101035512D01*
X121154783Y-101035512D01*
X121196213Y-101315130D01*
X121291397Y-101581292D01*
X121358329Y-101706514D01*
X121602298Y-101778097D01*
X122415395Y-100965000D01*
X122774605Y-100965000D01*
X123587702Y-101778097D01*
X123656928Y-101757785D01*
X123656928Y-101765000D01*
X123669188Y-101889482D01*
X123705498Y-102009180D01*
X123764463Y-102119494D01*
X123843815Y-102216185D01*
X123940506Y-102295537D01*
X124050820Y-102354502D01*
X124170518Y-102390812D01*
X124295000Y-102403072D01*
X125130001Y-102403072D01*
X125130000Y-104291928D01*
X124615000Y-104291928D01*
X124490518Y-104304188D01*
X124370820Y-104340498D01*
X124260506Y-104399463D01*
X124163815Y-104478815D01*
X124084463Y-104575506D01*
X124025498Y-104685820D01*
X123989188Y-104805518D01*
X123976928Y-104930000D01*
X123976928Y-108430000D01*
X123989188Y-108554482D01*
X124025498Y-108674180D01*
X124084463Y-108784494D01*
X124163815Y-108881185D01*
X124260506Y-108960537D01*
X124370820Y-109019502D01*
X124490518Y-109055812D01*
X124615000Y-109068072D01*
X128115000Y-109068072D01*
X128239482Y-109055812D01*
X128359180Y-109019502D01*
X128469494Y-108960537D01*
X128566185Y-108881185D01*
X128645537Y-108784494D01*
X128686494Y-108707869D01*
X128676928Y-108805000D01*
X128676928Y-110555000D01*
X128706001Y-110850186D01*
X128792104Y-111134028D01*
X128931927Y-111395618D01*
X129120097Y-111624903D01*
X129349382Y-111813073D01*
X129610972Y-111952896D01*
X129894814Y-112038999D01*
X130190000Y-112068072D01*
X131940000Y-112068072D01*
X132235186Y-112038999D01*
X132519028Y-111952896D01*
X132780618Y-111813073D01*
X133009903Y-111624903D01*
X133198073Y-111395618D01*
X133337896Y-111134028D01*
X133423999Y-110850186D01*
X133453072Y-110555000D01*
X133453072Y-108805000D01*
X133423999Y-108509814D01*
X133337896Y-108225972D01*
X133198073Y-107964382D01*
X133009903Y-107735097D01*
X132780618Y-107546927D01*
X132519028Y-107407104D01*
X132235186Y-107321001D01*
X131940000Y-107291928D01*
X130190000Y-107291928D01*
X129894814Y-107321001D01*
X129610972Y-107407104D01*
X129349382Y-107546927D01*
X129120097Y-107735097D01*
X128931927Y-107964382D01*
X128792104Y-108225972D01*
X128753072Y-108354643D01*
X128753072Y-104930000D01*
X128740812Y-104805518D01*
X128704502Y-104685820D01*
X128645537Y-104575506D01*
X128566185Y-104478815D01*
X128469494Y-104399463D01*
X128359180Y-104340498D01*
X128239482Y-104304188D01*
X128115000Y-104291928D01*
X127600000Y-104291928D01*
X127600000Y-102111552D01*
X127830370Y-101881183D01*
X127877502Y-101842502D01*
X127916179Y-101795374D01*
X128146553Y-101565000D01*
X129240981Y-101565000D01*
X129279463Y-101636994D01*
X129358815Y-101733685D01*
X129455506Y-101813037D01*
X129565820Y-101872002D01*
X129685518Y-101908312D01*
X129810000Y-101920572D01*
X131810000Y-101920572D01*
X131934482Y-101908312D01*
X132054180Y-101872002D01*
X132164494Y-101813037D01*
X132261185Y-101733685D01*
X132340537Y-101636994D01*
X132399502Y-101526680D01*
X132435812Y-101406982D01*
X132448072Y-101282500D01*
X132448072Y-99377500D01*
X132435812Y-99253018D01*
X132399502Y-99133320D01*
X132340537Y-99023006D01*
X132261185Y-98926315D01*
X132164494Y-98846963D01*
X132072781Y-98797941D01*
X132185969Y-98656923D01*
X132329571Y-98381094D01*
X132400563Y-98162980D01*
X132280594Y-97917000D01*
X130937000Y-97917000D01*
X130937000Y-97937000D01*
X130683000Y-97937000D01*
X130683000Y-97917000D01*
X129339406Y-97917000D01*
X129219437Y-98162980D01*
X129290429Y-98381094D01*
X129434031Y-98656923D01*
X129547219Y-98797941D01*
X129455506Y-98846963D01*
X129358815Y-98926315D01*
X129279463Y-99023006D01*
X129240981Y-99095000D01*
X127695665Y-99095000D01*
X127635000Y-99089025D01*
X127574335Y-99095000D01*
X127392898Y-99112870D01*
X127160099Y-99183489D01*
X126945551Y-99298167D01*
X126757498Y-99452498D01*
X126718817Y-99499630D01*
X126488448Y-99730000D01*
X126359468Y-99730000D01*
X126346185Y-99713815D01*
X126249494Y-99634463D01*
X126139180Y-99575498D01*
X126019482Y-99539188D01*
X125895000Y-99526928D01*
X124295000Y-99526928D01*
X124170518Y-99539188D01*
X124050820Y-99575498D01*
X123940506Y-99634463D01*
X123843815Y-99713815D01*
X123764463Y-99810506D01*
X123705498Y-99920820D01*
X123669188Y-100040518D01*
X123656928Y-100165000D01*
X123656928Y-100172215D01*
X123587702Y-100151903D01*
X122774605Y-100965000D01*
X122415395Y-100965000D01*
X121602298Y-100151903D01*
X121358329Y-100223486D01*
X121237429Y-100478996D01*
X121168700Y-100753184D01*
X121154783Y-101035512D01*
X118963072Y-101035512D01*
X118963072Y-100115000D01*
X118950812Y-99990518D01*
X118945286Y-99972298D01*
X121781903Y-99972298D01*
X122595000Y-100785395D01*
X123408097Y-99972298D01*
X123336514Y-99728329D01*
X123081004Y-99607429D01*
X122806816Y-99538700D01*
X122524488Y-99524783D01*
X122244870Y-99566213D01*
X121978708Y-99661397D01*
X121853486Y-99728329D01*
X121781903Y-99972298D01*
X118945286Y-99972298D01*
X118914502Y-99870820D01*
X118910000Y-99862397D01*
X118910000Y-97552625D01*
X118960000Y-97301260D01*
X118960000Y-97008740D01*
X118910000Y-96757375D01*
X118910000Y-95607702D01*
X121781903Y-95607702D01*
X121853486Y-95851671D01*
X122108996Y-95972571D01*
X122383184Y-96041300D01*
X122665512Y-96055217D01*
X122945130Y-96013787D01*
X123211292Y-95918603D01*
X123336514Y-95851671D01*
X123408097Y-95607702D01*
X122595000Y-94794605D01*
X121781903Y-95607702D01*
X118910000Y-95607702D01*
X118910000Y-95012625D01*
X118960000Y-94761260D01*
X118960000Y-94685512D01*
X121154783Y-94685512D01*
X121196213Y-94965130D01*
X121291397Y-95231292D01*
X121358329Y-95356514D01*
X121602298Y-95428097D01*
X122415395Y-94615000D01*
X121602298Y-93801903D01*
X121358329Y-93873486D01*
X121237429Y-94128996D01*
X121168700Y-94403184D01*
X121154783Y-94685512D01*
X118960000Y-94685512D01*
X118960000Y-94468740D01*
X118910000Y-94217375D01*
X118910000Y-93622298D01*
X121781903Y-93622298D01*
X122595000Y-94435395D01*
X123408097Y-93622298D01*
X123336514Y-93378329D01*
X123081004Y-93257429D01*
X122806816Y-93188700D01*
X122524488Y-93174783D01*
X122244870Y-93216213D01*
X121978708Y-93311397D01*
X121853486Y-93378329D01*
X121781903Y-93622298D01*
X118910000Y-93622298D01*
X118910000Y-92472625D01*
X118960000Y-92221260D01*
X118960000Y-91928740D01*
X118910000Y-91677375D01*
X118910000Y-90637603D01*
X118914502Y-90629180D01*
X118950812Y-90509482D01*
X118963072Y-90385000D01*
X118963072Y-88685000D01*
X118950812Y-88560518D01*
X118914502Y-88440820D01*
X118855537Y-88330506D01*
X118776185Y-88233815D01*
X118679494Y-88154463D01*
X118569180Y-88095498D01*
X118449482Y-88059188D01*
X118325000Y-88046928D01*
X116625000Y-88046928D01*
X116500518Y-88059188D01*
X116380820Y-88095498D01*
X116270506Y-88154463D01*
X116173815Y-88233815D01*
X116094463Y-88330506D01*
X116035498Y-88440820D01*
X115999188Y-88560518D01*
X115986928Y-88685000D01*
X115986928Y-88735000D01*
X113954396Y-88735000D01*
X114144637Y-88544759D01*
X114301680Y-88309727D01*
X114409853Y-88048574D01*
X114465000Y-87771335D01*
X114465000Y-87488665D01*
X114409853Y-87211426D01*
X114301680Y-86950273D01*
X114144637Y-86715241D01*
X113944759Y-86515363D01*
X113709727Y-86358320D01*
X113699135Y-86353933D01*
X113885131Y-86242385D01*
X114093519Y-86053414D01*
X114261037Y-85827420D01*
X114381246Y-85573087D01*
X114421904Y-85439039D01*
X114299915Y-85217000D01*
X113157000Y-85217000D01*
X113157000Y-85237000D01*
X112903000Y-85237000D01*
X112903000Y-85217000D01*
X111760085Y-85217000D01*
X111638096Y-85439039D01*
X111678754Y-85573087D01*
X111798963Y-85827420D01*
X111966481Y-86053414D01*
X112174869Y-86242385D01*
X112360865Y-86353933D01*
X112350273Y-86358320D01*
X112115241Y-86515363D01*
X111915363Y-86715241D01*
X111758320Y-86950273D01*
X111650147Y-87211426D01*
X111595000Y-87488665D01*
X111595000Y-87771335D01*
X111650147Y-88048574D01*
X111758320Y-88309727D01*
X111915363Y-88544759D01*
X112105604Y-88735000D01*
X108544396Y-88735000D01*
X106210000Y-86400605D01*
X106210000Y-78740000D01*
X111588057Y-78740000D01*
X111595001Y-78810502D01*
X111595000Y-82408665D01*
X111595000Y-82691335D01*
X111608821Y-82760818D01*
X111615764Y-82831308D01*
X111636326Y-82899094D01*
X111650147Y-82968574D01*
X111677254Y-83034017D01*
X111697818Y-83101807D01*
X111731213Y-83164284D01*
X111758320Y-83229727D01*
X111797675Y-83288626D01*
X111831068Y-83351100D01*
X111876007Y-83405858D01*
X111915363Y-83464759D01*
X111965455Y-83514851D01*
X112010392Y-83569607D01*
X112065150Y-83614546D01*
X112115241Y-83664637D01*
X112174138Y-83703991D01*
X112228899Y-83748932D01*
X112291378Y-83782328D01*
X112350273Y-83821680D01*
X112360865Y-83826067D01*
X112174869Y-83937615D01*
X111966481Y-84126586D01*
X111798963Y-84352580D01*
X111678754Y-84606913D01*
X111638096Y-84740961D01*
X111760085Y-84963000D01*
X112903000Y-84963000D01*
X112903000Y-84943000D01*
X113157000Y-84943000D01*
X113157000Y-84963000D01*
X114299915Y-84963000D01*
X114421904Y-84740961D01*
X114381246Y-84606913D01*
X114261037Y-84352580D01*
X114093519Y-84126586D01*
X114047660Y-84085000D01*
X116571928Y-84085000D01*
X116584188Y-84209482D01*
X116620498Y-84329180D01*
X116679463Y-84439494D01*
X116758815Y-84536185D01*
X116855506Y-84615537D01*
X116965820Y-84674502D01*
X117085518Y-84710812D01*
X117210000Y-84723072D01*
X117824250Y-84720000D01*
X117983000Y-84561250D01*
X117983000Y-83312000D01*
X118237000Y-83312000D01*
X118237000Y-84561250D01*
X118395750Y-84720000D01*
X119010000Y-84723072D01*
X119134482Y-84710812D01*
X119254180Y-84674502D01*
X119364494Y-84615537D01*
X119461185Y-84536185D01*
X119540537Y-84439494D01*
X119599502Y-84329180D01*
X119635812Y-84209482D01*
X119648072Y-84085000D01*
X119645356Y-83541890D01*
X126193524Y-83541890D01*
X126238175Y-83689099D01*
X126363359Y-83951920D01*
X126537412Y-84185269D01*
X126753645Y-84380178D01*
X126879255Y-84455000D01*
X126753645Y-84529822D01*
X126537412Y-84724731D01*
X126363359Y-84958080D01*
X126238175Y-85220901D01*
X126193524Y-85368110D01*
X126314845Y-85598000D01*
X127508000Y-85598000D01*
X127508000Y-83312000D01*
X127762000Y-83312000D01*
X127762000Y-85598000D01*
X128955155Y-85598000D01*
X129076476Y-85368110D01*
X129031825Y-85220901D01*
X128906641Y-84958080D01*
X128732588Y-84724731D01*
X128516355Y-84529822D01*
X128390745Y-84455000D01*
X128516355Y-84380178D01*
X128732588Y-84185269D01*
X128906641Y-83951920D01*
X129031825Y-83689099D01*
X129076476Y-83541890D01*
X128955155Y-83312000D01*
X127762000Y-83312000D01*
X127508000Y-83312000D01*
X126314845Y-83312000D01*
X126193524Y-83541890D01*
X119645356Y-83541890D01*
X119645000Y-83470750D01*
X119486250Y-83312000D01*
X118237000Y-83312000D01*
X117983000Y-83312000D01*
X116733750Y-83312000D01*
X116575000Y-83470750D01*
X116571928Y-84085000D01*
X114047660Y-84085000D01*
X113885131Y-83937615D01*
X113699135Y-83826067D01*
X113709727Y-83821680D01*
X113768626Y-83782325D01*
X113831100Y-83748932D01*
X113885858Y-83703993D01*
X113944759Y-83664637D01*
X113994851Y-83614545D01*
X114049607Y-83569608D01*
X114094546Y-83514850D01*
X114144637Y-83464759D01*
X114183991Y-83405862D01*
X114228932Y-83351101D01*
X114262328Y-83288622D01*
X114301680Y-83229727D01*
X114328786Y-83164288D01*
X114362182Y-83101808D01*
X114382747Y-83034014D01*
X114409853Y-82968574D01*
X114423673Y-82899097D01*
X114444236Y-82831309D01*
X114451179Y-82760817D01*
X114465000Y-82691335D01*
X114465000Y-79334396D01*
X114894396Y-78905000D01*
X120732437Y-78905000D01*
X120595551Y-78978167D01*
X120407498Y-79132498D01*
X120368817Y-79179630D01*
X120138448Y-79410000D01*
X119024618Y-79410000D01*
X118837095Y-79284701D01*
X118557743Y-79168989D01*
X118261184Y-79110000D01*
X117958816Y-79110000D01*
X117662257Y-79168989D01*
X117382905Y-79284701D01*
X117131495Y-79452688D01*
X116917688Y-79666495D01*
X116749701Y-79917905D01*
X116633989Y-80197257D01*
X116575000Y-80493816D01*
X116575000Y-80796184D01*
X116633989Y-81092743D01*
X116749701Y-81372095D01*
X116917688Y-81623505D01*
X116984127Y-81689944D01*
X116965820Y-81695498D01*
X116855506Y-81754463D01*
X116758815Y-81833815D01*
X116679463Y-81930506D01*
X116620498Y-82040820D01*
X116584188Y-82160518D01*
X116571928Y-82285000D01*
X116575000Y-82899250D01*
X116733750Y-83058000D01*
X117983000Y-83058000D01*
X117983000Y-83038000D01*
X118237000Y-83038000D01*
X118237000Y-83058000D01*
X119486250Y-83058000D01*
X119645000Y-82899250D01*
X119648072Y-82285000D01*
X119635812Y-82160518D01*
X119599502Y-82040820D01*
X119540537Y-81930506D01*
X119499088Y-81880000D01*
X120589335Y-81880000D01*
X120650000Y-81885975D01*
X120710665Y-81880000D01*
X120892102Y-81862130D01*
X121124901Y-81791511D01*
X121339449Y-81676833D01*
X121527502Y-81522502D01*
X121550072Y-81495000D01*
X126146928Y-81495000D01*
X126159188Y-81619482D01*
X126195498Y-81739180D01*
X126254463Y-81849494D01*
X126333815Y-81946185D01*
X126430506Y-82025537D01*
X126540820Y-82084502D01*
X126621466Y-82108966D01*
X126537412Y-82184731D01*
X126363359Y-82418080D01*
X126238175Y-82680901D01*
X126193524Y-82828110D01*
X126314845Y-83058000D01*
X127508000Y-83058000D01*
X127508000Y-80772000D01*
X127762000Y-80772000D01*
X127762000Y-83058000D01*
X128955155Y-83058000D01*
X129076476Y-82828110D01*
X129031825Y-82680901D01*
X128906641Y-82418080D01*
X128732588Y-82184731D01*
X128648534Y-82108966D01*
X128729180Y-82084502D01*
X128839494Y-82025537D01*
X128936185Y-81946185D01*
X129015537Y-81849494D01*
X129074502Y-81739180D01*
X129110812Y-81619482D01*
X129123072Y-81495000D01*
X129120000Y-80930750D01*
X128961250Y-80772000D01*
X127762000Y-80772000D01*
X127508000Y-80772000D01*
X126308750Y-80772000D01*
X126150000Y-80930750D01*
X126146928Y-81495000D01*
X121550072Y-81495000D01*
X121566179Y-81475374D01*
X121796553Y-81245000D01*
X123090377Y-81245000D01*
X123145273Y-81281680D01*
X123406426Y-81389853D01*
X123683665Y-81445000D01*
X123966335Y-81445000D01*
X124243574Y-81389853D01*
X124504727Y-81281680D01*
X124739759Y-81124637D01*
X124939637Y-80924759D01*
X125096680Y-80689727D01*
X125204853Y-80428574D01*
X125260000Y-80151335D01*
X125260000Y-79868665D01*
X125245347Y-79795000D01*
X126146928Y-79795000D01*
X126150000Y-80359250D01*
X126308750Y-80518000D01*
X127508000Y-80518000D01*
X127508000Y-79318750D01*
X127349250Y-79160000D01*
X126785000Y-79156928D01*
X126660518Y-79169188D01*
X126540820Y-79205498D01*
X126430506Y-79264463D01*
X126333815Y-79343815D01*
X126254463Y-79440506D01*
X126195498Y-79550820D01*
X126159188Y-79670518D01*
X126146928Y-79795000D01*
X125245347Y-79795000D01*
X125204853Y-79591426D01*
X125096680Y-79330273D01*
X124939637Y-79095241D01*
X124749396Y-78905000D01*
X128310605Y-78905000D01*
X128571003Y-79165398D01*
X128485000Y-79156928D01*
X127920750Y-79160000D01*
X127762000Y-79318750D01*
X127762000Y-80518000D01*
X128961250Y-80518000D01*
X129120000Y-80359250D01*
X129123072Y-79795000D01*
X129114602Y-79708997D01*
X129375000Y-79969396D01*
X129375001Y-93180000D01*
X126530000Y-93180000D01*
X126530000Y-89255332D01*
X126537412Y-89265269D01*
X126753645Y-89460178D01*
X127003748Y-89609157D01*
X127278109Y-89706481D01*
X127508000Y-89585814D01*
X127508000Y-88392000D01*
X127762000Y-88392000D01*
X127762000Y-89585814D01*
X127991891Y-89706481D01*
X128266252Y-89609157D01*
X128516355Y-89460178D01*
X128732588Y-89265269D01*
X128906641Y-89031920D01*
X129031825Y-88769099D01*
X129076476Y-88621890D01*
X128955155Y-88392000D01*
X127762000Y-88392000D01*
X127508000Y-88392000D01*
X127488000Y-88392000D01*
X127488000Y-88138000D01*
X127508000Y-88138000D01*
X127508000Y-85852000D01*
X127762000Y-85852000D01*
X127762000Y-88138000D01*
X128955155Y-88138000D01*
X129076476Y-87908110D01*
X129031825Y-87760901D01*
X128906641Y-87498080D01*
X128732588Y-87264731D01*
X128516355Y-87069822D01*
X128390745Y-86995000D01*
X128516355Y-86920178D01*
X128732588Y-86725269D01*
X128906641Y-86491920D01*
X129031825Y-86229099D01*
X129076476Y-86081890D01*
X128955155Y-85852000D01*
X127762000Y-85852000D01*
X127508000Y-85852000D01*
X126314845Y-85852000D01*
X126193524Y-86081890D01*
X126238175Y-86229099D01*
X126363359Y-86491920D01*
X126537412Y-86725269D01*
X126753645Y-86920178D01*
X126879255Y-86995000D01*
X126753645Y-87069822D01*
X126537412Y-87264731D01*
X126363359Y-87498080D01*
X126238175Y-87760901D01*
X126193524Y-87908110D01*
X126314844Y-88137998D01*
X126314831Y-88137998D01*
X126293932Y-88098899D01*
X126182264Y-87962832D01*
X126159543Y-87935146D01*
X126159541Y-87935144D01*
X126114607Y-87880392D01*
X126059855Y-87835459D01*
X124739759Y-86515363D01*
X124680851Y-86476002D01*
X124626100Y-86431069D01*
X124563631Y-86397679D01*
X124504727Y-86358320D01*
X124439282Y-86331212D01*
X124376807Y-86297818D01*
X124309017Y-86277254D01*
X124243574Y-86250147D01*
X124174094Y-86236326D01*
X124106308Y-86215764D01*
X124035818Y-86208821D01*
X123966335Y-86195000D01*
X123895492Y-86195000D01*
X123825000Y-86188057D01*
X123754508Y-86195000D01*
X123683665Y-86195000D01*
X123614182Y-86208821D01*
X123543692Y-86215764D01*
X123475906Y-86236326D01*
X123406426Y-86250147D01*
X123340983Y-86277254D01*
X123273193Y-86297818D01*
X123210718Y-86331212D01*
X123145273Y-86358320D01*
X123086369Y-86397679D01*
X123023900Y-86431069D01*
X122969149Y-86476002D01*
X122910241Y-86515363D01*
X122860144Y-86565460D01*
X122805393Y-86610393D01*
X122760460Y-86665144D01*
X122710363Y-86715241D01*
X122671002Y-86774149D01*
X122626069Y-86828900D01*
X122592679Y-86891369D01*
X122553320Y-86950273D01*
X122526212Y-87015718D01*
X122492818Y-87078193D01*
X122472254Y-87145983D01*
X122445147Y-87211426D01*
X122431326Y-87280906D01*
X122410764Y-87348692D01*
X122403821Y-87419182D01*
X122390000Y-87488665D01*
X122390000Y-87559508D01*
X122383057Y-87630000D01*
X122390000Y-87700492D01*
X122390000Y-87771335D01*
X122403821Y-87840818D01*
X122410764Y-87911308D01*
X122431326Y-87979094D01*
X122445147Y-88048574D01*
X122472254Y-88114017D01*
X122492818Y-88181807D01*
X122526212Y-88244282D01*
X122553320Y-88309727D01*
X122592679Y-88368631D01*
X122626069Y-88431100D01*
X122671002Y-88485851D01*
X122710363Y-88544759D01*
X123660000Y-89494396D01*
X123660001Y-93783800D01*
X123656928Y-93815000D01*
X123656928Y-93822215D01*
X123587702Y-93801903D01*
X122774605Y-94615000D01*
X123587702Y-95428097D01*
X123656928Y-95407785D01*
X123656928Y-95415000D01*
X123669188Y-95539482D01*
X123705498Y-95659180D01*
X123764463Y-95769494D01*
X123843815Y-95866185D01*
X123940506Y-95945537D01*
X124050820Y-96004502D01*
X124170518Y-96040812D01*
X124295000Y-96053072D01*
X125055698Y-96053072D01*
X125095000Y-96056943D01*
X125134302Y-96053072D01*
X125895000Y-96053072D01*
X125926192Y-96050000D01*
X129390062Y-96050000D01*
X129436155Y-96136235D01*
X129634537Y-96377963D01*
X129813899Y-96525163D01*
X129628685Y-96680563D01*
X129434031Y-96923077D01*
X129290429Y-97198906D01*
X129219437Y-97417020D01*
X129339406Y-97663000D01*
X130683000Y-97663000D01*
X130683000Y-97643000D01*
X130937000Y-97643000D01*
X130937000Y-97663000D01*
X132280594Y-97663000D01*
X132400563Y-97417020D01*
X132329571Y-97198906D01*
X132185969Y-96923077D01*
X131991315Y-96680563D01*
X131806101Y-96525163D01*
X131985463Y-96377963D01*
X132183845Y-96136235D01*
X132331255Y-95860449D01*
X132422030Y-95561204D01*
X132452681Y-95250000D01*
X132422030Y-94938796D01*
X132331255Y-94639551D01*
X132245000Y-94478178D01*
X132245000Y-79445495D01*
X132251943Y-79375000D01*
X132224237Y-79093691D01*
X132142182Y-78823192D01*
X132130952Y-78802182D01*
X132008932Y-78573899D01*
X131829607Y-78355392D01*
X131774850Y-78310454D01*
X129969554Y-76505159D01*
X129924608Y-76450392D01*
X129706101Y-76271068D01*
X129456808Y-76137818D01*
X129186309Y-76055764D01*
X128975492Y-76035000D01*
X128905000Y-76028057D01*
X128834508Y-76035000D01*
X114370491Y-76035000D01*
X114299999Y-76028057D01*
X114018690Y-76055764D01*
X113955734Y-76074862D01*
X113748192Y-76137818D01*
X113498899Y-76271068D01*
X113280392Y-76450392D01*
X113235454Y-76505149D01*
X112065154Y-77675451D01*
X112010393Y-77720392D01*
X111831069Y-77938899D01*
X111819382Y-77960764D01*
X111697818Y-78188193D01*
X111615764Y-78458692D01*
X111588057Y-78740000D01*
X106210000Y-78740000D01*
X106210000Y-75730000D01*
X133390605Y-75730000D01*
X134455001Y-76794397D01*
X134455000Y-117515604D01*
X134025604Y-117945000D01*
X126435492Y-117945000D01*
X126365000Y-117938057D01*
X126294508Y-117945000D01*
X124419396Y-117945000D01*
X123990000Y-117515604D01*
X123990000Y-114307159D01*
X124025498Y-114424180D01*
X124084463Y-114534494D01*
X124163815Y-114631185D01*
X124260506Y-114710537D01*
X124370820Y-114769502D01*
X124490518Y-114805812D01*
X124615000Y-114818072D01*
X126079250Y-114815000D01*
X126238000Y-114656250D01*
X126238000Y-112807000D01*
X126492000Y-112807000D01*
X126492000Y-114656250D01*
X126650750Y-114815000D01*
X128115000Y-114818072D01*
X128239482Y-114805812D01*
X128359180Y-114769502D01*
X128469494Y-114710537D01*
X128566185Y-114631185D01*
X128645537Y-114534494D01*
X128704502Y-114424180D01*
X128740812Y-114304482D01*
X128753072Y-114180000D01*
X128750000Y-112965750D01*
X128591250Y-112807000D01*
X126492000Y-112807000D01*
X126238000Y-112807000D01*
X126218000Y-112807000D01*
X126218000Y-112553000D01*
X126238000Y-112553000D01*
X126238000Y-110703750D01*
X126492000Y-110703750D01*
X126492000Y-112553000D01*
X128591250Y-112553000D01*
X128750000Y-112394250D01*
X128753072Y-111180000D01*
X128740812Y-111055518D01*
X128704502Y-110935820D01*
X128645537Y-110825506D01*
X128566185Y-110728815D01*
X128469494Y-110649463D01*
X128359180Y-110590498D01*
X128239482Y-110554188D01*
X128115000Y-110541928D01*
X126650750Y-110545000D01*
X126492000Y-110703750D01*
X126238000Y-110703750D01*
X126079250Y-110545000D01*
X124615000Y-110541928D01*
X124490518Y-110554188D01*
X124370820Y-110590498D01*
X124260506Y-110649463D01*
X124163815Y-110728815D01*
X124084463Y-110825506D01*
X124025498Y-110935820D01*
X123989188Y-111055518D01*
X123976928Y-111180000D01*
X123979555Y-112218461D01*
X123969236Y-112113690D01*
X123937901Y-112010393D01*
X123887182Y-111843192D01*
X123753932Y-111593899D01*
X123574607Y-111375392D01*
X123519856Y-111330459D01*
X121079554Y-108890159D01*
X121034608Y-108835392D01*
X120816101Y-108656068D01*
X120566808Y-108522818D01*
X120296309Y-108440764D01*
X120085492Y-108420000D01*
X120015000Y-108413057D01*
X119944508Y-108420000D01*
X119212603Y-108420000D01*
X119204180Y-108415498D01*
X119084482Y-108379188D01*
X118960000Y-108366928D01*
X117260000Y-108366928D01*
X117135518Y-108379188D01*
X117015820Y-108415498D01*
X116905506Y-108474463D01*
X116808815Y-108553815D01*
X116729463Y-108650506D01*
X116670498Y-108760820D01*
X116634188Y-108880518D01*
X116621928Y-109005000D01*
X116621928Y-110705000D01*
X116634188Y-110829482D01*
X116670498Y-110949180D01*
X116729463Y-111059494D01*
X116808815Y-111156185D01*
X116905506Y-111235537D01*
X117015820Y-111294502D01*
X117096466Y-111318966D01*
X117012412Y-111394731D01*
X116838359Y-111628080D01*
X116713175Y-111890901D01*
X116668524Y-112038110D01*
X116789845Y-112268000D01*
X117983000Y-112268000D01*
X117983000Y-112248000D01*
X118237000Y-112248000D01*
X118237000Y-112268000D01*
X119430155Y-112268000D01*
X119551476Y-112038110D01*
X119506825Y-111890901D01*
X119381641Y-111628080D01*
X119207588Y-111394731D01*
X119123534Y-111318966D01*
X119204180Y-111294502D01*
X119212603Y-111290000D01*
X119420605Y-111290000D01*
X121120000Y-112989397D01*
X121120001Y-118039498D01*
X121113057Y-118110000D01*
X121140764Y-118391308D01*
X121222818Y-118661807D01*
X121282800Y-118774025D01*
X121356069Y-118911101D01*
X121535393Y-119129608D01*
X121590154Y-119174549D01*
X122760454Y-120344851D01*
X122805392Y-120399608D01*
X123023899Y-120578932D01*
X123273192Y-120712182D01*
X123480734Y-120775138D01*
X123543690Y-120794236D01*
X123824999Y-120821943D01*
X123895491Y-120815000D01*
X124930000Y-120815000D01*
X124930000Y-121325604D01*
X121960605Y-124295000D01*
X81239396Y-124295000D01*
X80175000Y-123230605D01*
X80175000Y-122911890D01*
X80473524Y-122911890D01*
X80518175Y-123059099D01*
X80643359Y-123321920D01*
X80817412Y-123555269D01*
X81033645Y-123750178D01*
X81283748Y-123899157D01*
X81558109Y-123996481D01*
X81788000Y-123875814D01*
X81788000Y-122682000D01*
X82042000Y-122682000D01*
X82042000Y-123875814D01*
X82271891Y-123996481D01*
X82546252Y-123899157D01*
X82796355Y-123750178D01*
X83012588Y-123555269D01*
X83186641Y-123321920D01*
X83311825Y-123059099D01*
X83356476Y-122911890D01*
X83235155Y-122682000D01*
X82042000Y-122682000D01*
X81788000Y-122682000D01*
X80594845Y-122682000D01*
X80473524Y-122911890D01*
X80175000Y-122911890D01*
X80175000Y-116370000D01*
X80812397Y-116370000D01*
X80820820Y-116374502D01*
X80893380Y-116396513D01*
X80761525Y-116528368D01*
X80599010Y-116771589D01*
X80487068Y-117041842D01*
X80430000Y-117328740D01*
X80430000Y-117621260D01*
X80487068Y-117908158D01*
X80599010Y-118178411D01*
X80680001Y-118299622D01*
X80680000Y-119190378D01*
X80599010Y-119311589D01*
X80487068Y-119581842D01*
X80430000Y-119868740D01*
X80430000Y-120161260D01*
X80487068Y-120448158D01*
X80599010Y-120718411D01*
X80761525Y-120961632D01*
X80968368Y-121168475D01*
X81150534Y-121290195D01*
X81033645Y-121359822D01*
X80817412Y-121554731D01*
X80643359Y-121788080D01*
X80518175Y-122050901D01*
X80473524Y-122198110D01*
X80594845Y-122428000D01*
X81788000Y-122428000D01*
X81788000Y-122408000D01*
X82042000Y-122408000D01*
X82042000Y-122428000D01*
X83235155Y-122428000D01*
X83356476Y-122198110D01*
X83311825Y-122050901D01*
X83186641Y-121788080D01*
X83012588Y-121554731D01*
X82796355Y-121359822D01*
X82679466Y-121290195D01*
X82861632Y-121168475D01*
X83068475Y-120961632D01*
X83230990Y-120718411D01*
X83342932Y-120448158D01*
X83400000Y-120161260D01*
X83400000Y-119868740D01*
X83342932Y-119581842D01*
X83230990Y-119311589D01*
X83150000Y-119190379D01*
X83150000Y-118710000D01*
X94554335Y-118710000D01*
X94615000Y-118715975D01*
X94675665Y-118710000D01*
X94857102Y-118692130D01*
X95089901Y-118621511D01*
X95304449Y-118506833D01*
X95492502Y-118352502D01*
X95531178Y-118305375D01*
X97031554Y-116805000D01*
X97055377Y-116805000D01*
X97107759Y-116840000D01*
X96875241Y-116995363D01*
X96675363Y-117195241D01*
X96518320Y-117430273D01*
X96410147Y-117691426D01*
X96355000Y-117968665D01*
X96355000Y-118251335D01*
X96410147Y-118528574D01*
X96518320Y-118789727D01*
X96555001Y-118844624D01*
X96555000Y-119415000D01*
X94700501Y-119415000D01*
X94646185Y-119348815D01*
X94549494Y-119269463D01*
X94439180Y-119210498D01*
X94319482Y-119174188D01*
X94195000Y-119161928D01*
X92495000Y-119161928D01*
X92370518Y-119174188D01*
X92250820Y-119210498D01*
X92140506Y-119269463D01*
X92043815Y-119348815D01*
X91964463Y-119445506D01*
X91905498Y-119555820D01*
X91869188Y-119675518D01*
X91856928Y-119800000D01*
X91856928Y-121500000D01*
X91869188Y-121624482D01*
X91905498Y-121744180D01*
X91964463Y-121854494D01*
X92043815Y-121951185D01*
X92140506Y-122030537D01*
X92250820Y-122089502D01*
X92370518Y-122125812D01*
X92495000Y-122138072D01*
X94195000Y-122138072D01*
X94319482Y-122125812D01*
X94439180Y-122089502D01*
X94549494Y-122030537D01*
X94646185Y-121951185D01*
X94700501Y-121885000D01*
X97094335Y-121885000D01*
X97155000Y-121890975D01*
X97215665Y-121885000D01*
X97397102Y-121867130D01*
X97629901Y-121796511D01*
X97844449Y-121681833D01*
X98032502Y-121527502D01*
X98071179Y-121480374D01*
X98620371Y-120931181D01*
X98667502Y-120892502D01*
X98821833Y-120704449D01*
X98936511Y-120489901D01*
X99007130Y-120257102D01*
X99025000Y-120075665D01*
X99025000Y-120075664D01*
X99030975Y-120015000D01*
X99025000Y-119954335D01*
X99025000Y-118844623D01*
X99061680Y-118789727D01*
X99169853Y-118528574D01*
X99225000Y-118251335D01*
X99225000Y-117968665D01*
X99169853Y-117691426D01*
X99061680Y-117430273D01*
X98904637Y-117195241D01*
X98704759Y-116995363D01*
X98472241Y-116840000D01*
X98704759Y-116684637D01*
X98904637Y-116484759D01*
X99061680Y-116249727D01*
X99169853Y-115988574D01*
X99225000Y-115711335D01*
X99225000Y-115428665D01*
X99169853Y-115151426D01*
X99061680Y-114890273D01*
X98904637Y-114655241D01*
X98704759Y-114455363D01*
X98472241Y-114300000D01*
X98704759Y-114144637D01*
X98904637Y-113944759D01*
X99061680Y-113709727D01*
X99169853Y-113448574D01*
X99225000Y-113171335D01*
X99225000Y-112888665D01*
X99169853Y-112611426D01*
X99061680Y-112350273D01*
X98904637Y-112115241D01*
X98704759Y-111915363D01*
X98472241Y-111760000D01*
X98704759Y-111604637D01*
X98904637Y-111404759D01*
X99061680Y-111169727D01*
X99169853Y-110908574D01*
X99225000Y-110631335D01*
X99225000Y-110348665D01*
X99169853Y-110071426D01*
X99061680Y-109810273D01*
X98904637Y-109575241D01*
X98704759Y-109375363D01*
X98472241Y-109220000D01*
X98704759Y-109064637D01*
X98904637Y-108864759D01*
X99061680Y-108629727D01*
X99169853Y-108368574D01*
X99225000Y-108091335D01*
X99225000Y-107808665D01*
X99169853Y-107531426D01*
X99061680Y-107270273D01*
X98904637Y-107035241D01*
X98704759Y-106835363D01*
X98472241Y-106680000D01*
X98704759Y-106524637D01*
X98904637Y-106324759D01*
X99061680Y-106089727D01*
X99169853Y-105828574D01*
X99225000Y-105551335D01*
X99225000Y-105268665D01*
X99169853Y-104991426D01*
X99061680Y-104730273D01*
X98904637Y-104495241D01*
X98704759Y-104295363D01*
X98472241Y-104140000D01*
X98704759Y-103984637D01*
X98904637Y-103784759D01*
X99061680Y-103549727D01*
X99169853Y-103288574D01*
X99225000Y-103011335D01*
X99225000Y-102728665D01*
X99169853Y-102451426D01*
X99061680Y-102190273D01*
X98904637Y-101955241D01*
X98704759Y-101755363D01*
X98472241Y-101600000D01*
X98704759Y-101444637D01*
X98904637Y-101244759D01*
X99061680Y-101009727D01*
X99169853Y-100748574D01*
X99225000Y-100471335D01*
X99225000Y-100188665D01*
X99169853Y-99911426D01*
X99061680Y-99650273D01*
X98904637Y-99415241D01*
X98704759Y-99215363D01*
X98472241Y-99060000D01*
X98704759Y-98904637D01*
X98904637Y-98704759D01*
X99061680Y-98469727D01*
X99169853Y-98208574D01*
X99225000Y-97931335D01*
X99225000Y-97648665D01*
X99169853Y-97371426D01*
X99061680Y-97110273D01*
X98904637Y-96875241D01*
X98704759Y-96675363D01*
X98472241Y-96520000D01*
X98704759Y-96364637D01*
X98904637Y-96164759D01*
X99061680Y-95929727D01*
X99169853Y-95668574D01*
X99225000Y-95391335D01*
X99225000Y-95108665D01*
X99169853Y-94831426D01*
X99061680Y-94570273D01*
X98904637Y-94335241D01*
X98704759Y-94135363D01*
X98472241Y-93980000D01*
X98704759Y-93824637D01*
X98904637Y-93624759D01*
X99061680Y-93389727D01*
X99169853Y-93128574D01*
X99225000Y-92851335D01*
X99225000Y-92568665D01*
X99169853Y-92291426D01*
X99061680Y-92030273D01*
X98904637Y-91795241D01*
X98704759Y-91595363D01*
X98469727Y-91438320D01*
X98459135Y-91433933D01*
X98645131Y-91322385D01*
X98853519Y-91133414D01*
X99021037Y-90907420D01*
X99141246Y-90653087D01*
X99181904Y-90519039D01*
X99059915Y-90297000D01*
X97917000Y-90297000D01*
X97917000Y-90317000D01*
X97663000Y-90317000D01*
X97663000Y-90297000D01*
X97643000Y-90297000D01*
X97643000Y-90043000D01*
X97663000Y-90043000D01*
X97663000Y-90023000D01*
X97917000Y-90023000D01*
X97917000Y-90043000D01*
X99059915Y-90043000D01*
X99181904Y-89820961D01*
X99141246Y-89686913D01*
X99021037Y-89432580D01*
X98853519Y-89206586D01*
X98645131Y-89017615D01*
X98459135Y-88906067D01*
X98469727Y-88901680D01*
X98704759Y-88744637D01*
X98904637Y-88544759D01*
X99061680Y-88309727D01*
X99169853Y-88048574D01*
X99225000Y-87771335D01*
X99225000Y-87488665D01*
X99169853Y-87211426D01*
X99061680Y-86950273D01*
X98904637Y-86715241D01*
X98704759Y-86515363D01*
X98472241Y-86360000D01*
X98704759Y-86204637D01*
X98904637Y-86004759D01*
X99061680Y-85769727D01*
X99169853Y-85508574D01*
X99225000Y-85231335D01*
X99225000Y-84948665D01*
X99169853Y-84671426D01*
X99061680Y-84410273D01*
X98904637Y-84175241D01*
X98706039Y-83976643D01*
X98714482Y-83975812D01*
X98834180Y-83939502D01*
X98944494Y-83880537D01*
X99041185Y-83801185D01*
X99120537Y-83704494D01*
X99179502Y-83594180D01*
X99215812Y-83474482D01*
X99228072Y-83350000D01*
X99228072Y-81750000D01*
X99215812Y-81625518D01*
X99179502Y-81505820D01*
X99120537Y-81395506D01*
X99041185Y-81298815D01*
X98944494Y-81219463D01*
X98834180Y-81160498D01*
X98714482Y-81124188D01*
X98590000Y-81111928D01*
X96990000Y-81111928D01*
X96865518Y-81124188D01*
X96745820Y-81160498D01*
X96635506Y-81219463D01*
X96538815Y-81298815D01*
X96459463Y-81395506D01*
X96400498Y-81505820D01*
X96364188Y-81625518D01*
X96351928Y-81750000D01*
X96351928Y-83350000D01*
X96364188Y-83474482D01*
X96400498Y-83594180D01*
X96459463Y-83704494D01*
X96538815Y-83801185D01*
X96635506Y-83880537D01*
X96745820Y-83939502D01*
X96865518Y-83975812D01*
X96873961Y-83976643D01*
X96675363Y-84175241D01*
X96518320Y-84410273D01*
X96410147Y-84671426D01*
X96355000Y-84948665D01*
X96355000Y-85231335D01*
X96410147Y-85508574D01*
X96518320Y-85769727D01*
X96675363Y-86004759D01*
X96875241Y-86204637D01*
X97107759Y-86360000D01*
X96875241Y-86515363D01*
X96675363Y-86715241D01*
X96518320Y-86950273D01*
X96410147Y-87211426D01*
X96355000Y-87488665D01*
X96355000Y-87771335D01*
X96410147Y-88048574D01*
X96518320Y-88309727D01*
X96675363Y-88544759D01*
X96875241Y-88744637D01*
X97110273Y-88901680D01*
X97120865Y-88906067D01*
X96934869Y-89017615D01*
X96726481Y-89206586D01*
X96558963Y-89432580D01*
X96462733Y-89636180D01*
X95151178Y-88324625D01*
X95112501Y-88277497D01*
X94924448Y-88123166D01*
X94709900Y-88008488D01*
X94477101Y-87937869D01*
X94295664Y-87919999D01*
X94234999Y-87914024D01*
X94174334Y-87919999D01*
X93266748Y-87919999D01*
X93104900Y-87833489D01*
X92872102Y-87762870D01*
X92630000Y-87739025D01*
X92387898Y-87762870D01*
X92155101Y-87833489D01*
X91993252Y-87919999D01*
X89791555Y-87919999D01*
X88865000Y-86993445D01*
X88865000Y-84105459D01*
X88943491Y-84053013D01*
X89146504Y-83850000D01*
X90771928Y-83850000D01*
X90784188Y-83974482D01*
X90820498Y-84094180D01*
X90879463Y-84204494D01*
X90958815Y-84301185D01*
X91055506Y-84380537D01*
X91165820Y-84439502D01*
X91285518Y-84475812D01*
X91410000Y-84488072D01*
X92424250Y-84485000D01*
X92583000Y-84326250D01*
X92583000Y-82677000D01*
X92837000Y-82677000D01*
X92837000Y-84326250D01*
X92995750Y-84485000D01*
X94010000Y-84488072D01*
X94134482Y-84475812D01*
X94254180Y-84439502D01*
X94364494Y-84380537D01*
X94461185Y-84301185D01*
X94540537Y-84204494D01*
X94599502Y-84094180D01*
X94635812Y-83974482D01*
X94648072Y-83850000D01*
X94645000Y-82835750D01*
X94486250Y-82677000D01*
X92837000Y-82677000D01*
X92583000Y-82677000D01*
X90933750Y-82677000D01*
X90775000Y-82835750D01*
X90771928Y-83850000D01*
X89146504Y-83850000D01*
X89213013Y-83783491D01*
X89424775Y-83466566D01*
X89570639Y-83114419D01*
X89645000Y-82740581D01*
X89645000Y-82359419D01*
X89570639Y-81985581D01*
X89424775Y-81633434D01*
X89213013Y-81316509D01*
X89146504Y-81250000D01*
X90771928Y-81250000D01*
X90775000Y-82264250D01*
X90933750Y-82423000D01*
X92583000Y-82423000D01*
X92583000Y-80773750D01*
X92837000Y-80773750D01*
X92837000Y-82423000D01*
X94486250Y-82423000D01*
X94645000Y-82264250D01*
X94648072Y-81250000D01*
X94635812Y-81125518D01*
X94599502Y-81005820D01*
X94540537Y-80895506D01*
X94461185Y-80798815D01*
X94364494Y-80719463D01*
X94254180Y-80660498D01*
X94134482Y-80624188D01*
X94010000Y-80611928D01*
X92995750Y-80615000D01*
X92837000Y-80773750D01*
X92583000Y-80773750D01*
X92424250Y-80615000D01*
X91410000Y-80611928D01*
X91285518Y-80624188D01*
X91165820Y-80660498D01*
X91055506Y-80719463D01*
X90958815Y-80798815D01*
X90879463Y-80895506D01*
X90820498Y-81005820D01*
X90784188Y-81125518D01*
X90771928Y-81250000D01*
X89146504Y-81250000D01*
X88943491Y-81046987D01*
X88626566Y-80835225D01*
X88274419Y-80689361D01*
X87900581Y-80615000D01*
X87519419Y-80615000D01*
X87145581Y-80689361D01*
X86793434Y-80835225D01*
X86476509Y-81046987D01*
X86206987Y-81316509D01*
X85995225Y-81633434D01*
X85849361Y-81985581D01*
X85775000Y-82359419D01*
X85775000Y-82740581D01*
X85849361Y-83114419D01*
X85995225Y-83466566D01*
X86206987Y-83783491D01*
X86395001Y-83971505D01*
X86395000Y-87444333D01*
X86389025Y-87504998D01*
X86412870Y-87747100D01*
X86439076Y-87833489D01*
X86483489Y-87979898D01*
X86598167Y-88194446D01*
X86752498Y-88382500D01*
X86799625Y-88421176D01*
X87533448Y-89154999D01*
X87434625Y-89253822D01*
X87387498Y-89292498D01*
X87233167Y-89480552D01*
X87118489Y-89695100D01*
X87118489Y-89695101D01*
X87047870Y-89927898D01*
X87024025Y-90170000D01*
X87030000Y-90230665D01*
X87030000Y-90705377D01*
X86993320Y-90760273D01*
X86885147Y-91021426D01*
X86830000Y-91298665D01*
X86830000Y-91581335D01*
X86885147Y-91858574D01*
X86993320Y-92119727D01*
X87150363Y-92354759D01*
X87350241Y-92554637D01*
X87585273Y-92711680D01*
X87846426Y-92819853D01*
X88123665Y-92875000D01*
X88406335Y-92875000D01*
X88683574Y-92819853D01*
X88944727Y-92711680D01*
X89179759Y-92554637D01*
X89379637Y-92354759D01*
X89536680Y-92119727D01*
X89644853Y-91858574D01*
X89700000Y-91581335D01*
X89700000Y-91298665D01*
X89644853Y-91021426D01*
X89536680Y-90760273D01*
X89500000Y-90705377D01*
X89500000Y-90681553D01*
X89791555Y-90389999D01*
X91278456Y-90389999D01*
X91225000Y-90658740D01*
X91225000Y-90951260D01*
X91282068Y-91238158D01*
X91394010Y-91508411D01*
X91556525Y-91751632D01*
X91763368Y-91958475D01*
X91937760Y-92075000D01*
X91763368Y-92191525D01*
X91556525Y-92398368D01*
X91394010Y-92641589D01*
X91282068Y-92911842D01*
X91225000Y-93198740D01*
X91225000Y-93491260D01*
X91282068Y-93778158D01*
X91394010Y-94048411D01*
X91556525Y-94291632D01*
X91763368Y-94498475D01*
X91937760Y-94615000D01*
X91763368Y-94731525D01*
X91556525Y-94938368D01*
X91394010Y-95181589D01*
X91282068Y-95451842D01*
X91225000Y-95738740D01*
X91225000Y-96031260D01*
X91282068Y-96318158D01*
X91394010Y-96588411D01*
X91556525Y-96831632D01*
X91688380Y-96963487D01*
X91615820Y-96985498D01*
X91505506Y-97044463D01*
X91408815Y-97123815D01*
X91329463Y-97220506D01*
X91270498Y-97330820D01*
X91234188Y-97450518D01*
X91221928Y-97575000D01*
X91221928Y-99275000D01*
X91234188Y-99399482D01*
X91270498Y-99519180D01*
X91329463Y-99629494D01*
X91408815Y-99726185D01*
X91505506Y-99805537D01*
X91615820Y-99864502D01*
X91735518Y-99900812D01*
X91860000Y-99913072D01*
X93086519Y-99913072D01*
X94181149Y-101007703D01*
X94048411Y-100919010D01*
X93778158Y-100807068D01*
X93491260Y-100750000D01*
X93198740Y-100750000D01*
X92911842Y-100807068D01*
X92641589Y-100919010D01*
X92398368Y-101081525D01*
X92191525Y-101288368D01*
X92069805Y-101470534D01*
X92000178Y-101353645D01*
X91805269Y-101137412D01*
X91571920Y-100963359D01*
X91309099Y-100838175D01*
X91161890Y-100793524D01*
X90932000Y-100914845D01*
X90932000Y-102108000D01*
X90952000Y-102108000D01*
X90952000Y-102362000D01*
X90932000Y-102362000D01*
X90932000Y-103555155D01*
X91161890Y-103676476D01*
X91309099Y-103631825D01*
X91571920Y-103506641D01*
X91805269Y-103332588D01*
X92000178Y-103116355D01*
X92069805Y-102999466D01*
X92191525Y-103181632D01*
X92398368Y-103388475D01*
X92641589Y-103550990D01*
X92911842Y-103662932D01*
X93054819Y-103691372D01*
X94181149Y-104817703D01*
X94048411Y-104729010D01*
X93778158Y-104617068D01*
X93491260Y-104560000D01*
X93198740Y-104560000D01*
X92911842Y-104617068D01*
X92641589Y-104729010D01*
X92398368Y-104891525D01*
X92191525Y-105098368D01*
X92069805Y-105280534D01*
X92000178Y-105163645D01*
X91805269Y-104947412D01*
X91571920Y-104773359D01*
X91309099Y-104648175D01*
X91161890Y-104603524D01*
X90932000Y-104724845D01*
X90932000Y-105918000D01*
X90952000Y-105918000D01*
X90952000Y-106172000D01*
X90932000Y-106172000D01*
X90932000Y-107365155D01*
X91161890Y-107486476D01*
X91309099Y-107441825D01*
X91571920Y-107316641D01*
X91805269Y-107142588D01*
X92000178Y-106926355D01*
X92069805Y-106809466D01*
X92191525Y-106991632D01*
X92398368Y-107198475D01*
X92641589Y-107360990D01*
X92911842Y-107472932D01*
X93054819Y-107501372D01*
X94173446Y-108620000D01*
X94169621Y-108620000D01*
X94048411Y-108539010D01*
X93778158Y-108427068D01*
X93491260Y-108370000D01*
X93198740Y-108370000D01*
X92911842Y-108427068D01*
X92641589Y-108539010D01*
X92398368Y-108701525D01*
X92191525Y-108908368D01*
X92069805Y-109090534D01*
X92000178Y-108973645D01*
X91805269Y-108757412D01*
X91571920Y-108583359D01*
X91309099Y-108458175D01*
X91161890Y-108413524D01*
X90932000Y-108534845D01*
X90932000Y-109728000D01*
X90952000Y-109728000D01*
X90952000Y-109982000D01*
X90932000Y-109982000D01*
X90932000Y-111175155D01*
X91161890Y-111296476D01*
X91309099Y-111251825D01*
X91571920Y-111126641D01*
X91805269Y-110952588D01*
X92000178Y-110736355D01*
X92069805Y-110619466D01*
X92191525Y-110801632D01*
X92398368Y-111008475D01*
X92641589Y-111170990D01*
X92911842Y-111282932D01*
X93198740Y-111340000D01*
X93491260Y-111340000D01*
X93778158Y-111282932D01*
X94048411Y-111170990D01*
X94129953Y-111116505D01*
X94333817Y-111320370D01*
X94372498Y-111367502D01*
X94560551Y-111521833D01*
X94775099Y-111636511D01*
X94977201Y-111697818D01*
X95007898Y-111707130D01*
X95250000Y-111730975D01*
X95310665Y-111725000D01*
X97055377Y-111725000D01*
X97107759Y-111760000D01*
X97055377Y-111795000D01*
X94040665Y-111795000D01*
X93980000Y-111789025D01*
X93919335Y-111795000D01*
X93737898Y-111812870D01*
X93505099Y-111883489D01*
X93290551Y-111998167D01*
X93102498Y-112152498D01*
X93082449Y-112176928D01*
X92495000Y-112176928D01*
X92370518Y-112189188D01*
X92250820Y-112225498D01*
X92140506Y-112284463D01*
X92043815Y-112363815D01*
X91964463Y-112460506D01*
X91905498Y-112570820D01*
X91869188Y-112690518D01*
X91856928Y-112815000D01*
X91856928Y-114515000D01*
X91869188Y-114639482D01*
X91905498Y-114759180D01*
X91964463Y-114869494D01*
X92043815Y-114966185D01*
X92140506Y-115045537D01*
X92250820Y-115104502D01*
X92370518Y-115140812D01*
X92495000Y-115153072D01*
X94195000Y-115153072D01*
X94319482Y-115140812D01*
X94439180Y-115104502D01*
X94549494Y-115045537D01*
X94646185Y-114966185D01*
X94725537Y-114869494D01*
X94784502Y-114759180D01*
X94820812Y-114639482D01*
X94833072Y-114515000D01*
X94833072Y-114265000D01*
X97055377Y-114265000D01*
X97107759Y-114300000D01*
X97055377Y-114335000D01*
X96580665Y-114335000D01*
X96520000Y-114329025D01*
X96459335Y-114335000D01*
X96277898Y-114352870D01*
X96045099Y-114423489D01*
X95830551Y-114538167D01*
X95642498Y-114692498D01*
X95603826Y-114739620D01*
X94103447Y-116240000D01*
X86962662Y-116240000D01*
X87161101Y-116133932D01*
X87379608Y-115954608D01*
X87424554Y-115899841D01*
X89229850Y-114094546D01*
X89284607Y-114049608D01*
X89463932Y-113831101D01*
X89597182Y-113581808D01*
X89605477Y-113554463D01*
X89679237Y-113311309D01*
X89706943Y-113030000D01*
X89700000Y-112959505D01*
X89700000Y-110957603D01*
X89704502Y-110949180D01*
X89728966Y-110868534D01*
X89804731Y-110952588D01*
X90038080Y-111126641D01*
X90300901Y-111251825D01*
X90448110Y-111296476D01*
X90678000Y-111175155D01*
X90678000Y-109982000D01*
X90658000Y-109982000D01*
X90658000Y-109728000D01*
X90678000Y-109728000D01*
X90678000Y-108534845D01*
X90448110Y-108413524D01*
X90300901Y-108458175D01*
X90038080Y-108583359D01*
X89804731Y-108757412D01*
X89728966Y-108841466D01*
X89704502Y-108760820D01*
X89700000Y-108752397D01*
X89700000Y-107147603D01*
X89704502Y-107139180D01*
X89728966Y-107058534D01*
X89804731Y-107142588D01*
X90038080Y-107316641D01*
X90300901Y-107441825D01*
X90448110Y-107486476D01*
X90678000Y-107365155D01*
X90678000Y-106172000D01*
X90658000Y-106172000D01*
X90658000Y-105918000D01*
X90678000Y-105918000D01*
X90678000Y-104724845D01*
X90448110Y-104603524D01*
X90300901Y-104648175D01*
X90038080Y-104773359D01*
X89804731Y-104947412D01*
X89728966Y-105031466D01*
X89704502Y-104950820D01*
X89700000Y-104942397D01*
X89700000Y-103337603D01*
X89704502Y-103329180D01*
X89728966Y-103248534D01*
X89804731Y-103332588D01*
X90038080Y-103506641D01*
X90300901Y-103631825D01*
X90448110Y-103676476D01*
X90678000Y-103555155D01*
X90678000Y-102362000D01*
X90658000Y-102362000D01*
X90658000Y-102108000D01*
X90678000Y-102108000D01*
X90678000Y-100914845D01*
X90448110Y-100793524D01*
X90300901Y-100838175D01*
X90038080Y-100963359D01*
X89804731Y-101137412D01*
X89728966Y-101221466D01*
X89704502Y-101140820D01*
X89700000Y-101132397D01*
X89700000Y-98918665D01*
X89686179Y-98849182D01*
X89679236Y-98778692D01*
X89658674Y-98710906D01*
X89644853Y-98641426D01*
X89617746Y-98575985D01*
X89597182Y-98508192D01*
X89563786Y-98445712D01*
X89536680Y-98380273D01*
X89497328Y-98321378D01*
X89463932Y-98258899D01*
X89418990Y-98204137D01*
X89379637Y-98145241D01*
X89329550Y-98095154D01*
X89284608Y-98040392D01*
X89229846Y-97995450D01*
X89179759Y-97945363D01*
X89120863Y-97906010D01*
X89066101Y-97861068D01*
X89003622Y-97827672D01*
X88944727Y-97788320D01*
X88879288Y-97761214D01*
X88816808Y-97727818D01*
X88749014Y-97707253D01*
X88683574Y-97680147D01*
X88614097Y-97666327D01*
X88546309Y-97645764D01*
X88475817Y-97638821D01*
X88406335Y-97625000D01*
X88335492Y-97625000D01*
X88265000Y-97618057D01*
X88194508Y-97625000D01*
X88123665Y-97625000D01*
X88054182Y-97638821D01*
X87983692Y-97645764D01*
X87915906Y-97666326D01*
X87846426Y-97680147D01*
X87780983Y-97707254D01*
X87713193Y-97727818D01*
X87650716Y-97761213D01*
X87585273Y-97788320D01*
X87526374Y-97827675D01*
X87463900Y-97861068D01*
X87409142Y-97906007D01*
X87350241Y-97945363D01*
X87300149Y-97995455D01*
X87245393Y-98040392D01*
X87200454Y-98095150D01*
X87150363Y-98145241D01*
X87111009Y-98204138D01*
X87066068Y-98258899D01*
X87032672Y-98321378D01*
X86993320Y-98380273D01*
X86966214Y-98445712D01*
X86932818Y-98508192D01*
X86912253Y-98575986D01*
X86885147Y-98641426D01*
X86871327Y-98710903D01*
X86850764Y-98778691D01*
X86843821Y-98849183D01*
X86830000Y-98918665D01*
X86830000Y-99765491D01*
X86830001Y-99765501D01*
X86830000Y-101132397D01*
X86825498Y-101140820D01*
X86789188Y-101260518D01*
X86776928Y-101385000D01*
X86776928Y-103085000D01*
X86789188Y-103209482D01*
X86825498Y-103329180D01*
X86830001Y-103337604D01*
X86830000Y-104942397D01*
X86825498Y-104950820D01*
X86789188Y-105070518D01*
X86776928Y-105195000D01*
X86776928Y-106895000D01*
X86789188Y-107019482D01*
X86825498Y-107139180D01*
X86830001Y-107147604D01*
X86830000Y-108752397D01*
X86825498Y-108760820D01*
X86789188Y-108880518D01*
X86776928Y-109005000D01*
X86776928Y-110705000D01*
X86789188Y-110829482D01*
X86825498Y-110949180D01*
X86830001Y-110957604D01*
X86830000Y-112435604D01*
X85765605Y-113500000D01*
X83017603Y-113500000D01*
X83009180Y-113495498D01*
X82889482Y-113459188D01*
X82765000Y-113446928D01*
X81065000Y-113446928D01*
X80940518Y-113459188D01*
X80820820Y-113495498D01*
X80812397Y-113500000D01*
X79535495Y-113500000D01*
X79465000Y-113493057D01*
X79183691Y-113520763D01*
X78942489Y-113593931D01*
X78913192Y-113602818D01*
X78663899Y-113736068D01*
X78445392Y-113915392D01*
X78400445Y-113970160D01*
X77775155Y-114595450D01*
X77720392Y-114640393D01*
X77541068Y-114858900D01*
X77422214Y-115081260D01*
X77407818Y-115108193D01*
X77325764Y-115378692D01*
X77298057Y-115660000D01*
X73787000Y-115660000D01*
X73787000Y-89373967D01*
X76470000Y-89373967D01*
X76470000Y-89696033D01*
X76532832Y-90011912D01*
X76656082Y-90309463D01*
X76835013Y-90577252D01*
X77062748Y-90804987D01*
X77330537Y-90983918D01*
X77628088Y-91107168D01*
X77943967Y-91170000D01*
X78266033Y-91170000D01*
X78581912Y-91107168D01*
X78879463Y-90983918D01*
X79147252Y-90804987D01*
X79182239Y-90770000D01*
X80559499Y-90770000D01*
X80613815Y-90836185D01*
X80710506Y-90915537D01*
X80820820Y-90974502D01*
X80940518Y-91010812D01*
X81065000Y-91023072D01*
X82765000Y-91023072D01*
X82889482Y-91010812D01*
X83009180Y-90974502D01*
X83119494Y-90915537D01*
X83216185Y-90836185D01*
X83295537Y-90739494D01*
X83354502Y-90629180D01*
X83390812Y-90509482D01*
X83403072Y-90385000D01*
X83403072Y-88685000D01*
X83390812Y-88560518D01*
X83354502Y-88440820D01*
X83295537Y-88330506D01*
X83216185Y-88233815D01*
X83119494Y-88154463D01*
X83009180Y-88095498D01*
X82928534Y-88071034D01*
X83012588Y-87995269D01*
X83186641Y-87761920D01*
X83311825Y-87499099D01*
X83356476Y-87351890D01*
X83235155Y-87122000D01*
X82042000Y-87122000D01*
X82042000Y-87142000D01*
X81788000Y-87142000D01*
X81788000Y-87122000D01*
X80594845Y-87122000D01*
X80473524Y-87351890D01*
X80518175Y-87499099D01*
X80643359Y-87761920D01*
X80817412Y-87995269D01*
X80901466Y-88071034D01*
X80820820Y-88095498D01*
X80710506Y-88154463D01*
X80613815Y-88233815D01*
X80559499Y-88300000D01*
X79182239Y-88300000D01*
X79147252Y-88265013D01*
X78879463Y-88086082D01*
X78581912Y-87962832D01*
X78266033Y-87900000D01*
X77943967Y-87900000D01*
X77628088Y-87962832D01*
X77330537Y-88086082D01*
X77062748Y-88265013D01*
X76835013Y-88492748D01*
X76656082Y-88760537D01*
X76532832Y-89058088D01*
X76470000Y-89373967D01*
X73787000Y-89373967D01*
X73787000Y-84811890D01*
X80473524Y-84811890D01*
X80518175Y-84959099D01*
X80643359Y-85221920D01*
X80817412Y-85455269D01*
X81033645Y-85650178D01*
X81159255Y-85725000D01*
X81033645Y-85799822D01*
X80817412Y-85994731D01*
X80643359Y-86228080D01*
X80518175Y-86490901D01*
X80473524Y-86638110D01*
X80594845Y-86868000D01*
X81788000Y-86868000D01*
X81788000Y-84582000D01*
X82042000Y-84582000D01*
X82042000Y-86868000D01*
X83235155Y-86868000D01*
X83356476Y-86638110D01*
X83311825Y-86490901D01*
X83186641Y-86228080D01*
X83012588Y-85994731D01*
X82796355Y-85799822D01*
X82670745Y-85725000D01*
X82796355Y-85650178D01*
X83012588Y-85455269D01*
X83186641Y-85221920D01*
X83311825Y-84959099D01*
X83356476Y-84811890D01*
X83235155Y-84582000D01*
X82042000Y-84582000D01*
X81788000Y-84582000D01*
X80594845Y-84582000D01*
X80473524Y-84811890D01*
X73787000Y-84811890D01*
X73787000Y-72517000D01*
X138303000Y-72517000D01*
X138303000Y-128778000D01*
%TA.AperFunction,Conductor*%
D26*
G36*
X138303000Y-128778000D02*
G01*
X73787000Y-128778000D01*
X73787000Y-115660000D01*
X77298057Y-115660000D01*
X77305000Y-115730492D01*
X77305001Y-123754498D01*
X77298057Y-123825000D01*
X77325764Y-124106308D01*
X77407818Y-124376807D01*
X77407819Y-124376808D01*
X77541069Y-124626101D01*
X77720393Y-124844608D01*
X77775155Y-124889550D01*
X79580450Y-126694846D01*
X79625392Y-126749608D01*
X79843899Y-126928932D01*
X80093192Y-127062182D01*
X80363691Y-127144237D01*
X80645000Y-127171943D01*
X80715495Y-127165000D01*
X122484508Y-127165000D01*
X122555000Y-127171943D01*
X122625492Y-127165000D01*
X122836309Y-127144236D01*
X123106808Y-127062182D01*
X123356101Y-126928932D01*
X123574608Y-126749608D01*
X123619554Y-126694841D01*
X127329850Y-122984546D01*
X127384607Y-122939608D01*
X127563932Y-122721101D01*
X127697182Y-122471808D01*
X127710471Y-122428000D01*
X127779237Y-122201309D01*
X127806943Y-121920000D01*
X127800000Y-121849505D01*
X127800000Y-120815000D01*
X134549508Y-120815000D01*
X134620000Y-120821943D01*
X134690492Y-120815000D01*
X134901309Y-120794236D01*
X135171808Y-120712182D01*
X135421101Y-120578932D01*
X135639608Y-120399608D01*
X135684554Y-120344841D01*
X136854855Y-119174541D01*
X136909607Y-119129608D01*
X136954545Y-119074852D01*
X137026559Y-118987102D01*
X137088932Y-118911101D01*
X137222182Y-118661808D01*
X137304236Y-118391309D01*
X137316174Y-118270099D01*
X137331943Y-118110001D01*
X137325000Y-118039509D01*
X137325000Y-76270495D01*
X137331943Y-76200000D01*
X137304237Y-75918691D01*
X137222182Y-75648192D01*
X137139728Y-75493932D01*
X137088932Y-75398899D01*
X136909608Y-75180392D01*
X136854846Y-75135450D01*
X135049554Y-73330159D01*
X135004608Y-73275392D01*
X134786101Y-73096068D01*
X134536808Y-72962818D01*
X134266309Y-72880764D01*
X134055492Y-72860000D01*
X133985000Y-72853057D01*
X133914508Y-72860000D01*
X104845492Y-72860000D01*
X104775000Y-72853057D01*
X104704508Y-72860000D01*
X85795495Y-72860000D01*
X85725000Y-72853057D01*
X85443691Y-72880763D01*
X85173192Y-72962818D01*
X84923899Y-73096068D01*
X84705392Y-73275392D01*
X84660450Y-73330154D01*
X80950155Y-77040450D01*
X80895392Y-77085393D01*
X80716068Y-77303900D01*
X80665273Y-77398931D01*
X80582818Y-77553193D01*
X80500764Y-77823692D01*
X80473057Y-78105000D01*
X80480000Y-78175492D01*
X80480001Y-81517371D01*
X80430000Y-81768740D01*
X80430000Y-82061260D01*
X80487068Y-82348158D01*
X80599010Y-82618411D01*
X80761525Y-82861632D01*
X80968368Y-83068475D01*
X81150534Y-83190195D01*
X81033645Y-83259822D01*
X80817412Y-83454731D01*
X80643359Y-83688080D01*
X80518175Y-83950901D01*
X80473524Y-84098110D01*
X80594845Y-84328000D01*
X81788000Y-84328000D01*
X81788000Y-84308000D01*
X82042000Y-84308000D01*
X82042000Y-84328000D01*
X83235155Y-84328000D01*
X83356476Y-84098110D01*
X83311825Y-83950901D01*
X83186641Y-83688080D01*
X83012588Y-83454731D01*
X82796355Y-83259822D01*
X82679466Y-83190195D01*
X82861632Y-83068475D01*
X83068475Y-82861632D01*
X83230990Y-82618411D01*
X83342932Y-82348158D01*
X83400000Y-82061260D01*
X83400000Y-81768740D01*
X83350000Y-81517375D01*
X83350000Y-78699395D01*
X86319396Y-75730000D01*
X103340001Y-75730000D01*
X103340000Y-86924508D01*
X103333057Y-86995000D01*
X103341251Y-87078193D01*
X103360764Y-87276308D01*
X103442818Y-87546807D01*
X103576068Y-87796100D01*
X103755392Y-88014607D01*
X103810155Y-88059550D01*
X106885450Y-91134846D01*
X106930392Y-91189608D01*
X107148899Y-91368932D01*
X107383723Y-91494448D01*
X107398192Y-91502182D01*
X107668690Y-91584236D01*
X107949999Y-91611943D01*
X108020491Y-91605000D01*
X112105604Y-91605000D01*
X111915363Y-91795241D01*
X111758320Y-92030273D01*
X111650147Y-92291426D01*
X111595000Y-92568665D01*
X111595000Y-92851335D01*
X111650147Y-93128574D01*
X111758320Y-93389727D01*
X111915363Y-93624759D01*
X112115241Y-93824637D01*
X112347759Y-93980000D01*
X112115241Y-94135363D01*
X111915363Y-94335241D01*
X111758320Y-94570273D01*
X111650147Y-94831426D01*
X111595000Y-95108665D01*
X111595000Y-95391335D01*
X111650147Y-95668574D01*
X111758320Y-95929727D01*
X111915363Y-96164759D01*
X112115241Y-96364637D01*
X112347759Y-96520000D01*
X112115241Y-96675363D01*
X111915363Y-96875241D01*
X111758320Y-97110273D01*
X111650147Y-97371426D01*
X111595000Y-97648665D01*
X111595000Y-97931335D01*
X111650147Y-98208574D01*
X111758320Y-98469727D01*
X111915363Y-98704759D01*
X112115241Y-98904637D01*
X112347759Y-99060000D01*
X112115241Y-99215363D01*
X111915363Y-99415241D01*
X111758320Y-99650273D01*
X111650147Y-99911426D01*
X111595000Y-100188665D01*
X111595000Y-100471335D01*
X111650147Y-100748574D01*
X111758320Y-101009727D01*
X111915363Y-101244759D01*
X112115241Y-101444637D01*
X112347759Y-101600000D01*
X112115241Y-101755363D01*
X111915363Y-101955241D01*
X111758320Y-102190273D01*
X111650147Y-102451426D01*
X111595000Y-102728665D01*
X111595000Y-103011335D01*
X111650147Y-103288574D01*
X111758320Y-103549727D01*
X111915363Y-103784759D01*
X112115241Y-103984637D01*
X112347759Y-104140000D01*
X112115241Y-104295363D01*
X111915363Y-104495241D01*
X111758320Y-104730273D01*
X111650147Y-104991426D01*
X111595000Y-105268665D01*
X111595000Y-105551335D01*
X111650147Y-105828574D01*
X111758320Y-106089727D01*
X111915363Y-106324759D01*
X112115241Y-106524637D01*
X112347759Y-106680000D01*
X112115241Y-106835363D01*
X111915363Y-107035241D01*
X111758320Y-107270273D01*
X111650147Y-107531426D01*
X111595000Y-107808665D01*
X111595000Y-108091335D01*
X111650147Y-108368574D01*
X111758320Y-108629727D01*
X111915363Y-108864759D01*
X112115241Y-109064637D01*
X112347759Y-109220000D01*
X112115241Y-109375363D01*
X111915363Y-109575241D01*
X111758320Y-109810273D01*
X111650147Y-110071426D01*
X111595000Y-110348665D01*
X111595000Y-110631335D01*
X111650147Y-110908574D01*
X111758320Y-111169727D01*
X111915363Y-111404759D01*
X112115241Y-111604637D01*
X112347759Y-111760000D01*
X112115241Y-111915363D01*
X111915363Y-112115241D01*
X111758320Y-112350273D01*
X111650147Y-112611426D01*
X111595000Y-112888665D01*
X111595000Y-113171335D01*
X111650147Y-113448574D01*
X111758320Y-113709727D01*
X111915363Y-113944759D01*
X112115241Y-114144637D01*
X112347759Y-114300000D01*
X112115241Y-114455363D01*
X111915363Y-114655241D01*
X111758320Y-114890273D01*
X111650147Y-115151426D01*
X111595000Y-115428665D01*
X111595000Y-115711335D01*
X111650147Y-115988574D01*
X111758320Y-116249727D01*
X111915363Y-116484759D01*
X112115241Y-116684637D01*
X112347759Y-116840000D01*
X112115241Y-116995363D01*
X111915363Y-117195241D01*
X111758320Y-117430273D01*
X111650147Y-117691426D01*
X111595000Y-117968665D01*
X111595000Y-118251335D01*
X111650147Y-118528574D01*
X111758320Y-118789727D01*
X111795001Y-118844624D01*
X111795000Y-121224335D01*
X111789025Y-121285000D01*
X111812870Y-121527102D01*
X111821251Y-121554731D01*
X111883489Y-121759900D01*
X111998167Y-121974448D01*
X112152498Y-122162502D01*
X112199625Y-122201178D01*
X113383826Y-123385380D01*
X113422498Y-123432502D01*
X113610551Y-123586833D01*
X113825099Y-123701511D01*
X114057897Y-123772130D01*
X114299999Y-123795975D01*
X114360664Y-123790000D01*
X116119499Y-123790000D01*
X116173815Y-123856185D01*
X116270506Y-123935537D01*
X116380820Y-123994502D01*
X116500518Y-124030812D01*
X116625000Y-124043072D01*
X118325000Y-124043072D01*
X118449482Y-124030812D01*
X118569180Y-123994502D01*
X118679494Y-123935537D01*
X118776185Y-123856185D01*
X118855537Y-123759494D01*
X118914502Y-123649180D01*
X118950812Y-123529482D01*
X118963072Y-123405000D01*
X118963072Y-121705000D01*
X118950812Y-121580518D01*
X118914502Y-121460820D01*
X118855537Y-121350506D01*
X118776185Y-121253815D01*
X118679494Y-121174463D01*
X118569180Y-121115498D01*
X118449482Y-121079188D01*
X118325000Y-121066928D01*
X116625000Y-121066928D01*
X116500518Y-121079188D01*
X116380820Y-121115498D01*
X116270506Y-121174463D01*
X116173815Y-121253815D01*
X116119499Y-121320000D01*
X114811554Y-121320000D01*
X114265000Y-120773447D01*
X114265000Y-118844623D01*
X114301680Y-118789727D01*
X114409853Y-118528574D01*
X114465000Y-118251335D01*
X114465000Y-117968665D01*
X114409853Y-117691426D01*
X114301680Y-117430273D01*
X114144637Y-117195241D01*
X113944759Y-116995363D01*
X113712241Y-116840000D01*
X113764623Y-116805000D01*
X113788447Y-116805000D01*
X115986928Y-119003482D01*
X115986928Y-119595000D01*
X115999188Y-119719482D01*
X116035498Y-119839180D01*
X116094463Y-119949494D01*
X116173815Y-120046185D01*
X116270506Y-120125537D01*
X116380820Y-120184502D01*
X116500518Y-120220812D01*
X116625000Y-120233072D01*
X118325000Y-120233072D01*
X118449482Y-120220812D01*
X118569180Y-120184502D01*
X118679494Y-120125537D01*
X118776185Y-120046185D01*
X118855537Y-119949494D01*
X118914502Y-119839180D01*
X118950812Y-119719482D01*
X118963072Y-119595000D01*
X118963072Y-117895000D01*
X118950812Y-117770518D01*
X118914502Y-117650820D01*
X118855537Y-117540506D01*
X118776185Y-117443815D01*
X118679494Y-117364463D01*
X118569180Y-117305498D01*
X118449482Y-117269188D01*
X118325000Y-117256928D01*
X117733482Y-117256928D01*
X116646553Y-116170000D01*
X117285379Y-116170000D01*
X117406589Y-116250990D01*
X117676842Y-116362932D01*
X117963740Y-116420000D01*
X118256260Y-116420000D01*
X118543158Y-116362932D01*
X118813411Y-116250990D01*
X119056632Y-116088475D01*
X119263475Y-115881632D01*
X119425990Y-115638411D01*
X119537932Y-115368158D01*
X119595000Y-115081260D01*
X119595000Y-114788740D01*
X119537932Y-114501842D01*
X119425990Y-114231589D01*
X119263475Y-113988368D01*
X119056632Y-113781525D01*
X118874466Y-113659805D01*
X118991355Y-113590178D01*
X119207588Y-113395269D01*
X119381641Y-113161920D01*
X119506825Y-112899099D01*
X119551476Y-112751890D01*
X119430155Y-112522000D01*
X118237000Y-112522000D01*
X118237000Y-112542000D01*
X117983000Y-112542000D01*
X117983000Y-112522000D01*
X116789845Y-112522000D01*
X116668524Y-112751890D01*
X116713175Y-112899099D01*
X116838359Y-113161920D01*
X117012412Y-113395269D01*
X117228645Y-113590178D01*
X117345534Y-113659805D01*
X117285379Y-113700000D01*
X116716554Y-113700000D01*
X116170000Y-113153447D01*
X116170000Y-111185665D01*
X116175975Y-111125000D01*
X116152130Y-110882898D01*
X116127478Y-110801632D01*
X116081511Y-110650099D01*
X115966833Y-110435551D01*
X115812502Y-110247498D01*
X115765370Y-110208817D01*
X115216179Y-109659626D01*
X115177502Y-109612498D01*
X114989449Y-109458167D01*
X114774901Y-109343489D01*
X114542102Y-109272870D01*
X114360665Y-109255000D01*
X114300000Y-109249025D01*
X114239335Y-109255000D01*
X113764623Y-109255000D01*
X113712241Y-109220000D01*
X113764623Y-109185000D01*
X114239335Y-109185000D01*
X114300000Y-109190975D01*
X114360665Y-109185000D01*
X114542102Y-109167130D01*
X114774901Y-109096511D01*
X114989449Y-108981833D01*
X115177502Y-108827502D01*
X115216178Y-108780375D01*
X116690048Y-107306506D01*
X116771589Y-107360990D01*
X117041842Y-107472932D01*
X117328740Y-107530000D01*
X117621260Y-107530000D01*
X117908158Y-107472932D01*
X118178411Y-107360990D01*
X118421632Y-107198475D01*
X118628475Y-106991632D01*
X118790990Y-106748411D01*
X118902932Y-106478158D01*
X118960000Y-106191260D01*
X118960000Y-105898740D01*
X118902932Y-105611842D01*
X118790990Y-105341589D01*
X118628475Y-105098368D01*
X118421632Y-104891525D01*
X118239466Y-104769805D01*
X118356355Y-104700178D01*
X118572588Y-104505269D01*
X118746641Y-104271920D01*
X118871825Y-104009099D01*
X118916476Y-103861890D01*
X118795155Y-103632000D01*
X117602000Y-103632000D01*
X117602000Y-103652000D01*
X117348000Y-103652000D01*
X117348000Y-103632000D01*
X116154845Y-103632000D01*
X116033524Y-103861890D01*
X116078175Y-104009099D01*
X116203359Y-104271920D01*
X116377412Y-104505269D01*
X116593645Y-104700178D01*
X116710534Y-104769805D01*
X116650379Y-104810000D01*
X116265665Y-104810000D01*
X116205000Y-104804025D01*
X116144335Y-104810000D01*
X115962898Y-104827870D01*
X115730099Y-104898489D01*
X115515551Y-105013167D01*
X115327498Y-105167498D01*
X115288826Y-105214620D01*
X113788447Y-106715000D01*
X113764623Y-106715000D01*
X113712241Y-106680000D01*
X113944759Y-106524637D01*
X114144637Y-106324759D01*
X114301680Y-106089727D01*
X114409853Y-105828574D01*
X114465000Y-105551335D01*
X114465000Y-105268665D01*
X114409853Y-104991426D01*
X114301680Y-104730273D01*
X114144637Y-104495241D01*
X113944759Y-104295363D01*
X113712241Y-104140000D01*
X113944759Y-103984637D01*
X114144637Y-103784759D01*
X114301680Y-103549727D01*
X114409853Y-103288574D01*
X114465000Y-103011335D01*
X114465000Y-102728665D01*
X114409853Y-102451426D01*
X114301680Y-102190273D01*
X114144637Y-101955241D01*
X113944759Y-101755363D01*
X113712241Y-101600000D01*
X113944759Y-101444637D01*
X114144637Y-101244759D01*
X114301680Y-101009727D01*
X114409853Y-100748574D01*
X114465000Y-100471335D01*
X114465000Y-100188665D01*
X114409853Y-99911426D01*
X114301680Y-99650273D01*
X114144637Y-99415241D01*
X113944759Y-99215363D01*
X113712241Y-99060000D01*
X113944759Y-98904637D01*
X114144637Y-98704759D01*
X114301680Y-98469727D01*
X114409853Y-98208574D01*
X114465000Y-97931335D01*
X114465000Y-97648665D01*
X114409853Y-97371426D01*
X114301680Y-97110273D01*
X114144637Y-96875241D01*
X113944759Y-96675363D01*
X113712241Y-96520000D01*
X113944759Y-96364637D01*
X114144637Y-96164759D01*
X114301680Y-95929727D01*
X114409853Y-95668574D01*
X114465000Y-95391335D01*
X114465000Y-95108665D01*
X114409853Y-94831426D01*
X114301680Y-94570273D01*
X114144637Y-94335241D01*
X113944759Y-94135363D01*
X113712241Y-93980000D01*
X113944759Y-93824637D01*
X114144637Y-93624759D01*
X114301680Y-93389727D01*
X114409853Y-93128574D01*
X114465000Y-92851335D01*
X114465000Y-92568665D01*
X114409853Y-92291426D01*
X114301680Y-92030273D01*
X114144637Y-91795241D01*
X113954396Y-91605000D01*
X116040000Y-91605000D01*
X116040000Y-91677374D01*
X115990000Y-91928740D01*
X115990000Y-92221260D01*
X116040001Y-92472629D01*
X116040000Y-94217374D01*
X115990000Y-94468740D01*
X115990000Y-94761260D01*
X116040001Y-95012629D01*
X116040000Y-96757374D01*
X115990000Y-97008740D01*
X115990000Y-97301260D01*
X116040000Y-97552626D01*
X116040001Y-99862396D01*
X116035498Y-99870820D01*
X115999188Y-99990518D01*
X115986928Y-100115000D01*
X115986928Y-101815000D01*
X115999188Y-101939482D01*
X116035498Y-102059180D01*
X116094463Y-102169494D01*
X116173815Y-102266185D01*
X116270506Y-102345537D01*
X116380820Y-102404502D01*
X116461466Y-102428966D01*
X116377412Y-102504731D01*
X116203359Y-102738080D01*
X116078175Y-103000901D01*
X116033524Y-103148110D01*
X116154845Y-103378000D01*
X117348000Y-103378000D01*
X117348000Y-103358000D01*
X117602000Y-103358000D01*
X117602000Y-103378000D01*
X118795155Y-103378000D01*
X118916476Y-103148110D01*
X118871825Y-103000901D01*
X118746641Y-102738080D01*
X118572588Y-102504731D01*
X118488534Y-102428966D01*
X118569180Y-102404502D01*
X118679494Y-102345537D01*
X118776185Y-102266185D01*
X118855537Y-102169494D01*
X118914502Y-102059180D01*
X118945285Y-101957702D01*
X121781903Y-101957702D01*
X121853486Y-102201671D01*
X122108996Y-102322571D01*
X122383184Y-102391300D01*
X122665512Y-102405217D01*
X122945130Y-102363787D01*
X123211292Y-102268603D01*
X123336514Y-102201671D01*
X123408097Y-101957702D01*
X122595000Y-101144605D01*
X121781903Y-101957702D01*
X118945285Y-101957702D01*
X118950812Y-101939482D01*
X118963072Y-101815000D01*
X118963072Y-101035512D01*
X121154783Y-101035512D01*
X121196213Y-101315130D01*
X121291397Y-101581292D01*
X121358329Y-101706514D01*
X121602298Y-101778097D01*
X122415395Y-100965000D01*
X122774605Y-100965000D01*
X123587702Y-101778097D01*
X123656928Y-101757785D01*
X123656928Y-101765000D01*
X123669188Y-101889482D01*
X123705498Y-102009180D01*
X123764463Y-102119494D01*
X123843815Y-102216185D01*
X123940506Y-102295537D01*
X124050820Y-102354502D01*
X124170518Y-102390812D01*
X124295000Y-102403072D01*
X125130001Y-102403072D01*
X125130000Y-104291928D01*
X124615000Y-104291928D01*
X124490518Y-104304188D01*
X124370820Y-104340498D01*
X124260506Y-104399463D01*
X124163815Y-104478815D01*
X124084463Y-104575506D01*
X124025498Y-104685820D01*
X123989188Y-104805518D01*
X123976928Y-104930000D01*
X123976928Y-108430000D01*
X123989188Y-108554482D01*
X124025498Y-108674180D01*
X124084463Y-108784494D01*
X124163815Y-108881185D01*
X124260506Y-108960537D01*
X124370820Y-109019502D01*
X124490518Y-109055812D01*
X124615000Y-109068072D01*
X128115000Y-109068072D01*
X128239482Y-109055812D01*
X128359180Y-109019502D01*
X128469494Y-108960537D01*
X128566185Y-108881185D01*
X128645537Y-108784494D01*
X128686494Y-108707869D01*
X128676928Y-108805000D01*
X128676928Y-110555000D01*
X128706001Y-110850186D01*
X128792104Y-111134028D01*
X128931927Y-111395618D01*
X129120097Y-111624903D01*
X129349382Y-111813073D01*
X129610972Y-111952896D01*
X129894814Y-112038999D01*
X130190000Y-112068072D01*
X131940000Y-112068072D01*
X132235186Y-112038999D01*
X132519028Y-111952896D01*
X132780618Y-111813073D01*
X133009903Y-111624903D01*
X133198073Y-111395618D01*
X133337896Y-111134028D01*
X133423999Y-110850186D01*
X133453072Y-110555000D01*
X133453072Y-108805000D01*
X133423999Y-108509814D01*
X133337896Y-108225972D01*
X133198073Y-107964382D01*
X133009903Y-107735097D01*
X132780618Y-107546927D01*
X132519028Y-107407104D01*
X132235186Y-107321001D01*
X131940000Y-107291928D01*
X130190000Y-107291928D01*
X129894814Y-107321001D01*
X129610972Y-107407104D01*
X129349382Y-107546927D01*
X129120097Y-107735097D01*
X128931927Y-107964382D01*
X128792104Y-108225972D01*
X128753072Y-108354643D01*
X128753072Y-104930000D01*
X128740812Y-104805518D01*
X128704502Y-104685820D01*
X128645537Y-104575506D01*
X128566185Y-104478815D01*
X128469494Y-104399463D01*
X128359180Y-104340498D01*
X128239482Y-104304188D01*
X128115000Y-104291928D01*
X127600000Y-104291928D01*
X127600000Y-102111552D01*
X127830370Y-101881183D01*
X127877502Y-101842502D01*
X127916179Y-101795374D01*
X128146553Y-101565000D01*
X129240981Y-101565000D01*
X129279463Y-101636994D01*
X129358815Y-101733685D01*
X129455506Y-101813037D01*
X129565820Y-101872002D01*
X129685518Y-101908312D01*
X129810000Y-101920572D01*
X131810000Y-101920572D01*
X131934482Y-101908312D01*
X132054180Y-101872002D01*
X132164494Y-101813037D01*
X132261185Y-101733685D01*
X132340537Y-101636994D01*
X132399502Y-101526680D01*
X132435812Y-101406982D01*
X132448072Y-101282500D01*
X132448072Y-99377500D01*
X132435812Y-99253018D01*
X132399502Y-99133320D01*
X132340537Y-99023006D01*
X132261185Y-98926315D01*
X132164494Y-98846963D01*
X132072781Y-98797941D01*
X132185969Y-98656923D01*
X132329571Y-98381094D01*
X132400563Y-98162980D01*
X132280594Y-97917000D01*
X130937000Y-97917000D01*
X130937000Y-97937000D01*
X130683000Y-97937000D01*
X130683000Y-97917000D01*
X129339406Y-97917000D01*
X129219437Y-98162980D01*
X129290429Y-98381094D01*
X129434031Y-98656923D01*
X129547219Y-98797941D01*
X129455506Y-98846963D01*
X129358815Y-98926315D01*
X129279463Y-99023006D01*
X129240981Y-99095000D01*
X127695665Y-99095000D01*
X127635000Y-99089025D01*
X127574335Y-99095000D01*
X127392898Y-99112870D01*
X127160099Y-99183489D01*
X126945551Y-99298167D01*
X126757498Y-99452498D01*
X126718817Y-99499630D01*
X126488448Y-99730000D01*
X126359468Y-99730000D01*
X126346185Y-99713815D01*
X126249494Y-99634463D01*
X126139180Y-99575498D01*
X126019482Y-99539188D01*
X125895000Y-99526928D01*
X124295000Y-99526928D01*
X124170518Y-99539188D01*
X124050820Y-99575498D01*
X123940506Y-99634463D01*
X123843815Y-99713815D01*
X123764463Y-99810506D01*
X123705498Y-99920820D01*
X123669188Y-100040518D01*
X123656928Y-100165000D01*
X123656928Y-100172215D01*
X123587702Y-100151903D01*
X122774605Y-100965000D01*
X122415395Y-100965000D01*
X121602298Y-100151903D01*
X121358329Y-100223486D01*
X121237429Y-100478996D01*
X121168700Y-100753184D01*
X121154783Y-101035512D01*
X118963072Y-101035512D01*
X118963072Y-100115000D01*
X118950812Y-99990518D01*
X118945286Y-99972298D01*
X121781903Y-99972298D01*
X122595000Y-100785395D01*
X123408097Y-99972298D01*
X123336514Y-99728329D01*
X123081004Y-99607429D01*
X122806816Y-99538700D01*
X122524488Y-99524783D01*
X122244870Y-99566213D01*
X121978708Y-99661397D01*
X121853486Y-99728329D01*
X121781903Y-99972298D01*
X118945286Y-99972298D01*
X118914502Y-99870820D01*
X118910000Y-99862397D01*
X118910000Y-97552625D01*
X118960000Y-97301260D01*
X118960000Y-97008740D01*
X118910000Y-96757375D01*
X118910000Y-95607702D01*
X121781903Y-95607702D01*
X121853486Y-95851671D01*
X122108996Y-95972571D01*
X122383184Y-96041300D01*
X122665512Y-96055217D01*
X122945130Y-96013787D01*
X123211292Y-95918603D01*
X123336514Y-95851671D01*
X123408097Y-95607702D01*
X122595000Y-94794605D01*
X121781903Y-95607702D01*
X118910000Y-95607702D01*
X118910000Y-95012625D01*
X118960000Y-94761260D01*
X118960000Y-94685512D01*
X121154783Y-94685512D01*
X121196213Y-94965130D01*
X121291397Y-95231292D01*
X121358329Y-95356514D01*
X121602298Y-95428097D01*
X122415395Y-94615000D01*
X121602298Y-93801903D01*
X121358329Y-93873486D01*
X121237429Y-94128996D01*
X121168700Y-94403184D01*
X121154783Y-94685512D01*
X118960000Y-94685512D01*
X118960000Y-94468740D01*
X118910000Y-94217375D01*
X118910000Y-93622298D01*
X121781903Y-93622298D01*
X122595000Y-94435395D01*
X123408097Y-93622298D01*
X123336514Y-93378329D01*
X123081004Y-93257429D01*
X122806816Y-93188700D01*
X122524488Y-93174783D01*
X122244870Y-93216213D01*
X121978708Y-93311397D01*
X121853486Y-93378329D01*
X121781903Y-93622298D01*
X118910000Y-93622298D01*
X118910000Y-92472625D01*
X118960000Y-92221260D01*
X118960000Y-91928740D01*
X118910000Y-91677375D01*
X118910000Y-90637603D01*
X118914502Y-90629180D01*
X118950812Y-90509482D01*
X118963072Y-90385000D01*
X118963072Y-88685000D01*
X118950812Y-88560518D01*
X118914502Y-88440820D01*
X118855537Y-88330506D01*
X118776185Y-88233815D01*
X118679494Y-88154463D01*
X118569180Y-88095498D01*
X118449482Y-88059188D01*
X118325000Y-88046928D01*
X116625000Y-88046928D01*
X116500518Y-88059188D01*
X116380820Y-88095498D01*
X116270506Y-88154463D01*
X116173815Y-88233815D01*
X116094463Y-88330506D01*
X116035498Y-88440820D01*
X115999188Y-88560518D01*
X115986928Y-88685000D01*
X115986928Y-88735000D01*
X113954396Y-88735000D01*
X114144637Y-88544759D01*
X114301680Y-88309727D01*
X114409853Y-88048574D01*
X114465000Y-87771335D01*
X114465000Y-87488665D01*
X114409853Y-87211426D01*
X114301680Y-86950273D01*
X114144637Y-86715241D01*
X113944759Y-86515363D01*
X113709727Y-86358320D01*
X113699135Y-86353933D01*
X113885131Y-86242385D01*
X114093519Y-86053414D01*
X114261037Y-85827420D01*
X114381246Y-85573087D01*
X114421904Y-85439039D01*
X114299915Y-85217000D01*
X113157000Y-85217000D01*
X113157000Y-85237000D01*
X112903000Y-85237000D01*
X112903000Y-85217000D01*
X111760085Y-85217000D01*
X111638096Y-85439039D01*
X111678754Y-85573087D01*
X111798963Y-85827420D01*
X111966481Y-86053414D01*
X112174869Y-86242385D01*
X112360865Y-86353933D01*
X112350273Y-86358320D01*
X112115241Y-86515363D01*
X111915363Y-86715241D01*
X111758320Y-86950273D01*
X111650147Y-87211426D01*
X111595000Y-87488665D01*
X111595000Y-87771335D01*
X111650147Y-88048574D01*
X111758320Y-88309727D01*
X111915363Y-88544759D01*
X112105604Y-88735000D01*
X108544396Y-88735000D01*
X106210000Y-86400605D01*
X106210000Y-78740000D01*
X111588057Y-78740000D01*
X111595001Y-78810502D01*
X111595000Y-82408665D01*
X111595000Y-82691335D01*
X111608821Y-82760818D01*
X111615764Y-82831308D01*
X111636326Y-82899094D01*
X111650147Y-82968574D01*
X111677254Y-83034017D01*
X111697818Y-83101807D01*
X111731213Y-83164284D01*
X111758320Y-83229727D01*
X111797675Y-83288626D01*
X111831068Y-83351100D01*
X111876007Y-83405858D01*
X111915363Y-83464759D01*
X111965455Y-83514851D01*
X112010392Y-83569607D01*
X112065150Y-83614546D01*
X112115241Y-83664637D01*
X112174138Y-83703991D01*
X112228899Y-83748932D01*
X112291378Y-83782328D01*
X112350273Y-83821680D01*
X112360865Y-83826067D01*
X112174869Y-83937615D01*
X111966481Y-84126586D01*
X111798963Y-84352580D01*
X111678754Y-84606913D01*
X111638096Y-84740961D01*
X111760085Y-84963000D01*
X112903000Y-84963000D01*
X112903000Y-84943000D01*
X113157000Y-84943000D01*
X113157000Y-84963000D01*
X114299915Y-84963000D01*
X114421904Y-84740961D01*
X114381246Y-84606913D01*
X114261037Y-84352580D01*
X114093519Y-84126586D01*
X114047660Y-84085000D01*
X116571928Y-84085000D01*
X116584188Y-84209482D01*
X116620498Y-84329180D01*
X116679463Y-84439494D01*
X116758815Y-84536185D01*
X116855506Y-84615537D01*
X116965820Y-84674502D01*
X117085518Y-84710812D01*
X117210000Y-84723072D01*
X117824250Y-84720000D01*
X117983000Y-84561250D01*
X117983000Y-83312000D01*
X118237000Y-83312000D01*
X118237000Y-84561250D01*
X118395750Y-84720000D01*
X119010000Y-84723072D01*
X119134482Y-84710812D01*
X119254180Y-84674502D01*
X119364494Y-84615537D01*
X119461185Y-84536185D01*
X119540537Y-84439494D01*
X119599502Y-84329180D01*
X119635812Y-84209482D01*
X119648072Y-84085000D01*
X119645356Y-83541890D01*
X126193524Y-83541890D01*
X126238175Y-83689099D01*
X126363359Y-83951920D01*
X126537412Y-84185269D01*
X126753645Y-84380178D01*
X126879255Y-84455000D01*
X126753645Y-84529822D01*
X126537412Y-84724731D01*
X126363359Y-84958080D01*
X126238175Y-85220901D01*
X126193524Y-85368110D01*
X126314845Y-85598000D01*
X127508000Y-85598000D01*
X127508000Y-83312000D01*
X127762000Y-83312000D01*
X127762000Y-85598000D01*
X128955155Y-85598000D01*
X129076476Y-85368110D01*
X129031825Y-85220901D01*
X128906641Y-84958080D01*
X128732588Y-84724731D01*
X128516355Y-84529822D01*
X128390745Y-84455000D01*
X128516355Y-84380178D01*
X128732588Y-84185269D01*
X128906641Y-83951920D01*
X129031825Y-83689099D01*
X129076476Y-83541890D01*
X128955155Y-83312000D01*
X127762000Y-83312000D01*
X127508000Y-83312000D01*
X126314845Y-83312000D01*
X126193524Y-83541890D01*
X119645356Y-83541890D01*
X119645000Y-83470750D01*
X119486250Y-83312000D01*
X118237000Y-83312000D01*
X117983000Y-83312000D01*
X116733750Y-83312000D01*
X116575000Y-83470750D01*
X116571928Y-84085000D01*
X114047660Y-84085000D01*
X113885131Y-83937615D01*
X113699135Y-83826067D01*
X113709727Y-83821680D01*
X113768626Y-83782325D01*
X113831100Y-83748932D01*
X113885858Y-83703993D01*
X113944759Y-83664637D01*
X113994851Y-83614545D01*
X114049607Y-83569608D01*
X114094546Y-83514850D01*
X114144637Y-83464759D01*
X114183991Y-83405862D01*
X114228932Y-83351101D01*
X114262328Y-83288622D01*
X114301680Y-83229727D01*
X114328786Y-83164288D01*
X114362182Y-83101808D01*
X114382747Y-83034014D01*
X114409853Y-82968574D01*
X114423673Y-82899097D01*
X114444236Y-82831309D01*
X114451179Y-82760817D01*
X114465000Y-82691335D01*
X114465000Y-79334396D01*
X114894396Y-78905000D01*
X120732437Y-78905000D01*
X120595551Y-78978167D01*
X120407498Y-79132498D01*
X120368817Y-79179630D01*
X120138448Y-79410000D01*
X119024618Y-79410000D01*
X118837095Y-79284701D01*
X118557743Y-79168989D01*
X118261184Y-79110000D01*
X117958816Y-79110000D01*
X117662257Y-79168989D01*
X117382905Y-79284701D01*
X117131495Y-79452688D01*
X116917688Y-79666495D01*
X116749701Y-79917905D01*
X116633989Y-80197257D01*
X116575000Y-80493816D01*
X116575000Y-80796184D01*
X116633989Y-81092743D01*
X116749701Y-81372095D01*
X116917688Y-81623505D01*
X116984127Y-81689944D01*
X116965820Y-81695498D01*
X116855506Y-81754463D01*
X116758815Y-81833815D01*
X116679463Y-81930506D01*
X116620498Y-82040820D01*
X116584188Y-82160518D01*
X116571928Y-82285000D01*
X116575000Y-82899250D01*
X116733750Y-83058000D01*
X117983000Y-83058000D01*
X117983000Y-83038000D01*
X118237000Y-83038000D01*
X118237000Y-83058000D01*
X119486250Y-83058000D01*
X119645000Y-82899250D01*
X119648072Y-82285000D01*
X119635812Y-82160518D01*
X119599502Y-82040820D01*
X119540537Y-81930506D01*
X119499088Y-81880000D01*
X120589335Y-81880000D01*
X120650000Y-81885975D01*
X120710665Y-81880000D01*
X120892102Y-81862130D01*
X121124901Y-81791511D01*
X121339449Y-81676833D01*
X121527502Y-81522502D01*
X121550072Y-81495000D01*
X126146928Y-81495000D01*
X126159188Y-81619482D01*
X126195498Y-81739180D01*
X126254463Y-81849494D01*
X126333815Y-81946185D01*
X126430506Y-82025537D01*
X126540820Y-82084502D01*
X126621466Y-82108966D01*
X126537412Y-82184731D01*
X126363359Y-82418080D01*
X126238175Y-82680901D01*
X126193524Y-82828110D01*
X126314845Y-83058000D01*
X127508000Y-83058000D01*
X127508000Y-80772000D01*
X127762000Y-80772000D01*
X127762000Y-83058000D01*
X128955155Y-83058000D01*
X129076476Y-82828110D01*
X129031825Y-82680901D01*
X128906641Y-82418080D01*
X128732588Y-82184731D01*
X128648534Y-82108966D01*
X128729180Y-82084502D01*
X128839494Y-82025537D01*
X128936185Y-81946185D01*
X129015537Y-81849494D01*
X129074502Y-81739180D01*
X129110812Y-81619482D01*
X129123072Y-81495000D01*
X129120000Y-80930750D01*
X128961250Y-80772000D01*
X127762000Y-80772000D01*
X127508000Y-80772000D01*
X126308750Y-80772000D01*
X126150000Y-80930750D01*
X126146928Y-81495000D01*
X121550072Y-81495000D01*
X121566179Y-81475374D01*
X121796553Y-81245000D01*
X123090377Y-81245000D01*
X123145273Y-81281680D01*
X123406426Y-81389853D01*
X123683665Y-81445000D01*
X123966335Y-81445000D01*
X124243574Y-81389853D01*
X124504727Y-81281680D01*
X124739759Y-81124637D01*
X124939637Y-80924759D01*
X125096680Y-80689727D01*
X125204853Y-80428574D01*
X125260000Y-80151335D01*
X125260000Y-79868665D01*
X125245347Y-79795000D01*
X126146928Y-79795000D01*
X126150000Y-80359250D01*
X126308750Y-80518000D01*
X127508000Y-80518000D01*
X127508000Y-79318750D01*
X127349250Y-79160000D01*
X126785000Y-79156928D01*
X126660518Y-79169188D01*
X126540820Y-79205498D01*
X126430506Y-79264463D01*
X126333815Y-79343815D01*
X126254463Y-79440506D01*
X126195498Y-79550820D01*
X126159188Y-79670518D01*
X126146928Y-79795000D01*
X125245347Y-79795000D01*
X125204853Y-79591426D01*
X125096680Y-79330273D01*
X124939637Y-79095241D01*
X124749396Y-78905000D01*
X128310605Y-78905000D01*
X128571003Y-79165398D01*
X128485000Y-79156928D01*
X127920750Y-79160000D01*
X127762000Y-79318750D01*
X127762000Y-80518000D01*
X128961250Y-80518000D01*
X129120000Y-80359250D01*
X129123072Y-79795000D01*
X129114602Y-79708997D01*
X129375000Y-79969396D01*
X129375001Y-93180000D01*
X126530000Y-93180000D01*
X126530000Y-89255332D01*
X126537412Y-89265269D01*
X126753645Y-89460178D01*
X127003748Y-89609157D01*
X127278109Y-89706481D01*
X127508000Y-89585814D01*
X127508000Y-88392000D01*
X127762000Y-88392000D01*
X127762000Y-89585814D01*
X127991891Y-89706481D01*
X128266252Y-89609157D01*
X128516355Y-89460178D01*
X128732588Y-89265269D01*
X128906641Y-89031920D01*
X129031825Y-88769099D01*
X129076476Y-88621890D01*
X128955155Y-88392000D01*
X127762000Y-88392000D01*
X127508000Y-88392000D01*
X127488000Y-88392000D01*
X127488000Y-88138000D01*
X127508000Y-88138000D01*
X127508000Y-85852000D01*
X127762000Y-85852000D01*
X127762000Y-88138000D01*
X128955155Y-88138000D01*
X129076476Y-87908110D01*
X129031825Y-87760901D01*
X128906641Y-87498080D01*
X128732588Y-87264731D01*
X128516355Y-87069822D01*
X128390745Y-86995000D01*
X128516355Y-86920178D01*
X128732588Y-86725269D01*
X128906641Y-86491920D01*
X129031825Y-86229099D01*
X129076476Y-86081890D01*
X128955155Y-85852000D01*
X127762000Y-85852000D01*
X127508000Y-85852000D01*
X126314845Y-85852000D01*
X126193524Y-86081890D01*
X126238175Y-86229099D01*
X126363359Y-86491920D01*
X126537412Y-86725269D01*
X126753645Y-86920178D01*
X126879255Y-86995000D01*
X126753645Y-87069822D01*
X126537412Y-87264731D01*
X126363359Y-87498080D01*
X126238175Y-87760901D01*
X126193524Y-87908110D01*
X126314844Y-88137998D01*
X126314831Y-88137998D01*
X126293932Y-88098899D01*
X126182264Y-87962832D01*
X126159543Y-87935146D01*
X126159541Y-87935144D01*
X126114607Y-87880392D01*
X126059855Y-87835459D01*
X124739759Y-86515363D01*
X124680851Y-86476002D01*
X124626100Y-86431069D01*
X124563631Y-86397679D01*
X124504727Y-86358320D01*
X124439282Y-86331212D01*
X124376807Y-86297818D01*
X124309017Y-86277254D01*
X124243574Y-86250147D01*
X124174094Y-86236326D01*
X124106308Y-86215764D01*
X124035818Y-86208821D01*
X123966335Y-86195000D01*
X123895492Y-86195000D01*
X123825000Y-86188057D01*
X123754508Y-86195000D01*
X123683665Y-86195000D01*
X123614182Y-86208821D01*
X123543692Y-86215764D01*
X123475906Y-86236326D01*
X123406426Y-86250147D01*
X123340983Y-86277254D01*
X123273193Y-86297818D01*
X123210718Y-86331212D01*
X123145273Y-86358320D01*
X123086369Y-86397679D01*
X123023900Y-86431069D01*
X122969149Y-86476002D01*
X122910241Y-86515363D01*
X122860144Y-86565460D01*
X122805393Y-86610393D01*
X122760460Y-86665144D01*
X122710363Y-86715241D01*
X122671002Y-86774149D01*
X122626069Y-86828900D01*
X122592679Y-86891369D01*
X122553320Y-86950273D01*
X122526212Y-87015718D01*
X122492818Y-87078193D01*
X122472254Y-87145983D01*
X122445147Y-87211426D01*
X122431326Y-87280906D01*
X122410764Y-87348692D01*
X122403821Y-87419182D01*
X122390000Y-87488665D01*
X122390000Y-87559508D01*
X122383057Y-87630000D01*
X122390000Y-87700492D01*
X122390000Y-87771335D01*
X122403821Y-87840818D01*
X122410764Y-87911308D01*
X122431326Y-87979094D01*
X122445147Y-88048574D01*
X122472254Y-88114017D01*
X122492818Y-88181807D01*
X122526212Y-88244282D01*
X122553320Y-88309727D01*
X122592679Y-88368631D01*
X122626069Y-88431100D01*
X122671002Y-88485851D01*
X122710363Y-88544759D01*
X123660000Y-89494396D01*
X123660001Y-93783800D01*
X123656928Y-93815000D01*
X123656928Y-93822215D01*
X123587702Y-93801903D01*
X122774605Y-94615000D01*
X123587702Y-95428097D01*
X123656928Y-95407785D01*
X123656928Y-95415000D01*
X123669188Y-95539482D01*
X123705498Y-95659180D01*
X123764463Y-95769494D01*
X123843815Y-95866185D01*
X123940506Y-95945537D01*
X124050820Y-96004502D01*
X124170518Y-96040812D01*
X124295000Y-96053072D01*
X125055698Y-96053072D01*
X125095000Y-96056943D01*
X125134302Y-96053072D01*
X125895000Y-96053072D01*
X125926192Y-96050000D01*
X129390062Y-96050000D01*
X129436155Y-96136235D01*
X129634537Y-96377963D01*
X129813899Y-96525163D01*
X129628685Y-96680563D01*
X129434031Y-96923077D01*
X129290429Y-97198906D01*
X129219437Y-97417020D01*
X129339406Y-97663000D01*
X130683000Y-97663000D01*
X130683000Y-97643000D01*
X130937000Y-97643000D01*
X130937000Y-97663000D01*
X132280594Y-97663000D01*
X132400563Y-97417020D01*
X132329571Y-97198906D01*
X132185969Y-96923077D01*
X131991315Y-96680563D01*
X131806101Y-96525163D01*
X131985463Y-96377963D01*
X132183845Y-96136235D01*
X132331255Y-95860449D01*
X132422030Y-95561204D01*
X132452681Y-95250000D01*
X132422030Y-94938796D01*
X132331255Y-94639551D01*
X132245000Y-94478178D01*
X132245000Y-79445495D01*
X132251943Y-79375000D01*
X132224237Y-79093691D01*
X132142182Y-78823192D01*
X132130952Y-78802182D01*
X132008932Y-78573899D01*
X131829607Y-78355392D01*
X131774850Y-78310454D01*
X129969554Y-76505159D01*
X129924608Y-76450392D01*
X129706101Y-76271068D01*
X129456808Y-76137818D01*
X129186309Y-76055764D01*
X128975492Y-76035000D01*
X128905000Y-76028057D01*
X128834508Y-76035000D01*
X114370491Y-76035000D01*
X114299999Y-76028057D01*
X114018690Y-76055764D01*
X113955734Y-76074862D01*
X113748192Y-76137818D01*
X113498899Y-76271068D01*
X113280392Y-76450392D01*
X113235454Y-76505149D01*
X112065154Y-77675451D01*
X112010393Y-77720392D01*
X111831069Y-77938899D01*
X111819382Y-77960764D01*
X111697818Y-78188193D01*
X111615764Y-78458692D01*
X111588057Y-78740000D01*
X106210000Y-78740000D01*
X106210000Y-75730000D01*
X133390605Y-75730000D01*
X134455001Y-76794397D01*
X134455000Y-117515604D01*
X134025604Y-117945000D01*
X126435492Y-117945000D01*
X126365000Y-117938057D01*
X126294508Y-117945000D01*
X124419396Y-117945000D01*
X123990000Y-117515604D01*
X123990000Y-114307159D01*
X124025498Y-114424180D01*
X124084463Y-114534494D01*
X124163815Y-114631185D01*
X124260506Y-114710537D01*
X124370820Y-114769502D01*
X124490518Y-114805812D01*
X124615000Y-114818072D01*
X126079250Y-114815000D01*
X126238000Y-114656250D01*
X126238000Y-112807000D01*
X126492000Y-112807000D01*
X126492000Y-114656250D01*
X126650750Y-114815000D01*
X128115000Y-114818072D01*
X128239482Y-114805812D01*
X128359180Y-114769502D01*
X128469494Y-114710537D01*
X128566185Y-114631185D01*
X128645537Y-114534494D01*
X128704502Y-114424180D01*
X128740812Y-114304482D01*
X128753072Y-114180000D01*
X128750000Y-112965750D01*
X128591250Y-112807000D01*
X126492000Y-112807000D01*
X126238000Y-112807000D01*
X126218000Y-112807000D01*
X126218000Y-112553000D01*
X126238000Y-112553000D01*
X126238000Y-110703750D01*
X126492000Y-110703750D01*
X126492000Y-112553000D01*
X128591250Y-112553000D01*
X128750000Y-112394250D01*
X128753072Y-111180000D01*
X128740812Y-111055518D01*
X128704502Y-110935820D01*
X128645537Y-110825506D01*
X128566185Y-110728815D01*
X128469494Y-110649463D01*
X128359180Y-110590498D01*
X128239482Y-110554188D01*
X128115000Y-110541928D01*
X126650750Y-110545000D01*
X126492000Y-110703750D01*
X126238000Y-110703750D01*
X126079250Y-110545000D01*
X124615000Y-110541928D01*
X124490518Y-110554188D01*
X124370820Y-110590498D01*
X124260506Y-110649463D01*
X124163815Y-110728815D01*
X124084463Y-110825506D01*
X124025498Y-110935820D01*
X123989188Y-111055518D01*
X123976928Y-111180000D01*
X123979555Y-112218461D01*
X123969236Y-112113690D01*
X123937901Y-112010393D01*
X123887182Y-111843192D01*
X123753932Y-111593899D01*
X123574607Y-111375392D01*
X123519856Y-111330459D01*
X121079554Y-108890159D01*
X121034608Y-108835392D01*
X120816101Y-108656068D01*
X120566808Y-108522818D01*
X120296309Y-108440764D01*
X120085492Y-108420000D01*
X120015000Y-108413057D01*
X119944508Y-108420000D01*
X119212603Y-108420000D01*
X119204180Y-108415498D01*
X119084482Y-108379188D01*
X118960000Y-108366928D01*
X117260000Y-108366928D01*
X117135518Y-108379188D01*
X117015820Y-108415498D01*
X116905506Y-108474463D01*
X116808815Y-108553815D01*
X116729463Y-108650506D01*
X116670498Y-108760820D01*
X116634188Y-108880518D01*
X116621928Y-109005000D01*
X116621928Y-110705000D01*
X116634188Y-110829482D01*
X116670498Y-110949180D01*
X116729463Y-111059494D01*
X116808815Y-111156185D01*
X116905506Y-111235537D01*
X117015820Y-111294502D01*
X117096466Y-111318966D01*
X117012412Y-111394731D01*
X116838359Y-111628080D01*
X116713175Y-111890901D01*
X116668524Y-112038110D01*
X116789845Y-112268000D01*
X117983000Y-112268000D01*
X117983000Y-112248000D01*
X118237000Y-112248000D01*
X118237000Y-112268000D01*
X119430155Y-112268000D01*
X119551476Y-112038110D01*
X119506825Y-111890901D01*
X119381641Y-111628080D01*
X119207588Y-111394731D01*
X119123534Y-111318966D01*
X119204180Y-111294502D01*
X119212603Y-111290000D01*
X119420605Y-111290000D01*
X121120000Y-112989397D01*
X121120001Y-118039498D01*
X121113057Y-118110000D01*
X121140764Y-118391308D01*
X121222818Y-118661807D01*
X121282800Y-118774025D01*
X121356069Y-118911101D01*
X121535393Y-119129608D01*
X121590154Y-119174549D01*
X122760454Y-120344851D01*
X122805392Y-120399608D01*
X123023899Y-120578932D01*
X123273192Y-120712182D01*
X123480734Y-120775138D01*
X123543690Y-120794236D01*
X123824999Y-120821943D01*
X123895491Y-120815000D01*
X124930000Y-120815000D01*
X124930000Y-121325604D01*
X121960605Y-124295000D01*
X81239396Y-124295000D01*
X80175000Y-123230605D01*
X80175000Y-122911890D01*
X80473524Y-122911890D01*
X80518175Y-123059099D01*
X80643359Y-123321920D01*
X80817412Y-123555269D01*
X81033645Y-123750178D01*
X81283748Y-123899157D01*
X81558109Y-123996481D01*
X81788000Y-123875814D01*
X81788000Y-122682000D01*
X82042000Y-122682000D01*
X82042000Y-123875814D01*
X82271891Y-123996481D01*
X82546252Y-123899157D01*
X82796355Y-123750178D01*
X83012588Y-123555269D01*
X83186641Y-123321920D01*
X83311825Y-123059099D01*
X83356476Y-122911890D01*
X83235155Y-122682000D01*
X82042000Y-122682000D01*
X81788000Y-122682000D01*
X80594845Y-122682000D01*
X80473524Y-122911890D01*
X80175000Y-122911890D01*
X80175000Y-116370000D01*
X80812397Y-116370000D01*
X80820820Y-116374502D01*
X80893380Y-116396513D01*
X80761525Y-116528368D01*
X80599010Y-116771589D01*
X80487068Y-117041842D01*
X80430000Y-117328740D01*
X80430000Y-117621260D01*
X80487068Y-117908158D01*
X80599010Y-118178411D01*
X80680001Y-118299622D01*
X80680000Y-119190378D01*
X80599010Y-119311589D01*
X80487068Y-119581842D01*
X80430000Y-119868740D01*
X80430000Y-120161260D01*
X80487068Y-120448158D01*
X80599010Y-120718411D01*
X80761525Y-120961632D01*
X80968368Y-121168475D01*
X81150534Y-121290195D01*
X81033645Y-121359822D01*
X80817412Y-121554731D01*
X80643359Y-121788080D01*
X80518175Y-122050901D01*
X80473524Y-122198110D01*
X80594845Y-122428000D01*
X81788000Y-122428000D01*
X81788000Y-122408000D01*
X82042000Y-122408000D01*
X82042000Y-122428000D01*
X83235155Y-122428000D01*
X83356476Y-122198110D01*
X83311825Y-122050901D01*
X83186641Y-121788080D01*
X83012588Y-121554731D01*
X82796355Y-121359822D01*
X82679466Y-121290195D01*
X82861632Y-121168475D01*
X83068475Y-120961632D01*
X83230990Y-120718411D01*
X83342932Y-120448158D01*
X83400000Y-120161260D01*
X83400000Y-119868740D01*
X83342932Y-119581842D01*
X83230990Y-119311589D01*
X83150000Y-119190379D01*
X83150000Y-118710000D01*
X94554335Y-118710000D01*
X94615000Y-118715975D01*
X94675665Y-118710000D01*
X94857102Y-118692130D01*
X95089901Y-118621511D01*
X95304449Y-118506833D01*
X95492502Y-118352502D01*
X95531178Y-118305375D01*
X97031554Y-116805000D01*
X97055377Y-116805000D01*
X97107759Y-116840000D01*
X96875241Y-116995363D01*
X96675363Y-117195241D01*
X96518320Y-117430273D01*
X96410147Y-117691426D01*
X96355000Y-117968665D01*
X96355000Y-118251335D01*
X96410147Y-118528574D01*
X96518320Y-118789727D01*
X96555001Y-118844624D01*
X96555000Y-119415000D01*
X94700501Y-119415000D01*
X94646185Y-119348815D01*
X94549494Y-119269463D01*
X94439180Y-119210498D01*
X94319482Y-119174188D01*
X94195000Y-119161928D01*
X92495000Y-119161928D01*
X92370518Y-119174188D01*
X92250820Y-119210498D01*
X92140506Y-119269463D01*
X92043815Y-119348815D01*
X91964463Y-119445506D01*
X91905498Y-119555820D01*
X91869188Y-119675518D01*
X91856928Y-119800000D01*
X91856928Y-121500000D01*
X91869188Y-121624482D01*
X91905498Y-121744180D01*
X91964463Y-121854494D01*
X92043815Y-121951185D01*
X92140506Y-122030537D01*
X92250820Y-122089502D01*
X92370518Y-122125812D01*
X92495000Y-122138072D01*
X94195000Y-122138072D01*
X94319482Y-122125812D01*
X94439180Y-122089502D01*
X94549494Y-122030537D01*
X94646185Y-121951185D01*
X94700501Y-121885000D01*
X97094335Y-121885000D01*
X97155000Y-121890975D01*
X97215665Y-121885000D01*
X97397102Y-121867130D01*
X97629901Y-121796511D01*
X97844449Y-121681833D01*
X98032502Y-121527502D01*
X98071179Y-121480374D01*
X98620371Y-120931181D01*
X98667502Y-120892502D01*
X98821833Y-120704449D01*
X98936511Y-120489901D01*
X99007130Y-120257102D01*
X99025000Y-120075665D01*
X99025000Y-120075664D01*
X99030975Y-120015000D01*
X99025000Y-119954335D01*
X99025000Y-118844623D01*
X99061680Y-118789727D01*
X99169853Y-118528574D01*
X99225000Y-118251335D01*
X99225000Y-117968665D01*
X99169853Y-117691426D01*
X99061680Y-117430273D01*
X98904637Y-117195241D01*
X98704759Y-116995363D01*
X98472241Y-116840000D01*
X98704759Y-116684637D01*
X98904637Y-116484759D01*
X99061680Y-116249727D01*
X99169853Y-115988574D01*
X99225000Y-115711335D01*
X99225000Y-115428665D01*
X99169853Y-115151426D01*
X99061680Y-114890273D01*
X98904637Y-114655241D01*
X98704759Y-114455363D01*
X98472241Y-114300000D01*
X98704759Y-114144637D01*
X98904637Y-113944759D01*
X99061680Y-113709727D01*
X99169853Y-113448574D01*
X99225000Y-113171335D01*
X99225000Y-112888665D01*
X99169853Y-112611426D01*
X99061680Y-112350273D01*
X98904637Y-112115241D01*
X98704759Y-111915363D01*
X98472241Y-111760000D01*
X98704759Y-111604637D01*
X98904637Y-111404759D01*
X99061680Y-111169727D01*
X99169853Y-110908574D01*
X99225000Y-110631335D01*
X99225000Y-110348665D01*
X99169853Y-110071426D01*
X99061680Y-109810273D01*
X98904637Y-109575241D01*
X98704759Y-109375363D01*
X98472241Y-109220000D01*
X98704759Y-109064637D01*
X98904637Y-108864759D01*
X99061680Y-108629727D01*
X99169853Y-108368574D01*
X99225000Y-108091335D01*
X99225000Y-107808665D01*
X99169853Y-107531426D01*
X99061680Y-107270273D01*
X98904637Y-107035241D01*
X98704759Y-106835363D01*
X98472241Y-106680000D01*
X98704759Y-106524637D01*
X98904637Y-106324759D01*
X99061680Y-106089727D01*
X99169853Y-105828574D01*
X99225000Y-105551335D01*
X99225000Y-105268665D01*
X99169853Y-104991426D01*
X99061680Y-104730273D01*
X98904637Y-104495241D01*
X98704759Y-104295363D01*
X98472241Y-104140000D01*
X98704759Y-103984637D01*
X98904637Y-103784759D01*
X99061680Y-103549727D01*
X99169853Y-103288574D01*
X99225000Y-103011335D01*
X99225000Y-102728665D01*
X99169853Y-102451426D01*
X99061680Y-102190273D01*
X98904637Y-101955241D01*
X98704759Y-101755363D01*
X98472241Y-101600000D01*
X98704759Y-101444637D01*
X98904637Y-101244759D01*
X99061680Y-101009727D01*
X99169853Y-100748574D01*
X99225000Y-100471335D01*
X99225000Y-100188665D01*
X99169853Y-99911426D01*
X99061680Y-99650273D01*
X98904637Y-99415241D01*
X98704759Y-99215363D01*
X98472241Y-99060000D01*
X98704759Y-98904637D01*
X98904637Y-98704759D01*
X99061680Y-98469727D01*
X99169853Y-98208574D01*
X99225000Y-97931335D01*
X99225000Y-97648665D01*
X99169853Y-97371426D01*
X99061680Y-97110273D01*
X98904637Y-96875241D01*
X98704759Y-96675363D01*
X98472241Y-96520000D01*
X98704759Y-96364637D01*
X98904637Y-96164759D01*
X99061680Y-95929727D01*
X99169853Y-95668574D01*
X99225000Y-95391335D01*
X99225000Y-95108665D01*
X99169853Y-94831426D01*
X99061680Y-94570273D01*
X98904637Y-94335241D01*
X98704759Y-94135363D01*
X98472241Y-93980000D01*
X98704759Y-93824637D01*
X98904637Y-93624759D01*
X99061680Y-93389727D01*
X99169853Y-93128574D01*
X99225000Y-92851335D01*
X99225000Y-92568665D01*
X99169853Y-92291426D01*
X99061680Y-92030273D01*
X98904637Y-91795241D01*
X98704759Y-91595363D01*
X98469727Y-91438320D01*
X98459135Y-91433933D01*
X98645131Y-91322385D01*
X98853519Y-91133414D01*
X99021037Y-90907420D01*
X99141246Y-90653087D01*
X99181904Y-90519039D01*
X99059915Y-90297000D01*
X97917000Y-90297000D01*
X97917000Y-90317000D01*
X97663000Y-90317000D01*
X97663000Y-90297000D01*
X97643000Y-90297000D01*
X97643000Y-90043000D01*
X97663000Y-90043000D01*
X97663000Y-90023000D01*
X97917000Y-90023000D01*
X97917000Y-90043000D01*
X99059915Y-90043000D01*
X99181904Y-89820961D01*
X99141246Y-89686913D01*
X99021037Y-89432580D01*
X98853519Y-89206586D01*
X98645131Y-89017615D01*
X98459135Y-88906067D01*
X98469727Y-88901680D01*
X98704759Y-88744637D01*
X98904637Y-88544759D01*
X99061680Y-88309727D01*
X99169853Y-88048574D01*
X99225000Y-87771335D01*
X99225000Y-87488665D01*
X99169853Y-87211426D01*
X99061680Y-86950273D01*
X98904637Y-86715241D01*
X98704759Y-86515363D01*
X98472241Y-86360000D01*
X98704759Y-86204637D01*
X98904637Y-86004759D01*
X99061680Y-85769727D01*
X99169853Y-85508574D01*
X99225000Y-85231335D01*
X99225000Y-84948665D01*
X99169853Y-84671426D01*
X99061680Y-84410273D01*
X98904637Y-84175241D01*
X98706039Y-83976643D01*
X98714482Y-83975812D01*
X98834180Y-83939502D01*
X98944494Y-83880537D01*
X99041185Y-83801185D01*
X99120537Y-83704494D01*
X99179502Y-83594180D01*
X99215812Y-83474482D01*
X99228072Y-83350000D01*
X99228072Y-81750000D01*
X99215812Y-81625518D01*
X99179502Y-81505820D01*
X99120537Y-81395506D01*
X99041185Y-81298815D01*
X98944494Y-81219463D01*
X98834180Y-81160498D01*
X98714482Y-81124188D01*
X98590000Y-81111928D01*
X96990000Y-81111928D01*
X96865518Y-81124188D01*
X96745820Y-81160498D01*
X96635506Y-81219463D01*
X96538815Y-81298815D01*
X96459463Y-81395506D01*
X96400498Y-81505820D01*
X96364188Y-81625518D01*
X96351928Y-81750000D01*
X96351928Y-83350000D01*
X96364188Y-83474482D01*
X96400498Y-83594180D01*
X96459463Y-83704494D01*
X96538815Y-83801185D01*
X96635506Y-83880537D01*
X96745820Y-83939502D01*
X96865518Y-83975812D01*
X96873961Y-83976643D01*
X96675363Y-84175241D01*
X96518320Y-84410273D01*
X96410147Y-84671426D01*
X96355000Y-84948665D01*
X96355000Y-85231335D01*
X96410147Y-85508574D01*
X96518320Y-85769727D01*
X96675363Y-86004759D01*
X96875241Y-86204637D01*
X97107759Y-86360000D01*
X96875241Y-86515363D01*
X96675363Y-86715241D01*
X96518320Y-86950273D01*
X96410147Y-87211426D01*
X96355000Y-87488665D01*
X96355000Y-87771335D01*
X96410147Y-88048574D01*
X96518320Y-88309727D01*
X96675363Y-88544759D01*
X96875241Y-88744637D01*
X97110273Y-88901680D01*
X97120865Y-88906067D01*
X96934869Y-89017615D01*
X96726481Y-89206586D01*
X96558963Y-89432580D01*
X96462733Y-89636180D01*
X95151178Y-88324625D01*
X95112501Y-88277497D01*
X94924448Y-88123166D01*
X94709900Y-88008488D01*
X94477101Y-87937869D01*
X94295664Y-87919999D01*
X94234999Y-87914024D01*
X94174334Y-87919999D01*
X93266748Y-87919999D01*
X93104900Y-87833489D01*
X92872102Y-87762870D01*
X92630000Y-87739025D01*
X92387898Y-87762870D01*
X92155101Y-87833489D01*
X91993252Y-87919999D01*
X89791555Y-87919999D01*
X88865000Y-86993445D01*
X88865000Y-84105459D01*
X88943491Y-84053013D01*
X89146504Y-83850000D01*
X90771928Y-83850000D01*
X90784188Y-83974482D01*
X90820498Y-84094180D01*
X90879463Y-84204494D01*
X90958815Y-84301185D01*
X91055506Y-84380537D01*
X91165820Y-84439502D01*
X91285518Y-84475812D01*
X91410000Y-84488072D01*
X92424250Y-84485000D01*
X92583000Y-84326250D01*
X92583000Y-82677000D01*
X92837000Y-82677000D01*
X92837000Y-84326250D01*
X92995750Y-84485000D01*
X94010000Y-84488072D01*
X94134482Y-84475812D01*
X94254180Y-84439502D01*
X94364494Y-84380537D01*
X94461185Y-84301185D01*
X94540537Y-84204494D01*
X94599502Y-84094180D01*
X94635812Y-83974482D01*
X94648072Y-83850000D01*
X94645000Y-82835750D01*
X94486250Y-82677000D01*
X92837000Y-82677000D01*
X92583000Y-82677000D01*
X90933750Y-82677000D01*
X90775000Y-82835750D01*
X90771928Y-83850000D01*
X89146504Y-83850000D01*
X89213013Y-83783491D01*
X89424775Y-83466566D01*
X89570639Y-83114419D01*
X89645000Y-82740581D01*
X89645000Y-82359419D01*
X89570639Y-81985581D01*
X89424775Y-81633434D01*
X89213013Y-81316509D01*
X89146504Y-81250000D01*
X90771928Y-81250000D01*
X90775000Y-82264250D01*
X90933750Y-82423000D01*
X92583000Y-82423000D01*
X92583000Y-80773750D01*
X92837000Y-80773750D01*
X92837000Y-82423000D01*
X94486250Y-82423000D01*
X94645000Y-82264250D01*
X94648072Y-81250000D01*
X94635812Y-81125518D01*
X94599502Y-81005820D01*
X94540537Y-80895506D01*
X94461185Y-80798815D01*
X94364494Y-80719463D01*
X94254180Y-80660498D01*
X94134482Y-80624188D01*
X94010000Y-80611928D01*
X92995750Y-80615000D01*
X92837000Y-80773750D01*
X92583000Y-80773750D01*
X92424250Y-80615000D01*
X91410000Y-80611928D01*
X91285518Y-80624188D01*
X91165820Y-80660498D01*
X91055506Y-80719463D01*
X90958815Y-80798815D01*
X90879463Y-80895506D01*
X90820498Y-81005820D01*
X90784188Y-81125518D01*
X90771928Y-81250000D01*
X89146504Y-81250000D01*
X88943491Y-81046987D01*
X88626566Y-80835225D01*
X88274419Y-80689361D01*
X87900581Y-80615000D01*
X87519419Y-80615000D01*
X87145581Y-80689361D01*
X86793434Y-80835225D01*
X86476509Y-81046987D01*
X86206987Y-81316509D01*
X85995225Y-81633434D01*
X85849361Y-81985581D01*
X85775000Y-82359419D01*
X85775000Y-82740581D01*
X85849361Y-83114419D01*
X85995225Y-83466566D01*
X86206987Y-83783491D01*
X86395001Y-83971505D01*
X86395000Y-87444333D01*
X86389025Y-87504998D01*
X86412870Y-87747100D01*
X86439076Y-87833489D01*
X86483489Y-87979898D01*
X86598167Y-88194446D01*
X86752498Y-88382500D01*
X86799625Y-88421176D01*
X87533448Y-89154999D01*
X87434625Y-89253822D01*
X87387498Y-89292498D01*
X87233167Y-89480552D01*
X87118489Y-89695100D01*
X87118489Y-89695101D01*
X87047870Y-89927898D01*
X87024025Y-90170000D01*
X87030000Y-90230665D01*
X87030000Y-90705377D01*
X86993320Y-90760273D01*
X86885147Y-91021426D01*
X86830000Y-91298665D01*
X86830000Y-91581335D01*
X86885147Y-91858574D01*
X86993320Y-92119727D01*
X87150363Y-92354759D01*
X87350241Y-92554637D01*
X87585273Y-92711680D01*
X87846426Y-92819853D01*
X88123665Y-92875000D01*
X88406335Y-92875000D01*
X88683574Y-92819853D01*
X88944727Y-92711680D01*
X89179759Y-92554637D01*
X89379637Y-92354759D01*
X89536680Y-92119727D01*
X89644853Y-91858574D01*
X89700000Y-91581335D01*
X89700000Y-91298665D01*
X89644853Y-91021426D01*
X89536680Y-90760273D01*
X89500000Y-90705377D01*
X89500000Y-90681553D01*
X89791555Y-90389999D01*
X91278456Y-90389999D01*
X91225000Y-90658740D01*
X91225000Y-90951260D01*
X91282068Y-91238158D01*
X91394010Y-91508411D01*
X91556525Y-91751632D01*
X91763368Y-91958475D01*
X91937760Y-92075000D01*
X91763368Y-92191525D01*
X91556525Y-92398368D01*
X91394010Y-92641589D01*
X91282068Y-92911842D01*
X91225000Y-93198740D01*
X91225000Y-93491260D01*
X91282068Y-93778158D01*
X91394010Y-94048411D01*
X91556525Y-94291632D01*
X91763368Y-94498475D01*
X91937760Y-94615000D01*
X91763368Y-94731525D01*
X91556525Y-94938368D01*
X91394010Y-95181589D01*
X91282068Y-95451842D01*
X91225000Y-95738740D01*
X91225000Y-96031260D01*
X91282068Y-96318158D01*
X91394010Y-96588411D01*
X91556525Y-96831632D01*
X91688380Y-96963487D01*
X91615820Y-96985498D01*
X91505506Y-97044463D01*
X91408815Y-97123815D01*
X91329463Y-97220506D01*
X91270498Y-97330820D01*
X91234188Y-97450518D01*
X91221928Y-97575000D01*
X91221928Y-99275000D01*
X91234188Y-99399482D01*
X91270498Y-99519180D01*
X91329463Y-99629494D01*
X91408815Y-99726185D01*
X91505506Y-99805537D01*
X91615820Y-99864502D01*
X91735518Y-99900812D01*
X91860000Y-99913072D01*
X93086519Y-99913072D01*
X94181149Y-101007703D01*
X94048411Y-100919010D01*
X93778158Y-100807068D01*
X93491260Y-100750000D01*
X93198740Y-100750000D01*
X92911842Y-100807068D01*
X92641589Y-100919010D01*
X92398368Y-101081525D01*
X92191525Y-101288368D01*
X92069805Y-101470534D01*
X92000178Y-101353645D01*
X91805269Y-101137412D01*
X91571920Y-100963359D01*
X91309099Y-100838175D01*
X91161890Y-100793524D01*
X90932000Y-100914845D01*
X90932000Y-102108000D01*
X90952000Y-102108000D01*
X90952000Y-102362000D01*
X90932000Y-102362000D01*
X90932000Y-103555155D01*
X91161890Y-103676476D01*
X91309099Y-103631825D01*
X91571920Y-103506641D01*
X91805269Y-103332588D01*
X92000178Y-103116355D01*
X92069805Y-102999466D01*
X92191525Y-103181632D01*
X92398368Y-103388475D01*
X92641589Y-103550990D01*
X92911842Y-103662932D01*
X93054819Y-103691372D01*
X94181149Y-104817703D01*
X94048411Y-104729010D01*
X93778158Y-104617068D01*
X93491260Y-104560000D01*
X93198740Y-104560000D01*
X92911842Y-104617068D01*
X92641589Y-104729010D01*
X92398368Y-104891525D01*
X92191525Y-105098368D01*
X92069805Y-105280534D01*
X92000178Y-105163645D01*
X91805269Y-104947412D01*
X91571920Y-104773359D01*
X91309099Y-104648175D01*
X91161890Y-104603524D01*
X90932000Y-104724845D01*
X90932000Y-105918000D01*
X90952000Y-105918000D01*
X90952000Y-106172000D01*
X90932000Y-106172000D01*
X90932000Y-107365155D01*
X91161890Y-107486476D01*
X91309099Y-107441825D01*
X91571920Y-107316641D01*
X91805269Y-107142588D01*
X92000178Y-106926355D01*
X92069805Y-106809466D01*
X92191525Y-106991632D01*
X92398368Y-107198475D01*
X92641589Y-107360990D01*
X92911842Y-107472932D01*
X93054819Y-107501372D01*
X94173446Y-108620000D01*
X94169621Y-108620000D01*
X94048411Y-108539010D01*
X93778158Y-108427068D01*
X93491260Y-108370000D01*
X93198740Y-108370000D01*
X92911842Y-108427068D01*
X92641589Y-108539010D01*
X92398368Y-108701525D01*
X92191525Y-108908368D01*
X92069805Y-109090534D01*
X92000178Y-108973645D01*
X91805269Y-108757412D01*
X91571920Y-108583359D01*
X91309099Y-108458175D01*
X91161890Y-108413524D01*
X90932000Y-108534845D01*
X90932000Y-109728000D01*
X90952000Y-109728000D01*
X90952000Y-109982000D01*
X90932000Y-109982000D01*
X90932000Y-111175155D01*
X91161890Y-111296476D01*
X91309099Y-111251825D01*
X91571920Y-111126641D01*
X91805269Y-110952588D01*
X92000178Y-110736355D01*
X92069805Y-110619466D01*
X92191525Y-110801632D01*
X92398368Y-111008475D01*
X92641589Y-111170990D01*
X92911842Y-111282932D01*
X93198740Y-111340000D01*
X93491260Y-111340000D01*
X93778158Y-111282932D01*
X94048411Y-111170990D01*
X94129953Y-111116505D01*
X94333817Y-111320370D01*
X94372498Y-111367502D01*
X94560551Y-111521833D01*
X94775099Y-111636511D01*
X94977201Y-111697818D01*
X95007898Y-111707130D01*
X95250000Y-111730975D01*
X95310665Y-111725000D01*
X97055377Y-111725000D01*
X97107759Y-111760000D01*
X97055377Y-111795000D01*
X94040665Y-111795000D01*
X93980000Y-111789025D01*
X93919335Y-111795000D01*
X93737898Y-111812870D01*
X93505099Y-111883489D01*
X93290551Y-111998167D01*
X93102498Y-112152498D01*
X93082449Y-112176928D01*
X92495000Y-112176928D01*
X92370518Y-112189188D01*
X92250820Y-112225498D01*
X92140506Y-112284463D01*
X92043815Y-112363815D01*
X91964463Y-112460506D01*
X91905498Y-112570820D01*
X91869188Y-112690518D01*
X91856928Y-112815000D01*
X91856928Y-114515000D01*
X91869188Y-114639482D01*
X91905498Y-114759180D01*
X91964463Y-114869494D01*
X92043815Y-114966185D01*
X92140506Y-115045537D01*
X92250820Y-115104502D01*
X92370518Y-115140812D01*
X92495000Y-115153072D01*
X94195000Y-115153072D01*
X94319482Y-115140812D01*
X94439180Y-115104502D01*
X94549494Y-115045537D01*
X94646185Y-114966185D01*
X94725537Y-114869494D01*
X94784502Y-114759180D01*
X94820812Y-114639482D01*
X94833072Y-114515000D01*
X94833072Y-114265000D01*
X97055377Y-114265000D01*
X97107759Y-114300000D01*
X97055377Y-114335000D01*
X96580665Y-114335000D01*
X96520000Y-114329025D01*
X96459335Y-114335000D01*
X96277898Y-114352870D01*
X96045099Y-114423489D01*
X95830551Y-114538167D01*
X95642498Y-114692498D01*
X95603826Y-114739620D01*
X94103447Y-116240000D01*
X86962662Y-116240000D01*
X87161101Y-116133932D01*
X87379608Y-115954608D01*
X87424554Y-115899841D01*
X89229850Y-114094546D01*
X89284607Y-114049608D01*
X89463932Y-113831101D01*
X89597182Y-113581808D01*
X89605477Y-113554463D01*
X89679237Y-113311309D01*
X89706943Y-113030000D01*
X89700000Y-112959505D01*
X89700000Y-110957603D01*
X89704502Y-110949180D01*
X89728966Y-110868534D01*
X89804731Y-110952588D01*
X90038080Y-111126641D01*
X90300901Y-111251825D01*
X90448110Y-111296476D01*
X90678000Y-111175155D01*
X90678000Y-109982000D01*
X90658000Y-109982000D01*
X90658000Y-109728000D01*
X90678000Y-109728000D01*
X90678000Y-108534845D01*
X90448110Y-108413524D01*
X90300901Y-108458175D01*
X90038080Y-108583359D01*
X89804731Y-108757412D01*
X89728966Y-108841466D01*
X89704502Y-108760820D01*
X89700000Y-108752397D01*
X89700000Y-107147603D01*
X89704502Y-107139180D01*
X89728966Y-107058534D01*
X89804731Y-107142588D01*
X90038080Y-107316641D01*
X90300901Y-107441825D01*
X90448110Y-107486476D01*
X90678000Y-107365155D01*
X90678000Y-106172000D01*
X90658000Y-106172000D01*
X90658000Y-105918000D01*
X90678000Y-105918000D01*
X90678000Y-104724845D01*
X90448110Y-104603524D01*
X90300901Y-104648175D01*
X90038080Y-104773359D01*
X89804731Y-104947412D01*
X89728966Y-105031466D01*
X89704502Y-104950820D01*
X89700000Y-104942397D01*
X89700000Y-103337603D01*
X89704502Y-103329180D01*
X89728966Y-103248534D01*
X89804731Y-103332588D01*
X90038080Y-103506641D01*
X90300901Y-103631825D01*
X90448110Y-103676476D01*
X90678000Y-103555155D01*
X90678000Y-102362000D01*
X90658000Y-102362000D01*
X90658000Y-102108000D01*
X90678000Y-102108000D01*
X90678000Y-100914845D01*
X90448110Y-100793524D01*
X90300901Y-100838175D01*
X90038080Y-100963359D01*
X89804731Y-101137412D01*
X89728966Y-101221466D01*
X89704502Y-101140820D01*
X89700000Y-101132397D01*
X89700000Y-98918665D01*
X89686179Y-98849182D01*
X89679236Y-98778692D01*
X89658674Y-98710906D01*
X89644853Y-98641426D01*
X89617746Y-98575985D01*
X89597182Y-98508192D01*
X89563786Y-98445712D01*
X89536680Y-98380273D01*
X89497328Y-98321378D01*
X89463932Y-98258899D01*
X89418990Y-98204137D01*
X89379637Y-98145241D01*
X89329550Y-98095154D01*
X89284608Y-98040392D01*
X89229846Y-97995450D01*
X89179759Y-97945363D01*
X89120863Y-97906010D01*
X89066101Y-97861068D01*
X89003622Y-97827672D01*
X88944727Y-97788320D01*
X88879288Y-97761214D01*
X88816808Y-97727818D01*
X88749014Y-97707253D01*
X88683574Y-97680147D01*
X88614097Y-97666327D01*
X88546309Y-97645764D01*
X88475817Y-97638821D01*
X88406335Y-97625000D01*
X88335492Y-97625000D01*
X88265000Y-97618057D01*
X88194508Y-97625000D01*
X88123665Y-97625000D01*
X88054182Y-97638821D01*
X87983692Y-97645764D01*
X87915906Y-97666326D01*
X87846426Y-97680147D01*
X87780983Y-97707254D01*
X87713193Y-97727818D01*
X87650716Y-97761213D01*
X87585273Y-97788320D01*
X87526374Y-97827675D01*
X87463900Y-97861068D01*
X87409142Y-97906007D01*
X87350241Y-97945363D01*
X87300149Y-97995455D01*
X87245393Y-98040392D01*
X87200454Y-98095150D01*
X87150363Y-98145241D01*
X87111009Y-98204138D01*
X87066068Y-98258899D01*
X87032672Y-98321378D01*
X86993320Y-98380273D01*
X86966214Y-98445712D01*
X86932818Y-98508192D01*
X86912253Y-98575986D01*
X86885147Y-98641426D01*
X86871327Y-98710903D01*
X86850764Y-98778691D01*
X86843821Y-98849183D01*
X86830000Y-98918665D01*
X86830000Y-99765491D01*
X86830001Y-99765501D01*
X86830000Y-101132397D01*
X86825498Y-101140820D01*
X86789188Y-101260518D01*
X86776928Y-101385000D01*
X86776928Y-103085000D01*
X86789188Y-103209482D01*
X86825498Y-103329180D01*
X86830001Y-103337604D01*
X86830000Y-104942397D01*
X86825498Y-104950820D01*
X86789188Y-105070518D01*
X86776928Y-105195000D01*
X86776928Y-106895000D01*
X86789188Y-107019482D01*
X86825498Y-107139180D01*
X86830001Y-107147604D01*
X86830000Y-108752397D01*
X86825498Y-108760820D01*
X86789188Y-108880518D01*
X86776928Y-109005000D01*
X86776928Y-110705000D01*
X86789188Y-110829482D01*
X86825498Y-110949180D01*
X86830001Y-110957604D01*
X86830000Y-112435604D01*
X85765605Y-113500000D01*
X83017603Y-113500000D01*
X83009180Y-113495498D01*
X82889482Y-113459188D01*
X82765000Y-113446928D01*
X81065000Y-113446928D01*
X80940518Y-113459188D01*
X80820820Y-113495498D01*
X80812397Y-113500000D01*
X79535495Y-113500000D01*
X79465000Y-113493057D01*
X79183691Y-113520763D01*
X78942489Y-113593931D01*
X78913192Y-113602818D01*
X78663899Y-113736068D01*
X78445392Y-113915392D01*
X78400445Y-113970160D01*
X77775155Y-114595450D01*
X77720392Y-114640393D01*
X77541068Y-114858900D01*
X77422214Y-115081260D01*
X77407818Y-115108193D01*
X77325764Y-115378692D01*
X77298057Y-115660000D01*
X73787000Y-115660000D01*
X73787000Y-89373967D01*
X76470000Y-89373967D01*
X76470000Y-89696033D01*
X76532832Y-90011912D01*
X76656082Y-90309463D01*
X76835013Y-90577252D01*
X77062748Y-90804987D01*
X77330537Y-90983918D01*
X77628088Y-91107168D01*
X77943967Y-91170000D01*
X78266033Y-91170000D01*
X78581912Y-91107168D01*
X78879463Y-90983918D01*
X79147252Y-90804987D01*
X79182239Y-90770000D01*
X80559499Y-90770000D01*
X80613815Y-90836185D01*
X80710506Y-90915537D01*
X80820820Y-90974502D01*
X80940518Y-91010812D01*
X81065000Y-91023072D01*
X82765000Y-91023072D01*
X82889482Y-91010812D01*
X83009180Y-90974502D01*
X83119494Y-90915537D01*
X83216185Y-90836185D01*
X83295537Y-90739494D01*
X83354502Y-90629180D01*
X83390812Y-90509482D01*
X83403072Y-90385000D01*
X83403072Y-88685000D01*
X83390812Y-88560518D01*
X83354502Y-88440820D01*
X83295537Y-88330506D01*
X83216185Y-88233815D01*
X83119494Y-88154463D01*
X83009180Y-88095498D01*
X82928534Y-88071034D01*
X83012588Y-87995269D01*
X83186641Y-87761920D01*
X83311825Y-87499099D01*
X83356476Y-87351890D01*
X83235155Y-87122000D01*
X82042000Y-87122000D01*
X82042000Y-87142000D01*
X81788000Y-87142000D01*
X81788000Y-87122000D01*
X80594845Y-87122000D01*
X80473524Y-87351890D01*
X80518175Y-87499099D01*
X80643359Y-87761920D01*
X80817412Y-87995269D01*
X80901466Y-88071034D01*
X80820820Y-88095498D01*
X80710506Y-88154463D01*
X80613815Y-88233815D01*
X80559499Y-88300000D01*
X79182239Y-88300000D01*
X79147252Y-88265013D01*
X78879463Y-88086082D01*
X78581912Y-87962832D01*
X78266033Y-87900000D01*
X77943967Y-87900000D01*
X77628088Y-87962832D01*
X77330537Y-88086082D01*
X77062748Y-88265013D01*
X76835013Y-88492748D01*
X76656082Y-88760537D01*
X76532832Y-89058088D01*
X76470000Y-89373967D01*
X73787000Y-89373967D01*
X73787000Y-84811890D01*
X80473524Y-84811890D01*
X80518175Y-84959099D01*
X80643359Y-85221920D01*
X80817412Y-85455269D01*
X81033645Y-85650178D01*
X81159255Y-85725000D01*
X81033645Y-85799822D01*
X80817412Y-85994731D01*
X80643359Y-86228080D01*
X80518175Y-86490901D01*
X80473524Y-86638110D01*
X80594845Y-86868000D01*
X81788000Y-86868000D01*
X81788000Y-84582000D01*
X82042000Y-84582000D01*
X82042000Y-86868000D01*
X83235155Y-86868000D01*
X83356476Y-86638110D01*
X83311825Y-86490901D01*
X83186641Y-86228080D01*
X83012588Y-85994731D01*
X82796355Y-85799822D01*
X82670745Y-85725000D01*
X82796355Y-85650178D01*
X83012588Y-85455269D01*
X83186641Y-85221920D01*
X83311825Y-84959099D01*
X83356476Y-84811890D01*
X83235155Y-84582000D01*
X82042000Y-84582000D01*
X81788000Y-84582000D01*
X80594845Y-84582000D01*
X80473524Y-84811890D01*
X73787000Y-84811890D01*
X73787000Y-72517000D01*
X138303000Y-72517000D01*
X138303000Y-128778000D01*
G37*
%TD.AperFunction*%
%TD*%
M02*
