%TF.GenerationSoftware,KiCad,Pcbnew,(5.1.12)-1*%
%TF.CreationDate,2022-03-25T13:53:05+05:30*%
%TF.ProjectId,smart_menu,736d6172-745f-46d6-956e-752e6b696361,rev?*%
%TF.SameCoordinates,Original*%
%TF.FileFunction,Soldermask,Bot*%
%TF.FilePolarity,Negative*%
%FSLAX46Y46*%
G04 Gerber Fmt 4.6, Leading zero omitted, Abs format (unit mm)*
G04 Created by KiCad (PCBNEW (5.1.12)-1) date 2022-03-25 13:53:05*
%MOMM*%
%LPD*%
G01*
G04 APERTURE LIST*
%ADD10C,2.600000*%
%ADD11R,2.600000X2.600000*%
%ADD12O,2.000000X1.905000*%
%ADD13R,2.000000X1.905000*%
%ADD14O,1.600000X1.600000*%
%ADD15C,1.600000*%
%ADD16R,1.700000X1.700000*%
%ADD17O,1.700000X1.700000*%
%ADD18R,3.500000X3.500000*%
%ADD19C,1.800000*%
%ADD20R,1.800000X1.800000*%
%ADD21R,1.600000X1.600000*%
G04 APERTURE END LIST*
D10*
%TO.C,J4*%
X87710000Y-82550000D03*
D11*
X92710000Y-82550000D03*
%TD*%
D12*
%TO.C,U1*%
X130810000Y-95250000D03*
X130810000Y-97790000D03*
D13*
X130810000Y-100330000D03*
%TD*%
D14*
%TO.C,R1*%
X123825000Y-80010000D03*
D15*
X123825000Y-87630000D03*
%TD*%
D16*
%TO.C,J18*%
X117475000Y-118745000D03*
%TD*%
%TO.C,J17*%
X117475000Y-122555000D03*
%TD*%
%TO.C,J16*%
X93345000Y-120650000D03*
%TD*%
%TO.C,J15*%
X93345000Y-113665000D03*
%TD*%
D17*
%TO.C,J14*%
X92710000Y-90805000D03*
X92710000Y-93345000D03*
X92710000Y-95885000D03*
D16*
X92710000Y-98425000D03*
%TD*%
D17*
%TO.C,J13*%
X127635000Y-88265000D03*
X127635000Y-85725000D03*
X127635000Y-83185000D03*
D16*
X127635000Y-80645000D03*
%TD*%
D17*
%TO.C,J12*%
X117475000Y-97155000D03*
X117475000Y-94615000D03*
X117475000Y-92075000D03*
D16*
X117475000Y-89535000D03*
%TD*%
D17*
%TO.C,J9*%
X81915000Y-81915000D03*
X81915000Y-84455000D03*
X81915000Y-86995000D03*
D16*
X81915000Y-89535000D03*
%TD*%
D17*
%TO.C,J8*%
X81915000Y-122555000D03*
X81915000Y-120015000D03*
X81915000Y-117475000D03*
D16*
X81915000Y-114935000D03*
%TD*%
D17*
%TO.C,J7*%
X118110000Y-114935000D03*
X118110000Y-112395000D03*
D16*
X118110000Y-109855000D03*
%TD*%
D17*
%TO.C,J6*%
X93345000Y-109855000D03*
X90805000Y-109855000D03*
D16*
X88265000Y-109855000D03*
%TD*%
D17*
%TO.C,J5*%
X117475000Y-106045000D03*
X117475000Y-103505000D03*
D16*
X117475000Y-100965000D03*
%TD*%
D17*
%TO.C,J3*%
X93345000Y-106045000D03*
X90805000Y-106045000D03*
D16*
X88265000Y-106045000D03*
%TD*%
D17*
%TO.C,J2*%
X93345000Y-102235000D03*
X90805000Y-102235000D03*
D16*
X88265000Y-102235000D03*
%TD*%
%TO.C,J1*%
G36*
G01*
X131940000Y-111430000D02*
X130190000Y-111430000D01*
G75*
G02*
X129315000Y-110555000I0J875000D01*
G01*
X129315000Y-108805000D01*
G75*
G02*
X130190000Y-107930000I875000J0D01*
G01*
X131940000Y-107930000D01*
G75*
G02*
X132815000Y-108805000I0J-875000D01*
G01*
X132815000Y-110555000D01*
G75*
G02*
X131940000Y-111430000I-875000J0D01*
G01*
G37*
G36*
G01*
X127365000Y-114180000D02*
X125365000Y-114180000D01*
G75*
G02*
X124615000Y-113430000I0J750000D01*
G01*
X124615000Y-111930000D01*
G75*
G02*
X125365000Y-111180000I750000J0D01*
G01*
X127365000Y-111180000D01*
G75*
G02*
X128115000Y-111930000I0J-750000D01*
G01*
X128115000Y-113430000D01*
G75*
G02*
X127365000Y-114180000I-750000J0D01*
G01*
G37*
D18*
X126365000Y-106680000D03*
%TD*%
D19*
%TO.C,D1*%
X118110000Y-80645000D03*
D20*
X118110000Y-83185000D03*
%TD*%
D15*
%TO.C,C2*%
X122595000Y-94615000D03*
D21*
X125095000Y-94615000D03*
%TD*%
D15*
%TO.C,C1*%
X122595000Y-100965000D03*
D21*
X125095000Y-100965000D03*
%TD*%
D14*
%TO.C,A1*%
X113030000Y-118110000D03*
X97790000Y-118110000D03*
X113030000Y-82550000D03*
X97790000Y-115570000D03*
X113030000Y-85090000D03*
X97790000Y-113030000D03*
X113030000Y-87630000D03*
X97790000Y-110490000D03*
X113030000Y-90170000D03*
X97790000Y-107950000D03*
X113030000Y-92710000D03*
X97790000Y-105410000D03*
X113030000Y-95250000D03*
X97790000Y-102870000D03*
X113030000Y-97790000D03*
X97790000Y-100330000D03*
X113030000Y-100330000D03*
X97790000Y-97790000D03*
X113030000Y-102870000D03*
X97790000Y-95250000D03*
X113030000Y-105410000D03*
X97790000Y-92710000D03*
X113030000Y-107950000D03*
X97790000Y-90170000D03*
X113030000Y-110490000D03*
X97790000Y-87630000D03*
X113030000Y-113030000D03*
X97790000Y-85090000D03*
X113030000Y-115570000D03*
D21*
X97790000Y-82550000D03*
%TD*%
D14*
%TO.C,10K1*%
X88265000Y-91440000D03*
D15*
X88265000Y-99060000D03*
%TD*%
M02*
