%TF.GenerationSoftware,KiCad,Pcbnew,(5.1.12)-1*%
%TF.CreationDate,2022-03-25T13:53:05+05:30*%
%TF.ProjectId,smart_menu,736d6172-745f-46d6-956e-752e6b696361,rev?*%
%TF.SameCoordinates,Original*%
%TF.FileFunction,Legend,Top*%
%TF.FilePolarity,Positive*%
%FSLAX46Y46*%
G04 Gerber Fmt 4.6, Leading zero omitted, Abs format (unit mm)*
G04 Created by KiCad (PCBNEW (5.1.12)-1) date 2022-03-25 13:53:05*
%MOMM*%
%LPD*%
G01*
G04 APERTURE LIST*
%ADD10C,0.120000*%
%ADD11C,0.150000*%
G04 APERTURE END LIST*
D10*
%TO.C,J4*%
X89390000Y-82550000D02*
G75*
G03*
X89390000Y-82550000I-1680000J0D01*
G01*
X95270000Y-78450000D02*
X85150000Y-78450000D01*
X95270000Y-79950000D02*
X85150000Y-79950000D01*
X95270000Y-84851000D02*
X85150000Y-84851000D01*
X95270000Y-87811000D02*
X85150000Y-87811000D01*
X95270000Y-77890000D02*
X85150000Y-77890000D01*
X95270000Y-87811000D02*
X95270000Y-77890000D01*
X85150000Y-87811000D02*
X85150000Y-77890000D01*
X86435000Y-83619000D02*
X86482000Y-83573000D01*
X88744000Y-81311000D02*
X88779000Y-81276000D01*
X86640000Y-83825000D02*
X86675000Y-83789000D01*
X88937000Y-81527000D02*
X88984000Y-81481000D01*
X95510000Y-78390000D02*
X95510000Y-77650000D01*
X95510000Y-77650000D02*
X95010000Y-77650000D01*
X92681195Y-80869747D02*
G75*
G02*
X93394000Y-81015000I28805J-1680253D01*
G01*
X94245426Y-81866958D02*
G75*
G02*
X94245000Y-83234000I-1535426J-683042D01*
G01*
X93393042Y-84085426D02*
G75*
G02*
X92026000Y-84085000I-683042J1535426D01*
G01*
X91174574Y-83233042D02*
G75*
G02*
X91175000Y-81866000I1535426J683042D01*
G01*
X92026682Y-81015244D02*
G75*
G02*
X92710000Y-80870000I683318J-1534756D01*
G01*
%TO.C,U1*%
X127540000Y-102910000D02*
X127540000Y-92670000D01*
X132181000Y-102910000D02*
X132181000Y-92670000D01*
X127540000Y-102910000D02*
X132181000Y-102910000D01*
X127540000Y-92670000D02*
X132181000Y-92670000D01*
X129050000Y-102910000D02*
X129050000Y-92670000D01*
X127540000Y-99640000D02*
X129050000Y-99640000D01*
X127540000Y-95939000D02*
X129050000Y-95939000D01*
%TO.C,R1*%
X122785000Y-87090000D02*
X122455000Y-87090000D01*
X122455000Y-87090000D02*
X122455000Y-80550000D01*
X122455000Y-80550000D02*
X122785000Y-80550000D01*
X124865000Y-87090000D02*
X125195000Y-87090000D01*
X125195000Y-87090000D02*
X125195000Y-80550000D01*
X125195000Y-80550000D02*
X124865000Y-80550000D01*
%TO.C,J18*%
X116145000Y-120075000D02*
X118805000Y-120075000D01*
X116145000Y-120015000D02*
X116145000Y-120075000D01*
X118805000Y-120015000D02*
X118805000Y-120075000D01*
X116145000Y-120015000D02*
X118805000Y-120015000D01*
X116145000Y-118745000D02*
X116145000Y-117415000D01*
X116145000Y-117415000D02*
X117475000Y-117415000D01*
%TO.C,J17*%
X116145000Y-123885000D02*
X118805000Y-123885000D01*
X116145000Y-123825000D02*
X116145000Y-123885000D01*
X118805000Y-123825000D02*
X118805000Y-123885000D01*
X116145000Y-123825000D02*
X118805000Y-123825000D01*
X116145000Y-122555000D02*
X116145000Y-121225000D01*
X116145000Y-121225000D02*
X117475000Y-121225000D01*
%TO.C,J16*%
X92015000Y-121980000D02*
X94675000Y-121980000D01*
X92015000Y-121920000D02*
X92015000Y-121980000D01*
X94675000Y-121920000D02*
X94675000Y-121980000D01*
X92015000Y-121920000D02*
X94675000Y-121920000D01*
X92015000Y-120650000D02*
X92015000Y-119320000D01*
X92015000Y-119320000D02*
X93345000Y-119320000D01*
%TO.C,J15*%
X92015000Y-114995000D02*
X94675000Y-114995000D01*
X92015000Y-114935000D02*
X92015000Y-114995000D01*
X94675000Y-114935000D02*
X94675000Y-114995000D01*
X92015000Y-114935000D02*
X94675000Y-114935000D01*
X92015000Y-113665000D02*
X92015000Y-112335000D01*
X92015000Y-112335000D02*
X93345000Y-112335000D01*
%TO.C,J14*%
X94040000Y-89475000D02*
X91380000Y-89475000D01*
X94040000Y-97155000D02*
X94040000Y-89475000D01*
X91380000Y-97155000D02*
X91380000Y-89475000D01*
X94040000Y-97155000D02*
X91380000Y-97155000D01*
X94040000Y-98425000D02*
X94040000Y-99755000D01*
X94040000Y-99755000D02*
X92710000Y-99755000D01*
%TO.C,J13*%
X126305000Y-89595000D02*
X128965000Y-89595000D01*
X126305000Y-81915000D02*
X126305000Y-89595000D01*
X128965000Y-81915000D02*
X128965000Y-89595000D01*
X126305000Y-81915000D02*
X128965000Y-81915000D01*
X126305000Y-80645000D02*
X126305000Y-79315000D01*
X126305000Y-79315000D02*
X127635000Y-79315000D01*
%TO.C,J12*%
X116145000Y-98485000D02*
X118805000Y-98485000D01*
X116145000Y-90805000D02*
X116145000Y-98485000D01*
X118805000Y-90805000D02*
X118805000Y-98485000D01*
X116145000Y-90805000D02*
X118805000Y-90805000D01*
X116145000Y-89535000D02*
X116145000Y-88205000D01*
X116145000Y-88205000D02*
X117475000Y-88205000D01*
%TO.C,J9*%
X83245000Y-80585000D02*
X80585000Y-80585000D01*
X83245000Y-88265000D02*
X83245000Y-80585000D01*
X80585000Y-88265000D02*
X80585000Y-80585000D01*
X83245000Y-88265000D02*
X80585000Y-88265000D01*
X83245000Y-89535000D02*
X83245000Y-90865000D01*
X83245000Y-90865000D02*
X81915000Y-90865000D01*
%TO.C,J8*%
X80585000Y-123885000D02*
X83245000Y-123885000D01*
X80585000Y-116205000D02*
X80585000Y-123885000D01*
X83245000Y-116205000D02*
X83245000Y-123885000D01*
X80585000Y-116205000D02*
X83245000Y-116205000D01*
X80585000Y-114935000D02*
X80585000Y-113605000D01*
X80585000Y-113605000D02*
X81915000Y-113605000D01*
%TO.C,J7*%
X116780000Y-116265000D02*
X119440000Y-116265000D01*
X116780000Y-111125000D02*
X116780000Y-116265000D01*
X119440000Y-111125000D02*
X119440000Y-116265000D01*
X116780000Y-111125000D02*
X119440000Y-111125000D01*
X116780000Y-109855000D02*
X116780000Y-108525000D01*
X116780000Y-108525000D02*
X118110000Y-108525000D01*
%TO.C,J6*%
X94675000Y-111185000D02*
X94675000Y-108525000D01*
X89535000Y-111185000D02*
X94675000Y-111185000D01*
X89535000Y-108525000D02*
X94675000Y-108525000D01*
X89535000Y-111185000D02*
X89535000Y-108525000D01*
X88265000Y-111185000D02*
X86935000Y-111185000D01*
X86935000Y-111185000D02*
X86935000Y-109855000D01*
%TO.C,J5*%
X116145000Y-107375000D02*
X118805000Y-107375000D01*
X116145000Y-102235000D02*
X116145000Y-107375000D01*
X118805000Y-102235000D02*
X118805000Y-107375000D01*
X116145000Y-102235000D02*
X118805000Y-102235000D01*
X116145000Y-100965000D02*
X116145000Y-99635000D01*
X116145000Y-99635000D02*
X117475000Y-99635000D01*
%TO.C,J3*%
X94675000Y-107375000D02*
X94675000Y-104715000D01*
X89535000Y-107375000D02*
X94675000Y-107375000D01*
X89535000Y-104715000D02*
X94675000Y-104715000D01*
X89535000Y-107375000D02*
X89535000Y-104715000D01*
X88265000Y-107375000D02*
X86935000Y-107375000D01*
X86935000Y-107375000D02*
X86935000Y-106045000D01*
%TO.C,J2*%
X94675000Y-103565000D02*
X94675000Y-100905000D01*
X89535000Y-103565000D02*
X94675000Y-103565000D01*
X89535000Y-100905000D02*
X94675000Y-100905000D01*
X89535000Y-103565000D02*
X89535000Y-100905000D01*
X88265000Y-103565000D02*
X86935000Y-103565000D01*
X86935000Y-103565000D02*
X86935000Y-102235000D01*
%TO.C,J1*%
X122615000Y-105580000D02*
X121565000Y-105580000D01*
X121565000Y-106630000D02*
X121565000Y-105580000D01*
X130965000Y-111680000D02*
X130965000Y-120480000D01*
X130965000Y-120480000D02*
X121765000Y-120480000D01*
X128265000Y-105780000D02*
X130965000Y-105780000D01*
X130965000Y-105780000D02*
X130965000Y-107680000D01*
X121765000Y-120480000D02*
X121765000Y-105780000D01*
X121765000Y-105780000D02*
X124365000Y-105780000D01*
%TO.C,D1*%
X120610000Y-81915000D02*
G75*
G03*
X120610000Y-81915000I-2500000J0D01*
G01*
X116565000Y-84475000D02*
X119655000Y-84475000D01*
X118109538Y-78925000D02*
G75*
G02*
X119654830Y-84475000I462J-2990000D01*
G01*
X118110462Y-78925000D02*
G75*
G03*
X116565170Y-84475000I-462J-2990000D01*
G01*
%TO.C,C2*%
X126465000Y-94615000D02*
G75*
G03*
X126465000Y-94615000I-2620000J0D01*
G01*
X123845000Y-97195000D02*
X123845000Y-92035000D01*
X123805000Y-97195000D02*
X123805000Y-92035000D01*
X123765000Y-97194000D02*
X123765000Y-92036000D01*
X123725000Y-97193000D02*
X123725000Y-92037000D01*
X123685000Y-97191000D02*
X123685000Y-92039000D01*
X123645000Y-97188000D02*
X123645000Y-92042000D01*
X123605000Y-97184000D02*
X123605000Y-95655000D01*
X123605000Y-93575000D02*
X123605000Y-92046000D01*
X123565000Y-97180000D02*
X123565000Y-95655000D01*
X123565000Y-93575000D02*
X123565000Y-92050000D01*
X123525000Y-97176000D02*
X123525000Y-95655000D01*
X123525000Y-93575000D02*
X123525000Y-92054000D01*
X123485000Y-97171000D02*
X123485000Y-95655000D01*
X123485000Y-93575000D02*
X123485000Y-92059000D01*
X123445000Y-97165000D02*
X123445000Y-95655000D01*
X123445000Y-93575000D02*
X123445000Y-92065000D01*
X123405000Y-97158000D02*
X123405000Y-95655000D01*
X123405000Y-93575000D02*
X123405000Y-92072000D01*
X123365000Y-97151000D02*
X123365000Y-95655000D01*
X123365000Y-93575000D02*
X123365000Y-92079000D01*
X123325000Y-97143000D02*
X123325000Y-95655000D01*
X123325000Y-93575000D02*
X123325000Y-92087000D01*
X123285000Y-97135000D02*
X123285000Y-95655000D01*
X123285000Y-93575000D02*
X123285000Y-92095000D01*
X123245000Y-97126000D02*
X123245000Y-95655000D01*
X123245000Y-93575000D02*
X123245000Y-92104000D01*
X123205000Y-97116000D02*
X123205000Y-95655000D01*
X123205000Y-93575000D02*
X123205000Y-92114000D01*
X123165000Y-97106000D02*
X123165000Y-95655000D01*
X123165000Y-93575000D02*
X123165000Y-92124000D01*
X123124000Y-97095000D02*
X123124000Y-95655000D01*
X123124000Y-93575000D02*
X123124000Y-92135000D01*
X123084000Y-97083000D02*
X123084000Y-95655000D01*
X123084000Y-93575000D02*
X123084000Y-92147000D01*
X123044000Y-97070000D02*
X123044000Y-95655000D01*
X123044000Y-93575000D02*
X123044000Y-92160000D01*
X123004000Y-97057000D02*
X123004000Y-95655000D01*
X123004000Y-93575000D02*
X123004000Y-92173000D01*
X122964000Y-97043000D02*
X122964000Y-95655000D01*
X122964000Y-93575000D02*
X122964000Y-92187000D01*
X122924000Y-97029000D02*
X122924000Y-95655000D01*
X122924000Y-93575000D02*
X122924000Y-92201000D01*
X122884000Y-97013000D02*
X122884000Y-95655000D01*
X122884000Y-93575000D02*
X122884000Y-92217000D01*
X122844000Y-96997000D02*
X122844000Y-95655000D01*
X122844000Y-93575000D02*
X122844000Y-92233000D01*
X122804000Y-96980000D02*
X122804000Y-95655000D01*
X122804000Y-93575000D02*
X122804000Y-92250000D01*
X122764000Y-96963000D02*
X122764000Y-95655000D01*
X122764000Y-93575000D02*
X122764000Y-92267000D01*
X122724000Y-96944000D02*
X122724000Y-95655000D01*
X122724000Y-93575000D02*
X122724000Y-92286000D01*
X122684000Y-96925000D02*
X122684000Y-95655000D01*
X122684000Y-93575000D02*
X122684000Y-92305000D01*
X122644000Y-96905000D02*
X122644000Y-95655000D01*
X122644000Y-93575000D02*
X122644000Y-92325000D01*
X122604000Y-96883000D02*
X122604000Y-95655000D01*
X122604000Y-93575000D02*
X122604000Y-92347000D01*
X122564000Y-96862000D02*
X122564000Y-95655000D01*
X122564000Y-93575000D02*
X122564000Y-92368000D01*
X122524000Y-96839000D02*
X122524000Y-95655000D01*
X122524000Y-93575000D02*
X122524000Y-92391000D01*
X122484000Y-96815000D02*
X122484000Y-95655000D01*
X122484000Y-93575000D02*
X122484000Y-92415000D01*
X122444000Y-96790000D02*
X122444000Y-95655000D01*
X122444000Y-93575000D02*
X122444000Y-92440000D01*
X122404000Y-96764000D02*
X122404000Y-95655000D01*
X122404000Y-93575000D02*
X122404000Y-92466000D01*
X122364000Y-96737000D02*
X122364000Y-95655000D01*
X122364000Y-93575000D02*
X122364000Y-92493000D01*
X122324000Y-96710000D02*
X122324000Y-95655000D01*
X122324000Y-93575000D02*
X122324000Y-92520000D01*
X122284000Y-96680000D02*
X122284000Y-95655000D01*
X122284000Y-93575000D02*
X122284000Y-92550000D01*
X122244000Y-96650000D02*
X122244000Y-95655000D01*
X122244000Y-93575000D02*
X122244000Y-92580000D01*
X122204000Y-96619000D02*
X122204000Y-95655000D01*
X122204000Y-93575000D02*
X122204000Y-92611000D01*
X122164000Y-96586000D02*
X122164000Y-95655000D01*
X122164000Y-93575000D02*
X122164000Y-92644000D01*
X122124000Y-96552000D02*
X122124000Y-95655000D01*
X122124000Y-93575000D02*
X122124000Y-92678000D01*
X122084000Y-96516000D02*
X122084000Y-95655000D01*
X122084000Y-93575000D02*
X122084000Y-92714000D01*
X122044000Y-96479000D02*
X122044000Y-95655000D01*
X122044000Y-93575000D02*
X122044000Y-92751000D01*
X122004000Y-96441000D02*
X122004000Y-95655000D01*
X122004000Y-93575000D02*
X122004000Y-92789000D01*
X121964000Y-96400000D02*
X121964000Y-95655000D01*
X121964000Y-93575000D02*
X121964000Y-92830000D01*
X121924000Y-96358000D02*
X121924000Y-95655000D01*
X121924000Y-93575000D02*
X121924000Y-92872000D01*
X121884000Y-96314000D02*
X121884000Y-95655000D01*
X121884000Y-93575000D02*
X121884000Y-92916000D01*
X121844000Y-96268000D02*
X121844000Y-95655000D01*
X121844000Y-93575000D02*
X121844000Y-92962000D01*
X121804000Y-96220000D02*
X121804000Y-95655000D01*
X121804000Y-93575000D02*
X121804000Y-93010000D01*
X121764000Y-96169000D02*
X121764000Y-95655000D01*
X121764000Y-93575000D02*
X121764000Y-93061000D01*
X121724000Y-96115000D02*
X121724000Y-95655000D01*
X121724000Y-93575000D02*
X121724000Y-93115000D01*
X121684000Y-96058000D02*
X121684000Y-95655000D01*
X121684000Y-93575000D02*
X121684000Y-93172000D01*
X121644000Y-95998000D02*
X121644000Y-95655000D01*
X121644000Y-93575000D02*
X121644000Y-93232000D01*
X121604000Y-95934000D02*
X121604000Y-95655000D01*
X121604000Y-93575000D02*
X121604000Y-93296000D01*
X121564000Y-95866000D02*
X121564000Y-95655000D01*
X121564000Y-93575000D02*
X121564000Y-93364000D01*
X121524000Y-95793000D02*
X121524000Y-93437000D01*
X121484000Y-95713000D02*
X121484000Y-93517000D01*
X121444000Y-95626000D02*
X121444000Y-93604000D01*
X121404000Y-95530000D02*
X121404000Y-93700000D01*
X121364000Y-95420000D02*
X121364000Y-93810000D01*
X121324000Y-95292000D02*
X121324000Y-93938000D01*
X121284000Y-95133000D02*
X121284000Y-94097000D01*
X121244000Y-94899000D02*
X121244000Y-94331000D01*
X126649775Y-96090000D02*
X126149775Y-96090000D01*
X126399775Y-96340000D02*
X126399775Y-95840000D01*
%TO.C,C1*%
X126465000Y-100965000D02*
G75*
G03*
X126465000Y-100965000I-2620000J0D01*
G01*
X123845000Y-103545000D02*
X123845000Y-98385000D01*
X123805000Y-103545000D02*
X123805000Y-98385000D01*
X123765000Y-103544000D02*
X123765000Y-98386000D01*
X123725000Y-103543000D02*
X123725000Y-98387000D01*
X123685000Y-103541000D02*
X123685000Y-98389000D01*
X123645000Y-103538000D02*
X123645000Y-98392000D01*
X123605000Y-103534000D02*
X123605000Y-102005000D01*
X123605000Y-99925000D02*
X123605000Y-98396000D01*
X123565000Y-103530000D02*
X123565000Y-102005000D01*
X123565000Y-99925000D02*
X123565000Y-98400000D01*
X123525000Y-103526000D02*
X123525000Y-102005000D01*
X123525000Y-99925000D02*
X123525000Y-98404000D01*
X123485000Y-103521000D02*
X123485000Y-102005000D01*
X123485000Y-99925000D02*
X123485000Y-98409000D01*
X123445000Y-103515000D02*
X123445000Y-102005000D01*
X123445000Y-99925000D02*
X123445000Y-98415000D01*
X123405000Y-103508000D02*
X123405000Y-102005000D01*
X123405000Y-99925000D02*
X123405000Y-98422000D01*
X123365000Y-103501000D02*
X123365000Y-102005000D01*
X123365000Y-99925000D02*
X123365000Y-98429000D01*
X123325000Y-103493000D02*
X123325000Y-102005000D01*
X123325000Y-99925000D02*
X123325000Y-98437000D01*
X123285000Y-103485000D02*
X123285000Y-102005000D01*
X123285000Y-99925000D02*
X123285000Y-98445000D01*
X123245000Y-103476000D02*
X123245000Y-102005000D01*
X123245000Y-99925000D02*
X123245000Y-98454000D01*
X123205000Y-103466000D02*
X123205000Y-102005000D01*
X123205000Y-99925000D02*
X123205000Y-98464000D01*
X123165000Y-103456000D02*
X123165000Y-102005000D01*
X123165000Y-99925000D02*
X123165000Y-98474000D01*
X123124000Y-103445000D02*
X123124000Y-102005000D01*
X123124000Y-99925000D02*
X123124000Y-98485000D01*
X123084000Y-103433000D02*
X123084000Y-102005000D01*
X123084000Y-99925000D02*
X123084000Y-98497000D01*
X123044000Y-103420000D02*
X123044000Y-102005000D01*
X123044000Y-99925000D02*
X123044000Y-98510000D01*
X123004000Y-103407000D02*
X123004000Y-102005000D01*
X123004000Y-99925000D02*
X123004000Y-98523000D01*
X122964000Y-103393000D02*
X122964000Y-102005000D01*
X122964000Y-99925000D02*
X122964000Y-98537000D01*
X122924000Y-103379000D02*
X122924000Y-102005000D01*
X122924000Y-99925000D02*
X122924000Y-98551000D01*
X122884000Y-103363000D02*
X122884000Y-102005000D01*
X122884000Y-99925000D02*
X122884000Y-98567000D01*
X122844000Y-103347000D02*
X122844000Y-102005000D01*
X122844000Y-99925000D02*
X122844000Y-98583000D01*
X122804000Y-103330000D02*
X122804000Y-102005000D01*
X122804000Y-99925000D02*
X122804000Y-98600000D01*
X122764000Y-103313000D02*
X122764000Y-102005000D01*
X122764000Y-99925000D02*
X122764000Y-98617000D01*
X122724000Y-103294000D02*
X122724000Y-102005000D01*
X122724000Y-99925000D02*
X122724000Y-98636000D01*
X122684000Y-103275000D02*
X122684000Y-102005000D01*
X122684000Y-99925000D02*
X122684000Y-98655000D01*
X122644000Y-103255000D02*
X122644000Y-102005000D01*
X122644000Y-99925000D02*
X122644000Y-98675000D01*
X122604000Y-103233000D02*
X122604000Y-102005000D01*
X122604000Y-99925000D02*
X122604000Y-98697000D01*
X122564000Y-103212000D02*
X122564000Y-102005000D01*
X122564000Y-99925000D02*
X122564000Y-98718000D01*
X122524000Y-103189000D02*
X122524000Y-102005000D01*
X122524000Y-99925000D02*
X122524000Y-98741000D01*
X122484000Y-103165000D02*
X122484000Y-102005000D01*
X122484000Y-99925000D02*
X122484000Y-98765000D01*
X122444000Y-103140000D02*
X122444000Y-102005000D01*
X122444000Y-99925000D02*
X122444000Y-98790000D01*
X122404000Y-103114000D02*
X122404000Y-102005000D01*
X122404000Y-99925000D02*
X122404000Y-98816000D01*
X122364000Y-103087000D02*
X122364000Y-102005000D01*
X122364000Y-99925000D02*
X122364000Y-98843000D01*
X122324000Y-103060000D02*
X122324000Y-102005000D01*
X122324000Y-99925000D02*
X122324000Y-98870000D01*
X122284000Y-103030000D02*
X122284000Y-102005000D01*
X122284000Y-99925000D02*
X122284000Y-98900000D01*
X122244000Y-103000000D02*
X122244000Y-102005000D01*
X122244000Y-99925000D02*
X122244000Y-98930000D01*
X122204000Y-102969000D02*
X122204000Y-102005000D01*
X122204000Y-99925000D02*
X122204000Y-98961000D01*
X122164000Y-102936000D02*
X122164000Y-102005000D01*
X122164000Y-99925000D02*
X122164000Y-98994000D01*
X122124000Y-102902000D02*
X122124000Y-102005000D01*
X122124000Y-99925000D02*
X122124000Y-99028000D01*
X122084000Y-102866000D02*
X122084000Y-102005000D01*
X122084000Y-99925000D02*
X122084000Y-99064000D01*
X122044000Y-102829000D02*
X122044000Y-102005000D01*
X122044000Y-99925000D02*
X122044000Y-99101000D01*
X122004000Y-102791000D02*
X122004000Y-102005000D01*
X122004000Y-99925000D02*
X122004000Y-99139000D01*
X121964000Y-102750000D02*
X121964000Y-102005000D01*
X121964000Y-99925000D02*
X121964000Y-99180000D01*
X121924000Y-102708000D02*
X121924000Y-102005000D01*
X121924000Y-99925000D02*
X121924000Y-99222000D01*
X121884000Y-102664000D02*
X121884000Y-102005000D01*
X121884000Y-99925000D02*
X121884000Y-99266000D01*
X121844000Y-102618000D02*
X121844000Y-102005000D01*
X121844000Y-99925000D02*
X121844000Y-99312000D01*
X121804000Y-102570000D02*
X121804000Y-102005000D01*
X121804000Y-99925000D02*
X121804000Y-99360000D01*
X121764000Y-102519000D02*
X121764000Y-102005000D01*
X121764000Y-99925000D02*
X121764000Y-99411000D01*
X121724000Y-102465000D02*
X121724000Y-102005000D01*
X121724000Y-99925000D02*
X121724000Y-99465000D01*
X121684000Y-102408000D02*
X121684000Y-102005000D01*
X121684000Y-99925000D02*
X121684000Y-99522000D01*
X121644000Y-102348000D02*
X121644000Y-102005000D01*
X121644000Y-99925000D02*
X121644000Y-99582000D01*
X121604000Y-102284000D02*
X121604000Y-102005000D01*
X121604000Y-99925000D02*
X121604000Y-99646000D01*
X121564000Y-102216000D02*
X121564000Y-102005000D01*
X121564000Y-99925000D02*
X121564000Y-99714000D01*
X121524000Y-102143000D02*
X121524000Y-99787000D01*
X121484000Y-102063000D02*
X121484000Y-99867000D01*
X121444000Y-101976000D02*
X121444000Y-99954000D01*
X121404000Y-101880000D02*
X121404000Y-100050000D01*
X121364000Y-101770000D02*
X121364000Y-100160000D01*
X121324000Y-101642000D02*
X121324000Y-100288000D01*
X121284000Y-101483000D02*
X121284000Y-100447000D01*
X121244000Y-101249000D02*
X121244000Y-100681000D01*
X126649775Y-102440000D02*
X126149775Y-102440000D01*
X126399775Y-102690000D02*
X126399775Y-102190000D01*
%TO.C,A1*%
X99060000Y-83820000D02*
X99060000Y-81280000D01*
X99060000Y-81280000D02*
X96390000Y-81280000D01*
X96390000Y-83820000D02*
X96390000Y-122050000D01*
X96390000Y-78610000D02*
X96390000Y-81280000D01*
X111760000Y-81280000D02*
X114430000Y-81280000D01*
X111760000Y-81280000D02*
X111760000Y-119380000D01*
X111760000Y-119380000D02*
X114430000Y-119380000D01*
X99060000Y-83820000D02*
X96390000Y-83820000D01*
X99060000Y-83820000D02*
X99060000Y-119380000D01*
X99060000Y-119380000D02*
X96390000Y-119380000D01*
X96390000Y-122050000D02*
X114430000Y-122050000D01*
X114430000Y-122050000D02*
X114430000Y-78610000D01*
X114430000Y-78610000D02*
X96390000Y-78610000D01*
%TO.C,10K1*%
X87225000Y-98520000D02*
X86895000Y-98520000D01*
X86895000Y-98520000D02*
X86895000Y-91980000D01*
X86895000Y-91980000D02*
X87225000Y-91980000D01*
X89305000Y-98520000D02*
X89635000Y-98520000D01*
X89635000Y-98520000D02*
X89635000Y-91980000D01*
X89635000Y-91980000D02*
X89305000Y-91980000D01*
%TO.C,J4*%
D11*
X89876666Y-88262380D02*
X89876666Y-88976666D01*
X89829047Y-89119523D01*
X89733809Y-89214761D01*
X89590952Y-89262380D01*
X89495714Y-89262380D01*
X90781428Y-88595714D02*
X90781428Y-89262380D01*
X90543333Y-88214761D02*
X90305238Y-88929047D01*
X90924285Y-88929047D01*
%TO.C,U1*%
X125992380Y-98551904D02*
X126801904Y-98551904D01*
X126897142Y-98504285D01*
X126944761Y-98456666D01*
X126992380Y-98361428D01*
X126992380Y-98170952D01*
X126944761Y-98075714D01*
X126897142Y-98028095D01*
X126801904Y-97980476D01*
X125992380Y-97980476D01*
X126992380Y-96980476D02*
X126992380Y-97551904D01*
X126992380Y-97266190D02*
X125992380Y-97266190D01*
X126135238Y-97361428D01*
X126230476Y-97456666D01*
X126278095Y-97551904D01*
%TO.C,R1*%
X121907380Y-83986666D02*
X121431190Y-84320000D01*
X121907380Y-84558095D02*
X120907380Y-84558095D01*
X120907380Y-84177142D01*
X120955000Y-84081904D01*
X121002619Y-84034285D01*
X121097857Y-83986666D01*
X121240714Y-83986666D01*
X121335952Y-84034285D01*
X121383571Y-84081904D01*
X121431190Y-84177142D01*
X121431190Y-84558095D01*
X121907380Y-83034285D02*
X121907380Y-83605714D01*
X121907380Y-83320000D02*
X120907380Y-83320000D01*
X121050238Y-83415238D01*
X121145476Y-83510476D01*
X121193095Y-83605714D01*
%TO.C,J18*%
X116665476Y-115867380D02*
X116665476Y-116581666D01*
X116617857Y-116724523D01*
X116522619Y-116819761D01*
X116379761Y-116867380D01*
X116284523Y-116867380D01*
X117665476Y-116867380D02*
X117094047Y-116867380D01*
X117379761Y-116867380D02*
X117379761Y-115867380D01*
X117284523Y-116010238D01*
X117189285Y-116105476D01*
X117094047Y-116153095D01*
X118236904Y-116295952D02*
X118141666Y-116248333D01*
X118094047Y-116200714D01*
X118046428Y-116105476D01*
X118046428Y-116057857D01*
X118094047Y-115962619D01*
X118141666Y-115915000D01*
X118236904Y-115867380D01*
X118427380Y-115867380D01*
X118522619Y-115915000D01*
X118570238Y-115962619D01*
X118617857Y-116057857D01*
X118617857Y-116105476D01*
X118570238Y-116200714D01*
X118522619Y-116248333D01*
X118427380Y-116295952D01*
X118236904Y-116295952D01*
X118141666Y-116343571D01*
X118094047Y-116391190D01*
X118046428Y-116486428D01*
X118046428Y-116676904D01*
X118094047Y-116772142D01*
X118141666Y-116819761D01*
X118236904Y-116867380D01*
X118427380Y-116867380D01*
X118522619Y-116819761D01*
X118570238Y-116772142D01*
X118617857Y-116676904D01*
X118617857Y-116486428D01*
X118570238Y-116391190D01*
X118522619Y-116343571D01*
X118427380Y-116295952D01*
%TO.C,J17*%
X116665476Y-122007380D02*
X116665476Y-122721666D01*
X116617857Y-122864523D01*
X116522619Y-122959761D01*
X116379761Y-123007380D01*
X116284523Y-123007380D01*
X117665476Y-123007380D02*
X117094047Y-123007380D01*
X117379761Y-123007380D02*
X117379761Y-122007380D01*
X117284523Y-122150238D01*
X117189285Y-122245476D01*
X117094047Y-122293095D01*
X117998809Y-122007380D02*
X118665476Y-122007380D01*
X118236904Y-123007380D01*
%TO.C,J16*%
X92535476Y-117772380D02*
X92535476Y-118486666D01*
X92487857Y-118629523D01*
X92392619Y-118724761D01*
X92249761Y-118772380D01*
X92154523Y-118772380D01*
X93535476Y-118772380D02*
X92964047Y-118772380D01*
X93249761Y-118772380D02*
X93249761Y-117772380D01*
X93154523Y-117915238D01*
X93059285Y-118010476D01*
X92964047Y-118058095D01*
X94392619Y-117772380D02*
X94202142Y-117772380D01*
X94106904Y-117820000D01*
X94059285Y-117867619D01*
X93964047Y-118010476D01*
X93916428Y-118200952D01*
X93916428Y-118581904D01*
X93964047Y-118677142D01*
X94011666Y-118724761D01*
X94106904Y-118772380D01*
X94297380Y-118772380D01*
X94392619Y-118724761D01*
X94440238Y-118677142D01*
X94487857Y-118581904D01*
X94487857Y-118343809D01*
X94440238Y-118248571D01*
X94392619Y-118200952D01*
X94297380Y-118153333D01*
X94106904Y-118153333D01*
X94011666Y-118200952D01*
X93964047Y-118248571D01*
X93916428Y-118343809D01*
%TO.C,J15*%
X92535476Y-110787380D02*
X92535476Y-111501666D01*
X92487857Y-111644523D01*
X92392619Y-111739761D01*
X92249761Y-111787380D01*
X92154523Y-111787380D01*
X93535476Y-111787380D02*
X92964047Y-111787380D01*
X93249761Y-111787380D02*
X93249761Y-110787380D01*
X93154523Y-110930238D01*
X93059285Y-111025476D01*
X92964047Y-111073095D01*
X94440238Y-110787380D02*
X93964047Y-110787380D01*
X93916428Y-111263571D01*
X93964047Y-111215952D01*
X94059285Y-111168333D01*
X94297380Y-111168333D01*
X94392619Y-111215952D01*
X94440238Y-111263571D01*
X94487857Y-111358809D01*
X94487857Y-111596904D01*
X94440238Y-111692142D01*
X94392619Y-111739761D01*
X94297380Y-111787380D01*
X94059285Y-111787380D01*
X93964047Y-111739761D01*
X93916428Y-111692142D01*
%TO.C,J14*%
X91900476Y-100207380D02*
X91900476Y-100921666D01*
X91852857Y-101064523D01*
X91757619Y-101159761D01*
X91614761Y-101207380D01*
X91519523Y-101207380D01*
X92900476Y-101207380D02*
X92329047Y-101207380D01*
X92614761Y-101207380D02*
X92614761Y-100207380D01*
X92519523Y-100350238D01*
X92424285Y-100445476D01*
X92329047Y-100493095D01*
X93757619Y-100540714D02*
X93757619Y-101207380D01*
X93519523Y-100159761D02*
X93281428Y-100874047D01*
X93900476Y-100874047D01*
%TO.C,J13*%
X126825476Y-77767380D02*
X126825476Y-78481666D01*
X126777857Y-78624523D01*
X126682619Y-78719761D01*
X126539761Y-78767380D01*
X126444523Y-78767380D01*
X127825476Y-78767380D02*
X127254047Y-78767380D01*
X127539761Y-78767380D02*
X127539761Y-77767380D01*
X127444523Y-77910238D01*
X127349285Y-78005476D01*
X127254047Y-78053095D01*
X128158809Y-77767380D02*
X128777857Y-77767380D01*
X128444523Y-78148333D01*
X128587380Y-78148333D01*
X128682619Y-78195952D01*
X128730238Y-78243571D01*
X128777857Y-78338809D01*
X128777857Y-78576904D01*
X128730238Y-78672142D01*
X128682619Y-78719761D01*
X128587380Y-78767380D01*
X128301666Y-78767380D01*
X128206428Y-78719761D01*
X128158809Y-78672142D01*
%TO.C,J12*%
X116665476Y-86657380D02*
X116665476Y-87371666D01*
X116617857Y-87514523D01*
X116522619Y-87609761D01*
X116379761Y-87657380D01*
X116284523Y-87657380D01*
X117665476Y-87657380D02*
X117094047Y-87657380D01*
X117379761Y-87657380D02*
X117379761Y-86657380D01*
X117284523Y-86800238D01*
X117189285Y-86895476D01*
X117094047Y-86943095D01*
X118046428Y-86752619D02*
X118094047Y-86705000D01*
X118189285Y-86657380D01*
X118427380Y-86657380D01*
X118522619Y-86705000D01*
X118570238Y-86752619D01*
X118617857Y-86847857D01*
X118617857Y-86943095D01*
X118570238Y-87085952D01*
X117998809Y-87657380D01*
X118617857Y-87657380D01*
%TO.C,J9*%
X81581666Y-91317380D02*
X81581666Y-92031666D01*
X81534047Y-92174523D01*
X81438809Y-92269761D01*
X81295952Y-92317380D01*
X81200714Y-92317380D01*
X82105476Y-92317380D02*
X82295952Y-92317380D01*
X82391190Y-92269761D01*
X82438809Y-92222142D01*
X82534047Y-92079285D01*
X82581666Y-91888809D01*
X82581666Y-91507857D01*
X82534047Y-91412619D01*
X82486428Y-91365000D01*
X82391190Y-91317380D01*
X82200714Y-91317380D01*
X82105476Y-91365000D01*
X82057857Y-91412619D01*
X82010238Y-91507857D01*
X82010238Y-91745952D01*
X82057857Y-91841190D01*
X82105476Y-91888809D01*
X82200714Y-91936428D01*
X82391190Y-91936428D01*
X82486428Y-91888809D01*
X82534047Y-91841190D01*
X82581666Y-91745952D01*
%TO.C,J8*%
X81581666Y-112057380D02*
X81581666Y-112771666D01*
X81534047Y-112914523D01*
X81438809Y-113009761D01*
X81295952Y-113057380D01*
X81200714Y-113057380D01*
X82200714Y-112485952D02*
X82105476Y-112438333D01*
X82057857Y-112390714D01*
X82010238Y-112295476D01*
X82010238Y-112247857D01*
X82057857Y-112152619D01*
X82105476Y-112105000D01*
X82200714Y-112057380D01*
X82391190Y-112057380D01*
X82486428Y-112105000D01*
X82534047Y-112152619D01*
X82581666Y-112247857D01*
X82581666Y-112295476D01*
X82534047Y-112390714D01*
X82486428Y-112438333D01*
X82391190Y-112485952D01*
X82200714Y-112485952D01*
X82105476Y-112533571D01*
X82057857Y-112581190D01*
X82010238Y-112676428D01*
X82010238Y-112866904D01*
X82057857Y-112962142D01*
X82105476Y-113009761D01*
X82200714Y-113057380D01*
X82391190Y-113057380D01*
X82486428Y-113009761D01*
X82534047Y-112962142D01*
X82581666Y-112866904D01*
X82581666Y-112676428D01*
X82534047Y-112581190D01*
X82486428Y-112533571D01*
X82391190Y-112485952D01*
%TO.C,J7*%
X117776666Y-106977380D02*
X117776666Y-107691666D01*
X117729047Y-107834523D01*
X117633809Y-107929761D01*
X117490952Y-107977380D01*
X117395714Y-107977380D01*
X118157619Y-106977380D02*
X118824285Y-106977380D01*
X118395714Y-107977380D01*
%TO.C,J6*%
X85387380Y-110188333D02*
X86101666Y-110188333D01*
X86244523Y-110235952D01*
X86339761Y-110331190D01*
X86387380Y-110474047D01*
X86387380Y-110569285D01*
X85387380Y-109283571D02*
X85387380Y-109474047D01*
X85435000Y-109569285D01*
X85482619Y-109616904D01*
X85625476Y-109712142D01*
X85815952Y-109759761D01*
X86196904Y-109759761D01*
X86292142Y-109712142D01*
X86339761Y-109664523D01*
X86387380Y-109569285D01*
X86387380Y-109378809D01*
X86339761Y-109283571D01*
X86292142Y-109235952D01*
X86196904Y-109188333D01*
X85958809Y-109188333D01*
X85863571Y-109235952D01*
X85815952Y-109283571D01*
X85768333Y-109378809D01*
X85768333Y-109569285D01*
X85815952Y-109664523D01*
X85863571Y-109712142D01*
X85958809Y-109759761D01*
%TO.C,J5*%
X117141666Y-98087380D02*
X117141666Y-98801666D01*
X117094047Y-98944523D01*
X116998809Y-99039761D01*
X116855952Y-99087380D01*
X116760714Y-99087380D01*
X118094047Y-98087380D02*
X117617857Y-98087380D01*
X117570238Y-98563571D01*
X117617857Y-98515952D01*
X117713095Y-98468333D01*
X117951190Y-98468333D01*
X118046428Y-98515952D01*
X118094047Y-98563571D01*
X118141666Y-98658809D01*
X118141666Y-98896904D01*
X118094047Y-98992142D01*
X118046428Y-99039761D01*
X117951190Y-99087380D01*
X117713095Y-99087380D01*
X117617857Y-99039761D01*
X117570238Y-98992142D01*
%TO.C,J3*%
X85387380Y-106378333D02*
X86101666Y-106378333D01*
X86244523Y-106425952D01*
X86339761Y-106521190D01*
X86387380Y-106664047D01*
X86387380Y-106759285D01*
X85387380Y-105997380D02*
X85387380Y-105378333D01*
X85768333Y-105711666D01*
X85768333Y-105568809D01*
X85815952Y-105473571D01*
X85863571Y-105425952D01*
X85958809Y-105378333D01*
X86196904Y-105378333D01*
X86292142Y-105425952D01*
X86339761Y-105473571D01*
X86387380Y-105568809D01*
X86387380Y-105854523D01*
X86339761Y-105949761D01*
X86292142Y-105997380D01*
%TO.C,J2*%
X85387380Y-102568333D02*
X86101666Y-102568333D01*
X86244523Y-102615952D01*
X86339761Y-102711190D01*
X86387380Y-102854047D01*
X86387380Y-102949285D01*
X85482619Y-102139761D02*
X85435000Y-102092142D01*
X85387380Y-101996904D01*
X85387380Y-101758809D01*
X85435000Y-101663571D01*
X85482619Y-101615952D01*
X85577857Y-101568333D01*
X85673095Y-101568333D01*
X85815952Y-101615952D01*
X86387380Y-102187380D01*
X86387380Y-101568333D01*
%TO.C,J1*%
X131567380Y-115463333D02*
X132281666Y-115463333D01*
X132424523Y-115510952D01*
X132519761Y-115606190D01*
X132567380Y-115749047D01*
X132567380Y-115844285D01*
X132567380Y-114463333D02*
X132567380Y-115034761D01*
X132567380Y-114749047D02*
X131567380Y-114749047D01*
X131710238Y-114844285D01*
X131805476Y-114939523D01*
X131853095Y-115034761D01*
%TO.C,D1*%
X114602380Y-82653095D02*
X113602380Y-82653095D01*
X113602380Y-82415000D01*
X113650000Y-82272142D01*
X113745238Y-82176904D01*
X113840476Y-82129285D01*
X114030952Y-82081666D01*
X114173809Y-82081666D01*
X114364285Y-82129285D01*
X114459523Y-82176904D01*
X114554761Y-82272142D01*
X114602380Y-82415000D01*
X114602380Y-82653095D01*
X114602380Y-81129285D02*
X114602380Y-81700714D01*
X114602380Y-81415000D02*
X113602380Y-81415000D01*
X113745238Y-81510238D01*
X113840476Y-81605476D01*
X113888095Y-81700714D01*
%TO.C,C2*%
X123678333Y-98722142D02*
X123630714Y-98769761D01*
X123487857Y-98817380D01*
X123392619Y-98817380D01*
X123249761Y-98769761D01*
X123154523Y-98674523D01*
X123106904Y-98579285D01*
X123059285Y-98388809D01*
X123059285Y-98245952D01*
X123106904Y-98055476D01*
X123154523Y-97960238D01*
X123249761Y-97865000D01*
X123392619Y-97817380D01*
X123487857Y-97817380D01*
X123630714Y-97865000D01*
X123678333Y-97912619D01*
X124059285Y-97912619D02*
X124106904Y-97865000D01*
X124202142Y-97817380D01*
X124440238Y-97817380D01*
X124535476Y-97865000D01*
X124583095Y-97912619D01*
X124630714Y-98007857D01*
X124630714Y-98103095D01*
X124583095Y-98245952D01*
X124011666Y-98817380D01*
X124630714Y-98817380D01*
%TO.C,C1*%
X123678333Y-105072142D02*
X123630714Y-105119761D01*
X123487857Y-105167380D01*
X123392619Y-105167380D01*
X123249761Y-105119761D01*
X123154523Y-105024523D01*
X123106904Y-104929285D01*
X123059285Y-104738809D01*
X123059285Y-104595952D01*
X123106904Y-104405476D01*
X123154523Y-104310238D01*
X123249761Y-104215000D01*
X123392619Y-104167380D01*
X123487857Y-104167380D01*
X123630714Y-104215000D01*
X123678333Y-104262619D01*
X124630714Y-105167380D02*
X124059285Y-105167380D01*
X124345000Y-105167380D02*
X124345000Y-104167380D01*
X124249761Y-104310238D01*
X124154523Y-104405476D01*
X124059285Y-104453095D01*
%TO.C,A1*%
X104695714Y-77636666D02*
X105171904Y-77636666D01*
X104600476Y-77922380D02*
X104933809Y-76922380D01*
X105267142Y-77922380D01*
X106124285Y-77922380D02*
X105552857Y-77922380D01*
X105838571Y-77922380D02*
X105838571Y-76922380D01*
X105743333Y-77065238D01*
X105648095Y-77160476D01*
X105552857Y-77208095D01*
%TO.C,10K1*%
X86347380Y-96416666D02*
X86347380Y-96988095D01*
X86347380Y-96702380D02*
X85347380Y-96702380D01*
X85490238Y-96797619D01*
X85585476Y-96892857D01*
X85633095Y-96988095D01*
X85347380Y-95797619D02*
X85347380Y-95702380D01*
X85395000Y-95607142D01*
X85442619Y-95559523D01*
X85537857Y-95511904D01*
X85728333Y-95464285D01*
X85966428Y-95464285D01*
X86156904Y-95511904D01*
X86252142Y-95559523D01*
X86299761Y-95607142D01*
X86347380Y-95702380D01*
X86347380Y-95797619D01*
X86299761Y-95892857D01*
X86252142Y-95940476D01*
X86156904Y-95988095D01*
X85966428Y-96035714D01*
X85728333Y-96035714D01*
X85537857Y-95988095D01*
X85442619Y-95940476D01*
X85395000Y-95892857D01*
X85347380Y-95797619D01*
X86347380Y-95035714D02*
X85347380Y-95035714D01*
X86347380Y-94464285D02*
X85775952Y-94892857D01*
X85347380Y-94464285D02*
X85918809Y-95035714D01*
X86347380Y-93511904D02*
X86347380Y-94083333D01*
X86347380Y-93797619D02*
X85347380Y-93797619D01*
X85490238Y-93892857D01*
X85585476Y-93988095D01*
X85633095Y-94083333D01*
%TD*%
M02*
