%TF.GenerationSoftware,KiCad,Pcbnew,(5.1.12)-1*%
%TF.CreationDate,2022-03-25T13:53:05+05:30*%
%TF.ProjectId,smart_menu,736d6172-745f-46d6-956e-752e6b696361,rev?*%
%TF.SameCoordinates,Original*%
%TF.FileFunction,Copper,L2,Bot*%
%TF.FilePolarity,Positive*%
%FSLAX46Y46*%
G04 Gerber Fmt 4.6, Leading zero omitted, Abs format (unit mm)*
G04 Created by KiCad (PCBNEW (5.1.12)-1) date 2022-03-25 13:53:05*
%MOMM*%
%LPD*%
G01*
G04 APERTURE LIST*
%TA.AperFunction,ComponentPad*%
%ADD10C,2.600000*%
%TD*%
%TA.AperFunction,ComponentPad*%
%ADD11R,2.600000X2.600000*%
%TD*%
%TA.AperFunction,ComponentPad*%
%ADD12O,2.000000X1.905000*%
%TD*%
%TA.AperFunction,ComponentPad*%
%ADD13R,2.000000X1.905000*%
%TD*%
%TA.AperFunction,ComponentPad*%
%ADD14O,1.600000X1.600000*%
%TD*%
%TA.AperFunction,ComponentPad*%
%ADD15C,1.600000*%
%TD*%
%TA.AperFunction,ComponentPad*%
%ADD16R,1.700000X1.700000*%
%TD*%
%TA.AperFunction,ComponentPad*%
%ADD17O,1.700000X1.700000*%
%TD*%
%TA.AperFunction,ComponentPad*%
%ADD18R,3.500000X3.500000*%
%TD*%
%TA.AperFunction,ComponentPad*%
%ADD19C,1.800000*%
%TD*%
%TA.AperFunction,ComponentPad*%
%ADD20R,1.800000X1.800000*%
%TD*%
%TA.AperFunction,ComponentPad*%
%ADD21R,1.600000X1.600000*%
%TD*%
%TA.AperFunction,ViaPad*%
%ADD22C,2.000000*%
%TD*%
G04 APERTURE END LIST*
D10*
%TO.P,J4,2*%
%TO.N,SW*%
X87710000Y-82550000D03*
D11*
%TO.P,J4,1*%
%TO.N,GND*%
X92710000Y-82550000D03*
%TD*%
D12*
%TO.P,U1,3*%
%TO.N,+5V*%
X130810000Y-95250000D03*
%TO.P,U1,2*%
%TO.N,GND*%
X130810000Y-97790000D03*
D13*
%TO.P,U1,1*%
%TO.N,Net-(C1-Pad1)*%
X130810000Y-100330000D03*
%TD*%
D14*
%TO.P,R1,2*%
%TO.N,Net-(D1-Pad2)*%
X123825000Y-80010000D03*
D15*
%TO.P,R1,1*%
%TO.N,+5V*%
X123825000Y-87630000D03*
%TD*%
D16*
%TO.P,J18,1*%
%TO.N,Net-(A1-Pad17)*%
X117475000Y-118745000D03*
%TD*%
%TO.P,J17,1*%
%TO.N,Net-(A1-Pad16)*%
X117475000Y-122555000D03*
%TD*%
%TO.P,J16,1*%
%TO.N,Net-(A1-Pad15)*%
X93345000Y-120650000D03*
%TD*%
%TO.P,J15,1*%
%TO.N,Net-(A1-Pad13)*%
X93345000Y-113665000D03*
%TD*%
D17*
%TO.P,J14,4*%
%TO.N,Net-(A1-Pad6)*%
X92710000Y-90805000D03*
%TO.P,J14,3*%
%TO.N,Net-(A1-Pad7)*%
X92710000Y-93345000D03*
%TO.P,J14,2*%
%TO.N,Net-(A1-Pad8)*%
X92710000Y-95885000D03*
D16*
%TO.P,J14,1*%
%TO.N,Net-(A1-Pad9)*%
X92710000Y-98425000D03*
%TD*%
D17*
%TO.P,J13,4*%
%TO.N,GND*%
X127635000Y-88265000D03*
%TO.P,J13,3*%
X127635000Y-85725000D03*
%TO.P,J13,2*%
X127635000Y-83185000D03*
D16*
%TO.P,J13,1*%
X127635000Y-80645000D03*
%TD*%
D17*
%TO.P,J12,4*%
%TO.N,VCC*%
X117475000Y-97155000D03*
%TO.P,J12,3*%
X117475000Y-94615000D03*
%TO.P,J12,2*%
X117475000Y-92075000D03*
D16*
%TO.P,J12,1*%
X117475000Y-89535000D03*
%TD*%
D17*
%TO.P,J9,4*%
%TO.N,VCC*%
X81915000Y-81915000D03*
%TO.P,J9,3*%
%TO.N,GND*%
X81915000Y-84455000D03*
%TO.P,J9,2*%
X81915000Y-86995000D03*
D16*
%TO.P,J9,1*%
%TO.N,Net-(J10-Pad1)*%
X81915000Y-89535000D03*
%TD*%
D17*
%TO.P,J8,4*%
%TO.N,GND*%
X81915000Y-122555000D03*
%TO.P,J8,3*%
%TO.N,RF_DATA*%
X81915000Y-120015000D03*
%TO.P,J8,2*%
X81915000Y-117475000D03*
D16*
%TO.P,J8,1*%
%TO.N,VCC*%
X81915000Y-114935000D03*
%TD*%
D17*
%TO.P,J7,3*%
%TO.N,IR4_DATA*%
X118110000Y-114935000D03*
%TO.P,J7,2*%
%TO.N,GND*%
X118110000Y-112395000D03*
D16*
%TO.P,J7,1*%
%TO.N,VCC*%
X118110000Y-109855000D03*
%TD*%
D17*
%TO.P,J6,3*%
%TO.N,IR3_DATA*%
X93345000Y-109855000D03*
%TO.P,J6,2*%
%TO.N,GND*%
X90805000Y-109855000D03*
D16*
%TO.P,J6,1*%
%TO.N,VCC*%
X88265000Y-109855000D03*
%TD*%
D17*
%TO.P,J5,3*%
%TO.N,IR5_DATA*%
X117475000Y-106045000D03*
%TO.P,J5,2*%
%TO.N,GND*%
X117475000Y-103505000D03*
D16*
%TO.P,J5,1*%
%TO.N,VCC*%
X117475000Y-100965000D03*
%TD*%
D17*
%TO.P,J3,3*%
%TO.N,IR2_DATA*%
X93345000Y-106045000D03*
%TO.P,J3,2*%
%TO.N,GND*%
X90805000Y-106045000D03*
D16*
%TO.P,J3,1*%
%TO.N,VCC*%
X88265000Y-106045000D03*
%TD*%
D17*
%TO.P,J2,3*%
%TO.N,IR1_DATA*%
X93345000Y-102235000D03*
%TO.P,J2,2*%
%TO.N,GND*%
X90805000Y-102235000D03*
D16*
%TO.P,J2,1*%
%TO.N,VCC*%
X88265000Y-102235000D03*
%TD*%
%TO.P,J1,3*%
%TO.N,N/C*%
%TA.AperFunction,ComponentPad*%
G36*
G01*
X131940000Y-111430000D02*
X130190000Y-111430000D01*
G75*
G02*
X129315000Y-110555000I0J875000D01*
G01*
X129315000Y-108805000D01*
G75*
G02*
X130190000Y-107930000I875000J0D01*
G01*
X131940000Y-107930000D01*
G75*
G02*
X132815000Y-108805000I0J-875000D01*
G01*
X132815000Y-110555000D01*
G75*
G02*
X131940000Y-111430000I-875000J0D01*
G01*
G37*
%TD.AperFunction*%
%TO.P,J1,2*%
%TO.N,GND*%
%TA.AperFunction,ComponentPad*%
G36*
G01*
X127365000Y-114180000D02*
X125365000Y-114180000D01*
G75*
G02*
X124615000Y-113430000I0J750000D01*
G01*
X124615000Y-111930000D01*
G75*
G02*
X125365000Y-111180000I750000J0D01*
G01*
X127365000Y-111180000D01*
G75*
G02*
X128115000Y-111930000I0J-750000D01*
G01*
X128115000Y-113430000D01*
G75*
G02*
X127365000Y-114180000I-750000J0D01*
G01*
G37*
%TD.AperFunction*%
D18*
%TO.P,J1,1*%
%TO.N,Net-(C1-Pad1)*%
X126365000Y-106680000D03*
%TD*%
D19*
%TO.P,D1,2*%
%TO.N,Net-(D1-Pad2)*%
X118110000Y-80645000D03*
D20*
%TO.P,D1,1*%
%TO.N,GND*%
X118110000Y-83185000D03*
%TD*%
D15*
%TO.P,C2,2*%
%TO.N,GND*%
X122595000Y-94615000D03*
D21*
%TO.P,C2,1*%
%TO.N,+5V*%
X125095000Y-94615000D03*
%TD*%
D15*
%TO.P,C1,2*%
%TO.N,GND*%
X122595000Y-100965000D03*
D21*
%TO.P,C1,1*%
%TO.N,Net-(C1-Pad1)*%
X125095000Y-100965000D03*
%TD*%
D14*
%TO.P,A1,16*%
%TO.N,Net-(A1-Pad16)*%
X113030000Y-118110000D03*
%TO.P,A1,15*%
%TO.N,Net-(A1-Pad15)*%
X97790000Y-118110000D03*
%TO.P,A1,30*%
%TO.N,+5V*%
X113030000Y-82550000D03*
%TO.P,A1,14*%
%TO.N,RF_DATA*%
X97790000Y-115570000D03*
%TO.P,A1,29*%
%TO.N,GND*%
X113030000Y-85090000D03*
%TO.P,A1,13*%
%TO.N,Net-(A1-Pad13)*%
X97790000Y-113030000D03*
%TO.P,A1,28*%
%TO.N,N/C*%
X113030000Y-87630000D03*
%TO.P,A1,12*%
%TO.N,IR3_DATA*%
X97790000Y-110490000D03*
%TO.P,A1,27*%
%TO.N,VCC*%
X113030000Y-90170000D03*
%TO.P,A1,11*%
%TO.N,IR2_DATA*%
X97790000Y-107950000D03*
%TO.P,A1,26*%
%TO.N,N/C*%
X113030000Y-92710000D03*
%TO.P,A1,10*%
%TO.N,IR1_DATA*%
X97790000Y-105410000D03*
%TO.P,A1,25*%
%TO.N,N/C*%
X113030000Y-95250000D03*
%TO.P,A1,9*%
%TO.N,Net-(A1-Pad9)*%
X97790000Y-102870000D03*
%TO.P,A1,24*%
%TO.N,N/C*%
X113030000Y-97790000D03*
%TO.P,A1,8*%
%TO.N,Net-(A1-Pad8)*%
X97790000Y-100330000D03*
%TO.P,A1,23*%
%TO.N,N/C*%
X113030000Y-100330000D03*
%TO.P,A1,7*%
%TO.N,Net-(A1-Pad7)*%
X97790000Y-97790000D03*
%TO.P,A1,22*%
%TO.N,N/C*%
X113030000Y-102870000D03*
%TO.P,A1,6*%
%TO.N,Net-(A1-Pad6)*%
X97790000Y-95250000D03*
%TO.P,A1,21*%
%TO.N,N/C*%
X113030000Y-105410000D03*
%TO.P,A1,5*%
%TO.N,SW*%
X97790000Y-92710000D03*
%TO.P,A1,20*%
%TO.N,IR5_DATA*%
X113030000Y-107950000D03*
%TO.P,A1,4*%
%TO.N,GND*%
X97790000Y-90170000D03*
%TO.P,A1,19*%
%TO.N,IR4_DATA*%
X113030000Y-110490000D03*
%TO.P,A1,3*%
%TO.N,N/C*%
X97790000Y-87630000D03*
%TO.P,A1,18*%
X113030000Y-113030000D03*
%TO.P,A1,2*%
X97790000Y-85090000D03*
%TO.P,A1,17*%
%TO.N,Net-(A1-Pad17)*%
X113030000Y-115570000D03*
D21*
%TO.P,A1,1*%
%TO.N,N/C*%
X97790000Y-82550000D03*
%TD*%
D14*
%TO.P,10K1,2*%
%TO.N,SW*%
X88265000Y-91440000D03*
D15*
%TO.P,10K1,1*%
%TO.N,VCC*%
X88265000Y-99060000D03*
%TD*%
D22*
%TO.N,Net-(J10-Pad1)*%
X78105000Y-89535000D03*
%TD*%
M02*
