%TF.GenerationSoftware,KiCad,Pcbnew,(5.1.12)-1*%
%TF.CreationDate,2022-04-15T16:44:04+05:30*%
%TF.ProjectId,blind_gloves,626c696e-645f-4676-9c6f-7665732e6b69,rev?*%
%TF.SameCoordinates,Original*%
%TF.FileFunction,Legend,Top*%
%TF.FilePolarity,Positive*%
%FSLAX46Y46*%
G04 Gerber Fmt 4.6, Leading zero omitted, Abs format (unit mm)*
G04 Created by KiCad (PCBNEW (5.1.12)-1) date 2022-04-15 16:44:04*
%MOMM*%
%LPD*%
G01*
G04 APERTURE LIST*
%ADD10C,0.120000*%
%ADD11C,0.150000*%
G04 APERTURE END LIST*
D10*
%TO.C,Y1*%
X102123000Y-85929000D02*
X102123000Y-92179000D01*
X107173000Y-85929000D02*
X107173000Y-92179000D01*
X102123000Y-92179000D02*
G75*
G03*
X107173000Y-92179000I2525000J0D01*
G01*
X102123000Y-85929000D02*
G75*
G02*
X107173000Y-85929000I2525000J0D01*
G01*
%TO.C,Q1*%
X82020000Y-73732000D02*
X85620000Y-73732000D01*
X86144184Y-73004795D02*
G75*
G02*
X85620000Y-73732000I-2324184J1122795D01*
G01*
X86176400Y-70783193D02*
G75*
G03*
X83820000Y-69282000I-2356400J-1098807D01*
G01*
X81463600Y-70783193D02*
G75*
G02*
X83820000Y-69282000I2356400J-1098807D01*
G01*
X81495816Y-73004795D02*
G75*
G03*
X82020000Y-73732000I2324184J1122795D01*
G01*
%TO.C,D3*%
X81006000Y-63225000D02*
X81006000Y-66315000D01*
X86066000Y-64770000D02*
G75*
G03*
X86066000Y-64770000I-2500000J0D01*
G01*
X86556000Y-64769538D02*
G75*
G02*
X81006000Y-66314830I-2990000J-462D01*
G01*
X86556000Y-64770462D02*
G75*
G03*
X81006000Y-63225170I-2990000J462D01*
G01*
%TO.C,U2*%
X116442000Y-67504000D02*
X114792000Y-67504000D01*
X116442000Y-103184000D02*
X116442000Y-67504000D01*
X111142000Y-103184000D02*
X116442000Y-103184000D01*
X111142000Y-67504000D02*
X111142000Y-103184000D01*
X112792000Y-67504000D02*
X111142000Y-67504000D01*
X114792000Y-67504000D02*
G75*
G02*
X112792000Y-67504000I-1000000J0D01*
G01*
%TO.C,U1*%
X108023000Y-52864000D02*
X108023000Y-54374000D01*
X104322000Y-52864000D02*
X104322000Y-54374000D01*
X101052000Y-54374000D02*
X111292000Y-54374000D01*
X111292000Y-52864000D02*
X111292000Y-57505000D01*
X101052000Y-52864000D02*
X101052000Y-57505000D01*
X101052000Y-57505000D02*
X111292000Y-57505000D01*
X101052000Y-52864000D02*
X111292000Y-52864000D01*
%TO.C,R3*%
X83820000Y-78256000D02*
X83820000Y-79026000D01*
X83820000Y-86336000D02*
X83820000Y-85566000D01*
X82450000Y-79026000D02*
X82450000Y-85566000D01*
X85190000Y-79026000D02*
X82450000Y-79026000D01*
X85190000Y-85566000D02*
X85190000Y-79026000D01*
X82450000Y-85566000D02*
X85190000Y-85566000D01*
%TO.C,R2*%
X102338000Y-97028000D02*
X101568000Y-97028000D01*
X94258000Y-97028000D02*
X95028000Y-97028000D01*
X101568000Y-95658000D02*
X95028000Y-95658000D01*
X101568000Y-98398000D02*
X101568000Y-95658000D01*
X95028000Y-98398000D02*
X101568000Y-98398000D01*
X95028000Y-95658000D02*
X95028000Y-98398000D01*
%TO.C,R1*%
X122277000Y-56134000D02*
X121507000Y-56134000D01*
X114197000Y-56134000D02*
X114967000Y-56134000D01*
X121507000Y-54764000D02*
X114967000Y-54764000D01*
X121507000Y-57504000D02*
X121507000Y-54764000D01*
X114967000Y-57504000D02*
X121507000Y-57504000D01*
X114967000Y-54764000D02*
X114967000Y-57504000D01*
%TO.C,J2*%
X103318000Y-69790000D02*
X104648000Y-69790000D01*
X103318000Y-71120000D02*
X103318000Y-69790000D01*
X103318000Y-72390000D02*
X105978000Y-72390000D01*
X105978000Y-72390000D02*
X105978000Y-80070000D01*
X103318000Y-72390000D02*
X103318000Y-80070000D01*
X103318000Y-80070000D02*
X105978000Y-80070000D01*
%TO.C,J1*%
X89080000Y-53294000D02*
X89080000Y-53794000D01*
X89820000Y-53294000D02*
X89080000Y-53294000D01*
X92957000Y-59987000D02*
X92911000Y-59940000D01*
X95255000Y-62284000D02*
X95219000Y-62249000D01*
X92741000Y-60180000D02*
X92706000Y-60145000D01*
X95049000Y-62489000D02*
X95003000Y-62442000D01*
X99241000Y-63814000D02*
X89320000Y-63814000D01*
X99241000Y-53534000D02*
X89320000Y-53534000D01*
X89320000Y-53534000D02*
X89320000Y-63814000D01*
X99241000Y-53534000D02*
X99241000Y-63814000D01*
X96281000Y-53534000D02*
X96281000Y-63814000D01*
X91380000Y-53534000D02*
X91380000Y-63814000D01*
X89880000Y-53534000D02*
X89880000Y-63814000D01*
X95660000Y-61214000D02*
G75*
G03*
X95660000Y-61214000I-1680000J0D01*
G01*
X92299747Y-56162805D02*
G75*
G02*
X92445000Y-55450000I1680253J28805D01*
G01*
X93296958Y-54598574D02*
G75*
G02*
X94664000Y-54599000I683042J-1535426D01*
G01*
X95515426Y-55450958D02*
G75*
G02*
X95515000Y-56818000I-1535426J-683042D01*
G01*
X94663042Y-57669426D02*
G75*
G02*
X93296000Y-57669000I-683042J1535426D01*
G01*
X92445244Y-56817318D02*
G75*
G02*
X92300000Y-56134000I1534756J683318D01*
G01*
%TO.C,D2*%
X87102000Y-85069000D02*
X87102000Y-88159000D01*
X92162000Y-86614000D02*
G75*
G03*
X92162000Y-86614000I-2500000J0D01*
G01*
X92652000Y-86613538D02*
G75*
G02*
X87102000Y-88158830I-2990000J-462D01*
G01*
X92652000Y-86614462D02*
G75*
G03*
X87102000Y-85069170I-2990000J462D01*
G01*
%TO.C,D1*%
X119867000Y-63774000D02*
X122957000Y-63774000D01*
X123912000Y-61214000D02*
G75*
G03*
X123912000Y-61214000I-2500000J0D01*
G01*
X121411538Y-58224000D02*
G75*
G02*
X122956830Y-63774000I462J-2990000D01*
G01*
X121412462Y-58224000D02*
G75*
G03*
X119867170Y-63774000I-462J-2990000D01*
G01*
%TO.C,C4*%
X99862000Y-92495000D02*
X99862000Y-92810000D01*
X99862000Y-90070000D02*
X99862000Y-90385000D01*
X94622000Y-92495000D02*
X94622000Y-92810000D01*
X94622000Y-90070000D02*
X94622000Y-90385000D01*
X94622000Y-92810000D02*
X99862000Y-92810000D01*
X94622000Y-90070000D02*
X99862000Y-90070000D01*
%TO.C,C3*%
X99862000Y-87669000D02*
X99862000Y-87984000D01*
X99862000Y-85244000D02*
X99862000Y-85559000D01*
X94622000Y-87669000D02*
X94622000Y-87984000D01*
X94622000Y-85244000D02*
X94622000Y-85559000D01*
X94622000Y-87984000D02*
X99862000Y-87984000D01*
X94622000Y-85244000D02*
X99862000Y-85244000D01*
%TO.C,C2*%
X111051000Y-63534775D02*
X111551000Y-63534775D01*
X111301000Y-63784775D02*
X111301000Y-63284775D01*
X112492000Y-58379000D02*
X113060000Y-58379000D01*
X112258000Y-58419000D02*
X113294000Y-58419000D01*
X112099000Y-58459000D02*
X113453000Y-58459000D01*
X111971000Y-58499000D02*
X113581000Y-58499000D01*
X111861000Y-58539000D02*
X113691000Y-58539000D01*
X111765000Y-58579000D02*
X113787000Y-58579000D01*
X111678000Y-58619000D02*
X113874000Y-58619000D01*
X111598000Y-58659000D02*
X113954000Y-58659000D01*
X113816000Y-58699000D02*
X114027000Y-58699000D01*
X111525000Y-58699000D02*
X111736000Y-58699000D01*
X113816000Y-58739000D02*
X114095000Y-58739000D01*
X111457000Y-58739000D02*
X111736000Y-58739000D01*
X113816000Y-58779000D02*
X114159000Y-58779000D01*
X111393000Y-58779000D02*
X111736000Y-58779000D01*
X113816000Y-58819000D02*
X114219000Y-58819000D01*
X111333000Y-58819000D02*
X111736000Y-58819000D01*
X113816000Y-58859000D02*
X114276000Y-58859000D01*
X111276000Y-58859000D02*
X111736000Y-58859000D01*
X113816000Y-58899000D02*
X114330000Y-58899000D01*
X111222000Y-58899000D02*
X111736000Y-58899000D01*
X113816000Y-58939000D02*
X114381000Y-58939000D01*
X111171000Y-58939000D02*
X111736000Y-58939000D01*
X113816000Y-58979000D02*
X114429000Y-58979000D01*
X111123000Y-58979000D02*
X111736000Y-58979000D01*
X113816000Y-59019000D02*
X114475000Y-59019000D01*
X111077000Y-59019000D02*
X111736000Y-59019000D01*
X113816000Y-59059000D02*
X114519000Y-59059000D01*
X111033000Y-59059000D02*
X111736000Y-59059000D01*
X113816000Y-59099000D02*
X114561000Y-59099000D01*
X110991000Y-59099000D02*
X111736000Y-59099000D01*
X113816000Y-59139000D02*
X114602000Y-59139000D01*
X110950000Y-59139000D02*
X111736000Y-59139000D01*
X113816000Y-59179000D02*
X114640000Y-59179000D01*
X110912000Y-59179000D02*
X111736000Y-59179000D01*
X113816000Y-59219000D02*
X114677000Y-59219000D01*
X110875000Y-59219000D02*
X111736000Y-59219000D01*
X113816000Y-59259000D02*
X114713000Y-59259000D01*
X110839000Y-59259000D02*
X111736000Y-59259000D01*
X113816000Y-59299000D02*
X114747000Y-59299000D01*
X110805000Y-59299000D02*
X111736000Y-59299000D01*
X113816000Y-59339000D02*
X114780000Y-59339000D01*
X110772000Y-59339000D02*
X111736000Y-59339000D01*
X113816000Y-59379000D02*
X114811000Y-59379000D01*
X110741000Y-59379000D02*
X111736000Y-59379000D01*
X113816000Y-59419000D02*
X114841000Y-59419000D01*
X110711000Y-59419000D02*
X111736000Y-59419000D01*
X113816000Y-59459000D02*
X114871000Y-59459000D01*
X110681000Y-59459000D02*
X111736000Y-59459000D01*
X113816000Y-59499000D02*
X114898000Y-59499000D01*
X110654000Y-59499000D02*
X111736000Y-59499000D01*
X113816000Y-59539000D02*
X114925000Y-59539000D01*
X110627000Y-59539000D02*
X111736000Y-59539000D01*
X113816000Y-59579000D02*
X114951000Y-59579000D01*
X110601000Y-59579000D02*
X111736000Y-59579000D01*
X113816000Y-59619000D02*
X114976000Y-59619000D01*
X110576000Y-59619000D02*
X111736000Y-59619000D01*
X113816000Y-59659000D02*
X115000000Y-59659000D01*
X110552000Y-59659000D02*
X111736000Y-59659000D01*
X113816000Y-59699000D02*
X115023000Y-59699000D01*
X110529000Y-59699000D02*
X111736000Y-59699000D01*
X113816000Y-59739000D02*
X115044000Y-59739000D01*
X110508000Y-59739000D02*
X111736000Y-59739000D01*
X113816000Y-59779000D02*
X115066000Y-59779000D01*
X110486000Y-59779000D02*
X111736000Y-59779000D01*
X113816000Y-59819000D02*
X115086000Y-59819000D01*
X110466000Y-59819000D02*
X111736000Y-59819000D01*
X113816000Y-59859000D02*
X115105000Y-59859000D01*
X110447000Y-59859000D02*
X111736000Y-59859000D01*
X113816000Y-59899000D02*
X115124000Y-59899000D01*
X110428000Y-59899000D02*
X111736000Y-59899000D01*
X113816000Y-59939000D02*
X115141000Y-59939000D01*
X110411000Y-59939000D02*
X111736000Y-59939000D01*
X113816000Y-59979000D02*
X115158000Y-59979000D01*
X110394000Y-59979000D02*
X111736000Y-59979000D01*
X113816000Y-60019000D02*
X115174000Y-60019000D01*
X110378000Y-60019000D02*
X111736000Y-60019000D01*
X113816000Y-60059000D02*
X115190000Y-60059000D01*
X110362000Y-60059000D02*
X111736000Y-60059000D01*
X113816000Y-60099000D02*
X115204000Y-60099000D01*
X110348000Y-60099000D02*
X111736000Y-60099000D01*
X113816000Y-60139000D02*
X115218000Y-60139000D01*
X110334000Y-60139000D02*
X111736000Y-60139000D01*
X113816000Y-60179000D02*
X115231000Y-60179000D01*
X110321000Y-60179000D02*
X111736000Y-60179000D01*
X113816000Y-60219000D02*
X115244000Y-60219000D01*
X110308000Y-60219000D02*
X111736000Y-60219000D01*
X113816000Y-60259000D02*
X115256000Y-60259000D01*
X110296000Y-60259000D02*
X111736000Y-60259000D01*
X113816000Y-60300000D02*
X115267000Y-60300000D01*
X110285000Y-60300000D02*
X111736000Y-60300000D01*
X113816000Y-60340000D02*
X115277000Y-60340000D01*
X110275000Y-60340000D02*
X111736000Y-60340000D01*
X113816000Y-60380000D02*
X115287000Y-60380000D01*
X110265000Y-60380000D02*
X111736000Y-60380000D01*
X113816000Y-60420000D02*
X115296000Y-60420000D01*
X110256000Y-60420000D02*
X111736000Y-60420000D01*
X113816000Y-60460000D02*
X115304000Y-60460000D01*
X110248000Y-60460000D02*
X111736000Y-60460000D01*
X113816000Y-60500000D02*
X115312000Y-60500000D01*
X110240000Y-60500000D02*
X111736000Y-60500000D01*
X113816000Y-60540000D02*
X115319000Y-60540000D01*
X110233000Y-60540000D02*
X111736000Y-60540000D01*
X113816000Y-60580000D02*
X115326000Y-60580000D01*
X110226000Y-60580000D02*
X111736000Y-60580000D01*
X113816000Y-60620000D02*
X115332000Y-60620000D01*
X110220000Y-60620000D02*
X111736000Y-60620000D01*
X113816000Y-60660000D02*
X115337000Y-60660000D01*
X110215000Y-60660000D02*
X111736000Y-60660000D01*
X113816000Y-60700000D02*
X115341000Y-60700000D01*
X110211000Y-60700000D02*
X111736000Y-60700000D01*
X113816000Y-60740000D02*
X115345000Y-60740000D01*
X110207000Y-60740000D02*
X111736000Y-60740000D01*
X110203000Y-60780000D02*
X115349000Y-60780000D01*
X110200000Y-60820000D02*
X115352000Y-60820000D01*
X110198000Y-60860000D02*
X115354000Y-60860000D01*
X110197000Y-60900000D02*
X115355000Y-60900000D01*
X110196000Y-60940000D02*
X115356000Y-60940000D01*
X110196000Y-60980000D02*
X115356000Y-60980000D01*
X115396000Y-60980000D02*
G75*
G03*
X115396000Y-60980000I-2620000J0D01*
G01*
%TO.C,C1*%
X101653000Y-63534775D02*
X102153000Y-63534775D01*
X101903000Y-63784775D02*
X101903000Y-63284775D01*
X103094000Y-58379000D02*
X103662000Y-58379000D01*
X102860000Y-58419000D02*
X103896000Y-58419000D01*
X102701000Y-58459000D02*
X104055000Y-58459000D01*
X102573000Y-58499000D02*
X104183000Y-58499000D01*
X102463000Y-58539000D02*
X104293000Y-58539000D01*
X102367000Y-58579000D02*
X104389000Y-58579000D01*
X102280000Y-58619000D02*
X104476000Y-58619000D01*
X102200000Y-58659000D02*
X104556000Y-58659000D01*
X104418000Y-58699000D02*
X104629000Y-58699000D01*
X102127000Y-58699000D02*
X102338000Y-58699000D01*
X104418000Y-58739000D02*
X104697000Y-58739000D01*
X102059000Y-58739000D02*
X102338000Y-58739000D01*
X104418000Y-58779000D02*
X104761000Y-58779000D01*
X101995000Y-58779000D02*
X102338000Y-58779000D01*
X104418000Y-58819000D02*
X104821000Y-58819000D01*
X101935000Y-58819000D02*
X102338000Y-58819000D01*
X104418000Y-58859000D02*
X104878000Y-58859000D01*
X101878000Y-58859000D02*
X102338000Y-58859000D01*
X104418000Y-58899000D02*
X104932000Y-58899000D01*
X101824000Y-58899000D02*
X102338000Y-58899000D01*
X104418000Y-58939000D02*
X104983000Y-58939000D01*
X101773000Y-58939000D02*
X102338000Y-58939000D01*
X104418000Y-58979000D02*
X105031000Y-58979000D01*
X101725000Y-58979000D02*
X102338000Y-58979000D01*
X104418000Y-59019000D02*
X105077000Y-59019000D01*
X101679000Y-59019000D02*
X102338000Y-59019000D01*
X104418000Y-59059000D02*
X105121000Y-59059000D01*
X101635000Y-59059000D02*
X102338000Y-59059000D01*
X104418000Y-59099000D02*
X105163000Y-59099000D01*
X101593000Y-59099000D02*
X102338000Y-59099000D01*
X104418000Y-59139000D02*
X105204000Y-59139000D01*
X101552000Y-59139000D02*
X102338000Y-59139000D01*
X104418000Y-59179000D02*
X105242000Y-59179000D01*
X101514000Y-59179000D02*
X102338000Y-59179000D01*
X104418000Y-59219000D02*
X105279000Y-59219000D01*
X101477000Y-59219000D02*
X102338000Y-59219000D01*
X104418000Y-59259000D02*
X105315000Y-59259000D01*
X101441000Y-59259000D02*
X102338000Y-59259000D01*
X104418000Y-59299000D02*
X105349000Y-59299000D01*
X101407000Y-59299000D02*
X102338000Y-59299000D01*
X104418000Y-59339000D02*
X105382000Y-59339000D01*
X101374000Y-59339000D02*
X102338000Y-59339000D01*
X104418000Y-59379000D02*
X105413000Y-59379000D01*
X101343000Y-59379000D02*
X102338000Y-59379000D01*
X104418000Y-59419000D02*
X105443000Y-59419000D01*
X101313000Y-59419000D02*
X102338000Y-59419000D01*
X104418000Y-59459000D02*
X105473000Y-59459000D01*
X101283000Y-59459000D02*
X102338000Y-59459000D01*
X104418000Y-59499000D02*
X105500000Y-59499000D01*
X101256000Y-59499000D02*
X102338000Y-59499000D01*
X104418000Y-59539000D02*
X105527000Y-59539000D01*
X101229000Y-59539000D02*
X102338000Y-59539000D01*
X104418000Y-59579000D02*
X105553000Y-59579000D01*
X101203000Y-59579000D02*
X102338000Y-59579000D01*
X104418000Y-59619000D02*
X105578000Y-59619000D01*
X101178000Y-59619000D02*
X102338000Y-59619000D01*
X104418000Y-59659000D02*
X105602000Y-59659000D01*
X101154000Y-59659000D02*
X102338000Y-59659000D01*
X104418000Y-59699000D02*
X105625000Y-59699000D01*
X101131000Y-59699000D02*
X102338000Y-59699000D01*
X104418000Y-59739000D02*
X105646000Y-59739000D01*
X101110000Y-59739000D02*
X102338000Y-59739000D01*
X104418000Y-59779000D02*
X105668000Y-59779000D01*
X101088000Y-59779000D02*
X102338000Y-59779000D01*
X104418000Y-59819000D02*
X105688000Y-59819000D01*
X101068000Y-59819000D02*
X102338000Y-59819000D01*
X104418000Y-59859000D02*
X105707000Y-59859000D01*
X101049000Y-59859000D02*
X102338000Y-59859000D01*
X104418000Y-59899000D02*
X105726000Y-59899000D01*
X101030000Y-59899000D02*
X102338000Y-59899000D01*
X104418000Y-59939000D02*
X105743000Y-59939000D01*
X101013000Y-59939000D02*
X102338000Y-59939000D01*
X104418000Y-59979000D02*
X105760000Y-59979000D01*
X100996000Y-59979000D02*
X102338000Y-59979000D01*
X104418000Y-60019000D02*
X105776000Y-60019000D01*
X100980000Y-60019000D02*
X102338000Y-60019000D01*
X104418000Y-60059000D02*
X105792000Y-60059000D01*
X100964000Y-60059000D02*
X102338000Y-60059000D01*
X104418000Y-60099000D02*
X105806000Y-60099000D01*
X100950000Y-60099000D02*
X102338000Y-60099000D01*
X104418000Y-60139000D02*
X105820000Y-60139000D01*
X100936000Y-60139000D02*
X102338000Y-60139000D01*
X104418000Y-60179000D02*
X105833000Y-60179000D01*
X100923000Y-60179000D02*
X102338000Y-60179000D01*
X104418000Y-60219000D02*
X105846000Y-60219000D01*
X100910000Y-60219000D02*
X102338000Y-60219000D01*
X104418000Y-60259000D02*
X105858000Y-60259000D01*
X100898000Y-60259000D02*
X102338000Y-60259000D01*
X104418000Y-60300000D02*
X105869000Y-60300000D01*
X100887000Y-60300000D02*
X102338000Y-60300000D01*
X104418000Y-60340000D02*
X105879000Y-60340000D01*
X100877000Y-60340000D02*
X102338000Y-60340000D01*
X104418000Y-60380000D02*
X105889000Y-60380000D01*
X100867000Y-60380000D02*
X102338000Y-60380000D01*
X104418000Y-60420000D02*
X105898000Y-60420000D01*
X100858000Y-60420000D02*
X102338000Y-60420000D01*
X104418000Y-60460000D02*
X105906000Y-60460000D01*
X100850000Y-60460000D02*
X102338000Y-60460000D01*
X104418000Y-60500000D02*
X105914000Y-60500000D01*
X100842000Y-60500000D02*
X102338000Y-60500000D01*
X104418000Y-60540000D02*
X105921000Y-60540000D01*
X100835000Y-60540000D02*
X102338000Y-60540000D01*
X104418000Y-60580000D02*
X105928000Y-60580000D01*
X100828000Y-60580000D02*
X102338000Y-60580000D01*
X104418000Y-60620000D02*
X105934000Y-60620000D01*
X100822000Y-60620000D02*
X102338000Y-60620000D01*
X104418000Y-60660000D02*
X105939000Y-60660000D01*
X100817000Y-60660000D02*
X102338000Y-60660000D01*
X104418000Y-60700000D02*
X105943000Y-60700000D01*
X100813000Y-60700000D02*
X102338000Y-60700000D01*
X104418000Y-60740000D02*
X105947000Y-60740000D01*
X100809000Y-60740000D02*
X102338000Y-60740000D01*
X100805000Y-60780000D02*
X105951000Y-60780000D01*
X100802000Y-60820000D02*
X105954000Y-60820000D01*
X100800000Y-60860000D02*
X105956000Y-60860000D01*
X100799000Y-60900000D02*
X105957000Y-60900000D01*
X100798000Y-60940000D02*
X105958000Y-60940000D01*
X100798000Y-60980000D02*
X105958000Y-60980000D01*
X105998000Y-60980000D02*
G75*
G03*
X105998000Y-60980000I-2620000J0D01*
G01*
%TO.C,BZ1*%
X101842000Y-73994000D02*
G75*
G03*
X101842000Y-73994000I-7100000J0D01*
G01*
%TO.C,Y1*%
D11*
X108149190Y-89530190D02*
X108625380Y-89530190D01*
X107625380Y-89863523D02*
X108149190Y-89530190D01*
X107625380Y-89196857D01*
X108625380Y-88339714D02*
X108625380Y-88911142D01*
X108625380Y-88625428D02*
X107625380Y-88625428D01*
X107768238Y-88720666D01*
X107863476Y-88815904D01*
X107911095Y-88911142D01*
%TO.C,Q1*%
X83724761Y-68869619D02*
X83629523Y-68822000D01*
X83534285Y-68726761D01*
X83391428Y-68583904D01*
X83296190Y-68536285D01*
X83200952Y-68536285D01*
X83248571Y-68774380D02*
X83153333Y-68726761D01*
X83058095Y-68631523D01*
X83010476Y-68441047D01*
X83010476Y-68107714D01*
X83058095Y-67917238D01*
X83153333Y-67822000D01*
X83248571Y-67774380D01*
X83439047Y-67774380D01*
X83534285Y-67822000D01*
X83629523Y-67917238D01*
X83677142Y-68107714D01*
X83677142Y-68441047D01*
X83629523Y-68631523D01*
X83534285Y-68726761D01*
X83439047Y-68774380D01*
X83248571Y-68774380D01*
X84629523Y-68774380D02*
X84058095Y-68774380D01*
X84343809Y-68774380D02*
X84343809Y-67774380D01*
X84248571Y-67917238D01*
X84153333Y-68012476D01*
X84058095Y-68060095D01*
%TO.C,D3*%
X82827904Y-61262380D02*
X82827904Y-60262380D01*
X83066000Y-60262380D01*
X83208857Y-60310000D01*
X83304095Y-60405238D01*
X83351714Y-60500476D01*
X83399333Y-60690952D01*
X83399333Y-60833809D01*
X83351714Y-61024285D01*
X83304095Y-61119523D01*
X83208857Y-61214761D01*
X83066000Y-61262380D01*
X82827904Y-61262380D01*
X83732666Y-60262380D02*
X84351714Y-60262380D01*
X84018380Y-60643333D01*
X84161238Y-60643333D01*
X84256476Y-60690952D01*
X84304095Y-60738571D01*
X84351714Y-60833809D01*
X84351714Y-61071904D01*
X84304095Y-61167142D01*
X84256476Y-61214761D01*
X84161238Y-61262380D01*
X83875523Y-61262380D01*
X83780285Y-61214761D01*
X83732666Y-61167142D01*
%TO.C,U2*%
X113030095Y-65956380D02*
X113030095Y-66765904D01*
X113077714Y-66861142D01*
X113125333Y-66908761D01*
X113220571Y-66956380D01*
X113411047Y-66956380D01*
X113506285Y-66908761D01*
X113553904Y-66861142D01*
X113601523Y-66765904D01*
X113601523Y-65956380D01*
X114030095Y-66051619D02*
X114077714Y-66004000D01*
X114172952Y-65956380D01*
X114411047Y-65956380D01*
X114506285Y-66004000D01*
X114553904Y-66051619D01*
X114601523Y-66146857D01*
X114601523Y-66242095D01*
X114553904Y-66384952D01*
X113982476Y-66956380D01*
X114601523Y-66956380D01*
%TO.C,U1*%
X105410095Y-51316380D02*
X105410095Y-52125904D01*
X105457714Y-52221142D01*
X105505333Y-52268761D01*
X105600571Y-52316380D01*
X105791047Y-52316380D01*
X105886285Y-52268761D01*
X105933904Y-52221142D01*
X105981523Y-52125904D01*
X105981523Y-51316380D01*
X106981523Y-52316380D02*
X106410095Y-52316380D01*
X106695809Y-52316380D02*
X106695809Y-51316380D01*
X106600571Y-51459238D01*
X106505333Y-51554476D01*
X106410095Y-51602095D01*
%TO.C,R3*%
X81902380Y-82462666D02*
X81426190Y-82796000D01*
X81902380Y-83034095D02*
X80902380Y-83034095D01*
X80902380Y-82653142D01*
X80950000Y-82557904D01*
X80997619Y-82510285D01*
X81092857Y-82462666D01*
X81235714Y-82462666D01*
X81330952Y-82510285D01*
X81378571Y-82557904D01*
X81426190Y-82653142D01*
X81426190Y-83034095D01*
X80902380Y-82129333D02*
X80902380Y-81510285D01*
X81283333Y-81843619D01*
X81283333Y-81700761D01*
X81330952Y-81605523D01*
X81378571Y-81557904D01*
X81473809Y-81510285D01*
X81711904Y-81510285D01*
X81807142Y-81557904D01*
X81854761Y-81605523D01*
X81902380Y-81700761D01*
X81902380Y-81986476D01*
X81854761Y-82081714D01*
X81807142Y-82129333D01*
%TO.C,R2*%
X98131333Y-95110380D02*
X97798000Y-94634190D01*
X97559904Y-95110380D02*
X97559904Y-94110380D01*
X97940857Y-94110380D01*
X98036095Y-94158000D01*
X98083714Y-94205619D01*
X98131333Y-94300857D01*
X98131333Y-94443714D01*
X98083714Y-94538952D01*
X98036095Y-94586571D01*
X97940857Y-94634190D01*
X97559904Y-94634190D01*
X98512285Y-94205619D02*
X98559904Y-94158000D01*
X98655142Y-94110380D01*
X98893238Y-94110380D01*
X98988476Y-94158000D01*
X99036095Y-94205619D01*
X99083714Y-94300857D01*
X99083714Y-94396095D01*
X99036095Y-94538952D01*
X98464666Y-95110380D01*
X99083714Y-95110380D01*
%TO.C,R1*%
X118070333Y-54216380D02*
X117737000Y-53740190D01*
X117498904Y-54216380D02*
X117498904Y-53216380D01*
X117879857Y-53216380D01*
X117975095Y-53264000D01*
X118022714Y-53311619D01*
X118070333Y-53406857D01*
X118070333Y-53549714D01*
X118022714Y-53644952D01*
X117975095Y-53692571D01*
X117879857Y-53740190D01*
X117498904Y-53740190D01*
X119022714Y-54216380D02*
X118451285Y-54216380D01*
X118737000Y-54216380D02*
X118737000Y-53216380D01*
X118641761Y-53359238D01*
X118546523Y-53454476D01*
X118451285Y-53502095D01*
%TO.C,J2*%
X104314666Y-68242380D02*
X104314666Y-68956666D01*
X104267047Y-69099523D01*
X104171809Y-69194761D01*
X104028952Y-69242380D01*
X103933714Y-69242380D01*
X104743238Y-68337619D02*
X104790857Y-68290000D01*
X104886095Y-68242380D01*
X105124190Y-68242380D01*
X105219428Y-68290000D01*
X105267047Y-68337619D01*
X105314666Y-68432857D01*
X105314666Y-68528095D01*
X105267047Y-68670952D01*
X104695619Y-69242380D01*
X105314666Y-69242380D01*
%TO.C,J1*%
X99692380Y-59007333D02*
X100406666Y-59007333D01*
X100549523Y-59054952D01*
X100644761Y-59150190D01*
X100692380Y-59293047D01*
X100692380Y-59388285D01*
X100692380Y-58007333D02*
X100692380Y-58578761D01*
X100692380Y-58293047D02*
X99692380Y-58293047D01*
X99835238Y-58388285D01*
X99930476Y-58483523D01*
X99978095Y-58578761D01*
%TO.C,D2*%
X88923904Y-83106380D02*
X88923904Y-82106380D01*
X89162000Y-82106380D01*
X89304857Y-82154000D01*
X89400095Y-82249238D01*
X89447714Y-82344476D01*
X89495333Y-82534952D01*
X89495333Y-82677809D01*
X89447714Y-82868285D01*
X89400095Y-82963523D01*
X89304857Y-83058761D01*
X89162000Y-83106380D01*
X88923904Y-83106380D01*
X89876285Y-82201619D02*
X89923904Y-82154000D01*
X90019142Y-82106380D01*
X90257238Y-82106380D01*
X90352476Y-82154000D01*
X90400095Y-82201619D01*
X90447714Y-82296857D01*
X90447714Y-82392095D01*
X90400095Y-82534952D01*
X89828666Y-83106380D01*
X90447714Y-83106380D01*
%TO.C,D1*%
X117904380Y-61952095D02*
X116904380Y-61952095D01*
X116904380Y-61714000D01*
X116952000Y-61571142D01*
X117047238Y-61475904D01*
X117142476Y-61428285D01*
X117332952Y-61380666D01*
X117475809Y-61380666D01*
X117666285Y-61428285D01*
X117761523Y-61475904D01*
X117856761Y-61571142D01*
X117904380Y-61714000D01*
X117904380Y-61952095D01*
X117904380Y-60428285D02*
X117904380Y-60999714D01*
X117904380Y-60714000D02*
X116904380Y-60714000D01*
X117047238Y-60809238D01*
X117142476Y-60904476D01*
X117190095Y-60999714D01*
%TO.C,C4*%
X97075333Y-89297142D02*
X97027714Y-89344761D01*
X96884857Y-89392380D01*
X96789619Y-89392380D01*
X96646761Y-89344761D01*
X96551523Y-89249523D01*
X96503904Y-89154285D01*
X96456285Y-88963809D01*
X96456285Y-88820952D01*
X96503904Y-88630476D01*
X96551523Y-88535238D01*
X96646761Y-88440000D01*
X96789619Y-88392380D01*
X96884857Y-88392380D01*
X97027714Y-88440000D01*
X97075333Y-88487619D01*
X97932476Y-88725714D02*
X97932476Y-89392380D01*
X97694380Y-88344761D02*
X97456285Y-89059047D01*
X98075333Y-89059047D01*
%TO.C,C3*%
X97075333Y-84471142D02*
X97027714Y-84518761D01*
X96884857Y-84566380D01*
X96789619Y-84566380D01*
X96646761Y-84518761D01*
X96551523Y-84423523D01*
X96503904Y-84328285D01*
X96456285Y-84137809D01*
X96456285Y-83994952D01*
X96503904Y-83804476D01*
X96551523Y-83709238D01*
X96646761Y-83614000D01*
X96789619Y-83566380D01*
X96884857Y-83566380D01*
X97027714Y-83614000D01*
X97075333Y-83661619D01*
X97408666Y-83566380D02*
X98027714Y-83566380D01*
X97694380Y-83947333D01*
X97837238Y-83947333D01*
X97932476Y-83994952D01*
X97980095Y-84042571D01*
X98027714Y-84137809D01*
X98027714Y-84375904D01*
X97980095Y-84471142D01*
X97932476Y-84518761D01*
X97837238Y-84566380D01*
X97551523Y-84566380D01*
X97456285Y-84518761D01*
X97408666Y-84471142D01*
%TO.C,C2*%
X109383142Y-61146666D02*
X109430761Y-61194285D01*
X109478380Y-61337142D01*
X109478380Y-61432380D01*
X109430761Y-61575238D01*
X109335523Y-61670476D01*
X109240285Y-61718095D01*
X109049809Y-61765714D01*
X108906952Y-61765714D01*
X108716476Y-61718095D01*
X108621238Y-61670476D01*
X108526000Y-61575238D01*
X108478380Y-61432380D01*
X108478380Y-61337142D01*
X108526000Y-61194285D01*
X108573619Y-61146666D01*
X108573619Y-60765714D02*
X108526000Y-60718095D01*
X108478380Y-60622857D01*
X108478380Y-60384761D01*
X108526000Y-60289523D01*
X108573619Y-60241904D01*
X108668857Y-60194285D01*
X108764095Y-60194285D01*
X108906952Y-60241904D01*
X109478380Y-60813333D01*
X109478380Y-60194285D01*
%TO.C,C1*%
X99985142Y-61146666D02*
X100032761Y-61194285D01*
X100080380Y-61337142D01*
X100080380Y-61432380D01*
X100032761Y-61575238D01*
X99937523Y-61670476D01*
X99842285Y-61718095D01*
X99651809Y-61765714D01*
X99508952Y-61765714D01*
X99318476Y-61718095D01*
X99223238Y-61670476D01*
X99128000Y-61575238D01*
X99080380Y-61432380D01*
X99080380Y-61337142D01*
X99128000Y-61194285D01*
X99175619Y-61146666D01*
X100080380Y-60194285D02*
X100080380Y-60765714D01*
X100080380Y-60480000D02*
X99080380Y-60480000D01*
X99223238Y-60575238D01*
X99318476Y-60670476D01*
X99366095Y-60765714D01*
%TO.C,BZ1*%
X86440571Y-74714952D02*
X86488190Y-74572095D01*
X86535809Y-74524476D01*
X86631047Y-74476857D01*
X86773904Y-74476857D01*
X86869142Y-74524476D01*
X86916761Y-74572095D01*
X86964380Y-74667333D01*
X86964380Y-75048285D01*
X85964380Y-75048285D01*
X85964380Y-74714952D01*
X86012000Y-74619714D01*
X86059619Y-74572095D01*
X86154857Y-74524476D01*
X86250095Y-74524476D01*
X86345333Y-74572095D01*
X86392952Y-74619714D01*
X86440571Y-74714952D01*
X86440571Y-75048285D01*
X85964380Y-74143523D02*
X85964380Y-73476857D01*
X86964380Y-74143523D01*
X86964380Y-73476857D01*
X86964380Y-72572095D02*
X86964380Y-73143523D01*
X86964380Y-72857809D02*
X85964380Y-72857809D01*
X86107238Y-72953047D01*
X86202476Y-73048285D01*
X86250095Y-73143523D01*
X92273428Y-79384952D02*
X92273428Y-78623047D01*
X92654380Y-79004000D02*
X91892476Y-79004000D01*
%TD*%
M02*
