%TF.GenerationSoftware,KiCad,Pcbnew,(5.1.12)-1*%
%TF.CreationDate,2022-04-15T16:44:04+05:30*%
%TF.ProjectId,blind_gloves,626c696e-645f-4676-9c6f-7665732e6b69,rev?*%
%TF.SameCoordinates,Original*%
%TF.FileFunction,Soldermask,Top*%
%TF.FilePolarity,Negative*%
%FSLAX46Y46*%
G04 Gerber Fmt 4.6, Leading zero omitted, Abs format (unit mm)*
G04 Created by KiCad (PCBNEW (5.1.12)-1) date 2022-04-15 16:44:04*
%MOMM*%
%LPD*%
G01*
G04 APERTURE LIST*
%ADD10C,1.500000*%
%ADD11R,1.500000X1.500000*%
%ADD12C,1.800000*%
%ADD13R,1.800000X1.800000*%
%ADD14O,1.600000X1.600000*%
%ADD15R,1.600000X1.600000*%
%ADD16O,1.905000X2.000000*%
%ADD17R,1.905000X2.000000*%
%ADD18C,1.600000*%
%ADD19O,1.700000X1.700000*%
%ADD20R,1.700000X1.700000*%
%ADD21C,2.600000*%
%ADD22R,2.600000X2.600000*%
%ADD23R,2.000000X2.000000*%
%ADD24C,2.000000*%
G04 APERTURE END LIST*
D10*
%TO.C,Y1*%
X104648000Y-91494000D03*
X104648000Y-86614000D03*
%TD*%
D11*
%TO.C,Q1*%
X81280000Y-71882000D03*
D10*
X86360000Y-71882000D03*
X83820000Y-71882000D03*
%TD*%
D12*
%TO.C,D3*%
X84836000Y-64770000D03*
D13*
X82296000Y-64770000D03*
%TD*%
D14*
%TO.C,U2*%
X117602000Y-68834000D03*
X109982000Y-101854000D03*
X117602000Y-71374000D03*
X109982000Y-99314000D03*
X117602000Y-73914000D03*
X109982000Y-96774000D03*
X117602000Y-76454000D03*
X109982000Y-94234000D03*
X117602000Y-78994000D03*
X109982000Y-91694000D03*
X117602000Y-81534000D03*
X109982000Y-89154000D03*
X117602000Y-84074000D03*
X109982000Y-86614000D03*
X117602000Y-86614000D03*
X109982000Y-84074000D03*
X117602000Y-89154000D03*
X109982000Y-81534000D03*
X117602000Y-91694000D03*
X109982000Y-78994000D03*
X117602000Y-94234000D03*
X109982000Y-76454000D03*
X117602000Y-96774000D03*
X109982000Y-73914000D03*
X117602000Y-99314000D03*
X109982000Y-71374000D03*
X117602000Y-101854000D03*
D15*
X109982000Y-68834000D03*
%TD*%
D16*
%TO.C,U1*%
X108712000Y-56134000D03*
X106172000Y-56134000D03*
D17*
X103632000Y-56134000D03*
%TD*%
D14*
%TO.C,R3*%
X83820000Y-77216000D03*
D18*
X83820000Y-87376000D03*
%TD*%
D14*
%TO.C,R2*%
X103378000Y-97028000D03*
D18*
X93218000Y-97028000D03*
%TD*%
D14*
%TO.C,R1*%
X123317000Y-56134000D03*
D18*
X113157000Y-56134000D03*
%TD*%
D19*
%TO.C,J2*%
X104648000Y-78740000D03*
X104648000Y-76200000D03*
X104648000Y-73660000D03*
D20*
X104648000Y-71120000D03*
%TD*%
D21*
%TO.C,J1*%
X93980000Y-61214000D03*
D22*
X93980000Y-56134000D03*
%TD*%
D12*
%TO.C,D2*%
X90932000Y-86614000D03*
D13*
X88392000Y-86614000D03*
%TD*%
D12*
%TO.C,D1*%
X121412000Y-59944000D03*
D13*
X121412000Y-62484000D03*
%TD*%
D18*
%TO.C,C4*%
X99742000Y-91440000D03*
X94742000Y-91440000D03*
%TD*%
%TO.C,C3*%
X99742000Y-86614000D03*
X94742000Y-86614000D03*
%TD*%
%TO.C,C2*%
X112776000Y-59730000D03*
D15*
X112776000Y-62230000D03*
%TD*%
D18*
%TO.C,C1*%
X103378000Y-59730000D03*
D15*
X103378000Y-62230000D03*
%TD*%
D23*
%TO.C,BZ1*%
X94742000Y-78994000D03*
D24*
X94742000Y-68994000D03*
%TD*%
M02*
