%TF.GenerationSoftware,KiCad,Pcbnew,(5.1.12)-1*%
%TF.CreationDate,2022-02-17T13:12:57+05:30*%
%TF.ProjectId,vehilcletheftdetection,76656869-6c63-46c6-9574-686566746465,rev?*%
%TF.SameCoordinates,Original*%
%TF.FileFunction,Legend,Top*%
%TF.FilePolarity,Positive*%
%FSLAX46Y46*%
G04 Gerber Fmt 4.6, Leading zero omitted, Abs format (unit mm)*
G04 Created by KiCad (PCBNEW (5.1.12)-1) date 2022-02-17 13:12:57*
%MOMM*%
%LPD*%
G01*
G04 APERTURE LIST*
%ADD10C,0.120000*%
%ADD11C,0.150000*%
G04 APERTURE END LIST*
D10*
%TO.C,R1*%
X59150500Y-100484000D02*
X59150500Y-103224000D01*
X59150500Y-103224000D02*
X65690500Y-103224000D01*
X65690500Y-103224000D02*
X65690500Y-100484000D01*
X65690500Y-100484000D02*
X59150500Y-100484000D01*
X58380500Y-101854000D02*
X59150500Y-101854000D01*
X66460500Y-101854000D02*
X65690500Y-101854000D01*
%TO.C,R3*%
X78073000Y-44931000D02*
X78073000Y-42191000D01*
X78073000Y-42191000D02*
X71533000Y-42191000D01*
X71533000Y-42191000D02*
X71533000Y-44931000D01*
X71533000Y-44931000D02*
X78073000Y-44931000D01*
X78843000Y-43561000D02*
X78073000Y-43561000D01*
X70763000Y-43561000D02*
X71533000Y-43561000D01*
%TO.C,Q1*%
X58532500Y-47596500D02*
X58532500Y-43746500D01*
X57944764Y-43354117D02*
G75*
G02*
X58532500Y-43746500I-1112264J-2302383D01*
G01*
X55733693Y-43300100D02*
G75*
G03*
X54232500Y-45656500I1098807J-2356400D01*
G01*
X55733693Y-48012900D02*
G75*
G02*
X54232500Y-45656500I1098807J2356400D01*
G01*
X57954545Y-47979131D02*
G75*
G03*
X58532500Y-47596500I-1122045J2322631D01*
G01*
%TO.C,K1*%
X38942000Y-56810000D02*
X42092000Y-56810000D01*
X33092000Y-56810000D02*
X36242000Y-56810000D01*
X36592000Y-51700000D02*
X38592000Y-51700000D01*
X37242000Y-57410000D02*
X37942000Y-57410000D01*
X37242000Y-56210000D02*
X37242000Y-57410000D01*
X37942000Y-56210000D02*
X37242000Y-56210000D01*
X37942000Y-57410000D02*
X37942000Y-56210000D01*
X37242000Y-57010000D02*
X37942000Y-56610000D01*
X29242000Y-74660000D02*
X45942000Y-74660000D01*
X29242000Y-51960000D02*
X29242000Y-74660000D01*
X45942000Y-51960000D02*
X29242000Y-51960000D01*
X45942000Y-74660000D02*
X45942000Y-51960000D01*
%TO.C,J8*%
X31803000Y-88600000D02*
X31803000Y-89100000D01*
X32543000Y-88600000D02*
X31803000Y-88600000D01*
X35680000Y-95293000D02*
X35634000Y-95246000D01*
X37978000Y-97590000D02*
X37942000Y-97555000D01*
X35464000Y-95486000D02*
X35429000Y-95451000D01*
X37772000Y-97795000D02*
X37726000Y-97748000D01*
X41964000Y-99120000D02*
X32043000Y-99120000D01*
X41964000Y-88840000D02*
X32043000Y-88840000D01*
X32043000Y-88840000D02*
X32043000Y-99120000D01*
X41964000Y-88840000D02*
X41964000Y-99120000D01*
X39004000Y-88840000D02*
X39004000Y-99120000D01*
X34103000Y-88840000D02*
X34103000Y-99120000D01*
X32603000Y-88840000D02*
X32603000Y-99120000D01*
X38383000Y-96520000D02*
G75*
G03*
X38383000Y-96520000I-1680000J0D01*
G01*
X35022747Y-91468805D02*
G75*
G02*
X35168000Y-90756000I1680253J28805D01*
G01*
X36019958Y-89904574D02*
G75*
G02*
X37387000Y-89905000I683042J-1535426D01*
G01*
X38238426Y-90756958D02*
G75*
G02*
X38238000Y-92124000I-1535426J-683042D01*
G01*
X37386042Y-92975426D02*
G75*
G02*
X36019000Y-92975000I-683042J1535426D01*
G01*
X35168244Y-92123318D02*
G75*
G02*
X35023000Y-91440000I1534756J683318D01*
G01*
D11*
%TO.C,U2*%
X75944600Y-98319100D02*
X65774600Y-98319100D01*
X67464600Y-57189100D02*
X56464600Y-57189100D01*
X67464600Y-50059100D02*
X67464600Y-57189100D01*
X56464600Y-57189100D02*
X56464600Y-50059100D01*
X58164600Y-99319100D02*
X58164600Y-93589100D01*
X58164600Y-93589100D02*
X65764600Y-93589100D01*
X65764600Y-93589100D02*
X65764600Y-99319100D01*
X65764600Y-99319100D02*
X58164600Y-99319100D01*
X77204600Y-51329100D02*
X77204600Y-97049100D01*
X46724600Y-51329100D02*
X46724600Y-97049100D01*
X58164600Y-98319100D02*
X47994600Y-98319100D01*
X76460651Y-95779100D02*
G75*
G03*
X76460651Y-95779100I-1796051J0D01*
G01*
X51060651Y-95779100D02*
G75*
G03*
X51060651Y-95779100I-1796051J0D01*
G01*
X51060651Y-52599100D02*
G75*
G03*
X51060651Y-52599100I-1796051J0D01*
G01*
X76460651Y-52599100D02*
G75*
G03*
X76460651Y-52599100I-1796051J0D01*
G01*
X75934600Y-50059100D02*
X47994600Y-50059100D01*
X46724600Y-97049100D02*
G75*
G03*
X47994600Y-98319100I1270000J0D01*
G01*
X75934600Y-98319100D02*
G75*
G03*
X77204600Y-97049100I0J1270000D01*
G01*
X77204600Y-51329100D02*
G75*
G03*
X75934600Y-50059100I-1270000J0D01*
G01*
X47994600Y-50059100D02*
G75*
G03*
X46724600Y-51329100I0J-1270000D01*
G01*
D10*
%TO.C,U1*%
X45362500Y-98965000D02*
X55602500Y-98965000D01*
X45362500Y-103606000D02*
X55602500Y-103606000D01*
X45362500Y-98965000D02*
X45362500Y-103606000D01*
X55602500Y-98965000D02*
X55602500Y-103606000D01*
X45362500Y-100475000D02*
X55602500Y-100475000D01*
X48632500Y-98965000D02*
X48632500Y-100475000D01*
X52333500Y-98965000D02*
X52333500Y-100475000D01*
%TO.C,R2*%
X62452500Y-46191500D02*
X62452500Y-48931500D01*
X62452500Y-48931500D02*
X68992500Y-48931500D01*
X68992500Y-48931500D02*
X68992500Y-46191500D01*
X68992500Y-46191500D02*
X62452500Y-46191500D01*
X61682500Y-47561500D02*
X62452500Y-47561500D01*
X69762500Y-47561500D02*
X68992500Y-47561500D01*
%TO.C,J7*%
X81347000Y-97088000D02*
X84007000Y-97088000D01*
X81347000Y-89408000D02*
X81347000Y-97088000D01*
X84007000Y-89408000D02*
X84007000Y-97088000D01*
X81347000Y-89408000D02*
X84007000Y-89408000D01*
X81347000Y-88138000D02*
X81347000Y-86808000D01*
X81347000Y-86808000D02*
X82677000Y-86808000D01*
%TO.C,J6*%
X38065500Y-83566000D02*
G75*
G03*
X38065500Y-83566000I-1680000J0D01*
G01*
X32285500Y-75886000D02*
X32285500Y-86166000D01*
X33785500Y-75886000D02*
X33785500Y-86166000D01*
X38686500Y-75886000D02*
X38686500Y-86166000D01*
X41646500Y-75886000D02*
X41646500Y-86166000D01*
X31725500Y-75886000D02*
X31725500Y-86166000D01*
X41646500Y-75886000D02*
X31725500Y-75886000D01*
X41646500Y-86166000D02*
X31725500Y-86166000D01*
X37454500Y-84841000D02*
X37408500Y-84794000D01*
X35146500Y-82532000D02*
X35111500Y-82497000D01*
X37660500Y-84636000D02*
X37624500Y-84601000D01*
X35362500Y-82339000D02*
X35316500Y-82292000D01*
X32225500Y-75646000D02*
X31485500Y-75646000D01*
X31485500Y-75646000D02*
X31485500Y-76146000D01*
X34705247Y-78514805D02*
G75*
G02*
X34850500Y-77802000I1680253J28805D01*
G01*
X35702458Y-76950574D02*
G75*
G02*
X37069500Y-76951000I683042J-1535426D01*
G01*
X37920926Y-77802958D02*
G75*
G02*
X37920500Y-79170000I-1535426J-683042D01*
G01*
X37068542Y-80021426D02*
G75*
G02*
X35701500Y-80021000I-683042J1535426D01*
G01*
X34850744Y-79169318D02*
G75*
G02*
X34705500Y-78486000I1534756J683318D01*
G01*
%TO.C,J5*%
X81220000Y-62798000D02*
X83880000Y-62798000D01*
X81220000Y-55118000D02*
X81220000Y-62798000D01*
X83880000Y-55118000D02*
X83880000Y-62798000D01*
X81220000Y-55118000D02*
X83880000Y-55118000D01*
X81220000Y-53848000D02*
X81220000Y-52518000D01*
X81220000Y-52518000D02*
X82550000Y-52518000D01*
%TO.C,J4*%
X73536500Y-46231500D02*
X73536500Y-48891500D01*
X81216500Y-46231500D02*
X73536500Y-46231500D01*
X81216500Y-48891500D02*
X73536500Y-48891500D01*
X81216500Y-46231500D02*
X81216500Y-48891500D01*
X82486500Y-46231500D02*
X83816500Y-46231500D01*
X83816500Y-46231500D02*
X83816500Y-47561500D01*
%TO.C,J3*%
X81347000Y-74609000D02*
X84007000Y-74609000D01*
X81347000Y-66929000D02*
X81347000Y-74609000D01*
X84007000Y-66929000D02*
X84007000Y-74609000D01*
X81347000Y-66929000D02*
X84007000Y-66929000D01*
X81347000Y-65659000D02*
X81347000Y-64329000D01*
X81347000Y-64329000D02*
X82677000Y-64329000D01*
%TO.C,J2*%
X84007000Y-75568500D02*
X81347000Y-75568500D01*
X84007000Y-83248500D02*
X84007000Y-75568500D01*
X81347000Y-83248500D02*
X81347000Y-75568500D01*
X84007000Y-83248500D02*
X81347000Y-83248500D01*
X84007000Y-84518500D02*
X84007000Y-85848500D01*
X84007000Y-85848500D02*
X82677000Y-85848500D01*
%TO.C,J1*%
X38383000Y-107886500D02*
G75*
G03*
X38383000Y-107886500I-1680000J0D01*
G01*
X32603000Y-100206500D02*
X32603000Y-110486500D01*
X34103000Y-100206500D02*
X34103000Y-110486500D01*
X39004000Y-100206500D02*
X39004000Y-110486500D01*
X41964000Y-100206500D02*
X41964000Y-110486500D01*
X32043000Y-100206500D02*
X32043000Y-110486500D01*
X41964000Y-100206500D02*
X32043000Y-100206500D01*
X41964000Y-110486500D02*
X32043000Y-110486500D01*
X37772000Y-109161500D02*
X37726000Y-109114500D01*
X35464000Y-106852500D02*
X35429000Y-106817500D01*
X37978000Y-108956500D02*
X37942000Y-108921500D01*
X35680000Y-106659500D02*
X35634000Y-106612500D01*
X32543000Y-99966500D02*
X31803000Y-99966500D01*
X31803000Y-99966500D02*
X31803000Y-100466500D01*
X35022747Y-102835305D02*
G75*
G02*
X35168000Y-102122500I1680253J28805D01*
G01*
X36019958Y-101271074D02*
G75*
G02*
X37387000Y-101271500I683042J-1535426D01*
G01*
X38238426Y-102123458D02*
G75*
G02*
X38238000Y-103490500I-1535426J-683042D01*
G01*
X37386042Y-104341926D02*
G75*
G02*
X36019000Y-104341500I-683042J1535426D01*
G01*
X35168244Y-103489818D02*
G75*
G02*
X35023000Y-102806500I1534756J683318D01*
G01*
%TO.C,D3*%
X66444500Y-42545000D02*
G75*
G03*
X66444500Y-42545000I-2500000J0D01*
G01*
X65489500Y-39985000D02*
X62399500Y-39985000D01*
X63944962Y-45535000D02*
G75*
G02*
X62399670Y-39985000I-462J2990000D01*
G01*
X63944038Y-45535000D02*
G75*
G03*
X65489330Y-39985000I462J2990000D01*
G01*
%TO.C,D2*%
X44587500Y-46409000D02*
X44587500Y-49349000D01*
X44587500Y-49349000D02*
X50027500Y-49349000D01*
X50027500Y-49349000D02*
X50027500Y-46409000D01*
X50027500Y-46409000D02*
X44587500Y-46409000D01*
X43567500Y-47879000D02*
X44587500Y-47879000D01*
X51047500Y-47879000D02*
X50027500Y-47879000D01*
X45487500Y-46409000D02*
X45487500Y-49349000D01*
X45607500Y-46409000D02*
X45607500Y-49349000D01*
X45367500Y-46409000D02*
X45367500Y-49349000D01*
%TO.C,D1*%
X75271000Y-103187500D02*
G75*
G03*
X75271000Y-103187500I-2500000J0D01*
G01*
X71226000Y-105747500D02*
X74316000Y-105747500D01*
X72770538Y-100197500D02*
G75*
G02*
X74315830Y-105747500I462J-2990000D01*
G01*
X72771462Y-100197500D02*
G75*
G03*
X71226170Y-105747500I-462J-2990000D01*
G01*
%TO.C,C2*%
X56927500Y-107739500D02*
G75*
G03*
X56927500Y-107739500I-3270000J0D01*
G01*
X56887500Y-107739500D02*
X50427500Y-107739500D01*
X56887500Y-107779500D02*
X50427500Y-107779500D01*
X56887500Y-107819500D02*
X50427500Y-107819500D01*
X56885500Y-107859500D02*
X50429500Y-107859500D01*
X56884500Y-107899500D02*
X50430500Y-107899500D01*
X56881500Y-107939500D02*
X50433500Y-107939500D01*
X56879500Y-107979500D02*
X54697500Y-107979500D01*
X52617500Y-107979500D02*
X50435500Y-107979500D01*
X56875500Y-108019500D02*
X54697500Y-108019500D01*
X52617500Y-108019500D02*
X50439500Y-108019500D01*
X56872500Y-108059500D02*
X54697500Y-108059500D01*
X52617500Y-108059500D02*
X50442500Y-108059500D01*
X56868500Y-108099500D02*
X54697500Y-108099500D01*
X52617500Y-108099500D02*
X50446500Y-108099500D01*
X56863500Y-108139500D02*
X54697500Y-108139500D01*
X52617500Y-108139500D02*
X50451500Y-108139500D01*
X56858500Y-108179500D02*
X54697500Y-108179500D01*
X52617500Y-108179500D02*
X50456500Y-108179500D01*
X56852500Y-108219500D02*
X54697500Y-108219500D01*
X52617500Y-108219500D02*
X50462500Y-108219500D01*
X56846500Y-108259500D02*
X54697500Y-108259500D01*
X52617500Y-108259500D02*
X50468500Y-108259500D01*
X56839500Y-108299500D02*
X54697500Y-108299500D01*
X52617500Y-108299500D02*
X50475500Y-108299500D01*
X56832500Y-108339500D02*
X54697500Y-108339500D01*
X52617500Y-108339500D02*
X50482500Y-108339500D01*
X56824500Y-108379500D02*
X54697500Y-108379500D01*
X52617500Y-108379500D02*
X50490500Y-108379500D01*
X56816500Y-108419500D02*
X54697500Y-108419500D01*
X52617500Y-108419500D02*
X50498500Y-108419500D01*
X56807500Y-108460500D02*
X54697500Y-108460500D01*
X52617500Y-108460500D02*
X50507500Y-108460500D01*
X56798500Y-108500500D02*
X54697500Y-108500500D01*
X52617500Y-108500500D02*
X50516500Y-108500500D01*
X56788500Y-108540500D02*
X54697500Y-108540500D01*
X52617500Y-108540500D02*
X50526500Y-108540500D01*
X56778500Y-108580500D02*
X54697500Y-108580500D01*
X52617500Y-108580500D02*
X50536500Y-108580500D01*
X56767500Y-108620500D02*
X54697500Y-108620500D01*
X52617500Y-108620500D02*
X50547500Y-108620500D01*
X56755500Y-108660500D02*
X54697500Y-108660500D01*
X52617500Y-108660500D02*
X50559500Y-108660500D01*
X56743500Y-108700500D02*
X54697500Y-108700500D01*
X52617500Y-108700500D02*
X50571500Y-108700500D01*
X56731500Y-108740500D02*
X54697500Y-108740500D01*
X52617500Y-108740500D02*
X50583500Y-108740500D01*
X56718500Y-108780500D02*
X54697500Y-108780500D01*
X52617500Y-108780500D02*
X50596500Y-108780500D01*
X56704500Y-108820500D02*
X54697500Y-108820500D01*
X52617500Y-108820500D02*
X50610500Y-108820500D01*
X56690500Y-108860500D02*
X54697500Y-108860500D01*
X52617500Y-108860500D02*
X50624500Y-108860500D01*
X56675500Y-108900500D02*
X54697500Y-108900500D01*
X52617500Y-108900500D02*
X50639500Y-108900500D01*
X56659500Y-108940500D02*
X54697500Y-108940500D01*
X52617500Y-108940500D02*
X50655500Y-108940500D01*
X56643500Y-108980500D02*
X54697500Y-108980500D01*
X52617500Y-108980500D02*
X50671500Y-108980500D01*
X56627500Y-109020500D02*
X54697500Y-109020500D01*
X52617500Y-109020500D02*
X50687500Y-109020500D01*
X56609500Y-109060500D02*
X54697500Y-109060500D01*
X52617500Y-109060500D02*
X50705500Y-109060500D01*
X56591500Y-109100500D02*
X54697500Y-109100500D01*
X52617500Y-109100500D02*
X50723500Y-109100500D01*
X56573500Y-109140500D02*
X54697500Y-109140500D01*
X52617500Y-109140500D02*
X50741500Y-109140500D01*
X56553500Y-109180500D02*
X54697500Y-109180500D01*
X52617500Y-109180500D02*
X50761500Y-109180500D01*
X56533500Y-109220500D02*
X54697500Y-109220500D01*
X52617500Y-109220500D02*
X50781500Y-109220500D01*
X56513500Y-109260500D02*
X54697500Y-109260500D01*
X52617500Y-109260500D02*
X50801500Y-109260500D01*
X56491500Y-109300500D02*
X54697500Y-109300500D01*
X52617500Y-109300500D02*
X50823500Y-109300500D01*
X56469500Y-109340500D02*
X54697500Y-109340500D01*
X52617500Y-109340500D02*
X50845500Y-109340500D01*
X56447500Y-109380500D02*
X54697500Y-109380500D01*
X52617500Y-109380500D02*
X50867500Y-109380500D01*
X56423500Y-109420500D02*
X54697500Y-109420500D01*
X52617500Y-109420500D02*
X50891500Y-109420500D01*
X56399500Y-109460500D02*
X54697500Y-109460500D01*
X52617500Y-109460500D02*
X50915500Y-109460500D01*
X56373500Y-109500500D02*
X54697500Y-109500500D01*
X52617500Y-109500500D02*
X50941500Y-109500500D01*
X56347500Y-109540500D02*
X54697500Y-109540500D01*
X52617500Y-109540500D02*
X50967500Y-109540500D01*
X56321500Y-109580500D02*
X54697500Y-109580500D01*
X52617500Y-109580500D02*
X50993500Y-109580500D01*
X56293500Y-109620500D02*
X54697500Y-109620500D01*
X52617500Y-109620500D02*
X51021500Y-109620500D01*
X56264500Y-109660500D02*
X54697500Y-109660500D01*
X52617500Y-109660500D02*
X51050500Y-109660500D01*
X56235500Y-109700500D02*
X54697500Y-109700500D01*
X52617500Y-109700500D02*
X51079500Y-109700500D01*
X56205500Y-109740500D02*
X54697500Y-109740500D01*
X52617500Y-109740500D02*
X51109500Y-109740500D01*
X56173500Y-109780500D02*
X54697500Y-109780500D01*
X52617500Y-109780500D02*
X51141500Y-109780500D01*
X56141500Y-109820500D02*
X54697500Y-109820500D01*
X52617500Y-109820500D02*
X51173500Y-109820500D01*
X56107500Y-109860500D02*
X54697500Y-109860500D01*
X52617500Y-109860500D02*
X51207500Y-109860500D01*
X56073500Y-109900500D02*
X54697500Y-109900500D01*
X52617500Y-109900500D02*
X51241500Y-109900500D01*
X56037500Y-109940500D02*
X54697500Y-109940500D01*
X52617500Y-109940500D02*
X51277500Y-109940500D01*
X56000500Y-109980500D02*
X54697500Y-109980500D01*
X52617500Y-109980500D02*
X51314500Y-109980500D01*
X55962500Y-110020500D02*
X54697500Y-110020500D01*
X52617500Y-110020500D02*
X51352500Y-110020500D01*
X55922500Y-110060500D02*
X51392500Y-110060500D01*
X55881500Y-110100500D02*
X51433500Y-110100500D01*
X55839500Y-110140500D02*
X51475500Y-110140500D01*
X55794500Y-110180500D02*
X51520500Y-110180500D01*
X55749500Y-110220500D02*
X51565500Y-110220500D01*
X55701500Y-110260500D02*
X51613500Y-110260500D01*
X55652500Y-110300500D02*
X51662500Y-110300500D01*
X55601500Y-110340500D02*
X51713500Y-110340500D01*
X55547500Y-110380500D02*
X51767500Y-110380500D01*
X55491500Y-110420500D02*
X51823500Y-110420500D01*
X55433500Y-110460500D02*
X51881500Y-110460500D01*
X55371500Y-110500500D02*
X51943500Y-110500500D01*
X55307500Y-110540500D02*
X52007500Y-110540500D01*
X55238500Y-110580500D02*
X52076500Y-110580500D01*
X55166500Y-110620500D02*
X52148500Y-110620500D01*
X55089500Y-110660500D02*
X52225500Y-110660500D01*
X55007500Y-110700500D02*
X52307500Y-110700500D01*
X54919500Y-110740500D02*
X52395500Y-110740500D01*
X54822500Y-110780500D02*
X52492500Y-110780500D01*
X54716500Y-110820500D02*
X52598500Y-110820500D01*
X54597500Y-110860500D02*
X52717500Y-110860500D01*
X54459500Y-110900500D02*
X52855500Y-110900500D01*
X54290500Y-110940500D02*
X53024500Y-110940500D01*
X54059500Y-110980500D02*
X53255500Y-110980500D01*
X55496500Y-104239259D02*
X55496500Y-104869259D01*
X55811500Y-104554259D02*
X55181500Y-104554259D01*
%TO.C,C1*%
X49625000Y-107612500D02*
G75*
G03*
X49625000Y-107612500I-3270000J0D01*
G01*
X49585000Y-107612500D02*
X43125000Y-107612500D01*
X49585000Y-107652500D02*
X43125000Y-107652500D01*
X49585000Y-107692500D02*
X43125000Y-107692500D01*
X49583000Y-107732500D02*
X43127000Y-107732500D01*
X49582000Y-107772500D02*
X43128000Y-107772500D01*
X49579000Y-107812500D02*
X43131000Y-107812500D01*
X49577000Y-107852500D02*
X47395000Y-107852500D01*
X45315000Y-107852500D02*
X43133000Y-107852500D01*
X49573000Y-107892500D02*
X47395000Y-107892500D01*
X45315000Y-107892500D02*
X43137000Y-107892500D01*
X49570000Y-107932500D02*
X47395000Y-107932500D01*
X45315000Y-107932500D02*
X43140000Y-107932500D01*
X49566000Y-107972500D02*
X47395000Y-107972500D01*
X45315000Y-107972500D02*
X43144000Y-107972500D01*
X49561000Y-108012500D02*
X47395000Y-108012500D01*
X45315000Y-108012500D02*
X43149000Y-108012500D01*
X49556000Y-108052500D02*
X47395000Y-108052500D01*
X45315000Y-108052500D02*
X43154000Y-108052500D01*
X49550000Y-108092500D02*
X47395000Y-108092500D01*
X45315000Y-108092500D02*
X43160000Y-108092500D01*
X49544000Y-108132500D02*
X47395000Y-108132500D01*
X45315000Y-108132500D02*
X43166000Y-108132500D01*
X49537000Y-108172500D02*
X47395000Y-108172500D01*
X45315000Y-108172500D02*
X43173000Y-108172500D01*
X49530000Y-108212500D02*
X47395000Y-108212500D01*
X45315000Y-108212500D02*
X43180000Y-108212500D01*
X49522000Y-108252500D02*
X47395000Y-108252500D01*
X45315000Y-108252500D02*
X43188000Y-108252500D01*
X49514000Y-108292500D02*
X47395000Y-108292500D01*
X45315000Y-108292500D02*
X43196000Y-108292500D01*
X49505000Y-108333500D02*
X47395000Y-108333500D01*
X45315000Y-108333500D02*
X43205000Y-108333500D01*
X49496000Y-108373500D02*
X47395000Y-108373500D01*
X45315000Y-108373500D02*
X43214000Y-108373500D01*
X49486000Y-108413500D02*
X47395000Y-108413500D01*
X45315000Y-108413500D02*
X43224000Y-108413500D01*
X49476000Y-108453500D02*
X47395000Y-108453500D01*
X45315000Y-108453500D02*
X43234000Y-108453500D01*
X49465000Y-108493500D02*
X47395000Y-108493500D01*
X45315000Y-108493500D02*
X43245000Y-108493500D01*
X49453000Y-108533500D02*
X47395000Y-108533500D01*
X45315000Y-108533500D02*
X43257000Y-108533500D01*
X49441000Y-108573500D02*
X47395000Y-108573500D01*
X45315000Y-108573500D02*
X43269000Y-108573500D01*
X49429000Y-108613500D02*
X47395000Y-108613500D01*
X45315000Y-108613500D02*
X43281000Y-108613500D01*
X49416000Y-108653500D02*
X47395000Y-108653500D01*
X45315000Y-108653500D02*
X43294000Y-108653500D01*
X49402000Y-108693500D02*
X47395000Y-108693500D01*
X45315000Y-108693500D02*
X43308000Y-108693500D01*
X49388000Y-108733500D02*
X47395000Y-108733500D01*
X45315000Y-108733500D02*
X43322000Y-108733500D01*
X49373000Y-108773500D02*
X47395000Y-108773500D01*
X45315000Y-108773500D02*
X43337000Y-108773500D01*
X49357000Y-108813500D02*
X47395000Y-108813500D01*
X45315000Y-108813500D02*
X43353000Y-108813500D01*
X49341000Y-108853500D02*
X47395000Y-108853500D01*
X45315000Y-108853500D02*
X43369000Y-108853500D01*
X49325000Y-108893500D02*
X47395000Y-108893500D01*
X45315000Y-108893500D02*
X43385000Y-108893500D01*
X49307000Y-108933500D02*
X47395000Y-108933500D01*
X45315000Y-108933500D02*
X43403000Y-108933500D01*
X49289000Y-108973500D02*
X47395000Y-108973500D01*
X45315000Y-108973500D02*
X43421000Y-108973500D01*
X49271000Y-109013500D02*
X47395000Y-109013500D01*
X45315000Y-109013500D02*
X43439000Y-109013500D01*
X49251000Y-109053500D02*
X47395000Y-109053500D01*
X45315000Y-109053500D02*
X43459000Y-109053500D01*
X49231000Y-109093500D02*
X47395000Y-109093500D01*
X45315000Y-109093500D02*
X43479000Y-109093500D01*
X49211000Y-109133500D02*
X47395000Y-109133500D01*
X45315000Y-109133500D02*
X43499000Y-109133500D01*
X49189000Y-109173500D02*
X47395000Y-109173500D01*
X45315000Y-109173500D02*
X43521000Y-109173500D01*
X49167000Y-109213500D02*
X47395000Y-109213500D01*
X45315000Y-109213500D02*
X43543000Y-109213500D01*
X49145000Y-109253500D02*
X47395000Y-109253500D01*
X45315000Y-109253500D02*
X43565000Y-109253500D01*
X49121000Y-109293500D02*
X47395000Y-109293500D01*
X45315000Y-109293500D02*
X43589000Y-109293500D01*
X49097000Y-109333500D02*
X47395000Y-109333500D01*
X45315000Y-109333500D02*
X43613000Y-109333500D01*
X49071000Y-109373500D02*
X47395000Y-109373500D01*
X45315000Y-109373500D02*
X43639000Y-109373500D01*
X49045000Y-109413500D02*
X47395000Y-109413500D01*
X45315000Y-109413500D02*
X43665000Y-109413500D01*
X49019000Y-109453500D02*
X47395000Y-109453500D01*
X45315000Y-109453500D02*
X43691000Y-109453500D01*
X48991000Y-109493500D02*
X47395000Y-109493500D01*
X45315000Y-109493500D02*
X43719000Y-109493500D01*
X48962000Y-109533500D02*
X47395000Y-109533500D01*
X45315000Y-109533500D02*
X43748000Y-109533500D01*
X48933000Y-109573500D02*
X47395000Y-109573500D01*
X45315000Y-109573500D02*
X43777000Y-109573500D01*
X48903000Y-109613500D02*
X47395000Y-109613500D01*
X45315000Y-109613500D02*
X43807000Y-109613500D01*
X48871000Y-109653500D02*
X47395000Y-109653500D01*
X45315000Y-109653500D02*
X43839000Y-109653500D01*
X48839000Y-109693500D02*
X47395000Y-109693500D01*
X45315000Y-109693500D02*
X43871000Y-109693500D01*
X48805000Y-109733500D02*
X47395000Y-109733500D01*
X45315000Y-109733500D02*
X43905000Y-109733500D01*
X48771000Y-109773500D02*
X47395000Y-109773500D01*
X45315000Y-109773500D02*
X43939000Y-109773500D01*
X48735000Y-109813500D02*
X47395000Y-109813500D01*
X45315000Y-109813500D02*
X43975000Y-109813500D01*
X48698000Y-109853500D02*
X47395000Y-109853500D01*
X45315000Y-109853500D02*
X44012000Y-109853500D01*
X48660000Y-109893500D02*
X47395000Y-109893500D01*
X45315000Y-109893500D02*
X44050000Y-109893500D01*
X48620000Y-109933500D02*
X44090000Y-109933500D01*
X48579000Y-109973500D02*
X44131000Y-109973500D01*
X48537000Y-110013500D02*
X44173000Y-110013500D01*
X48492000Y-110053500D02*
X44218000Y-110053500D01*
X48447000Y-110093500D02*
X44263000Y-110093500D01*
X48399000Y-110133500D02*
X44311000Y-110133500D01*
X48350000Y-110173500D02*
X44360000Y-110173500D01*
X48299000Y-110213500D02*
X44411000Y-110213500D01*
X48245000Y-110253500D02*
X44465000Y-110253500D01*
X48189000Y-110293500D02*
X44521000Y-110293500D01*
X48131000Y-110333500D02*
X44579000Y-110333500D01*
X48069000Y-110373500D02*
X44641000Y-110373500D01*
X48005000Y-110413500D02*
X44705000Y-110413500D01*
X47936000Y-110453500D02*
X44774000Y-110453500D01*
X47864000Y-110493500D02*
X44846000Y-110493500D01*
X47787000Y-110533500D02*
X44923000Y-110533500D01*
X47705000Y-110573500D02*
X45005000Y-110573500D01*
X47617000Y-110613500D02*
X45093000Y-110613500D01*
X47520000Y-110653500D02*
X45190000Y-110653500D01*
X47414000Y-110693500D02*
X45296000Y-110693500D01*
X47295000Y-110733500D02*
X45415000Y-110733500D01*
X47157000Y-110773500D02*
X45553000Y-110773500D01*
X46988000Y-110813500D02*
X45722000Y-110813500D01*
X46757000Y-110853500D02*
X45953000Y-110853500D01*
X48194000Y-104112259D02*
X48194000Y-104742259D01*
X48509000Y-104427259D02*
X47879000Y-104427259D01*
%TO.C,BZ1*%
X69482400Y-78774300D02*
G75*
G03*
X69482400Y-78774300I-7100000J0D01*
G01*
%TO.C,R1*%
D11*
X62253833Y-99936380D02*
X61920500Y-99460190D01*
X61682404Y-99936380D02*
X61682404Y-98936380D01*
X62063357Y-98936380D01*
X62158595Y-98984000D01*
X62206214Y-99031619D01*
X62253833Y-99126857D01*
X62253833Y-99269714D01*
X62206214Y-99364952D01*
X62158595Y-99412571D01*
X62063357Y-99460190D01*
X61682404Y-99460190D01*
X63206214Y-99936380D02*
X62634785Y-99936380D01*
X62920500Y-99936380D02*
X62920500Y-98936380D01*
X62825261Y-99079238D01*
X62730023Y-99174476D01*
X62634785Y-99222095D01*
%TO.C,R3*%
X74636333Y-46383380D02*
X74303000Y-45907190D01*
X74064904Y-46383380D02*
X74064904Y-45383380D01*
X74445857Y-45383380D01*
X74541095Y-45431000D01*
X74588714Y-45478619D01*
X74636333Y-45573857D01*
X74636333Y-45716714D01*
X74588714Y-45811952D01*
X74541095Y-45859571D01*
X74445857Y-45907190D01*
X74064904Y-45907190D01*
X74969666Y-45383380D02*
X75588714Y-45383380D01*
X75255380Y-45764333D01*
X75398238Y-45764333D01*
X75493476Y-45811952D01*
X75541095Y-45859571D01*
X75588714Y-45954809D01*
X75588714Y-46192904D01*
X75541095Y-46288142D01*
X75493476Y-46335761D01*
X75398238Y-46383380D01*
X75112523Y-46383380D01*
X75017285Y-46335761D01*
X74969666Y-46288142D01*
%TO.C,Q1*%
X53820119Y-45751738D02*
X53772500Y-45846976D01*
X53677261Y-45942214D01*
X53534404Y-46085071D01*
X53486785Y-46180309D01*
X53486785Y-46275547D01*
X53724880Y-46227928D02*
X53677261Y-46323166D01*
X53582023Y-46418404D01*
X53391547Y-46466023D01*
X53058214Y-46466023D01*
X52867738Y-46418404D01*
X52772500Y-46323166D01*
X52724880Y-46227928D01*
X52724880Y-46037452D01*
X52772500Y-45942214D01*
X52867738Y-45846976D01*
X53058214Y-45799357D01*
X53391547Y-45799357D01*
X53582023Y-45846976D01*
X53677261Y-45942214D01*
X53724880Y-46037452D01*
X53724880Y-46227928D01*
X53724880Y-44846976D02*
X53724880Y-45418404D01*
X53724880Y-45132690D02*
X52724880Y-45132690D01*
X52867738Y-45227928D01*
X52962976Y-45323166D01*
X53010595Y-45418404D01*
%TO.C,K1*%
X36853904Y-51262380D02*
X36853904Y-50262380D01*
X37425333Y-51262380D02*
X36996761Y-50690952D01*
X37425333Y-50262380D02*
X36853904Y-50833809D01*
X38377714Y-51262380D02*
X37806285Y-51262380D01*
X38092000Y-51262380D02*
X38092000Y-50262380D01*
X37996761Y-50405238D01*
X37901523Y-50500476D01*
X37806285Y-50548095D01*
%TO.C,J8*%
X42415380Y-94313333D02*
X43129666Y-94313333D01*
X43272523Y-94360952D01*
X43367761Y-94456190D01*
X43415380Y-94599047D01*
X43415380Y-94694285D01*
X42843952Y-93694285D02*
X42796333Y-93789523D01*
X42748714Y-93837142D01*
X42653476Y-93884761D01*
X42605857Y-93884761D01*
X42510619Y-93837142D01*
X42463000Y-93789523D01*
X42415380Y-93694285D01*
X42415380Y-93503809D01*
X42463000Y-93408571D01*
X42510619Y-93360952D01*
X42605857Y-93313333D01*
X42653476Y-93313333D01*
X42748714Y-93360952D01*
X42796333Y-93408571D01*
X42843952Y-93503809D01*
X42843952Y-93694285D01*
X42891571Y-93789523D01*
X42939190Y-93837142D01*
X43034428Y-93884761D01*
X43224904Y-93884761D01*
X43320142Y-93837142D01*
X43367761Y-93789523D01*
X43415380Y-93694285D01*
X43415380Y-93503809D01*
X43367761Y-93408571D01*
X43320142Y-93360952D01*
X43224904Y-93313333D01*
X43034428Y-93313333D01*
X42939190Y-93360952D01*
X42891571Y-93408571D01*
X42843952Y-93503809D01*
%TO.C,U2*%
X61202695Y-73641480D02*
X61202695Y-74451004D01*
X61250314Y-74546242D01*
X61297933Y-74593861D01*
X61393171Y-74641480D01*
X61583647Y-74641480D01*
X61678885Y-74593861D01*
X61726504Y-74546242D01*
X61774123Y-74451004D01*
X61774123Y-73641480D01*
X62202695Y-73736719D02*
X62250314Y-73689100D01*
X62345552Y-73641480D01*
X62583647Y-73641480D01*
X62678885Y-73689100D01*
X62726504Y-73736719D01*
X62774123Y-73831957D01*
X62774123Y-73927195D01*
X62726504Y-74070052D01*
X62155076Y-74641480D01*
X62774123Y-74641480D01*
X72656504Y-56861480D02*
X72656504Y-55861480D01*
X72894600Y-55861480D01*
X73037457Y-55909100D01*
X73132695Y-56004338D01*
X73180314Y-56099576D01*
X73227933Y-56290052D01*
X73227933Y-56432909D01*
X73180314Y-56623385D01*
X73132695Y-56718623D01*
X73037457Y-56813861D01*
X72894600Y-56861480D01*
X72656504Y-56861480D01*
X73846980Y-55861480D02*
X73942219Y-55861480D01*
X74037457Y-55909100D01*
X74085076Y-55956719D01*
X74132695Y-56051957D01*
X74180314Y-56242433D01*
X74180314Y-56480528D01*
X74132695Y-56671004D01*
X74085076Y-56766242D01*
X74037457Y-56813861D01*
X73942219Y-56861480D01*
X73846980Y-56861480D01*
X73751742Y-56813861D01*
X73704123Y-56766242D01*
X73656504Y-56671004D01*
X73608885Y-56480528D01*
X73608885Y-56242433D01*
X73656504Y-56051957D01*
X73704123Y-55956719D01*
X73751742Y-55909100D01*
X73846980Y-55861480D01*
X72656504Y-59401480D02*
X72656504Y-58401480D01*
X72894600Y-58401480D01*
X73037457Y-58449100D01*
X73132695Y-58544338D01*
X73180314Y-58639576D01*
X73227933Y-58830052D01*
X73227933Y-58972909D01*
X73180314Y-59163385D01*
X73132695Y-59258623D01*
X73037457Y-59353861D01*
X72894600Y-59401480D01*
X72656504Y-59401480D01*
X74180314Y-59401480D02*
X73608885Y-59401480D01*
X73894600Y-59401480D02*
X73894600Y-58401480D01*
X73799361Y-58544338D01*
X73704123Y-58639576D01*
X73608885Y-58687195D01*
X72656504Y-61941480D02*
X72656504Y-60941480D01*
X72894600Y-60941480D01*
X73037457Y-60989100D01*
X73132695Y-61084338D01*
X73180314Y-61179576D01*
X73227933Y-61370052D01*
X73227933Y-61512909D01*
X73180314Y-61703385D01*
X73132695Y-61798623D01*
X73037457Y-61893861D01*
X72894600Y-61941480D01*
X72656504Y-61941480D01*
X73608885Y-61036719D02*
X73656504Y-60989100D01*
X73751742Y-60941480D01*
X73989838Y-60941480D01*
X74085076Y-60989100D01*
X74132695Y-61036719D01*
X74180314Y-61131957D01*
X74180314Y-61227195D01*
X74132695Y-61370052D01*
X73561266Y-61941480D01*
X74180314Y-61941480D01*
X72656504Y-64481480D02*
X72656504Y-63481480D01*
X72894600Y-63481480D01*
X73037457Y-63529100D01*
X73132695Y-63624338D01*
X73180314Y-63719576D01*
X73227933Y-63910052D01*
X73227933Y-64052909D01*
X73180314Y-64243385D01*
X73132695Y-64338623D01*
X73037457Y-64433861D01*
X72894600Y-64481480D01*
X72656504Y-64481480D01*
X73561266Y-63481480D02*
X74180314Y-63481480D01*
X73846980Y-63862433D01*
X73989838Y-63862433D01*
X74085076Y-63910052D01*
X74132695Y-63957671D01*
X74180314Y-64052909D01*
X74180314Y-64291004D01*
X74132695Y-64386242D01*
X74085076Y-64433861D01*
X73989838Y-64481480D01*
X73704123Y-64481480D01*
X73608885Y-64433861D01*
X73561266Y-64386242D01*
X72656504Y-67021480D02*
X72656504Y-66021480D01*
X72894600Y-66021480D01*
X73037457Y-66069100D01*
X73132695Y-66164338D01*
X73180314Y-66259576D01*
X73227933Y-66450052D01*
X73227933Y-66592909D01*
X73180314Y-66783385D01*
X73132695Y-66878623D01*
X73037457Y-66973861D01*
X72894600Y-67021480D01*
X72656504Y-67021480D01*
X74085076Y-66354814D02*
X74085076Y-67021480D01*
X73846980Y-65973861D02*
X73608885Y-66688147D01*
X74227933Y-66688147D01*
X72632695Y-68561480D02*
X73251742Y-68561480D01*
X72918409Y-68942433D01*
X73061266Y-68942433D01*
X73156504Y-68990052D01*
X73204123Y-69037671D01*
X73251742Y-69132909D01*
X73251742Y-69371004D01*
X73204123Y-69466242D01*
X73156504Y-69513861D01*
X73061266Y-69561480D01*
X72775552Y-69561480D01*
X72680314Y-69513861D01*
X72632695Y-69466242D01*
X73537457Y-68561480D02*
X73870790Y-69561480D01*
X74204123Y-68561480D01*
X73656504Y-71149100D02*
X73561266Y-71101480D01*
X73418409Y-71101480D01*
X73275552Y-71149100D01*
X73180314Y-71244338D01*
X73132695Y-71339576D01*
X73085076Y-71530052D01*
X73085076Y-71672909D01*
X73132695Y-71863385D01*
X73180314Y-71958623D01*
X73275552Y-72053861D01*
X73418409Y-72101480D01*
X73513647Y-72101480D01*
X73656504Y-72053861D01*
X73704123Y-72006242D01*
X73704123Y-71672909D01*
X73513647Y-71672909D01*
X72656504Y-74641480D02*
X72656504Y-73641480D01*
X72894600Y-73641480D01*
X73037457Y-73689100D01*
X73132695Y-73784338D01*
X73180314Y-73879576D01*
X73227933Y-74070052D01*
X73227933Y-74212909D01*
X73180314Y-74403385D01*
X73132695Y-74498623D01*
X73037457Y-74593861D01*
X72894600Y-74641480D01*
X72656504Y-74641480D01*
X74132695Y-73641480D02*
X73656504Y-73641480D01*
X73608885Y-74117671D01*
X73656504Y-74070052D01*
X73751742Y-74022433D01*
X73989838Y-74022433D01*
X74085076Y-74070052D01*
X74132695Y-74117671D01*
X74180314Y-74212909D01*
X74180314Y-74451004D01*
X74132695Y-74546242D01*
X74085076Y-74593861D01*
X73989838Y-74641480D01*
X73751742Y-74641480D01*
X73656504Y-74593861D01*
X73608885Y-74546242D01*
X72656504Y-77181480D02*
X72656504Y-76181480D01*
X72894600Y-76181480D01*
X73037457Y-76229100D01*
X73132695Y-76324338D01*
X73180314Y-76419576D01*
X73227933Y-76610052D01*
X73227933Y-76752909D01*
X73180314Y-76943385D01*
X73132695Y-77038623D01*
X73037457Y-77133861D01*
X72894600Y-77181480D01*
X72656504Y-77181480D01*
X74085076Y-76181480D02*
X73894600Y-76181480D01*
X73799361Y-76229100D01*
X73751742Y-76276719D01*
X73656504Y-76419576D01*
X73608885Y-76610052D01*
X73608885Y-76991004D01*
X73656504Y-77086242D01*
X73704123Y-77133861D01*
X73799361Y-77181480D01*
X73989838Y-77181480D01*
X74085076Y-77133861D01*
X74132695Y-77086242D01*
X74180314Y-76991004D01*
X74180314Y-76752909D01*
X74132695Y-76657671D01*
X74085076Y-76610052D01*
X73989838Y-76562433D01*
X73799361Y-76562433D01*
X73704123Y-76610052D01*
X73656504Y-76657671D01*
X73608885Y-76752909D01*
X72656504Y-79721480D02*
X72656504Y-78721480D01*
X72894600Y-78721480D01*
X73037457Y-78769100D01*
X73132695Y-78864338D01*
X73180314Y-78959576D01*
X73227933Y-79150052D01*
X73227933Y-79292909D01*
X73180314Y-79483385D01*
X73132695Y-79578623D01*
X73037457Y-79673861D01*
X72894600Y-79721480D01*
X72656504Y-79721480D01*
X73561266Y-78721480D02*
X74227933Y-78721480D01*
X73799361Y-79721480D01*
X72656504Y-82261480D02*
X72656504Y-81261480D01*
X72894600Y-81261480D01*
X73037457Y-81309100D01*
X73132695Y-81404338D01*
X73180314Y-81499576D01*
X73227933Y-81690052D01*
X73227933Y-81832909D01*
X73180314Y-82023385D01*
X73132695Y-82118623D01*
X73037457Y-82213861D01*
X72894600Y-82261480D01*
X72656504Y-82261480D01*
X73799361Y-81690052D02*
X73704123Y-81642433D01*
X73656504Y-81594814D01*
X73608885Y-81499576D01*
X73608885Y-81451957D01*
X73656504Y-81356719D01*
X73704123Y-81309100D01*
X73799361Y-81261480D01*
X73989838Y-81261480D01*
X74085076Y-81309100D01*
X74132695Y-81356719D01*
X74180314Y-81451957D01*
X74180314Y-81499576D01*
X74132695Y-81594814D01*
X74085076Y-81642433D01*
X73989838Y-81690052D01*
X73799361Y-81690052D01*
X73704123Y-81737671D01*
X73656504Y-81785290D01*
X73608885Y-81880528D01*
X73608885Y-82071004D01*
X73656504Y-82166242D01*
X73704123Y-82213861D01*
X73799361Y-82261480D01*
X73989838Y-82261480D01*
X74085076Y-82213861D01*
X74132695Y-82166242D01*
X74180314Y-82071004D01*
X74180314Y-81880528D01*
X74132695Y-81785290D01*
X74085076Y-81737671D01*
X73989838Y-81690052D01*
X73227933Y-84801480D02*
X72894600Y-84325290D01*
X72656504Y-84801480D02*
X72656504Y-83801480D01*
X73037457Y-83801480D01*
X73132695Y-83849100D01*
X73180314Y-83896719D01*
X73227933Y-83991957D01*
X73227933Y-84134814D01*
X73180314Y-84230052D01*
X73132695Y-84277671D01*
X73037457Y-84325290D01*
X72656504Y-84325290D01*
X73561266Y-83801480D02*
X74227933Y-84801480D01*
X74227933Y-83801480D02*
X73561266Y-84801480D01*
X72632695Y-86341480D02*
X73204123Y-86341480D01*
X72918409Y-87341480D02*
X72918409Y-86341480D01*
X73442219Y-86341480D02*
X74108885Y-87341480D01*
X74108885Y-86341480D02*
X73442219Y-87341480D01*
X73656504Y-88929100D02*
X73561266Y-88881480D01*
X73418409Y-88881480D01*
X73275552Y-88929100D01*
X73180314Y-89024338D01*
X73132695Y-89119576D01*
X73085076Y-89310052D01*
X73085076Y-89452909D01*
X73132695Y-89643385D01*
X73180314Y-89738623D01*
X73275552Y-89833861D01*
X73418409Y-89881480D01*
X73513647Y-89881480D01*
X73656504Y-89833861D01*
X73704123Y-89786242D01*
X73704123Y-89452909D01*
X73513647Y-89452909D01*
X72632695Y-91421480D02*
X73251742Y-91421480D01*
X72918409Y-91802433D01*
X73061266Y-91802433D01*
X73156504Y-91850052D01*
X73204123Y-91897671D01*
X73251742Y-91992909D01*
X73251742Y-92231004D01*
X73204123Y-92326242D01*
X73156504Y-92373861D01*
X73061266Y-92421480D01*
X72775552Y-92421480D01*
X72680314Y-92373861D01*
X72632695Y-92326242D01*
X73537457Y-91421480D02*
X73870790Y-92421480D01*
X74204123Y-91421480D01*
X49820314Y-56575766D02*
X50296504Y-56575766D01*
X49725076Y-56861480D02*
X50058409Y-55861480D01*
X50391742Y-56861480D01*
X50915552Y-55861480D02*
X51010790Y-55861480D01*
X51106028Y-55909100D01*
X51153647Y-55956719D01*
X51201266Y-56051957D01*
X51248885Y-56242433D01*
X51248885Y-56480528D01*
X51201266Y-56671004D01*
X51153647Y-56766242D01*
X51106028Y-56813861D01*
X51010790Y-56861480D01*
X50915552Y-56861480D01*
X50820314Y-56813861D01*
X50772695Y-56766242D01*
X50725076Y-56671004D01*
X50677457Y-56480528D01*
X50677457Y-56242433D01*
X50725076Y-56051957D01*
X50772695Y-55956719D01*
X50820314Y-55909100D01*
X50915552Y-55861480D01*
X50796504Y-58449100D02*
X50701266Y-58401480D01*
X50558409Y-58401480D01*
X50415552Y-58449100D01*
X50320314Y-58544338D01*
X50272695Y-58639576D01*
X50225076Y-58830052D01*
X50225076Y-58972909D01*
X50272695Y-59163385D01*
X50320314Y-59258623D01*
X50415552Y-59353861D01*
X50558409Y-59401480D01*
X50653647Y-59401480D01*
X50796504Y-59353861D01*
X50844123Y-59306242D01*
X50844123Y-58972909D01*
X50653647Y-58972909D01*
X49677457Y-60941480D02*
X50010790Y-61941480D01*
X50344123Y-60941480D01*
X50677457Y-60941480D02*
X50677457Y-61751004D01*
X50725076Y-61846242D01*
X50772695Y-61893861D01*
X50867933Y-61941480D01*
X51058409Y-61941480D01*
X51153647Y-61893861D01*
X51201266Y-61846242D01*
X51248885Y-61751004D01*
X51248885Y-60941480D01*
X49772695Y-64433861D02*
X49915552Y-64481480D01*
X50153647Y-64481480D01*
X50248885Y-64433861D01*
X50296504Y-64386242D01*
X50344123Y-64291004D01*
X50344123Y-64195766D01*
X50296504Y-64100528D01*
X50248885Y-64052909D01*
X50153647Y-64005290D01*
X49963171Y-63957671D01*
X49867933Y-63910052D01*
X49820314Y-63862433D01*
X49772695Y-63767195D01*
X49772695Y-63671957D01*
X49820314Y-63576719D01*
X49867933Y-63529100D01*
X49963171Y-63481480D01*
X50201266Y-63481480D01*
X50344123Y-63529100D01*
X50677457Y-63481480D02*
X51296504Y-63481480D01*
X50963171Y-63862433D01*
X51106028Y-63862433D01*
X51201266Y-63910052D01*
X51248885Y-63957671D01*
X51296504Y-64052909D01*
X51296504Y-64291004D01*
X51248885Y-64386242D01*
X51201266Y-64433861D01*
X51106028Y-64481480D01*
X50820314Y-64481480D01*
X50725076Y-64433861D01*
X50677457Y-64386242D01*
X49772695Y-66973861D02*
X49915552Y-67021480D01*
X50153647Y-67021480D01*
X50248885Y-66973861D01*
X50296504Y-66926242D01*
X50344123Y-66831004D01*
X50344123Y-66735766D01*
X50296504Y-66640528D01*
X50248885Y-66592909D01*
X50153647Y-66545290D01*
X49963171Y-66497671D01*
X49867933Y-66450052D01*
X49820314Y-66402433D01*
X49772695Y-66307195D01*
X49772695Y-66211957D01*
X49820314Y-66116719D01*
X49867933Y-66069100D01*
X49963171Y-66021480D01*
X50201266Y-66021480D01*
X50344123Y-66069100D01*
X50725076Y-66116719D02*
X50772695Y-66069100D01*
X50867933Y-66021480D01*
X51106028Y-66021480D01*
X51201266Y-66069100D01*
X51248885Y-66116719D01*
X51296504Y-66211957D01*
X51296504Y-66307195D01*
X51248885Y-66450052D01*
X50677457Y-67021480D01*
X51296504Y-67021480D01*
X49772695Y-69513861D02*
X49915552Y-69561480D01*
X50153647Y-69561480D01*
X50248885Y-69513861D01*
X50296504Y-69466242D01*
X50344123Y-69371004D01*
X50344123Y-69275766D01*
X50296504Y-69180528D01*
X50248885Y-69132909D01*
X50153647Y-69085290D01*
X49963171Y-69037671D01*
X49867933Y-68990052D01*
X49820314Y-68942433D01*
X49772695Y-68847195D01*
X49772695Y-68751957D01*
X49820314Y-68656719D01*
X49867933Y-68609100D01*
X49963171Y-68561480D01*
X50201266Y-68561480D01*
X50344123Y-68609100D01*
X51296504Y-69561480D02*
X50725076Y-69561480D01*
X51010790Y-69561480D02*
X51010790Y-68561480D01*
X50915552Y-68704338D01*
X50820314Y-68799576D01*
X50725076Y-68847195D01*
X49748885Y-72053861D02*
X49891742Y-72101480D01*
X50129838Y-72101480D01*
X50225076Y-72053861D01*
X50272695Y-72006242D01*
X50320314Y-71911004D01*
X50320314Y-71815766D01*
X50272695Y-71720528D01*
X50225076Y-71672909D01*
X50129838Y-71625290D01*
X49939361Y-71577671D01*
X49844123Y-71530052D01*
X49796504Y-71482433D01*
X49748885Y-71387195D01*
X49748885Y-71291957D01*
X49796504Y-71196719D01*
X49844123Y-71149100D01*
X49939361Y-71101480D01*
X50177457Y-71101480D01*
X50320314Y-71149100D01*
X51320314Y-72006242D02*
X51272695Y-72053861D01*
X51129838Y-72101480D01*
X51034600Y-72101480D01*
X50891742Y-72053861D01*
X50796504Y-71958623D01*
X50748885Y-71863385D01*
X50701266Y-71672909D01*
X50701266Y-71530052D01*
X50748885Y-71339576D01*
X50796504Y-71244338D01*
X50891742Y-71149100D01*
X51034600Y-71101480D01*
X51129838Y-71101480D01*
X51272695Y-71149100D01*
X51320314Y-71196719D01*
X49725076Y-74593861D02*
X49867933Y-74641480D01*
X50106028Y-74641480D01*
X50201266Y-74593861D01*
X50248885Y-74546242D01*
X50296504Y-74451004D01*
X50296504Y-74355766D01*
X50248885Y-74260528D01*
X50201266Y-74212909D01*
X50106028Y-74165290D01*
X49915552Y-74117671D01*
X49820314Y-74070052D01*
X49772695Y-74022433D01*
X49725076Y-73927195D01*
X49725076Y-73831957D01*
X49772695Y-73736719D01*
X49820314Y-73689100D01*
X49915552Y-73641480D01*
X50153647Y-73641480D01*
X50296504Y-73689100D01*
X50915552Y-73641480D02*
X51106028Y-73641480D01*
X51201266Y-73689100D01*
X51296504Y-73784338D01*
X51344123Y-73974814D01*
X51344123Y-74308147D01*
X51296504Y-74498623D01*
X51201266Y-74593861D01*
X51106028Y-74641480D01*
X50915552Y-74641480D01*
X50820314Y-74593861D01*
X50725076Y-74498623D01*
X50677457Y-74308147D01*
X50677457Y-73974814D01*
X50725076Y-73784338D01*
X50820314Y-73689100D01*
X50915552Y-73641480D01*
X49748885Y-77133861D02*
X49891742Y-77181480D01*
X50129838Y-77181480D01*
X50225076Y-77133861D01*
X50272695Y-77086242D01*
X50320314Y-76991004D01*
X50320314Y-76895766D01*
X50272695Y-76800528D01*
X50225076Y-76752909D01*
X50129838Y-76705290D01*
X49939361Y-76657671D01*
X49844123Y-76610052D01*
X49796504Y-76562433D01*
X49748885Y-76467195D01*
X49748885Y-76371957D01*
X49796504Y-76276719D01*
X49844123Y-76229100D01*
X49939361Y-76181480D01*
X50177457Y-76181480D01*
X50320314Y-76229100D01*
X50748885Y-77181480D02*
X50748885Y-76181480D01*
X51320314Y-77181480D02*
X50891742Y-76610052D01*
X51320314Y-76181480D02*
X50748885Y-76752909D01*
X50796504Y-78769100D02*
X50701266Y-78721480D01*
X50558409Y-78721480D01*
X50415552Y-78769100D01*
X50320314Y-78864338D01*
X50272695Y-78959576D01*
X50225076Y-79150052D01*
X50225076Y-79292909D01*
X50272695Y-79483385D01*
X50320314Y-79578623D01*
X50415552Y-79673861D01*
X50558409Y-79721480D01*
X50653647Y-79721480D01*
X50796504Y-79673861D01*
X50844123Y-79626242D01*
X50844123Y-79292909D01*
X50653647Y-79292909D01*
X49772695Y-81261480D02*
X50391742Y-81261480D01*
X50058409Y-81642433D01*
X50201266Y-81642433D01*
X50296504Y-81690052D01*
X50344123Y-81737671D01*
X50391742Y-81832909D01*
X50391742Y-82071004D01*
X50344123Y-82166242D01*
X50296504Y-82213861D01*
X50201266Y-82261480D01*
X49915552Y-82261480D01*
X49820314Y-82213861D01*
X49772695Y-82166242D01*
X50677457Y-81261480D02*
X51010790Y-82261480D01*
X51344123Y-81261480D01*
X49796504Y-84277671D02*
X50129838Y-84277671D01*
X50272695Y-84801480D02*
X49796504Y-84801480D01*
X49796504Y-83801480D01*
X50272695Y-83801480D01*
X50701266Y-84801480D02*
X50701266Y-83801480D01*
X51272695Y-84801480D01*
X51272695Y-83801480D01*
X49986980Y-87341480D02*
X49653647Y-86865290D01*
X49415552Y-87341480D02*
X49415552Y-86341480D01*
X49796504Y-86341480D01*
X49891742Y-86389100D01*
X49939361Y-86436719D01*
X49986980Y-86531957D01*
X49986980Y-86674814D01*
X49939361Y-86770052D01*
X49891742Y-86817671D01*
X49796504Y-86865290D01*
X49415552Y-86865290D01*
X50367933Y-87293861D02*
X50510790Y-87341480D01*
X50748885Y-87341480D01*
X50844123Y-87293861D01*
X50891742Y-87246242D01*
X50939361Y-87151004D01*
X50939361Y-87055766D01*
X50891742Y-86960528D01*
X50844123Y-86912909D01*
X50748885Y-86865290D01*
X50558409Y-86817671D01*
X50463171Y-86770052D01*
X50415552Y-86722433D01*
X50367933Y-86627195D01*
X50367933Y-86531957D01*
X50415552Y-86436719D01*
X50463171Y-86389100D01*
X50558409Y-86341480D01*
X50796504Y-86341480D01*
X50939361Y-86389100D01*
X51225076Y-86341480D02*
X51796504Y-86341480D01*
X51510790Y-87341480D02*
X51510790Y-86341480D01*
X50796504Y-88929100D02*
X50701266Y-88881480D01*
X50558409Y-88881480D01*
X50415552Y-88929100D01*
X50320314Y-89024338D01*
X50272695Y-89119576D01*
X50225076Y-89310052D01*
X50225076Y-89452909D01*
X50272695Y-89643385D01*
X50320314Y-89738623D01*
X50415552Y-89833861D01*
X50558409Y-89881480D01*
X50653647Y-89881480D01*
X50796504Y-89833861D01*
X50844123Y-89786242D01*
X50844123Y-89452909D01*
X50653647Y-89452909D01*
X49439361Y-91421480D02*
X49772695Y-92421480D01*
X50106028Y-91421480D01*
X50439361Y-92421480D02*
X50439361Y-91421480D01*
X50915552Y-92421480D02*
X50915552Y-91421480D01*
X51486980Y-92421480D01*
X51486980Y-91421480D01*
X58512219Y-54321480D02*
X58178885Y-53845290D01*
X57940790Y-54321480D02*
X57940790Y-53321480D01*
X58321742Y-53321480D01*
X58416980Y-53369100D01*
X58464600Y-53416719D01*
X58512219Y-53511957D01*
X58512219Y-53654814D01*
X58464600Y-53750052D01*
X58416980Y-53797671D01*
X58321742Y-53845290D01*
X57940790Y-53845290D01*
X59274123Y-53797671D02*
X58940790Y-53797671D01*
X58940790Y-54321480D02*
X58940790Y-53321480D01*
X59416980Y-53321480D01*
X60512219Y-54035766D02*
X60988409Y-54035766D01*
X60416980Y-54321480D02*
X60750314Y-53321480D01*
X61083647Y-54321480D01*
X61416980Y-53654814D02*
X61416980Y-54321480D01*
X61416980Y-53750052D02*
X61464600Y-53702433D01*
X61559838Y-53654814D01*
X61702695Y-53654814D01*
X61797933Y-53702433D01*
X61845552Y-53797671D01*
X61845552Y-54321480D01*
X62178885Y-53654814D02*
X62559838Y-53654814D01*
X62321742Y-53321480D02*
X62321742Y-54178623D01*
X62369361Y-54273861D01*
X62464600Y-54321480D01*
X62559838Y-54321480D01*
X63274123Y-54273861D02*
X63178885Y-54321480D01*
X62988409Y-54321480D01*
X62893171Y-54273861D01*
X62845552Y-54178623D01*
X62845552Y-53797671D01*
X62893171Y-53702433D01*
X62988409Y-53654814D01*
X63178885Y-53654814D01*
X63274123Y-53702433D01*
X63321742Y-53797671D01*
X63321742Y-53892909D01*
X62845552Y-53988147D01*
X63750314Y-53654814D02*
X63750314Y-54321480D01*
X63750314Y-53750052D02*
X63797933Y-53702433D01*
X63893171Y-53654814D01*
X64036028Y-53654814D01*
X64131266Y-53702433D01*
X64178885Y-53797671D01*
X64178885Y-54321480D01*
X64655076Y-53654814D02*
X64655076Y-54321480D01*
X64655076Y-53750052D02*
X64702695Y-53702433D01*
X64797933Y-53654814D01*
X64940790Y-53654814D01*
X65036028Y-53702433D01*
X65083647Y-53797671D01*
X65083647Y-54321480D01*
X65988409Y-54321480D02*
X65988409Y-53797671D01*
X65940790Y-53702433D01*
X65845552Y-53654814D01*
X65655076Y-53654814D01*
X65559838Y-53702433D01*
X65988409Y-54273861D02*
X65893171Y-54321480D01*
X65655076Y-54321480D01*
X65559838Y-54273861D01*
X65512219Y-54178623D01*
X65512219Y-54083385D01*
X65559838Y-53988147D01*
X65655076Y-53940528D01*
X65893171Y-53940528D01*
X65988409Y-53892909D01*
X60702695Y-96501480D02*
X60702695Y-97311004D01*
X60750314Y-97406242D01*
X60797933Y-97453861D01*
X60893171Y-97501480D01*
X61083647Y-97501480D01*
X61178885Y-97453861D01*
X61226504Y-97406242D01*
X61274123Y-97311004D01*
X61274123Y-96501480D01*
X61702695Y-97453861D02*
X61845552Y-97501480D01*
X62083647Y-97501480D01*
X62178885Y-97453861D01*
X62226504Y-97406242D01*
X62274123Y-97311004D01*
X62274123Y-97215766D01*
X62226504Y-97120528D01*
X62178885Y-97072909D01*
X62083647Y-97025290D01*
X61893171Y-96977671D01*
X61797933Y-96930052D01*
X61750314Y-96882433D01*
X61702695Y-96787195D01*
X61702695Y-96691957D01*
X61750314Y-96596719D01*
X61797933Y-96549100D01*
X61893171Y-96501480D01*
X62131266Y-96501480D01*
X62274123Y-96549100D01*
X63036028Y-96977671D02*
X63178885Y-97025290D01*
X63226504Y-97072909D01*
X63274123Y-97168147D01*
X63274123Y-97311004D01*
X63226504Y-97406242D01*
X63178885Y-97453861D01*
X63083647Y-97501480D01*
X62702695Y-97501480D01*
X62702695Y-96501480D01*
X63036028Y-96501480D01*
X63131266Y-96549100D01*
X63178885Y-96596719D01*
X63226504Y-96691957D01*
X63226504Y-96787195D01*
X63178885Y-96882433D01*
X63131266Y-96930052D01*
X63036028Y-96977671D01*
X62702695Y-96977671D01*
%TO.C,U1*%
X49720595Y-97417380D02*
X49720595Y-98226904D01*
X49768214Y-98322142D01*
X49815833Y-98369761D01*
X49911071Y-98417380D01*
X50101547Y-98417380D01*
X50196785Y-98369761D01*
X50244404Y-98322142D01*
X50292023Y-98226904D01*
X50292023Y-97417380D01*
X51292023Y-98417380D02*
X50720595Y-98417380D01*
X51006309Y-98417380D02*
X51006309Y-97417380D01*
X50911071Y-97560238D01*
X50815833Y-97655476D01*
X50720595Y-97703095D01*
%TO.C,R2*%
X65555833Y-45643880D02*
X65222500Y-45167690D01*
X64984404Y-45643880D02*
X64984404Y-44643880D01*
X65365357Y-44643880D01*
X65460595Y-44691500D01*
X65508214Y-44739119D01*
X65555833Y-44834357D01*
X65555833Y-44977214D01*
X65508214Y-45072452D01*
X65460595Y-45120071D01*
X65365357Y-45167690D01*
X64984404Y-45167690D01*
X65936785Y-44739119D02*
X65984404Y-44691500D01*
X66079642Y-44643880D01*
X66317738Y-44643880D01*
X66412976Y-44691500D01*
X66460595Y-44739119D01*
X66508214Y-44834357D01*
X66508214Y-44929595D01*
X66460595Y-45072452D01*
X65889166Y-45643880D01*
X66508214Y-45643880D01*
%TO.C,J7*%
X82343666Y-85260380D02*
X82343666Y-85974666D01*
X82296047Y-86117523D01*
X82200809Y-86212761D01*
X82057952Y-86260380D01*
X81962714Y-86260380D01*
X82724619Y-85260380D02*
X83391285Y-85260380D01*
X82962714Y-86260380D01*
%TO.C,J6*%
X42097880Y-81359333D02*
X42812166Y-81359333D01*
X42955023Y-81406952D01*
X43050261Y-81502190D01*
X43097880Y-81645047D01*
X43097880Y-81740285D01*
X42097880Y-80454571D02*
X42097880Y-80645047D01*
X42145500Y-80740285D01*
X42193119Y-80787904D01*
X42335976Y-80883142D01*
X42526452Y-80930761D01*
X42907404Y-80930761D01*
X43002642Y-80883142D01*
X43050261Y-80835523D01*
X43097880Y-80740285D01*
X43097880Y-80549809D01*
X43050261Y-80454571D01*
X43002642Y-80406952D01*
X42907404Y-80359333D01*
X42669309Y-80359333D01*
X42574071Y-80406952D01*
X42526452Y-80454571D01*
X42478833Y-80549809D01*
X42478833Y-80740285D01*
X42526452Y-80835523D01*
X42574071Y-80883142D01*
X42669309Y-80930761D01*
%TO.C,J5*%
X82216666Y-50970380D02*
X82216666Y-51684666D01*
X82169047Y-51827523D01*
X82073809Y-51922761D01*
X81930952Y-51970380D01*
X81835714Y-51970380D01*
X83169047Y-50970380D02*
X82692857Y-50970380D01*
X82645238Y-51446571D01*
X82692857Y-51398952D01*
X82788095Y-51351333D01*
X83026190Y-51351333D01*
X83121428Y-51398952D01*
X83169047Y-51446571D01*
X83216666Y-51541809D01*
X83216666Y-51779904D01*
X83169047Y-51875142D01*
X83121428Y-51922761D01*
X83026190Y-51970380D01*
X82788095Y-51970380D01*
X82692857Y-51922761D01*
X82645238Y-51875142D01*
%TO.C,J4*%
X84268880Y-47894833D02*
X84983166Y-47894833D01*
X85126023Y-47942452D01*
X85221261Y-48037690D01*
X85268880Y-48180547D01*
X85268880Y-48275785D01*
X84602214Y-46990071D02*
X85268880Y-46990071D01*
X84221261Y-47228166D02*
X84935547Y-47466261D01*
X84935547Y-46847214D01*
%TO.C,J3*%
X82343666Y-62781380D02*
X82343666Y-63495666D01*
X82296047Y-63638523D01*
X82200809Y-63733761D01*
X82057952Y-63781380D01*
X81962714Y-63781380D01*
X82724619Y-62781380D02*
X83343666Y-62781380D01*
X83010333Y-63162333D01*
X83153190Y-63162333D01*
X83248428Y-63209952D01*
X83296047Y-63257571D01*
X83343666Y-63352809D01*
X83343666Y-63590904D01*
X83296047Y-63686142D01*
X83248428Y-63733761D01*
X83153190Y-63781380D01*
X82867476Y-63781380D01*
X82772238Y-63733761D01*
X82724619Y-63686142D01*
%TO.C,J2*%
X82343666Y-86300880D02*
X82343666Y-87015166D01*
X82296047Y-87158023D01*
X82200809Y-87253261D01*
X82057952Y-87300880D01*
X81962714Y-87300880D01*
X82772238Y-86396119D02*
X82819857Y-86348500D01*
X82915095Y-86300880D01*
X83153190Y-86300880D01*
X83248428Y-86348500D01*
X83296047Y-86396119D01*
X83343666Y-86491357D01*
X83343666Y-86586595D01*
X83296047Y-86729452D01*
X82724619Y-87300880D01*
X83343666Y-87300880D01*
%TO.C,J1*%
X42415380Y-105679833D02*
X43129666Y-105679833D01*
X43272523Y-105727452D01*
X43367761Y-105822690D01*
X43415380Y-105965547D01*
X43415380Y-106060785D01*
X43415380Y-104679833D02*
X43415380Y-105251261D01*
X43415380Y-104965547D02*
X42415380Y-104965547D01*
X42558238Y-105060785D01*
X42653476Y-105156023D01*
X42701095Y-105251261D01*
%TO.C,D3*%
X68356880Y-43283095D02*
X67356880Y-43283095D01*
X67356880Y-43045000D01*
X67404500Y-42902142D01*
X67499738Y-42806904D01*
X67594976Y-42759285D01*
X67785452Y-42711666D01*
X67928309Y-42711666D01*
X68118785Y-42759285D01*
X68214023Y-42806904D01*
X68309261Y-42902142D01*
X68356880Y-43045000D01*
X68356880Y-43283095D01*
X67356880Y-42378333D02*
X67356880Y-41759285D01*
X67737833Y-42092619D01*
X67737833Y-41949761D01*
X67785452Y-41854523D01*
X67833071Y-41806904D01*
X67928309Y-41759285D01*
X68166404Y-41759285D01*
X68261642Y-41806904D01*
X68309261Y-41854523D01*
X68356880Y-41949761D01*
X68356880Y-42235476D01*
X68309261Y-42330714D01*
X68261642Y-42378333D01*
%TO.C,D2*%
X46569404Y-45861380D02*
X46569404Y-44861380D01*
X46807500Y-44861380D01*
X46950357Y-44909000D01*
X47045595Y-45004238D01*
X47093214Y-45099476D01*
X47140833Y-45289952D01*
X47140833Y-45432809D01*
X47093214Y-45623285D01*
X47045595Y-45718523D01*
X46950357Y-45813761D01*
X46807500Y-45861380D01*
X46569404Y-45861380D01*
X47521785Y-44956619D02*
X47569404Y-44909000D01*
X47664642Y-44861380D01*
X47902738Y-44861380D01*
X47997976Y-44909000D01*
X48045595Y-44956619D01*
X48093214Y-45051857D01*
X48093214Y-45147095D01*
X48045595Y-45289952D01*
X47474166Y-45861380D01*
X48093214Y-45861380D01*
X41965595Y-46231380D02*
X41965595Y-45231380D01*
X42537023Y-46231380D02*
X42108452Y-45659952D01*
X42537023Y-45231380D02*
X41965595Y-45802809D01*
%TO.C,D1*%
X69263380Y-103925595D02*
X68263380Y-103925595D01*
X68263380Y-103687500D01*
X68311000Y-103544642D01*
X68406238Y-103449404D01*
X68501476Y-103401785D01*
X68691952Y-103354166D01*
X68834809Y-103354166D01*
X69025285Y-103401785D01*
X69120523Y-103449404D01*
X69215761Y-103544642D01*
X69263380Y-103687500D01*
X69263380Y-103925595D01*
X69263380Y-102401785D02*
X69263380Y-102973214D01*
X69263380Y-102687500D02*
X68263380Y-102687500D01*
X68406238Y-102782738D01*
X68501476Y-102877976D01*
X68549095Y-102973214D01*
%TO.C,C2*%
X58414642Y-107906166D02*
X58462261Y-107953785D01*
X58509880Y-108096642D01*
X58509880Y-108191880D01*
X58462261Y-108334738D01*
X58367023Y-108429976D01*
X58271785Y-108477595D01*
X58081309Y-108525214D01*
X57938452Y-108525214D01*
X57747976Y-108477595D01*
X57652738Y-108429976D01*
X57557500Y-108334738D01*
X57509880Y-108191880D01*
X57509880Y-108096642D01*
X57557500Y-107953785D01*
X57605119Y-107906166D01*
X57605119Y-107525214D02*
X57557500Y-107477595D01*
X57509880Y-107382357D01*
X57509880Y-107144261D01*
X57557500Y-107049023D01*
X57605119Y-107001404D01*
X57700357Y-106953785D01*
X57795595Y-106953785D01*
X57938452Y-107001404D01*
X58509880Y-107572833D01*
X58509880Y-106953785D01*
%TO.C,C1*%
X51112142Y-107779166D02*
X51159761Y-107826785D01*
X51207380Y-107969642D01*
X51207380Y-108064880D01*
X51159761Y-108207738D01*
X51064523Y-108302976D01*
X50969285Y-108350595D01*
X50778809Y-108398214D01*
X50635952Y-108398214D01*
X50445476Y-108350595D01*
X50350238Y-108302976D01*
X50255000Y-108207738D01*
X50207380Y-108064880D01*
X50207380Y-107969642D01*
X50255000Y-107826785D01*
X50302619Y-107779166D01*
X51207380Y-106826785D02*
X51207380Y-107398214D01*
X51207380Y-107112500D02*
X50207380Y-107112500D01*
X50350238Y-107207738D01*
X50445476Y-107302976D01*
X50493095Y-107398214D01*
%TO.C,BZ1*%
X70540971Y-79815252D02*
X70588590Y-79672395D01*
X70636209Y-79624776D01*
X70731447Y-79577157D01*
X70874304Y-79577157D01*
X70969542Y-79624776D01*
X71017161Y-79672395D01*
X71064780Y-79767633D01*
X71064780Y-80148585D01*
X70064780Y-80148585D01*
X70064780Y-79815252D01*
X70112400Y-79720014D01*
X70160019Y-79672395D01*
X70255257Y-79624776D01*
X70350495Y-79624776D01*
X70445733Y-79672395D01*
X70493352Y-79720014D01*
X70540971Y-79815252D01*
X70540971Y-80148585D01*
X70064780Y-79243823D02*
X70064780Y-78577157D01*
X71064780Y-79243823D01*
X71064780Y-78577157D01*
X71064780Y-77672395D02*
X71064780Y-78243823D01*
X71064780Y-77958109D02*
X70064780Y-77958109D01*
X70207638Y-78053347D01*
X70302876Y-78148585D01*
X70350495Y-78243823D01*
X64993828Y-74145252D02*
X64993828Y-73383347D01*
X65374780Y-73764300D02*
X64612876Y-73764300D01*
%TD*%
M02*
