%TF.GenerationSoftware,KiCad,Pcbnew,(5.1.12)-1*%
%TF.CreationDate,2022-02-17T13:12:57+05:30*%
%TF.ProjectId,vehilcletheftdetection,76656869-6c63-46c6-9574-686566746465,rev?*%
%TF.SameCoordinates,Original*%
%TF.FileFunction,Soldermask,Top*%
%TF.FilePolarity,Negative*%
%FSLAX46Y46*%
G04 Gerber Fmt 4.6, Leading zero omitted, Abs format (unit mm)*
G04 Created by KiCad (PCBNEW (5.1.12)-1) date 2022-02-17 13:12:57*
%MOMM*%
%LPD*%
G01*
G04 APERTURE LIST*
%ADD10O,1.600000X1.600000*%
%ADD11C,1.600000*%
%ADD12R,1.500000X1.500000*%
%ADD13C,1.500000*%
%ADD14O,2.500000X2.500000*%
%ADD15R,2.500000X2.500000*%
%ADD16C,2.600000*%
%ADD17R,2.600000X2.600000*%
%ADD18C,1.524000*%
%ADD19O,1.905000X2.000000*%
%ADD20R,1.905000X2.000000*%
%ADD21O,1.700000X1.700000*%
%ADD22R,1.700000X1.700000*%
%ADD23C,1.800000*%
%ADD24R,1.800000X1.800000*%
%ADD25O,2.200000X2.200000*%
%ADD26R,2.200000X2.200000*%
%ADD27R,1.600000X1.600000*%
%ADD28R,2.000000X2.000000*%
%ADD29C,2.000000*%
G04 APERTURE END LIST*
D10*
%TO.C,R1*%
X67500500Y-101854000D03*
D11*
X57340500Y-101854000D03*
%TD*%
D10*
%TO.C,R3*%
X69723000Y-43561000D03*
D11*
X79883000Y-43561000D03*
%TD*%
D12*
%TO.C,Q1*%
X56832500Y-48196500D03*
D13*
X56832500Y-43116500D03*
X56832500Y-45656500D03*
%TD*%
D14*
%TO.C,K1*%
X43592000Y-56610000D03*
X43592000Y-68810000D03*
X31592000Y-68810000D03*
X31592000Y-56610000D03*
D15*
X37592000Y-54610000D03*
%TD*%
D16*
%TO.C,J8*%
X36703000Y-96520000D03*
D17*
X36703000Y-91440000D03*
%TD*%
D18*
%TO.C,U2*%
X75934600Y-56409100D03*
X75934600Y-58949100D03*
X75934600Y-61489100D03*
X75934600Y-64029100D03*
X75934600Y-66569100D03*
X75934600Y-69109100D03*
X75934600Y-71649100D03*
X75934600Y-74189100D03*
X75934600Y-76729100D03*
X75934600Y-79269100D03*
X75934600Y-81809100D03*
X75934600Y-84349100D03*
X75934600Y-86889100D03*
X75934600Y-89429100D03*
X75934600Y-91969100D03*
X47994600Y-91969100D03*
X47994600Y-89429100D03*
X47994600Y-86889100D03*
X47994600Y-84349100D03*
X47994600Y-81809100D03*
X47994600Y-79269100D03*
X47994600Y-76729100D03*
X47994600Y-74189100D03*
X47994600Y-71649100D03*
X47994600Y-69109100D03*
X47994600Y-66569100D03*
X47994600Y-64029100D03*
X47994600Y-61489100D03*
X47994600Y-58949100D03*
X47994600Y-56409100D03*
%TD*%
D19*
%TO.C,U1*%
X53022500Y-102235000D03*
X50482500Y-102235000D03*
D20*
X47942500Y-102235000D03*
%TD*%
D10*
%TO.C,R2*%
X70802500Y-47561500D03*
D11*
X60642500Y-47561500D03*
%TD*%
D21*
%TO.C,J7*%
X82677000Y-95758000D03*
X82677000Y-93218000D03*
X82677000Y-90678000D03*
D22*
X82677000Y-88138000D03*
%TD*%
D16*
%TO.C,J6*%
X36385500Y-83566000D03*
D17*
X36385500Y-78486000D03*
%TD*%
D21*
%TO.C,J5*%
X82550000Y-61468000D03*
X82550000Y-58928000D03*
X82550000Y-56388000D03*
D22*
X82550000Y-53848000D03*
%TD*%
D21*
%TO.C,J4*%
X74866500Y-47561500D03*
X77406500Y-47561500D03*
X79946500Y-47561500D03*
D22*
X82486500Y-47561500D03*
%TD*%
D21*
%TO.C,J3*%
X82677000Y-73279000D03*
X82677000Y-70739000D03*
X82677000Y-68199000D03*
D22*
X82677000Y-65659000D03*
%TD*%
D21*
%TO.C,J2*%
X82677000Y-76898500D03*
X82677000Y-79438500D03*
X82677000Y-81978500D03*
D22*
X82677000Y-84518500D03*
%TD*%
D16*
%TO.C,J1*%
X36703000Y-107886500D03*
D17*
X36703000Y-102806500D03*
%TD*%
D23*
%TO.C,D3*%
X63944500Y-43815000D03*
D24*
X63944500Y-41275000D03*
%TD*%
D25*
%TO.C,D2*%
X52387500Y-47879000D03*
D26*
X42227500Y-47879000D03*
%TD*%
D23*
%TO.C,D1*%
X72771000Y-101917500D03*
D24*
X72771000Y-104457500D03*
%TD*%
D11*
%TO.C,C2*%
X53657500Y-108989500D03*
D27*
X53657500Y-106489500D03*
%TD*%
D11*
%TO.C,C1*%
X46355000Y-108862500D03*
D27*
X46355000Y-106362500D03*
%TD*%
D28*
%TO.C,BZ1*%
X62382400Y-73774300D03*
D29*
X62382400Y-83774300D03*
%TD*%
M02*
