%TF.GenerationSoftware,KiCad,Pcbnew,(5.1.12)-1*%
%TF.CreationDate,2022-03-25T13:57:00+05:30*%
%TF.ProjectId,greenhosue,67726565-6e68-46f7-9375-652e6b696361,rev?*%
%TF.SameCoordinates,Original*%
%TF.FileFunction,AssemblyDrawing,Top*%
%FSLAX46Y46*%
G04 Gerber Fmt 4.6, Leading zero omitted, Abs format (unit mm)*
G04 Created by KiCad (PCBNEW (5.1.12)-1) date 2022-03-25 13:57:00*
%MOMM*%
%LPD*%
G01*
G04 APERTURE LIST*
%ADD10C,0.100000*%
%ADD11C,0.150000*%
%ADD12C,0.200000*%
G04 APERTURE END LIST*
D10*
%TO.C,K1*%
X133876800Y-107319200D02*
X133876800Y-98319200D01*
X129326800Y-103819200D02*
X130326800Y-102819200D01*
X129326800Y-111069200D02*
X129326800Y-103819200D01*
X151826800Y-111069200D02*
X129326800Y-111069200D01*
X151826800Y-94569200D02*
X151826800Y-111069200D01*
X129326800Y-94569200D02*
X151826800Y-94569200D01*
X129326800Y-101819200D02*
X129326800Y-94569200D01*
X130326800Y-102819200D02*
X129326800Y-101819200D01*
%TO.C,R4*%
X104673400Y-37084000D02*
X104673400Y-36424000D01*
X104673400Y-29464000D02*
X104673400Y-30124000D01*
X105923400Y-36424000D02*
X105923400Y-30124000D01*
X103423400Y-36424000D02*
X105923400Y-36424000D01*
X103423400Y-30124000D02*
X103423400Y-36424000D01*
X105923400Y-30124000D02*
X103423400Y-30124000D01*
%TO.C,SW1*%
X113395764Y-33767200D02*
G75*
G03*
X113395764Y-33767200I-2015564J0D01*
G01*
X114380200Y-36767200D02*
X111380200Y-36767200D01*
X114380200Y-30767200D02*
X114380200Y-36767200D01*
X108380200Y-30767200D02*
X114380200Y-30767200D01*
X108380200Y-36767200D02*
X108380200Y-30767200D01*
X111380200Y-36767200D02*
X108380200Y-36767200D01*
%TO.C,SW2*%
X84312764Y-32243200D02*
G75*
G03*
X84312764Y-32243200I-2015564J0D01*
G01*
X85297200Y-35243200D02*
X82297200Y-35243200D01*
X85297200Y-29243200D02*
X85297200Y-35243200D01*
X79297200Y-29243200D02*
X85297200Y-29243200D01*
X79297200Y-35243200D02*
X79297200Y-29243200D01*
X82297200Y-35243200D02*
X79297200Y-35243200D01*
%TO.C,R7*%
X78460600Y-37998400D02*
X79120600Y-37998400D01*
X86080600Y-37998400D02*
X85420600Y-37998400D01*
X79120600Y-39248400D02*
X85420600Y-39248400D01*
X79120600Y-36748400D02*
X79120600Y-39248400D01*
X85420600Y-36748400D02*
X79120600Y-36748400D01*
X85420600Y-39248400D02*
X85420600Y-36748400D01*
%TO.C,Q4*%
X118874600Y-66865400D02*
X118874600Y-70365400D01*
X118870975Y-66851775D02*
G75*
G02*
X123104600Y-68605400I1753625J-1753625D01*
G01*
X118870975Y-70359025D02*
G75*
G03*
X123104600Y-68605400I1753625J1753625D01*
G01*
%TO.C,Q3*%
X116512400Y-46215200D02*
X116512400Y-49715200D01*
X116508775Y-46201575D02*
G75*
G02*
X120742400Y-47955200I1753625J-1753625D01*
G01*
X116508775Y-49708825D02*
G75*
G03*
X120742400Y-47955200I1753625J1753625D01*
G01*
%TO.C,Q2*%
X120119200Y-88404600D02*
X120119200Y-91904600D01*
X120115575Y-88390975D02*
G75*
G02*
X124349200Y-90144600I1753625J-1753625D01*
G01*
X120115575Y-91898225D02*
G75*
G03*
X124349200Y-90144600I1753625J1753625D01*
G01*
%TO.C,Q1*%
X112423000Y-110502600D02*
X112423000Y-114002600D01*
X112419375Y-110488975D02*
G75*
G02*
X116653000Y-112242600I1753625J-1753625D01*
G01*
X112419375Y-113996225D02*
G75*
G03*
X116653000Y-112242600I1753625J1753625D01*
G01*
%TO.C,U2*%
X69718800Y-84073600D02*
X69718800Y-85343600D01*
X66018800Y-84073600D02*
X66018800Y-85343600D01*
X62868800Y-85343600D02*
X72868800Y-85343600D01*
X72868800Y-84073600D02*
X62868800Y-84073600D01*
X72868800Y-88473600D02*
X72868800Y-84073600D01*
X62868800Y-88473600D02*
X72868800Y-88473600D01*
X62868800Y-84073600D02*
X62868800Y-88473600D01*
%TO.C,R14*%
X127304800Y-60350400D02*
X127304800Y-59690400D01*
X127304800Y-52730400D02*
X127304800Y-53390400D01*
X128554800Y-59690400D02*
X128554800Y-53390400D01*
X126054800Y-59690400D02*
X128554800Y-59690400D01*
X126054800Y-53390400D02*
X126054800Y-59690400D01*
X128554800Y-53390400D02*
X126054800Y-53390400D01*
%TO.C,R13*%
X125196600Y-38201600D02*
X125196600Y-37541600D01*
X125196600Y-30581600D02*
X125196600Y-31241600D01*
X126446600Y-37541600D02*
X126446600Y-31241600D01*
X123946600Y-37541600D02*
X126446600Y-37541600D01*
X123946600Y-31241600D02*
X123946600Y-37541600D01*
X126446600Y-31241600D02*
X123946600Y-31241600D01*
%TO.C,R12*%
X128270000Y-81940400D02*
X128270000Y-81280400D01*
X128270000Y-74320400D02*
X128270000Y-74980400D01*
X129520000Y-81280400D02*
X129520000Y-74980400D01*
X127020000Y-81280400D02*
X129520000Y-81280400D01*
X127020000Y-74980400D02*
X127020000Y-81280400D01*
X129520000Y-74980400D02*
X127020000Y-74980400D01*
%TO.C,R11*%
X115570000Y-59664600D02*
X115570000Y-60324600D01*
X115570000Y-67284600D02*
X115570000Y-66624600D01*
X114320000Y-60324600D02*
X114320000Y-66624600D01*
X116820000Y-60324600D02*
X114320000Y-60324600D01*
X116820000Y-66624600D02*
X116820000Y-60324600D01*
X114320000Y-66624600D02*
X116820000Y-66624600D01*
%TO.C,R10*%
X112623600Y-38862000D02*
X112623600Y-39522000D01*
X112623600Y-46482000D02*
X112623600Y-45822000D01*
X111373600Y-39522000D02*
X111373600Y-45822000D01*
X113873600Y-39522000D02*
X111373600Y-39522000D01*
X113873600Y-45822000D02*
X113873600Y-39522000D01*
X111373600Y-45822000D02*
X113873600Y-45822000D01*
%TO.C,R9*%
X118033800Y-75565000D02*
X118033800Y-76225000D01*
X118033800Y-83185000D02*
X118033800Y-82525000D01*
X116783800Y-76225000D02*
X116783800Y-82525000D01*
X119283800Y-76225000D02*
X116783800Y-76225000D01*
X119283800Y-82525000D02*
X119283800Y-76225000D01*
X116783800Y-82525000D02*
X119283800Y-82525000D01*
%TO.C,R6*%
X122351800Y-103174800D02*
X122351800Y-102514800D01*
X122351800Y-95554800D02*
X122351800Y-96214800D01*
X123601800Y-102514800D02*
X123601800Y-96214800D01*
X121101800Y-102514800D02*
X123601800Y-102514800D01*
X121101800Y-96214800D02*
X121101800Y-102514800D01*
X123601800Y-96214800D02*
X121101800Y-96214800D01*
%TO.C,R3*%
X108712000Y-101473000D02*
X108712000Y-102133000D01*
X108712000Y-109093000D02*
X108712000Y-108433000D01*
X107462000Y-102133000D02*
X107462000Y-108433000D01*
X109962000Y-102133000D02*
X107462000Y-102133000D01*
X109962000Y-108433000D02*
X109962000Y-102133000D01*
X107462000Y-108433000D02*
X109962000Y-108433000D01*
%TO.C,R2*%
X100812600Y-30124400D02*
X100152600Y-30124400D01*
X93192600Y-30124400D02*
X93852600Y-30124400D01*
X100152600Y-28874400D02*
X93852600Y-28874400D01*
X100152600Y-31374400D02*
X100152600Y-28874400D01*
X93852600Y-31374400D02*
X100152600Y-31374400D01*
X93852600Y-28874400D02*
X93852600Y-31374400D01*
%TO.C,R1*%
X69646800Y-73812400D02*
X69646800Y-74472400D01*
X69646800Y-81432400D02*
X69646800Y-80772400D01*
X68396800Y-74472400D02*
X68396800Y-80772400D01*
X70896800Y-74472400D02*
X68396800Y-74472400D01*
X70896800Y-80772400D02*
X70896800Y-74472400D01*
X68396800Y-80772400D02*
X70896800Y-80772400D01*
%TO.C,J10*%
X66878200Y-73126600D02*
X66243200Y-73761600D01*
X66878200Y-66141600D02*
X66878200Y-73126600D01*
X64338200Y-66141600D02*
X66878200Y-66141600D01*
X64338200Y-73761600D02*
X64338200Y-66141600D01*
X66243200Y-73761600D02*
X64338200Y-73761600D01*
%TO.C,J9*%
X66878200Y-82219800D02*
X66243200Y-82854800D01*
X66878200Y-75234800D02*
X66878200Y-82219800D01*
X64338200Y-75234800D02*
X66878200Y-75234800D01*
X64338200Y-82854800D02*
X64338200Y-75234800D01*
X66243200Y-82854800D02*
X64338200Y-82854800D01*
%TO.C,J8*%
X160787000Y-54450000D02*
X162880000Y-56542000D01*
X160970000Y-54267000D02*
X163063000Y-56359000D01*
X160787000Y-59450000D02*
X162880000Y-61542000D01*
X160970000Y-59267000D02*
X163063000Y-61359000D01*
X160787000Y-64450000D02*
X162880000Y-66543000D01*
X160970000Y-64267000D02*
X163063000Y-66360000D01*
X159625000Y-67905000D02*
X159625000Y-52905000D01*
X164525000Y-67905000D02*
X164525000Y-52905000D01*
X166025000Y-67905000D02*
X166025000Y-52905000D01*
X166025000Y-67905000D02*
X156725000Y-67905000D01*
X166525000Y-67405000D02*
X166025000Y-67905000D01*
X166525000Y-52905000D02*
X166525000Y-67405000D01*
X156725000Y-52905000D02*
X166525000Y-52905000D01*
X156725000Y-67905000D02*
X156725000Y-52905000D01*
X163425000Y-55405000D02*
G75*
G03*
X163425000Y-55405000I-1500000J0D01*
G01*
X163425000Y-60405000D02*
G75*
G03*
X163425000Y-60405000I-1500000J0D01*
G01*
X163425000Y-65405000D02*
G75*
G03*
X163425000Y-65405000I-1500000J0D01*
G01*
%TO.C,J7*%
X160939400Y-32021800D02*
X163032400Y-34113800D01*
X161122400Y-31838800D02*
X163215400Y-33930800D01*
X160939400Y-37021800D02*
X163032400Y-39113800D01*
X161122400Y-36838800D02*
X163215400Y-38930800D01*
X160939400Y-42021800D02*
X163032400Y-44114800D01*
X161122400Y-41838800D02*
X163215400Y-43931800D01*
X159777400Y-45476800D02*
X159777400Y-30476800D01*
X164677400Y-45476800D02*
X164677400Y-30476800D01*
X166177400Y-45476800D02*
X166177400Y-30476800D01*
X166177400Y-45476800D02*
X156877400Y-45476800D01*
X166677400Y-44976800D02*
X166177400Y-45476800D01*
X166677400Y-30476800D02*
X166677400Y-44976800D01*
X156877400Y-30476800D02*
X166677400Y-30476800D01*
X156877400Y-45476800D02*
X156877400Y-30476800D01*
X163577400Y-32976800D02*
G75*
G03*
X163577400Y-32976800I-1500000J0D01*
G01*
X163577400Y-37976800D02*
G75*
G03*
X163577400Y-37976800I-1500000J0D01*
G01*
X163577400Y-42976800D02*
G75*
G03*
X163577400Y-42976800I-1500000J0D01*
G01*
%TO.C,J6*%
X161218800Y-75455800D02*
X163311800Y-77547800D01*
X161401800Y-75272800D02*
X163494800Y-77364800D01*
X161218800Y-80455800D02*
X163311800Y-82547800D01*
X161401800Y-80272800D02*
X163494800Y-82364800D01*
X161218800Y-85455800D02*
X163311800Y-87548800D01*
X161401800Y-85272800D02*
X163494800Y-87365800D01*
X160056800Y-88910800D02*
X160056800Y-73910800D01*
X164956800Y-88910800D02*
X164956800Y-73910800D01*
X166456800Y-88910800D02*
X166456800Y-73910800D01*
X166456800Y-88910800D02*
X157156800Y-88910800D01*
X166956800Y-88410800D02*
X166456800Y-88910800D01*
X166956800Y-73910800D02*
X166956800Y-88410800D01*
X157156800Y-73910800D02*
X166956800Y-73910800D01*
X157156800Y-88910800D02*
X157156800Y-73910800D01*
X163856800Y-76410800D02*
G75*
G03*
X163856800Y-76410800I-1500000J0D01*
G01*
X163856800Y-81410800D02*
G75*
G03*
X163856800Y-81410800I-1500000J0D01*
G01*
X163856800Y-86410800D02*
G75*
G03*
X163856800Y-86410800I-1500000J0D01*
G01*
%TO.C,J5*%
X161345800Y-95064600D02*
X163438800Y-97156600D01*
X161528800Y-94881600D02*
X163621800Y-96973600D01*
X161345800Y-100064600D02*
X163438800Y-102156600D01*
X161528800Y-99881600D02*
X163621800Y-101973600D01*
X161345800Y-105064600D02*
X163438800Y-107157600D01*
X161528800Y-104881600D02*
X163621800Y-106974600D01*
X160183800Y-108519600D02*
X160183800Y-93519600D01*
X165083800Y-108519600D02*
X165083800Y-93519600D01*
X166583800Y-108519600D02*
X166583800Y-93519600D01*
X166583800Y-108519600D02*
X157283800Y-108519600D01*
X167083800Y-108019600D02*
X166583800Y-108519600D01*
X167083800Y-93519600D02*
X167083800Y-108019600D01*
X157283800Y-93519600D02*
X167083800Y-93519600D01*
X157283800Y-108519600D02*
X157283800Y-93519600D01*
X163983800Y-96019600D02*
G75*
G03*
X163983800Y-96019600I-1500000J0D01*
G01*
X163983800Y-101019600D02*
G75*
G03*
X163983800Y-101019600I-1500000J0D01*
G01*
X163983800Y-106019600D02*
G75*
G03*
X163983800Y-106019600I-1500000J0D01*
G01*
%TO.C,J4*%
X88544400Y-29819600D02*
X89179400Y-29184600D01*
X88544400Y-36804600D02*
X88544400Y-29819600D01*
X91084400Y-36804600D02*
X88544400Y-36804600D01*
X91084400Y-29184600D02*
X91084400Y-36804600D01*
X89179400Y-29184600D02*
X91084400Y-29184600D01*
%TO.C,J3*%
X100507800Y-32486600D02*
X101142800Y-33121600D01*
X93522800Y-32486600D02*
X100507800Y-32486600D01*
X93522800Y-35026600D02*
X93522800Y-32486600D01*
X101142800Y-35026600D02*
X93522800Y-35026600D01*
X101142800Y-33121600D02*
X101142800Y-35026600D01*
%TO.C,J2*%
X61204375Y-101069813D02*
X61959800Y-100266600D01*
X61209800Y-111266600D02*
X70209800Y-111266600D01*
X61209800Y-114766600D02*
X70209800Y-114766600D01*
X70209800Y-114766600D02*
X70209800Y-100266600D01*
X70209800Y-100266600D02*
X61959800Y-100266600D01*
X61209800Y-101066600D02*
X61209800Y-114766600D01*
%TO.C,D9*%
X125885906Y-67701800D02*
X128825294Y-67701800D01*
X129855600Y-65201800D02*
G75*
G03*
X129855600Y-65201800I-2500000J0D01*
G01*
X128825266Y-67701816D02*
G75*
G03*
X125885906Y-67701800I-1469666J2500016D01*
G01*
%TO.C,D8*%
X123752306Y-45375200D02*
X126691694Y-45375200D01*
X127722000Y-42875200D02*
G75*
G03*
X127722000Y-42875200I-2500000J0D01*
G01*
X126691666Y-45375216D02*
G75*
G03*
X123752306Y-45375200I-1469666J2500016D01*
G01*
%TO.C,D7*%
X126724106Y-89545800D02*
X129663494Y-89545800D01*
X130693800Y-87045800D02*
G75*
G03*
X130693800Y-87045800I-2500000J0D01*
G01*
X129663466Y-89545816D02*
G75*
G03*
X126724106Y-89545800I-1469666J2500016D01*
G01*
%TO.C,D3*%
X120831306Y-110119800D02*
X123770694Y-110119800D01*
X124801000Y-107619800D02*
G75*
G03*
X124801000Y-107619800I-2500000J0D01*
G01*
X123770666Y-110119816D02*
G75*
G03*
X120831306Y-110119800I-1469666J2500016D01*
G01*
%TO.C,D1*%
X73467600Y-70405294D02*
X73467600Y-67465906D01*
X73467600Y-68935600D02*
G75*
G03*
X73467600Y-68935600I-2500000J0D01*
G01*
X73467616Y-67465934D02*
G75*
G03*
X73467600Y-70405294I-2500016J-1469666D01*
G01*
%TO.C,C2*%
X70116100Y-91860428D02*
X69486100Y-91860428D01*
X69801100Y-91545428D02*
X69801100Y-92175428D01*
X71577600Y-94239400D02*
G75*
G03*
X71577600Y-94239400I-3150000J0D01*
G01*
%TO.C,C1*%
X62013500Y-91962028D02*
X61383500Y-91962028D01*
X61698500Y-91647028D02*
X61698500Y-92277028D01*
X63475000Y-94341000D02*
G75*
G03*
X63475000Y-94341000I-3150000J0D01*
G01*
%TO.C,K4*%
X136137400Y-64875800D02*
X136137400Y-55875800D01*
X131587400Y-61375800D02*
X132587400Y-60375800D01*
X131587400Y-68625800D02*
X131587400Y-61375800D01*
X154087400Y-68625800D02*
X131587400Y-68625800D01*
X154087400Y-52125800D02*
X154087400Y-68625800D01*
X131587400Y-52125800D02*
X154087400Y-52125800D01*
X131587400Y-59375800D02*
X131587400Y-52125800D01*
X132587400Y-60375800D02*
X131587400Y-59375800D01*
%TO.C,K3*%
X135451600Y-42600000D02*
X135451600Y-33600000D01*
X130901600Y-39100000D02*
X131901600Y-38100000D01*
X130901600Y-46350000D02*
X130901600Y-39100000D01*
X153401600Y-46350000D02*
X130901600Y-46350000D01*
X153401600Y-29850000D02*
X153401600Y-46350000D01*
X130901600Y-29850000D02*
X153401600Y-29850000D01*
X130901600Y-37100000D02*
X130901600Y-29850000D01*
X131901600Y-38100000D02*
X130901600Y-37100000D01*
%TO.C,K2*%
X137001000Y-86262600D02*
X137001000Y-77262600D01*
X132451000Y-82762600D02*
X133451000Y-81762600D01*
X132451000Y-90012600D02*
X132451000Y-82762600D01*
X154951000Y-90012600D02*
X132451000Y-90012600D01*
X154951000Y-73512600D02*
X154951000Y-90012600D01*
X132451000Y-73512600D02*
X154951000Y-73512600D01*
X132451000Y-80762600D02*
X132451000Y-73512600D01*
X133451000Y-81762600D02*
X132451000Y-80762600D01*
%TO.C,J1*%
X67640200Y-48514000D02*
X68275200Y-47879000D01*
X67640200Y-58039000D02*
X67640200Y-48514000D01*
X70180200Y-58039000D02*
X67640200Y-58039000D01*
X70180200Y-47879000D02*
X70180200Y-58039000D01*
X68275200Y-47879000D02*
X70180200Y-47879000D01*
%TO.C,D6*%
X122990600Y-55451700D02*
X120290600Y-55451700D01*
X120290600Y-55451700D02*
X120290600Y-60651700D01*
X120290600Y-60651700D02*
X122990600Y-60651700D01*
X122990600Y-60651700D02*
X122990600Y-55451700D01*
X121640600Y-52971700D02*
X121640600Y-55451700D01*
X121640600Y-63131700D02*
X121640600Y-60651700D01*
X122990600Y-56231700D02*
X120290600Y-56231700D01*
X122990600Y-56331700D02*
X120290600Y-56331700D01*
X122990600Y-56131700D02*
X120290600Y-56131700D01*
%TO.C,D5*%
X119841000Y-35113200D02*
X117141000Y-35113200D01*
X119841000Y-35313200D02*
X117141000Y-35313200D01*
X119841000Y-35213200D02*
X117141000Y-35213200D01*
X118491000Y-42113200D02*
X118491000Y-39633200D01*
X118491000Y-31953200D02*
X118491000Y-34433200D01*
X119841000Y-39633200D02*
X119841000Y-34433200D01*
X117141000Y-39633200D02*
X119841000Y-39633200D01*
X117141000Y-34433200D02*
X117141000Y-39633200D01*
X119841000Y-34433200D02*
X117141000Y-34433200D01*
%TO.C,D4*%
X124082800Y-77505800D02*
X121382800Y-77505800D01*
X124082800Y-77705800D02*
X121382800Y-77705800D01*
X124082800Y-77605800D02*
X121382800Y-77605800D01*
X122732800Y-84505800D02*
X122732800Y-82025800D01*
X122732800Y-74345800D02*
X122732800Y-76825800D01*
X124082800Y-82025800D02*
X124082800Y-76825800D01*
X121382800Y-82025800D02*
X124082800Y-82025800D01*
X121382800Y-76825800D02*
X121382800Y-82025800D01*
X124082800Y-76825800D02*
X121382800Y-76825800D01*
%TO.C,D2*%
X115726200Y-99121200D02*
X113026200Y-99121200D01*
X115726200Y-99321200D02*
X113026200Y-99321200D01*
X115726200Y-99221200D02*
X113026200Y-99221200D01*
X114376200Y-106121200D02*
X114376200Y-103641200D01*
X114376200Y-95961200D02*
X114376200Y-98441200D01*
X115726200Y-103641200D02*
X115726200Y-98441200D01*
X113026200Y-103641200D02*
X115726200Y-103641200D01*
X113026200Y-98441200D02*
X113026200Y-103641200D01*
X115726200Y-98441200D02*
X113026200Y-98441200D01*
%TD*%
%TO.C,K1*%
D11*
X152326800Y-104985866D02*
X152279180Y-105081104D01*
X152279180Y-105223961D01*
X152326800Y-105366819D01*
X152422038Y-105462057D01*
X152517276Y-105509676D01*
X152707752Y-105557295D01*
X152850609Y-105557295D01*
X153041085Y-105509676D01*
X153136323Y-105462057D01*
X153231561Y-105366819D01*
X153279180Y-105223961D01*
X153279180Y-105128723D01*
X153231561Y-104985866D01*
X153183942Y-104938247D01*
X152850609Y-104938247D01*
X152850609Y-105128723D01*
X152279180Y-104033485D02*
X152279180Y-104509676D01*
X152755371Y-104557295D01*
X152707752Y-104509676D01*
X152660133Y-104414438D01*
X152660133Y-104176342D01*
X152707752Y-104081104D01*
X152755371Y-104033485D01*
X152850609Y-103985866D01*
X153088704Y-103985866D01*
X153183942Y-104033485D01*
X153231561Y-104081104D01*
X153279180Y-104176342D01*
X153279180Y-104414438D01*
X153231561Y-104509676D01*
X153183942Y-104557295D01*
X153279180Y-103081104D02*
X153279180Y-103557295D01*
X152279180Y-103557295D01*
X152755371Y-102747771D02*
X152755371Y-102414438D01*
X153279180Y-102271580D02*
X153279180Y-102747771D01*
X152279180Y-102747771D01*
X152279180Y-102271580D01*
X152898228Y-101843009D02*
X152898228Y-101081104D01*
X153279180Y-100081104D02*
X153279180Y-100652533D01*
X153279180Y-100366819D02*
X152279180Y-100366819D01*
X152422038Y-100462057D01*
X152517276Y-100557295D01*
X152564895Y-100652533D01*
X141029180Y-103557295D02*
X140029180Y-103557295D01*
X141029180Y-102985866D02*
X140457752Y-103414438D01*
X140029180Y-102985866D02*
X140600609Y-103557295D01*
X141029180Y-102033485D02*
X141029180Y-102604914D01*
X141029180Y-102319200D02*
X140029180Y-102319200D01*
X140172038Y-102414438D01*
X140267276Y-102509676D01*
X140314895Y-102604914D01*
%TO.C,R4*%
X102755780Y-35464476D02*
X102279590Y-35797809D01*
X102755780Y-36035904D02*
X101755780Y-36035904D01*
X101755780Y-35654952D01*
X101803400Y-35559714D01*
X101851019Y-35512095D01*
X101946257Y-35464476D01*
X102089114Y-35464476D01*
X102184352Y-35512095D01*
X102231971Y-35559714D01*
X102279590Y-35654952D01*
X102279590Y-36035904D01*
X102851019Y-35274000D02*
X102851019Y-34512095D01*
X102708161Y-34321619D02*
X102755780Y-34178761D01*
X102755780Y-33940666D01*
X102708161Y-33845428D01*
X102660542Y-33797809D01*
X102565304Y-33750190D01*
X102470066Y-33750190D01*
X102374828Y-33797809D01*
X102327209Y-33845428D01*
X102279590Y-33940666D01*
X102231971Y-34131142D01*
X102184352Y-34226380D01*
X102136733Y-34274000D01*
X102041495Y-34321619D01*
X101946257Y-34321619D01*
X101851019Y-34274000D01*
X101803400Y-34226380D01*
X101755780Y-34131142D01*
X101755780Y-33893047D01*
X101803400Y-33750190D01*
X102755780Y-33321619D02*
X102089114Y-33321619D01*
X102184352Y-33321619D02*
X102136733Y-33274000D01*
X102089114Y-33178761D01*
X102089114Y-33035904D01*
X102136733Y-32940666D01*
X102231971Y-32893047D01*
X102755780Y-32893047D01*
X102231971Y-32893047D02*
X102136733Y-32845428D01*
X102089114Y-32750190D01*
X102089114Y-32607333D01*
X102136733Y-32512095D01*
X102231971Y-32464476D01*
X102755780Y-32464476D01*
X102755780Y-31559714D02*
X102231971Y-31559714D01*
X102136733Y-31607333D01*
X102089114Y-31702571D01*
X102089114Y-31893047D01*
X102136733Y-31988285D01*
X102708161Y-31559714D02*
X102755780Y-31654952D01*
X102755780Y-31893047D01*
X102708161Y-31988285D01*
X102612923Y-32035904D01*
X102517685Y-32035904D01*
X102422447Y-31988285D01*
X102374828Y-31893047D01*
X102374828Y-31654952D01*
X102327209Y-31559714D01*
X102755780Y-30940666D02*
X102708161Y-31035904D01*
X102612923Y-31083523D01*
X101755780Y-31083523D01*
X102755780Y-30416857D02*
X102708161Y-30512095D01*
X102612923Y-30559714D01*
X101755780Y-30559714D01*
X105328980Y-33847066D02*
X104852790Y-34180400D01*
X105328980Y-34418495D02*
X104328980Y-34418495D01*
X104328980Y-34037542D01*
X104376600Y-33942304D01*
X104424219Y-33894685D01*
X104519457Y-33847066D01*
X104662314Y-33847066D01*
X104757552Y-33894685D01*
X104805171Y-33942304D01*
X104852790Y-34037542D01*
X104852790Y-34418495D01*
X104662314Y-32989923D02*
X105328980Y-32989923D01*
X104281361Y-33228019D02*
X104995647Y-33466114D01*
X104995647Y-32847066D01*
%TO.C,SW1*%
X107832580Y-29721961D02*
X107975438Y-29769580D01*
X108213533Y-29769580D01*
X108308771Y-29721961D01*
X108356390Y-29674342D01*
X108404009Y-29579104D01*
X108404009Y-29483866D01*
X108356390Y-29388628D01*
X108308771Y-29341009D01*
X108213533Y-29293390D01*
X108023057Y-29245771D01*
X107927819Y-29198152D01*
X107880200Y-29150533D01*
X107832580Y-29055295D01*
X107832580Y-28960057D01*
X107880200Y-28864819D01*
X107927819Y-28817200D01*
X108023057Y-28769580D01*
X108261152Y-28769580D01*
X108404009Y-28817200D01*
X108737342Y-28769580D02*
X108975438Y-29769580D01*
X109165914Y-29055295D01*
X109356390Y-29769580D01*
X109594485Y-28769580D01*
X109737342Y-29864819D02*
X110499247Y-29864819D01*
X110737342Y-29769580D02*
X110737342Y-28769580D01*
X111118295Y-28769580D01*
X111213533Y-28817200D01*
X111261152Y-28864819D01*
X111308771Y-28960057D01*
X111308771Y-29102914D01*
X111261152Y-29198152D01*
X111213533Y-29245771D01*
X111118295Y-29293390D01*
X110737342Y-29293390D01*
X112165914Y-29102914D02*
X112165914Y-29769580D01*
X111737342Y-29102914D02*
X111737342Y-29626723D01*
X111784961Y-29721961D01*
X111880200Y-29769580D01*
X112023057Y-29769580D01*
X112118295Y-29721961D01*
X112165914Y-29674342D01*
X112594485Y-29721961D02*
X112689723Y-29769580D01*
X112880200Y-29769580D01*
X112975438Y-29721961D01*
X113023057Y-29626723D01*
X113023057Y-29579104D01*
X112975438Y-29483866D01*
X112880200Y-29436247D01*
X112737342Y-29436247D01*
X112642104Y-29388628D01*
X112594485Y-29293390D01*
X112594485Y-29245771D01*
X112642104Y-29150533D01*
X112737342Y-29102914D01*
X112880200Y-29102914D01*
X112975438Y-29150533D01*
X113451628Y-29769580D02*
X113451628Y-28769580D01*
X113880200Y-29769580D02*
X113880200Y-29245771D01*
X113832580Y-29150533D01*
X113737342Y-29102914D01*
X113594485Y-29102914D01*
X113499247Y-29150533D01*
X113451628Y-29198152D01*
X109945867Y-34265762D02*
X110088724Y-34313381D01*
X110326820Y-34313381D01*
X110422058Y-34265762D01*
X110469677Y-34218143D01*
X110517296Y-34122905D01*
X110517296Y-34027667D01*
X110469677Y-33932429D01*
X110422058Y-33884810D01*
X110326820Y-33837191D01*
X110136343Y-33789572D01*
X110041105Y-33741953D01*
X109993486Y-33694334D01*
X109945867Y-33599096D01*
X109945867Y-33503858D01*
X109993486Y-33408620D01*
X110041105Y-33361001D01*
X110136343Y-33313381D01*
X110374439Y-33313381D01*
X110517296Y-33361001D01*
X110850629Y-33313381D02*
X111088724Y-34313381D01*
X111279201Y-33599096D01*
X111469677Y-34313381D01*
X111707772Y-33313381D01*
X112612534Y-34313381D02*
X112041105Y-34313381D01*
X112326820Y-34313381D02*
X112326820Y-33313381D01*
X112231581Y-33456239D01*
X112136343Y-33551477D01*
X112041105Y-33599096D01*
%TO.C,SW2*%
X78749580Y-28197961D02*
X78892438Y-28245580D01*
X79130533Y-28245580D01*
X79225771Y-28197961D01*
X79273390Y-28150342D01*
X79321009Y-28055104D01*
X79321009Y-27959866D01*
X79273390Y-27864628D01*
X79225771Y-27817009D01*
X79130533Y-27769390D01*
X78940057Y-27721771D01*
X78844819Y-27674152D01*
X78797200Y-27626533D01*
X78749580Y-27531295D01*
X78749580Y-27436057D01*
X78797200Y-27340819D01*
X78844819Y-27293200D01*
X78940057Y-27245580D01*
X79178152Y-27245580D01*
X79321009Y-27293200D01*
X79654342Y-27245580D02*
X79892438Y-28245580D01*
X80082914Y-27531295D01*
X80273390Y-28245580D01*
X80511485Y-27245580D01*
X80654342Y-28340819D02*
X81416247Y-28340819D01*
X81654342Y-28245580D02*
X81654342Y-27245580D01*
X82035295Y-27245580D01*
X82130533Y-27293200D01*
X82178152Y-27340819D01*
X82225771Y-27436057D01*
X82225771Y-27578914D01*
X82178152Y-27674152D01*
X82130533Y-27721771D01*
X82035295Y-27769390D01*
X81654342Y-27769390D01*
X83082914Y-27578914D02*
X83082914Y-28245580D01*
X82654342Y-27578914D02*
X82654342Y-28102723D01*
X82701961Y-28197961D01*
X82797200Y-28245580D01*
X82940057Y-28245580D01*
X83035295Y-28197961D01*
X83082914Y-28150342D01*
X83511485Y-28197961D02*
X83606723Y-28245580D01*
X83797200Y-28245580D01*
X83892438Y-28197961D01*
X83940057Y-28102723D01*
X83940057Y-28055104D01*
X83892438Y-27959866D01*
X83797200Y-27912247D01*
X83654342Y-27912247D01*
X83559104Y-27864628D01*
X83511485Y-27769390D01*
X83511485Y-27721771D01*
X83559104Y-27626533D01*
X83654342Y-27578914D01*
X83797200Y-27578914D01*
X83892438Y-27626533D01*
X84368628Y-28245580D02*
X84368628Y-27245580D01*
X84797200Y-28245580D02*
X84797200Y-27721771D01*
X84749580Y-27626533D01*
X84654342Y-27578914D01*
X84511485Y-27578914D01*
X84416247Y-27626533D01*
X84368628Y-27674152D01*
X80963866Y-32647961D02*
X81106723Y-32695580D01*
X81344819Y-32695580D01*
X81440057Y-32647961D01*
X81487676Y-32600342D01*
X81535295Y-32505104D01*
X81535295Y-32409866D01*
X81487676Y-32314628D01*
X81440057Y-32267009D01*
X81344819Y-32219390D01*
X81154342Y-32171771D01*
X81059104Y-32124152D01*
X81011485Y-32076533D01*
X80963866Y-31981295D01*
X80963866Y-31886057D01*
X81011485Y-31790819D01*
X81059104Y-31743200D01*
X81154342Y-31695580D01*
X81392438Y-31695580D01*
X81535295Y-31743200D01*
X81868628Y-31695580D02*
X82106723Y-32695580D01*
X82297200Y-31981295D01*
X82487676Y-32695580D01*
X82725771Y-31695580D01*
X83059104Y-31790819D02*
X83106723Y-31743200D01*
X83201961Y-31695580D01*
X83440057Y-31695580D01*
X83535295Y-31743200D01*
X83582914Y-31790819D01*
X83630533Y-31886057D01*
X83630533Y-31981295D01*
X83582914Y-32124152D01*
X83011485Y-32695580D01*
X83630533Y-32695580D01*
%TO.C,R7*%
X80080123Y-36080780D02*
X79746790Y-35604590D01*
X79508695Y-36080780D02*
X79508695Y-35080780D01*
X79889647Y-35080780D01*
X79984885Y-35128400D01*
X80032504Y-35176019D01*
X80080123Y-35271257D01*
X80080123Y-35414114D01*
X80032504Y-35509352D01*
X79984885Y-35556971D01*
X79889647Y-35604590D01*
X79508695Y-35604590D01*
X80270600Y-36176019D02*
X81032504Y-36176019D01*
X81222980Y-36033161D02*
X81365838Y-36080780D01*
X81603933Y-36080780D01*
X81699171Y-36033161D01*
X81746790Y-35985542D01*
X81794409Y-35890304D01*
X81794409Y-35795066D01*
X81746790Y-35699828D01*
X81699171Y-35652209D01*
X81603933Y-35604590D01*
X81413457Y-35556971D01*
X81318219Y-35509352D01*
X81270600Y-35461733D01*
X81222980Y-35366495D01*
X81222980Y-35271257D01*
X81270600Y-35176019D01*
X81318219Y-35128400D01*
X81413457Y-35080780D01*
X81651552Y-35080780D01*
X81794409Y-35128400D01*
X82222980Y-36080780D02*
X82222980Y-35414114D01*
X82222980Y-35509352D02*
X82270600Y-35461733D01*
X82365838Y-35414114D01*
X82508695Y-35414114D01*
X82603933Y-35461733D01*
X82651552Y-35556971D01*
X82651552Y-36080780D01*
X82651552Y-35556971D02*
X82699171Y-35461733D01*
X82794409Y-35414114D01*
X82937266Y-35414114D01*
X83032504Y-35461733D01*
X83080123Y-35556971D01*
X83080123Y-36080780D01*
X83984885Y-36080780D02*
X83984885Y-35556971D01*
X83937266Y-35461733D01*
X83842028Y-35414114D01*
X83651552Y-35414114D01*
X83556314Y-35461733D01*
X83984885Y-36033161D02*
X83889647Y-36080780D01*
X83651552Y-36080780D01*
X83556314Y-36033161D01*
X83508695Y-35937923D01*
X83508695Y-35842685D01*
X83556314Y-35747447D01*
X83651552Y-35699828D01*
X83889647Y-35699828D01*
X83984885Y-35652209D01*
X84603933Y-36080780D02*
X84508695Y-36033161D01*
X84461076Y-35937923D01*
X84461076Y-35080780D01*
X85127742Y-36080780D02*
X85032504Y-36033161D01*
X84984885Y-35937923D01*
X84984885Y-35080780D01*
X82103933Y-38450780D02*
X81770600Y-37974590D01*
X81532504Y-38450780D02*
X81532504Y-37450780D01*
X81913457Y-37450780D01*
X82008695Y-37498400D01*
X82056314Y-37546019D01*
X82103933Y-37641257D01*
X82103933Y-37784114D01*
X82056314Y-37879352D01*
X82008695Y-37926971D01*
X81913457Y-37974590D01*
X81532504Y-37974590D01*
X82437266Y-37450780D02*
X83103933Y-37450780D01*
X82675361Y-38450780D01*
%TO.C,U1*%
X81087485Y-43098980D02*
X81087485Y-42098980D01*
X81658914Y-43098980D01*
X81658914Y-42098980D01*
X82277961Y-43098980D02*
X82182723Y-43051361D01*
X82135104Y-43003742D01*
X82087485Y-42908504D01*
X82087485Y-42622790D01*
X82135104Y-42527552D01*
X82182723Y-42479933D01*
X82277961Y-42432314D01*
X82420819Y-42432314D01*
X82516057Y-42479933D01*
X82563676Y-42527552D01*
X82611295Y-42622790D01*
X82611295Y-42908504D01*
X82563676Y-43003742D01*
X82516057Y-43051361D01*
X82420819Y-43098980D01*
X82277961Y-43098980D01*
X83468438Y-43098980D02*
X83468438Y-42098980D01*
X83468438Y-43051361D02*
X83373200Y-43098980D01*
X83182723Y-43098980D01*
X83087485Y-43051361D01*
X83039866Y-43003742D01*
X82992247Y-42908504D01*
X82992247Y-42622790D01*
X83039866Y-42527552D01*
X83087485Y-42479933D01*
X83182723Y-42432314D01*
X83373200Y-42432314D01*
X83468438Y-42479933D01*
X84325580Y-43051361D02*
X84230342Y-43098980D01*
X84039866Y-43098980D01*
X83944628Y-43051361D01*
X83897009Y-42956123D01*
X83897009Y-42575171D01*
X83944628Y-42479933D01*
X84039866Y-42432314D01*
X84230342Y-42432314D01*
X84325580Y-42479933D01*
X84373200Y-42575171D01*
X84373200Y-42670409D01*
X83897009Y-42765647D01*
X84801771Y-43098980D02*
X84801771Y-42098980D01*
X85135104Y-42813266D01*
X85468438Y-42098980D01*
X85468438Y-43098980D01*
X86516057Y-43003742D02*
X86468438Y-43051361D01*
X86325580Y-43098980D01*
X86230342Y-43098980D01*
X86087485Y-43051361D01*
X85992247Y-42956123D01*
X85944628Y-42860885D01*
X85897009Y-42670409D01*
X85897009Y-42527552D01*
X85944628Y-42337076D01*
X85992247Y-42241838D01*
X86087485Y-42146600D01*
X86230342Y-42098980D01*
X86325580Y-42098980D01*
X86468438Y-42146600D01*
X86516057Y-42194219D01*
X86944628Y-42098980D02*
X86944628Y-42908504D01*
X86992247Y-43003742D01*
X87039866Y-43051361D01*
X87135104Y-43098980D01*
X87325580Y-43098980D01*
X87420819Y-43051361D01*
X87468438Y-43003742D01*
X87516057Y-42908504D01*
X87516057Y-42098980D01*
X87754152Y-43194219D02*
X88516057Y-43194219D01*
X89277961Y-43098980D02*
X88706533Y-43098980D01*
X88992247Y-43098980D02*
X88992247Y-42098980D01*
X88897009Y-42241838D01*
X88801771Y-42337076D01*
X88706533Y-42384695D01*
X89706533Y-43003742D02*
X89754152Y-43051361D01*
X89706533Y-43098980D01*
X89658914Y-43051361D01*
X89706533Y-43003742D01*
X89706533Y-43098980D01*
X90373200Y-42098980D02*
X90468438Y-42098980D01*
X90563676Y-42146600D01*
X90611295Y-42194219D01*
X90658914Y-42289457D01*
X90706533Y-42479933D01*
X90706533Y-42718028D01*
X90658914Y-42908504D01*
X90611295Y-43003742D01*
X90563676Y-43051361D01*
X90468438Y-43098980D01*
X90373200Y-43098980D01*
X90277961Y-43051361D01*
X90230342Y-43003742D01*
X90182723Y-42908504D01*
X90135104Y-42718028D01*
X90135104Y-42479933D01*
X90182723Y-42289457D01*
X90230342Y-42194219D01*
X90277961Y-42146600D01*
X90373200Y-42098980D01*
X90897009Y-43194219D02*
X91658914Y-43194219D01*
X92182723Y-43479933D02*
X92135104Y-43432314D01*
X92039866Y-43289457D01*
X91992247Y-43194219D01*
X91944628Y-43051361D01*
X91897009Y-42813266D01*
X91897009Y-42622790D01*
X91944628Y-42384695D01*
X91992247Y-42241838D01*
X92039866Y-42146600D01*
X92135104Y-42003742D01*
X92182723Y-41956123D01*
X92563676Y-42575171D02*
X92897009Y-42575171D01*
X93039866Y-43098980D02*
X92563676Y-43098980D01*
X92563676Y-42098980D01*
X93039866Y-42098980D01*
X93420819Y-43051361D02*
X93563676Y-43098980D01*
X93801771Y-43098980D01*
X93897009Y-43051361D01*
X93944628Y-43003742D01*
X93992247Y-42908504D01*
X93992247Y-42813266D01*
X93944628Y-42718028D01*
X93897009Y-42670409D01*
X93801771Y-42622790D01*
X93611295Y-42575171D01*
X93516057Y-42527552D01*
X93468438Y-42479933D01*
X93420819Y-42384695D01*
X93420819Y-42289457D01*
X93468438Y-42194219D01*
X93516057Y-42146600D01*
X93611295Y-42098980D01*
X93849390Y-42098980D01*
X93992247Y-42146600D01*
X94420819Y-43098980D02*
X94420819Y-42098980D01*
X94801771Y-42098980D01*
X94897009Y-42146600D01*
X94944628Y-42194219D01*
X94992247Y-42289457D01*
X94992247Y-42432314D01*
X94944628Y-42527552D01*
X94897009Y-42575171D01*
X94801771Y-42622790D01*
X94420819Y-42622790D01*
X95420819Y-42718028D02*
X96182723Y-42718028D01*
X97182723Y-43098980D02*
X96611295Y-43098980D01*
X96897009Y-43098980D02*
X96897009Y-42098980D01*
X96801771Y-42241838D01*
X96706533Y-42337076D01*
X96611295Y-42384695D01*
X97563676Y-42194219D02*
X97611295Y-42146600D01*
X97706533Y-42098980D01*
X97944628Y-42098980D01*
X98039866Y-42146600D01*
X98087485Y-42194219D01*
X98135104Y-42289457D01*
X98135104Y-42384695D01*
X98087485Y-42527552D01*
X97516057Y-43098980D01*
X98135104Y-43098980D01*
X98563676Y-42575171D02*
X98897009Y-42575171D01*
X99039866Y-43098980D02*
X98563676Y-43098980D01*
X98563676Y-42098980D01*
X99039866Y-42098980D01*
X99373200Y-43479933D02*
X99420819Y-43432314D01*
X99516057Y-43289457D01*
X99563676Y-43194219D01*
X99611295Y-43051361D01*
X99658914Y-42813266D01*
X99658914Y-42622790D01*
X99611295Y-42384695D01*
X99563676Y-42241838D01*
X99516057Y-42146600D01*
X99420819Y-42003742D01*
X99373200Y-41956123D01*
%TO.C,Q4*%
X117763171Y-70462542D02*
X117810790Y-70319685D01*
X117858409Y-70272066D01*
X117953647Y-70224447D01*
X118096504Y-70224447D01*
X118191742Y-70272066D01*
X118239361Y-70319685D01*
X118286980Y-70414923D01*
X118286980Y-70795876D01*
X117286980Y-70795876D01*
X117286980Y-70462542D01*
X117334600Y-70367304D01*
X117382219Y-70319685D01*
X117477457Y-70272066D01*
X117572695Y-70272066D01*
X117667933Y-70319685D01*
X117715552Y-70367304D01*
X117763171Y-70462542D01*
X117763171Y-70795876D01*
X118191742Y-69224447D02*
X118239361Y-69272066D01*
X118286980Y-69414923D01*
X118286980Y-69510161D01*
X118239361Y-69653019D01*
X118144123Y-69748257D01*
X118048885Y-69795876D01*
X117858409Y-69843495D01*
X117715552Y-69843495D01*
X117525076Y-69795876D01*
X117429838Y-69748257D01*
X117334600Y-69653019D01*
X117286980Y-69510161D01*
X117286980Y-69414923D01*
X117334600Y-69272066D01*
X117382219Y-69224447D01*
X117286980Y-68319685D02*
X117286980Y-68795876D01*
X117763171Y-68843495D01*
X117715552Y-68795876D01*
X117667933Y-68700638D01*
X117667933Y-68462542D01*
X117715552Y-68367304D01*
X117763171Y-68319685D01*
X117858409Y-68272066D01*
X118096504Y-68272066D01*
X118191742Y-68319685D01*
X118239361Y-68367304D01*
X118286980Y-68462542D01*
X118286980Y-68700638D01*
X118239361Y-68795876D01*
X118191742Y-68843495D01*
X117620314Y-67414923D02*
X118286980Y-67414923D01*
X117239361Y-67653019D02*
X117953647Y-67891114D01*
X117953647Y-67272066D01*
X117286980Y-66986352D02*
X117286980Y-66319685D01*
X118286980Y-66748257D01*
X121172219Y-68700638D02*
X121124600Y-68795876D01*
X121029361Y-68891114D01*
X120886504Y-69033971D01*
X120838885Y-69129209D01*
X120838885Y-69224447D01*
X121076980Y-69176828D02*
X121029361Y-69272066D01*
X120934123Y-69367304D01*
X120743647Y-69414923D01*
X120410314Y-69414923D01*
X120219838Y-69367304D01*
X120124600Y-69272066D01*
X120076980Y-69176828D01*
X120076980Y-68986352D01*
X120124600Y-68891114D01*
X120219838Y-68795876D01*
X120410314Y-68748257D01*
X120743647Y-68748257D01*
X120934123Y-68795876D01*
X121029361Y-68891114D01*
X121076980Y-68986352D01*
X121076980Y-69176828D01*
X120410314Y-67891114D02*
X121076980Y-67891114D01*
X120029361Y-68129209D02*
X120743647Y-68367304D01*
X120743647Y-67748257D01*
%TO.C,Q3*%
X115400971Y-49812342D02*
X115448590Y-49669485D01*
X115496209Y-49621866D01*
X115591447Y-49574247D01*
X115734304Y-49574247D01*
X115829542Y-49621866D01*
X115877161Y-49669485D01*
X115924780Y-49764723D01*
X115924780Y-50145676D01*
X114924780Y-50145676D01*
X114924780Y-49812342D01*
X114972400Y-49717104D01*
X115020019Y-49669485D01*
X115115257Y-49621866D01*
X115210495Y-49621866D01*
X115305733Y-49669485D01*
X115353352Y-49717104D01*
X115400971Y-49812342D01*
X115400971Y-50145676D01*
X115829542Y-48574247D02*
X115877161Y-48621866D01*
X115924780Y-48764723D01*
X115924780Y-48859961D01*
X115877161Y-49002819D01*
X115781923Y-49098057D01*
X115686685Y-49145676D01*
X115496209Y-49193295D01*
X115353352Y-49193295D01*
X115162876Y-49145676D01*
X115067638Y-49098057D01*
X114972400Y-49002819D01*
X114924780Y-48859961D01*
X114924780Y-48764723D01*
X114972400Y-48621866D01*
X115020019Y-48574247D01*
X114924780Y-47669485D02*
X114924780Y-48145676D01*
X115400971Y-48193295D01*
X115353352Y-48145676D01*
X115305733Y-48050438D01*
X115305733Y-47812342D01*
X115353352Y-47717104D01*
X115400971Y-47669485D01*
X115496209Y-47621866D01*
X115734304Y-47621866D01*
X115829542Y-47669485D01*
X115877161Y-47717104D01*
X115924780Y-47812342D01*
X115924780Y-48050438D01*
X115877161Y-48145676D01*
X115829542Y-48193295D01*
X115258114Y-46764723D02*
X115924780Y-46764723D01*
X114877161Y-47002819D02*
X115591447Y-47240914D01*
X115591447Y-46621866D01*
X114924780Y-46336152D02*
X114924780Y-45669485D01*
X115924780Y-46098057D01*
X118810019Y-48050438D02*
X118762400Y-48145676D01*
X118667161Y-48240914D01*
X118524304Y-48383771D01*
X118476685Y-48479009D01*
X118476685Y-48574247D01*
X118714780Y-48526628D02*
X118667161Y-48621866D01*
X118571923Y-48717104D01*
X118381447Y-48764723D01*
X118048114Y-48764723D01*
X117857638Y-48717104D01*
X117762400Y-48621866D01*
X117714780Y-48526628D01*
X117714780Y-48336152D01*
X117762400Y-48240914D01*
X117857638Y-48145676D01*
X118048114Y-48098057D01*
X118381447Y-48098057D01*
X118571923Y-48145676D01*
X118667161Y-48240914D01*
X118714780Y-48336152D01*
X118714780Y-48526628D01*
X117714780Y-47764723D02*
X117714780Y-47145676D01*
X118095733Y-47479009D01*
X118095733Y-47336152D01*
X118143352Y-47240914D01*
X118190971Y-47193295D01*
X118286209Y-47145676D01*
X118524304Y-47145676D01*
X118619542Y-47193295D01*
X118667161Y-47240914D01*
X118714780Y-47336152D01*
X118714780Y-47621866D01*
X118667161Y-47717104D01*
X118619542Y-47764723D01*
%TO.C,Q2*%
X119007771Y-92001742D02*
X119055390Y-91858885D01*
X119103009Y-91811266D01*
X119198247Y-91763647D01*
X119341104Y-91763647D01*
X119436342Y-91811266D01*
X119483961Y-91858885D01*
X119531580Y-91954123D01*
X119531580Y-92335076D01*
X118531580Y-92335076D01*
X118531580Y-92001742D01*
X118579200Y-91906504D01*
X118626819Y-91858885D01*
X118722057Y-91811266D01*
X118817295Y-91811266D01*
X118912533Y-91858885D01*
X118960152Y-91906504D01*
X119007771Y-92001742D01*
X119007771Y-92335076D01*
X119436342Y-90763647D02*
X119483961Y-90811266D01*
X119531580Y-90954123D01*
X119531580Y-91049361D01*
X119483961Y-91192219D01*
X119388723Y-91287457D01*
X119293485Y-91335076D01*
X119103009Y-91382695D01*
X118960152Y-91382695D01*
X118769676Y-91335076D01*
X118674438Y-91287457D01*
X118579200Y-91192219D01*
X118531580Y-91049361D01*
X118531580Y-90954123D01*
X118579200Y-90811266D01*
X118626819Y-90763647D01*
X118531580Y-89858885D02*
X118531580Y-90335076D01*
X119007771Y-90382695D01*
X118960152Y-90335076D01*
X118912533Y-90239838D01*
X118912533Y-90001742D01*
X118960152Y-89906504D01*
X119007771Y-89858885D01*
X119103009Y-89811266D01*
X119341104Y-89811266D01*
X119436342Y-89858885D01*
X119483961Y-89906504D01*
X119531580Y-90001742D01*
X119531580Y-90239838D01*
X119483961Y-90335076D01*
X119436342Y-90382695D01*
X118864914Y-88954123D02*
X119531580Y-88954123D01*
X118483961Y-89192219D02*
X119198247Y-89430314D01*
X119198247Y-88811266D01*
X118531580Y-88525552D02*
X118531580Y-87858885D01*
X119531580Y-88287457D01*
X122416819Y-90239838D02*
X122369200Y-90335076D01*
X122273961Y-90430314D01*
X122131104Y-90573171D01*
X122083485Y-90668409D01*
X122083485Y-90763647D01*
X122321580Y-90716028D02*
X122273961Y-90811266D01*
X122178723Y-90906504D01*
X121988247Y-90954123D01*
X121654914Y-90954123D01*
X121464438Y-90906504D01*
X121369200Y-90811266D01*
X121321580Y-90716028D01*
X121321580Y-90525552D01*
X121369200Y-90430314D01*
X121464438Y-90335076D01*
X121654914Y-90287457D01*
X121988247Y-90287457D01*
X122178723Y-90335076D01*
X122273961Y-90430314D01*
X122321580Y-90525552D01*
X122321580Y-90716028D01*
X121416819Y-89906504D02*
X121369200Y-89858885D01*
X121321580Y-89763647D01*
X121321580Y-89525552D01*
X121369200Y-89430314D01*
X121416819Y-89382695D01*
X121512057Y-89335076D01*
X121607295Y-89335076D01*
X121750152Y-89382695D01*
X122321580Y-89954123D01*
X122321580Y-89335076D01*
%TO.C,Q1*%
X111311571Y-114099742D02*
X111359190Y-113956885D01*
X111406809Y-113909266D01*
X111502047Y-113861647D01*
X111644904Y-113861647D01*
X111740142Y-113909266D01*
X111787761Y-113956885D01*
X111835380Y-114052123D01*
X111835380Y-114433076D01*
X110835380Y-114433076D01*
X110835380Y-114099742D01*
X110883000Y-114004504D01*
X110930619Y-113956885D01*
X111025857Y-113909266D01*
X111121095Y-113909266D01*
X111216333Y-113956885D01*
X111263952Y-114004504D01*
X111311571Y-114099742D01*
X111311571Y-114433076D01*
X111740142Y-112861647D02*
X111787761Y-112909266D01*
X111835380Y-113052123D01*
X111835380Y-113147361D01*
X111787761Y-113290219D01*
X111692523Y-113385457D01*
X111597285Y-113433076D01*
X111406809Y-113480695D01*
X111263952Y-113480695D01*
X111073476Y-113433076D01*
X110978238Y-113385457D01*
X110883000Y-113290219D01*
X110835380Y-113147361D01*
X110835380Y-113052123D01*
X110883000Y-112909266D01*
X110930619Y-112861647D01*
X110835380Y-111956885D02*
X110835380Y-112433076D01*
X111311571Y-112480695D01*
X111263952Y-112433076D01*
X111216333Y-112337838D01*
X111216333Y-112099742D01*
X111263952Y-112004504D01*
X111311571Y-111956885D01*
X111406809Y-111909266D01*
X111644904Y-111909266D01*
X111740142Y-111956885D01*
X111787761Y-112004504D01*
X111835380Y-112099742D01*
X111835380Y-112337838D01*
X111787761Y-112433076D01*
X111740142Y-112480695D01*
X111168714Y-111052123D02*
X111835380Y-111052123D01*
X110787761Y-111290219D02*
X111502047Y-111528314D01*
X111502047Y-110909266D01*
X110835380Y-110623552D02*
X110835380Y-109956885D01*
X111835380Y-110385457D01*
X114720619Y-112337838D02*
X114673000Y-112433076D01*
X114577761Y-112528314D01*
X114434904Y-112671171D01*
X114387285Y-112766409D01*
X114387285Y-112861647D01*
X114625380Y-112814028D02*
X114577761Y-112909266D01*
X114482523Y-113004504D01*
X114292047Y-113052123D01*
X113958714Y-113052123D01*
X113768238Y-113004504D01*
X113673000Y-112909266D01*
X113625380Y-112814028D01*
X113625380Y-112623552D01*
X113673000Y-112528314D01*
X113768238Y-112433076D01*
X113958714Y-112385457D01*
X114292047Y-112385457D01*
X114482523Y-112433076D01*
X114577761Y-112528314D01*
X114625380Y-112623552D01*
X114625380Y-112814028D01*
X114625380Y-111433076D02*
X114625380Y-112004504D01*
X114625380Y-111718790D02*
X113625380Y-111718790D01*
X113768238Y-111814028D01*
X113863476Y-111909266D01*
X113911095Y-112004504D01*
%TO.C,U2*%
X66273561Y-90175980D02*
X65797371Y-90175980D01*
X65797371Y-89175980D01*
X66511657Y-89175980D02*
X67178323Y-89175980D01*
X66749752Y-90175980D01*
X67702133Y-89604552D02*
X67606895Y-89556933D01*
X67559276Y-89509314D01*
X67511657Y-89414076D01*
X67511657Y-89366457D01*
X67559276Y-89271219D01*
X67606895Y-89223600D01*
X67702133Y-89175980D01*
X67892609Y-89175980D01*
X67987847Y-89223600D01*
X68035466Y-89271219D01*
X68083085Y-89366457D01*
X68083085Y-89414076D01*
X68035466Y-89509314D01*
X67987847Y-89556933D01*
X67892609Y-89604552D01*
X67702133Y-89604552D01*
X67606895Y-89652171D01*
X67559276Y-89699790D01*
X67511657Y-89795028D01*
X67511657Y-89985504D01*
X67559276Y-90080742D01*
X67606895Y-90128361D01*
X67702133Y-90175980D01*
X67892609Y-90175980D01*
X67987847Y-90128361D01*
X68035466Y-90080742D01*
X68083085Y-89985504D01*
X68083085Y-89795028D01*
X68035466Y-89699790D01*
X67987847Y-89652171D01*
X67892609Y-89604552D01*
X68702133Y-89175980D02*
X68797371Y-89175980D01*
X68892609Y-89223600D01*
X68940228Y-89271219D01*
X68987847Y-89366457D01*
X69035466Y-89556933D01*
X69035466Y-89795028D01*
X68987847Y-89985504D01*
X68940228Y-90080742D01*
X68892609Y-90128361D01*
X68797371Y-90175980D01*
X68702133Y-90175980D01*
X68606895Y-90128361D01*
X68559276Y-90080742D01*
X68511657Y-89985504D01*
X68464038Y-89795028D01*
X68464038Y-89556933D01*
X68511657Y-89366457D01*
X68559276Y-89271219D01*
X68606895Y-89223600D01*
X68702133Y-89175980D01*
X69940228Y-89175980D02*
X69464038Y-89175980D01*
X69416419Y-89652171D01*
X69464038Y-89604552D01*
X69559276Y-89556933D01*
X69797371Y-89556933D01*
X69892609Y-89604552D01*
X69940228Y-89652171D01*
X69987847Y-89747409D01*
X69987847Y-89985504D01*
X69940228Y-90080742D01*
X69892609Y-90128361D01*
X69797371Y-90175980D01*
X69559276Y-90175980D01*
X69464038Y-90128361D01*
X69416419Y-90080742D01*
X67106895Y-82405980D02*
X67106895Y-83215504D01*
X67154514Y-83310742D01*
X67202133Y-83358361D01*
X67297371Y-83405980D01*
X67487847Y-83405980D01*
X67583085Y-83358361D01*
X67630704Y-83310742D01*
X67678323Y-83215504D01*
X67678323Y-82405980D01*
X68106895Y-82501219D02*
X68154514Y-82453600D01*
X68249752Y-82405980D01*
X68487847Y-82405980D01*
X68583085Y-82453600D01*
X68630704Y-82501219D01*
X68678323Y-82596457D01*
X68678323Y-82691695D01*
X68630704Y-82834552D01*
X68059276Y-83405980D01*
X68678323Y-83405980D01*
%TO.C,R14*%
X125387180Y-58730876D02*
X124910990Y-59064209D01*
X125387180Y-59302304D02*
X124387180Y-59302304D01*
X124387180Y-58921352D01*
X124434800Y-58826114D01*
X124482419Y-58778495D01*
X124577657Y-58730876D01*
X124720514Y-58730876D01*
X124815752Y-58778495D01*
X124863371Y-58826114D01*
X124910990Y-58921352D01*
X124910990Y-59302304D01*
X125482419Y-58540400D02*
X125482419Y-57778495D01*
X125339561Y-57588019D02*
X125387180Y-57445161D01*
X125387180Y-57207066D01*
X125339561Y-57111828D01*
X125291942Y-57064209D01*
X125196704Y-57016590D01*
X125101466Y-57016590D01*
X125006228Y-57064209D01*
X124958609Y-57111828D01*
X124910990Y-57207066D01*
X124863371Y-57397542D01*
X124815752Y-57492780D01*
X124768133Y-57540400D01*
X124672895Y-57588019D01*
X124577657Y-57588019D01*
X124482419Y-57540400D01*
X124434800Y-57492780D01*
X124387180Y-57397542D01*
X124387180Y-57159447D01*
X124434800Y-57016590D01*
X125387180Y-56588019D02*
X124720514Y-56588019D01*
X124815752Y-56588019D02*
X124768133Y-56540400D01*
X124720514Y-56445161D01*
X124720514Y-56302304D01*
X124768133Y-56207066D01*
X124863371Y-56159447D01*
X125387180Y-56159447D01*
X124863371Y-56159447D02*
X124768133Y-56111828D01*
X124720514Y-56016590D01*
X124720514Y-55873733D01*
X124768133Y-55778495D01*
X124863371Y-55730876D01*
X125387180Y-55730876D01*
X125387180Y-54826114D02*
X124863371Y-54826114D01*
X124768133Y-54873733D01*
X124720514Y-54968971D01*
X124720514Y-55159447D01*
X124768133Y-55254685D01*
X125339561Y-54826114D02*
X125387180Y-54921352D01*
X125387180Y-55159447D01*
X125339561Y-55254685D01*
X125244323Y-55302304D01*
X125149085Y-55302304D01*
X125053847Y-55254685D01*
X125006228Y-55159447D01*
X125006228Y-54921352D01*
X124958609Y-54826114D01*
X125387180Y-54207066D02*
X125339561Y-54302304D01*
X125244323Y-54349923D01*
X124387180Y-54349923D01*
X125387180Y-53683257D02*
X125339561Y-53778495D01*
X125244323Y-53826114D01*
X124387180Y-53826114D01*
X127757180Y-57183257D02*
X127280990Y-57516590D01*
X127757180Y-57754685D02*
X126757180Y-57754685D01*
X126757180Y-57373733D01*
X126804800Y-57278495D01*
X126852419Y-57230876D01*
X126947657Y-57183257D01*
X127090514Y-57183257D01*
X127185752Y-57230876D01*
X127233371Y-57278495D01*
X127280990Y-57373733D01*
X127280990Y-57754685D01*
X127757180Y-56230876D02*
X127757180Y-56802304D01*
X127757180Y-56516590D02*
X126757180Y-56516590D01*
X126900038Y-56611828D01*
X126995276Y-56707066D01*
X127042895Y-56802304D01*
X127090514Y-55373733D02*
X127757180Y-55373733D01*
X126709561Y-55611828D02*
X127423847Y-55849923D01*
X127423847Y-55230876D01*
%TO.C,R13*%
X123278980Y-36582076D02*
X122802790Y-36915409D01*
X123278980Y-37153504D02*
X122278980Y-37153504D01*
X122278980Y-36772552D01*
X122326600Y-36677314D01*
X122374219Y-36629695D01*
X122469457Y-36582076D01*
X122612314Y-36582076D01*
X122707552Y-36629695D01*
X122755171Y-36677314D01*
X122802790Y-36772552D01*
X122802790Y-37153504D01*
X123374219Y-36391600D02*
X123374219Y-35629695D01*
X123231361Y-35439219D02*
X123278980Y-35296361D01*
X123278980Y-35058266D01*
X123231361Y-34963028D01*
X123183742Y-34915409D01*
X123088504Y-34867790D01*
X122993266Y-34867790D01*
X122898028Y-34915409D01*
X122850409Y-34963028D01*
X122802790Y-35058266D01*
X122755171Y-35248742D01*
X122707552Y-35343980D01*
X122659933Y-35391600D01*
X122564695Y-35439219D01*
X122469457Y-35439219D01*
X122374219Y-35391600D01*
X122326600Y-35343980D01*
X122278980Y-35248742D01*
X122278980Y-35010647D01*
X122326600Y-34867790D01*
X123278980Y-34439219D02*
X122612314Y-34439219D01*
X122707552Y-34439219D02*
X122659933Y-34391600D01*
X122612314Y-34296361D01*
X122612314Y-34153504D01*
X122659933Y-34058266D01*
X122755171Y-34010647D01*
X123278980Y-34010647D01*
X122755171Y-34010647D02*
X122659933Y-33963028D01*
X122612314Y-33867790D01*
X122612314Y-33724933D01*
X122659933Y-33629695D01*
X122755171Y-33582076D01*
X123278980Y-33582076D01*
X123278980Y-32677314D02*
X122755171Y-32677314D01*
X122659933Y-32724933D01*
X122612314Y-32820171D01*
X122612314Y-33010647D01*
X122659933Y-33105885D01*
X123231361Y-32677314D02*
X123278980Y-32772552D01*
X123278980Y-33010647D01*
X123231361Y-33105885D01*
X123136123Y-33153504D01*
X123040885Y-33153504D01*
X122945647Y-33105885D01*
X122898028Y-33010647D01*
X122898028Y-32772552D01*
X122850409Y-32677314D01*
X123278980Y-32058266D02*
X123231361Y-32153504D01*
X123136123Y-32201123D01*
X122278980Y-32201123D01*
X123278980Y-31534457D02*
X123231361Y-31629695D01*
X123136123Y-31677314D01*
X122278980Y-31677314D01*
X125648980Y-35034457D02*
X125172790Y-35367790D01*
X125648980Y-35605885D02*
X124648980Y-35605885D01*
X124648980Y-35224933D01*
X124696600Y-35129695D01*
X124744219Y-35082076D01*
X124839457Y-35034457D01*
X124982314Y-35034457D01*
X125077552Y-35082076D01*
X125125171Y-35129695D01*
X125172790Y-35224933D01*
X125172790Y-35605885D01*
X125648980Y-34082076D02*
X125648980Y-34653504D01*
X125648980Y-34367790D02*
X124648980Y-34367790D01*
X124791838Y-34463028D01*
X124887076Y-34558266D01*
X124934695Y-34653504D01*
X124648980Y-33748742D02*
X124648980Y-33129695D01*
X125029933Y-33463028D01*
X125029933Y-33320171D01*
X125077552Y-33224933D01*
X125125171Y-33177314D01*
X125220409Y-33129695D01*
X125458504Y-33129695D01*
X125553742Y-33177314D01*
X125601361Y-33224933D01*
X125648980Y-33320171D01*
X125648980Y-33605885D01*
X125601361Y-33701123D01*
X125553742Y-33748742D01*
%TO.C,R12*%
X126352380Y-80320876D02*
X125876190Y-80654209D01*
X126352380Y-80892304D02*
X125352380Y-80892304D01*
X125352380Y-80511352D01*
X125400000Y-80416114D01*
X125447619Y-80368495D01*
X125542857Y-80320876D01*
X125685714Y-80320876D01*
X125780952Y-80368495D01*
X125828571Y-80416114D01*
X125876190Y-80511352D01*
X125876190Y-80892304D01*
X126447619Y-80130400D02*
X126447619Y-79368495D01*
X126304761Y-79178019D02*
X126352380Y-79035161D01*
X126352380Y-78797066D01*
X126304761Y-78701828D01*
X126257142Y-78654209D01*
X126161904Y-78606590D01*
X126066666Y-78606590D01*
X125971428Y-78654209D01*
X125923809Y-78701828D01*
X125876190Y-78797066D01*
X125828571Y-78987542D01*
X125780952Y-79082780D01*
X125733333Y-79130400D01*
X125638095Y-79178019D01*
X125542857Y-79178019D01*
X125447619Y-79130400D01*
X125400000Y-79082780D01*
X125352380Y-78987542D01*
X125352380Y-78749447D01*
X125400000Y-78606590D01*
X126352380Y-78178019D02*
X125685714Y-78178019D01*
X125780952Y-78178019D02*
X125733333Y-78130400D01*
X125685714Y-78035161D01*
X125685714Y-77892304D01*
X125733333Y-77797066D01*
X125828571Y-77749447D01*
X126352380Y-77749447D01*
X125828571Y-77749447D02*
X125733333Y-77701828D01*
X125685714Y-77606590D01*
X125685714Y-77463733D01*
X125733333Y-77368495D01*
X125828571Y-77320876D01*
X126352380Y-77320876D01*
X126352380Y-76416114D02*
X125828571Y-76416114D01*
X125733333Y-76463733D01*
X125685714Y-76558971D01*
X125685714Y-76749447D01*
X125733333Y-76844685D01*
X126304761Y-76416114D02*
X126352380Y-76511352D01*
X126352380Y-76749447D01*
X126304761Y-76844685D01*
X126209523Y-76892304D01*
X126114285Y-76892304D01*
X126019047Y-76844685D01*
X125971428Y-76749447D01*
X125971428Y-76511352D01*
X125923809Y-76416114D01*
X126352380Y-75797066D02*
X126304761Y-75892304D01*
X126209523Y-75939923D01*
X125352380Y-75939923D01*
X126352380Y-75273257D02*
X126304761Y-75368495D01*
X126209523Y-75416114D01*
X125352380Y-75416114D01*
X128722380Y-78773257D02*
X128246190Y-79106590D01*
X128722380Y-79344685D02*
X127722380Y-79344685D01*
X127722380Y-78963733D01*
X127770000Y-78868495D01*
X127817619Y-78820876D01*
X127912857Y-78773257D01*
X128055714Y-78773257D01*
X128150952Y-78820876D01*
X128198571Y-78868495D01*
X128246190Y-78963733D01*
X128246190Y-79344685D01*
X128722380Y-77820876D02*
X128722380Y-78392304D01*
X128722380Y-78106590D02*
X127722380Y-78106590D01*
X127865238Y-78201828D01*
X127960476Y-78297066D01*
X128008095Y-78392304D01*
X127817619Y-77439923D02*
X127770000Y-77392304D01*
X127722380Y-77297066D01*
X127722380Y-77058971D01*
X127770000Y-76963733D01*
X127817619Y-76916114D01*
X127912857Y-76868495D01*
X128008095Y-76868495D01*
X128150952Y-76916114D01*
X128722380Y-77487542D01*
X128722380Y-76868495D01*
%TO.C,R11*%
X118392380Y-65665076D02*
X117916190Y-65998409D01*
X118392380Y-66236504D02*
X117392380Y-66236504D01*
X117392380Y-65855552D01*
X117440000Y-65760314D01*
X117487619Y-65712695D01*
X117582857Y-65665076D01*
X117725714Y-65665076D01*
X117820952Y-65712695D01*
X117868571Y-65760314D01*
X117916190Y-65855552D01*
X117916190Y-66236504D01*
X118487619Y-65474600D02*
X118487619Y-64712695D01*
X118344761Y-64522219D02*
X118392380Y-64379361D01*
X118392380Y-64141266D01*
X118344761Y-64046028D01*
X118297142Y-63998409D01*
X118201904Y-63950790D01*
X118106666Y-63950790D01*
X118011428Y-63998409D01*
X117963809Y-64046028D01*
X117916190Y-64141266D01*
X117868571Y-64331742D01*
X117820952Y-64426980D01*
X117773333Y-64474600D01*
X117678095Y-64522219D01*
X117582857Y-64522219D01*
X117487619Y-64474600D01*
X117440000Y-64426980D01*
X117392380Y-64331742D01*
X117392380Y-64093647D01*
X117440000Y-63950790D01*
X118392380Y-63522219D02*
X117725714Y-63522219D01*
X117820952Y-63522219D02*
X117773333Y-63474600D01*
X117725714Y-63379361D01*
X117725714Y-63236504D01*
X117773333Y-63141266D01*
X117868571Y-63093647D01*
X118392380Y-63093647D01*
X117868571Y-63093647D02*
X117773333Y-63046028D01*
X117725714Y-62950790D01*
X117725714Y-62807933D01*
X117773333Y-62712695D01*
X117868571Y-62665076D01*
X118392380Y-62665076D01*
X118392380Y-61760314D02*
X117868571Y-61760314D01*
X117773333Y-61807933D01*
X117725714Y-61903171D01*
X117725714Y-62093647D01*
X117773333Y-62188885D01*
X118344761Y-61760314D02*
X118392380Y-61855552D01*
X118392380Y-62093647D01*
X118344761Y-62188885D01*
X118249523Y-62236504D01*
X118154285Y-62236504D01*
X118059047Y-62188885D01*
X118011428Y-62093647D01*
X118011428Y-61855552D01*
X117963809Y-61760314D01*
X118392380Y-61141266D02*
X118344761Y-61236504D01*
X118249523Y-61284123D01*
X117392380Y-61284123D01*
X118392380Y-60617457D02*
X118344761Y-60712695D01*
X118249523Y-60760314D01*
X117392380Y-60760314D01*
X116022380Y-64117457D02*
X115546190Y-64450790D01*
X116022380Y-64688885D02*
X115022380Y-64688885D01*
X115022380Y-64307933D01*
X115070000Y-64212695D01*
X115117619Y-64165076D01*
X115212857Y-64117457D01*
X115355714Y-64117457D01*
X115450952Y-64165076D01*
X115498571Y-64212695D01*
X115546190Y-64307933D01*
X115546190Y-64688885D01*
X116022380Y-63165076D02*
X116022380Y-63736504D01*
X116022380Y-63450790D02*
X115022380Y-63450790D01*
X115165238Y-63546028D01*
X115260476Y-63641266D01*
X115308095Y-63736504D01*
X116022380Y-62212695D02*
X116022380Y-62784123D01*
X116022380Y-62498409D02*
X115022380Y-62498409D01*
X115165238Y-62593647D01*
X115260476Y-62688885D01*
X115308095Y-62784123D01*
%TO.C,R10*%
X115445980Y-44862476D02*
X114969790Y-45195809D01*
X115445980Y-45433904D02*
X114445980Y-45433904D01*
X114445980Y-45052952D01*
X114493600Y-44957714D01*
X114541219Y-44910095D01*
X114636457Y-44862476D01*
X114779314Y-44862476D01*
X114874552Y-44910095D01*
X114922171Y-44957714D01*
X114969790Y-45052952D01*
X114969790Y-45433904D01*
X115541219Y-44672000D02*
X115541219Y-43910095D01*
X115398361Y-43719619D02*
X115445980Y-43576761D01*
X115445980Y-43338666D01*
X115398361Y-43243428D01*
X115350742Y-43195809D01*
X115255504Y-43148190D01*
X115160266Y-43148190D01*
X115065028Y-43195809D01*
X115017409Y-43243428D01*
X114969790Y-43338666D01*
X114922171Y-43529142D01*
X114874552Y-43624380D01*
X114826933Y-43672000D01*
X114731695Y-43719619D01*
X114636457Y-43719619D01*
X114541219Y-43672000D01*
X114493600Y-43624380D01*
X114445980Y-43529142D01*
X114445980Y-43291047D01*
X114493600Y-43148190D01*
X115445980Y-42719619D02*
X114779314Y-42719619D01*
X114874552Y-42719619D02*
X114826933Y-42672000D01*
X114779314Y-42576761D01*
X114779314Y-42433904D01*
X114826933Y-42338666D01*
X114922171Y-42291047D01*
X115445980Y-42291047D01*
X114922171Y-42291047D02*
X114826933Y-42243428D01*
X114779314Y-42148190D01*
X114779314Y-42005333D01*
X114826933Y-41910095D01*
X114922171Y-41862476D01*
X115445980Y-41862476D01*
X115445980Y-40957714D02*
X114922171Y-40957714D01*
X114826933Y-41005333D01*
X114779314Y-41100571D01*
X114779314Y-41291047D01*
X114826933Y-41386285D01*
X115398361Y-40957714D02*
X115445980Y-41052952D01*
X115445980Y-41291047D01*
X115398361Y-41386285D01*
X115303123Y-41433904D01*
X115207885Y-41433904D01*
X115112647Y-41386285D01*
X115065028Y-41291047D01*
X115065028Y-41052952D01*
X115017409Y-40957714D01*
X115445980Y-40338666D02*
X115398361Y-40433904D01*
X115303123Y-40481523D01*
X114445980Y-40481523D01*
X115445980Y-39814857D02*
X115398361Y-39910095D01*
X115303123Y-39957714D01*
X114445980Y-39957714D01*
X113075980Y-43314857D02*
X112599790Y-43648190D01*
X113075980Y-43886285D02*
X112075980Y-43886285D01*
X112075980Y-43505333D01*
X112123600Y-43410095D01*
X112171219Y-43362476D01*
X112266457Y-43314857D01*
X112409314Y-43314857D01*
X112504552Y-43362476D01*
X112552171Y-43410095D01*
X112599790Y-43505333D01*
X112599790Y-43886285D01*
X113075980Y-42362476D02*
X113075980Y-42933904D01*
X113075980Y-42648190D02*
X112075980Y-42648190D01*
X112218838Y-42743428D01*
X112314076Y-42838666D01*
X112361695Y-42933904D01*
X112075980Y-41743428D02*
X112075980Y-41648190D01*
X112123600Y-41552952D01*
X112171219Y-41505333D01*
X112266457Y-41457714D01*
X112456933Y-41410095D01*
X112695028Y-41410095D01*
X112885504Y-41457714D01*
X112980742Y-41505333D01*
X113028361Y-41552952D01*
X113075980Y-41648190D01*
X113075980Y-41743428D01*
X113028361Y-41838666D01*
X112980742Y-41886285D01*
X112885504Y-41933904D01*
X112695028Y-41981523D01*
X112456933Y-41981523D01*
X112266457Y-41933904D01*
X112171219Y-41886285D01*
X112123600Y-41838666D01*
X112075980Y-41743428D01*
%TO.C,R9*%
X113710980Y-82657676D02*
X113234790Y-82991009D01*
X113710980Y-83229104D02*
X112710980Y-83229104D01*
X112710980Y-82848152D01*
X112758600Y-82752914D01*
X112806219Y-82705295D01*
X112901457Y-82657676D01*
X113044314Y-82657676D01*
X113139552Y-82705295D01*
X113187171Y-82752914D01*
X113234790Y-82848152D01*
X113234790Y-83229104D01*
X113806219Y-82467200D02*
X113806219Y-81705295D01*
X113663361Y-81514819D02*
X113710980Y-81371961D01*
X113710980Y-81133866D01*
X113663361Y-81038628D01*
X113615742Y-80991009D01*
X113520504Y-80943390D01*
X113425266Y-80943390D01*
X113330028Y-80991009D01*
X113282409Y-81038628D01*
X113234790Y-81133866D01*
X113187171Y-81324342D01*
X113139552Y-81419580D01*
X113091933Y-81467200D01*
X112996695Y-81514819D01*
X112901457Y-81514819D01*
X112806219Y-81467200D01*
X112758600Y-81419580D01*
X112710980Y-81324342D01*
X112710980Y-81086247D01*
X112758600Y-80943390D01*
X113710980Y-80514819D02*
X113044314Y-80514819D01*
X113139552Y-80514819D02*
X113091933Y-80467200D01*
X113044314Y-80371961D01*
X113044314Y-80229104D01*
X113091933Y-80133866D01*
X113187171Y-80086247D01*
X113710980Y-80086247D01*
X113187171Y-80086247D02*
X113091933Y-80038628D01*
X113044314Y-79943390D01*
X113044314Y-79800533D01*
X113091933Y-79705295D01*
X113187171Y-79657676D01*
X113710980Y-79657676D01*
X113710980Y-78752914D02*
X113187171Y-78752914D01*
X113091933Y-78800533D01*
X113044314Y-78895771D01*
X113044314Y-79086247D01*
X113091933Y-79181485D01*
X113663361Y-78752914D02*
X113710980Y-78848152D01*
X113710980Y-79086247D01*
X113663361Y-79181485D01*
X113568123Y-79229104D01*
X113472885Y-79229104D01*
X113377647Y-79181485D01*
X113330028Y-79086247D01*
X113330028Y-78848152D01*
X113282409Y-78752914D01*
X113710980Y-78133866D02*
X113663361Y-78229104D01*
X113568123Y-78276723D01*
X112710980Y-78276723D01*
X113710980Y-77610057D02*
X113663361Y-77705295D01*
X113568123Y-77752914D01*
X112710980Y-77752914D01*
X118486180Y-79541666D02*
X118009990Y-79875000D01*
X118486180Y-80113095D02*
X117486180Y-80113095D01*
X117486180Y-79732142D01*
X117533800Y-79636904D01*
X117581419Y-79589285D01*
X117676657Y-79541666D01*
X117819514Y-79541666D01*
X117914752Y-79589285D01*
X117962371Y-79636904D01*
X118009990Y-79732142D01*
X118009990Y-80113095D01*
X118486180Y-79065476D02*
X118486180Y-78875000D01*
X118438561Y-78779761D01*
X118390942Y-78732142D01*
X118248085Y-78636904D01*
X118057609Y-78589285D01*
X117676657Y-78589285D01*
X117581419Y-78636904D01*
X117533800Y-78684523D01*
X117486180Y-78779761D01*
X117486180Y-78970238D01*
X117533800Y-79065476D01*
X117581419Y-79113095D01*
X117676657Y-79160714D01*
X117914752Y-79160714D01*
X118009990Y-79113095D01*
X118057609Y-79065476D01*
X118105228Y-78970238D01*
X118105228Y-78779761D01*
X118057609Y-78684523D01*
X118009990Y-78636904D01*
X117914752Y-78589285D01*
%TO.C,R6*%
X120434180Y-101555276D02*
X119957990Y-101888609D01*
X120434180Y-102126704D02*
X119434180Y-102126704D01*
X119434180Y-101745752D01*
X119481800Y-101650514D01*
X119529419Y-101602895D01*
X119624657Y-101555276D01*
X119767514Y-101555276D01*
X119862752Y-101602895D01*
X119910371Y-101650514D01*
X119957990Y-101745752D01*
X119957990Y-102126704D01*
X120529419Y-101364800D02*
X120529419Y-100602895D01*
X120386561Y-100412419D02*
X120434180Y-100269561D01*
X120434180Y-100031466D01*
X120386561Y-99936228D01*
X120338942Y-99888609D01*
X120243704Y-99840990D01*
X120148466Y-99840990D01*
X120053228Y-99888609D01*
X120005609Y-99936228D01*
X119957990Y-100031466D01*
X119910371Y-100221942D01*
X119862752Y-100317180D01*
X119815133Y-100364800D01*
X119719895Y-100412419D01*
X119624657Y-100412419D01*
X119529419Y-100364800D01*
X119481800Y-100317180D01*
X119434180Y-100221942D01*
X119434180Y-99983847D01*
X119481800Y-99840990D01*
X120434180Y-99412419D02*
X119767514Y-99412419D01*
X119862752Y-99412419D02*
X119815133Y-99364800D01*
X119767514Y-99269561D01*
X119767514Y-99126704D01*
X119815133Y-99031466D01*
X119910371Y-98983847D01*
X120434180Y-98983847D01*
X119910371Y-98983847D02*
X119815133Y-98936228D01*
X119767514Y-98840990D01*
X119767514Y-98698133D01*
X119815133Y-98602895D01*
X119910371Y-98555276D01*
X120434180Y-98555276D01*
X120434180Y-97650514D02*
X119910371Y-97650514D01*
X119815133Y-97698133D01*
X119767514Y-97793371D01*
X119767514Y-97983847D01*
X119815133Y-98079085D01*
X120386561Y-97650514D02*
X120434180Y-97745752D01*
X120434180Y-97983847D01*
X120386561Y-98079085D01*
X120291323Y-98126704D01*
X120196085Y-98126704D01*
X120100847Y-98079085D01*
X120053228Y-97983847D01*
X120053228Y-97745752D01*
X120005609Y-97650514D01*
X120434180Y-97031466D02*
X120386561Y-97126704D01*
X120291323Y-97174323D01*
X119434180Y-97174323D01*
X120434180Y-96507657D02*
X120386561Y-96602895D01*
X120291323Y-96650514D01*
X119434180Y-96650514D01*
X122804180Y-99531466D02*
X122327990Y-99864800D01*
X122804180Y-100102895D02*
X121804180Y-100102895D01*
X121804180Y-99721942D01*
X121851800Y-99626704D01*
X121899419Y-99579085D01*
X121994657Y-99531466D01*
X122137514Y-99531466D01*
X122232752Y-99579085D01*
X122280371Y-99626704D01*
X122327990Y-99721942D01*
X122327990Y-100102895D01*
X121804180Y-98674323D02*
X121804180Y-98864800D01*
X121851800Y-98960038D01*
X121899419Y-99007657D01*
X122042276Y-99102895D01*
X122232752Y-99150514D01*
X122613704Y-99150514D01*
X122708942Y-99102895D01*
X122756561Y-99055276D01*
X122804180Y-98960038D01*
X122804180Y-98769561D01*
X122756561Y-98674323D01*
X122708942Y-98626704D01*
X122613704Y-98579085D01*
X122375609Y-98579085D01*
X122280371Y-98626704D01*
X122232752Y-98674323D01*
X122185133Y-98769561D01*
X122185133Y-98960038D01*
X122232752Y-99055276D01*
X122280371Y-99102895D01*
X122375609Y-99150514D01*
%TO.C,R3*%
X108891523Y-105735380D02*
X108558190Y-105259190D01*
X108320095Y-105735380D02*
X108320095Y-104735380D01*
X108701047Y-104735380D01*
X108796285Y-104783000D01*
X108843904Y-104830619D01*
X108891523Y-104925857D01*
X108891523Y-105068714D01*
X108843904Y-105163952D01*
X108796285Y-105211571D01*
X108701047Y-105259190D01*
X108320095Y-105259190D01*
X109082000Y-105830619D02*
X109843904Y-105830619D01*
X110034380Y-105687761D02*
X110177238Y-105735380D01*
X110415333Y-105735380D01*
X110510571Y-105687761D01*
X110558190Y-105640142D01*
X110605809Y-105544904D01*
X110605809Y-105449666D01*
X110558190Y-105354428D01*
X110510571Y-105306809D01*
X110415333Y-105259190D01*
X110224857Y-105211571D01*
X110129619Y-105163952D01*
X110082000Y-105116333D01*
X110034380Y-105021095D01*
X110034380Y-104925857D01*
X110082000Y-104830619D01*
X110129619Y-104783000D01*
X110224857Y-104735380D01*
X110462952Y-104735380D01*
X110605809Y-104783000D01*
X111034380Y-105735380D02*
X111034380Y-105068714D01*
X111034380Y-105163952D02*
X111082000Y-105116333D01*
X111177238Y-105068714D01*
X111320095Y-105068714D01*
X111415333Y-105116333D01*
X111462952Y-105211571D01*
X111462952Y-105735380D01*
X111462952Y-105211571D02*
X111510571Y-105116333D01*
X111605809Y-105068714D01*
X111748666Y-105068714D01*
X111843904Y-105116333D01*
X111891523Y-105211571D01*
X111891523Y-105735380D01*
X112796285Y-105735380D02*
X112796285Y-105211571D01*
X112748666Y-105116333D01*
X112653428Y-105068714D01*
X112462952Y-105068714D01*
X112367714Y-105116333D01*
X112796285Y-105687761D02*
X112701047Y-105735380D01*
X112462952Y-105735380D01*
X112367714Y-105687761D01*
X112320095Y-105592523D01*
X112320095Y-105497285D01*
X112367714Y-105402047D01*
X112462952Y-105354428D01*
X112701047Y-105354428D01*
X112796285Y-105306809D01*
X113415333Y-105735380D02*
X113320095Y-105687761D01*
X113272476Y-105592523D01*
X113272476Y-104735380D01*
X113939142Y-105735380D02*
X113843904Y-105687761D01*
X113796285Y-105592523D01*
X113796285Y-104735380D01*
X108545333Y-105735380D02*
X108212000Y-105259190D01*
X107973904Y-105735380D02*
X107973904Y-104735380D01*
X108354857Y-104735380D01*
X108450095Y-104783000D01*
X108497714Y-104830619D01*
X108545333Y-104925857D01*
X108545333Y-105068714D01*
X108497714Y-105163952D01*
X108450095Y-105211571D01*
X108354857Y-105259190D01*
X107973904Y-105259190D01*
X108878666Y-104735380D02*
X109497714Y-104735380D01*
X109164380Y-105116333D01*
X109307238Y-105116333D01*
X109402476Y-105163952D01*
X109450095Y-105211571D01*
X109497714Y-105306809D01*
X109497714Y-105544904D01*
X109450095Y-105640142D01*
X109402476Y-105687761D01*
X109307238Y-105735380D01*
X109021523Y-105735380D01*
X108926285Y-105687761D01*
X108878666Y-105640142D01*
%TO.C,R2*%
X94812123Y-32946780D02*
X94478790Y-32470590D01*
X94240695Y-32946780D02*
X94240695Y-31946780D01*
X94621647Y-31946780D01*
X94716885Y-31994400D01*
X94764504Y-32042019D01*
X94812123Y-32137257D01*
X94812123Y-32280114D01*
X94764504Y-32375352D01*
X94716885Y-32422971D01*
X94621647Y-32470590D01*
X94240695Y-32470590D01*
X95002600Y-33042019D02*
X95764504Y-33042019D01*
X95954980Y-32899161D02*
X96097838Y-32946780D01*
X96335933Y-32946780D01*
X96431171Y-32899161D01*
X96478790Y-32851542D01*
X96526409Y-32756304D01*
X96526409Y-32661066D01*
X96478790Y-32565828D01*
X96431171Y-32518209D01*
X96335933Y-32470590D01*
X96145457Y-32422971D01*
X96050219Y-32375352D01*
X96002600Y-32327733D01*
X95954980Y-32232495D01*
X95954980Y-32137257D01*
X96002600Y-32042019D01*
X96050219Y-31994400D01*
X96145457Y-31946780D01*
X96383552Y-31946780D01*
X96526409Y-31994400D01*
X96954980Y-32946780D02*
X96954980Y-32280114D01*
X96954980Y-32375352D02*
X97002600Y-32327733D01*
X97097838Y-32280114D01*
X97240695Y-32280114D01*
X97335933Y-32327733D01*
X97383552Y-32422971D01*
X97383552Y-32946780D01*
X97383552Y-32422971D02*
X97431171Y-32327733D01*
X97526409Y-32280114D01*
X97669266Y-32280114D01*
X97764504Y-32327733D01*
X97812123Y-32422971D01*
X97812123Y-32946780D01*
X98716885Y-32946780D02*
X98716885Y-32422971D01*
X98669266Y-32327733D01*
X98574028Y-32280114D01*
X98383552Y-32280114D01*
X98288314Y-32327733D01*
X98716885Y-32899161D02*
X98621647Y-32946780D01*
X98383552Y-32946780D01*
X98288314Y-32899161D01*
X98240695Y-32803923D01*
X98240695Y-32708685D01*
X98288314Y-32613447D01*
X98383552Y-32565828D01*
X98621647Y-32565828D01*
X98716885Y-32518209D01*
X99335933Y-32946780D02*
X99240695Y-32899161D01*
X99193076Y-32803923D01*
X99193076Y-31946780D01*
X99859742Y-32946780D02*
X99764504Y-32899161D01*
X99716885Y-32803923D01*
X99716885Y-31946780D01*
X96835933Y-30576780D02*
X96502600Y-30100590D01*
X96264504Y-30576780D02*
X96264504Y-29576780D01*
X96645457Y-29576780D01*
X96740695Y-29624400D01*
X96788314Y-29672019D01*
X96835933Y-29767257D01*
X96835933Y-29910114D01*
X96788314Y-30005352D01*
X96740695Y-30052971D01*
X96645457Y-30100590D01*
X96264504Y-30100590D01*
X97216885Y-29672019D02*
X97264504Y-29624400D01*
X97359742Y-29576780D01*
X97597838Y-29576780D01*
X97693076Y-29624400D01*
X97740695Y-29672019D01*
X97788314Y-29767257D01*
X97788314Y-29862495D01*
X97740695Y-30005352D01*
X97169266Y-30576780D01*
X97788314Y-30576780D01*
%TO.C,R1*%
X72469180Y-79812876D02*
X71992990Y-80146209D01*
X72469180Y-80384304D02*
X71469180Y-80384304D01*
X71469180Y-80003352D01*
X71516800Y-79908114D01*
X71564419Y-79860495D01*
X71659657Y-79812876D01*
X71802514Y-79812876D01*
X71897752Y-79860495D01*
X71945371Y-79908114D01*
X71992990Y-80003352D01*
X71992990Y-80384304D01*
X72564419Y-79622400D02*
X72564419Y-78860495D01*
X72421561Y-78670019D02*
X72469180Y-78527161D01*
X72469180Y-78289066D01*
X72421561Y-78193828D01*
X72373942Y-78146209D01*
X72278704Y-78098590D01*
X72183466Y-78098590D01*
X72088228Y-78146209D01*
X72040609Y-78193828D01*
X71992990Y-78289066D01*
X71945371Y-78479542D01*
X71897752Y-78574780D01*
X71850133Y-78622400D01*
X71754895Y-78670019D01*
X71659657Y-78670019D01*
X71564419Y-78622400D01*
X71516800Y-78574780D01*
X71469180Y-78479542D01*
X71469180Y-78241447D01*
X71516800Y-78098590D01*
X72469180Y-77670019D02*
X71802514Y-77670019D01*
X71897752Y-77670019D02*
X71850133Y-77622400D01*
X71802514Y-77527161D01*
X71802514Y-77384304D01*
X71850133Y-77289066D01*
X71945371Y-77241447D01*
X72469180Y-77241447D01*
X71945371Y-77241447D02*
X71850133Y-77193828D01*
X71802514Y-77098590D01*
X71802514Y-76955733D01*
X71850133Y-76860495D01*
X71945371Y-76812876D01*
X72469180Y-76812876D01*
X72469180Y-75908114D02*
X71945371Y-75908114D01*
X71850133Y-75955733D01*
X71802514Y-76050971D01*
X71802514Y-76241447D01*
X71850133Y-76336685D01*
X72421561Y-75908114D02*
X72469180Y-76003352D01*
X72469180Y-76241447D01*
X72421561Y-76336685D01*
X72326323Y-76384304D01*
X72231085Y-76384304D01*
X72135847Y-76336685D01*
X72088228Y-76241447D01*
X72088228Y-76003352D01*
X72040609Y-75908114D01*
X72469180Y-75289066D02*
X72421561Y-75384304D01*
X72326323Y-75431923D01*
X71469180Y-75431923D01*
X72469180Y-74765257D02*
X72421561Y-74860495D01*
X72326323Y-74908114D01*
X71469180Y-74908114D01*
X70099180Y-77789066D02*
X69622990Y-78122400D01*
X70099180Y-78360495D02*
X69099180Y-78360495D01*
X69099180Y-77979542D01*
X69146800Y-77884304D01*
X69194419Y-77836685D01*
X69289657Y-77789066D01*
X69432514Y-77789066D01*
X69527752Y-77836685D01*
X69575371Y-77884304D01*
X69622990Y-77979542D01*
X69622990Y-78360495D01*
X70099180Y-76836685D02*
X70099180Y-77408114D01*
X70099180Y-77122400D02*
X69099180Y-77122400D01*
X69242038Y-77217638D01*
X69337276Y-77312876D01*
X69384895Y-77408114D01*
%TO.C,J10*%
X60846295Y-64581600D02*
X60751057Y-64533980D01*
X60608200Y-64533980D01*
X60465342Y-64581600D01*
X60370104Y-64676838D01*
X60322485Y-64772076D01*
X60274866Y-64962552D01*
X60274866Y-65105409D01*
X60322485Y-65295885D01*
X60370104Y-65391123D01*
X60465342Y-65486361D01*
X60608200Y-65533980D01*
X60703438Y-65533980D01*
X60846295Y-65486361D01*
X60893914Y-65438742D01*
X60893914Y-65105409D01*
X60703438Y-65105409D01*
X61893914Y-65533980D02*
X61560580Y-65057790D01*
X61322485Y-65533980D02*
X61322485Y-64533980D01*
X61703438Y-64533980D01*
X61798676Y-64581600D01*
X61846295Y-64629219D01*
X61893914Y-64724457D01*
X61893914Y-64867314D01*
X61846295Y-64962552D01*
X61798676Y-65010171D01*
X61703438Y-65057790D01*
X61322485Y-65057790D01*
X62512961Y-64533980D02*
X62703438Y-64533980D01*
X62798676Y-64581600D01*
X62893914Y-64676838D01*
X62941533Y-64867314D01*
X62941533Y-65200647D01*
X62893914Y-65391123D01*
X62798676Y-65486361D01*
X62703438Y-65533980D01*
X62512961Y-65533980D01*
X62417723Y-65486361D01*
X62322485Y-65391123D01*
X62274866Y-65200647D01*
X62274866Y-64867314D01*
X62322485Y-64676838D01*
X62417723Y-64581600D01*
X62512961Y-64533980D01*
X63370104Y-64533980D02*
X63370104Y-65343504D01*
X63417723Y-65438742D01*
X63465342Y-65486361D01*
X63560580Y-65533980D01*
X63751057Y-65533980D01*
X63846295Y-65486361D01*
X63893914Y-65438742D01*
X63941533Y-65343504D01*
X63941533Y-64533980D01*
X64417723Y-65533980D02*
X64417723Y-64533980D01*
X64989152Y-65533980D01*
X64989152Y-64533980D01*
X65465342Y-65533980D02*
X65465342Y-64533980D01*
X65703438Y-64533980D01*
X65846295Y-64581600D01*
X65941533Y-64676838D01*
X65989152Y-64772076D01*
X66036771Y-64962552D01*
X66036771Y-65105409D01*
X65989152Y-65295885D01*
X65941533Y-65391123D01*
X65846295Y-65486361D01*
X65703438Y-65533980D01*
X65465342Y-65533980D01*
X66227247Y-65629219D02*
X66989152Y-65629219D01*
X67798676Y-65438742D02*
X67751057Y-65486361D01*
X67608200Y-65533980D01*
X67512961Y-65533980D01*
X67370104Y-65486361D01*
X67274866Y-65391123D01*
X67227247Y-65295885D01*
X67179628Y-65105409D01*
X67179628Y-64962552D01*
X67227247Y-64772076D01*
X67274866Y-64676838D01*
X67370104Y-64581600D01*
X67512961Y-64533980D01*
X67608200Y-64533980D01*
X67751057Y-64581600D01*
X67798676Y-64629219D01*
X68417723Y-64533980D02*
X68608200Y-64533980D01*
X68703438Y-64581600D01*
X68798676Y-64676838D01*
X68846295Y-64867314D01*
X68846295Y-65200647D01*
X68798676Y-65391123D01*
X68703438Y-65486361D01*
X68608200Y-65533980D01*
X68417723Y-65533980D01*
X68322485Y-65486361D01*
X68227247Y-65391123D01*
X68179628Y-65200647D01*
X68179628Y-64867314D01*
X68227247Y-64676838D01*
X68322485Y-64581600D01*
X68417723Y-64533980D01*
X69274866Y-65533980D02*
X69274866Y-64533980D01*
X69846295Y-65533980D01*
X69846295Y-64533980D01*
X70322485Y-65533980D02*
X70322485Y-64533980D01*
X70893914Y-65533980D01*
X70893914Y-64533980D01*
X65060580Y-70761123D02*
X65774866Y-70761123D01*
X65917723Y-70808742D01*
X66012961Y-70903980D01*
X66060580Y-71046838D01*
X66060580Y-71142076D01*
X66060580Y-69761123D02*
X66060580Y-70332552D01*
X66060580Y-70046838D02*
X65060580Y-70046838D01*
X65203438Y-70142076D01*
X65298676Y-70237314D01*
X65346295Y-70332552D01*
X65060580Y-69142076D02*
X65060580Y-69046838D01*
X65108200Y-68951600D01*
X65155819Y-68903980D01*
X65251057Y-68856361D01*
X65441533Y-68808742D01*
X65679628Y-68808742D01*
X65870104Y-68856361D01*
X65965342Y-68903980D01*
X66012961Y-68951600D01*
X66060580Y-69046838D01*
X66060580Y-69142076D01*
X66012961Y-69237314D01*
X65965342Y-69284933D01*
X65870104Y-69332552D01*
X65679628Y-69380171D01*
X65441533Y-69380171D01*
X65251057Y-69332552D01*
X65155819Y-69284933D01*
X65108200Y-69237314D01*
X65060580Y-69142076D01*
%TO.C,J9*%
X61761714Y-82768485D02*
X62761714Y-82768485D01*
X61809333Y-82768485D02*
X61761714Y-82673247D01*
X61761714Y-82482771D01*
X61809333Y-82387533D01*
X61856952Y-82339914D01*
X61952190Y-82292295D01*
X62237904Y-82292295D01*
X62333142Y-82339914D01*
X62380761Y-82387533D01*
X62428380Y-82482771D01*
X62428380Y-82673247D01*
X62380761Y-82768485D01*
X62428380Y-81720866D02*
X62380761Y-81816104D01*
X62333142Y-81863723D01*
X62237904Y-81911342D01*
X61952190Y-81911342D01*
X61856952Y-81863723D01*
X61809333Y-81816104D01*
X61761714Y-81720866D01*
X61761714Y-81578009D01*
X61809333Y-81482771D01*
X61856952Y-81435152D01*
X61952190Y-81387533D01*
X62237904Y-81387533D01*
X62333142Y-81435152D01*
X62380761Y-81482771D01*
X62428380Y-81578009D01*
X62428380Y-81720866D01*
X61761714Y-81054200D02*
X62428380Y-80863723D01*
X61952190Y-80673247D01*
X62428380Y-80482771D01*
X61761714Y-80292295D01*
X62380761Y-79530390D02*
X62428380Y-79625628D01*
X62428380Y-79816104D01*
X62380761Y-79911342D01*
X62285523Y-79958961D01*
X61904571Y-79958961D01*
X61809333Y-79911342D01*
X61761714Y-79816104D01*
X61761714Y-79625628D01*
X61809333Y-79530390D01*
X61904571Y-79482771D01*
X61999809Y-79482771D01*
X62095047Y-79958961D01*
X62428380Y-79054200D02*
X61761714Y-79054200D01*
X61952190Y-79054200D02*
X61856952Y-79006580D01*
X61809333Y-78958961D01*
X61761714Y-78863723D01*
X61761714Y-78768485D01*
X62523619Y-78673247D02*
X62523619Y-77911342D01*
X62380761Y-77720866D02*
X62428380Y-77625628D01*
X62428380Y-77435152D01*
X62380761Y-77339914D01*
X62285523Y-77292295D01*
X62237904Y-77292295D01*
X62142666Y-77339914D01*
X62095047Y-77435152D01*
X62095047Y-77578009D01*
X62047428Y-77673247D01*
X61952190Y-77720866D01*
X61904571Y-77720866D01*
X61809333Y-77673247D01*
X61761714Y-77578009D01*
X61761714Y-77435152D01*
X61809333Y-77339914D01*
X61761714Y-76435152D02*
X62428380Y-76435152D01*
X61761714Y-76863723D02*
X62285523Y-76863723D01*
X62380761Y-76816104D01*
X62428380Y-76720866D01*
X62428380Y-76578009D01*
X62380761Y-76482771D01*
X62333142Y-76435152D01*
X61761714Y-75958961D02*
X62761714Y-75958961D01*
X61809333Y-75958961D02*
X61761714Y-75863723D01*
X61761714Y-75673247D01*
X61809333Y-75578009D01*
X61856952Y-75530390D01*
X61952190Y-75482771D01*
X62237904Y-75482771D01*
X62333142Y-75530390D01*
X62380761Y-75578009D01*
X62428380Y-75673247D01*
X62428380Y-75863723D01*
X62380761Y-75958961D01*
X61761714Y-75054200D02*
X62761714Y-75054200D01*
X61809333Y-75054200D02*
X61761714Y-74958961D01*
X61761714Y-74768485D01*
X61809333Y-74673247D01*
X61856952Y-74625628D01*
X61952190Y-74578009D01*
X62237904Y-74578009D01*
X62333142Y-74625628D01*
X62380761Y-74673247D01*
X62428380Y-74768485D01*
X62428380Y-74958961D01*
X62380761Y-75054200D01*
X62428380Y-74006580D02*
X62380761Y-74101819D01*
X62285523Y-74149438D01*
X61428380Y-74149438D01*
X61761714Y-73720866D02*
X62428380Y-73482771D01*
X61761714Y-73244676D02*
X62428380Y-73482771D01*
X62666476Y-73578009D01*
X62714095Y-73625628D01*
X62761714Y-73720866D01*
X65060580Y-79378133D02*
X65774866Y-79378133D01*
X65917723Y-79425752D01*
X66012961Y-79520990D01*
X66060580Y-79663847D01*
X66060580Y-79759085D01*
X66060580Y-78854323D02*
X66060580Y-78663847D01*
X66012961Y-78568609D01*
X65965342Y-78520990D01*
X65822485Y-78425752D01*
X65632009Y-78378133D01*
X65251057Y-78378133D01*
X65155819Y-78425752D01*
X65108200Y-78473371D01*
X65060580Y-78568609D01*
X65060580Y-78759085D01*
X65108200Y-78854323D01*
X65155819Y-78901942D01*
X65251057Y-78949561D01*
X65489152Y-78949561D01*
X65584390Y-78901942D01*
X65632009Y-78854323D01*
X65679628Y-78759085D01*
X65679628Y-78568609D01*
X65632009Y-78473371D01*
X65584390Y-78425752D01*
X65489152Y-78378133D01*
%TO.C,J8*%
X168037380Y-64262142D02*
X167561190Y-64595476D01*
X168037380Y-64833571D02*
X167037380Y-64833571D01*
X167037380Y-64452619D01*
X167085000Y-64357380D01*
X167132619Y-64309761D01*
X167227857Y-64262142D01*
X167370714Y-64262142D01*
X167465952Y-64309761D01*
X167513571Y-64357380D01*
X167561190Y-64452619D01*
X167561190Y-64833571D01*
X167989761Y-63452619D02*
X168037380Y-63547857D01*
X168037380Y-63738333D01*
X167989761Y-63833571D01*
X167894523Y-63881190D01*
X167513571Y-63881190D01*
X167418333Y-63833571D01*
X167370714Y-63738333D01*
X167370714Y-63547857D01*
X167418333Y-63452619D01*
X167513571Y-63405000D01*
X167608809Y-63405000D01*
X167704047Y-63881190D01*
X168037380Y-62833571D02*
X167989761Y-62928809D01*
X167894523Y-62976428D01*
X167037380Y-62976428D01*
X168037380Y-62024047D02*
X167513571Y-62024047D01*
X167418333Y-62071666D01*
X167370714Y-62166904D01*
X167370714Y-62357380D01*
X167418333Y-62452619D01*
X167989761Y-62024047D02*
X168037380Y-62119285D01*
X168037380Y-62357380D01*
X167989761Y-62452619D01*
X167894523Y-62500238D01*
X167799285Y-62500238D01*
X167704047Y-62452619D01*
X167656428Y-62357380D01*
X167656428Y-62119285D01*
X167608809Y-62024047D01*
X167370714Y-61643095D02*
X168037380Y-61405000D01*
X167370714Y-61166904D02*
X168037380Y-61405000D01*
X168275476Y-61500238D01*
X168323095Y-61547857D01*
X168370714Y-61643095D01*
X167132619Y-60833571D02*
X167085000Y-60785952D01*
X167037380Y-60690714D01*
X167037380Y-60452619D01*
X167085000Y-60357380D01*
X167132619Y-60309761D01*
X167227857Y-60262142D01*
X167323095Y-60262142D01*
X167465952Y-60309761D01*
X168037380Y-60881190D01*
X168037380Y-60262142D01*
X168132619Y-60071666D02*
X168132619Y-59309761D01*
X167989761Y-58643095D02*
X168037380Y-58738333D01*
X168037380Y-58928809D01*
X167989761Y-59024047D01*
X167942142Y-59071666D01*
X167846904Y-59119285D01*
X167561190Y-59119285D01*
X167465952Y-59071666D01*
X167418333Y-59024047D01*
X167370714Y-58928809D01*
X167370714Y-58738333D01*
X167418333Y-58643095D01*
X168037380Y-58071666D02*
X167989761Y-58166904D01*
X167942142Y-58214523D01*
X167846904Y-58262142D01*
X167561190Y-58262142D01*
X167465952Y-58214523D01*
X167418333Y-58166904D01*
X167370714Y-58071666D01*
X167370714Y-57928809D01*
X167418333Y-57833571D01*
X167465952Y-57785952D01*
X167561190Y-57738333D01*
X167846904Y-57738333D01*
X167942142Y-57785952D01*
X167989761Y-57833571D01*
X168037380Y-57928809D01*
X168037380Y-58071666D01*
X167370714Y-57309761D02*
X168037380Y-57309761D01*
X167465952Y-57309761D02*
X167418333Y-57262142D01*
X167370714Y-57166904D01*
X167370714Y-57024047D01*
X167418333Y-56928809D01*
X167513571Y-56881190D01*
X168037380Y-56881190D01*
X167370714Y-56405000D02*
X168037380Y-56405000D01*
X167465952Y-56405000D02*
X167418333Y-56357380D01*
X167370714Y-56262142D01*
X167370714Y-56119285D01*
X167418333Y-56024047D01*
X167513571Y-55976428D01*
X168037380Y-55976428D01*
X164577380Y-60738333D02*
X165291666Y-60738333D01*
X165434523Y-60785952D01*
X165529761Y-60881190D01*
X165577380Y-61024047D01*
X165577380Y-61119285D01*
X165005952Y-60119285D02*
X164958333Y-60214523D01*
X164910714Y-60262142D01*
X164815476Y-60309761D01*
X164767857Y-60309761D01*
X164672619Y-60262142D01*
X164625000Y-60214523D01*
X164577380Y-60119285D01*
X164577380Y-59928809D01*
X164625000Y-59833571D01*
X164672619Y-59785952D01*
X164767857Y-59738333D01*
X164815476Y-59738333D01*
X164910714Y-59785952D01*
X164958333Y-59833571D01*
X165005952Y-59928809D01*
X165005952Y-60119285D01*
X165053571Y-60214523D01*
X165101190Y-60262142D01*
X165196428Y-60309761D01*
X165386904Y-60309761D01*
X165482142Y-60262142D01*
X165529761Y-60214523D01*
X165577380Y-60119285D01*
X165577380Y-59928809D01*
X165529761Y-59833571D01*
X165482142Y-59785952D01*
X165386904Y-59738333D01*
X165196428Y-59738333D01*
X165101190Y-59785952D01*
X165053571Y-59833571D01*
X165005952Y-59928809D01*
%TO.C,J7*%
X168270180Y-42257028D02*
X167270180Y-42257028D01*
X167984466Y-41923695D01*
X167270180Y-41590361D01*
X168270180Y-41590361D01*
X168270180Y-40971314D02*
X168222561Y-41066552D01*
X168174942Y-41114171D01*
X168079704Y-41161790D01*
X167793990Y-41161790D01*
X167698752Y-41114171D01*
X167651133Y-41066552D01*
X167603514Y-40971314D01*
X167603514Y-40828457D01*
X167651133Y-40733219D01*
X167698752Y-40685600D01*
X167793990Y-40637980D01*
X168079704Y-40637980D01*
X168174942Y-40685600D01*
X168222561Y-40733219D01*
X168270180Y-40828457D01*
X168270180Y-40971314D01*
X168222561Y-40257028D02*
X168270180Y-40161790D01*
X168270180Y-39971314D01*
X168222561Y-39876076D01*
X168127323Y-39828457D01*
X168079704Y-39828457D01*
X167984466Y-39876076D01*
X167936847Y-39971314D01*
X167936847Y-40114171D01*
X167889228Y-40209409D01*
X167793990Y-40257028D01*
X167746371Y-40257028D01*
X167651133Y-40209409D01*
X167603514Y-40114171D01*
X167603514Y-39971314D01*
X167651133Y-39876076D01*
X168270180Y-39399885D02*
X167603514Y-39399885D01*
X167270180Y-39399885D02*
X167317800Y-39447504D01*
X167365419Y-39399885D01*
X167317800Y-39352266D01*
X167270180Y-39399885D01*
X167365419Y-39399885D01*
X167603514Y-39066552D02*
X167603514Y-38685600D01*
X167270180Y-38923695D02*
X168127323Y-38923695D01*
X168222561Y-38876076D01*
X168270180Y-38780838D01*
X168270180Y-38685600D01*
X167603514Y-37923695D02*
X168270180Y-37923695D01*
X167603514Y-38352266D02*
X168127323Y-38352266D01*
X168222561Y-38304647D01*
X168270180Y-38209409D01*
X168270180Y-38066552D01*
X168222561Y-37971314D01*
X168174942Y-37923695D01*
X168270180Y-37447504D02*
X167603514Y-37447504D01*
X167793990Y-37447504D02*
X167698752Y-37399885D01*
X167651133Y-37352266D01*
X167603514Y-37257028D01*
X167603514Y-37161790D01*
X168222561Y-36447504D02*
X168270180Y-36542742D01*
X168270180Y-36733219D01*
X168222561Y-36828457D01*
X168127323Y-36876076D01*
X167746371Y-36876076D01*
X167651133Y-36828457D01*
X167603514Y-36733219D01*
X167603514Y-36542742D01*
X167651133Y-36447504D01*
X167746371Y-36399885D01*
X167841609Y-36399885D01*
X167936847Y-36876076D01*
X168365419Y-36209409D02*
X168365419Y-35447504D01*
X168222561Y-34780838D02*
X168270180Y-34876076D01*
X168270180Y-35066552D01*
X168222561Y-35161790D01*
X168174942Y-35209409D01*
X168079704Y-35257028D01*
X167793990Y-35257028D01*
X167698752Y-35209409D01*
X167651133Y-35161790D01*
X167603514Y-35066552D01*
X167603514Y-34876076D01*
X167651133Y-34780838D01*
X168270180Y-34209409D02*
X168222561Y-34304647D01*
X168174942Y-34352266D01*
X168079704Y-34399885D01*
X167793990Y-34399885D01*
X167698752Y-34352266D01*
X167651133Y-34304647D01*
X167603514Y-34209409D01*
X167603514Y-34066552D01*
X167651133Y-33971314D01*
X167698752Y-33923695D01*
X167793990Y-33876076D01*
X168079704Y-33876076D01*
X168174942Y-33923695D01*
X168222561Y-33971314D01*
X168270180Y-34066552D01*
X168270180Y-34209409D01*
X167603514Y-33447504D02*
X168270180Y-33447504D01*
X167698752Y-33447504D02*
X167651133Y-33399885D01*
X167603514Y-33304647D01*
X167603514Y-33161790D01*
X167651133Y-33066552D01*
X167746371Y-33018933D01*
X168270180Y-33018933D01*
X167603514Y-32542742D02*
X168270180Y-32542742D01*
X167698752Y-32542742D02*
X167651133Y-32495123D01*
X167603514Y-32399885D01*
X167603514Y-32257028D01*
X167651133Y-32161790D01*
X167746371Y-32114171D01*
X168270180Y-32114171D01*
X164729780Y-38310133D02*
X165444066Y-38310133D01*
X165586923Y-38357752D01*
X165682161Y-38452990D01*
X165729780Y-38595847D01*
X165729780Y-38691085D01*
X164729780Y-37929180D02*
X164729780Y-37262514D01*
X165729780Y-37691085D01*
%TO.C,J6*%
X168469180Y-85267942D02*
X167992990Y-85601276D01*
X168469180Y-85839371D02*
X167469180Y-85839371D01*
X167469180Y-85458419D01*
X167516800Y-85363180D01*
X167564419Y-85315561D01*
X167659657Y-85267942D01*
X167802514Y-85267942D01*
X167897752Y-85315561D01*
X167945371Y-85363180D01*
X167992990Y-85458419D01*
X167992990Y-85839371D01*
X168421561Y-84458419D02*
X168469180Y-84553657D01*
X168469180Y-84744133D01*
X168421561Y-84839371D01*
X168326323Y-84886990D01*
X167945371Y-84886990D01*
X167850133Y-84839371D01*
X167802514Y-84744133D01*
X167802514Y-84553657D01*
X167850133Y-84458419D01*
X167945371Y-84410800D01*
X168040609Y-84410800D01*
X168135847Y-84886990D01*
X168469180Y-83839371D02*
X168421561Y-83934609D01*
X168326323Y-83982228D01*
X167469180Y-83982228D01*
X168469180Y-83029847D02*
X167945371Y-83029847D01*
X167850133Y-83077466D01*
X167802514Y-83172704D01*
X167802514Y-83363180D01*
X167850133Y-83458419D01*
X168421561Y-83029847D02*
X168469180Y-83125085D01*
X168469180Y-83363180D01*
X168421561Y-83458419D01*
X168326323Y-83506038D01*
X168231085Y-83506038D01*
X168135847Y-83458419D01*
X168088228Y-83363180D01*
X168088228Y-83125085D01*
X168040609Y-83029847D01*
X167802514Y-82648895D02*
X168469180Y-82410800D01*
X167802514Y-82172704D02*
X168469180Y-82410800D01*
X168707276Y-82506038D01*
X168754895Y-82553657D01*
X168802514Y-82648895D01*
X167469180Y-81886990D02*
X167469180Y-81267942D01*
X167850133Y-81601276D01*
X167850133Y-81458419D01*
X167897752Y-81363180D01*
X167945371Y-81315561D01*
X168040609Y-81267942D01*
X168278704Y-81267942D01*
X168373942Y-81315561D01*
X168421561Y-81363180D01*
X168469180Y-81458419D01*
X168469180Y-81744133D01*
X168421561Y-81839371D01*
X168373942Y-81886990D01*
X168564419Y-81077466D02*
X168564419Y-80315561D01*
X168421561Y-79648895D02*
X168469180Y-79744133D01*
X168469180Y-79934609D01*
X168421561Y-80029847D01*
X168373942Y-80077466D01*
X168278704Y-80125085D01*
X167992990Y-80125085D01*
X167897752Y-80077466D01*
X167850133Y-80029847D01*
X167802514Y-79934609D01*
X167802514Y-79744133D01*
X167850133Y-79648895D01*
X168469180Y-79077466D02*
X168421561Y-79172704D01*
X168373942Y-79220323D01*
X168278704Y-79267942D01*
X167992990Y-79267942D01*
X167897752Y-79220323D01*
X167850133Y-79172704D01*
X167802514Y-79077466D01*
X167802514Y-78934609D01*
X167850133Y-78839371D01*
X167897752Y-78791752D01*
X167992990Y-78744133D01*
X168278704Y-78744133D01*
X168373942Y-78791752D01*
X168421561Y-78839371D01*
X168469180Y-78934609D01*
X168469180Y-79077466D01*
X167802514Y-78315561D02*
X168469180Y-78315561D01*
X167897752Y-78315561D02*
X167850133Y-78267942D01*
X167802514Y-78172704D01*
X167802514Y-78029847D01*
X167850133Y-77934609D01*
X167945371Y-77886990D01*
X168469180Y-77886990D01*
X167802514Y-77410800D02*
X168469180Y-77410800D01*
X167897752Y-77410800D02*
X167850133Y-77363180D01*
X167802514Y-77267942D01*
X167802514Y-77125085D01*
X167850133Y-77029847D01*
X167945371Y-76982228D01*
X168469180Y-76982228D01*
X165009180Y-81744133D02*
X165723466Y-81744133D01*
X165866323Y-81791752D01*
X165961561Y-81886990D01*
X166009180Y-82029847D01*
X166009180Y-82125085D01*
X165009180Y-80839371D02*
X165009180Y-81029847D01*
X165056800Y-81125085D01*
X165104419Y-81172704D01*
X165247276Y-81267942D01*
X165437752Y-81315561D01*
X165818704Y-81315561D01*
X165913942Y-81267942D01*
X165961561Y-81220323D01*
X166009180Y-81125085D01*
X166009180Y-80934609D01*
X165961561Y-80839371D01*
X165913942Y-80791752D01*
X165818704Y-80744133D01*
X165580609Y-80744133D01*
X165485371Y-80791752D01*
X165437752Y-80839371D01*
X165390133Y-80934609D01*
X165390133Y-81125085D01*
X165437752Y-81220323D01*
X165485371Y-81267942D01*
X165580609Y-81315561D01*
%TO.C,J5*%
X168596180Y-104876742D02*
X168119990Y-105210076D01*
X168596180Y-105448171D02*
X167596180Y-105448171D01*
X167596180Y-105067219D01*
X167643800Y-104971980D01*
X167691419Y-104924361D01*
X167786657Y-104876742D01*
X167929514Y-104876742D01*
X168024752Y-104924361D01*
X168072371Y-104971980D01*
X168119990Y-105067219D01*
X168119990Y-105448171D01*
X168548561Y-104067219D02*
X168596180Y-104162457D01*
X168596180Y-104352933D01*
X168548561Y-104448171D01*
X168453323Y-104495790D01*
X168072371Y-104495790D01*
X167977133Y-104448171D01*
X167929514Y-104352933D01*
X167929514Y-104162457D01*
X167977133Y-104067219D01*
X168072371Y-104019600D01*
X168167609Y-104019600D01*
X168262847Y-104495790D01*
X168596180Y-103448171D02*
X168548561Y-103543409D01*
X168453323Y-103591028D01*
X167596180Y-103591028D01*
X168596180Y-102638647D02*
X168072371Y-102638647D01*
X167977133Y-102686266D01*
X167929514Y-102781504D01*
X167929514Y-102971980D01*
X167977133Y-103067219D01*
X168548561Y-102638647D02*
X168596180Y-102733885D01*
X168596180Y-102971980D01*
X168548561Y-103067219D01*
X168453323Y-103114838D01*
X168358085Y-103114838D01*
X168262847Y-103067219D01*
X168215228Y-102971980D01*
X168215228Y-102733885D01*
X168167609Y-102638647D01*
X167929514Y-102257695D02*
X168596180Y-102019600D01*
X167929514Y-101781504D02*
X168596180Y-102019600D01*
X168834276Y-102114838D01*
X168881895Y-102162457D01*
X168929514Y-102257695D01*
X167691419Y-101448171D02*
X167643800Y-101400552D01*
X167596180Y-101305314D01*
X167596180Y-101067219D01*
X167643800Y-100971980D01*
X167691419Y-100924361D01*
X167786657Y-100876742D01*
X167881895Y-100876742D01*
X168024752Y-100924361D01*
X168596180Y-101495790D01*
X168596180Y-100876742D01*
X168691419Y-100686266D02*
X168691419Y-99924361D01*
X168548561Y-99257695D02*
X168596180Y-99352933D01*
X168596180Y-99543409D01*
X168548561Y-99638647D01*
X168500942Y-99686266D01*
X168405704Y-99733885D01*
X168119990Y-99733885D01*
X168024752Y-99686266D01*
X167977133Y-99638647D01*
X167929514Y-99543409D01*
X167929514Y-99352933D01*
X167977133Y-99257695D01*
X168596180Y-98686266D02*
X168548561Y-98781504D01*
X168500942Y-98829123D01*
X168405704Y-98876742D01*
X168119990Y-98876742D01*
X168024752Y-98829123D01*
X167977133Y-98781504D01*
X167929514Y-98686266D01*
X167929514Y-98543409D01*
X167977133Y-98448171D01*
X168024752Y-98400552D01*
X168119990Y-98352933D01*
X168405704Y-98352933D01*
X168500942Y-98400552D01*
X168548561Y-98448171D01*
X168596180Y-98543409D01*
X168596180Y-98686266D01*
X167929514Y-97924361D02*
X168596180Y-97924361D01*
X168024752Y-97924361D02*
X167977133Y-97876742D01*
X167929514Y-97781504D01*
X167929514Y-97638647D01*
X167977133Y-97543409D01*
X168072371Y-97495790D01*
X168596180Y-97495790D01*
X167929514Y-97019600D02*
X168596180Y-97019600D01*
X168024752Y-97019600D02*
X167977133Y-96971980D01*
X167929514Y-96876742D01*
X167929514Y-96733885D01*
X167977133Y-96638647D01*
X168072371Y-96591028D01*
X168596180Y-96591028D01*
X165136180Y-101352933D02*
X165850466Y-101352933D01*
X165993323Y-101400552D01*
X166088561Y-101495790D01*
X166136180Y-101638647D01*
X166136180Y-101733885D01*
X165136180Y-100400552D02*
X165136180Y-100876742D01*
X165612371Y-100924361D01*
X165564752Y-100876742D01*
X165517133Y-100781504D01*
X165517133Y-100543409D01*
X165564752Y-100448171D01*
X165612371Y-100400552D01*
X165707609Y-100352933D01*
X165945704Y-100352933D01*
X166040942Y-100400552D01*
X166088561Y-100448171D01*
X166136180Y-100543409D01*
X166136180Y-100781504D01*
X166088561Y-100876742D01*
X166040942Y-100924361D01*
%TO.C,J4*%
X89171542Y-38316980D02*
X89076304Y-38269361D01*
X89028685Y-38174123D01*
X89028685Y-37316980D01*
X89981066Y-38316980D02*
X89981066Y-37316980D01*
X89981066Y-38269361D02*
X89885828Y-38316980D01*
X89695352Y-38316980D01*
X89600114Y-38269361D01*
X89552495Y-38221742D01*
X89504876Y-38126504D01*
X89504876Y-37840790D01*
X89552495Y-37745552D01*
X89600114Y-37697933D01*
X89695352Y-37650314D01*
X89885828Y-37650314D01*
X89981066Y-37697933D01*
X90457257Y-38316980D02*
X90457257Y-37650314D01*
X90457257Y-37840790D02*
X90504876Y-37745552D01*
X90552495Y-37697933D01*
X90647733Y-37650314D01*
X90742971Y-37650314D01*
X89266780Y-33327933D02*
X89981066Y-33327933D01*
X90123923Y-33375552D01*
X90219161Y-33470790D01*
X90266780Y-33613647D01*
X90266780Y-33708885D01*
X89600114Y-32423171D02*
X90266780Y-32423171D01*
X89219161Y-32661266D02*
X89933447Y-32899361D01*
X89933447Y-32280314D01*
%TO.C,J3*%
X91915180Y-38899457D02*
X91915180Y-38328028D01*
X92915180Y-38613742D02*
X91915180Y-38613742D01*
X92391371Y-37994695D02*
X92391371Y-37661361D01*
X92915180Y-37518504D02*
X92915180Y-37994695D01*
X91915180Y-37994695D01*
X91915180Y-37518504D01*
X92915180Y-37089933D02*
X91915180Y-37089933D01*
X92629466Y-36756600D01*
X91915180Y-36423266D01*
X92915180Y-36423266D01*
X92915180Y-35947076D02*
X91915180Y-35947076D01*
X91915180Y-35566123D01*
X91962800Y-35470885D01*
X92010419Y-35423266D01*
X92105657Y-35375647D01*
X92248514Y-35375647D01*
X92343752Y-35423266D01*
X92391371Y-35470885D01*
X92438990Y-35566123D01*
X92438990Y-35947076D01*
X93010419Y-35185171D02*
X93010419Y-34423266D01*
X92867561Y-34232790D02*
X92915180Y-34089933D01*
X92915180Y-33851838D01*
X92867561Y-33756600D01*
X92819942Y-33708980D01*
X92724704Y-33661361D01*
X92629466Y-33661361D01*
X92534228Y-33708980D01*
X92486609Y-33756600D01*
X92438990Y-33851838D01*
X92391371Y-34042314D01*
X92343752Y-34137552D01*
X92296133Y-34185171D01*
X92200895Y-34232790D01*
X92105657Y-34232790D01*
X92010419Y-34185171D01*
X91962800Y-34137552D01*
X91915180Y-34042314D01*
X91915180Y-33804219D01*
X91962800Y-33661361D01*
X92391371Y-33232790D02*
X92391371Y-32899457D01*
X92915180Y-32756600D02*
X92915180Y-33232790D01*
X91915180Y-33232790D01*
X91915180Y-32756600D01*
X92915180Y-32328028D02*
X91915180Y-32328028D01*
X92915180Y-31756600D01*
X91915180Y-31756600D01*
X92867561Y-31328028D02*
X92915180Y-31185171D01*
X92915180Y-30947076D01*
X92867561Y-30851838D01*
X92819942Y-30804219D01*
X92724704Y-30756600D01*
X92629466Y-30756600D01*
X92534228Y-30804219D01*
X92486609Y-30851838D01*
X92438990Y-30947076D01*
X92391371Y-31137552D01*
X92343752Y-31232790D01*
X92296133Y-31280409D01*
X92200895Y-31328028D01*
X92105657Y-31328028D01*
X92010419Y-31280409D01*
X91962800Y-31232790D01*
X91915180Y-31137552D01*
X91915180Y-30899457D01*
X91962800Y-30756600D01*
X91915180Y-30137552D02*
X91915180Y-29947076D01*
X91962800Y-29851838D01*
X92058038Y-29756600D01*
X92248514Y-29708980D01*
X92581847Y-29708980D01*
X92772323Y-29756600D01*
X92867561Y-29851838D01*
X92915180Y-29947076D01*
X92915180Y-30137552D01*
X92867561Y-30232790D01*
X92772323Y-30328028D01*
X92581847Y-30375647D01*
X92248514Y-30375647D01*
X92058038Y-30328028D01*
X91962800Y-30232790D01*
X91915180Y-30137552D01*
X92915180Y-28708980D02*
X92438990Y-29042314D01*
X92915180Y-29280409D02*
X91915180Y-29280409D01*
X91915180Y-28899457D01*
X91962800Y-28804219D01*
X92010419Y-28756600D01*
X92105657Y-28708980D01*
X92248514Y-28708980D01*
X92343752Y-28756600D01*
X92391371Y-28804219D01*
X92438990Y-28899457D01*
X92438990Y-29280409D01*
X96999466Y-33208980D02*
X96999466Y-33923266D01*
X96951847Y-34066123D01*
X96856609Y-34161361D01*
X96713752Y-34208980D01*
X96618514Y-34208980D01*
X97380419Y-33208980D02*
X97999466Y-33208980D01*
X97666133Y-33589933D01*
X97808990Y-33589933D01*
X97904228Y-33637552D01*
X97951847Y-33685171D01*
X97999466Y-33780409D01*
X97999466Y-34018504D01*
X97951847Y-34113742D01*
X97904228Y-34161361D01*
X97808990Y-34208980D01*
X97523276Y-34208980D01*
X97428038Y-34161361D01*
X97380419Y-34113742D01*
%TO.C,J2*%
X60138371Y-111004695D02*
X60185990Y-110861838D01*
X60233609Y-110814219D01*
X60328847Y-110766600D01*
X60471704Y-110766600D01*
X60566942Y-110814219D01*
X60614561Y-110861838D01*
X60662180Y-110957076D01*
X60662180Y-111338028D01*
X59662180Y-111338028D01*
X59662180Y-111004695D01*
X59709800Y-110909457D01*
X59757419Y-110861838D01*
X59852657Y-110814219D01*
X59947895Y-110814219D01*
X60043133Y-110861838D01*
X60090752Y-110909457D01*
X60138371Y-111004695D01*
X60138371Y-111338028D01*
X60662180Y-109909457D02*
X60138371Y-109909457D01*
X60043133Y-109957076D01*
X59995514Y-110052314D01*
X59995514Y-110242790D01*
X60043133Y-110338028D01*
X60614561Y-109909457D02*
X60662180Y-110004695D01*
X60662180Y-110242790D01*
X60614561Y-110338028D01*
X60519323Y-110385647D01*
X60424085Y-110385647D01*
X60328847Y-110338028D01*
X60281228Y-110242790D01*
X60281228Y-110004695D01*
X60233609Y-109909457D01*
X60662180Y-109433266D02*
X59995514Y-109433266D01*
X60185990Y-109433266D02*
X60090752Y-109385647D01*
X60043133Y-109338028D01*
X59995514Y-109242790D01*
X59995514Y-109147552D01*
X60662180Y-108814219D02*
X59995514Y-108814219D01*
X60185990Y-108814219D02*
X60090752Y-108766600D01*
X60043133Y-108718980D01*
X59995514Y-108623742D01*
X59995514Y-108528504D01*
X60614561Y-107814219D02*
X60662180Y-107909457D01*
X60662180Y-108099933D01*
X60614561Y-108195171D01*
X60519323Y-108242790D01*
X60138371Y-108242790D01*
X60043133Y-108195171D01*
X59995514Y-108099933D01*
X59995514Y-107909457D01*
X60043133Y-107814219D01*
X60138371Y-107766600D01*
X60233609Y-107766600D01*
X60328847Y-108242790D01*
X60662180Y-107195171D02*
X60614561Y-107290409D01*
X60519323Y-107338028D01*
X59662180Y-107338028D01*
X60757419Y-107052314D02*
X60757419Y-106290409D01*
X59662180Y-105766600D02*
X60376466Y-105766600D01*
X60519323Y-105814219D01*
X60614561Y-105909457D01*
X60662180Y-106052314D01*
X60662180Y-106147552D01*
X60662180Y-104861838D02*
X60138371Y-104861838D01*
X60043133Y-104909457D01*
X59995514Y-105004695D01*
X59995514Y-105195171D01*
X60043133Y-105290409D01*
X60614561Y-104861838D02*
X60662180Y-104957076D01*
X60662180Y-105195171D01*
X60614561Y-105290409D01*
X60519323Y-105338028D01*
X60424085Y-105338028D01*
X60328847Y-105290409D01*
X60281228Y-105195171D01*
X60281228Y-104957076D01*
X60233609Y-104861838D01*
X60614561Y-103957076D02*
X60662180Y-104052314D01*
X60662180Y-104242790D01*
X60614561Y-104338028D01*
X60566942Y-104385647D01*
X60471704Y-104433266D01*
X60185990Y-104433266D01*
X60090752Y-104385647D01*
X60043133Y-104338028D01*
X59995514Y-104242790D01*
X59995514Y-104052314D01*
X60043133Y-103957076D01*
X60662180Y-103528504D02*
X59662180Y-103528504D01*
X60281228Y-103433266D02*
X60662180Y-103147552D01*
X59995514Y-103147552D02*
X60376466Y-103528504D01*
X62212180Y-104399933D02*
X62926466Y-104399933D01*
X63069323Y-104447552D01*
X63164561Y-104542790D01*
X63212180Y-104685647D01*
X63212180Y-104780885D01*
X62307419Y-103971361D02*
X62259800Y-103923742D01*
X62212180Y-103828504D01*
X62212180Y-103590409D01*
X62259800Y-103495171D01*
X62307419Y-103447552D01*
X62402657Y-103399933D01*
X62497895Y-103399933D01*
X62640752Y-103447552D01*
X63212180Y-104018980D01*
X63212180Y-103399933D01*
%TO.C,D9*%
X131767980Y-65844657D02*
X131767980Y-66320847D01*
X130767980Y-66320847D01*
X131244171Y-65511323D02*
X131244171Y-65177990D01*
X131767980Y-65035133D02*
X131767980Y-65511323D01*
X130767980Y-65511323D01*
X130767980Y-65035133D01*
X131767980Y-64606561D02*
X130767980Y-64606561D01*
X130767980Y-64368466D01*
X130815600Y-64225609D01*
X130910838Y-64130371D01*
X131006076Y-64082752D01*
X131196552Y-64035133D01*
X131339409Y-64035133D01*
X131529885Y-64082752D01*
X131625123Y-64130371D01*
X131720361Y-64225609D01*
X131767980Y-64368466D01*
X131767980Y-64606561D01*
D12*
X127717504Y-65812276D02*
X126917504Y-65812276D01*
X126917504Y-65621800D01*
X126955600Y-65507514D01*
X127031790Y-65431323D01*
X127107980Y-65393228D01*
X127260361Y-65355133D01*
X127374647Y-65355133D01*
X127527028Y-65393228D01*
X127603219Y-65431323D01*
X127679409Y-65507514D01*
X127717504Y-65621800D01*
X127717504Y-65812276D01*
X127717504Y-64974180D02*
X127717504Y-64821800D01*
X127679409Y-64745609D01*
X127641314Y-64707514D01*
X127527028Y-64631323D01*
X127374647Y-64593228D01*
X127069885Y-64593228D01*
X126993695Y-64631323D01*
X126955600Y-64669419D01*
X126917504Y-64745609D01*
X126917504Y-64897990D01*
X126955600Y-64974180D01*
X126993695Y-65012276D01*
X127069885Y-65050371D01*
X127260361Y-65050371D01*
X127336552Y-65012276D01*
X127374647Y-64974180D01*
X127412742Y-64897990D01*
X127412742Y-64745609D01*
X127374647Y-64669419D01*
X127336552Y-64631323D01*
X127260361Y-64593228D01*
%TO.C,D8*%
D11*
X129634380Y-43518057D02*
X129634380Y-43994247D01*
X128634380Y-43994247D01*
X129110571Y-43184723D02*
X129110571Y-42851390D01*
X129634380Y-42708533D02*
X129634380Y-43184723D01*
X128634380Y-43184723D01*
X128634380Y-42708533D01*
X129634380Y-42279961D02*
X128634380Y-42279961D01*
X128634380Y-42041866D01*
X128682000Y-41899009D01*
X128777238Y-41803771D01*
X128872476Y-41756152D01*
X129062952Y-41708533D01*
X129205809Y-41708533D01*
X129396285Y-41756152D01*
X129491523Y-41803771D01*
X129586761Y-41899009D01*
X129634380Y-42041866D01*
X129634380Y-42279961D01*
D12*
X125583904Y-43485676D02*
X124783904Y-43485676D01*
X124783904Y-43295200D01*
X124822000Y-43180914D01*
X124898190Y-43104723D01*
X124974380Y-43066628D01*
X125126761Y-43028533D01*
X125241047Y-43028533D01*
X125393428Y-43066628D01*
X125469619Y-43104723D01*
X125545809Y-43180914D01*
X125583904Y-43295200D01*
X125583904Y-43485676D01*
X125126761Y-42571390D02*
X125088666Y-42647580D01*
X125050571Y-42685676D01*
X124974380Y-42723771D01*
X124936285Y-42723771D01*
X124860095Y-42685676D01*
X124822000Y-42647580D01*
X124783904Y-42571390D01*
X124783904Y-42419009D01*
X124822000Y-42342819D01*
X124860095Y-42304723D01*
X124936285Y-42266628D01*
X124974380Y-42266628D01*
X125050571Y-42304723D01*
X125088666Y-42342819D01*
X125126761Y-42419009D01*
X125126761Y-42571390D01*
X125164857Y-42647580D01*
X125202952Y-42685676D01*
X125279142Y-42723771D01*
X125431523Y-42723771D01*
X125507714Y-42685676D01*
X125545809Y-42647580D01*
X125583904Y-42571390D01*
X125583904Y-42419009D01*
X125545809Y-42342819D01*
X125507714Y-42304723D01*
X125431523Y-42266628D01*
X125279142Y-42266628D01*
X125202952Y-42304723D01*
X125164857Y-42342819D01*
X125126761Y-42419009D01*
%TO.C,D7*%
D11*
X132606180Y-87688657D02*
X132606180Y-88164847D01*
X131606180Y-88164847D01*
X132082371Y-87355323D02*
X132082371Y-87021990D01*
X132606180Y-86879133D02*
X132606180Y-87355323D01*
X131606180Y-87355323D01*
X131606180Y-86879133D01*
X132606180Y-86450561D02*
X131606180Y-86450561D01*
X131606180Y-86212466D01*
X131653800Y-86069609D01*
X131749038Y-85974371D01*
X131844276Y-85926752D01*
X132034752Y-85879133D01*
X132177609Y-85879133D01*
X132368085Y-85926752D01*
X132463323Y-85974371D01*
X132558561Y-86069609D01*
X132606180Y-86212466D01*
X132606180Y-86450561D01*
D12*
X128555704Y-87656276D02*
X127755704Y-87656276D01*
X127755704Y-87465800D01*
X127793800Y-87351514D01*
X127869990Y-87275323D01*
X127946180Y-87237228D01*
X128098561Y-87199133D01*
X128212847Y-87199133D01*
X128365228Y-87237228D01*
X128441419Y-87275323D01*
X128517609Y-87351514D01*
X128555704Y-87465800D01*
X128555704Y-87656276D01*
X127755704Y-86932466D02*
X127755704Y-86399133D01*
X128555704Y-86741990D01*
%TO.C,D3*%
D11*
X126713380Y-108262657D02*
X126713380Y-108738847D01*
X125713380Y-108738847D01*
X126189571Y-107929323D02*
X126189571Y-107595990D01*
X126713380Y-107453133D02*
X126713380Y-107929323D01*
X125713380Y-107929323D01*
X125713380Y-107453133D01*
X126713380Y-107024561D02*
X125713380Y-107024561D01*
X125713380Y-106786466D01*
X125761000Y-106643609D01*
X125856238Y-106548371D01*
X125951476Y-106500752D01*
X126141952Y-106453133D01*
X126284809Y-106453133D01*
X126475285Y-106500752D01*
X126570523Y-106548371D01*
X126665761Y-106643609D01*
X126713380Y-106786466D01*
X126713380Y-107024561D01*
D12*
X122662904Y-108230276D02*
X121862904Y-108230276D01*
X121862904Y-108039800D01*
X121901000Y-107925514D01*
X121977190Y-107849323D01*
X122053380Y-107811228D01*
X122205761Y-107773133D01*
X122320047Y-107773133D01*
X122472428Y-107811228D01*
X122548619Y-107849323D01*
X122624809Y-107925514D01*
X122662904Y-108039800D01*
X122662904Y-108230276D01*
X121862904Y-107506466D02*
X121862904Y-107011228D01*
X122167666Y-107277895D01*
X122167666Y-107163609D01*
X122205761Y-107087419D01*
X122243857Y-107049323D01*
X122320047Y-107011228D01*
X122510523Y-107011228D01*
X122586714Y-107049323D01*
X122624809Y-107087419D01*
X122662904Y-107163609D01*
X122662904Y-107392180D01*
X122624809Y-107468371D01*
X122586714Y-107506466D01*
%TO.C,D1*%
D11*
X70324742Y-65427980D02*
X69848552Y-65427980D01*
X69848552Y-64427980D01*
X70658076Y-64904171D02*
X70991409Y-64904171D01*
X71134266Y-65427980D02*
X70658076Y-65427980D01*
X70658076Y-64427980D01*
X71134266Y-64427980D01*
X71562838Y-65427980D02*
X71562838Y-64427980D01*
X71800933Y-64427980D01*
X71943790Y-64475600D01*
X72039028Y-64570838D01*
X72086647Y-64666076D01*
X72134266Y-64856552D01*
X72134266Y-64999409D01*
X72086647Y-65189885D01*
X72039028Y-65285123D01*
X71943790Y-65380361D01*
X71800933Y-65427980D01*
X71562838Y-65427980D01*
D12*
X70397123Y-69297504D02*
X70397123Y-68497504D01*
X70587600Y-68497504D01*
X70701885Y-68535600D01*
X70778076Y-68611790D01*
X70816171Y-68687980D01*
X70854266Y-68840361D01*
X70854266Y-68954647D01*
X70816171Y-69107028D01*
X70778076Y-69183219D01*
X70701885Y-69259409D01*
X70587600Y-69297504D01*
X70397123Y-69297504D01*
X71616171Y-69297504D02*
X71159028Y-69297504D01*
X71387600Y-69297504D02*
X71387600Y-68497504D01*
X71311409Y-68611790D01*
X71235219Y-68687980D01*
X71159028Y-68726076D01*
%TO.C,C2*%
D11*
X64384742Y-96429876D02*
X64432361Y-96477495D01*
X64479980Y-96620352D01*
X64479980Y-96715590D01*
X64432361Y-96858447D01*
X64337123Y-96953685D01*
X64241885Y-97001304D01*
X64051409Y-97048923D01*
X63908552Y-97048923D01*
X63718076Y-97001304D01*
X63622838Y-96953685D01*
X63527600Y-96858447D01*
X63479980Y-96715590D01*
X63479980Y-96620352D01*
X63527600Y-96477495D01*
X63575219Y-96429876D01*
X64575219Y-96239400D02*
X64575219Y-95477495D01*
X64432361Y-95287019D02*
X64479980Y-95144161D01*
X64479980Y-94906066D01*
X64432361Y-94810828D01*
X64384742Y-94763209D01*
X64289504Y-94715590D01*
X64194266Y-94715590D01*
X64099028Y-94763209D01*
X64051409Y-94810828D01*
X64003790Y-94906066D01*
X63956171Y-95096542D01*
X63908552Y-95191780D01*
X63860933Y-95239400D01*
X63765695Y-95287019D01*
X63670457Y-95287019D01*
X63575219Y-95239400D01*
X63527600Y-95191780D01*
X63479980Y-95096542D01*
X63479980Y-94858447D01*
X63527600Y-94715590D01*
X64479980Y-94287019D02*
X63813314Y-94287019D01*
X63908552Y-94287019D02*
X63860933Y-94239400D01*
X63813314Y-94144161D01*
X63813314Y-94001304D01*
X63860933Y-93906066D01*
X63956171Y-93858447D01*
X64479980Y-93858447D01*
X63956171Y-93858447D02*
X63860933Y-93810828D01*
X63813314Y-93715590D01*
X63813314Y-93572733D01*
X63860933Y-93477495D01*
X63956171Y-93429876D01*
X64479980Y-93429876D01*
X64479980Y-92525114D02*
X63956171Y-92525114D01*
X63860933Y-92572733D01*
X63813314Y-92667971D01*
X63813314Y-92858447D01*
X63860933Y-92953685D01*
X64432361Y-92525114D02*
X64479980Y-92620352D01*
X64479980Y-92858447D01*
X64432361Y-92953685D01*
X64337123Y-93001304D01*
X64241885Y-93001304D01*
X64146647Y-92953685D01*
X64099028Y-92858447D01*
X64099028Y-92620352D01*
X64051409Y-92525114D01*
X64479980Y-91906066D02*
X64432361Y-92001304D01*
X64337123Y-92048923D01*
X63479980Y-92048923D01*
X64479980Y-91382257D02*
X64432361Y-91477495D01*
X64337123Y-91525114D01*
X63479980Y-91525114D01*
X68784742Y-94406066D02*
X68832361Y-94453685D01*
X68879980Y-94596542D01*
X68879980Y-94691780D01*
X68832361Y-94834638D01*
X68737123Y-94929876D01*
X68641885Y-94977495D01*
X68451409Y-95025114D01*
X68308552Y-95025114D01*
X68118076Y-94977495D01*
X68022838Y-94929876D01*
X67927600Y-94834638D01*
X67879980Y-94691780D01*
X67879980Y-94596542D01*
X67927600Y-94453685D01*
X67975219Y-94406066D01*
X67975219Y-94025114D02*
X67927600Y-93977495D01*
X67879980Y-93882257D01*
X67879980Y-93644161D01*
X67927600Y-93548923D01*
X67975219Y-93501304D01*
X68070457Y-93453685D01*
X68165695Y-93453685D01*
X68308552Y-93501304D01*
X68879980Y-94072733D01*
X68879980Y-93453685D01*
%TO.C,C1*%
X56282142Y-96531476D02*
X56329761Y-96579095D01*
X56377380Y-96721952D01*
X56377380Y-96817190D01*
X56329761Y-96960047D01*
X56234523Y-97055285D01*
X56139285Y-97102904D01*
X55948809Y-97150523D01*
X55805952Y-97150523D01*
X55615476Y-97102904D01*
X55520238Y-97055285D01*
X55425000Y-96960047D01*
X55377380Y-96817190D01*
X55377380Y-96721952D01*
X55425000Y-96579095D01*
X55472619Y-96531476D01*
X56472619Y-96341000D02*
X56472619Y-95579095D01*
X56329761Y-95388619D02*
X56377380Y-95245761D01*
X56377380Y-95007666D01*
X56329761Y-94912428D01*
X56282142Y-94864809D01*
X56186904Y-94817190D01*
X56091666Y-94817190D01*
X55996428Y-94864809D01*
X55948809Y-94912428D01*
X55901190Y-95007666D01*
X55853571Y-95198142D01*
X55805952Y-95293380D01*
X55758333Y-95341000D01*
X55663095Y-95388619D01*
X55567857Y-95388619D01*
X55472619Y-95341000D01*
X55425000Y-95293380D01*
X55377380Y-95198142D01*
X55377380Y-94960047D01*
X55425000Y-94817190D01*
X56377380Y-94388619D02*
X55710714Y-94388619D01*
X55805952Y-94388619D02*
X55758333Y-94341000D01*
X55710714Y-94245761D01*
X55710714Y-94102904D01*
X55758333Y-94007666D01*
X55853571Y-93960047D01*
X56377380Y-93960047D01*
X55853571Y-93960047D02*
X55758333Y-93912428D01*
X55710714Y-93817190D01*
X55710714Y-93674333D01*
X55758333Y-93579095D01*
X55853571Y-93531476D01*
X56377380Y-93531476D01*
X56377380Y-92626714D02*
X55853571Y-92626714D01*
X55758333Y-92674333D01*
X55710714Y-92769571D01*
X55710714Y-92960047D01*
X55758333Y-93055285D01*
X56329761Y-92626714D02*
X56377380Y-92721952D01*
X56377380Y-92960047D01*
X56329761Y-93055285D01*
X56234523Y-93102904D01*
X56139285Y-93102904D01*
X56044047Y-93055285D01*
X55996428Y-92960047D01*
X55996428Y-92721952D01*
X55948809Y-92626714D01*
X56377380Y-92007666D02*
X56329761Y-92102904D01*
X56234523Y-92150523D01*
X55377380Y-92150523D01*
X56377380Y-91483857D02*
X56329761Y-91579095D01*
X56234523Y-91626714D01*
X55377380Y-91626714D01*
X60682142Y-94507666D02*
X60729761Y-94555285D01*
X60777380Y-94698142D01*
X60777380Y-94793380D01*
X60729761Y-94936238D01*
X60634523Y-95031476D01*
X60539285Y-95079095D01*
X60348809Y-95126714D01*
X60205952Y-95126714D01*
X60015476Y-95079095D01*
X59920238Y-95031476D01*
X59825000Y-94936238D01*
X59777380Y-94793380D01*
X59777380Y-94698142D01*
X59825000Y-94555285D01*
X59872619Y-94507666D01*
X60777380Y-93555285D02*
X60777380Y-94126714D01*
X60777380Y-93841000D02*
X59777380Y-93841000D01*
X59920238Y-93936238D01*
X60015476Y-94031476D01*
X60063095Y-94126714D01*
%TO.C,K4*%
X154587400Y-62542466D02*
X154539780Y-62637704D01*
X154539780Y-62780561D01*
X154587400Y-62923419D01*
X154682638Y-63018657D01*
X154777876Y-63066276D01*
X154968352Y-63113895D01*
X155111209Y-63113895D01*
X155301685Y-63066276D01*
X155396923Y-63018657D01*
X155492161Y-62923419D01*
X155539780Y-62780561D01*
X155539780Y-62685323D01*
X155492161Y-62542466D01*
X155444542Y-62494847D01*
X155111209Y-62494847D01*
X155111209Y-62685323D01*
X154539780Y-61590085D02*
X154539780Y-62066276D01*
X155015971Y-62113895D01*
X154968352Y-62066276D01*
X154920733Y-61971038D01*
X154920733Y-61732942D01*
X154968352Y-61637704D01*
X155015971Y-61590085D01*
X155111209Y-61542466D01*
X155349304Y-61542466D01*
X155444542Y-61590085D01*
X155492161Y-61637704D01*
X155539780Y-61732942D01*
X155539780Y-61971038D01*
X155492161Y-62066276D01*
X155444542Y-62113895D01*
X155539780Y-60637704D02*
X155539780Y-61113895D01*
X154539780Y-61113895D01*
X155015971Y-60304371D02*
X155015971Y-59971038D01*
X155539780Y-59828180D02*
X155539780Y-60304371D01*
X154539780Y-60304371D01*
X154539780Y-59828180D01*
X155158828Y-59399609D02*
X155158828Y-58637704D01*
X155539780Y-57637704D02*
X155539780Y-58209133D01*
X155539780Y-57923419D02*
X154539780Y-57923419D01*
X154682638Y-58018657D01*
X154777876Y-58113895D01*
X154825495Y-58209133D01*
X143289780Y-61113895D02*
X142289780Y-61113895D01*
X143289780Y-60542466D02*
X142718352Y-60971038D01*
X142289780Y-60542466D02*
X142861209Y-61113895D01*
X142623114Y-59685323D02*
X143289780Y-59685323D01*
X142242161Y-59923419D02*
X142956447Y-60161514D01*
X142956447Y-59542466D01*
%TO.C,K3*%
X153901600Y-40266666D02*
X153853980Y-40361904D01*
X153853980Y-40504761D01*
X153901600Y-40647619D01*
X153996838Y-40742857D01*
X154092076Y-40790476D01*
X154282552Y-40838095D01*
X154425409Y-40838095D01*
X154615885Y-40790476D01*
X154711123Y-40742857D01*
X154806361Y-40647619D01*
X154853980Y-40504761D01*
X154853980Y-40409523D01*
X154806361Y-40266666D01*
X154758742Y-40219047D01*
X154425409Y-40219047D01*
X154425409Y-40409523D01*
X153853980Y-39314285D02*
X153853980Y-39790476D01*
X154330171Y-39838095D01*
X154282552Y-39790476D01*
X154234933Y-39695238D01*
X154234933Y-39457142D01*
X154282552Y-39361904D01*
X154330171Y-39314285D01*
X154425409Y-39266666D01*
X154663504Y-39266666D01*
X154758742Y-39314285D01*
X154806361Y-39361904D01*
X154853980Y-39457142D01*
X154853980Y-39695238D01*
X154806361Y-39790476D01*
X154758742Y-39838095D01*
X154853980Y-38361904D02*
X154853980Y-38838095D01*
X153853980Y-38838095D01*
X154330171Y-38028571D02*
X154330171Y-37695238D01*
X154853980Y-37552380D02*
X154853980Y-38028571D01*
X153853980Y-38028571D01*
X153853980Y-37552380D01*
X154473028Y-37123809D02*
X154473028Y-36361904D01*
X154853980Y-35361904D02*
X154853980Y-35933333D01*
X154853980Y-35647619D02*
X153853980Y-35647619D01*
X153996838Y-35742857D01*
X154092076Y-35838095D01*
X154139695Y-35933333D01*
X142603980Y-38838095D02*
X141603980Y-38838095D01*
X142603980Y-38266666D02*
X142032552Y-38695238D01*
X141603980Y-38266666D02*
X142175409Y-38838095D01*
X141603980Y-37933333D02*
X141603980Y-37314285D01*
X141984933Y-37647619D01*
X141984933Y-37504761D01*
X142032552Y-37409523D01*
X142080171Y-37361904D01*
X142175409Y-37314285D01*
X142413504Y-37314285D01*
X142508742Y-37361904D01*
X142556361Y-37409523D01*
X142603980Y-37504761D01*
X142603980Y-37790476D01*
X142556361Y-37885714D01*
X142508742Y-37933333D01*
%TO.C,K2*%
X155451000Y-83929266D02*
X155403380Y-84024504D01*
X155403380Y-84167361D01*
X155451000Y-84310219D01*
X155546238Y-84405457D01*
X155641476Y-84453076D01*
X155831952Y-84500695D01*
X155974809Y-84500695D01*
X156165285Y-84453076D01*
X156260523Y-84405457D01*
X156355761Y-84310219D01*
X156403380Y-84167361D01*
X156403380Y-84072123D01*
X156355761Y-83929266D01*
X156308142Y-83881647D01*
X155974809Y-83881647D01*
X155974809Y-84072123D01*
X155403380Y-82976885D02*
X155403380Y-83453076D01*
X155879571Y-83500695D01*
X155831952Y-83453076D01*
X155784333Y-83357838D01*
X155784333Y-83119742D01*
X155831952Y-83024504D01*
X155879571Y-82976885D01*
X155974809Y-82929266D01*
X156212904Y-82929266D01*
X156308142Y-82976885D01*
X156355761Y-83024504D01*
X156403380Y-83119742D01*
X156403380Y-83357838D01*
X156355761Y-83453076D01*
X156308142Y-83500695D01*
X156403380Y-82024504D02*
X156403380Y-82500695D01*
X155403380Y-82500695D01*
X155879571Y-81691171D02*
X155879571Y-81357838D01*
X156403380Y-81214980D02*
X156403380Y-81691171D01*
X155403380Y-81691171D01*
X155403380Y-81214980D01*
X156022428Y-80786409D02*
X156022428Y-80024504D01*
X156403380Y-79024504D02*
X156403380Y-79595933D01*
X156403380Y-79310219D02*
X155403380Y-79310219D01*
X155546238Y-79405457D01*
X155641476Y-79500695D01*
X155689095Y-79595933D01*
X144153380Y-82500695D02*
X143153380Y-82500695D01*
X144153380Y-81929266D02*
X143581952Y-82357838D01*
X143153380Y-81929266D02*
X143724809Y-82500695D01*
X143248619Y-81548314D02*
X143201000Y-81500695D01*
X143153380Y-81405457D01*
X143153380Y-81167361D01*
X143201000Y-81072123D01*
X143248619Y-81024504D01*
X143343857Y-80976885D01*
X143439095Y-80976885D01*
X143581952Y-81024504D01*
X144153380Y-81595933D01*
X144153380Y-80976885D01*
%TO.C,J1*%
X63100676Y-59551380D02*
X63100676Y-58551380D01*
X63434009Y-59265666D01*
X63767342Y-58551380D01*
X63767342Y-59551380D01*
X64386390Y-59551380D02*
X64291152Y-59503761D01*
X64243533Y-59456142D01*
X64195914Y-59360904D01*
X64195914Y-59075190D01*
X64243533Y-58979952D01*
X64291152Y-58932333D01*
X64386390Y-58884714D01*
X64529247Y-58884714D01*
X64624485Y-58932333D01*
X64672104Y-58979952D01*
X64719723Y-59075190D01*
X64719723Y-59360904D01*
X64672104Y-59456142D01*
X64624485Y-59503761D01*
X64529247Y-59551380D01*
X64386390Y-59551380D01*
X65100676Y-59503761D02*
X65195914Y-59551380D01*
X65386390Y-59551380D01*
X65481628Y-59503761D01*
X65529247Y-59408523D01*
X65529247Y-59360904D01*
X65481628Y-59265666D01*
X65386390Y-59218047D01*
X65243533Y-59218047D01*
X65148295Y-59170428D01*
X65100676Y-59075190D01*
X65100676Y-59027571D01*
X65148295Y-58932333D01*
X65243533Y-58884714D01*
X65386390Y-58884714D01*
X65481628Y-58932333D01*
X65957819Y-59551380D02*
X65957819Y-58884714D01*
X65957819Y-58551380D02*
X65910200Y-58599000D01*
X65957819Y-58646619D01*
X66005438Y-58599000D01*
X65957819Y-58551380D01*
X65957819Y-58646619D01*
X66291152Y-58884714D02*
X66672104Y-58884714D01*
X66434009Y-58551380D02*
X66434009Y-59408523D01*
X66481628Y-59503761D01*
X66576866Y-59551380D01*
X66672104Y-59551380D01*
X67434009Y-58884714D02*
X67434009Y-59551380D01*
X67005438Y-58884714D02*
X67005438Y-59408523D01*
X67053057Y-59503761D01*
X67148295Y-59551380D01*
X67291152Y-59551380D01*
X67386390Y-59503761D01*
X67434009Y-59456142D01*
X67910200Y-59551380D02*
X67910200Y-58884714D01*
X67910200Y-59075190D02*
X67957819Y-58979952D01*
X68005438Y-58932333D01*
X68100676Y-58884714D01*
X68195914Y-58884714D01*
X68910200Y-59503761D02*
X68814961Y-59551380D01*
X68624485Y-59551380D01*
X68529247Y-59503761D01*
X68481628Y-59408523D01*
X68481628Y-59027571D01*
X68529247Y-58932333D01*
X68624485Y-58884714D01*
X68814961Y-58884714D01*
X68910200Y-58932333D01*
X68957819Y-59027571D01*
X68957819Y-59122809D01*
X68481628Y-59218047D01*
X69148295Y-59646619D02*
X69910200Y-59646619D01*
X70100676Y-59503761D02*
X70243533Y-59551380D01*
X70481628Y-59551380D01*
X70576866Y-59503761D01*
X70624485Y-59456142D01*
X70672104Y-59360904D01*
X70672104Y-59265666D01*
X70624485Y-59170428D01*
X70576866Y-59122809D01*
X70481628Y-59075190D01*
X70291152Y-59027571D01*
X70195914Y-58979952D01*
X70148295Y-58932333D01*
X70100676Y-58837095D01*
X70100676Y-58741857D01*
X70148295Y-58646619D01*
X70195914Y-58599000D01*
X70291152Y-58551380D01*
X70529247Y-58551380D01*
X70672104Y-58599000D01*
X71481628Y-59503761D02*
X71386390Y-59551380D01*
X71195914Y-59551380D01*
X71100676Y-59503761D01*
X71053057Y-59408523D01*
X71053057Y-59027571D01*
X71100676Y-58932333D01*
X71195914Y-58884714D01*
X71386390Y-58884714D01*
X71481628Y-58932333D01*
X71529247Y-59027571D01*
X71529247Y-59122809D01*
X71053057Y-59218047D01*
X71957819Y-58884714D02*
X71957819Y-59551380D01*
X71957819Y-58979952D02*
X72005438Y-58932333D01*
X72100676Y-58884714D01*
X72243533Y-58884714D01*
X72338771Y-58932333D01*
X72386390Y-59027571D01*
X72386390Y-59551380D01*
X72814961Y-59503761D02*
X72910200Y-59551380D01*
X73100676Y-59551380D01*
X73195914Y-59503761D01*
X73243533Y-59408523D01*
X73243533Y-59360904D01*
X73195914Y-59265666D01*
X73100676Y-59218047D01*
X72957819Y-59218047D01*
X72862580Y-59170428D01*
X72814961Y-59075190D01*
X72814961Y-59027571D01*
X72862580Y-58932333D01*
X72957819Y-58884714D01*
X73100676Y-58884714D01*
X73195914Y-58932333D01*
X73814961Y-59551380D02*
X73719723Y-59503761D01*
X73672104Y-59456142D01*
X73624485Y-59360904D01*
X73624485Y-59075190D01*
X73672104Y-58979952D01*
X73719723Y-58932333D01*
X73814961Y-58884714D01*
X73957819Y-58884714D01*
X74053057Y-58932333D01*
X74100676Y-58979952D01*
X74148295Y-59075190D01*
X74148295Y-59360904D01*
X74100676Y-59456142D01*
X74053057Y-59503761D01*
X73957819Y-59551380D01*
X73814961Y-59551380D01*
X74576866Y-59551380D02*
X74576866Y-58884714D01*
X74576866Y-59075190D02*
X74624485Y-58979952D01*
X74672104Y-58932333D01*
X74767342Y-58884714D01*
X74862580Y-58884714D01*
X68362580Y-53292333D02*
X69076866Y-53292333D01*
X69219723Y-53339952D01*
X69314961Y-53435190D01*
X69362580Y-53578047D01*
X69362580Y-53673285D01*
X69362580Y-52292333D02*
X69362580Y-52863761D01*
X69362580Y-52578047D02*
X68362580Y-52578047D01*
X68505438Y-52673285D01*
X68600676Y-52768523D01*
X68648295Y-52863761D01*
%TO.C,D6*%
X119622980Y-60194557D02*
X119622980Y-60765985D01*
X119622980Y-60480271D02*
X118622980Y-60480271D01*
X118765838Y-60575509D01*
X118861076Y-60670747D01*
X118908695Y-60765985D01*
X119622980Y-59765985D02*
X118622980Y-59765985D01*
X119622980Y-59194557D01*
X118622980Y-59194557D01*
X118956314Y-58289795D02*
X119622980Y-58289795D01*
X118575361Y-58527890D02*
X119289647Y-58765985D01*
X119289647Y-58146938D01*
X118622980Y-57575509D02*
X118622980Y-57480271D01*
X118670600Y-57385033D01*
X118718219Y-57337414D01*
X118813457Y-57289795D01*
X119003933Y-57242176D01*
X119242028Y-57242176D01*
X119432504Y-57289795D01*
X119527742Y-57337414D01*
X119575361Y-57385033D01*
X119622980Y-57480271D01*
X119622980Y-57575509D01*
X119575361Y-57670747D01*
X119527742Y-57718366D01*
X119432504Y-57765985D01*
X119242028Y-57813604D01*
X119003933Y-57813604D01*
X118813457Y-57765985D01*
X118718219Y-57718366D01*
X118670600Y-57670747D01*
X118622980Y-57575509D01*
X118622980Y-56623128D02*
X118622980Y-56527890D01*
X118670600Y-56432652D01*
X118718219Y-56385033D01*
X118813457Y-56337414D01*
X119003933Y-56289795D01*
X119242028Y-56289795D01*
X119432504Y-56337414D01*
X119527742Y-56385033D01*
X119575361Y-56432652D01*
X119622980Y-56527890D01*
X119622980Y-56623128D01*
X119575361Y-56718366D01*
X119527742Y-56765985D01*
X119432504Y-56813604D01*
X119242028Y-56861223D01*
X119003933Y-56861223D01*
X118813457Y-56813604D01*
X118718219Y-56765985D01*
X118670600Y-56718366D01*
X118622980Y-56623128D01*
X118622980Y-55956461D02*
X118622980Y-55289795D01*
X119622980Y-55718366D01*
X122092980Y-59179795D02*
X121092980Y-59179795D01*
X121092980Y-58941700D01*
X121140600Y-58798842D01*
X121235838Y-58703604D01*
X121331076Y-58655985D01*
X121521552Y-58608366D01*
X121664409Y-58608366D01*
X121854885Y-58655985D01*
X121950123Y-58703604D01*
X122045361Y-58798842D01*
X122092980Y-58941700D01*
X122092980Y-59179795D01*
X121092980Y-57751223D02*
X121092980Y-57941700D01*
X121140600Y-58036938D01*
X121188219Y-58084557D01*
X121331076Y-58179795D01*
X121521552Y-58227414D01*
X121902504Y-58227414D01*
X121997742Y-58179795D01*
X122045361Y-58132176D01*
X122092980Y-58036938D01*
X122092980Y-57846461D01*
X122045361Y-57751223D01*
X121997742Y-57703604D01*
X121902504Y-57655985D01*
X121664409Y-57655985D01*
X121569171Y-57703604D01*
X121521552Y-57751223D01*
X121473933Y-57846461D01*
X121473933Y-58036938D01*
X121521552Y-58132176D01*
X121569171Y-58179795D01*
X121664409Y-58227414D01*
X124192980Y-53233604D02*
X123192980Y-53233604D01*
X124192980Y-52662176D02*
X123621552Y-53090747D01*
X123192980Y-52662176D02*
X123764409Y-53233604D01*
%TO.C,D5*%
X116473380Y-39176057D02*
X116473380Y-39747485D01*
X116473380Y-39461771D02*
X115473380Y-39461771D01*
X115616238Y-39557009D01*
X115711476Y-39652247D01*
X115759095Y-39747485D01*
X116473380Y-38747485D02*
X115473380Y-38747485D01*
X116473380Y-38176057D01*
X115473380Y-38176057D01*
X115806714Y-37271295D02*
X116473380Y-37271295D01*
X115425761Y-37509390D02*
X116140047Y-37747485D01*
X116140047Y-37128438D01*
X115473380Y-36557009D02*
X115473380Y-36461771D01*
X115521000Y-36366533D01*
X115568619Y-36318914D01*
X115663857Y-36271295D01*
X115854333Y-36223676D01*
X116092428Y-36223676D01*
X116282904Y-36271295D01*
X116378142Y-36318914D01*
X116425761Y-36366533D01*
X116473380Y-36461771D01*
X116473380Y-36557009D01*
X116425761Y-36652247D01*
X116378142Y-36699866D01*
X116282904Y-36747485D01*
X116092428Y-36795104D01*
X115854333Y-36795104D01*
X115663857Y-36747485D01*
X115568619Y-36699866D01*
X115521000Y-36652247D01*
X115473380Y-36557009D01*
X115473380Y-35604628D02*
X115473380Y-35509390D01*
X115521000Y-35414152D01*
X115568619Y-35366533D01*
X115663857Y-35318914D01*
X115854333Y-35271295D01*
X116092428Y-35271295D01*
X116282904Y-35318914D01*
X116378142Y-35366533D01*
X116425761Y-35414152D01*
X116473380Y-35509390D01*
X116473380Y-35604628D01*
X116425761Y-35699866D01*
X116378142Y-35747485D01*
X116282904Y-35795104D01*
X116092428Y-35842723D01*
X115854333Y-35842723D01*
X115663857Y-35795104D01*
X115568619Y-35747485D01*
X115521000Y-35699866D01*
X115473380Y-35604628D01*
X115473380Y-34937961D02*
X115473380Y-34271295D01*
X116473380Y-34699866D01*
X121043380Y-32215104D02*
X120043380Y-32215104D01*
X121043380Y-31643676D02*
X120471952Y-32072247D01*
X120043380Y-31643676D02*
X120614809Y-32215104D01*
X118943380Y-38161295D02*
X117943380Y-38161295D01*
X117943380Y-37923200D01*
X117991000Y-37780342D01*
X118086238Y-37685104D01*
X118181476Y-37637485D01*
X118371952Y-37589866D01*
X118514809Y-37589866D01*
X118705285Y-37637485D01*
X118800523Y-37685104D01*
X118895761Y-37780342D01*
X118943380Y-37923200D01*
X118943380Y-38161295D01*
X117943380Y-36685104D02*
X117943380Y-37161295D01*
X118419571Y-37208914D01*
X118371952Y-37161295D01*
X118324333Y-37066057D01*
X118324333Y-36827961D01*
X118371952Y-36732723D01*
X118419571Y-36685104D01*
X118514809Y-36637485D01*
X118752904Y-36637485D01*
X118848142Y-36685104D01*
X118895761Y-36732723D01*
X118943380Y-36827961D01*
X118943380Y-37066057D01*
X118895761Y-37161295D01*
X118848142Y-37208914D01*
%TO.C,D4*%
X120715180Y-81568657D02*
X120715180Y-82140085D01*
X120715180Y-81854371D02*
X119715180Y-81854371D01*
X119858038Y-81949609D01*
X119953276Y-82044847D01*
X120000895Y-82140085D01*
X120715180Y-81140085D02*
X119715180Y-81140085D01*
X120715180Y-80568657D01*
X119715180Y-80568657D01*
X120048514Y-79663895D02*
X120715180Y-79663895D01*
X119667561Y-79901990D02*
X120381847Y-80140085D01*
X120381847Y-79521038D01*
X119715180Y-78949609D02*
X119715180Y-78854371D01*
X119762800Y-78759133D01*
X119810419Y-78711514D01*
X119905657Y-78663895D01*
X120096133Y-78616276D01*
X120334228Y-78616276D01*
X120524704Y-78663895D01*
X120619942Y-78711514D01*
X120667561Y-78759133D01*
X120715180Y-78854371D01*
X120715180Y-78949609D01*
X120667561Y-79044847D01*
X120619942Y-79092466D01*
X120524704Y-79140085D01*
X120334228Y-79187704D01*
X120096133Y-79187704D01*
X119905657Y-79140085D01*
X119810419Y-79092466D01*
X119762800Y-79044847D01*
X119715180Y-78949609D01*
X119715180Y-77997228D02*
X119715180Y-77901990D01*
X119762800Y-77806752D01*
X119810419Y-77759133D01*
X119905657Y-77711514D01*
X120096133Y-77663895D01*
X120334228Y-77663895D01*
X120524704Y-77711514D01*
X120619942Y-77759133D01*
X120667561Y-77806752D01*
X120715180Y-77901990D01*
X120715180Y-77997228D01*
X120667561Y-78092466D01*
X120619942Y-78140085D01*
X120524704Y-78187704D01*
X120334228Y-78235323D01*
X120096133Y-78235323D01*
X119905657Y-78187704D01*
X119810419Y-78140085D01*
X119762800Y-78092466D01*
X119715180Y-77997228D01*
X119715180Y-77330561D02*
X119715180Y-76663895D01*
X120715180Y-77092466D01*
X125285180Y-74607704D02*
X124285180Y-74607704D01*
X125285180Y-74036276D02*
X124713752Y-74464847D01*
X124285180Y-74036276D02*
X124856609Y-74607704D01*
X123185180Y-80553895D02*
X122185180Y-80553895D01*
X122185180Y-80315800D01*
X122232800Y-80172942D01*
X122328038Y-80077704D01*
X122423276Y-80030085D01*
X122613752Y-79982466D01*
X122756609Y-79982466D01*
X122947085Y-80030085D01*
X123042323Y-80077704D01*
X123137561Y-80172942D01*
X123185180Y-80315800D01*
X123185180Y-80553895D01*
X122518514Y-79125323D02*
X123185180Y-79125323D01*
X122137561Y-79363419D02*
X122851847Y-79601514D01*
X122851847Y-78982466D01*
%TO.C,D2*%
X112358580Y-103184057D02*
X112358580Y-103755485D01*
X112358580Y-103469771D02*
X111358580Y-103469771D01*
X111501438Y-103565009D01*
X111596676Y-103660247D01*
X111644295Y-103755485D01*
X112358580Y-102755485D02*
X111358580Y-102755485D01*
X112358580Y-102184057D01*
X111358580Y-102184057D01*
X111691914Y-101279295D02*
X112358580Y-101279295D01*
X111310961Y-101517390D02*
X112025247Y-101755485D01*
X112025247Y-101136438D01*
X111358580Y-100565009D02*
X111358580Y-100469771D01*
X111406200Y-100374533D01*
X111453819Y-100326914D01*
X111549057Y-100279295D01*
X111739533Y-100231676D01*
X111977628Y-100231676D01*
X112168104Y-100279295D01*
X112263342Y-100326914D01*
X112310961Y-100374533D01*
X112358580Y-100469771D01*
X112358580Y-100565009D01*
X112310961Y-100660247D01*
X112263342Y-100707866D01*
X112168104Y-100755485D01*
X111977628Y-100803104D01*
X111739533Y-100803104D01*
X111549057Y-100755485D01*
X111453819Y-100707866D01*
X111406200Y-100660247D01*
X111358580Y-100565009D01*
X111358580Y-99612628D02*
X111358580Y-99517390D01*
X111406200Y-99422152D01*
X111453819Y-99374533D01*
X111549057Y-99326914D01*
X111739533Y-99279295D01*
X111977628Y-99279295D01*
X112168104Y-99326914D01*
X112263342Y-99374533D01*
X112310961Y-99422152D01*
X112358580Y-99517390D01*
X112358580Y-99612628D01*
X112310961Y-99707866D01*
X112263342Y-99755485D01*
X112168104Y-99803104D01*
X111977628Y-99850723D01*
X111739533Y-99850723D01*
X111549057Y-99803104D01*
X111453819Y-99755485D01*
X111406200Y-99707866D01*
X111358580Y-99612628D01*
X111358580Y-98945961D02*
X111358580Y-98279295D01*
X112358580Y-98707866D01*
X116928580Y-96223104D02*
X115928580Y-96223104D01*
X116928580Y-95651676D02*
X116357152Y-96080247D01*
X115928580Y-95651676D02*
X116500009Y-96223104D01*
X114828580Y-102169295D02*
X113828580Y-102169295D01*
X113828580Y-101931200D01*
X113876200Y-101788342D01*
X113971438Y-101693104D01*
X114066676Y-101645485D01*
X114257152Y-101597866D01*
X114400009Y-101597866D01*
X114590485Y-101645485D01*
X114685723Y-101693104D01*
X114780961Y-101788342D01*
X114828580Y-101931200D01*
X114828580Y-102169295D01*
X113923819Y-101216914D02*
X113876200Y-101169295D01*
X113828580Y-101074057D01*
X113828580Y-100835961D01*
X113876200Y-100740723D01*
X113923819Y-100693104D01*
X114019057Y-100645485D01*
X114114295Y-100645485D01*
X114257152Y-100693104D01*
X114828580Y-101264533D01*
X114828580Y-100645485D01*
%TD*%
M02*
