%TF.GenerationSoftware,KiCad,Pcbnew,(5.1.12)-1*%
%TF.CreationDate,2022-03-25T13:57:00+05:30*%
%TF.ProjectId,greenhosue,67726565-6e68-46f7-9375-652e6b696361,rev?*%
%TF.SameCoordinates,Original*%
%TF.FileFunction,Copper,L1,Top*%
%TF.FilePolarity,Positive*%
%FSLAX46Y46*%
G04 Gerber Fmt 4.6, Leading zero omitted, Abs format (unit mm)*
G04 Created by KiCad (PCBNEW (5.1.12)-1) date 2022-03-25 13:57:00*
%MOMM*%
%LPD*%
G01*
G04 APERTURE LIST*
%TA.AperFunction,ComponentPad*%
%ADD10O,2.500000X2.500000*%
%TD*%
%TA.AperFunction,ComponentPad*%
%ADD11R,2.500000X2.500000*%
%TD*%
%TA.AperFunction,ComponentPad*%
%ADD12O,1.600000X1.600000*%
%TD*%
%TA.AperFunction,ComponentPad*%
%ADD13C,1.600000*%
%TD*%
%TA.AperFunction,ComponentPad*%
%ADD14C,2.000000*%
%TD*%
%TA.AperFunction,ComponentPad*%
%ADD15C,1.524000*%
%TD*%
%TA.AperFunction,ComponentPad*%
%ADD16R,1.500000X1.500000*%
%TD*%
%TA.AperFunction,ComponentPad*%
%ADD17C,1.500000*%
%TD*%
%TA.AperFunction,ComponentPad*%
%ADD18O,1.905000X2.000000*%
%TD*%
%TA.AperFunction,ComponentPad*%
%ADD19R,1.905000X2.000000*%
%TD*%
%TA.AperFunction,ComponentPad*%
%ADD20O,1.700000X1.700000*%
%TD*%
%TA.AperFunction,ComponentPad*%
%ADD21R,1.700000X1.700000*%
%TD*%
%TA.AperFunction,ComponentPad*%
%ADD22C,2.600000*%
%TD*%
%TA.AperFunction,ComponentPad*%
%ADD23R,2.600000X2.600000*%
%TD*%
%TA.AperFunction,ComponentPad*%
%ADD24R,3.500000X3.500000*%
%TD*%
%TA.AperFunction,ComponentPad*%
%ADD25C,1.800000*%
%TD*%
%TA.AperFunction,ComponentPad*%
%ADD26R,1.800000X1.800000*%
%TD*%
%TA.AperFunction,ComponentPad*%
%ADD27R,1.600000X1.600000*%
%TD*%
%TA.AperFunction,ComponentPad*%
%ADD28R,2.200000X2.200000*%
%TD*%
%TA.AperFunction,ComponentPad*%
%ADD29O,2.200000X2.200000*%
%TD*%
%TA.AperFunction,Conductor*%
%ADD30C,1.500000*%
%TD*%
%TA.AperFunction,Conductor*%
%ADD31C,2.000000*%
%TD*%
%TA.AperFunction,Conductor*%
%ADD32C,0.254000*%
%TD*%
%TA.AperFunction,Conductor*%
%ADD33C,0.100000*%
%TD*%
G04 APERTURE END LIST*
D10*
%TO.P,K1,5*%
%TO.N,VCC*%
X133876800Y-96819200D03*
%TO.P,K1,4*%
%TO.N,Net-(J5-Pad3)*%
X146076800Y-96819200D03*
%TO.P,K1,3*%
%TO.N,Net-(J5-Pad1)*%
X146076800Y-108819200D03*
%TO.P,K1,2*%
%TO.N,Net-(D2-Pad2)*%
X133876800Y-108819200D03*
D11*
%TO.P,K1,1*%
%TO.N,Net-(J5-Pad2)*%
X131876800Y-102819200D03*
%TD*%
D12*
%TO.P,R4,2*%
%TO.N,S1*%
X104673400Y-37084000D03*
D13*
%TO.P,R4,1*%
%TO.N,VCC*%
X104673400Y-29464000D03*
%TD*%
D14*
%TO.P,SW1,1*%
%TO.N,S1*%
X108130200Y-36017200D03*
%TO.P,SW1,2*%
%TO.N,GND*%
X108130200Y-31517200D03*
%TO.P,SW1,1*%
%TO.N,S1*%
X114630200Y-36017200D03*
%TO.P,SW1,2*%
%TO.N,GND*%
X114630200Y-31517200D03*
%TD*%
%TO.P,SW2,1*%
%TO.N,S2*%
X79047200Y-34493200D03*
%TO.P,SW2,2*%
%TO.N,GND*%
X79047200Y-29993200D03*
%TO.P,SW2,1*%
%TO.N,S2*%
X85547200Y-34493200D03*
%TO.P,SW2,2*%
%TO.N,GND*%
X85547200Y-29993200D03*
%TD*%
D12*
%TO.P,R7,2*%
%TO.N,S2*%
X78460600Y-37998400D03*
D13*
%TO.P,R7,1*%
%TO.N,VCC*%
X86080600Y-37998400D03*
%TD*%
D15*
%TO.P,U1,30*%
%TO.N,S1*%
X104343200Y-51536600D03*
%TO.P,U1,29*%
%TO.N,Net-(J3-Pad2)*%
X104343200Y-54076600D03*
%TO.P,U1,28*%
%TO.N,Net-(J4-Pad3)*%
X104343200Y-56616600D03*
%TO.P,U1,27*%
%TO.N,S2*%
X104343200Y-59156600D03*
%TO.P,U1,26*%
%TO.N,M_data*%
X104343200Y-61696600D03*
%TO.P,U1,25*%
%TO.N,Net-(U1-Pad25)*%
X104343200Y-64236600D03*
%TO.P,U1,24*%
%TO.N,GND*%
X104343200Y-66776600D03*
%TO.P,U1,23*%
%TO.N,relay1*%
X104343200Y-69316600D03*
%TO.P,U1,22*%
%TO.N,relay2*%
X104343200Y-71856600D03*
%TO.P,U1,21*%
%TO.N,relay3*%
X104343200Y-74396600D03*
%TO.P,U1,20*%
%TO.N,relay4*%
X104343200Y-76936600D03*
%TO.P,U1,19*%
%TO.N,S3*%
X104343200Y-79476600D03*
%TO.P,U1,18*%
%TO.N,S4*%
X104343200Y-82016600D03*
%TO.P,U1,17*%
%TO.N,GND*%
X104343200Y-84556600D03*
%TO.P,U1,16*%
%TO.N,Net-(U1-Pad16)*%
X104343200Y-87096600D03*
%TO.P,U1,15*%
%TO.N,VCC*%
X76403200Y-87096600D03*
%TO.P,U1,14*%
%TO.N,GND*%
X76403200Y-84556600D03*
%TO.P,U1,13*%
%TO.N,Net-(U1-Pad13)*%
X76403200Y-82016600D03*
%TO.P,U1,12*%
%TO.N,Net-(U1-Pad12)*%
X76403200Y-79476600D03*
%TO.P,U1,11*%
%TO.N,+3V3*%
X76403200Y-76936600D03*
%TO.P,U1,10*%
%TO.N,GND*%
X76403200Y-74396600D03*
%TO.P,U1,9*%
%TO.N,Net-(U1-Pad9)*%
X76403200Y-71856600D03*
%TO.P,U1,8*%
%TO.N,Net-(U1-Pad8)*%
X76403200Y-69316600D03*
%TO.P,U1,7*%
%TO.N,Net-(U1-Pad7)*%
X76403200Y-66776600D03*
%TO.P,U1,6*%
%TO.N,Net-(U1-Pad6)*%
X76403200Y-64236600D03*
%TO.P,U1,5*%
%TO.N,Net-(U1-Pad5)*%
X76403200Y-61696600D03*
%TO.P,U1,4*%
%TO.N,Net-(U1-Pad4)*%
X76403200Y-59156600D03*
%TO.P,U1,3*%
%TO.N,Net-(U1-Pad3)*%
X76403200Y-56616600D03*
%TO.P,U1,2*%
%TO.N,GND*%
X76403200Y-54076600D03*
%TO.P,U1,1*%
%TO.N,m_analog*%
X76403200Y-51536600D03*
%TD*%
D16*
%TO.P,Q4,1*%
%TO.N,Net-(D6-Pad2)*%
X120624600Y-66065400D03*
D17*
%TO.P,Q4,3*%
%TO.N,GND*%
X120624600Y-71145400D03*
%TO.P,Q4,2*%
%TO.N,Net-(Q4-Pad2)*%
X120624600Y-68605400D03*
%TD*%
D16*
%TO.P,Q3,1*%
%TO.N,Net-(D5-Pad2)*%
X118262400Y-45415200D03*
D17*
%TO.P,Q3,3*%
%TO.N,GND*%
X118262400Y-50495200D03*
%TO.P,Q3,2*%
%TO.N,Net-(Q3-Pad2)*%
X118262400Y-47955200D03*
%TD*%
D16*
%TO.P,Q2,1*%
%TO.N,Net-(D4-Pad2)*%
X121869200Y-87604600D03*
D17*
%TO.P,Q2,3*%
%TO.N,GND*%
X121869200Y-92684600D03*
%TO.P,Q2,2*%
%TO.N,Net-(Q2-Pad2)*%
X121869200Y-90144600D03*
%TD*%
D16*
%TO.P,Q1,1*%
%TO.N,Net-(D2-Pad2)*%
X114173000Y-109702600D03*
D17*
%TO.P,Q1,3*%
%TO.N,GND*%
X114173000Y-114782600D03*
%TO.P,Q1,2*%
%TO.N,Net-(Q1-Pad2)*%
X114173000Y-112242600D03*
%TD*%
D18*
%TO.P,U2,3*%
%TO.N,VCC*%
X70408800Y-87223600D03*
%TO.P,U2,2*%
%TO.N,GND*%
X67868800Y-87223600D03*
D19*
%TO.P,U2,1*%
%TO.N,+12V*%
X65328800Y-87223600D03*
%TD*%
D12*
%TO.P,R14,2*%
%TO.N,Net-(D9-Pad2)*%
X127304800Y-60350400D03*
D13*
%TO.P,R14,1*%
%TO.N,VCC*%
X127304800Y-52730400D03*
%TD*%
D12*
%TO.P,R13,2*%
%TO.N,Net-(D8-Pad2)*%
X125196600Y-38201600D03*
D13*
%TO.P,R13,1*%
%TO.N,VCC*%
X125196600Y-30581600D03*
%TD*%
D12*
%TO.P,R12,2*%
%TO.N,Net-(D7-Pad2)*%
X128270000Y-81940400D03*
D13*
%TO.P,R12,1*%
%TO.N,VCC*%
X128270000Y-74320400D03*
%TD*%
D12*
%TO.P,R11,2*%
%TO.N,relay2*%
X115570000Y-59664600D03*
D13*
%TO.P,R11,1*%
%TO.N,Net-(Q4-Pad2)*%
X115570000Y-67284600D03*
%TD*%
D12*
%TO.P,R10,2*%
%TO.N,relay1*%
X112623600Y-38862000D03*
D13*
%TO.P,R10,1*%
%TO.N,Net-(Q3-Pad2)*%
X112623600Y-46482000D03*
%TD*%
D12*
%TO.P,R9,2*%
%TO.N,relay3*%
X118033800Y-75565000D03*
D13*
%TO.P,R9,1*%
%TO.N,Net-(Q2-Pad2)*%
X118033800Y-83185000D03*
%TD*%
D12*
%TO.P,R6,2*%
%TO.N,Net-(D3-Pad2)*%
X122351800Y-103174800D03*
D13*
%TO.P,R6,1*%
%TO.N,VCC*%
X122351800Y-95554800D03*
%TD*%
D12*
%TO.P,R3,2*%
%TO.N,relay4*%
X108712000Y-101473000D03*
D13*
%TO.P,R3,1*%
%TO.N,Net-(Q1-Pad2)*%
X108712000Y-109093000D03*
%TD*%
D12*
%TO.P,R2,2*%
%TO.N,Net-(J3-Pad2)*%
X100812600Y-30124400D03*
D13*
%TO.P,R2,1*%
%TO.N,VCC*%
X93192600Y-30124400D03*
%TD*%
D12*
%TO.P,R1,2*%
%TO.N,Net-(D1-Pad2)*%
X69646800Y-73812400D03*
D13*
%TO.P,R1,1*%
%TO.N,VCC*%
X69646800Y-81432400D03*
%TD*%
D20*
%TO.P,J10,3*%
%TO.N,GND*%
X65608200Y-67411600D03*
%TO.P,J10,2*%
X65608200Y-69951600D03*
D21*
%TO.P,J10,1*%
X65608200Y-72491600D03*
%TD*%
D20*
%TO.P,J9,3*%
%TO.N,VCC*%
X65608200Y-76504800D03*
%TO.P,J9,2*%
X65608200Y-79044800D03*
D21*
%TO.P,J9,1*%
X65608200Y-81584800D03*
%TD*%
D22*
%TO.P,J8,3*%
%TO.N,Net-(J8-Pad3)*%
X161925000Y-55405000D03*
%TO.P,J8,2*%
%TO.N,Net-(J8-Pad2)*%
X161925000Y-60405000D03*
D23*
%TO.P,J8,1*%
%TO.N,Net-(J8-Pad1)*%
X161925000Y-65405000D03*
%TD*%
D22*
%TO.P,J7,3*%
%TO.N,Net-(J7-Pad3)*%
X162077400Y-32976800D03*
%TO.P,J7,2*%
%TO.N,+12V*%
X162077400Y-37976800D03*
D23*
%TO.P,J7,1*%
%TO.N,Net-(J7-Pad1)*%
X162077400Y-42976800D03*
%TD*%
D22*
%TO.P,J6,3*%
%TO.N,Net-(J6-Pad3)*%
X162356800Y-76410800D03*
%TO.P,J6,2*%
%TO.N,Net-(J6-Pad2)*%
X162356800Y-81410800D03*
D23*
%TO.P,J6,1*%
%TO.N,Net-(J6-Pad1)*%
X162356800Y-86410800D03*
%TD*%
D22*
%TO.P,J5,3*%
%TO.N,Net-(J5-Pad3)*%
X162483800Y-96019600D03*
%TO.P,J5,2*%
%TO.N,Net-(J5-Pad2)*%
X162483800Y-101019600D03*
D23*
%TO.P,J5,1*%
%TO.N,Net-(J5-Pad1)*%
X162483800Y-106019600D03*
%TD*%
D20*
%TO.P,J4,3*%
%TO.N,Net-(J4-Pad3)*%
X89814400Y-35534600D03*
%TO.P,J4,2*%
%TO.N,VCC*%
X89814400Y-32994600D03*
D21*
%TO.P,J4,1*%
%TO.N,GND*%
X89814400Y-30454600D03*
%TD*%
D20*
%TO.P,J3,3*%
%TO.N,VCC*%
X94792800Y-33756600D03*
%TO.P,J3,2*%
%TO.N,Net-(J3-Pad2)*%
X97332800Y-33756600D03*
D21*
%TO.P,J3,1*%
%TO.N,GND*%
X99872800Y-33756600D03*
%TD*%
D24*
%TO.P,J2,1*%
%TO.N,+12V*%
X65709800Y-101066600D03*
%TO.P,J2,2*%
%TO.N,GND*%
%TA.AperFunction,ComponentPad*%
G36*
G01*
X66709800Y-108566600D02*
X64709800Y-108566600D01*
G75*
G02*
X63959800Y-107816600I0J750000D01*
G01*
X63959800Y-106316600D01*
G75*
G02*
X64709800Y-105566600I750000J0D01*
G01*
X66709800Y-105566600D01*
G75*
G02*
X67459800Y-106316600I0J-750000D01*
G01*
X67459800Y-107816600D01*
G75*
G02*
X66709800Y-108566600I-750000J0D01*
G01*
G37*
%TD.AperFunction*%
%TO.P,J2,3*%
%TO.N,N/C*%
%TA.AperFunction,ComponentPad*%
G36*
G01*
X71284800Y-105816600D02*
X69534800Y-105816600D01*
G75*
G02*
X68659800Y-104941600I0J875000D01*
G01*
X68659800Y-103191600D01*
G75*
G02*
X69534800Y-102316600I875000J0D01*
G01*
X71284800Y-102316600D01*
G75*
G02*
X72159800Y-103191600I0J-875000D01*
G01*
X72159800Y-104941600D01*
G75*
G02*
X71284800Y-105816600I-875000J0D01*
G01*
G37*
%TD.AperFunction*%
%TD*%
D25*
%TO.P,D9,2*%
%TO.N,Net-(D9-Pad2)*%
X127355600Y-63931800D03*
D26*
%TO.P,D9,1*%
%TO.N,Net-(D6-Pad2)*%
X127355600Y-66471800D03*
%TD*%
D25*
%TO.P,D8,2*%
%TO.N,Net-(D8-Pad2)*%
X125222000Y-41605200D03*
D26*
%TO.P,D8,1*%
%TO.N,Net-(D5-Pad2)*%
X125222000Y-44145200D03*
%TD*%
D25*
%TO.P,D7,2*%
%TO.N,Net-(D7-Pad2)*%
X128193800Y-85775800D03*
D26*
%TO.P,D7,1*%
%TO.N,Net-(D4-Pad2)*%
X128193800Y-88315800D03*
%TD*%
D25*
%TO.P,D3,2*%
%TO.N,Net-(D3-Pad2)*%
X122301000Y-106349800D03*
D26*
%TO.P,D3,1*%
%TO.N,Net-(D2-Pad2)*%
X122301000Y-108889800D03*
%TD*%
D25*
%TO.P,D1,2*%
%TO.N,Net-(D1-Pad2)*%
X69697600Y-68935600D03*
D26*
%TO.P,D1,1*%
%TO.N,GND*%
X72237600Y-68935600D03*
%TD*%
D13*
%TO.P,C2,2*%
%TO.N,GND*%
X68427600Y-95489400D03*
D27*
%TO.P,C2,1*%
%TO.N,VCC*%
X68427600Y-92989400D03*
%TD*%
D13*
%TO.P,C1,2*%
%TO.N,GND*%
X60325000Y-95591000D03*
D27*
%TO.P,C1,1*%
%TO.N,+12V*%
X60325000Y-93091000D03*
%TD*%
D10*
%TO.P,K4,5*%
%TO.N,VCC*%
X136137400Y-54375800D03*
%TO.P,K4,4*%
%TO.N,Net-(J8-Pad3)*%
X148337400Y-54375800D03*
%TO.P,K4,3*%
%TO.N,Net-(J8-Pad1)*%
X148337400Y-66375800D03*
%TO.P,K4,2*%
%TO.N,Net-(D6-Pad2)*%
X136137400Y-66375800D03*
D11*
%TO.P,K4,1*%
%TO.N,Net-(J8-Pad2)*%
X134137400Y-60375800D03*
%TD*%
D10*
%TO.P,K3,5*%
%TO.N,VCC*%
X135451600Y-32100000D03*
%TO.P,K3,4*%
%TO.N,Net-(J7-Pad3)*%
X147651600Y-32100000D03*
%TO.P,K3,3*%
%TO.N,Net-(J7-Pad1)*%
X147651600Y-44100000D03*
%TO.P,K3,2*%
%TO.N,Net-(D5-Pad2)*%
X135451600Y-44100000D03*
D11*
%TO.P,K3,1*%
%TO.N,+12V*%
X133451600Y-38100000D03*
%TD*%
D10*
%TO.P,K2,5*%
%TO.N,VCC*%
X137001000Y-75762600D03*
%TO.P,K2,4*%
%TO.N,Net-(J6-Pad3)*%
X149201000Y-75762600D03*
%TO.P,K2,3*%
%TO.N,Net-(J6-Pad1)*%
X149201000Y-87762600D03*
%TO.P,K2,2*%
%TO.N,Net-(D4-Pad2)*%
X137001000Y-87762600D03*
D11*
%TO.P,K2,1*%
%TO.N,Net-(J6-Pad2)*%
X135001000Y-81762600D03*
%TD*%
D20*
%TO.P,J1,4*%
%TO.N,GND*%
X68910200Y-56769000D03*
%TO.P,J1,3*%
%TO.N,VCC*%
X68910200Y-54229000D03*
%TO.P,J1,2*%
%TO.N,m_analog*%
X68910200Y-51689000D03*
D21*
%TO.P,J1,1*%
%TO.N,M_data*%
X68910200Y-49149000D03*
%TD*%
D28*
%TO.P,D6,1*%
%TO.N,VCC*%
X121640600Y-52971700D03*
D29*
%TO.P,D6,2*%
%TO.N,Net-(D6-Pad2)*%
X121640600Y-63131700D03*
%TD*%
%TO.P,D5,2*%
%TO.N,Net-(D5-Pad2)*%
X118491000Y-42113200D03*
D28*
%TO.P,D5,1*%
%TO.N,VCC*%
X118491000Y-31953200D03*
%TD*%
D29*
%TO.P,D4,2*%
%TO.N,Net-(D4-Pad2)*%
X122732800Y-84505800D03*
D28*
%TO.P,D4,1*%
%TO.N,VCC*%
X122732800Y-74345800D03*
%TD*%
D29*
%TO.P,D2,2*%
%TO.N,Net-(D2-Pad2)*%
X114376200Y-106121200D03*
D28*
%TO.P,D2,1*%
%TO.N,VCC*%
X114376200Y-95961200D03*
%TD*%
D30*
%TO.N,Net-(D2-Pad2)*%
X114173000Y-106324400D02*
X114376200Y-106121200D01*
X114173000Y-109702600D02*
X114173000Y-106324400D01*
X117017800Y-106121200D02*
X114376200Y-106121200D01*
X119786400Y-108889800D02*
X117017800Y-106121200D01*
X122301000Y-108889800D02*
X119786400Y-108889800D01*
X133806200Y-108889800D02*
X133876800Y-108819200D01*
X122301000Y-108889800D02*
X133806200Y-108889800D01*
%TO.N,VCC*%
X133876800Y-96819200D02*
X132460000Y-95402400D01*
X122504200Y-95402400D02*
X122351800Y-95554800D01*
X132460000Y-95402400D02*
X122504200Y-95402400D01*
X114782600Y-95554800D02*
X114376200Y-95961200D01*
X122351800Y-95554800D02*
X114782600Y-95554800D01*
X127406400Y-52832000D02*
X127304800Y-52730400D01*
X133070600Y-54356000D02*
X131546600Y-52832000D01*
X136117600Y-54356000D02*
X133070600Y-54356000D01*
X131546600Y-52832000D02*
X127406400Y-52832000D01*
X136137400Y-54375800D02*
X136117600Y-54356000D01*
X136137400Y-54375800D02*
X133457200Y-54375800D01*
X133457200Y-54375800D02*
X130810000Y-57023000D01*
X130810000Y-57023000D02*
X130810000Y-62890400D01*
X130810000Y-62890400D02*
X131724400Y-63804800D01*
X136822402Y-63804800D02*
X136847802Y-63779400D01*
X131724400Y-63804800D02*
X136822402Y-63804800D01*
X136847802Y-63779400D02*
X137591800Y-63779400D01*
X137591800Y-63779400D02*
X139369800Y-65557400D01*
X139369800Y-73393800D02*
X137001000Y-75762600D01*
X139369800Y-65557400D02*
X139369800Y-73393800D01*
X122758200Y-74320400D02*
X122732800Y-74345800D01*
X128270000Y-74320400D02*
X122758200Y-74320400D01*
X140335000Y-86233000D02*
X140335000Y-93853000D01*
X132842000Y-85013800D02*
X139115800Y-85013800D01*
X137368800Y-96819200D02*
X133876800Y-96819200D01*
X131597400Y-83769200D02*
X132842000Y-85013800D01*
X140335000Y-93853000D02*
X137368800Y-96819200D01*
X131597400Y-77673200D02*
X131597400Y-83769200D01*
X139115800Y-85013800D02*
X140335000Y-86233000D01*
X133508000Y-75762600D02*
X131597400Y-77673200D01*
X137001000Y-75762600D02*
X133508000Y-75762600D01*
X128917700Y-74968100D02*
X128270000Y-74320400D01*
X129712200Y-75762600D02*
X128917700Y-74968100D01*
X137001000Y-75762600D02*
X129712200Y-75762600D01*
X123799600Y-29184600D02*
X125196600Y-30581600D01*
X119735600Y-29184600D02*
X123799600Y-29184600D01*
X118491000Y-30429200D02*
X119735600Y-29184600D01*
X118491000Y-31953200D02*
X118491000Y-30429200D01*
X135406400Y-32054800D02*
X135451600Y-32100000D01*
X132207000Y-32054800D02*
X135406400Y-32054800D01*
X130733800Y-30581600D02*
X132207000Y-32054800D01*
X125196600Y-30581600D02*
X130733800Y-30581600D01*
X138105400Y-54375800D02*
X136137400Y-54375800D01*
X139725400Y-52755800D02*
X138105400Y-54375800D01*
X139725400Y-42595800D02*
X139725400Y-52755800D01*
X138582400Y-41452800D02*
X139725400Y-42595800D01*
X131546600Y-41452800D02*
X138582400Y-41452800D01*
X130302000Y-40208200D02*
X131546600Y-41452800D01*
X130302000Y-33807400D02*
X130302000Y-40208200D01*
X132009400Y-32100000D02*
X130302000Y-33807400D01*
X135451600Y-32100000D02*
X132009400Y-32100000D01*
X68427600Y-92989400D02*
X69570600Y-92989400D01*
X70408800Y-92151200D02*
X70408800Y-87223600D01*
X69570600Y-92989400D02*
X70408800Y-92151200D01*
X76276200Y-87223600D02*
X76403200Y-87096600D01*
X70408800Y-87223600D02*
X76276200Y-87223600D01*
X70408800Y-82194400D02*
X69646800Y-81432400D01*
X70408800Y-87223600D02*
X70408800Y-82194400D01*
X65760600Y-81432400D02*
X65608200Y-81584800D01*
X69646800Y-81432400D02*
X65760600Y-81432400D01*
X65608200Y-76504800D02*
X65608200Y-79044800D01*
X65608200Y-79044800D02*
X65608200Y-81584800D01*
X87325200Y-32994600D02*
X89814400Y-32994600D01*
X87147400Y-32994600D02*
X87325200Y-32994600D01*
X93218000Y-30149800D02*
X93192600Y-30124400D01*
X93218000Y-31673800D02*
X93218000Y-30149800D01*
X94792800Y-33248600D02*
X93218000Y-31673800D01*
X94792800Y-33756600D02*
X94792800Y-33248600D01*
X89814400Y-32994600D02*
X91897200Y-32994600D01*
X91897200Y-32994600D02*
X93218000Y-31673800D01*
X104673400Y-29464000D02*
X117297200Y-29464000D01*
X117297200Y-29464000D02*
X118491000Y-30657800D01*
X118491000Y-30657800D02*
X118491000Y-31953200D01*
X86080600Y-37998400D02*
X87497201Y-36581799D01*
X87497201Y-36581799D02*
X87497201Y-33557199D01*
X87497201Y-33557199D02*
X87325200Y-33385198D01*
X87325200Y-33385198D02*
X87325200Y-32994600D01*
X65201800Y-54229000D02*
X68910200Y-54229000D01*
X61290200Y-58140600D02*
X65201800Y-54229000D01*
X61290200Y-73660000D02*
X61290200Y-58140600D01*
X64135000Y-76504800D02*
X61290200Y-73660000D01*
X65608200Y-76504800D02*
X64135000Y-76504800D01*
X104673400Y-26898600D02*
X104673400Y-29464000D01*
X103149400Y-25374600D02*
X104673400Y-26898600D01*
X78613000Y-25374600D02*
X103149400Y-25374600D01*
X76034900Y-27838400D02*
X76149200Y-27838400D01*
X76149200Y-27838400D02*
X78613000Y-25374600D01*
X65481200Y-38392100D02*
X76034900Y-27838400D01*
X65481200Y-53949600D02*
X65481200Y-38392100D01*
X65201800Y-54229000D02*
X65481200Y-53949600D01*
X75044300Y-32283400D02*
X73317100Y-30556200D01*
X86614000Y-32283400D02*
X75044300Y-32283400D01*
X87325200Y-32994600D02*
X86614000Y-32283400D01*
X121881900Y-52730400D02*
X127304800Y-52730400D01*
X121640600Y-52971700D02*
X121881900Y-52730400D01*
%TO.N,Net-(D4-Pad2)*%
X121869200Y-87604600D02*
X124002800Y-87604600D01*
X124714000Y-88315800D02*
X128193800Y-88315800D01*
X124002800Y-87604600D02*
X124714000Y-88315800D01*
X121869200Y-85369400D02*
X122732800Y-84505800D01*
X121869200Y-87604600D02*
X121869200Y-85369400D01*
X136447800Y-88315800D02*
X128193800Y-88315800D01*
X137001000Y-87762600D02*
X136447800Y-88315800D01*
%TO.N,Net-(D5-Pad2)*%
X118262400Y-42341800D02*
X118491000Y-42113200D01*
X118262400Y-45415200D02*
X118262400Y-42341800D01*
X118491000Y-42113200D02*
X120370600Y-43992800D01*
X125069600Y-43992800D02*
X125222000Y-44145200D01*
X120370600Y-43992800D02*
X125069600Y-43992800D01*
X135406400Y-44145200D02*
X135451600Y-44100000D01*
X125222000Y-44145200D02*
X135406400Y-44145200D01*
%TO.N,Net-(D6-Pad2)*%
X127451600Y-66375800D02*
X127355600Y-66471800D01*
X136137400Y-66375800D02*
X127451600Y-66375800D01*
X123850400Y-66471800D02*
X127355600Y-66471800D01*
X121031000Y-66471800D02*
X123850400Y-66471800D01*
X120624600Y-66065400D02*
X121031000Y-66471800D01*
X120624600Y-64147700D02*
X120624600Y-66065400D01*
X121640600Y-63131700D02*
X120624600Y-64147700D01*
%TO.N,GND*%
X90115000Y-112094400D02*
X90043000Y-112166400D01*
%TO.N,m_analog*%
X76250800Y-51689000D02*
X76403200Y-51536600D01*
X68910200Y-51689000D02*
X76250800Y-51689000D01*
%TO.N,M_data*%
X94335600Y-61696600D02*
X104343200Y-61696600D01*
X81788000Y-49149000D02*
X94335600Y-61696600D01*
X68910200Y-49149000D02*
X81788000Y-49149000D01*
D31*
%TO.N,Net-(J5-Pad3)*%
X146076800Y-96819200D02*
X147366600Y-95529400D01*
X161993600Y-95529400D02*
X162483800Y-96019600D01*
X147366600Y-95529400D02*
X161993600Y-95529400D01*
%TO.N,Net-(J5-Pad1)*%
X159684200Y-108819200D02*
X162483800Y-106019600D01*
X146076800Y-108819200D02*
X159684200Y-108819200D01*
%TO.N,Net-(J5-Pad2)*%
X162483800Y-101019600D02*
X151253200Y-101019600D01*
X149453600Y-102819200D02*
X131876800Y-102819200D01*
X151253200Y-101019600D02*
X149453600Y-102819200D01*
D30*
%TO.N,Net-(J6-Pad3)*%
X149849200Y-76410800D02*
X149201000Y-75762600D01*
X162356800Y-76410800D02*
X149849200Y-76410800D01*
%TO.N,Net-(J6-Pad1)*%
X161005000Y-87762600D02*
X162356800Y-86410800D01*
X149201000Y-87762600D02*
X161005000Y-87762600D01*
%TO.N,Net-(J6-Pad2)*%
X135352800Y-81410800D02*
X135001000Y-81762600D01*
X162356800Y-81410800D02*
X135352800Y-81410800D01*
D31*
%TO.N,Net-(J7-Pad3)*%
X161200600Y-32100000D02*
X162077400Y-32976800D01*
X147651600Y-32100000D02*
X161200600Y-32100000D01*
%TO.N,Net-(J7-Pad1)*%
X160954200Y-44100000D02*
X162077400Y-42976800D01*
X147651600Y-44100000D02*
X160954200Y-44100000D01*
%TO.N,Net-(J8-Pad3)*%
X149366600Y-55405000D02*
X148337400Y-54375800D01*
X161925000Y-55405000D02*
X149366600Y-55405000D01*
%TO.N,Net-(J8-Pad1)*%
X160954200Y-66375800D02*
X161925000Y-65405000D01*
X148337400Y-66375800D02*
X160954200Y-66375800D01*
%TO.N,Net-(J8-Pad2)*%
X134166600Y-60405000D02*
X134137400Y-60375800D01*
X161925000Y-60405000D02*
X134166600Y-60405000D01*
D30*
%TO.N,Net-(Q1-Pad2)*%
X108712000Y-111125000D02*
X108712000Y-109093000D01*
X109829600Y-112242600D02*
X108712000Y-111125000D01*
X114173000Y-112242600D02*
X109829600Y-112242600D01*
%TO.N,Net-(Q2-Pad2)*%
X118033800Y-88112600D02*
X118033800Y-83185000D01*
X120065800Y-90144600D02*
X118033800Y-88112600D01*
X121869200Y-90144600D02*
X120065800Y-90144600D01*
%TO.N,Net-(Q3-Pad2)*%
X114096800Y-47955200D02*
X112623600Y-46482000D01*
X118262400Y-47955200D02*
X114096800Y-47955200D01*
%TO.N,Net-(Q4-Pad2)*%
X116890800Y-68605400D02*
X120624600Y-68605400D01*
X115570000Y-67284600D02*
X116890800Y-68605400D01*
%TO.N,S1*%
X104343200Y-51536600D02*
X104546400Y-51333400D01*
X104546400Y-51333400D02*
X104546400Y-37084000D01*
X108130200Y-36017200D02*
X114630200Y-36017200D01*
X104673400Y-36639500D02*
X105295700Y-36017200D01*
X104673400Y-37084000D02*
X104673400Y-36639500D01*
X105295700Y-36017200D02*
X108130200Y-36017200D01*
%TO.N,Net-(J3-Pad2)*%
X97332800Y-33756600D02*
X97332800Y-50723800D01*
X100685600Y-54076600D02*
X104343200Y-54076600D01*
X97332800Y-50723800D02*
X100685600Y-54076600D01*
X98425000Y-30124400D02*
X100812600Y-30124400D01*
X97332800Y-31216600D02*
X98425000Y-30124400D01*
X97332800Y-33756600D02*
X97332800Y-31216600D01*
%TO.N,Net-(J4-Pad3)*%
X89814400Y-47396400D02*
X89814400Y-35534600D01*
X99034600Y-56616600D02*
X89814400Y-47396400D01*
X104343200Y-56616600D02*
X99034600Y-56616600D01*
%TO.N,S2*%
X79047200Y-37411800D02*
X79047200Y-34493200D01*
X78460600Y-37998400D02*
X79047200Y-37411800D01*
X85547200Y-34493200D02*
X79047200Y-34493200D01*
X78638400Y-38176200D02*
X78460600Y-37998400D01*
X78638400Y-41579800D02*
X78638400Y-38176200D01*
X96215200Y-59156600D02*
X78638400Y-41579800D01*
X104343200Y-59156600D02*
X96215200Y-59156600D01*
%TO.N,relay1*%
X104343200Y-69316600D02*
X105994200Y-69316600D01*
X105994200Y-69316600D02*
X108610400Y-66700400D01*
X108610400Y-66700400D02*
X108610400Y-40360600D01*
X108610400Y-40360600D02*
X110109000Y-38862000D01*
X110109000Y-38862000D02*
X112623600Y-38862000D01*
%TO.N,relay2*%
X108381800Y-71856600D02*
X104343200Y-71856600D01*
X111125000Y-61950600D02*
X111125000Y-69113400D01*
X111125000Y-69113400D02*
X108381800Y-71856600D01*
X113411000Y-59664600D02*
X111125000Y-61950600D01*
X115570000Y-59664600D02*
X113411000Y-59664600D01*
%TO.N,relay3*%
X116865400Y-74396600D02*
X118033800Y-75565000D01*
X104343200Y-74396600D02*
X116865400Y-74396600D01*
%TO.N,relay4*%
X106883200Y-76936600D02*
X104343200Y-76936600D01*
X108712000Y-78765400D02*
X106883200Y-76936600D01*
X108712000Y-101473000D02*
X108712000Y-78765400D01*
%TO.N,Net-(D1-Pad2)*%
X69646800Y-68986400D02*
X69697600Y-68935600D01*
X69646800Y-73812400D02*
X69646800Y-68986400D01*
%TO.N,Net-(D3-Pad2)*%
X122351800Y-106299000D02*
X122301000Y-106349800D01*
X122351800Y-103174800D02*
X122351800Y-106299000D01*
%TO.N,Net-(D7-Pad2)*%
X128193800Y-82016600D02*
X128270000Y-81940400D01*
X128193800Y-85775800D02*
X128193800Y-82016600D01*
%TO.N,Net-(D8-Pad2)*%
X125222000Y-38227000D02*
X125196600Y-38201600D01*
X125222000Y-41605200D02*
X125222000Y-38227000D01*
%TO.N,Net-(D9-Pad2)*%
X127355600Y-60401200D02*
X127304800Y-60350400D01*
X127355600Y-63931800D02*
X127355600Y-60401200D01*
D31*
%TO.N,+12V*%
X133574800Y-37976800D02*
X133451600Y-38100000D01*
D30*
X65709800Y-101066600D02*
X58191400Y-101066600D01*
X58191400Y-101066600D02*
X55676800Y-98552000D01*
X55676800Y-98552000D02*
X55676800Y-94284800D01*
X56870600Y-93091000D02*
X60325000Y-93091000D01*
X55676800Y-94284800D02*
X56870600Y-93091000D01*
X60325000Y-93091000D02*
X60325000Y-88442800D01*
X61544200Y-87223600D02*
X65328800Y-87223600D01*
X60325000Y-88442800D02*
X61544200Y-87223600D01*
X106070400Y-21653500D02*
X132016500Y-21653500D01*
X106019600Y-21704300D02*
X106070400Y-21653500D01*
X74701400Y-21704300D02*
X106019600Y-21704300D01*
X144941300Y-34578300D02*
X144941300Y-37976800D01*
X56464200Y-91211400D02*
X56464200Y-39941500D01*
X132016500Y-21653500D02*
X144941300Y-34578300D01*
X60325000Y-93091000D02*
X58343800Y-93091000D01*
X58343800Y-93091000D02*
X56464200Y-91211400D01*
D31*
X144941300Y-37976800D02*
X133574800Y-37976800D01*
D30*
X56464200Y-39941500D02*
X74701400Y-21704300D01*
D31*
X162077400Y-37976800D02*
X144941300Y-37976800D01*
%TD*%
D32*
%TO.N,GND*%
X74426737Y-20340297D02*
X74168819Y-20418536D01*
X73928212Y-20547143D01*
X73770166Y-20676848D01*
X73770164Y-20676850D01*
X73717319Y-20720219D01*
X73673950Y-20773064D01*
X55532965Y-38914050D01*
X55480120Y-38957419D01*
X55436751Y-39010264D01*
X55436748Y-39010267D01*
X55307044Y-39168312D01*
X55178436Y-39408920D01*
X55099240Y-39669993D01*
X55072500Y-39941500D01*
X55079201Y-40009539D01*
X55079200Y-91143371D01*
X55072500Y-91211400D01*
X55079200Y-91279429D01*
X55079200Y-91279436D01*
X55088909Y-91378012D01*
X55099240Y-91482907D01*
X55134729Y-91599898D01*
X55178436Y-91743980D01*
X55281344Y-91936506D01*
X55307044Y-91984588D01*
X55407439Y-92106919D01*
X55480119Y-92195480D01*
X55532965Y-92238850D01*
X55648515Y-92354400D01*
X54745564Y-93257351D01*
X54692720Y-93300719D01*
X54649351Y-93353564D01*
X54649348Y-93353567D01*
X54519644Y-93511612D01*
X54391036Y-93752220D01*
X54311840Y-94013293D01*
X54285100Y-94284800D01*
X54291801Y-94352839D01*
X54291800Y-98483971D01*
X54285100Y-98552000D01*
X54291800Y-98620029D01*
X54291800Y-98620036D01*
X54311840Y-98823506D01*
X54391036Y-99084580D01*
X54519643Y-99325187D01*
X54692719Y-99536080D01*
X54745565Y-99579450D01*
X57163950Y-101997836D01*
X57207319Y-102050681D01*
X57260164Y-102094050D01*
X57260166Y-102094052D01*
X57290473Y-102118924D01*
X57418212Y-102223757D01*
X57658819Y-102352364D01*
X57919893Y-102431560D01*
X58123363Y-102451600D01*
X58123372Y-102451600D01*
X58191399Y-102458300D01*
X58259426Y-102451600D01*
X63321728Y-102451600D01*
X63321728Y-102816600D01*
X63333988Y-102941082D01*
X63370298Y-103060780D01*
X63429263Y-103171094D01*
X63508615Y-103267785D01*
X63605306Y-103347137D01*
X63715620Y-103406102D01*
X63835318Y-103442412D01*
X63959800Y-103454672D01*
X67459800Y-103454672D01*
X67584282Y-103442412D01*
X67703980Y-103406102D01*
X67814294Y-103347137D01*
X67910985Y-103267785D01*
X67990337Y-103171094D01*
X68031294Y-103094469D01*
X68021728Y-103191600D01*
X68021728Y-104941600D01*
X68050801Y-105236786D01*
X68136904Y-105520628D01*
X68276727Y-105782218D01*
X68464897Y-106011503D01*
X68694182Y-106199673D01*
X68955772Y-106339496D01*
X69239614Y-106425599D01*
X69534800Y-106454672D01*
X71284800Y-106454672D01*
X71579986Y-106425599D01*
X71863828Y-106339496D01*
X72125418Y-106199673D01*
X72354703Y-106011503D01*
X72542873Y-105782218D01*
X72682696Y-105520628D01*
X72768799Y-105236786D01*
X72797872Y-104941600D01*
X72797872Y-103191600D01*
X72768799Y-102896414D01*
X72682696Y-102612572D01*
X72542873Y-102350982D01*
X72354703Y-102121697D01*
X72125418Y-101933527D01*
X71863828Y-101793704D01*
X71579986Y-101707601D01*
X71284800Y-101678528D01*
X69534800Y-101678528D01*
X69239614Y-101707601D01*
X68955772Y-101793704D01*
X68694182Y-101933527D01*
X68464897Y-102121697D01*
X68276727Y-102350982D01*
X68136904Y-102612572D01*
X68097872Y-102741243D01*
X68097872Y-99316600D01*
X68085612Y-99192118D01*
X68049302Y-99072420D01*
X67990337Y-98962106D01*
X67910985Y-98865415D01*
X67814294Y-98786063D01*
X67703980Y-98727098D01*
X67584282Y-98690788D01*
X67459800Y-98678528D01*
X63959800Y-98678528D01*
X63835318Y-98690788D01*
X63715620Y-98727098D01*
X63605306Y-98786063D01*
X63508615Y-98865415D01*
X63429263Y-98962106D01*
X63370298Y-99072420D01*
X63333988Y-99192118D01*
X63321728Y-99316600D01*
X63321728Y-99681600D01*
X58765086Y-99681600D01*
X57061800Y-97978315D01*
X57061800Y-96583702D01*
X59511903Y-96583702D01*
X59583486Y-96827671D01*
X59838996Y-96948571D01*
X60113184Y-97017300D01*
X60395512Y-97031217D01*
X60675130Y-96989787D01*
X60941292Y-96894603D01*
X61066514Y-96827671D01*
X61138097Y-96583702D01*
X61036497Y-96482102D01*
X67614503Y-96482102D01*
X67686086Y-96726071D01*
X67941596Y-96846971D01*
X68215784Y-96915700D01*
X68498112Y-96929617D01*
X68777730Y-96888187D01*
X69043892Y-96793003D01*
X69169114Y-96726071D01*
X69240697Y-96482102D01*
X68427600Y-95669005D01*
X67614503Y-96482102D01*
X61036497Y-96482102D01*
X60325000Y-95770605D01*
X59511903Y-96583702D01*
X57061800Y-96583702D01*
X57061800Y-95661512D01*
X58884783Y-95661512D01*
X58926213Y-95941130D01*
X59021397Y-96207292D01*
X59088329Y-96332514D01*
X59332298Y-96404097D01*
X60145395Y-95591000D01*
X60504605Y-95591000D01*
X61317702Y-96404097D01*
X61561671Y-96332514D01*
X61682571Y-96077004D01*
X61751300Y-95802816D01*
X61763273Y-95559912D01*
X66987383Y-95559912D01*
X67028813Y-95839530D01*
X67123997Y-96105692D01*
X67190929Y-96230914D01*
X67434898Y-96302497D01*
X68247995Y-95489400D01*
X68607205Y-95489400D01*
X69420302Y-96302497D01*
X69664271Y-96230914D01*
X69785171Y-95975404D01*
X69853900Y-95701216D01*
X69867817Y-95418888D01*
X69826387Y-95139270D01*
X69731203Y-94873108D01*
X69664271Y-94747886D01*
X69420302Y-94676303D01*
X68607205Y-95489400D01*
X68247995Y-95489400D01*
X67434898Y-94676303D01*
X67190929Y-94747886D01*
X67070029Y-95003396D01*
X67001300Y-95277584D01*
X66987383Y-95559912D01*
X61763273Y-95559912D01*
X61765217Y-95520488D01*
X61723787Y-95240870D01*
X61628603Y-94974708D01*
X61561671Y-94849486D01*
X61317702Y-94777903D01*
X60504605Y-95591000D01*
X60145395Y-95591000D01*
X59332298Y-94777903D01*
X59088329Y-94849486D01*
X58967429Y-95104996D01*
X58898700Y-95379184D01*
X58884783Y-95661512D01*
X57061800Y-95661512D01*
X57061800Y-94858485D01*
X57444286Y-94476000D01*
X58275771Y-94476000D01*
X58343800Y-94482700D01*
X58411829Y-94476000D01*
X59272397Y-94476000D01*
X59280820Y-94480502D01*
X59400518Y-94516812D01*
X59525000Y-94529072D01*
X59532215Y-94529072D01*
X59511903Y-94598298D01*
X60325000Y-95411395D01*
X61138097Y-94598298D01*
X61117785Y-94529072D01*
X61125000Y-94529072D01*
X61249482Y-94516812D01*
X61369180Y-94480502D01*
X61479494Y-94421537D01*
X61576185Y-94342185D01*
X61655537Y-94245494D01*
X61714502Y-94135180D01*
X61750812Y-94015482D01*
X61763072Y-93891000D01*
X61763072Y-92291000D01*
X61750812Y-92166518D01*
X61714502Y-92046820D01*
X61710000Y-92038397D01*
X61710000Y-89016485D01*
X62117886Y-88608600D01*
X63870799Y-88608600D01*
X63925115Y-88674785D01*
X64021806Y-88754137D01*
X64132120Y-88813102D01*
X64251818Y-88849412D01*
X64376300Y-88861672D01*
X66281300Y-88861672D01*
X66405782Y-88849412D01*
X66525480Y-88813102D01*
X66635794Y-88754137D01*
X66732485Y-88674785D01*
X66811837Y-88578094D01*
X66860859Y-88486381D01*
X67001877Y-88599569D01*
X67277706Y-88743171D01*
X67495820Y-88814163D01*
X67741800Y-88694194D01*
X67741800Y-87350600D01*
X67721800Y-87350600D01*
X67721800Y-87096600D01*
X67741800Y-87096600D01*
X67741800Y-85753006D01*
X67495820Y-85633037D01*
X67277706Y-85704029D01*
X67001877Y-85847631D01*
X66860859Y-85960819D01*
X66811837Y-85869106D01*
X66732485Y-85772415D01*
X66635794Y-85693063D01*
X66525480Y-85634098D01*
X66405782Y-85597788D01*
X66281300Y-85585528D01*
X64376300Y-85585528D01*
X64251818Y-85597788D01*
X64132120Y-85634098D01*
X64021806Y-85693063D01*
X63925115Y-85772415D01*
X63870799Y-85838600D01*
X61612226Y-85838600D01*
X61544199Y-85831900D01*
X61476172Y-85838600D01*
X61476163Y-85838600D01*
X61272693Y-85858640D01*
X61011619Y-85937836D01*
X60771012Y-86066443D01*
X60771010Y-86066444D01*
X60771011Y-86066444D01*
X60612966Y-86196148D01*
X60612964Y-86196150D01*
X60560119Y-86239519D01*
X60516750Y-86292364D01*
X59393764Y-87415351D01*
X59340920Y-87458719D01*
X59297551Y-87511564D01*
X59297548Y-87511567D01*
X59167844Y-87669612D01*
X59039236Y-87910220D01*
X58960040Y-88171293D01*
X58933300Y-88442800D01*
X58940001Y-88510839D01*
X58940000Y-91706000D01*
X58917486Y-91706000D01*
X57849200Y-90637715D01*
X57849200Y-40515185D01*
X75275086Y-23089300D01*
X105951571Y-23089300D01*
X106019600Y-23096000D01*
X106087629Y-23089300D01*
X106087637Y-23089300D01*
X106291107Y-23069260D01*
X106392509Y-23038500D01*
X129683284Y-23038500D01*
X129647447Y-29196600D01*
X125770286Y-29196600D01*
X124827054Y-28253369D01*
X124783681Y-28200519D01*
X124572788Y-28027443D01*
X124332181Y-27898836D01*
X124071107Y-27819640D01*
X123867637Y-27799600D01*
X123867629Y-27799600D01*
X123799600Y-27792900D01*
X123731571Y-27799600D01*
X119803626Y-27799600D01*
X119735599Y-27792900D01*
X119667572Y-27799600D01*
X119667563Y-27799600D01*
X119464093Y-27819640D01*
X119203019Y-27898836D01*
X118962412Y-28027443D01*
X118962410Y-28027444D01*
X118962411Y-28027444D01*
X118804366Y-28157148D01*
X118804364Y-28157150D01*
X118751519Y-28200519D01*
X118708150Y-28253364D01*
X118376700Y-28584815D01*
X118324654Y-28532769D01*
X118281281Y-28479919D01*
X118070388Y-28306843D01*
X117829781Y-28178236D01*
X117568707Y-28099040D01*
X117365237Y-28079000D01*
X117365229Y-28079000D01*
X117297200Y-28072300D01*
X117229171Y-28079000D01*
X106058400Y-28079000D01*
X106058400Y-26966626D01*
X106065100Y-26898599D01*
X106058400Y-26830572D01*
X106058400Y-26830563D01*
X106038360Y-26627093D01*
X105959164Y-26366019D01*
X105830557Y-26125412D01*
X105657480Y-25914519D01*
X105604635Y-25871150D01*
X104176854Y-24443369D01*
X104133481Y-24390519D01*
X103922588Y-24217443D01*
X103681981Y-24088836D01*
X103420907Y-24009640D01*
X103217437Y-23989600D01*
X103217429Y-23989600D01*
X103149400Y-23982900D01*
X103081371Y-23989600D01*
X78681026Y-23989600D01*
X78612999Y-23982900D01*
X78544972Y-23989600D01*
X78544963Y-23989600D01*
X78341493Y-24009640D01*
X78080419Y-24088836D01*
X77839812Y-24217443D01*
X77839810Y-24217444D01*
X77839811Y-24217444D01*
X77681766Y-24347148D01*
X77681764Y-24347150D01*
X77628919Y-24390519D01*
X77585550Y-24443364D01*
X75446378Y-26582537D01*
X75261712Y-26681243D01*
X75103666Y-26810948D01*
X75103664Y-26810950D01*
X75050819Y-26854319D01*
X75007450Y-26907164D01*
X72385864Y-29528751D01*
X72333019Y-29572119D01*
X72289651Y-29624964D01*
X64549964Y-37364650D01*
X64497120Y-37408019D01*
X64453751Y-37460864D01*
X64453748Y-37460867D01*
X64324044Y-37618912D01*
X64195436Y-37859520D01*
X64116240Y-38120593D01*
X64089500Y-38392100D01*
X64096201Y-38460139D01*
X64096200Y-53375914D01*
X60358964Y-57113151D01*
X60306120Y-57156519D01*
X60262751Y-57209364D01*
X60262748Y-57209367D01*
X60133044Y-57367412D01*
X60004436Y-57608020D01*
X59925240Y-57869093D01*
X59898500Y-58140600D01*
X59905201Y-58208639D01*
X59905200Y-73591971D01*
X59898500Y-73660000D01*
X59905200Y-73728029D01*
X59905200Y-73728036D01*
X59913366Y-73810944D01*
X59925240Y-73931507D01*
X59996673Y-74166988D01*
X60004436Y-74192580D01*
X60114044Y-74397641D01*
X60133044Y-74433188D01*
X60258116Y-74585588D01*
X60306119Y-74644080D01*
X60358965Y-74687450D01*
X63107550Y-77436036D01*
X63150919Y-77488881D01*
X63203764Y-77532250D01*
X63203766Y-77532252D01*
X63357325Y-77658275D01*
X63361812Y-77661957D01*
X63602419Y-77790564D01*
X63863493Y-77869760D01*
X64066963Y-77889800D01*
X64066971Y-77889800D01*
X64135000Y-77896500D01*
X64203029Y-77889800D01*
X64223201Y-77889800D01*
X64223201Y-78507993D01*
X64180268Y-78611642D01*
X64123200Y-78898540D01*
X64123200Y-79191060D01*
X64180268Y-79477958D01*
X64223200Y-79581606D01*
X64223201Y-80388655D01*
X64168698Y-80490620D01*
X64132388Y-80610318D01*
X64120128Y-80734800D01*
X64120128Y-82434800D01*
X64132388Y-82559282D01*
X64168698Y-82678980D01*
X64227663Y-82789294D01*
X64307015Y-82885985D01*
X64403706Y-82965337D01*
X64514020Y-83024302D01*
X64633718Y-83060612D01*
X64758200Y-83072872D01*
X66458200Y-83072872D01*
X66582682Y-83060612D01*
X66702380Y-83024302D01*
X66812694Y-82965337D01*
X66909385Y-82885985D01*
X66965671Y-82817400D01*
X69023801Y-82817400D01*
X69023800Y-86096590D01*
X68978237Y-86042285D01*
X68735723Y-85847631D01*
X68459894Y-85704029D01*
X68241780Y-85633037D01*
X67995800Y-85753006D01*
X67995800Y-87096600D01*
X68015800Y-87096600D01*
X68015800Y-87350600D01*
X67995800Y-87350600D01*
X67995800Y-88694194D01*
X68241780Y-88814163D01*
X68459894Y-88743171D01*
X68735723Y-88599569D01*
X68978237Y-88404915D01*
X69023801Y-88350610D01*
X69023800Y-91551328D01*
X67627600Y-91551328D01*
X67503118Y-91563588D01*
X67383420Y-91599898D01*
X67273106Y-91658863D01*
X67176415Y-91738215D01*
X67097063Y-91834906D01*
X67038098Y-91945220D01*
X67001788Y-92064918D01*
X66989528Y-92189400D01*
X66989528Y-93789400D01*
X67001788Y-93913882D01*
X67038098Y-94033580D01*
X67097063Y-94143894D01*
X67176415Y-94240585D01*
X67273106Y-94319937D01*
X67383420Y-94378902D01*
X67503118Y-94415212D01*
X67627600Y-94427472D01*
X67634815Y-94427472D01*
X67614503Y-94496698D01*
X68427600Y-95309795D01*
X69240697Y-94496698D01*
X69220385Y-94427472D01*
X69227600Y-94427472D01*
X69352082Y-94415212D01*
X69471780Y-94378902D01*
X69480203Y-94374400D01*
X69502571Y-94374400D01*
X69570600Y-94381100D01*
X69638629Y-94374400D01*
X69638637Y-94374400D01*
X69842107Y-94354360D01*
X70103181Y-94275164D01*
X70343788Y-94146557D01*
X70554681Y-93973481D01*
X70598054Y-93920631D01*
X71340035Y-93178650D01*
X71392880Y-93135281D01*
X71504695Y-92999036D01*
X71565957Y-92924388D01*
X71694564Y-92683781D01*
X71773760Y-92422707D01*
X71784091Y-92317812D01*
X71793800Y-92219237D01*
X71793800Y-92219229D01*
X71800500Y-92151200D01*
X71793800Y-92083171D01*
X71793800Y-88608600D01*
X76208171Y-88608600D01*
X76276200Y-88615300D01*
X76344229Y-88608600D01*
X76344237Y-88608600D01*
X76547707Y-88588560D01*
X76808781Y-88509364D01*
X77049388Y-88380757D01*
X77260281Y-88207681D01*
X77266837Y-88199693D01*
X77293735Y-88181720D01*
X77488320Y-87987135D01*
X77641205Y-87758327D01*
X77746514Y-87504090D01*
X77800200Y-87234192D01*
X77800200Y-86959008D01*
X102946200Y-86959008D01*
X102946200Y-87234192D01*
X102999886Y-87504090D01*
X103105195Y-87758327D01*
X103258080Y-87987135D01*
X103452665Y-88181720D01*
X103681473Y-88334605D01*
X103935710Y-88439914D01*
X104205608Y-88493600D01*
X104480792Y-88493600D01*
X104750690Y-88439914D01*
X105004927Y-88334605D01*
X105233735Y-88181720D01*
X105428320Y-87987135D01*
X105581205Y-87758327D01*
X105686514Y-87504090D01*
X105740200Y-87234192D01*
X105740200Y-86959008D01*
X105686514Y-86689110D01*
X105581205Y-86434873D01*
X105428320Y-86206065D01*
X105233735Y-86011480D01*
X105004927Y-85858595D01*
X104933257Y-85828908D01*
X104946223Y-85824236D01*
X105062180Y-85762256D01*
X105129160Y-85522165D01*
X104343200Y-84736205D01*
X103557240Y-85522165D01*
X103624220Y-85762256D01*
X103759960Y-85826085D01*
X103681473Y-85858595D01*
X103452665Y-86011480D01*
X103258080Y-86206065D01*
X103105195Y-86434873D01*
X102999886Y-86689110D01*
X102946200Y-86959008D01*
X77800200Y-86959008D01*
X77746514Y-86689110D01*
X77641205Y-86434873D01*
X77488320Y-86206065D01*
X77293735Y-86011480D01*
X77064927Y-85858595D01*
X76993257Y-85828908D01*
X77006223Y-85824236D01*
X77122180Y-85762256D01*
X77189160Y-85522165D01*
X76403200Y-84736205D01*
X75617240Y-85522165D01*
X75684220Y-85762256D01*
X75819960Y-85826085D01*
X75789745Y-85838600D01*
X71793800Y-85838600D01*
X71793800Y-84628617D01*
X75001290Y-84628617D01*
X75042278Y-84900733D01*
X75135564Y-85159623D01*
X75197544Y-85275580D01*
X75437635Y-85342560D01*
X76223595Y-84556600D01*
X76582805Y-84556600D01*
X77368765Y-85342560D01*
X77608856Y-85275580D01*
X77725956Y-85026552D01*
X77792223Y-84759465D01*
X77798357Y-84628617D01*
X102941290Y-84628617D01*
X102982278Y-84900733D01*
X103075564Y-85159623D01*
X103137544Y-85275580D01*
X103377635Y-85342560D01*
X104163595Y-84556600D01*
X104522805Y-84556600D01*
X105308765Y-85342560D01*
X105548856Y-85275580D01*
X105665956Y-85026552D01*
X105732223Y-84759465D01*
X105745110Y-84484583D01*
X105704122Y-84212467D01*
X105610836Y-83953577D01*
X105548856Y-83837620D01*
X105308765Y-83770640D01*
X104522805Y-84556600D01*
X104163595Y-84556600D01*
X103377635Y-83770640D01*
X103137544Y-83837620D01*
X103020444Y-84086648D01*
X102954177Y-84353735D01*
X102941290Y-84628617D01*
X77798357Y-84628617D01*
X77805110Y-84484583D01*
X77764122Y-84212467D01*
X77670836Y-83953577D01*
X77608856Y-83837620D01*
X77368765Y-83770640D01*
X76582805Y-84556600D01*
X76223595Y-84556600D01*
X75437635Y-83770640D01*
X75197544Y-83837620D01*
X75080444Y-84086648D01*
X75014177Y-84353735D01*
X75001290Y-84628617D01*
X71793800Y-84628617D01*
X71793800Y-82262429D01*
X71800500Y-82194400D01*
X71793800Y-82126371D01*
X71793800Y-82126363D01*
X71773760Y-81922893D01*
X71694564Y-81661819D01*
X71565957Y-81421212D01*
X71392881Y-81210319D01*
X71340031Y-81166946D01*
X70903825Y-80730740D01*
X70761437Y-80517641D01*
X70561559Y-80317763D01*
X70326527Y-80160720D01*
X70065374Y-80052547D01*
X69788135Y-79997400D01*
X69505465Y-79997400D01*
X69254101Y-80047400D01*
X66993200Y-80047400D01*
X66993200Y-79581605D01*
X67036132Y-79477958D01*
X67093200Y-79191060D01*
X67093200Y-78898540D01*
X67036132Y-78611642D01*
X66993200Y-78507995D01*
X66993200Y-77041605D01*
X67036132Y-76937958D01*
X67063771Y-76799008D01*
X75006200Y-76799008D01*
X75006200Y-77074192D01*
X75059886Y-77344090D01*
X75165195Y-77598327D01*
X75318080Y-77827135D01*
X75512665Y-78021720D01*
X75741473Y-78174605D01*
X75818715Y-78206600D01*
X75741473Y-78238595D01*
X75512665Y-78391480D01*
X75318080Y-78586065D01*
X75165195Y-78814873D01*
X75059886Y-79069110D01*
X75006200Y-79339008D01*
X75006200Y-79614192D01*
X75059886Y-79884090D01*
X75165195Y-80138327D01*
X75318080Y-80367135D01*
X75512665Y-80561720D01*
X75741473Y-80714605D01*
X75818715Y-80746600D01*
X75741473Y-80778595D01*
X75512665Y-80931480D01*
X75318080Y-81126065D01*
X75165195Y-81354873D01*
X75059886Y-81609110D01*
X75006200Y-81879008D01*
X75006200Y-82154192D01*
X75059886Y-82424090D01*
X75165195Y-82678327D01*
X75318080Y-82907135D01*
X75512665Y-83101720D01*
X75741473Y-83254605D01*
X75813143Y-83284292D01*
X75800177Y-83288964D01*
X75684220Y-83350944D01*
X75617240Y-83591035D01*
X76403200Y-84376995D01*
X77189160Y-83591035D01*
X77122180Y-83350944D01*
X76986440Y-83287115D01*
X77064927Y-83254605D01*
X77293735Y-83101720D01*
X77488320Y-82907135D01*
X77641205Y-82678327D01*
X77746514Y-82424090D01*
X77800200Y-82154192D01*
X77800200Y-81879008D01*
X77746514Y-81609110D01*
X77641205Y-81354873D01*
X77488320Y-81126065D01*
X77293735Y-80931480D01*
X77064927Y-80778595D01*
X76987685Y-80746600D01*
X77064927Y-80714605D01*
X77293735Y-80561720D01*
X77488320Y-80367135D01*
X77641205Y-80138327D01*
X77746514Y-79884090D01*
X77800200Y-79614192D01*
X77800200Y-79339008D01*
X77746514Y-79069110D01*
X77641205Y-78814873D01*
X77488320Y-78586065D01*
X77293735Y-78391480D01*
X77064927Y-78238595D01*
X76987685Y-78206600D01*
X77064927Y-78174605D01*
X77293735Y-78021720D01*
X77488320Y-77827135D01*
X77641205Y-77598327D01*
X77746514Y-77344090D01*
X77800200Y-77074192D01*
X77800200Y-76799008D01*
X77746514Y-76529110D01*
X77641205Y-76274873D01*
X77488320Y-76046065D01*
X77293735Y-75851480D01*
X77064927Y-75698595D01*
X76993257Y-75668908D01*
X77006223Y-75664236D01*
X77122180Y-75602256D01*
X77189160Y-75362165D01*
X76403200Y-74576205D01*
X75617240Y-75362165D01*
X75684220Y-75602256D01*
X75819960Y-75666085D01*
X75741473Y-75698595D01*
X75512665Y-75851480D01*
X75318080Y-76046065D01*
X75165195Y-76274873D01*
X75059886Y-76529110D01*
X75006200Y-76799008D01*
X67063771Y-76799008D01*
X67093200Y-76651060D01*
X67093200Y-76358540D01*
X67036132Y-76071642D01*
X66924190Y-75801389D01*
X66761675Y-75558168D01*
X66554832Y-75351325D01*
X66311611Y-75188810D01*
X66041358Y-75076868D01*
X65754460Y-75019800D01*
X65461940Y-75019800D01*
X65175042Y-75076868D01*
X65071395Y-75119800D01*
X64708686Y-75119800D01*
X62930486Y-73341600D01*
X64120128Y-73341600D01*
X64132388Y-73466082D01*
X64168698Y-73585780D01*
X64227663Y-73696094D01*
X64307015Y-73792785D01*
X64403706Y-73872137D01*
X64514020Y-73931102D01*
X64633718Y-73967412D01*
X64758200Y-73979672D01*
X65322450Y-73976600D01*
X65481200Y-73817850D01*
X65481200Y-72618600D01*
X65735200Y-72618600D01*
X65735200Y-73817850D01*
X65893950Y-73976600D01*
X66458200Y-73979672D01*
X66582682Y-73967412D01*
X66702380Y-73931102D01*
X66812694Y-73872137D01*
X66909385Y-73792785D01*
X66988737Y-73696094D01*
X67047702Y-73585780D01*
X67084012Y-73466082D01*
X67096272Y-73341600D01*
X67093200Y-72777350D01*
X66934450Y-72618600D01*
X65735200Y-72618600D01*
X65481200Y-72618600D01*
X64281950Y-72618600D01*
X64123200Y-72777350D01*
X64120128Y-73341600D01*
X62930486Y-73341600D01*
X62675200Y-73086315D01*
X62675200Y-71641600D01*
X64120128Y-71641600D01*
X64123200Y-72205850D01*
X64281950Y-72364600D01*
X65481200Y-72364600D01*
X65481200Y-70078600D01*
X65735200Y-70078600D01*
X65735200Y-72364600D01*
X66934450Y-72364600D01*
X67093200Y-72205850D01*
X67096272Y-71641600D01*
X67084012Y-71517118D01*
X67047702Y-71397420D01*
X66988737Y-71287106D01*
X66909385Y-71190415D01*
X66812694Y-71111063D01*
X66702380Y-71052098D01*
X66621734Y-71027634D01*
X66705788Y-70951869D01*
X66879841Y-70718520D01*
X67005025Y-70455699D01*
X67049676Y-70308490D01*
X66928355Y-70078600D01*
X65735200Y-70078600D01*
X65481200Y-70078600D01*
X64288045Y-70078600D01*
X64166724Y-70308490D01*
X64211375Y-70455699D01*
X64336559Y-70718520D01*
X64510612Y-70951869D01*
X64594666Y-71027634D01*
X64514020Y-71052098D01*
X64403706Y-71111063D01*
X64307015Y-71190415D01*
X64227663Y-71287106D01*
X64168698Y-71397420D01*
X64132388Y-71517118D01*
X64120128Y-71641600D01*
X62675200Y-71641600D01*
X62675200Y-67768490D01*
X64166724Y-67768490D01*
X64211375Y-67915699D01*
X64336559Y-68178520D01*
X64510612Y-68411869D01*
X64726845Y-68606778D01*
X64852455Y-68681600D01*
X64726845Y-68756422D01*
X64510612Y-68951331D01*
X64336559Y-69184680D01*
X64211375Y-69447501D01*
X64166724Y-69594710D01*
X64288045Y-69824600D01*
X65481200Y-69824600D01*
X65481200Y-67538600D01*
X65735200Y-67538600D01*
X65735200Y-69824600D01*
X66928355Y-69824600D01*
X67049676Y-69594710D01*
X67005025Y-69447501D01*
X66879841Y-69184680D01*
X66705788Y-68951331D01*
X66520612Y-68784416D01*
X68162600Y-68784416D01*
X68162600Y-69086784D01*
X68221589Y-69383343D01*
X68261801Y-69480423D01*
X68261800Y-73419701D01*
X68211800Y-73671065D01*
X68211800Y-73953735D01*
X68266947Y-74230974D01*
X68375120Y-74492127D01*
X68532163Y-74727159D01*
X68732041Y-74927037D01*
X68967073Y-75084080D01*
X69228226Y-75192253D01*
X69505465Y-75247400D01*
X69788135Y-75247400D01*
X70065374Y-75192253D01*
X70326527Y-75084080D01*
X70561559Y-74927037D01*
X70761437Y-74727159D01*
X70918480Y-74492127D01*
X70928218Y-74468617D01*
X75001290Y-74468617D01*
X75042278Y-74740733D01*
X75135564Y-74999623D01*
X75197544Y-75115580D01*
X75437635Y-75182560D01*
X76223595Y-74396600D01*
X76582805Y-74396600D01*
X77368765Y-75182560D01*
X77608856Y-75115580D01*
X77725956Y-74866552D01*
X77792223Y-74599465D01*
X77805110Y-74324583D01*
X77764122Y-74052467D01*
X77670836Y-73793577D01*
X77608856Y-73677620D01*
X77368765Y-73610640D01*
X76582805Y-74396600D01*
X76223595Y-74396600D01*
X75437635Y-73610640D01*
X75197544Y-73677620D01*
X75080444Y-73926648D01*
X75014177Y-74193735D01*
X75001290Y-74468617D01*
X70928218Y-74468617D01*
X71026653Y-74230974D01*
X71081800Y-73953735D01*
X71081800Y-73671065D01*
X71031800Y-73419701D01*
X71031800Y-70392165D01*
X71093420Y-70425102D01*
X71213118Y-70461412D01*
X71337600Y-70473672D01*
X71951850Y-70470600D01*
X72110600Y-70311850D01*
X72110600Y-69062600D01*
X72364600Y-69062600D01*
X72364600Y-70311850D01*
X72523350Y-70470600D01*
X73137600Y-70473672D01*
X73262082Y-70461412D01*
X73381780Y-70425102D01*
X73492094Y-70366137D01*
X73588785Y-70286785D01*
X73668137Y-70190094D01*
X73727102Y-70079780D01*
X73763412Y-69960082D01*
X73775672Y-69835600D01*
X73772600Y-69221350D01*
X73613850Y-69062600D01*
X72364600Y-69062600D01*
X72110600Y-69062600D01*
X72090600Y-69062600D01*
X72090600Y-68808600D01*
X72110600Y-68808600D01*
X72110600Y-67559350D01*
X72364600Y-67559350D01*
X72364600Y-68808600D01*
X73613850Y-68808600D01*
X73772600Y-68649850D01*
X73775672Y-68035600D01*
X73763412Y-67911118D01*
X73727102Y-67791420D01*
X73668137Y-67681106D01*
X73588785Y-67584415D01*
X73492094Y-67505063D01*
X73381780Y-67446098D01*
X73262082Y-67409788D01*
X73137600Y-67397528D01*
X72523350Y-67400600D01*
X72364600Y-67559350D01*
X72110600Y-67559350D01*
X71951850Y-67400600D01*
X71337600Y-67397528D01*
X71213118Y-67409788D01*
X71093420Y-67446098D01*
X70983106Y-67505063D01*
X70886415Y-67584415D01*
X70807063Y-67681106D01*
X70748098Y-67791420D01*
X70742544Y-67809727D01*
X70676105Y-67743288D01*
X70424695Y-67575301D01*
X70145343Y-67459589D01*
X69848784Y-67400600D01*
X69546416Y-67400600D01*
X69249857Y-67459589D01*
X68970505Y-67575301D01*
X68719095Y-67743288D01*
X68505288Y-67957095D01*
X68337301Y-68208505D01*
X68221589Y-68487857D01*
X68162600Y-68784416D01*
X66520612Y-68784416D01*
X66489555Y-68756422D01*
X66363945Y-68681600D01*
X66489555Y-68606778D01*
X66705788Y-68411869D01*
X66879841Y-68178520D01*
X67005025Y-67915699D01*
X67049676Y-67768490D01*
X66928355Y-67538600D01*
X65735200Y-67538600D01*
X65481200Y-67538600D01*
X64288045Y-67538600D01*
X64166724Y-67768490D01*
X62675200Y-67768490D01*
X62675200Y-67054710D01*
X64166724Y-67054710D01*
X64288045Y-67284600D01*
X65481200Y-67284600D01*
X65481200Y-66090786D01*
X65735200Y-66090786D01*
X65735200Y-67284600D01*
X66928355Y-67284600D01*
X67049676Y-67054710D01*
X67005025Y-66907501D01*
X66879841Y-66644680D01*
X66705788Y-66411331D01*
X66489555Y-66216422D01*
X66239452Y-66067443D01*
X65965091Y-65970119D01*
X65735200Y-66090786D01*
X65481200Y-66090786D01*
X65251309Y-65970119D01*
X64976948Y-66067443D01*
X64726845Y-66216422D01*
X64510612Y-66411331D01*
X64336559Y-66644680D01*
X64211375Y-66907501D01*
X64166724Y-67054710D01*
X62675200Y-67054710D01*
X62675200Y-58714285D01*
X64263595Y-57125890D01*
X67468724Y-57125890D01*
X67513375Y-57273099D01*
X67638559Y-57535920D01*
X67812612Y-57769269D01*
X68028845Y-57964178D01*
X68278948Y-58113157D01*
X68553309Y-58210481D01*
X68783200Y-58089814D01*
X68783200Y-56896000D01*
X69037200Y-56896000D01*
X69037200Y-58089814D01*
X69267091Y-58210481D01*
X69541452Y-58113157D01*
X69791555Y-57964178D01*
X70007788Y-57769269D01*
X70181841Y-57535920D01*
X70307025Y-57273099D01*
X70351676Y-57125890D01*
X70230355Y-56896000D01*
X69037200Y-56896000D01*
X68783200Y-56896000D01*
X67590045Y-56896000D01*
X67468724Y-57125890D01*
X64263595Y-57125890D01*
X65775486Y-55614000D01*
X67984271Y-55614000D01*
X67812612Y-55768731D01*
X67638559Y-56002080D01*
X67513375Y-56264901D01*
X67468724Y-56412110D01*
X67590045Y-56642000D01*
X68783200Y-56642000D01*
X68783200Y-56622000D01*
X69037200Y-56622000D01*
X69037200Y-56642000D01*
X70230355Y-56642000D01*
X70316371Y-56479008D01*
X75006200Y-56479008D01*
X75006200Y-56754192D01*
X75059886Y-57024090D01*
X75165195Y-57278327D01*
X75318080Y-57507135D01*
X75512665Y-57701720D01*
X75741473Y-57854605D01*
X75818715Y-57886600D01*
X75741473Y-57918595D01*
X75512665Y-58071480D01*
X75318080Y-58266065D01*
X75165195Y-58494873D01*
X75059886Y-58749110D01*
X75006200Y-59019008D01*
X75006200Y-59294192D01*
X75059886Y-59564090D01*
X75165195Y-59818327D01*
X75318080Y-60047135D01*
X75512665Y-60241720D01*
X75741473Y-60394605D01*
X75818715Y-60426600D01*
X75741473Y-60458595D01*
X75512665Y-60611480D01*
X75318080Y-60806065D01*
X75165195Y-61034873D01*
X75059886Y-61289110D01*
X75006200Y-61559008D01*
X75006200Y-61834192D01*
X75059886Y-62104090D01*
X75165195Y-62358327D01*
X75318080Y-62587135D01*
X75512665Y-62781720D01*
X75741473Y-62934605D01*
X75818715Y-62966600D01*
X75741473Y-62998595D01*
X75512665Y-63151480D01*
X75318080Y-63346065D01*
X75165195Y-63574873D01*
X75059886Y-63829110D01*
X75006200Y-64099008D01*
X75006200Y-64374192D01*
X75059886Y-64644090D01*
X75165195Y-64898327D01*
X75318080Y-65127135D01*
X75512665Y-65321720D01*
X75741473Y-65474605D01*
X75818715Y-65506600D01*
X75741473Y-65538595D01*
X75512665Y-65691480D01*
X75318080Y-65886065D01*
X75165195Y-66114873D01*
X75059886Y-66369110D01*
X75006200Y-66639008D01*
X75006200Y-66914192D01*
X75059886Y-67184090D01*
X75165195Y-67438327D01*
X75318080Y-67667135D01*
X75512665Y-67861720D01*
X75741473Y-68014605D01*
X75818715Y-68046600D01*
X75741473Y-68078595D01*
X75512665Y-68231480D01*
X75318080Y-68426065D01*
X75165195Y-68654873D01*
X75059886Y-68909110D01*
X75006200Y-69179008D01*
X75006200Y-69454192D01*
X75059886Y-69724090D01*
X75165195Y-69978327D01*
X75318080Y-70207135D01*
X75512665Y-70401720D01*
X75741473Y-70554605D01*
X75818715Y-70586600D01*
X75741473Y-70618595D01*
X75512665Y-70771480D01*
X75318080Y-70966065D01*
X75165195Y-71194873D01*
X75059886Y-71449110D01*
X75006200Y-71719008D01*
X75006200Y-71994192D01*
X75059886Y-72264090D01*
X75165195Y-72518327D01*
X75318080Y-72747135D01*
X75512665Y-72941720D01*
X75741473Y-73094605D01*
X75813143Y-73124292D01*
X75800177Y-73128964D01*
X75684220Y-73190944D01*
X75617240Y-73431035D01*
X76403200Y-74216995D01*
X77189160Y-73431035D01*
X77122180Y-73190944D01*
X76986440Y-73127115D01*
X77064927Y-73094605D01*
X77293735Y-72941720D01*
X77488320Y-72747135D01*
X77641205Y-72518327D01*
X77746514Y-72264090D01*
X77800200Y-71994192D01*
X77800200Y-71719008D01*
X77746514Y-71449110D01*
X77641205Y-71194873D01*
X77488320Y-70966065D01*
X77293735Y-70771480D01*
X77064927Y-70618595D01*
X76987685Y-70586600D01*
X77064927Y-70554605D01*
X77293735Y-70401720D01*
X77488320Y-70207135D01*
X77641205Y-69978327D01*
X77746514Y-69724090D01*
X77800200Y-69454192D01*
X77800200Y-69179008D01*
X102946200Y-69179008D01*
X102946200Y-69454192D01*
X102999886Y-69724090D01*
X103105195Y-69978327D01*
X103258080Y-70207135D01*
X103452665Y-70401720D01*
X103681473Y-70554605D01*
X103758715Y-70586600D01*
X103681473Y-70618595D01*
X103452665Y-70771480D01*
X103258080Y-70966065D01*
X103105195Y-71194873D01*
X102999886Y-71449110D01*
X102946200Y-71719008D01*
X102946200Y-71994192D01*
X102999886Y-72264090D01*
X103105195Y-72518327D01*
X103258080Y-72747135D01*
X103452665Y-72941720D01*
X103681473Y-73094605D01*
X103758715Y-73126600D01*
X103681473Y-73158595D01*
X103452665Y-73311480D01*
X103258080Y-73506065D01*
X103105195Y-73734873D01*
X102999886Y-73989110D01*
X102946200Y-74259008D01*
X102946200Y-74534192D01*
X102999886Y-74804090D01*
X103105195Y-75058327D01*
X103258080Y-75287135D01*
X103452665Y-75481720D01*
X103681473Y-75634605D01*
X103758715Y-75666600D01*
X103681473Y-75698595D01*
X103452665Y-75851480D01*
X103258080Y-76046065D01*
X103105195Y-76274873D01*
X102999886Y-76529110D01*
X102946200Y-76799008D01*
X102946200Y-77074192D01*
X102999886Y-77344090D01*
X103105195Y-77598327D01*
X103258080Y-77827135D01*
X103452665Y-78021720D01*
X103681473Y-78174605D01*
X103758715Y-78206600D01*
X103681473Y-78238595D01*
X103452665Y-78391480D01*
X103258080Y-78586065D01*
X103105195Y-78814873D01*
X102999886Y-79069110D01*
X102946200Y-79339008D01*
X102946200Y-79614192D01*
X102999886Y-79884090D01*
X103105195Y-80138327D01*
X103258080Y-80367135D01*
X103452665Y-80561720D01*
X103681473Y-80714605D01*
X103758715Y-80746600D01*
X103681473Y-80778595D01*
X103452665Y-80931480D01*
X103258080Y-81126065D01*
X103105195Y-81354873D01*
X102999886Y-81609110D01*
X102946200Y-81879008D01*
X102946200Y-82154192D01*
X102999886Y-82424090D01*
X103105195Y-82678327D01*
X103258080Y-82907135D01*
X103452665Y-83101720D01*
X103681473Y-83254605D01*
X103753143Y-83284292D01*
X103740177Y-83288964D01*
X103624220Y-83350944D01*
X103557240Y-83591035D01*
X104343200Y-84376995D01*
X105129160Y-83591035D01*
X105062180Y-83350944D01*
X104926440Y-83287115D01*
X105004927Y-83254605D01*
X105233735Y-83101720D01*
X105428320Y-82907135D01*
X105581205Y-82678327D01*
X105686514Y-82424090D01*
X105740200Y-82154192D01*
X105740200Y-81879008D01*
X105686514Y-81609110D01*
X105581205Y-81354873D01*
X105428320Y-81126065D01*
X105233735Y-80931480D01*
X105004927Y-80778595D01*
X104927685Y-80746600D01*
X105004927Y-80714605D01*
X105233735Y-80561720D01*
X105428320Y-80367135D01*
X105581205Y-80138327D01*
X105686514Y-79884090D01*
X105740200Y-79614192D01*
X105740200Y-79339008D01*
X105686514Y-79069110D01*
X105581205Y-78814873D01*
X105428320Y-78586065D01*
X105233735Y-78391480D01*
X105129152Y-78321600D01*
X106309515Y-78321600D01*
X107327001Y-79339087D01*
X107327000Y-101080301D01*
X107277000Y-101331665D01*
X107277000Y-101614335D01*
X107332147Y-101891574D01*
X107440320Y-102152727D01*
X107597363Y-102387759D01*
X107797241Y-102587637D01*
X108032273Y-102744680D01*
X108293426Y-102852853D01*
X108570665Y-102908000D01*
X108853335Y-102908000D01*
X109130574Y-102852853D01*
X109391727Y-102744680D01*
X109626759Y-102587637D01*
X109826637Y-102387759D01*
X109983680Y-102152727D01*
X110091853Y-101891574D01*
X110147000Y-101614335D01*
X110147000Y-101331665D01*
X110097000Y-101080301D01*
X110097000Y-93641593D01*
X121091812Y-93641593D01*
X121157337Y-93880460D01*
X121404316Y-93996360D01*
X121669160Y-94061850D01*
X121941692Y-94074412D01*
X122211438Y-94033565D01*
X122468032Y-93940877D01*
X122581063Y-93880460D01*
X122646588Y-93641593D01*
X121869200Y-92864205D01*
X121091812Y-93641593D01*
X110097000Y-93641593D01*
X110097000Y-92757092D01*
X120479388Y-92757092D01*
X120520235Y-93026838D01*
X120612923Y-93283432D01*
X120673340Y-93396463D01*
X120912207Y-93461988D01*
X121689595Y-92684600D01*
X122048805Y-92684600D01*
X122826193Y-93461988D01*
X123065060Y-93396463D01*
X123180960Y-93149484D01*
X123246450Y-92884640D01*
X123259012Y-92612108D01*
X123218165Y-92342362D01*
X123125477Y-92085768D01*
X123065060Y-91972737D01*
X122826193Y-91907212D01*
X122048805Y-92684600D01*
X121689595Y-92684600D01*
X120912207Y-91907212D01*
X120673340Y-91972737D01*
X120557440Y-92219716D01*
X120491950Y-92484560D01*
X120479388Y-92757092D01*
X110097000Y-92757092D01*
X110097000Y-78833429D01*
X110103700Y-78765400D01*
X110097000Y-78697371D01*
X110097000Y-78697363D01*
X110076960Y-78493893D01*
X109997764Y-78232819D01*
X109869157Y-77992212D01*
X109810453Y-77920681D01*
X109739452Y-77834166D01*
X109739450Y-77834164D01*
X109696081Y-77781319D01*
X109643236Y-77737950D01*
X107910654Y-76005369D01*
X107867281Y-75952519D01*
X107659016Y-75781600D01*
X116291715Y-75781600D01*
X116776777Y-76266663D01*
X116919163Y-76479759D01*
X117119041Y-76679637D01*
X117354073Y-76836680D01*
X117615226Y-76944853D01*
X117892465Y-77000000D01*
X118175135Y-77000000D01*
X118452374Y-76944853D01*
X118713527Y-76836680D01*
X118948559Y-76679637D01*
X119148437Y-76479759D01*
X119305480Y-76244727D01*
X119413653Y-75983574D01*
X119468800Y-75706335D01*
X119468800Y-75423665D01*
X119413653Y-75146426D01*
X119305480Y-74885273D01*
X119148437Y-74650241D01*
X118948559Y-74450363D01*
X118735463Y-74307977D01*
X117892854Y-73465369D01*
X117849481Y-73412519D01*
X117638588Y-73239443D01*
X117397981Y-73110836D01*
X117136907Y-73031640D01*
X116933437Y-73011600D01*
X116933429Y-73011600D01*
X116865400Y-73004900D01*
X116797371Y-73011600D01*
X109157616Y-73011600D01*
X109365881Y-72840681D01*
X109409254Y-72787831D01*
X110094692Y-72102393D01*
X119847212Y-72102393D01*
X119912737Y-72341260D01*
X120159716Y-72457160D01*
X120424560Y-72522650D01*
X120697092Y-72535212D01*
X120966838Y-72494365D01*
X121223432Y-72401677D01*
X121336463Y-72341260D01*
X121401988Y-72102393D01*
X120624600Y-71325005D01*
X119847212Y-72102393D01*
X110094692Y-72102393D01*
X110979193Y-71217892D01*
X119234788Y-71217892D01*
X119275635Y-71487638D01*
X119368323Y-71744232D01*
X119428740Y-71857263D01*
X119667607Y-71922788D01*
X120444995Y-71145400D01*
X120804205Y-71145400D01*
X121581593Y-71922788D01*
X121820460Y-71857263D01*
X121936360Y-71610284D01*
X122001850Y-71345440D01*
X122014412Y-71072908D01*
X121973565Y-70803162D01*
X121880877Y-70546568D01*
X121820460Y-70433537D01*
X121581593Y-70368012D01*
X120804205Y-71145400D01*
X120444995Y-71145400D01*
X119667607Y-70368012D01*
X119428740Y-70433537D01*
X119312840Y-70680516D01*
X119247350Y-70945360D01*
X119234788Y-71217892D01*
X110979193Y-71217892D01*
X112056236Y-70140850D01*
X112109081Y-70097481D01*
X112196961Y-69990400D01*
X112282157Y-69886588D01*
X112410764Y-69645981D01*
X112489960Y-69384907D01*
X112490582Y-69378587D01*
X112510000Y-69181437D01*
X112510000Y-69181429D01*
X112516700Y-69113400D01*
X112510000Y-69045371D01*
X112510000Y-62524285D01*
X113984686Y-61049600D01*
X115177301Y-61049600D01*
X115428665Y-61099600D01*
X115711335Y-61099600D01*
X115988574Y-61044453D01*
X116249727Y-60936280D01*
X116484759Y-60779237D01*
X116684637Y-60579359D01*
X116841680Y-60344327D01*
X116949853Y-60083174D01*
X117005000Y-59805935D01*
X117005000Y-59523265D01*
X116949853Y-59246026D01*
X116841680Y-58984873D01*
X116684637Y-58749841D01*
X116484759Y-58549963D01*
X116249727Y-58392920D01*
X115988574Y-58284747D01*
X115711335Y-58229600D01*
X115428665Y-58229600D01*
X115177301Y-58279600D01*
X113479026Y-58279600D01*
X113410999Y-58272900D01*
X113342972Y-58279600D01*
X113342963Y-58279600D01*
X113139493Y-58299640D01*
X112878419Y-58378836D01*
X112637812Y-58507443D01*
X112637810Y-58507444D01*
X112637811Y-58507444D01*
X112479766Y-58637148D01*
X112479764Y-58637150D01*
X112426919Y-58680519D01*
X112383550Y-58733364D01*
X110193765Y-60923150D01*
X110140919Y-60966520D01*
X110097550Y-61019365D01*
X110097548Y-61019367D01*
X110031703Y-61099600D01*
X109995400Y-61143835D01*
X109995400Y-51452193D01*
X117485012Y-51452193D01*
X117550537Y-51691060D01*
X117797516Y-51806960D01*
X118062360Y-51872450D01*
X118334892Y-51885012D01*
X118604638Y-51844165D01*
X118861232Y-51751477D01*
X118974263Y-51691060D01*
X119039788Y-51452193D01*
X118262400Y-50674805D01*
X117485012Y-51452193D01*
X109995400Y-51452193D01*
X109995400Y-50567692D01*
X116872588Y-50567692D01*
X116913435Y-50837438D01*
X117006123Y-51094032D01*
X117066540Y-51207063D01*
X117305407Y-51272588D01*
X118082795Y-50495200D01*
X118442005Y-50495200D01*
X119219393Y-51272588D01*
X119458260Y-51207063D01*
X119574160Y-50960084D01*
X119639650Y-50695240D01*
X119652212Y-50422708D01*
X119611365Y-50152962D01*
X119518677Y-49896368D01*
X119458260Y-49783337D01*
X119219393Y-49717812D01*
X118442005Y-50495200D01*
X118082795Y-50495200D01*
X117305407Y-49717812D01*
X117066540Y-49783337D01*
X116950640Y-50030316D01*
X116885150Y-50295160D01*
X116872588Y-50567692D01*
X109995400Y-50567692D01*
X109995400Y-40934285D01*
X110682686Y-40247000D01*
X112230901Y-40247000D01*
X112482265Y-40297000D01*
X112764935Y-40297000D01*
X113042174Y-40241853D01*
X113303327Y-40133680D01*
X113538359Y-39976637D01*
X113738237Y-39776759D01*
X113895280Y-39541727D01*
X114003453Y-39280574D01*
X114058600Y-39003335D01*
X114058600Y-38720665D01*
X114003453Y-38443426D01*
X113895280Y-38182273D01*
X113738237Y-37947241D01*
X113538359Y-37747363D01*
X113303327Y-37590320D01*
X113042174Y-37482147D01*
X112764935Y-37427000D01*
X112482265Y-37427000D01*
X112230901Y-37477000D01*
X110177026Y-37477000D01*
X110108999Y-37470300D01*
X110040972Y-37477000D01*
X110040963Y-37477000D01*
X109837493Y-37497040D01*
X109576419Y-37576236D01*
X109335812Y-37704843D01*
X109335810Y-37704844D01*
X109335811Y-37704844D01*
X109177766Y-37834548D01*
X109177764Y-37834550D01*
X109124919Y-37877919D01*
X109081550Y-37930764D01*
X107679164Y-39333151D01*
X107626320Y-39376519D01*
X107582951Y-39429364D01*
X107582948Y-39429367D01*
X107453244Y-39587412D01*
X107324636Y-39828020D01*
X107245440Y-40089093D01*
X107218700Y-40360600D01*
X107225401Y-40428639D01*
X107225400Y-66126714D01*
X105420515Y-67931600D01*
X105076312Y-67931600D01*
X105129160Y-67742165D01*
X104343200Y-66956205D01*
X103557240Y-67742165D01*
X103624220Y-67982256D01*
X103759960Y-68046085D01*
X103681473Y-68078595D01*
X103452665Y-68231480D01*
X103258080Y-68426065D01*
X103105195Y-68654873D01*
X102999886Y-68909110D01*
X102946200Y-69179008D01*
X77800200Y-69179008D01*
X77746514Y-68909110D01*
X77641205Y-68654873D01*
X77488320Y-68426065D01*
X77293735Y-68231480D01*
X77064927Y-68078595D01*
X76987685Y-68046600D01*
X77064927Y-68014605D01*
X77293735Y-67861720D01*
X77488320Y-67667135D01*
X77641205Y-67438327D01*
X77746514Y-67184090D01*
X77800200Y-66914192D01*
X77800200Y-66848617D01*
X102941290Y-66848617D01*
X102982278Y-67120733D01*
X103075564Y-67379623D01*
X103137544Y-67495580D01*
X103377635Y-67562560D01*
X104163595Y-66776600D01*
X104522805Y-66776600D01*
X105308765Y-67562560D01*
X105548856Y-67495580D01*
X105665956Y-67246552D01*
X105732223Y-66979465D01*
X105745110Y-66704583D01*
X105704122Y-66432467D01*
X105610836Y-66173577D01*
X105548856Y-66057620D01*
X105308765Y-65990640D01*
X104522805Y-66776600D01*
X104163595Y-66776600D01*
X103377635Y-65990640D01*
X103137544Y-66057620D01*
X103020444Y-66306648D01*
X102954177Y-66573735D01*
X102941290Y-66848617D01*
X77800200Y-66848617D01*
X77800200Y-66639008D01*
X77746514Y-66369110D01*
X77641205Y-66114873D01*
X77488320Y-65886065D01*
X77293735Y-65691480D01*
X77064927Y-65538595D01*
X76987685Y-65506600D01*
X77064927Y-65474605D01*
X77293735Y-65321720D01*
X77488320Y-65127135D01*
X77641205Y-64898327D01*
X77746514Y-64644090D01*
X77800200Y-64374192D01*
X77800200Y-64099008D01*
X77746514Y-63829110D01*
X77641205Y-63574873D01*
X77488320Y-63346065D01*
X77293735Y-63151480D01*
X77064927Y-62998595D01*
X76987685Y-62966600D01*
X77064927Y-62934605D01*
X77293735Y-62781720D01*
X77488320Y-62587135D01*
X77641205Y-62358327D01*
X77746514Y-62104090D01*
X77800200Y-61834192D01*
X77800200Y-61559008D01*
X77746514Y-61289110D01*
X77641205Y-61034873D01*
X77488320Y-60806065D01*
X77293735Y-60611480D01*
X77064927Y-60458595D01*
X76987685Y-60426600D01*
X77064927Y-60394605D01*
X77293735Y-60241720D01*
X77488320Y-60047135D01*
X77641205Y-59818327D01*
X77746514Y-59564090D01*
X77800200Y-59294192D01*
X77800200Y-59019008D01*
X77746514Y-58749110D01*
X77641205Y-58494873D01*
X77488320Y-58266065D01*
X77293735Y-58071480D01*
X77064927Y-57918595D01*
X76987685Y-57886600D01*
X77064927Y-57854605D01*
X77293735Y-57701720D01*
X77488320Y-57507135D01*
X77641205Y-57278327D01*
X77746514Y-57024090D01*
X77800200Y-56754192D01*
X77800200Y-56479008D01*
X77746514Y-56209110D01*
X77641205Y-55954873D01*
X77488320Y-55726065D01*
X77293735Y-55531480D01*
X77064927Y-55378595D01*
X76993257Y-55348908D01*
X77006223Y-55344236D01*
X77122180Y-55282256D01*
X77189160Y-55042165D01*
X76403200Y-54256205D01*
X75617240Y-55042165D01*
X75684220Y-55282256D01*
X75819960Y-55346085D01*
X75741473Y-55378595D01*
X75512665Y-55531480D01*
X75318080Y-55726065D01*
X75165195Y-55954873D01*
X75059886Y-56209110D01*
X75006200Y-56479008D01*
X70316371Y-56479008D01*
X70351676Y-56412110D01*
X70307025Y-56264901D01*
X70181841Y-56002080D01*
X70007788Y-55768731D01*
X69791555Y-55573822D01*
X69674666Y-55504195D01*
X69856832Y-55382475D01*
X70063675Y-55175632D01*
X70226190Y-54932411D01*
X70338132Y-54662158D01*
X70395200Y-54375260D01*
X70395200Y-54148617D01*
X75001290Y-54148617D01*
X75042278Y-54420733D01*
X75135564Y-54679623D01*
X75197544Y-54795580D01*
X75437635Y-54862560D01*
X76223595Y-54076600D01*
X76582805Y-54076600D01*
X77368765Y-54862560D01*
X77608856Y-54795580D01*
X77725956Y-54546552D01*
X77792223Y-54279465D01*
X77805110Y-54004583D01*
X77764122Y-53732467D01*
X77670836Y-53473577D01*
X77608856Y-53357620D01*
X77368765Y-53290640D01*
X76582805Y-54076600D01*
X76223595Y-54076600D01*
X75437635Y-53290640D01*
X75197544Y-53357620D01*
X75080444Y-53606648D01*
X75014177Y-53873735D01*
X75001290Y-54148617D01*
X70395200Y-54148617D01*
X70395200Y-54082740D01*
X70338132Y-53795842D01*
X70226190Y-53525589D01*
X70063675Y-53282368D01*
X69856832Y-53075525D01*
X69854550Y-53074000D01*
X75627572Y-53074000D01*
X75617240Y-53111035D01*
X76403200Y-53896995D01*
X77189160Y-53111035D01*
X77122180Y-52870944D01*
X77040554Y-52832561D01*
X77234881Y-52673081D01*
X77256752Y-52646431D01*
X77293735Y-52621720D01*
X77488320Y-52427135D01*
X77641205Y-52198327D01*
X77746514Y-51944090D01*
X77800200Y-51674192D01*
X77800200Y-51399008D01*
X77746514Y-51129110D01*
X77641205Y-50874873D01*
X77488320Y-50646065D01*
X77376255Y-50534000D01*
X81214315Y-50534000D01*
X93308150Y-62627836D01*
X93351519Y-62680681D01*
X93404364Y-62724050D01*
X93404366Y-62724052D01*
X93443294Y-62755999D01*
X93562412Y-62853757D01*
X93803019Y-62982364D01*
X94064093Y-63061560D01*
X94267563Y-63081600D01*
X94267572Y-63081600D01*
X94335599Y-63088300D01*
X94403626Y-63081600D01*
X103557248Y-63081600D01*
X103452665Y-63151480D01*
X103258080Y-63346065D01*
X103105195Y-63574873D01*
X102999886Y-63829110D01*
X102946200Y-64099008D01*
X102946200Y-64374192D01*
X102999886Y-64644090D01*
X103105195Y-64898327D01*
X103258080Y-65127135D01*
X103452665Y-65321720D01*
X103681473Y-65474605D01*
X103753143Y-65504292D01*
X103740177Y-65508964D01*
X103624220Y-65570944D01*
X103557240Y-65811035D01*
X104343200Y-66596995D01*
X105129160Y-65811035D01*
X105062180Y-65570944D01*
X104926440Y-65507115D01*
X105004927Y-65474605D01*
X105233735Y-65321720D01*
X105428320Y-65127135D01*
X105581205Y-64898327D01*
X105686514Y-64644090D01*
X105740200Y-64374192D01*
X105740200Y-64099008D01*
X105686514Y-63829110D01*
X105581205Y-63574873D01*
X105428320Y-63346065D01*
X105233735Y-63151480D01*
X105004927Y-62998595D01*
X104927685Y-62966600D01*
X105004927Y-62934605D01*
X105233735Y-62781720D01*
X105428320Y-62587135D01*
X105581205Y-62358327D01*
X105686514Y-62104090D01*
X105740200Y-61834192D01*
X105740200Y-61559008D01*
X105686514Y-61289110D01*
X105581205Y-61034873D01*
X105428320Y-60806065D01*
X105233735Y-60611480D01*
X105004927Y-60458595D01*
X104927685Y-60426600D01*
X105004927Y-60394605D01*
X105233735Y-60241720D01*
X105428320Y-60047135D01*
X105581205Y-59818327D01*
X105686514Y-59564090D01*
X105740200Y-59294192D01*
X105740200Y-59019008D01*
X105686514Y-58749110D01*
X105581205Y-58494873D01*
X105428320Y-58266065D01*
X105233735Y-58071480D01*
X105004927Y-57918595D01*
X104927685Y-57886600D01*
X105004927Y-57854605D01*
X105233735Y-57701720D01*
X105428320Y-57507135D01*
X105581205Y-57278327D01*
X105686514Y-57024090D01*
X105740200Y-56754192D01*
X105740200Y-56479008D01*
X105686514Y-56209110D01*
X105581205Y-55954873D01*
X105428320Y-55726065D01*
X105233735Y-55531480D01*
X105004927Y-55378595D01*
X104927685Y-55346600D01*
X105004927Y-55314605D01*
X105233735Y-55161720D01*
X105428320Y-54967135D01*
X105581205Y-54738327D01*
X105686514Y-54484090D01*
X105740200Y-54214192D01*
X105740200Y-53939008D01*
X105686514Y-53669110D01*
X105581205Y-53414873D01*
X105428320Y-53186065D01*
X105233735Y-52991480D01*
X105004927Y-52838595D01*
X104927685Y-52806600D01*
X105004927Y-52774605D01*
X105233735Y-52621720D01*
X105428320Y-52427135D01*
X105462492Y-52375993D01*
X105477635Y-52360850D01*
X105530480Y-52317481D01*
X105703557Y-52106588D01*
X105832164Y-51865981D01*
X105911360Y-51604907D01*
X105931400Y-51401437D01*
X105931400Y-51401427D01*
X105938100Y-51333401D01*
X105931400Y-51265374D01*
X105931400Y-37784201D01*
X105945080Y-37763727D01*
X106053253Y-37502574D01*
X106073219Y-37402200D01*
X107260077Y-37402200D01*
X107355737Y-37466118D01*
X107653288Y-37589368D01*
X107969167Y-37652200D01*
X108291233Y-37652200D01*
X108607112Y-37589368D01*
X108904663Y-37466118D01*
X109000323Y-37402200D01*
X113760077Y-37402200D01*
X113855737Y-37466118D01*
X114153288Y-37589368D01*
X114469167Y-37652200D01*
X114791233Y-37652200D01*
X115107112Y-37589368D01*
X115404663Y-37466118D01*
X115672452Y-37287187D01*
X115900187Y-37059452D01*
X116079118Y-36791663D01*
X116202368Y-36494112D01*
X116265200Y-36178233D01*
X116265200Y-35856167D01*
X116202368Y-35540288D01*
X116079118Y-35242737D01*
X115900187Y-34974948D01*
X115672452Y-34747213D01*
X115404663Y-34568282D01*
X115107112Y-34445032D01*
X114791233Y-34382200D01*
X114469167Y-34382200D01*
X114153288Y-34445032D01*
X113855737Y-34568282D01*
X113760077Y-34632200D01*
X109000323Y-34632200D01*
X108904663Y-34568282D01*
X108607112Y-34445032D01*
X108291233Y-34382200D01*
X107969167Y-34382200D01*
X107653288Y-34445032D01*
X107355737Y-34568282D01*
X107260077Y-34632200D01*
X105363726Y-34632200D01*
X105295699Y-34625500D01*
X105227672Y-34632200D01*
X105227663Y-34632200D01*
X105024193Y-34652240D01*
X104763119Y-34731436D01*
X104522512Y-34860043D01*
X104311619Y-35033119D01*
X104268246Y-35085969D01*
X103742165Y-35612050D01*
X103689320Y-35655419D01*
X103516243Y-35866312D01*
X103387636Y-36106919D01*
X103308440Y-36367993D01*
X103297091Y-36483218D01*
X103260637Y-36551419D01*
X103181441Y-36812493D01*
X103161401Y-37015963D01*
X103161400Y-50790756D01*
X103105195Y-50874873D01*
X102999886Y-51129110D01*
X102946200Y-51399008D01*
X102946200Y-51674192D01*
X102999886Y-51944090D01*
X103105195Y-52198327D01*
X103258080Y-52427135D01*
X103452665Y-52621720D01*
X103557248Y-52691600D01*
X101259286Y-52691600D01*
X98717800Y-50150115D01*
X98717800Y-35163593D01*
X98778620Y-35196102D01*
X98898318Y-35232412D01*
X99022800Y-35244672D01*
X99587050Y-35241600D01*
X99745800Y-35082850D01*
X99745800Y-33883600D01*
X99999800Y-33883600D01*
X99999800Y-35082850D01*
X100158550Y-35241600D01*
X100722800Y-35244672D01*
X100847282Y-35232412D01*
X100966980Y-35196102D01*
X101077294Y-35137137D01*
X101173985Y-35057785D01*
X101253337Y-34961094D01*
X101312302Y-34850780D01*
X101348612Y-34731082D01*
X101360872Y-34606600D01*
X101357800Y-34042350D01*
X101199050Y-33883600D01*
X99999800Y-33883600D01*
X99745800Y-33883600D01*
X99725800Y-33883600D01*
X99725800Y-33629600D01*
X99745800Y-33629600D01*
X99745800Y-32430350D01*
X99999800Y-32430350D01*
X99999800Y-33629600D01*
X101199050Y-33629600D01*
X101357800Y-33470850D01*
X101360872Y-32906600D01*
X101348612Y-32782118D01*
X101312302Y-32662420D01*
X101307060Y-32652613D01*
X107174392Y-32652613D01*
X107270156Y-32917014D01*
X107559771Y-33057904D01*
X107871308Y-33139584D01*
X108192795Y-33158918D01*
X108511875Y-33115161D01*
X108816288Y-33009995D01*
X108990244Y-32917014D01*
X109086008Y-32652613D01*
X113674392Y-32652613D01*
X113770156Y-32917014D01*
X114059771Y-33057904D01*
X114371308Y-33139584D01*
X114692795Y-33158918D01*
X115011875Y-33115161D01*
X115316288Y-33009995D01*
X115490244Y-32917014D01*
X115586008Y-32652613D01*
X114630200Y-31696805D01*
X113674392Y-32652613D01*
X109086008Y-32652613D01*
X108130200Y-31696805D01*
X107174392Y-32652613D01*
X101307060Y-32652613D01*
X101253337Y-32552106D01*
X101173985Y-32455415D01*
X101077294Y-32376063D01*
X100966980Y-32317098D01*
X100847282Y-32280788D01*
X100722800Y-32268528D01*
X100158550Y-32271600D01*
X99999800Y-32430350D01*
X99745800Y-32430350D01*
X99587050Y-32271600D01*
X99022800Y-32268528D01*
X98898318Y-32280788D01*
X98778620Y-32317098D01*
X98717800Y-32349607D01*
X98717800Y-31790285D01*
X98998686Y-31509400D01*
X100419901Y-31509400D01*
X100671265Y-31559400D01*
X100953935Y-31559400D01*
X101231174Y-31504253D01*
X101492327Y-31396080D01*
X101727359Y-31239037D01*
X101927237Y-31039159D01*
X102084280Y-30804127D01*
X102192453Y-30542974D01*
X102247600Y-30265735D01*
X102247600Y-29983065D01*
X102192453Y-29705826D01*
X102084280Y-29444673D01*
X101927237Y-29209641D01*
X101727359Y-29009763D01*
X101492327Y-28852720D01*
X101231174Y-28744547D01*
X100953935Y-28689400D01*
X100671265Y-28689400D01*
X100419901Y-28739400D01*
X98493028Y-28739400D01*
X98424999Y-28732700D01*
X98356970Y-28739400D01*
X98356963Y-28739400D01*
X98179099Y-28756918D01*
X98153492Y-28759440D01*
X98069760Y-28784840D01*
X97892419Y-28838636D01*
X97651812Y-28967243D01*
X97620862Y-28992643D01*
X97493766Y-29096948D01*
X97493764Y-29096950D01*
X97440919Y-29140319D01*
X97397550Y-29193164D01*
X96401564Y-30189151D01*
X96348720Y-30232519D01*
X96305351Y-30285364D01*
X96305348Y-30285367D01*
X96175644Y-30443412D01*
X96047036Y-30684020D01*
X95967840Y-30945093D01*
X95941100Y-31216600D01*
X95947801Y-31284639D01*
X95947801Y-32472784D01*
X95820252Y-32317366D01*
X95820250Y-32317364D01*
X95776881Y-32264519D01*
X95724036Y-32221150D01*
X94603000Y-31100115D01*
X94603000Y-30389406D01*
X94627600Y-30265735D01*
X94627600Y-29983065D01*
X94572453Y-29705826D01*
X94464280Y-29444673D01*
X94307237Y-29209641D01*
X94107359Y-29009763D01*
X93872327Y-28852720D01*
X93611174Y-28744547D01*
X93333935Y-28689400D01*
X93051265Y-28689400D01*
X92774026Y-28744547D01*
X92512873Y-28852720D01*
X92277841Y-29009763D01*
X92077963Y-29209641D01*
X91920920Y-29444673D01*
X91812747Y-29705826D01*
X91757600Y-29983065D01*
X91757600Y-30265735D01*
X91812747Y-30542974D01*
X91833000Y-30591869D01*
X91833000Y-31100114D01*
X91323515Y-31609600D01*
X91221393Y-31609600D01*
X91253902Y-31548780D01*
X91290212Y-31429082D01*
X91302472Y-31304600D01*
X91299400Y-30740350D01*
X91140650Y-30581600D01*
X89941400Y-30581600D01*
X89941400Y-30601600D01*
X89687400Y-30601600D01*
X89687400Y-30581600D01*
X88488150Y-30581600D01*
X88329400Y-30740350D01*
X88326328Y-31304600D01*
X88338588Y-31429082D01*
X88374898Y-31548780D01*
X88407407Y-31609600D01*
X87898885Y-31609600D01*
X87641454Y-31352169D01*
X87598081Y-31299319D01*
X87387188Y-31126243D01*
X87146581Y-30997636D01*
X86885507Y-30918440D01*
X86792344Y-30909264D01*
X86947014Y-30853244D01*
X87087904Y-30563629D01*
X87169584Y-30252092D01*
X87188918Y-29930605D01*
X87145161Y-29611525D01*
X87142769Y-29604600D01*
X88326328Y-29604600D01*
X88329400Y-30168850D01*
X88488150Y-30327600D01*
X89687400Y-30327600D01*
X89687400Y-29128350D01*
X89941400Y-29128350D01*
X89941400Y-30327600D01*
X91140650Y-30327600D01*
X91299400Y-30168850D01*
X91302472Y-29604600D01*
X91290212Y-29480118D01*
X91253902Y-29360420D01*
X91194937Y-29250106D01*
X91115585Y-29153415D01*
X91018894Y-29074063D01*
X90908580Y-29015098D01*
X90788882Y-28978788D01*
X90664400Y-28966528D01*
X90100150Y-28969600D01*
X89941400Y-29128350D01*
X89687400Y-29128350D01*
X89528650Y-28969600D01*
X88964400Y-28966528D01*
X88839918Y-28978788D01*
X88720220Y-29015098D01*
X88609906Y-29074063D01*
X88513215Y-29153415D01*
X88433863Y-29250106D01*
X88374898Y-29360420D01*
X88338588Y-29480118D01*
X88326328Y-29604600D01*
X87142769Y-29604600D01*
X87039995Y-29307112D01*
X86947014Y-29133156D01*
X86682613Y-29037392D01*
X85726805Y-29993200D01*
X85740948Y-30007343D01*
X85561343Y-30186948D01*
X85547200Y-30172805D01*
X85533058Y-30186948D01*
X85353453Y-30007343D01*
X85367595Y-29993200D01*
X84411787Y-29037392D01*
X84147386Y-29133156D01*
X84006496Y-29422771D01*
X83924816Y-29734308D01*
X83905482Y-30055795D01*
X83949239Y-30374875D01*
X84054405Y-30679288D01*
X84147386Y-30853244D01*
X84272060Y-30898400D01*
X80322340Y-30898400D01*
X80447014Y-30853244D01*
X80587904Y-30563629D01*
X80669584Y-30252092D01*
X80688918Y-29930605D01*
X80645161Y-29611525D01*
X80539995Y-29307112D01*
X80447014Y-29133156D01*
X80182613Y-29037392D01*
X79226805Y-29993200D01*
X79240948Y-30007343D01*
X79061343Y-30186948D01*
X79047200Y-30172805D01*
X79033058Y-30186948D01*
X78853453Y-30007343D01*
X78867595Y-29993200D01*
X77911787Y-29037392D01*
X77647386Y-29133156D01*
X77506496Y-29422771D01*
X77424816Y-29734308D01*
X77405482Y-30055795D01*
X77449239Y-30374875D01*
X77554405Y-30679288D01*
X77647386Y-30853244D01*
X77772060Y-30898400D01*
X75617986Y-30898400D01*
X75275786Y-30556200D01*
X76737724Y-29094262D01*
X76922388Y-28995557D01*
X77090260Y-28857787D01*
X78091392Y-28857787D01*
X79047200Y-29813595D01*
X80003008Y-28857787D01*
X84591392Y-28857787D01*
X85547200Y-29813595D01*
X86503008Y-28857787D01*
X86407244Y-28593386D01*
X86117629Y-28452496D01*
X85806092Y-28370816D01*
X85484605Y-28351482D01*
X85165525Y-28395239D01*
X84861112Y-28500405D01*
X84687156Y-28593386D01*
X84591392Y-28857787D01*
X80003008Y-28857787D01*
X79907244Y-28593386D01*
X79617629Y-28452496D01*
X79306092Y-28370816D01*
X78984605Y-28351482D01*
X78665525Y-28395239D01*
X78361112Y-28500405D01*
X78187156Y-28593386D01*
X78091392Y-28857787D01*
X77090260Y-28857787D01*
X77133281Y-28822481D01*
X77176654Y-28769631D01*
X79186686Y-26759600D01*
X102575715Y-26759600D01*
X103288400Y-27472285D01*
X103288401Y-29071297D01*
X103238400Y-29322665D01*
X103238400Y-29605335D01*
X103293547Y-29882574D01*
X103401720Y-30143727D01*
X103558763Y-30378759D01*
X103758641Y-30578637D01*
X103993673Y-30735680D01*
X104254826Y-30843853D01*
X104532065Y-30899000D01*
X104814735Y-30899000D01*
X105066099Y-30849000D01*
X106637059Y-30849000D01*
X106589496Y-30946771D01*
X106507816Y-31258308D01*
X106488482Y-31579795D01*
X106532239Y-31898875D01*
X106637405Y-32203288D01*
X106730386Y-32377244D01*
X106994787Y-32473008D01*
X107950595Y-31517200D01*
X107936453Y-31503058D01*
X108116058Y-31323453D01*
X108130200Y-31337595D01*
X108144343Y-31323453D01*
X108323948Y-31503058D01*
X108309805Y-31517200D01*
X109265613Y-32473008D01*
X109530014Y-32377244D01*
X109670904Y-32087629D01*
X109752584Y-31776092D01*
X109771918Y-31454605D01*
X109728161Y-31135525D01*
X109629175Y-30849000D01*
X113137059Y-30849000D01*
X113089496Y-30946771D01*
X113007816Y-31258308D01*
X112988482Y-31579795D01*
X113032239Y-31898875D01*
X113137405Y-32203288D01*
X113230386Y-32377244D01*
X113494787Y-32473008D01*
X114450595Y-31517200D01*
X114436453Y-31503058D01*
X114616058Y-31323453D01*
X114630200Y-31337595D01*
X114644343Y-31323453D01*
X114823948Y-31503058D01*
X114809805Y-31517200D01*
X115765613Y-32473008D01*
X116030014Y-32377244D01*
X116170904Y-32087629D01*
X116252584Y-31776092D01*
X116271918Y-31454605D01*
X116228161Y-31135525D01*
X116129175Y-30849000D01*
X116723515Y-30849000D01*
X116752928Y-30878413D01*
X116752928Y-33053200D01*
X116765188Y-33177682D01*
X116801498Y-33297380D01*
X116860463Y-33407694D01*
X116939815Y-33504385D01*
X117036506Y-33583737D01*
X117146820Y-33642702D01*
X117266518Y-33679012D01*
X117391000Y-33691272D01*
X119591000Y-33691272D01*
X119715482Y-33679012D01*
X119835180Y-33642702D01*
X119945494Y-33583737D01*
X120042185Y-33504385D01*
X120121537Y-33407694D01*
X120180502Y-33297380D01*
X120216812Y-33177682D01*
X120229072Y-33053200D01*
X120229072Y-30853200D01*
X120216812Y-30728718D01*
X120201301Y-30677585D01*
X120309286Y-30569600D01*
X123225915Y-30569600D01*
X123939577Y-31283263D01*
X124081963Y-31496359D01*
X124281841Y-31696237D01*
X124516873Y-31853280D01*
X124778026Y-31961453D01*
X125055265Y-32016600D01*
X125337935Y-32016600D01*
X125589299Y-31966600D01*
X129631327Y-31966600D01*
X129628091Y-32522624D01*
X129370765Y-32779950D01*
X129317919Y-32823320D01*
X129274550Y-32876165D01*
X129274548Y-32876167D01*
X129186534Y-32983412D01*
X129144843Y-33034213D01*
X129043390Y-33224019D01*
X129016236Y-33274820D01*
X128937040Y-33535893D01*
X128934942Y-33557198D01*
X128917000Y-33739364D01*
X128917000Y-33739371D01*
X128910300Y-33807400D01*
X128917000Y-33875429D01*
X128917001Y-40140161D01*
X128910300Y-40208200D01*
X128937040Y-40479707D01*
X129016236Y-40740780D01*
X129144844Y-40981388D01*
X129274548Y-41139433D01*
X129274551Y-41139436D01*
X129317920Y-41192281D01*
X129370764Y-41235649D01*
X129576190Y-41441075D01*
X129568513Y-42760200D01*
X126531981Y-42760200D01*
X126476494Y-42714663D01*
X126366180Y-42655698D01*
X126347873Y-42650144D01*
X126414312Y-42583705D01*
X126582299Y-42332295D01*
X126698011Y-42052943D01*
X126757000Y-41756384D01*
X126757000Y-41454016D01*
X126698011Y-41157457D01*
X126607000Y-40937738D01*
X126607000Y-38466606D01*
X126631600Y-38342935D01*
X126631600Y-38060265D01*
X126576453Y-37783026D01*
X126468280Y-37521873D01*
X126311237Y-37286841D01*
X126111359Y-37086963D01*
X125876327Y-36929920D01*
X125615174Y-36821747D01*
X125337935Y-36766600D01*
X125055265Y-36766600D01*
X124778026Y-36821747D01*
X124516873Y-36929920D01*
X124281841Y-37086963D01*
X124081963Y-37286841D01*
X123924920Y-37521873D01*
X123816747Y-37783026D01*
X123761600Y-38060265D01*
X123761600Y-38342935D01*
X123816747Y-38620174D01*
X123837001Y-38669071D01*
X123837000Y-40937738D01*
X123745989Y-41157457D01*
X123687000Y-41454016D01*
X123687000Y-41756384D01*
X123745989Y-42052943D01*
X123861701Y-42332295D01*
X124029688Y-42583705D01*
X124053783Y-42607800D01*
X120944286Y-42607800D01*
X120212889Y-41876404D01*
X120159325Y-41607119D01*
X120028537Y-41291369D01*
X119838663Y-41007202D01*
X119596998Y-40765537D01*
X119312831Y-40575663D01*
X118997081Y-40444875D01*
X118661883Y-40378200D01*
X118320117Y-40378200D01*
X117984919Y-40444875D01*
X117669169Y-40575663D01*
X117385002Y-40765537D01*
X117143337Y-41007202D01*
X116953463Y-41291369D01*
X116822675Y-41607119D01*
X116756000Y-41942317D01*
X116756000Y-42284083D01*
X116822675Y-42619281D01*
X116877401Y-42751401D01*
X116877400Y-44634006D01*
X116874328Y-44665200D01*
X116874328Y-46165200D01*
X116886588Y-46289682D01*
X116922898Y-46409380D01*
X116981863Y-46519694D01*
X117023312Y-46570200D01*
X114670486Y-46570200D01*
X113880624Y-45780339D01*
X113738237Y-45567241D01*
X113538359Y-45367363D01*
X113303327Y-45210320D01*
X113042174Y-45102147D01*
X112764935Y-45047000D01*
X112482265Y-45047000D01*
X112205026Y-45102147D01*
X111943873Y-45210320D01*
X111708841Y-45367363D01*
X111508963Y-45567241D01*
X111351920Y-45802273D01*
X111243747Y-46063426D01*
X111188600Y-46340665D01*
X111188600Y-46623335D01*
X111243747Y-46900574D01*
X111351920Y-47161727D01*
X111508963Y-47396759D01*
X111708841Y-47596637D01*
X111921939Y-47739024D01*
X113069350Y-48886436D01*
X113112719Y-48939281D01*
X113165564Y-48982650D01*
X113165566Y-48982652D01*
X113224477Y-49030999D01*
X113323612Y-49112357D01*
X113564219Y-49240964D01*
X113825293Y-49320160D01*
X114028763Y-49340200D01*
X114028772Y-49340200D01*
X114096799Y-49346900D01*
X114164826Y-49340200D01*
X117539328Y-49340200D01*
X117485012Y-49538207D01*
X118262400Y-50315595D01*
X119039788Y-49538207D01*
X118974263Y-49299340D01*
X118820640Y-49227249D01*
X118855277Y-49208735D01*
X118918443Y-49182571D01*
X118975290Y-49144587D01*
X119035588Y-49112357D01*
X119088440Y-49068983D01*
X119145286Y-49030999D01*
X119193633Y-48982652D01*
X119246481Y-48939281D01*
X119289854Y-48886431D01*
X119338199Y-48838086D01*
X119376183Y-48781240D01*
X119419557Y-48728388D01*
X119451787Y-48668090D01*
X119489771Y-48611243D01*
X119515935Y-48548077D01*
X119548164Y-48487781D01*
X119568011Y-48422355D01*
X119594175Y-48359189D01*
X119607514Y-48292132D01*
X119627360Y-48226707D01*
X119634061Y-48158670D01*
X119647400Y-48091611D01*
X119647400Y-48023237D01*
X119654101Y-47955200D01*
X119647400Y-47887163D01*
X119647400Y-47818789D01*
X119634061Y-47751730D01*
X119627360Y-47683693D01*
X119607514Y-47618268D01*
X119594175Y-47551211D01*
X119568011Y-47488045D01*
X119548164Y-47422619D01*
X119515935Y-47362323D01*
X119489771Y-47299157D01*
X119451787Y-47242310D01*
X119419557Y-47182012D01*
X119376183Y-47129160D01*
X119338199Y-47072314D01*
X119289854Y-47023969D01*
X119246481Y-46971119D01*
X119193631Y-46927746D01*
X119145286Y-46879401D01*
X119088440Y-46841417D01*
X119038792Y-46800673D01*
X119136882Y-46791012D01*
X119256580Y-46754702D01*
X119366894Y-46695737D01*
X119463585Y-46616385D01*
X119542937Y-46519694D01*
X119601902Y-46409380D01*
X119638212Y-46289682D01*
X119650472Y-46165200D01*
X119650472Y-45178318D01*
X119838019Y-45278564D01*
X120099093Y-45357760D01*
X120302563Y-45377800D01*
X120302571Y-45377800D01*
X120370600Y-45384500D01*
X120438629Y-45377800D01*
X123779760Y-45377800D01*
X123791463Y-45399694D01*
X123870815Y-45496385D01*
X123967506Y-45575737D01*
X124077820Y-45634702D01*
X124197518Y-45671012D01*
X124322000Y-45683272D01*
X126122000Y-45683272D01*
X126246482Y-45671012D01*
X126366180Y-45634702D01*
X126476494Y-45575737D01*
X126531981Y-45530200D01*
X129552393Y-45530200D01*
X129517960Y-51447000D01*
X127956232Y-51447000D01*
X127723374Y-51350547D01*
X127446135Y-51295400D01*
X127163465Y-51295400D01*
X126912101Y-51345400D01*
X123100257Y-51345400D01*
X123095094Y-51341163D01*
X122984780Y-51282198D01*
X122865082Y-51245888D01*
X122740600Y-51233628D01*
X120540600Y-51233628D01*
X120416118Y-51245888D01*
X120296420Y-51282198D01*
X120186106Y-51341163D01*
X120089415Y-51420515D01*
X120010063Y-51517206D01*
X119951098Y-51627520D01*
X119914788Y-51747218D01*
X119902528Y-51871700D01*
X119902528Y-54071700D01*
X119914788Y-54196182D01*
X119951098Y-54315880D01*
X120010063Y-54426194D01*
X120089415Y-54522885D01*
X120186106Y-54602237D01*
X120296420Y-54661202D01*
X120416118Y-54697512D01*
X120540600Y-54709772D01*
X122740600Y-54709772D01*
X122865082Y-54697512D01*
X122984780Y-54661202D01*
X123095094Y-54602237D01*
X123191785Y-54522885D01*
X123271137Y-54426194D01*
X123330102Y-54315880D01*
X123366412Y-54196182D01*
X123374368Y-54115400D01*
X126869396Y-54115400D01*
X126873819Y-54117764D01*
X127134893Y-54196960D01*
X127338363Y-54217000D01*
X127338373Y-54217000D01*
X127406399Y-54223700D01*
X127474426Y-54217000D01*
X129501840Y-54217000D01*
X129487913Y-56610160D01*
X129478255Y-56642000D01*
X129445040Y-56751494D01*
X129425000Y-56954964D01*
X129425000Y-56954971D01*
X129418300Y-57023000D01*
X129425000Y-57091029D01*
X129425001Y-62822361D01*
X129418300Y-62890400D01*
X129445040Y-63161907D01*
X129449696Y-63177254D01*
X129439142Y-64990800D01*
X128515686Y-64990800D01*
X128499780Y-64982298D01*
X128481473Y-64976744D01*
X128547912Y-64910305D01*
X128715899Y-64658895D01*
X128831611Y-64379543D01*
X128890600Y-64082984D01*
X128890600Y-63780616D01*
X128831611Y-63484057D01*
X128740600Y-63264338D01*
X128740600Y-60469228D01*
X128747300Y-60401199D01*
X128740600Y-60333170D01*
X128740600Y-60333163D01*
X128739800Y-60325040D01*
X128739800Y-60209065D01*
X128684653Y-59931826D01*
X128576480Y-59670673D01*
X128419437Y-59435641D01*
X128219559Y-59235763D01*
X127984527Y-59078720D01*
X127723374Y-58970547D01*
X127446135Y-58915400D01*
X127163465Y-58915400D01*
X126886226Y-58970547D01*
X126625073Y-59078720D01*
X126390041Y-59235763D01*
X126190163Y-59435641D01*
X126033120Y-59670673D01*
X125924947Y-59931826D01*
X125869800Y-60209065D01*
X125869800Y-60491735D01*
X125924947Y-60768974D01*
X125970601Y-60879192D01*
X125970600Y-63264338D01*
X125879589Y-63484057D01*
X125820600Y-63780616D01*
X125820600Y-64082984D01*
X125879589Y-64379543D01*
X125995301Y-64658895D01*
X126163288Y-64910305D01*
X126229727Y-64976744D01*
X126211420Y-64982298D01*
X126101106Y-65041263D01*
X126045619Y-65086800D01*
X122009600Y-65086800D01*
X122009600Y-64827292D01*
X122146681Y-64800025D01*
X122462431Y-64669237D01*
X122746598Y-64479363D01*
X122988263Y-64237698D01*
X123178137Y-63953531D01*
X123308925Y-63637781D01*
X123375600Y-63302583D01*
X123375600Y-62960817D01*
X123308925Y-62625619D01*
X123178137Y-62309869D01*
X122988263Y-62025702D01*
X122746598Y-61784037D01*
X122462431Y-61594163D01*
X122146681Y-61463375D01*
X121811483Y-61396700D01*
X121469717Y-61396700D01*
X121134519Y-61463375D01*
X120818769Y-61594163D01*
X120534602Y-61784037D01*
X120292937Y-62025702D01*
X120103063Y-62309869D01*
X119972275Y-62625619D01*
X119918711Y-62894904D01*
X119693364Y-63120250D01*
X119640519Y-63163620D01*
X119467443Y-63374513D01*
X119338837Y-63615119D01*
X119338836Y-63615120D01*
X119260160Y-63874481D01*
X119259640Y-63876194D01*
X119239600Y-64079664D01*
X119239600Y-64079671D01*
X119232900Y-64147700D01*
X119239600Y-64215730D01*
X119239601Y-65284202D01*
X119236528Y-65315400D01*
X119236528Y-66028563D01*
X119232900Y-66065400D01*
X119236528Y-66102237D01*
X119236528Y-66815400D01*
X119248788Y-66939882D01*
X119285098Y-67059580D01*
X119344063Y-67169894D01*
X119385512Y-67220400D01*
X117464486Y-67220400D01*
X116827024Y-66582939D01*
X116684637Y-66369841D01*
X116484759Y-66169963D01*
X116249727Y-66012920D01*
X115988574Y-65904747D01*
X115711335Y-65849600D01*
X115428665Y-65849600D01*
X115151426Y-65904747D01*
X114890273Y-66012920D01*
X114655241Y-66169963D01*
X114455363Y-66369841D01*
X114298320Y-66604873D01*
X114190147Y-66866026D01*
X114135000Y-67143265D01*
X114135000Y-67425935D01*
X114190147Y-67703174D01*
X114298320Y-67964327D01*
X114455363Y-68199359D01*
X114655241Y-68399237D01*
X114868339Y-68541624D01*
X115863350Y-69536636D01*
X115906719Y-69589481D01*
X115959564Y-69632850D01*
X115959566Y-69632852D01*
X116070740Y-69724090D01*
X116117612Y-69762557D01*
X116358219Y-69891164D01*
X116619293Y-69970360D01*
X116822763Y-69990400D01*
X116822772Y-69990400D01*
X116890799Y-69997100D01*
X116958826Y-69990400D01*
X119901528Y-69990400D01*
X119847212Y-70188407D01*
X120624600Y-70965795D01*
X121401988Y-70188407D01*
X121336463Y-69949540D01*
X121182840Y-69877449D01*
X121217477Y-69858935D01*
X121280643Y-69832771D01*
X121337490Y-69794787D01*
X121397788Y-69762557D01*
X121450640Y-69719183D01*
X121507486Y-69681199D01*
X121555833Y-69632852D01*
X121608681Y-69589481D01*
X121652054Y-69536631D01*
X121700399Y-69488286D01*
X121738383Y-69431440D01*
X121781757Y-69378588D01*
X121813987Y-69318290D01*
X121851971Y-69261443D01*
X121878135Y-69198277D01*
X121910364Y-69137981D01*
X121930211Y-69072555D01*
X121956375Y-69009389D01*
X121969714Y-68942332D01*
X121989560Y-68876907D01*
X121996261Y-68808870D01*
X122009600Y-68741811D01*
X122009600Y-68673437D01*
X122016301Y-68605400D01*
X122009600Y-68537363D01*
X122009600Y-68468989D01*
X121996261Y-68401930D01*
X121989560Y-68333893D01*
X121969714Y-68268468D01*
X121956375Y-68201411D01*
X121930211Y-68138245D01*
X121910364Y-68072819D01*
X121878135Y-68012523D01*
X121851971Y-67949357D01*
X121813987Y-67892510D01*
X121794900Y-67856800D01*
X126045619Y-67856800D01*
X126101106Y-67902337D01*
X126211420Y-67961302D01*
X126331118Y-67997612D01*
X126455600Y-68009872D01*
X128255600Y-68009872D01*
X128380082Y-67997612D01*
X128499780Y-67961302D01*
X128610094Y-67902337D01*
X128706785Y-67822985D01*
X128757819Y-67760800D01*
X129423022Y-67760800D01*
X129390123Y-73413852D01*
X129384637Y-73405641D01*
X129184759Y-73205763D01*
X128949727Y-73048720D01*
X128688574Y-72940547D01*
X128411335Y-72885400D01*
X128128665Y-72885400D01*
X127877301Y-72935400D01*
X124386906Y-72935400D01*
X124363337Y-72891306D01*
X124283985Y-72794615D01*
X124187294Y-72715263D01*
X124076980Y-72656298D01*
X123957282Y-72619988D01*
X123832800Y-72607728D01*
X121632800Y-72607728D01*
X121508318Y-72619988D01*
X121388620Y-72656298D01*
X121278306Y-72715263D01*
X121181615Y-72794615D01*
X121102263Y-72891306D01*
X121043298Y-73001620D01*
X121006988Y-73121318D01*
X120994728Y-73245800D01*
X120994728Y-75445800D01*
X121006988Y-75570282D01*
X121043298Y-75689980D01*
X121102263Y-75800294D01*
X121181615Y-75896985D01*
X121278306Y-75976337D01*
X121388620Y-76035302D01*
X121508318Y-76071612D01*
X121632800Y-76083872D01*
X123832800Y-76083872D01*
X123957282Y-76071612D01*
X124076980Y-76035302D01*
X124187294Y-75976337D01*
X124283985Y-75896985D01*
X124363337Y-75800294D01*
X124414060Y-75705400D01*
X127696315Y-75705400D01*
X128684746Y-76693831D01*
X128728119Y-76746681D01*
X128939012Y-76919757D01*
X129179619Y-77048364D01*
X129368639Y-77105703D01*
X129346051Y-80987055D01*
X129184759Y-80825763D01*
X128949727Y-80668720D01*
X128688574Y-80560547D01*
X128411335Y-80505400D01*
X128128665Y-80505400D01*
X127851426Y-80560547D01*
X127590273Y-80668720D01*
X127355241Y-80825763D01*
X127155363Y-81025641D01*
X126998320Y-81260673D01*
X126890147Y-81521826D01*
X126877918Y-81583307D01*
X126828840Y-81745093D01*
X126802100Y-82016600D01*
X126808801Y-82084639D01*
X126808800Y-85108338D01*
X126717789Y-85328057D01*
X126658800Y-85624616D01*
X126658800Y-85926984D01*
X126717789Y-86223543D01*
X126833501Y-86502895D01*
X127001488Y-86754305D01*
X127067927Y-86820744D01*
X127049620Y-86826298D01*
X126939306Y-86885263D01*
X126883819Y-86930800D01*
X125287685Y-86930800D01*
X125030254Y-86673369D01*
X124986881Y-86620519D01*
X124775988Y-86447443D01*
X124535381Y-86318836D01*
X124274307Y-86239640D01*
X124070837Y-86219600D01*
X124070829Y-86219600D01*
X124002800Y-86212900D01*
X123934771Y-86219600D01*
X123254200Y-86219600D01*
X123254200Y-86167780D01*
X123554631Y-86043337D01*
X123838798Y-85853463D01*
X124080463Y-85611798D01*
X124270337Y-85327631D01*
X124401125Y-85011881D01*
X124467800Y-84676683D01*
X124467800Y-84334917D01*
X124401125Y-83999719D01*
X124270337Y-83683969D01*
X124080463Y-83399802D01*
X123838798Y-83158137D01*
X123554631Y-82968263D01*
X123238881Y-82837475D01*
X122903683Y-82770800D01*
X122561917Y-82770800D01*
X122226719Y-82837475D01*
X121910969Y-82968263D01*
X121626802Y-83158137D01*
X121385137Y-83399802D01*
X121195263Y-83683969D01*
X121064475Y-83999719D01*
X121010911Y-84269004D01*
X120937965Y-84341950D01*
X120885120Y-84385319D01*
X120841751Y-84438164D01*
X120841748Y-84438167D01*
X120712044Y-84596212D01*
X120583436Y-84836820D01*
X120504240Y-85097893D01*
X120477500Y-85369400D01*
X120484201Y-85437439D01*
X120484200Y-86823405D01*
X120481128Y-86854600D01*
X120481128Y-87567754D01*
X120477499Y-87604600D01*
X120481128Y-87641446D01*
X120481128Y-88354600D01*
X120493388Y-88479082D01*
X120529698Y-88598780D01*
X120588299Y-88708413D01*
X119418800Y-87538915D01*
X119418800Y-83577699D01*
X119468800Y-83326335D01*
X119468800Y-83043665D01*
X119413653Y-82766426D01*
X119305480Y-82505273D01*
X119148437Y-82270241D01*
X118948559Y-82070363D01*
X118713527Y-81913320D01*
X118452374Y-81805147D01*
X118175135Y-81750000D01*
X117892465Y-81750000D01*
X117615226Y-81805147D01*
X117354073Y-81913320D01*
X117119041Y-82070363D01*
X116919163Y-82270241D01*
X116762120Y-82505273D01*
X116653947Y-82766426D01*
X116598800Y-83043665D01*
X116598800Y-83326335D01*
X116648801Y-83577703D01*
X116648800Y-88044571D01*
X116642100Y-88112600D01*
X116648800Y-88180629D01*
X116648800Y-88180636D01*
X116663965Y-88334605D01*
X116668840Y-88384107D01*
X116714852Y-88535787D01*
X116748036Y-88645180D01*
X116863754Y-88861672D01*
X116876644Y-88885788D01*
X116964362Y-88992672D01*
X117049719Y-89096680D01*
X117102565Y-89140050D01*
X119038350Y-91075836D01*
X119081719Y-91128681D01*
X119134564Y-91172050D01*
X119134566Y-91172052D01*
X119182512Y-91211400D01*
X119292612Y-91301757D01*
X119529401Y-91428323D01*
X119533219Y-91430364D01*
X119794292Y-91509560D01*
X119817692Y-91511865D01*
X119997763Y-91529600D01*
X119997771Y-91529600D01*
X120065800Y-91536300D01*
X120133829Y-91529600D01*
X121146128Y-91529600D01*
X121091812Y-91727607D01*
X121869200Y-92504995D01*
X122646588Y-91727607D01*
X122581063Y-91488740D01*
X122427440Y-91416649D01*
X122462077Y-91398135D01*
X122525243Y-91371971D01*
X122582090Y-91333987D01*
X122642388Y-91301757D01*
X122695240Y-91258383D01*
X122752086Y-91220399D01*
X122800433Y-91172052D01*
X122853281Y-91128681D01*
X122896654Y-91075831D01*
X122944999Y-91027486D01*
X122982983Y-90970640D01*
X123026357Y-90917788D01*
X123058587Y-90857490D01*
X123096571Y-90800643D01*
X123122735Y-90737477D01*
X123154964Y-90677181D01*
X123174811Y-90611755D01*
X123200975Y-90548589D01*
X123214314Y-90481532D01*
X123234160Y-90416107D01*
X123240861Y-90348070D01*
X123254200Y-90281011D01*
X123254200Y-90212637D01*
X123260901Y-90144600D01*
X123254200Y-90076563D01*
X123254200Y-90008189D01*
X123240861Y-89941130D01*
X123234160Y-89873093D01*
X123214314Y-89807668D01*
X123200975Y-89740611D01*
X123174811Y-89677445D01*
X123154964Y-89612019D01*
X123122735Y-89551723D01*
X123096571Y-89488557D01*
X123058587Y-89431710D01*
X123026357Y-89371412D01*
X122982983Y-89318560D01*
X122944999Y-89261714D01*
X122896654Y-89213369D01*
X122853281Y-89160519D01*
X122800431Y-89117146D01*
X122752086Y-89068801D01*
X122695240Y-89030817D01*
X122645592Y-88990073D01*
X122650392Y-88989600D01*
X123429115Y-88989600D01*
X123686546Y-89247031D01*
X123729919Y-89299881D01*
X123940812Y-89472957D01*
X124181419Y-89601564D01*
X124442493Y-89680760D01*
X124645963Y-89700800D01*
X124645971Y-89700800D01*
X124714000Y-89707500D01*
X124782029Y-89700800D01*
X126883819Y-89700800D01*
X126939306Y-89746337D01*
X127049620Y-89805302D01*
X127169318Y-89841612D01*
X127293800Y-89853872D01*
X129093800Y-89853872D01*
X129218282Y-89841612D01*
X129294657Y-89818444D01*
X129270221Y-94017400D01*
X122572226Y-94017400D01*
X122504199Y-94010700D01*
X122436173Y-94017400D01*
X122436163Y-94017400D01*
X122232693Y-94037440D01*
X121971619Y-94116636D01*
X121872156Y-94169800D01*
X114850626Y-94169800D01*
X114782599Y-94163100D01*
X114714572Y-94169800D01*
X114714563Y-94169800D01*
X114511093Y-94189840D01*
X114401357Y-94223128D01*
X113276200Y-94223128D01*
X113151718Y-94235388D01*
X113032020Y-94271698D01*
X112921706Y-94330663D01*
X112825015Y-94410015D01*
X112745663Y-94506706D01*
X112686698Y-94617020D01*
X112650388Y-94736718D01*
X112638128Y-94861200D01*
X112638128Y-97061200D01*
X112650388Y-97185682D01*
X112686698Y-97305380D01*
X112745663Y-97415694D01*
X112825015Y-97512385D01*
X112921706Y-97591737D01*
X113032020Y-97650702D01*
X113151718Y-97687012D01*
X113276200Y-97699272D01*
X115476200Y-97699272D01*
X115600682Y-97687012D01*
X115720380Y-97650702D01*
X115830694Y-97591737D01*
X115927385Y-97512385D01*
X116006737Y-97415694D01*
X116065702Y-97305380D01*
X116102012Y-97185682D01*
X116114272Y-97061200D01*
X116114272Y-96939800D01*
X121959101Y-96939800D01*
X122210465Y-96989800D01*
X122493135Y-96989800D01*
X122770374Y-96934653D01*
X123031527Y-96826480D01*
X123090014Y-96787400D01*
X129254101Y-96787400D01*
X129191730Y-107504800D01*
X123610981Y-107504800D01*
X123555494Y-107459263D01*
X123445180Y-107400298D01*
X123426873Y-107394744D01*
X123493312Y-107328305D01*
X123661299Y-107076895D01*
X123777011Y-106797543D01*
X123836000Y-106500984D01*
X123836000Y-106198616D01*
X123777011Y-105902057D01*
X123736800Y-105804980D01*
X123736800Y-103567499D01*
X123786800Y-103316135D01*
X123786800Y-103033465D01*
X123731653Y-102756226D01*
X123623480Y-102495073D01*
X123466437Y-102260041D01*
X123266559Y-102060163D01*
X123031527Y-101903120D01*
X122770374Y-101794947D01*
X122493135Y-101739800D01*
X122210465Y-101739800D01*
X121933226Y-101794947D01*
X121672073Y-101903120D01*
X121437041Y-102060163D01*
X121237163Y-102260041D01*
X121080120Y-102495073D01*
X120971947Y-102756226D01*
X120916800Y-103033465D01*
X120916800Y-103316135D01*
X120966800Y-103567499D01*
X120966801Y-105583644D01*
X120940701Y-105622705D01*
X120824989Y-105902057D01*
X120766000Y-106198616D01*
X120766000Y-106500984D01*
X120824989Y-106797543D01*
X120940701Y-107076895D01*
X121108688Y-107328305D01*
X121175127Y-107394744D01*
X121156820Y-107400298D01*
X121046506Y-107459263D01*
X120991019Y-107504800D01*
X120360086Y-107504800D01*
X118045254Y-105189969D01*
X118001881Y-105137119D01*
X117790988Y-104964043D01*
X117550381Y-104835436D01*
X117289307Y-104756240D01*
X117085837Y-104736200D01*
X117085829Y-104736200D01*
X117017800Y-104729500D01*
X116949771Y-104736200D01*
X115426319Y-104736200D01*
X115198031Y-104583663D01*
X114882281Y-104452875D01*
X114547083Y-104386200D01*
X114205317Y-104386200D01*
X113870119Y-104452875D01*
X113554369Y-104583663D01*
X113270202Y-104773537D01*
X113028537Y-105015202D01*
X112838663Y-105299369D01*
X112707875Y-105615119D01*
X112641200Y-105950317D01*
X112641200Y-106292083D01*
X112707875Y-106627281D01*
X112788001Y-106820722D01*
X112788000Y-108921406D01*
X112784928Y-108952600D01*
X112784928Y-110452600D01*
X112797188Y-110577082D01*
X112833498Y-110696780D01*
X112892463Y-110807094D01*
X112933912Y-110857600D01*
X110403286Y-110857600D01*
X110097000Y-110551315D01*
X110097000Y-109485699D01*
X110147000Y-109234335D01*
X110147000Y-108951665D01*
X110091853Y-108674426D01*
X109983680Y-108413273D01*
X109826637Y-108178241D01*
X109626759Y-107978363D01*
X109391727Y-107821320D01*
X109130574Y-107713147D01*
X108853335Y-107658000D01*
X108570665Y-107658000D01*
X108293426Y-107713147D01*
X108032273Y-107821320D01*
X107797241Y-107978363D01*
X107597363Y-108178241D01*
X107440320Y-108413273D01*
X107332147Y-108674426D01*
X107277000Y-108951665D01*
X107277000Y-109234335D01*
X107327001Y-109485703D01*
X107327000Y-111056970D01*
X107320300Y-111125000D01*
X107327000Y-111193029D01*
X107327000Y-111193036D01*
X107343416Y-111359714D01*
X107347040Y-111396507D01*
X107369156Y-111469412D01*
X107426236Y-111657580D01*
X107554843Y-111898187D01*
X107727919Y-112109080D01*
X107780764Y-112152450D01*
X108802150Y-113173836D01*
X108845519Y-113226681D01*
X108898364Y-113270050D01*
X108898366Y-113270052D01*
X108957277Y-113318399D01*
X109056412Y-113399757D01*
X109297019Y-113528364D01*
X109558093Y-113607560D01*
X109761563Y-113627600D01*
X109761572Y-113627600D01*
X109829599Y-113634300D01*
X109897626Y-113627600D01*
X113449928Y-113627600D01*
X113395612Y-113825607D01*
X114173000Y-114602995D01*
X114950388Y-113825607D01*
X114884863Y-113586740D01*
X114731240Y-113514649D01*
X114765877Y-113496135D01*
X114829043Y-113469971D01*
X114885890Y-113431987D01*
X114946188Y-113399757D01*
X114999040Y-113356383D01*
X115055886Y-113318399D01*
X115104233Y-113270052D01*
X115157081Y-113226681D01*
X115200454Y-113173831D01*
X115248799Y-113125486D01*
X115286783Y-113068640D01*
X115330157Y-113015788D01*
X115362387Y-112955490D01*
X115400371Y-112898643D01*
X115426535Y-112835477D01*
X115458764Y-112775181D01*
X115478611Y-112709755D01*
X115504775Y-112646589D01*
X115518114Y-112579532D01*
X115537960Y-112514107D01*
X115544661Y-112446070D01*
X115558000Y-112379011D01*
X115558000Y-112310637D01*
X115564701Y-112242600D01*
X115558000Y-112174563D01*
X115558000Y-112106189D01*
X115544661Y-112039130D01*
X115537960Y-111971093D01*
X115518114Y-111905668D01*
X115504775Y-111838611D01*
X115478611Y-111775445D01*
X115458764Y-111710019D01*
X115426535Y-111649723D01*
X115400371Y-111586557D01*
X115362387Y-111529710D01*
X115330157Y-111469412D01*
X115286783Y-111416560D01*
X115248799Y-111359714D01*
X115200454Y-111311369D01*
X115157081Y-111258519D01*
X115104231Y-111215146D01*
X115055886Y-111166801D01*
X114999040Y-111128817D01*
X114949392Y-111088073D01*
X115047482Y-111078412D01*
X115167180Y-111042102D01*
X115277494Y-110983137D01*
X115374185Y-110903785D01*
X115453537Y-110807094D01*
X115512502Y-110696780D01*
X115548812Y-110577082D01*
X115561072Y-110452600D01*
X115561072Y-108952600D01*
X115558000Y-108921408D01*
X115558000Y-107506200D01*
X116444115Y-107506200D01*
X118758950Y-109821036D01*
X118802319Y-109873881D01*
X118855164Y-109917250D01*
X118855166Y-109917252D01*
X119013211Y-110046956D01*
X119013212Y-110046957D01*
X119253819Y-110175564D01*
X119514893Y-110254760D01*
X119718363Y-110274800D01*
X119718371Y-110274800D01*
X119786400Y-110281500D01*
X119854429Y-110274800D01*
X120991019Y-110274800D01*
X121046506Y-110320337D01*
X121156820Y-110379302D01*
X121276518Y-110415612D01*
X121401000Y-110427872D01*
X123201000Y-110427872D01*
X123325482Y-110415612D01*
X123445180Y-110379302D01*
X123555494Y-110320337D01*
X123610981Y-110274800D01*
X129175610Y-110274800D01*
X129133602Y-117493311D01*
X129135542Y-117516175D01*
X129142261Y-117540147D01*
X129152823Y-117560958D01*
X50546000Y-117627293D01*
X50546000Y-115739593D01*
X113395612Y-115739593D01*
X113461137Y-115978460D01*
X113708116Y-116094360D01*
X113972960Y-116159850D01*
X114245492Y-116172412D01*
X114515238Y-116131565D01*
X114771832Y-116038877D01*
X114884863Y-115978460D01*
X114950388Y-115739593D01*
X114173000Y-114962205D01*
X113395612Y-115739593D01*
X50546000Y-115739593D01*
X50546000Y-114855092D01*
X112783188Y-114855092D01*
X112824035Y-115124838D01*
X112916723Y-115381432D01*
X112977140Y-115494463D01*
X113216007Y-115559988D01*
X113993395Y-114782600D01*
X114352605Y-114782600D01*
X115129993Y-115559988D01*
X115368860Y-115494463D01*
X115484760Y-115247484D01*
X115550250Y-114982640D01*
X115562812Y-114710108D01*
X115521965Y-114440362D01*
X115429277Y-114183768D01*
X115368860Y-114070737D01*
X115129993Y-114005212D01*
X114352605Y-114782600D01*
X113993395Y-114782600D01*
X113216007Y-114005212D01*
X112977140Y-114070737D01*
X112861240Y-114317716D01*
X112795750Y-114582560D01*
X112783188Y-114855092D01*
X50546000Y-114855092D01*
X50546000Y-108566600D01*
X63321728Y-108566600D01*
X63333988Y-108691082D01*
X63370298Y-108810780D01*
X63429263Y-108921094D01*
X63508615Y-109017785D01*
X63605306Y-109097137D01*
X63715620Y-109156102D01*
X63835318Y-109192412D01*
X63959800Y-109204672D01*
X65424050Y-109201600D01*
X65582800Y-109042850D01*
X65582800Y-107193600D01*
X65836800Y-107193600D01*
X65836800Y-109042850D01*
X65995550Y-109201600D01*
X67459800Y-109204672D01*
X67584282Y-109192412D01*
X67703980Y-109156102D01*
X67814294Y-109097137D01*
X67910985Y-109017785D01*
X67990337Y-108921094D01*
X68049302Y-108810780D01*
X68085612Y-108691082D01*
X68097872Y-108566600D01*
X68094800Y-107352350D01*
X67936050Y-107193600D01*
X65836800Y-107193600D01*
X65582800Y-107193600D01*
X63483550Y-107193600D01*
X63324800Y-107352350D01*
X63321728Y-108566600D01*
X50546000Y-108566600D01*
X50546000Y-105566600D01*
X63321728Y-105566600D01*
X63324800Y-106780850D01*
X63483550Y-106939600D01*
X65582800Y-106939600D01*
X65582800Y-105090350D01*
X65836800Y-105090350D01*
X65836800Y-106939600D01*
X67936050Y-106939600D01*
X68094800Y-106780850D01*
X68097872Y-105566600D01*
X68085612Y-105442118D01*
X68049302Y-105322420D01*
X67990337Y-105212106D01*
X67910985Y-105115415D01*
X67814294Y-105036063D01*
X67703980Y-104977098D01*
X67584282Y-104940788D01*
X67459800Y-104928528D01*
X65995550Y-104931600D01*
X65836800Y-105090350D01*
X65582800Y-105090350D01*
X65424050Y-104931600D01*
X63959800Y-104928528D01*
X63835318Y-104940788D01*
X63715620Y-104977098D01*
X63605306Y-105036063D01*
X63508615Y-105115415D01*
X63429263Y-105212106D01*
X63370298Y-105322420D01*
X63333988Y-105442118D01*
X63321728Y-105566600D01*
X50546000Y-105566600D01*
X50546000Y-20332740D01*
X74426737Y-20340297D01*
%TA.AperFunction,Conductor*%
D33*
G36*
X74426737Y-20340297D02*
G01*
X74168819Y-20418536D01*
X73928212Y-20547143D01*
X73770166Y-20676848D01*
X73770164Y-20676850D01*
X73717319Y-20720219D01*
X73673950Y-20773064D01*
X55532965Y-38914050D01*
X55480120Y-38957419D01*
X55436751Y-39010264D01*
X55436748Y-39010267D01*
X55307044Y-39168312D01*
X55178436Y-39408920D01*
X55099240Y-39669993D01*
X55072500Y-39941500D01*
X55079201Y-40009539D01*
X55079200Y-91143371D01*
X55072500Y-91211400D01*
X55079200Y-91279429D01*
X55079200Y-91279436D01*
X55088909Y-91378012D01*
X55099240Y-91482907D01*
X55134729Y-91599898D01*
X55178436Y-91743980D01*
X55281344Y-91936506D01*
X55307044Y-91984588D01*
X55407439Y-92106919D01*
X55480119Y-92195480D01*
X55532965Y-92238850D01*
X55648515Y-92354400D01*
X54745564Y-93257351D01*
X54692720Y-93300719D01*
X54649351Y-93353564D01*
X54649348Y-93353567D01*
X54519644Y-93511612D01*
X54391036Y-93752220D01*
X54311840Y-94013293D01*
X54285100Y-94284800D01*
X54291801Y-94352839D01*
X54291800Y-98483971D01*
X54285100Y-98552000D01*
X54291800Y-98620029D01*
X54291800Y-98620036D01*
X54311840Y-98823506D01*
X54391036Y-99084580D01*
X54519643Y-99325187D01*
X54692719Y-99536080D01*
X54745565Y-99579450D01*
X57163950Y-101997836D01*
X57207319Y-102050681D01*
X57260164Y-102094050D01*
X57260166Y-102094052D01*
X57290473Y-102118924D01*
X57418212Y-102223757D01*
X57658819Y-102352364D01*
X57919893Y-102431560D01*
X58123363Y-102451600D01*
X58123372Y-102451600D01*
X58191399Y-102458300D01*
X58259426Y-102451600D01*
X63321728Y-102451600D01*
X63321728Y-102816600D01*
X63333988Y-102941082D01*
X63370298Y-103060780D01*
X63429263Y-103171094D01*
X63508615Y-103267785D01*
X63605306Y-103347137D01*
X63715620Y-103406102D01*
X63835318Y-103442412D01*
X63959800Y-103454672D01*
X67459800Y-103454672D01*
X67584282Y-103442412D01*
X67703980Y-103406102D01*
X67814294Y-103347137D01*
X67910985Y-103267785D01*
X67990337Y-103171094D01*
X68031294Y-103094469D01*
X68021728Y-103191600D01*
X68021728Y-104941600D01*
X68050801Y-105236786D01*
X68136904Y-105520628D01*
X68276727Y-105782218D01*
X68464897Y-106011503D01*
X68694182Y-106199673D01*
X68955772Y-106339496D01*
X69239614Y-106425599D01*
X69534800Y-106454672D01*
X71284800Y-106454672D01*
X71579986Y-106425599D01*
X71863828Y-106339496D01*
X72125418Y-106199673D01*
X72354703Y-106011503D01*
X72542873Y-105782218D01*
X72682696Y-105520628D01*
X72768799Y-105236786D01*
X72797872Y-104941600D01*
X72797872Y-103191600D01*
X72768799Y-102896414D01*
X72682696Y-102612572D01*
X72542873Y-102350982D01*
X72354703Y-102121697D01*
X72125418Y-101933527D01*
X71863828Y-101793704D01*
X71579986Y-101707601D01*
X71284800Y-101678528D01*
X69534800Y-101678528D01*
X69239614Y-101707601D01*
X68955772Y-101793704D01*
X68694182Y-101933527D01*
X68464897Y-102121697D01*
X68276727Y-102350982D01*
X68136904Y-102612572D01*
X68097872Y-102741243D01*
X68097872Y-99316600D01*
X68085612Y-99192118D01*
X68049302Y-99072420D01*
X67990337Y-98962106D01*
X67910985Y-98865415D01*
X67814294Y-98786063D01*
X67703980Y-98727098D01*
X67584282Y-98690788D01*
X67459800Y-98678528D01*
X63959800Y-98678528D01*
X63835318Y-98690788D01*
X63715620Y-98727098D01*
X63605306Y-98786063D01*
X63508615Y-98865415D01*
X63429263Y-98962106D01*
X63370298Y-99072420D01*
X63333988Y-99192118D01*
X63321728Y-99316600D01*
X63321728Y-99681600D01*
X58765086Y-99681600D01*
X57061800Y-97978315D01*
X57061800Y-96583702D01*
X59511903Y-96583702D01*
X59583486Y-96827671D01*
X59838996Y-96948571D01*
X60113184Y-97017300D01*
X60395512Y-97031217D01*
X60675130Y-96989787D01*
X60941292Y-96894603D01*
X61066514Y-96827671D01*
X61138097Y-96583702D01*
X61036497Y-96482102D01*
X67614503Y-96482102D01*
X67686086Y-96726071D01*
X67941596Y-96846971D01*
X68215784Y-96915700D01*
X68498112Y-96929617D01*
X68777730Y-96888187D01*
X69043892Y-96793003D01*
X69169114Y-96726071D01*
X69240697Y-96482102D01*
X68427600Y-95669005D01*
X67614503Y-96482102D01*
X61036497Y-96482102D01*
X60325000Y-95770605D01*
X59511903Y-96583702D01*
X57061800Y-96583702D01*
X57061800Y-95661512D01*
X58884783Y-95661512D01*
X58926213Y-95941130D01*
X59021397Y-96207292D01*
X59088329Y-96332514D01*
X59332298Y-96404097D01*
X60145395Y-95591000D01*
X60504605Y-95591000D01*
X61317702Y-96404097D01*
X61561671Y-96332514D01*
X61682571Y-96077004D01*
X61751300Y-95802816D01*
X61763273Y-95559912D01*
X66987383Y-95559912D01*
X67028813Y-95839530D01*
X67123997Y-96105692D01*
X67190929Y-96230914D01*
X67434898Y-96302497D01*
X68247995Y-95489400D01*
X68607205Y-95489400D01*
X69420302Y-96302497D01*
X69664271Y-96230914D01*
X69785171Y-95975404D01*
X69853900Y-95701216D01*
X69867817Y-95418888D01*
X69826387Y-95139270D01*
X69731203Y-94873108D01*
X69664271Y-94747886D01*
X69420302Y-94676303D01*
X68607205Y-95489400D01*
X68247995Y-95489400D01*
X67434898Y-94676303D01*
X67190929Y-94747886D01*
X67070029Y-95003396D01*
X67001300Y-95277584D01*
X66987383Y-95559912D01*
X61763273Y-95559912D01*
X61765217Y-95520488D01*
X61723787Y-95240870D01*
X61628603Y-94974708D01*
X61561671Y-94849486D01*
X61317702Y-94777903D01*
X60504605Y-95591000D01*
X60145395Y-95591000D01*
X59332298Y-94777903D01*
X59088329Y-94849486D01*
X58967429Y-95104996D01*
X58898700Y-95379184D01*
X58884783Y-95661512D01*
X57061800Y-95661512D01*
X57061800Y-94858485D01*
X57444286Y-94476000D01*
X58275771Y-94476000D01*
X58343800Y-94482700D01*
X58411829Y-94476000D01*
X59272397Y-94476000D01*
X59280820Y-94480502D01*
X59400518Y-94516812D01*
X59525000Y-94529072D01*
X59532215Y-94529072D01*
X59511903Y-94598298D01*
X60325000Y-95411395D01*
X61138097Y-94598298D01*
X61117785Y-94529072D01*
X61125000Y-94529072D01*
X61249482Y-94516812D01*
X61369180Y-94480502D01*
X61479494Y-94421537D01*
X61576185Y-94342185D01*
X61655537Y-94245494D01*
X61714502Y-94135180D01*
X61750812Y-94015482D01*
X61763072Y-93891000D01*
X61763072Y-92291000D01*
X61750812Y-92166518D01*
X61714502Y-92046820D01*
X61710000Y-92038397D01*
X61710000Y-89016485D01*
X62117886Y-88608600D01*
X63870799Y-88608600D01*
X63925115Y-88674785D01*
X64021806Y-88754137D01*
X64132120Y-88813102D01*
X64251818Y-88849412D01*
X64376300Y-88861672D01*
X66281300Y-88861672D01*
X66405782Y-88849412D01*
X66525480Y-88813102D01*
X66635794Y-88754137D01*
X66732485Y-88674785D01*
X66811837Y-88578094D01*
X66860859Y-88486381D01*
X67001877Y-88599569D01*
X67277706Y-88743171D01*
X67495820Y-88814163D01*
X67741800Y-88694194D01*
X67741800Y-87350600D01*
X67721800Y-87350600D01*
X67721800Y-87096600D01*
X67741800Y-87096600D01*
X67741800Y-85753006D01*
X67495820Y-85633037D01*
X67277706Y-85704029D01*
X67001877Y-85847631D01*
X66860859Y-85960819D01*
X66811837Y-85869106D01*
X66732485Y-85772415D01*
X66635794Y-85693063D01*
X66525480Y-85634098D01*
X66405782Y-85597788D01*
X66281300Y-85585528D01*
X64376300Y-85585528D01*
X64251818Y-85597788D01*
X64132120Y-85634098D01*
X64021806Y-85693063D01*
X63925115Y-85772415D01*
X63870799Y-85838600D01*
X61612226Y-85838600D01*
X61544199Y-85831900D01*
X61476172Y-85838600D01*
X61476163Y-85838600D01*
X61272693Y-85858640D01*
X61011619Y-85937836D01*
X60771012Y-86066443D01*
X60771010Y-86066444D01*
X60771011Y-86066444D01*
X60612966Y-86196148D01*
X60612964Y-86196150D01*
X60560119Y-86239519D01*
X60516750Y-86292364D01*
X59393764Y-87415351D01*
X59340920Y-87458719D01*
X59297551Y-87511564D01*
X59297548Y-87511567D01*
X59167844Y-87669612D01*
X59039236Y-87910220D01*
X58960040Y-88171293D01*
X58933300Y-88442800D01*
X58940001Y-88510839D01*
X58940000Y-91706000D01*
X58917486Y-91706000D01*
X57849200Y-90637715D01*
X57849200Y-40515185D01*
X75275086Y-23089300D01*
X105951571Y-23089300D01*
X106019600Y-23096000D01*
X106087629Y-23089300D01*
X106087637Y-23089300D01*
X106291107Y-23069260D01*
X106392509Y-23038500D01*
X129683284Y-23038500D01*
X129647447Y-29196600D01*
X125770286Y-29196600D01*
X124827054Y-28253369D01*
X124783681Y-28200519D01*
X124572788Y-28027443D01*
X124332181Y-27898836D01*
X124071107Y-27819640D01*
X123867637Y-27799600D01*
X123867629Y-27799600D01*
X123799600Y-27792900D01*
X123731571Y-27799600D01*
X119803626Y-27799600D01*
X119735599Y-27792900D01*
X119667572Y-27799600D01*
X119667563Y-27799600D01*
X119464093Y-27819640D01*
X119203019Y-27898836D01*
X118962412Y-28027443D01*
X118962410Y-28027444D01*
X118962411Y-28027444D01*
X118804366Y-28157148D01*
X118804364Y-28157150D01*
X118751519Y-28200519D01*
X118708150Y-28253364D01*
X118376700Y-28584815D01*
X118324654Y-28532769D01*
X118281281Y-28479919D01*
X118070388Y-28306843D01*
X117829781Y-28178236D01*
X117568707Y-28099040D01*
X117365237Y-28079000D01*
X117365229Y-28079000D01*
X117297200Y-28072300D01*
X117229171Y-28079000D01*
X106058400Y-28079000D01*
X106058400Y-26966626D01*
X106065100Y-26898599D01*
X106058400Y-26830572D01*
X106058400Y-26830563D01*
X106038360Y-26627093D01*
X105959164Y-26366019D01*
X105830557Y-26125412D01*
X105657480Y-25914519D01*
X105604635Y-25871150D01*
X104176854Y-24443369D01*
X104133481Y-24390519D01*
X103922588Y-24217443D01*
X103681981Y-24088836D01*
X103420907Y-24009640D01*
X103217437Y-23989600D01*
X103217429Y-23989600D01*
X103149400Y-23982900D01*
X103081371Y-23989600D01*
X78681026Y-23989600D01*
X78612999Y-23982900D01*
X78544972Y-23989600D01*
X78544963Y-23989600D01*
X78341493Y-24009640D01*
X78080419Y-24088836D01*
X77839812Y-24217443D01*
X77839810Y-24217444D01*
X77839811Y-24217444D01*
X77681766Y-24347148D01*
X77681764Y-24347150D01*
X77628919Y-24390519D01*
X77585550Y-24443364D01*
X75446378Y-26582537D01*
X75261712Y-26681243D01*
X75103666Y-26810948D01*
X75103664Y-26810950D01*
X75050819Y-26854319D01*
X75007450Y-26907164D01*
X72385864Y-29528751D01*
X72333019Y-29572119D01*
X72289651Y-29624964D01*
X64549964Y-37364650D01*
X64497120Y-37408019D01*
X64453751Y-37460864D01*
X64453748Y-37460867D01*
X64324044Y-37618912D01*
X64195436Y-37859520D01*
X64116240Y-38120593D01*
X64089500Y-38392100D01*
X64096201Y-38460139D01*
X64096200Y-53375914D01*
X60358964Y-57113151D01*
X60306120Y-57156519D01*
X60262751Y-57209364D01*
X60262748Y-57209367D01*
X60133044Y-57367412D01*
X60004436Y-57608020D01*
X59925240Y-57869093D01*
X59898500Y-58140600D01*
X59905201Y-58208639D01*
X59905200Y-73591971D01*
X59898500Y-73660000D01*
X59905200Y-73728029D01*
X59905200Y-73728036D01*
X59913366Y-73810944D01*
X59925240Y-73931507D01*
X59996673Y-74166988D01*
X60004436Y-74192580D01*
X60114044Y-74397641D01*
X60133044Y-74433188D01*
X60258116Y-74585588D01*
X60306119Y-74644080D01*
X60358965Y-74687450D01*
X63107550Y-77436036D01*
X63150919Y-77488881D01*
X63203764Y-77532250D01*
X63203766Y-77532252D01*
X63357325Y-77658275D01*
X63361812Y-77661957D01*
X63602419Y-77790564D01*
X63863493Y-77869760D01*
X64066963Y-77889800D01*
X64066971Y-77889800D01*
X64135000Y-77896500D01*
X64203029Y-77889800D01*
X64223201Y-77889800D01*
X64223201Y-78507993D01*
X64180268Y-78611642D01*
X64123200Y-78898540D01*
X64123200Y-79191060D01*
X64180268Y-79477958D01*
X64223200Y-79581606D01*
X64223201Y-80388655D01*
X64168698Y-80490620D01*
X64132388Y-80610318D01*
X64120128Y-80734800D01*
X64120128Y-82434800D01*
X64132388Y-82559282D01*
X64168698Y-82678980D01*
X64227663Y-82789294D01*
X64307015Y-82885985D01*
X64403706Y-82965337D01*
X64514020Y-83024302D01*
X64633718Y-83060612D01*
X64758200Y-83072872D01*
X66458200Y-83072872D01*
X66582682Y-83060612D01*
X66702380Y-83024302D01*
X66812694Y-82965337D01*
X66909385Y-82885985D01*
X66965671Y-82817400D01*
X69023801Y-82817400D01*
X69023800Y-86096590D01*
X68978237Y-86042285D01*
X68735723Y-85847631D01*
X68459894Y-85704029D01*
X68241780Y-85633037D01*
X67995800Y-85753006D01*
X67995800Y-87096600D01*
X68015800Y-87096600D01*
X68015800Y-87350600D01*
X67995800Y-87350600D01*
X67995800Y-88694194D01*
X68241780Y-88814163D01*
X68459894Y-88743171D01*
X68735723Y-88599569D01*
X68978237Y-88404915D01*
X69023801Y-88350610D01*
X69023800Y-91551328D01*
X67627600Y-91551328D01*
X67503118Y-91563588D01*
X67383420Y-91599898D01*
X67273106Y-91658863D01*
X67176415Y-91738215D01*
X67097063Y-91834906D01*
X67038098Y-91945220D01*
X67001788Y-92064918D01*
X66989528Y-92189400D01*
X66989528Y-93789400D01*
X67001788Y-93913882D01*
X67038098Y-94033580D01*
X67097063Y-94143894D01*
X67176415Y-94240585D01*
X67273106Y-94319937D01*
X67383420Y-94378902D01*
X67503118Y-94415212D01*
X67627600Y-94427472D01*
X67634815Y-94427472D01*
X67614503Y-94496698D01*
X68427600Y-95309795D01*
X69240697Y-94496698D01*
X69220385Y-94427472D01*
X69227600Y-94427472D01*
X69352082Y-94415212D01*
X69471780Y-94378902D01*
X69480203Y-94374400D01*
X69502571Y-94374400D01*
X69570600Y-94381100D01*
X69638629Y-94374400D01*
X69638637Y-94374400D01*
X69842107Y-94354360D01*
X70103181Y-94275164D01*
X70343788Y-94146557D01*
X70554681Y-93973481D01*
X70598054Y-93920631D01*
X71340035Y-93178650D01*
X71392880Y-93135281D01*
X71504695Y-92999036D01*
X71565957Y-92924388D01*
X71694564Y-92683781D01*
X71773760Y-92422707D01*
X71784091Y-92317812D01*
X71793800Y-92219237D01*
X71793800Y-92219229D01*
X71800500Y-92151200D01*
X71793800Y-92083171D01*
X71793800Y-88608600D01*
X76208171Y-88608600D01*
X76276200Y-88615300D01*
X76344229Y-88608600D01*
X76344237Y-88608600D01*
X76547707Y-88588560D01*
X76808781Y-88509364D01*
X77049388Y-88380757D01*
X77260281Y-88207681D01*
X77266837Y-88199693D01*
X77293735Y-88181720D01*
X77488320Y-87987135D01*
X77641205Y-87758327D01*
X77746514Y-87504090D01*
X77800200Y-87234192D01*
X77800200Y-86959008D01*
X102946200Y-86959008D01*
X102946200Y-87234192D01*
X102999886Y-87504090D01*
X103105195Y-87758327D01*
X103258080Y-87987135D01*
X103452665Y-88181720D01*
X103681473Y-88334605D01*
X103935710Y-88439914D01*
X104205608Y-88493600D01*
X104480792Y-88493600D01*
X104750690Y-88439914D01*
X105004927Y-88334605D01*
X105233735Y-88181720D01*
X105428320Y-87987135D01*
X105581205Y-87758327D01*
X105686514Y-87504090D01*
X105740200Y-87234192D01*
X105740200Y-86959008D01*
X105686514Y-86689110D01*
X105581205Y-86434873D01*
X105428320Y-86206065D01*
X105233735Y-86011480D01*
X105004927Y-85858595D01*
X104933257Y-85828908D01*
X104946223Y-85824236D01*
X105062180Y-85762256D01*
X105129160Y-85522165D01*
X104343200Y-84736205D01*
X103557240Y-85522165D01*
X103624220Y-85762256D01*
X103759960Y-85826085D01*
X103681473Y-85858595D01*
X103452665Y-86011480D01*
X103258080Y-86206065D01*
X103105195Y-86434873D01*
X102999886Y-86689110D01*
X102946200Y-86959008D01*
X77800200Y-86959008D01*
X77746514Y-86689110D01*
X77641205Y-86434873D01*
X77488320Y-86206065D01*
X77293735Y-86011480D01*
X77064927Y-85858595D01*
X76993257Y-85828908D01*
X77006223Y-85824236D01*
X77122180Y-85762256D01*
X77189160Y-85522165D01*
X76403200Y-84736205D01*
X75617240Y-85522165D01*
X75684220Y-85762256D01*
X75819960Y-85826085D01*
X75789745Y-85838600D01*
X71793800Y-85838600D01*
X71793800Y-84628617D01*
X75001290Y-84628617D01*
X75042278Y-84900733D01*
X75135564Y-85159623D01*
X75197544Y-85275580D01*
X75437635Y-85342560D01*
X76223595Y-84556600D01*
X76582805Y-84556600D01*
X77368765Y-85342560D01*
X77608856Y-85275580D01*
X77725956Y-85026552D01*
X77792223Y-84759465D01*
X77798357Y-84628617D01*
X102941290Y-84628617D01*
X102982278Y-84900733D01*
X103075564Y-85159623D01*
X103137544Y-85275580D01*
X103377635Y-85342560D01*
X104163595Y-84556600D01*
X104522805Y-84556600D01*
X105308765Y-85342560D01*
X105548856Y-85275580D01*
X105665956Y-85026552D01*
X105732223Y-84759465D01*
X105745110Y-84484583D01*
X105704122Y-84212467D01*
X105610836Y-83953577D01*
X105548856Y-83837620D01*
X105308765Y-83770640D01*
X104522805Y-84556600D01*
X104163595Y-84556600D01*
X103377635Y-83770640D01*
X103137544Y-83837620D01*
X103020444Y-84086648D01*
X102954177Y-84353735D01*
X102941290Y-84628617D01*
X77798357Y-84628617D01*
X77805110Y-84484583D01*
X77764122Y-84212467D01*
X77670836Y-83953577D01*
X77608856Y-83837620D01*
X77368765Y-83770640D01*
X76582805Y-84556600D01*
X76223595Y-84556600D01*
X75437635Y-83770640D01*
X75197544Y-83837620D01*
X75080444Y-84086648D01*
X75014177Y-84353735D01*
X75001290Y-84628617D01*
X71793800Y-84628617D01*
X71793800Y-82262429D01*
X71800500Y-82194400D01*
X71793800Y-82126371D01*
X71793800Y-82126363D01*
X71773760Y-81922893D01*
X71694564Y-81661819D01*
X71565957Y-81421212D01*
X71392881Y-81210319D01*
X71340031Y-81166946D01*
X70903825Y-80730740D01*
X70761437Y-80517641D01*
X70561559Y-80317763D01*
X70326527Y-80160720D01*
X70065374Y-80052547D01*
X69788135Y-79997400D01*
X69505465Y-79997400D01*
X69254101Y-80047400D01*
X66993200Y-80047400D01*
X66993200Y-79581605D01*
X67036132Y-79477958D01*
X67093200Y-79191060D01*
X67093200Y-78898540D01*
X67036132Y-78611642D01*
X66993200Y-78507995D01*
X66993200Y-77041605D01*
X67036132Y-76937958D01*
X67063771Y-76799008D01*
X75006200Y-76799008D01*
X75006200Y-77074192D01*
X75059886Y-77344090D01*
X75165195Y-77598327D01*
X75318080Y-77827135D01*
X75512665Y-78021720D01*
X75741473Y-78174605D01*
X75818715Y-78206600D01*
X75741473Y-78238595D01*
X75512665Y-78391480D01*
X75318080Y-78586065D01*
X75165195Y-78814873D01*
X75059886Y-79069110D01*
X75006200Y-79339008D01*
X75006200Y-79614192D01*
X75059886Y-79884090D01*
X75165195Y-80138327D01*
X75318080Y-80367135D01*
X75512665Y-80561720D01*
X75741473Y-80714605D01*
X75818715Y-80746600D01*
X75741473Y-80778595D01*
X75512665Y-80931480D01*
X75318080Y-81126065D01*
X75165195Y-81354873D01*
X75059886Y-81609110D01*
X75006200Y-81879008D01*
X75006200Y-82154192D01*
X75059886Y-82424090D01*
X75165195Y-82678327D01*
X75318080Y-82907135D01*
X75512665Y-83101720D01*
X75741473Y-83254605D01*
X75813143Y-83284292D01*
X75800177Y-83288964D01*
X75684220Y-83350944D01*
X75617240Y-83591035D01*
X76403200Y-84376995D01*
X77189160Y-83591035D01*
X77122180Y-83350944D01*
X76986440Y-83287115D01*
X77064927Y-83254605D01*
X77293735Y-83101720D01*
X77488320Y-82907135D01*
X77641205Y-82678327D01*
X77746514Y-82424090D01*
X77800200Y-82154192D01*
X77800200Y-81879008D01*
X77746514Y-81609110D01*
X77641205Y-81354873D01*
X77488320Y-81126065D01*
X77293735Y-80931480D01*
X77064927Y-80778595D01*
X76987685Y-80746600D01*
X77064927Y-80714605D01*
X77293735Y-80561720D01*
X77488320Y-80367135D01*
X77641205Y-80138327D01*
X77746514Y-79884090D01*
X77800200Y-79614192D01*
X77800200Y-79339008D01*
X77746514Y-79069110D01*
X77641205Y-78814873D01*
X77488320Y-78586065D01*
X77293735Y-78391480D01*
X77064927Y-78238595D01*
X76987685Y-78206600D01*
X77064927Y-78174605D01*
X77293735Y-78021720D01*
X77488320Y-77827135D01*
X77641205Y-77598327D01*
X77746514Y-77344090D01*
X77800200Y-77074192D01*
X77800200Y-76799008D01*
X77746514Y-76529110D01*
X77641205Y-76274873D01*
X77488320Y-76046065D01*
X77293735Y-75851480D01*
X77064927Y-75698595D01*
X76993257Y-75668908D01*
X77006223Y-75664236D01*
X77122180Y-75602256D01*
X77189160Y-75362165D01*
X76403200Y-74576205D01*
X75617240Y-75362165D01*
X75684220Y-75602256D01*
X75819960Y-75666085D01*
X75741473Y-75698595D01*
X75512665Y-75851480D01*
X75318080Y-76046065D01*
X75165195Y-76274873D01*
X75059886Y-76529110D01*
X75006200Y-76799008D01*
X67063771Y-76799008D01*
X67093200Y-76651060D01*
X67093200Y-76358540D01*
X67036132Y-76071642D01*
X66924190Y-75801389D01*
X66761675Y-75558168D01*
X66554832Y-75351325D01*
X66311611Y-75188810D01*
X66041358Y-75076868D01*
X65754460Y-75019800D01*
X65461940Y-75019800D01*
X65175042Y-75076868D01*
X65071395Y-75119800D01*
X64708686Y-75119800D01*
X62930486Y-73341600D01*
X64120128Y-73341600D01*
X64132388Y-73466082D01*
X64168698Y-73585780D01*
X64227663Y-73696094D01*
X64307015Y-73792785D01*
X64403706Y-73872137D01*
X64514020Y-73931102D01*
X64633718Y-73967412D01*
X64758200Y-73979672D01*
X65322450Y-73976600D01*
X65481200Y-73817850D01*
X65481200Y-72618600D01*
X65735200Y-72618600D01*
X65735200Y-73817850D01*
X65893950Y-73976600D01*
X66458200Y-73979672D01*
X66582682Y-73967412D01*
X66702380Y-73931102D01*
X66812694Y-73872137D01*
X66909385Y-73792785D01*
X66988737Y-73696094D01*
X67047702Y-73585780D01*
X67084012Y-73466082D01*
X67096272Y-73341600D01*
X67093200Y-72777350D01*
X66934450Y-72618600D01*
X65735200Y-72618600D01*
X65481200Y-72618600D01*
X64281950Y-72618600D01*
X64123200Y-72777350D01*
X64120128Y-73341600D01*
X62930486Y-73341600D01*
X62675200Y-73086315D01*
X62675200Y-71641600D01*
X64120128Y-71641600D01*
X64123200Y-72205850D01*
X64281950Y-72364600D01*
X65481200Y-72364600D01*
X65481200Y-70078600D01*
X65735200Y-70078600D01*
X65735200Y-72364600D01*
X66934450Y-72364600D01*
X67093200Y-72205850D01*
X67096272Y-71641600D01*
X67084012Y-71517118D01*
X67047702Y-71397420D01*
X66988737Y-71287106D01*
X66909385Y-71190415D01*
X66812694Y-71111063D01*
X66702380Y-71052098D01*
X66621734Y-71027634D01*
X66705788Y-70951869D01*
X66879841Y-70718520D01*
X67005025Y-70455699D01*
X67049676Y-70308490D01*
X66928355Y-70078600D01*
X65735200Y-70078600D01*
X65481200Y-70078600D01*
X64288045Y-70078600D01*
X64166724Y-70308490D01*
X64211375Y-70455699D01*
X64336559Y-70718520D01*
X64510612Y-70951869D01*
X64594666Y-71027634D01*
X64514020Y-71052098D01*
X64403706Y-71111063D01*
X64307015Y-71190415D01*
X64227663Y-71287106D01*
X64168698Y-71397420D01*
X64132388Y-71517118D01*
X64120128Y-71641600D01*
X62675200Y-71641600D01*
X62675200Y-67768490D01*
X64166724Y-67768490D01*
X64211375Y-67915699D01*
X64336559Y-68178520D01*
X64510612Y-68411869D01*
X64726845Y-68606778D01*
X64852455Y-68681600D01*
X64726845Y-68756422D01*
X64510612Y-68951331D01*
X64336559Y-69184680D01*
X64211375Y-69447501D01*
X64166724Y-69594710D01*
X64288045Y-69824600D01*
X65481200Y-69824600D01*
X65481200Y-67538600D01*
X65735200Y-67538600D01*
X65735200Y-69824600D01*
X66928355Y-69824600D01*
X67049676Y-69594710D01*
X67005025Y-69447501D01*
X66879841Y-69184680D01*
X66705788Y-68951331D01*
X66520612Y-68784416D01*
X68162600Y-68784416D01*
X68162600Y-69086784D01*
X68221589Y-69383343D01*
X68261801Y-69480423D01*
X68261800Y-73419701D01*
X68211800Y-73671065D01*
X68211800Y-73953735D01*
X68266947Y-74230974D01*
X68375120Y-74492127D01*
X68532163Y-74727159D01*
X68732041Y-74927037D01*
X68967073Y-75084080D01*
X69228226Y-75192253D01*
X69505465Y-75247400D01*
X69788135Y-75247400D01*
X70065374Y-75192253D01*
X70326527Y-75084080D01*
X70561559Y-74927037D01*
X70761437Y-74727159D01*
X70918480Y-74492127D01*
X70928218Y-74468617D01*
X75001290Y-74468617D01*
X75042278Y-74740733D01*
X75135564Y-74999623D01*
X75197544Y-75115580D01*
X75437635Y-75182560D01*
X76223595Y-74396600D01*
X76582805Y-74396600D01*
X77368765Y-75182560D01*
X77608856Y-75115580D01*
X77725956Y-74866552D01*
X77792223Y-74599465D01*
X77805110Y-74324583D01*
X77764122Y-74052467D01*
X77670836Y-73793577D01*
X77608856Y-73677620D01*
X77368765Y-73610640D01*
X76582805Y-74396600D01*
X76223595Y-74396600D01*
X75437635Y-73610640D01*
X75197544Y-73677620D01*
X75080444Y-73926648D01*
X75014177Y-74193735D01*
X75001290Y-74468617D01*
X70928218Y-74468617D01*
X71026653Y-74230974D01*
X71081800Y-73953735D01*
X71081800Y-73671065D01*
X71031800Y-73419701D01*
X71031800Y-70392165D01*
X71093420Y-70425102D01*
X71213118Y-70461412D01*
X71337600Y-70473672D01*
X71951850Y-70470600D01*
X72110600Y-70311850D01*
X72110600Y-69062600D01*
X72364600Y-69062600D01*
X72364600Y-70311850D01*
X72523350Y-70470600D01*
X73137600Y-70473672D01*
X73262082Y-70461412D01*
X73381780Y-70425102D01*
X73492094Y-70366137D01*
X73588785Y-70286785D01*
X73668137Y-70190094D01*
X73727102Y-70079780D01*
X73763412Y-69960082D01*
X73775672Y-69835600D01*
X73772600Y-69221350D01*
X73613850Y-69062600D01*
X72364600Y-69062600D01*
X72110600Y-69062600D01*
X72090600Y-69062600D01*
X72090600Y-68808600D01*
X72110600Y-68808600D01*
X72110600Y-67559350D01*
X72364600Y-67559350D01*
X72364600Y-68808600D01*
X73613850Y-68808600D01*
X73772600Y-68649850D01*
X73775672Y-68035600D01*
X73763412Y-67911118D01*
X73727102Y-67791420D01*
X73668137Y-67681106D01*
X73588785Y-67584415D01*
X73492094Y-67505063D01*
X73381780Y-67446098D01*
X73262082Y-67409788D01*
X73137600Y-67397528D01*
X72523350Y-67400600D01*
X72364600Y-67559350D01*
X72110600Y-67559350D01*
X71951850Y-67400600D01*
X71337600Y-67397528D01*
X71213118Y-67409788D01*
X71093420Y-67446098D01*
X70983106Y-67505063D01*
X70886415Y-67584415D01*
X70807063Y-67681106D01*
X70748098Y-67791420D01*
X70742544Y-67809727D01*
X70676105Y-67743288D01*
X70424695Y-67575301D01*
X70145343Y-67459589D01*
X69848784Y-67400600D01*
X69546416Y-67400600D01*
X69249857Y-67459589D01*
X68970505Y-67575301D01*
X68719095Y-67743288D01*
X68505288Y-67957095D01*
X68337301Y-68208505D01*
X68221589Y-68487857D01*
X68162600Y-68784416D01*
X66520612Y-68784416D01*
X66489555Y-68756422D01*
X66363945Y-68681600D01*
X66489555Y-68606778D01*
X66705788Y-68411869D01*
X66879841Y-68178520D01*
X67005025Y-67915699D01*
X67049676Y-67768490D01*
X66928355Y-67538600D01*
X65735200Y-67538600D01*
X65481200Y-67538600D01*
X64288045Y-67538600D01*
X64166724Y-67768490D01*
X62675200Y-67768490D01*
X62675200Y-67054710D01*
X64166724Y-67054710D01*
X64288045Y-67284600D01*
X65481200Y-67284600D01*
X65481200Y-66090786D01*
X65735200Y-66090786D01*
X65735200Y-67284600D01*
X66928355Y-67284600D01*
X67049676Y-67054710D01*
X67005025Y-66907501D01*
X66879841Y-66644680D01*
X66705788Y-66411331D01*
X66489555Y-66216422D01*
X66239452Y-66067443D01*
X65965091Y-65970119D01*
X65735200Y-66090786D01*
X65481200Y-66090786D01*
X65251309Y-65970119D01*
X64976948Y-66067443D01*
X64726845Y-66216422D01*
X64510612Y-66411331D01*
X64336559Y-66644680D01*
X64211375Y-66907501D01*
X64166724Y-67054710D01*
X62675200Y-67054710D01*
X62675200Y-58714285D01*
X64263595Y-57125890D01*
X67468724Y-57125890D01*
X67513375Y-57273099D01*
X67638559Y-57535920D01*
X67812612Y-57769269D01*
X68028845Y-57964178D01*
X68278948Y-58113157D01*
X68553309Y-58210481D01*
X68783200Y-58089814D01*
X68783200Y-56896000D01*
X69037200Y-56896000D01*
X69037200Y-58089814D01*
X69267091Y-58210481D01*
X69541452Y-58113157D01*
X69791555Y-57964178D01*
X70007788Y-57769269D01*
X70181841Y-57535920D01*
X70307025Y-57273099D01*
X70351676Y-57125890D01*
X70230355Y-56896000D01*
X69037200Y-56896000D01*
X68783200Y-56896000D01*
X67590045Y-56896000D01*
X67468724Y-57125890D01*
X64263595Y-57125890D01*
X65775486Y-55614000D01*
X67984271Y-55614000D01*
X67812612Y-55768731D01*
X67638559Y-56002080D01*
X67513375Y-56264901D01*
X67468724Y-56412110D01*
X67590045Y-56642000D01*
X68783200Y-56642000D01*
X68783200Y-56622000D01*
X69037200Y-56622000D01*
X69037200Y-56642000D01*
X70230355Y-56642000D01*
X70316371Y-56479008D01*
X75006200Y-56479008D01*
X75006200Y-56754192D01*
X75059886Y-57024090D01*
X75165195Y-57278327D01*
X75318080Y-57507135D01*
X75512665Y-57701720D01*
X75741473Y-57854605D01*
X75818715Y-57886600D01*
X75741473Y-57918595D01*
X75512665Y-58071480D01*
X75318080Y-58266065D01*
X75165195Y-58494873D01*
X75059886Y-58749110D01*
X75006200Y-59019008D01*
X75006200Y-59294192D01*
X75059886Y-59564090D01*
X75165195Y-59818327D01*
X75318080Y-60047135D01*
X75512665Y-60241720D01*
X75741473Y-60394605D01*
X75818715Y-60426600D01*
X75741473Y-60458595D01*
X75512665Y-60611480D01*
X75318080Y-60806065D01*
X75165195Y-61034873D01*
X75059886Y-61289110D01*
X75006200Y-61559008D01*
X75006200Y-61834192D01*
X75059886Y-62104090D01*
X75165195Y-62358327D01*
X75318080Y-62587135D01*
X75512665Y-62781720D01*
X75741473Y-62934605D01*
X75818715Y-62966600D01*
X75741473Y-62998595D01*
X75512665Y-63151480D01*
X75318080Y-63346065D01*
X75165195Y-63574873D01*
X75059886Y-63829110D01*
X75006200Y-64099008D01*
X75006200Y-64374192D01*
X75059886Y-64644090D01*
X75165195Y-64898327D01*
X75318080Y-65127135D01*
X75512665Y-65321720D01*
X75741473Y-65474605D01*
X75818715Y-65506600D01*
X75741473Y-65538595D01*
X75512665Y-65691480D01*
X75318080Y-65886065D01*
X75165195Y-66114873D01*
X75059886Y-66369110D01*
X75006200Y-66639008D01*
X75006200Y-66914192D01*
X75059886Y-67184090D01*
X75165195Y-67438327D01*
X75318080Y-67667135D01*
X75512665Y-67861720D01*
X75741473Y-68014605D01*
X75818715Y-68046600D01*
X75741473Y-68078595D01*
X75512665Y-68231480D01*
X75318080Y-68426065D01*
X75165195Y-68654873D01*
X75059886Y-68909110D01*
X75006200Y-69179008D01*
X75006200Y-69454192D01*
X75059886Y-69724090D01*
X75165195Y-69978327D01*
X75318080Y-70207135D01*
X75512665Y-70401720D01*
X75741473Y-70554605D01*
X75818715Y-70586600D01*
X75741473Y-70618595D01*
X75512665Y-70771480D01*
X75318080Y-70966065D01*
X75165195Y-71194873D01*
X75059886Y-71449110D01*
X75006200Y-71719008D01*
X75006200Y-71994192D01*
X75059886Y-72264090D01*
X75165195Y-72518327D01*
X75318080Y-72747135D01*
X75512665Y-72941720D01*
X75741473Y-73094605D01*
X75813143Y-73124292D01*
X75800177Y-73128964D01*
X75684220Y-73190944D01*
X75617240Y-73431035D01*
X76403200Y-74216995D01*
X77189160Y-73431035D01*
X77122180Y-73190944D01*
X76986440Y-73127115D01*
X77064927Y-73094605D01*
X77293735Y-72941720D01*
X77488320Y-72747135D01*
X77641205Y-72518327D01*
X77746514Y-72264090D01*
X77800200Y-71994192D01*
X77800200Y-71719008D01*
X77746514Y-71449110D01*
X77641205Y-71194873D01*
X77488320Y-70966065D01*
X77293735Y-70771480D01*
X77064927Y-70618595D01*
X76987685Y-70586600D01*
X77064927Y-70554605D01*
X77293735Y-70401720D01*
X77488320Y-70207135D01*
X77641205Y-69978327D01*
X77746514Y-69724090D01*
X77800200Y-69454192D01*
X77800200Y-69179008D01*
X102946200Y-69179008D01*
X102946200Y-69454192D01*
X102999886Y-69724090D01*
X103105195Y-69978327D01*
X103258080Y-70207135D01*
X103452665Y-70401720D01*
X103681473Y-70554605D01*
X103758715Y-70586600D01*
X103681473Y-70618595D01*
X103452665Y-70771480D01*
X103258080Y-70966065D01*
X103105195Y-71194873D01*
X102999886Y-71449110D01*
X102946200Y-71719008D01*
X102946200Y-71994192D01*
X102999886Y-72264090D01*
X103105195Y-72518327D01*
X103258080Y-72747135D01*
X103452665Y-72941720D01*
X103681473Y-73094605D01*
X103758715Y-73126600D01*
X103681473Y-73158595D01*
X103452665Y-73311480D01*
X103258080Y-73506065D01*
X103105195Y-73734873D01*
X102999886Y-73989110D01*
X102946200Y-74259008D01*
X102946200Y-74534192D01*
X102999886Y-74804090D01*
X103105195Y-75058327D01*
X103258080Y-75287135D01*
X103452665Y-75481720D01*
X103681473Y-75634605D01*
X103758715Y-75666600D01*
X103681473Y-75698595D01*
X103452665Y-75851480D01*
X103258080Y-76046065D01*
X103105195Y-76274873D01*
X102999886Y-76529110D01*
X102946200Y-76799008D01*
X102946200Y-77074192D01*
X102999886Y-77344090D01*
X103105195Y-77598327D01*
X103258080Y-77827135D01*
X103452665Y-78021720D01*
X103681473Y-78174605D01*
X103758715Y-78206600D01*
X103681473Y-78238595D01*
X103452665Y-78391480D01*
X103258080Y-78586065D01*
X103105195Y-78814873D01*
X102999886Y-79069110D01*
X102946200Y-79339008D01*
X102946200Y-79614192D01*
X102999886Y-79884090D01*
X103105195Y-80138327D01*
X103258080Y-80367135D01*
X103452665Y-80561720D01*
X103681473Y-80714605D01*
X103758715Y-80746600D01*
X103681473Y-80778595D01*
X103452665Y-80931480D01*
X103258080Y-81126065D01*
X103105195Y-81354873D01*
X102999886Y-81609110D01*
X102946200Y-81879008D01*
X102946200Y-82154192D01*
X102999886Y-82424090D01*
X103105195Y-82678327D01*
X103258080Y-82907135D01*
X103452665Y-83101720D01*
X103681473Y-83254605D01*
X103753143Y-83284292D01*
X103740177Y-83288964D01*
X103624220Y-83350944D01*
X103557240Y-83591035D01*
X104343200Y-84376995D01*
X105129160Y-83591035D01*
X105062180Y-83350944D01*
X104926440Y-83287115D01*
X105004927Y-83254605D01*
X105233735Y-83101720D01*
X105428320Y-82907135D01*
X105581205Y-82678327D01*
X105686514Y-82424090D01*
X105740200Y-82154192D01*
X105740200Y-81879008D01*
X105686514Y-81609110D01*
X105581205Y-81354873D01*
X105428320Y-81126065D01*
X105233735Y-80931480D01*
X105004927Y-80778595D01*
X104927685Y-80746600D01*
X105004927Y-80714605D01*
X105233735Y-80561720D01*
X105428320Y-80367135D01*
X105581205Y-80138327D01*
X105686514Y-79884090D01*
X105740200Y-79614192D01*
X105740200Y-79339008D01*
X105686514Y-79069110D01*
X105581205Y-78814873D01*
X105428320Y-78586065D01*
X105233735Y-78391480D01*
X105129152Y-78321600D01*
X106309515Y-78321600D01*
X107327001Y-79339087D01*
X107327000Y-101080301D01*
X107277000Y-101331665D01*
X107277000Y-101614335D01*
X107332147Y-101891574D01*
X107440320Y-102152727D01*
X107597363Y-102387759D01*
X107797241Y-102587637D01*
X108032273Y-102744680D01*
X108293426Y-102852853D01*
X108570665Y-102908000D01*
X108853335Y-102908000D01*
X109130574Y-102852853D01*
X109391727Y-102744680D01*
X109626759Y-102587637D01*
X109826637Y-102387759D01*
X109983680Y-102152727D01*
X110091853Y-101891574D01*
X110147000Y-101614335D01*
X110147000Y-101331665D01*
X110097000Y-101080301D01*
X110097000Y-93641593D01*
X121091812Y-93641593D01*
X121157337Y-93880460D01*
X121404316Y-93996360D01*
X121669160Y-94061850D01*
X121941692Y-94074412D01*
X122211438Y-94033565D01*
X122468032Y-93940877D01*
X122581063Y-93880460D01*
X122646588Y-93641593D01*
X121869200Y-92864205D01*
X121091812Y-93641593D01*
X110097000Y-93641593D01*
X110097000Y-92757092D01*
X120479388Y-92757092D01*
X120520235Y-93026838D01*
X120612923Y-93283432D01*
X120673340Y-93396463D01*
X120912207Y-93461988D01*
X121689595Y-92684600D01*
X122048805Y-92684600D01*
X122826193Y-93461988D01*
X123065060Y-93396463D01*
X123180960Y-93149484D01*
X123246450Y-92884640D01*
X123259012Y-92612108D01*
X123218165Y-92342362D01*
X123125477Y-92085768D01*
X123065060Y-91972737D01*
X122826193Y-91907212D01*
X122048805Y-92684600D01*
X121689595Y-92684600D01*
X120912207Y-91907212D01*
X120673340Y-91972737D01*
X120557440Y-92219716D01*
X120491950Y-92484560D01*
X120479388Y-92757092D01*
X110097000Y-92757092D01*
X110097000Y-78833429D01*
X110103700Y-78765400D01*
X110097000Y-78697371D01*
X110097000Y-78697363D01*
X110076960Y-78493893D01*
X109997764Y-78232819D01*
X109869157Y-77992212D01*
X109810453Y-77920681D01*
X109739452Y-77834166D01*
X109739450Y-77834164D01*
X109696081Y-77781319D01*
X109643236Y-77737950D01*
X107910654Y-76005369D01*
X107867281Y-75952519D01*
X107659016Y-75781600D01*
X116291715Y-75781600D01*
X116776777Y-76266663D01*
X116919163Y-76479759D01*
X117119041Y-76679637D01*
X117354073Y-76836680D01*
X117615226Y-76944853D01*
X117892465Y-77000000D01*
X118175135Y-77000000D01*
X118452374Y-76944853D01*
X118713527Y-76836680D01*
X118948559Y-76679637D01*
X119148437Y-76479759D01*
X119305480Y-76244727D01*
X119413653Y-75983574D01*
X119468800Y-75706335D01*
X119468800Y-75423665D01*
X119413653Y-75146426D01*
X119305480Y-74885273D01*
X119148437Y-74650241D01*
X118948559Y-74450363D01*
X118735463Y-74307977D01*
X117892854Y-73465369D01*
X117849481Y-73412519D01*
X117638588Y-73239443D01*
X117397981Y-73110836D01*
X117136907Y-73031640D01*
X116933437Y-73011600D01*
X116933429Y-73011600D01*
X116865400Y-73004900D01*
X116797371Y-73011600D01*
X109157616Y-73011600D01*
X109365881Y-72840681D01*
X109409254Y-72787831D01*
X110094692Y-72102393D01*
X119847212Y-72102393D01*
X119912737Y-72341260D01*
X120159716Y-72457160D01*
X120424560Y-72522650D01*
X120697092Y-72535212D01*
X120966838Y-72494365D01*
X121223432Y-72401677D01*
X121336463Y-72341260D01*
X121401988Y-72102393D01*
X120624600Y-71325005D01*
X119847212Y-72102393D01*
X110094692Y-72102393D01*
X110979193Y-71217892D01*
X119234788Y-71217892D01*
X119275635Y-71487638D01*
X119368323Y-71744232D01*
X119428740Y-71857263D01*
X119667607Y-71922788D01*
X120444995Y-71145400D01*
X120804205Y-71145400D01*
X121581593Y-71922788D01*
X121820460Y-71857263D01*
X121936360Y-71610284D01*
X122001850Y-71345440D01*
X122014412Y-71072908D01*
X121973565Y-70803162D01*
X121880877Y-70546568D01*
X121820460Y-70433537D01*
X121581593Y-70368012D01*
X120804205Y-71145400D01*
X120444995Y-71145400D01*
X119667607Y-70368012D01*
X119428740Y-70433537D01*
X119312840Y-70680516D01*
X119247350Y-70945360D01*
X119234788Y-71217892D01*
X110979193Y-71217892D01*
X112056236Y-70140850D01*
X112109081Y-70097481D01*
X112196961Y-69990400D01*
X112282157Y-69886588D01*
X112410764Y-69645981D01*
X112489960Y-69384907D01*
X112490582Y-69378587D01*
X112510000Y-69181437D01*
X112510000Y-69181429D01*
X112516700Y-69113400D01*
X112510000Y-69045371D01*
X112510000Y-62524285D01*
X113984686Y-61049600D01*
X115177301Y-61049600D01*
X115428665Y-61099600D01*
X115711335Y-61099600D01*
X115988574Y-61044453D01*
X116249727Y-60936280D01*
X116484759Y-60779237D01*
X116684637Y-60579359D01*
X116841680Y-60344327D01*
X116949853Y-60083174D01*
X117005000Y-59805935D01*
X117005000Y-59523265D01*
X116949853Y-59246026D01*
X116841680Y-58984873D01*
X116684637Y-58749841D01*
X116484759Y-58549963D01*
X116249727Y-58392920D01*
X115988574Y-58284747D01*
X115711335Y-58229600D01*
X115428665Y-58229600D01*
X115177301Y-58279600D01*
X113479026Y-58279600D01*
X113410999Y-58272900D01*
X113342972Y-58279600D01*
X113342963Y-58279600D01*
X113139493Y-58299640D01*
X112878419Y-58378836D01*
X112637812Y-58507443D01*
X112637810Y-58507444D01*
X112637811Y-58507444D01*
X112479766Y-58637148D01*
X112479764Y-58637150D01*
X112426919Y-58680519D01*
X112383550Y-58733364D01*
X110193765Y-60923150D01*
X110140919Y-60966520D01*
X110097550Y-61019365D01*
X110097548Y-61019367D01*
X110031703Y-61099600D01*
X109995400Y-61143835D01*
X109995400Y-51452193D01*
X117485012Y-51452193D01*
X117550537Y-51691060D01*
X117797516Y-51806960D01*
X118062360Y-51872450D01*
X118334892Y-51885012D01*
X118604638Y-51844165D01*
X118861232Y-51751477D01*
X118974263Y-51691060D01*
X119039788Y-51452193D01*
X118262400Y-50674805D01*
X117485012Y-51452193D01*
X109995400Y-51452193D01*
X109995400Y-50567692D01*
X116872588Y-50567692D01*
X116913435Y-50837438D01*
X117006123Y-51094032D01*
X117066540Y-51207063D01*
X117305407Y-51272588D01*
X118082795Y-50495200D01*
X118442005Y-50495200D01*
X119219393Y-51272588D01*
X119458260Y-51207063D01*
X119574160Y-50960084D01*
X119639650Y-50695240D01*
X119652212Y-50422708D01*
X119611365Y-50152962D01*
X119518677Y-49896368D01*
X119458260Y-49783337D01*
X119219393Y-49717812D01*
X118442005Y-50495200D01*
X118082795Y-50495200D01*
X117305407Y-49717812D01*
X117066540Y-49783337D01*
X116950640Y-50030316D01*
X116885150Y-50295160D01*
X116872588Y-50567692D01*
X109995400Y-50567692D01*
X109995400Y-40934285D01*
X110682686Y-40247000D01*
X112230901Y-40247000D01*
X112482265Y-40297000D01*
X112764935Y-40297000D01*
X113042174Y-40241853D01*
X113303327Y-40133680D01*
X113538359Y-39976637D01*
X113738237Y-39776759D01*
X113895280Y-39541727D01*
X114003453Y-39280574D01*
X114058600Y-39003335D01*
X114058600Y-38720665D01*
X114003453Y-38443426D01*
X113895280Y-38182273D01*
X113738237Y-37947241D01*
X113538359Y-37747363D01*
X113303327Y-37590320D01*
X113042174Y-37482147D01*
X112764935Y-37427000D01*
X112482265Y-37427000D01*
X112230901Y-37477000D01*
X110177026Y-37477000D01*
X110108999Y-37470300D01*
X110040972Y-37477000D01*
X110040963Y-37477000D01*
X109837493Y-37497040D01*
X109576419Y-37576236D01*
X109335812Y-37704843D01*
X109335810Y-37704844D01*
X109335811Y-37704844D01*
X109177766Y-37834548D01*
X109177764Y-37834550D01*
X109124919Y-37877919D01*
X109081550Y-37930764D01*
X107679164Y-39333151D01*
X107626320Y-39376519D01*
X107582951Y-39429364D01*
X107582948Y-39429367D01*
X107453244Y-39587412D01*
X107324636Y-39828020D01*
X107245440Y-40089093D01*
X107218700Y-40360600D01*
X107225401Y-40428639D01*
X107225400Y-66126714D01*
X105420515Y-67931600D01*
X105076312Y-67931600D01*
X105129160Y-67742165D01*
X104343200Y-66956205D01*
X103557240Y-67742165D01*
X103624220Y-67982256D01*
X103759960Y-68046085D01*
X103681473Y-68078595D01*
X103452665Y-68231480D01*
X103258080Y-68426065D01*
X103105195Y-68654873D01*
X102999886Y-68909110D01*
X102946200Y-69179008D01*
X77800200Y-69179008D01*
X77746514Y-68909110D01*
X77641205Y-68654873D01*
X77488320Y-68426065D01*
X77293735Y-68231480D01*
X77064927Y-68078595D01*
X76987685Y-68046600D01*
X77064927Y-68014605D01*
X77293735Y-67861720D01*
X77488320Y-67667135D01*
X77641205Y-67438327D01*
X77746514Y-67184090D01*
X77800200Y-66914192D01*
X77800200Y-66848617D01*
X102941290Y-66848617D01*
X102982278Y-67120733D01*
X103075564Y-67379623D01*
X103137544Y-67495580D01*
X103377635Y-67562560D01*
X104163595Y-66776600D01*
X104522805Y-66776600D01*
X105308765Y-67562560D01*
X105548856Y-67495580D01*
X105665956Y-67246552D01*
X105732223Y-66979465D01*
X105745110Y-66704583D01*
X105704122Y-66432467D01*
X105610836Y-66173577D01*
X105548856Y-66057620D01*
X105308765Y-65990640D01*
X104522805Y-66776600D01*
X104163595Y-66776600D01*
X103377635Y-65990640D01*
X103137544Y-66057620D01*
X103020444Y-66306648D01*
X102954177Y-66573735D01*
X102941290Y-66848617D01*
X77800200Y-66848617D01*
X77800200Y-66639008D01*
X77746514Y-66369110D01*
X77641205Y-66114873D01*
X77488320Y-65886065D01*
X77293735Y-65691480D01*
X77064927Y-65538595D01*
X76987685Y-65506600D01*
X77064927Y-65474605D01*
X77293735Y-65321720D01*
X77488320Y-65127135D01*
X77641205Y-64898327D01*
X77746514Y-64644090D01*
X77800200Y-64374192D01*
X77800200Y-64099008D01*
X77746514Y-63829110D01*
X77641205Y-63574873D01*
X77488320Y-63346065D01*
X77293735Y-63151480D01*
X77064927Y-62998595D01*
X76987685Y-62966600D01*
X77064927Y-62934605D01*
X77293735Y-62781720D01*
X77488320Y-62587135D01*
X77641205Y-62358327D01*
X77746514Y-62104090D01*
X77800200Y-61834192D01*
X77800200Y-61559008D01*
X77746514Y-61289110D01*
X77641205Y-61034873D01*
X77488320Y-60806065D01*
X77293735Y-60611480D01*
X77064927Y-60458595D01*
X76987685Y-60426600D01*
X77064927Y-60394605D01*
X77293735Y-60241720D01*
X77488320Y-60047135D01*
X77641205Y-59818327D01*
X77746514Y-59564090D01*
X77800200Y-59294192D01*
X77800200Y-59019008D01*
X77746514Y-58749110D01*
X77641205Y-58494873D01*
X77488320Y-58266065D01*
X77293735Y-58071480D01*
X77064927Y-57918595D01*
X76987685Y-57886600D01*
X77064927Y-57854605D01*
X77293735Y-57701720D01*
X77488320Y-57507135D01*
X77641205Y-57278327D01*
X77746514Y-57024090D01*
X77800200Y-56754192D01*
X77800200Y-56479008D01*
X77746514Y-56209110D01*
X77641205Y-55954873D01*
X77488320Y-55726065D01*
X77293735Y-55531480D01*
X77064927Y-55378595D01*
X76993257Y-55348908D01*
X77006223Y-55344236D01*
X77122180Y-55282256D01*
X77189160Y-55042165D01*
X76403200Y-54256205D01*
X75617240Y-55042165D01*
X75684220Y-55282256D01*
X75819960Y-55346085D01*
X75741473Y-55378595D01*
X75512665Y-55531480D01*
X75318080Y-55726065D01*
X75165195Y-55954873D01*
X75059886Y-56209110D01*
X75006200Y-56479008D01*
X70316371Y-56479008D01*
X70351676Y-56412110D01*
X70307025Y-56264901D01*
X70181841Y-56002080D01*
X70007788Y-55768731D01*
X69791555Y-55573822D01*
X69674666Y-55504195D01*
X69856832Y-55382475D01*
X70063675Y-55175632D01*
X70226190Y-54932411D01*
X70338132Y-54662158D01*
X70395200Y-54375260D01*
X70395200Y-54148617D01*
X75001290Y-54148617D01*
X75042278Y-54420733D01*
X75135564Y-54679623D01*
X75197544Y-54795580D01*
X75437635Y-54862560D01*
X76223595Y-54076600D01*
X76582805Y-54076600D01*
X77368765Y-54862560D01*
X77608856Y-54795580D01*
X77725956Y-54546552D01*
X77792223Y-54279465D01*
X77805110Y-54004583D01*
X77764122Y-53732467D01*
X77670836Y-53473577D01*
X77608856Y-53357620D01*
X77368765Y-53290640D01*
X76582805Y-54076600D01*
X76223595Y-54076600D01*
X75437635Y-53290640D01*
X75197544Y-53357620D01*
X75080444Y-53606648D01*
X75014177Y-53873735D01*
X75001290Y-54148617D01*
X70395200Y-54148617D01*
X70395200Y-54082740D01*
X70338132Y-53795842D01*
X70226190Y-53525589D01*
X70063675Y-53282368D01*
X69856832Y-53075525D01*
X69854550Y-53074000D01*
X75627572Y-53074000D01*
X75617240Y-53111035D01*
X76403200Y-53896995D01*
X77189160Y-53111035D01*
X77122180Y-52870944D01*
X77040554Y-52832561D01*
X77234881Y-52673081D01*
X77256752Y-52646431D01*
X77293735Y-52621720D01*
X77488320Y-52427135D01*
X77641205Y-52198327D01*
X77746514Y-51944090D01*
X77800200Y-51674192D01*
X77800200Y-51399008D01*
X77746514Y-51129110D01*
X77641205Y-50874873D01*
X77488320Y-50646065D01*
X77376255Y-50534000D01*
X81214315Y-50534000D01*
X93308150Y-62627836D01*
X93351519Y-62680681D01*
X93404364Y-62724050D01*
X93404366Y-62724052D01*
X93443294Y-62755999D01*
X93562412Y-62853757D01*
X93803019Y-62982364D01*
X94064093Y-63061560D01*
X94267563Y-63081600D01*
X94267572Y-63081600D01*
X94335599Y-63088300D01*
X94403626Y-63081600D01*
X103557248Y-63081600D01*
X103452665Y-63151480D01*
X103258080Y-63346065D01*
X103105195Y-63574873D01*
X102999886Y-63829110D01*
X102946200Y-64099008D01*
X102946200Y-64374192D01*
X102999886Y-64644090D01*
X103105195Y-64898327D01*
X103258080Y-65127135D01*
X103452665Y-65321720D01*
X103681473Y-65474605D01*
X103753143Y-65504292D01*
X103740177Y-65508964D01*
X103624220Y-65570944D01*
X103557240Y-65811035D01*
X104343200Y-66596995D01*
X105129160Y-65811035D01*
X105062180Y-65570944D01*
X104926440Y-65507115D01*
X105004927Y-65474605D01*
X105233735Y-65321720D01*
X105428320Y-65127135D01*
X105581205Y-64898327D01*
X105686514Y-64644090D01*
X105740200Y-64374192D01*
X105740200Y-64099008D01*
X105686514Y-63829110D01*
X105581205Y-63574873D01*
X105428320Y-63346065D01*
X105233735Y-63151480D01*
X105004927Y-62998595D01*
X104927685Y-62966600D01*
X105004927Y-62934605D01*
X105233735Y-62781720D01*
X105428320Y-62587135D01*
X105581205Y-62358327D01*
X105686514Y-62104090D01*
X105740200Y-61834192D01*
X105740200Y-61559008D01*
X105686514Y-61289110D01*
X105581205Y-61034873D01*
X105428320Y-60806065D01*
X105233735Y-60611480D01*
X105004927Y-60458595D01*
X104927685Y-60426600D01*
X105004927Y-60394605D01*
X105233735Y-60241720D01*
X105428320Y-60047135D01*
X105581205Y-59818327D01*
X105686514Y-59564090D01*
X105740200Y-59294192D01*
X105740200Y-59019008D01*
X105686514Y-58749110D01*
X105581205Y-58494873D01*
X105428320Y-58266065D01*
X105233735Y-58071480D01*
X105004927Y-57918595D01*
X104927685Y-57886600D01*
X105004927Y-57854605D01*
X105233735Y-57701720D01*
X105428320Y-57507135D01*
X105581205Y-57278327D01*
X105686514Y-57024090D01*
X105740200Y-56754192D01*
X105740200Y-56479008D01*
X105686514Y-56209110D01*
X105581205Y-55954873D01*
X105428320Y-55726065D01*
X105233735Y-55531480D01*
X105004927Y-55378595D01*
X104927685Y-55346600D01*
X105004927Y-55314605D01*
X105233735Y-55161720D01*
X105428320Y-54967135D01*
X105581205Y-54738327D01*
X105686514Y-54484090D01*
X105740200Y-54214192D01*
X105740200Y-53939008D01*
X105686514Y-53669110D01*
X105581205Y-53414873D01*
X105428320Y-53186065D01*
X105233735Y-52991480D01*
X105004927Y-52838595D01*
X104927685Y-52806600D01*
X105004927Y-52774605D01*
X105233735Y-52621720D01*
X105428320Y-52427135D01*
X105462492Y-52375993D01*
X105477635Y-52360850D01*
X105530480Y-52317481D01*
X105703557Y-52106588D01*
X105832164Y-51865981D01*
X105911360Y-51604907D01*
X105931400Y-51401437D01*
X105931400Y-51401427D01*
X105938100Y-51333401D01*
X105931400Y-51265374D01*
X105931400Y-37784201D01*
X105945080Y-37763727D01*
X106053253Y-37502574D01*
X106073219Y-37402200D01*
X107260077Y-37402200D01*
X107355737Y-37466118D01*
X107653288Y-37589368D01*
X107969167Y-37652200D01*
X108291233Y-37652200D01*
X108607112Y-37589368D01*
X108904663Y-37466118D01*
X109000323Y-37402200D01*
X113760077Y-37402200D01*
X113855737Y-37466118D01*
X114153288Y-37589368D01*
X114469167Y-37652200D01*
X114791233Y-37652200D01*
X115107112Y-37589368D01*
X115404663Y-37466118D01*
X115672452Y-37287187D01*
X115900187Y-37059452D01*
X116079118Y-36791663D01*
X116202368Y-36494112D01*
X116265200Y-36178233D01*
X116265200Y-35856167D01*
X116202368Y-35540288D01*
X116079118Y-35242737D01*
X115900187Y-34974948D01*
X115672452Y-34747213D01*
X115404663Y-34568282D01*
X115107112Y-34445032D01*
X114791233Y-34382200D01*
X114469167Y-34382200D01*
X114153288Y-34445032D01*
X113855737Y-34568282D01*
X113760077Y-34632200D01*
X109000323Y-34632200D01*
X108904663Y-34568282D01*
X108607112Y-34445032D01*
X108291233Y-34382200D01*
X107969167Y-34382200D01*
X107653288Y-34445032D01*
X107355737Y-34568282D01*
X107260077Y-34632200D01*
X105363726Y-34632200D01*
X105295699Y-34625500D01*
X105227672Y-34632200D01*
X105227663Y-34632200D01*
X105024193Y-34652240D01*
X104763119Y-34731436D01*
X104522512Y-34860043D01*
X104311619Y-35033119D01*
X104268246Y-35085969D01*
X103742165Y-35612050D01*
X103689320Y-35655419D01*
X103516243Y-35866312D01*
X103387636Y-36106919D01*
X103308440Y-36367993D01*
X103297091Y-36483218D01*
X103260637Y-36551419D01*
X103181441Y-36812493D01*
X103161401Y-37015963D01*
X103161400Y-50790756D01*
X103105195Y-50874873D01*
X102999886Y-51129110D01*
X102946200Y-51399008D01*
X102946200Y-51674192D01*
X102999886Y-51944090D01*
X103105195Y-52198327D01*
X103258080Y-52427135D01*
X103452665Y-52621720D01*
X103557248Y-52691600D01*
X101259286Y-52691600D01*
X98717800Y-50150115D01*
X98717800Y-35163593D01*
X98778620Y-35196102D01*
X98898318Y-35232412D01*
X99022800Y-35244672D01*
X99587050Y-35241600D01*
X99745800Y-35082850D01*
X99745800Y-33883600D01*
X99999800Y-33883600D01*
X99999800Y-35082850D01*
X100158550Y-35241600D01*
X100722800Y-35244672D01*
X100847282Y-35232412D01*
X100966980Y-35196102D01*
X101077294Y-35137137D01*
X101173985Y-35057785D01*
X101253337Y-34961094D01*
X101312302Y-34850780D01*
X101348612Y-34731082D01*
X101360872Y-34606600D01*
X101357800Y-34042350D01*
X101199050Y-33883600D01*
X99999800Y-33883600D01*
X99745800Y-33883600D01*
X99725800Y-33883600D01*
X99725800Y-33629600D01*
X99745800Y-33629600D01*
X99745800Y-32430350D01*
X99999800Y-32430350D01*
X99999800Y-33629600D01*
X101199050Y-33629600D01*
X101357800Y-33470850D01*
X101360872Y-32906600D01*
X101348612Y-32782118D01*
X101312302Y-32662420D01*
X101307060Y-32652613D01*
X107174392Y-32652613D01*
X107270156Y-32917014D01*
X107559771Y-33057904D01*
X107871308Y-33139584D01*
X108192795Y-33158918D01*
X108511875Y-33115161D01*
X108816288Y-33009995D01*
X108990244Y-32917014D01*
X109086008Y-32652613D01*
X113674392Y-32652613D01*
X113770156Y-32917014D01*
X114059771Y-33057904D01*
X114371308Y-33139584D01*
X114692795Y-33158918D01*
X115011875Y-33115161D01*
X115316288Y-33009995D01*
X115490244Y-32917014D01*
X115586008Y-32652613D01*
X114630200Y-31696805D01*
X113674392Y-32652613D01*
X109086008Y-32652613D01*
X108130200Y-31696805D01*
X107174392Y-32652613D01*
X101307060Y-32652613D01*
X101253337Y-32552106D01*
X101173985Y-32455415D01*
X101077294Y-32376063D01*
X100966980Y-32317098D01*
X100847282Y-32280788D01*
X100722800Y-32268528D01*
X100158550Y-32271600D01*
X99999800Y-32430350D01*
X99745800Y-32430350D01*
X99587050Y-32271600D01*
X99022800Y-32268528D01*
X98898318Y-32280788D01*
X98778620Y-32317098D01*
X98717800Y-32349607D01*
X98717800Y-31790285D01*
X98998686Y-31509400D01*
X100419901Y-31509400D01*
X100671265Y-31559400D01*
X100953935Y-31559400D01*
X101231174Y-31504253D01*
X101492327Y-31396080D01*
X101727359Y-31239037D01*
X101927237Y-31039159D01*
X102084280Y-30804127D01*
X102192453Y-30542974D01*
X102247600Y-30265735D01*
X102247600Y-29983065D01*
X102192453Y-29705826D01*
X102084280Y-29444673D01*
X101927237Y-29209641D01*
X101727359Y-29009763D01*
X101492327Y-28852720D01*
X101231174Y-28744547D01*
X100953935Y-28689400D01*
X100671265Y-28689400D01*
X100419901Y-28739400D01*
X98493028Y-28739400D01*
X98424999Y-28732700D01*
X98356970Y-28739400D01*
X98356963Y-28739400D01*
X98179099Y-28756918D01*
X98153492Y-28759440D01*
X98069760Y-28784840D01*
X97892419Y-28838636D01*
X97651812Y-28967243D01*
X97620862Y-28992643D01*
X97493766Y-29096948D01*
X97493764Y-29096950D01*
X97440919Y-29140319D01*
X97397550Y-29193164D01*
X96401564Y-30189151D01*
X96348720Y-30232519D01*
X96305351Y-30285364D01*
X96305348Y-30285367D01*
X96175644Y-30443412D01*
X96047036Y-30684020D01*
X95967840Y-30945093D01*
X95941100Y-31216600D01*
X95947801Y-31284639D01*
X95947801Y-32472784D01*
X95820252Y-32317366D01*
X95820250Y-32317364D01*
X95776881Y-32264519D01*
X95724036Y-32221150D01*
X94603000Y-31100115D01*
X94603000Y-30389406D01*
X94627600Y-30265735D01*
X94627600Y-29983065D01*
X94572453Y-29705826D01*
X94464280Y-29444673D01*
X94307237Y-29209641D01*
X94107359Y-29009763D01*
X93872327Y-28852720D01*
X93611174Y-28744547D01*
X93333935Y-28689400D01*
X93051265Y-28689400D01*
X92774026Y-28744547D01*
X92512873Y-28852720D01*
X92277841Y-29009763D01*
X92077963Y-29209641D01*
X91920920Y-29444673D01*
X91812747Y-29705826D01*
X91757600Y-29983065D01*
X91757600Y-30265735D01*
X91812747Y-30542974D01*
X91833000Y-30591869D01*
X91833000Y-31100114D01*
X91323515Y-31609600D01*
X91221393Y-31609600D01*
X91253902Y-31548780D01*
X91290212Y-31429082D01*
X91302472Y-31304600D01*
X91299400Y-30740350D01*
X91140650Y-30581600D01*
X89941400Y-30581600D01*
X89941400Y-30601600D01*
X89687400Y-30601600D01*
X89687400Y-30581600D01*
X88488150Y-30581600D01*
X88329400Y-30740350D01*
X88326328Y-31304600D01*
X88338588Y-31429082D01*
X88374898Y-31548780D01*
X88407407Y-31609600D01*
X87898885Y-31609600D01*
X87641454Y-31352169D01*
X87598081Y-31299319D01*
X87387188Y-31126243D01*
X87146581Y-30997636D01*
X86885507Y-30918440D01*
X86792344Y-30909264D01*
X86947014Y-30853244D01*
X87087904Y-30563629D01*
X87169584Y-30252092D01*
X87188918Y-29930605D01*
X87145161Y-29611525D01*
X87142769Y-29604600D01*
X88326328Y-29604600D01*
X88329400Y-30168850D01*
X88488150Y-30327600D01*
X89687400Y-30327600D01*
X89687400Y-29128350D01*
X89941400Y-29128350D01*
X89941400Y-30327600D01*
X91140650Y-30327600D01*
X91299400Y-30168850D01*
X91302472Y-29604600D01*
X91290212Y-29480118D01*
X91253902Y-29360420D01*
X91194937Y-29250106D01*
X91115585Y-29153415D01*
X91018894Y-29074063D01*
X90908580Y-29015098D01*
X90788882Y-28978788D01*
X90664400Y-28966528D01*
X90100150Y-28969600D01*
X89941400Y-29128350D01*
X89687400Y-29128350D01*
X89528650Y-28969600D01*
X88964400Y-28966528D01*
X88839918Y-28978788D01*
X88720220Y-29015098D01*
X88609906Y-29074063D01*
X88513215Y-29153415D01*
X88433863Y-29250106D01*
X88374898Y-29360420D01*
X88338588Y-29480118D01*
X88326328Y-29604600D01*
X87142769Y-29604600D01*
X87039995Y-29307112D01*
X86947014Y-29133156D01*
X86682613Y-29037392D01*
X85726805Y-29993200D01*
X85740948Y-30007343D01*
X85561343Y-30186948D01*
X85547200Y-30172805D01*
X85533058Y-30186948D01*
X85353453Y-30007343D01*
X85367595Y-29993200D01*
X84411787Y-29037392D01*
X84147386Y-29133156D01*
X84006496Y-29422771D01*
X83924816Y-29734308D01*
X83905482Y-30055795D01*
X83949239Y-30374875D01*
X84054405Y-30679288D01*
X84147386Y-30853244D01*
X84272060Y-30898400D01*
X80322340Y-30898400D01*
X80447014Y-30853244D01*
X80587904Y-30563629D01*
X80669584Y-30252092D01*
X80688918Y-29930605D01*
X80645161Y-29611525D01*
X80539995Y-29307112D01*
X80447014Y-29133156D01*
X80182613Y-29037392D01*
X79226805Y-29993200D01*
X79240948Y-30007343D01*
X79061343Y-30186948D01*
X79047200Y-30172805D01*
X79033058Y-30186948D01*
X78853453Y-30007343D01*
X78867595Y-29993200D01*
X77911787Y-29037392D01*
X77647386Y-29133156D01*
X77506496Y-29422771D01*
X77424816Y-29734308D01*
X77405482Y-30055795D01*
X77449239Y-30374875D01*
X77554405Y-30679288D01*
X77647386Y-30853244D01*
X77772060Y-30898400D01*
X75617986Y-30898400D01*
X75275786Y-30556200D01*
X76737724Y-29094262D01*
X76922388Y-28995557D01*
X77090260Y-28857787D01*
X78091392Y-28857787D01*
X79047200Y-29813595D01*
X80003008Y-28857787D01*
X84591392Y-28857787D01*
X85547200Y-29813595D01*
X86503008Y-28857787D01*
X86407244Y-28593386D01*
X86117629Y-28452496D01*
X85806092Y-28370816D01*
X85484605Y-28351482D01*
X85165525Y-28395239D01*
X84861112Y-28500405D01*
X84687156Y-28593386D01*
X84591392Y-28857787D01*
X80003008Y-28857787D01*
X79907244Y-28593386D01*
X79617629Y-28452496D01*
X79306092Y-28370816D01*
X78984605Y-28351482D01*
X78665525Y-28395239D01*
X78361112Y-28500405D01*
X78187156Y-28593386D01*
X78091392Y-28857787D01*
X77090260Y-28857787D01*
X77133281Y-28822481D01*
X77176654Y-28769631D01*
X79186686Y-26759600D01*
X102575715Y-26759600D01*
X103288400Y-27472285D01*
X103288401Y-29071297D01*
X103238400Y-29322665D01*
X103238400Y-29605335D01*
X103293547Y-29882574D01*
X103401720Y-30143727D01*
X103558763Y-30378759D01*
X103758641Y-30578637D01*
X103993673Y-30735680D01*
X104254826Y-30843853D01*
X104532065Y-30899000D01*
X104814735Y-30899000D01*
X105066099Y-30849000D01*
X106637059Y-30849000D01*
X106589496Y-30946771D01*
X106507816Y-31258308D01*
X106488482Y-31579795D01*
X106532239Y-31898875D01*
X106637405Y-32203288D01*
X106730386Y-32377244D01*
X106994787Y-32473008D01*
X107950595Y-31517200D01*
X107936453Y-31503058D01*
X108116058Y-31323453D01*
X108130200Y-31337595D01*
X108144343Y-31323453D01*
X108323948Y-31503058D01*
X108309805Y-31517200D01*
X109265613Y-32473008D01*
X109530014Y-32377244D01*
X109670904Y-32087629D01*
X109752584Y-31776092D01*
X109771918Y-31454605D01*
X109728161Y-31135525D01*
X109629175Y-30849000D01*
X113137059Y-30849000D01*
X113089496Y-30946771D01*
X113007816Y-31258308D01*
X112988482Y-31579795D01*
X113032239Y-31898875D01*
X113137405Y-32203288D01*
X113230386Y-32377244D01*
X113494787Y-32473008D01*
X114450595Y-31517200D01*
X114436453Y-31503058D01*
X114616058Y-31323453D01*
X114630200Y-31337595D01*
X114644343Y-31323453D01*
X114823948Y-31503058D01*
X114809805Y-31517200D01*
X115765613Y-32473008D01*
X116030014Y-32377244D01*
X116170904Y-32087629D01*
X116252584Y-31776092D01*
X116271918Y-31454605D01*
X116228161Y-31135525D01*
X116129175Y-30849000D01*
X116723515Y-30849000D01*
X116752928Y-30878413D01*
X116752928Y-33053200D01*
X116765188Y-33177682D01*
X116801498Y-33297380D01*
X116860463Y-33407694D01*
X116939815Y-33504385D01*
X117036506Y-33583737D01*
X117146820Y-33642702D01*
X117266518Y-33679012D01*
X117391000Y-33691272D01*
X119591000Y-33691272D01*
X119715482Y-33679012D01*
X119835180Y-33642702D01*
X119945494Y-33583737D01*
X120042185Y-33504385D01*
X120121537Y-33407694D01*
X120180502Y-33297380D01*
X120216812Y-33177682D01*
X120229072Y-33053200D01*
X120229072Y-30853200D01*
X120216812Y-30728718D01*
X120201301Y-30677585D01*
X120309286Y-30569600D01*
X123225915Y-30569600D01*
X123939577Y-31283263D01*
X124081963Y-31496359D01*
X124281841Y-31696237D01*
X124516873Y-31853280D01*
X124778026Y-31961453D01*
X125055265Y-32016600D01*
X125337935Y-32016600D01*
X125589299Y-31966600D01*
X129631327Y-31966600D01*
X129628091Y-32522624D01*
X129370765Y-32779950D01*
X129317919Y-32823320D01*
X129274550Y-32876165D01*
X129274548Y-32876167D01*
X129186534Y-32983412D01*
X129144843Y-33034213D01*
X129043390Y-33224019D01*
X129016236Y-33274820D01*
X128937040Y-33535893D01*
X128934942Y-33557198D01*
X128917000Y-33739364D01*
X128917000Y-33739371D01*
X128910300Y-33807400D01*
X128917000Y-33875429D01*
X128917001Y-40140161D01*
X128910300Y-40208200D01*
X128937040Y-40479707D01*
X129016236Y-40740780D01*
X129144844Y-40981388D01*
X129274548Y-41139433D01*
X129274551Y-41139436D01*
X129317920Y-41192281D01*
X129370764Y-41235649D01*
X129576190Y-41441075D01*
X129568513Y-42760200D01*
X126531981Y-42760200D01*
X126476494Y-42714663D01*
X126366180Y-42655698D01*
X126347873Y-42650144D01*
X126414312Y-42583705D01*
X126582299Y-42332295D01*
X126698011Y-42052943D01*
X126757000Y-41756384D01*
X126757000Y-41454016D01*
X126698011Y-41157457D01*
X126607000Y-40937738D01*
X126607000Y-38466606D01*
X126631600Y-38342935D01*
X126631600Y-38060265D01*
X126576453Y-37783026D01*
X126468280Y-37521873D01*
X126311237Y-37286841D01*
X126111359Y-37086963D01*
X125876327Y-36929920D01*
X125615174Y-36821747D01*
X125337935Y-36766600D01*
X125055265Y-36766600D01*
X124778026Y-36821747D01*
X124516873Y-36929920D01*
X124281841Y-37086963D01*
X124081963Y-37286841D01*
X123924920Y-37521873D01*
X123816747Y-37783026D01*
X123761600Y-38060265D01*
X123761600Y-38342935D01*
X123816747Y-38620174D01*
X123837001Y-38669071D01*
X123837000Y-40937738D01*
X123745989Y-41157457D01*
X123687000Y-41454016D01*
X123687000Y-41756384D01*
X123745989Y-42052943D01*
X123861701Y-42332295D01*
X124029688Y-42583705D01*
X124053783Y-42607800D01*
X120944286Y-42607800D01*
X120212889Y-41876404D01*
X120159325Y-41607119D01*
X120028537Y-41291369D01*
X119838663Y-41007202D01*
X119596998Y-40765537D01*
X119312831Y-40575663D01*
X118997081Y-40444875D01*
X118661883Y-40378200D01*
X118320117Y-40378200D01*
X117984919Y-40444875D01*
X117669169Y-40575663D01*
X117385002Y-40765537D01*
X117143337Y-41007202D01*
X116953463Y-41291369D01*
X116822675Y-41607119D01*
X116756000Y-41942317D01*
X116756000Y-42284083D01*
X116822675Y-42619281D01*
X116877401Y-42751401D01*
X116877400Y-44634006D01*
X116874328Y-44665200D01*
X116874328Y-46165200D01*
X116886588Y-46289682D01*
X116922898Y-46409380D01*
X116981863Y-46519694D01*
X117023312Y-46570200D01*
X114670486Y-46570200D01*
X113880624Y-45780339D01*
X113738237Y-45567241D01*
X113538359Y-45367363D01*
X113303327Y-45210320D01*
X113042174Y-45102147D01*
X112764935Y-45047000D01*
X112482265Y-45047000D01*
X112205026Y-45102147D01*
X111943873Y-45210320D01*
X111708841Y-45367363D01*
X111508963Y-45567241D01*
X111351920Y-45802273D01*
X111243747Y-46063426D01*
X111188600Y-46340665D01*
X111188600Y-46623335D01*
X111243747Y-46900574D01*
X111351920Y-47161727D01*
X111508963Y-47396759D01*
X111708841Y-47596637D01*
X111921939Y-47739024D01*
X113069350Y-48886436D01*
X113112719Y-48939281D01*
X113165564Y-48982650D01*
X113165566Y-48982652D01*
X113224477Y-49030999D01*
X113323612Y-49112357D01*
X113564219Y-49240964D01*
X113825293Y-49320160D01*
X114028763Y-49340200D01*
X114028772Y-49340200D01*
X114096799Y-49346900D01*
X114164826Y-49340200D01*
X117539328Y-49340200D01*
X117485012Y-49538207D01*
X118262400Y-50315595D01*
X119039788Y-49538207D01*
X118974263Y-49299340D01*
X118820640Y-49227249D01*
X118855277Y-49208735D01*
X118918443Y-49182571D01*
X118975290Y-49144587D01*
X119035588Y-49112357D01*
X119088440Y-49068983D01*
X119145286Y-49030999D01*
X119193633Y-48982652D01*
X119246481Y-48939281D01*
X119289854Y-48886431D01*
X119338199Y-48838086D01*
X119376183Y-48781240D01*
X119419557Y-48728388D01*
X119451787Y-48668090D01*
X119489771Y-48611243D01*
X119515935Y-48548077D01*
X119548164Y-48487781D01*
X119568011Y-48422355D01*
X119594175Y-48359189D01*
X119607514Y-48292132D01*
X119627360Y-48226707D01*
X119634061Y-48158670D01*
X119647400Y-48091611D01*
X119647400Y-48023237D01*
X119654101Y-47955200D01*
X119647400Y-47887163D01*
X119647400Y-47818789D01*
X119634061Y-47751730D01*
X119627360Y-47683693D01*
X119607514Y-47618268D01*
X119594175Y-47551211D01*
X119568011Y-47488045D01*
X119548164Y-47422619D01*
X119515935Y-47362323D01*
X119489771Y-47299157D01*
X119451787Y-47242310D01*
X119419557Y-47182012D01*
X119376183Y-47129160D01*
X119338199Y-47072314D01*
X119289854Y-47023969D01*
X119246481Y-46971119D01*
X119193631Y-46927746D01*
X119145286Y-46879401D01*
X119088440Y-46841417D01*
X119038792Y-46800673D01*
X119136882Y-46791012D01*
X119256580Y-46754702D01*
X119366894Y-46695737D01*
X119463585Y-46616385D01*
X119542937Y-46519694D01*
X119601902Y-46409380D01*
X119638212Y-46289682D01*
X119650472Y-46165200D01*
X119650472Y-45178318D01*
X119838019Y-45278564D01*
X120099093Y-45357760D01*
X120302563Y-45377800D01*
X120302571Y-45377800D01*
X120370600Y-45384500D01*
X120438629Y-45377800D01*
X123779760Y-45377800D01*
X123791463Y-45399694D01*
X123870815Y-45496385D01*
X123967506Y-45575737D01*
X124077820Y-45634702D01*
X124197518Y-45671012D01*
X124322000Y-45683272D01*
X126122000Y-45683272D01*
X126246482Y-45671012D01*
X126366180Y-45634702D01*
X126476494Y-45575737D01*
X126531981Y-45530200D01*
X129552393Y-45530200D01*
X129517960Y-51447000D01*
X127956232Y-51447000D01*
X127723374Y-51350547D01*
X127446135Y-51295400D01*
X127163465Y-51295400D01*
X126912101Y-51345400D01*
X123100257Y-51345400D01*
X123095094Y-51341163D01*
X122984780Y-51282198D01*
X122865082Y-51245888D01*
X122740600Y-51233628D01*
X120540600Y-51233628D01*
X120416118Y-51245888D01*
X120296420Y-51282198D01*
X120186106Y-51341163D01*
X120089415Y-51420515D01*
X120010063Y-51517206D01*
X119951098Y-51627520D01*
X119914788Y-51747218D01*
X119902528Y-51871700D01*
X119902528Y-54071700D01*
X119914788Y-54196182D01*
X119951098Y-54315880D01*
X120010063Y-54426194D01*
X120089415Y-54522885D01*
X120186106Y-54602237D01*
X120296420Y-54661202D01*
X120416118Y-54697512D01*
X120540600Y-54709772D01*
X122740600Y-54709772D01*
X122865082Y-54697512D01*
X122984780Y-54661202D01*
X123095094Y-54602237D01*
X123191785Y-54522885D01*
X123271137Y-54426194D01*
X123330102Y-54315880D01*
X123366412Y-54196182D01*
X123374368Y-54115400D01*
X126869396Y-54115400D01*
X126873819Y-54117764D01*
X127134893Y-54196960D01*
X127338363Y-54217000D01*
X127338373Y-54217000D01*
X127406399Y-54223700D01*
X127474426Y-54217000D01*
X129501840Y-54217000D01*
X129487913Y-56610160D01*
X129478255Y-56642000D01*
X129445040Y-56751494D01*
X129425000Y-56954964D01*
X129425000Y-56954971D01*
X129418300Y-57023000D01*
X129425000Y-57091029D01*
X129425001Y-62822361D01*
X129418300Y-62890400D01*
X129445040Y-63161907D01*
X129449696Y-63177254D01*
X129439142Y-64990800D01*
X128515686Y-64990800D01*
X128499780Y-64982298D01*
X128481473Y-64976744D01*
X128547912Y-64910305D01*
X128715899Y-64658895D01*
X128831611Y-64379543D01*
X128890600Y-64082984D01*
X128890600Y-63780616D01*
X128831611Y-63484057D01*
X128740600Y-63264338D01*
X128740600Y-60469228D01*
X128747300Y-60401199D01*
X128740600Y-60333170D01*
X128740600Y-60333163D01*
X128739800Y-60325040D01*
X128739800Y-60209065D01*
X128684653Y-59931826D01*
X128576480Y-59670673D01*
X128419437Y-59435641D01*
X128219559Y-59235763D01*
X127984527Y-59078720D01*
X127723374Y-58970547D01*
X127446135Y-58915400D01*
X127163465Y-58915400D01*
X126886226Y-58970547D01*
X126625073Y-59078720D01*
X126390041Y-59235763D01*
X126190163Y-59435641D01*
X126033120Y-59670673D01*
X125924947Y-59931826D01*
X125869800Y-60209065D01*
X125869800Y-60491735D01*
X125924947Y-60768974D01*
X125970601Y-60879192D01*
X125970600Y-63264338D01*
X125879589Y-63484057D01*
X125820600Y-63780616D01*
X125820600Y-64082984D01*
X125879589Y-64379543D01*
X125995301Y-64658895D01*
X126163288Y-64910305D01*
X126229727Y-64976744D01*
X126211420Y-64982298D01*
X126101106Y-65041263D01*
X126045619Y-65086800D01*
X122009600Y-65086800D01*
X122009600Y-64827292D01*
X122146681Y-64800025D01*
X122462431Y-64669237D01*
X122746598Y-64479363D01*
X122988263Y-64237698D01*
X123178137Y-63953531D01*
X123308925Y-63637781D01*
X123375600Y-63302583D01*
X123375600Y-62960817D01*
X123308925Y-62625619D01*
X123178137Y-62309869D01*
X122988263Y-62025702D01*
X122746598Y-61784037D01*
X122462431Y-61594163D01*
X122146681Y-61463375D01*
X121811483Y-61396700D01*
X121469717Y-61396700D01*
X121134519Y-61463375D01*
X120818769Y-61594163D01*
X120534602Y-61784037D01*
X120292937Y-62025702D01*
X120103063Y-62309869D01*
X119972275Y-62625619D01*
X119918711Y-62894904D01*
X119693364Y-63120250D01*
X119640519Y-63163620D01*
X119467443Y-63374513D01*
X119338837Y-63615119D01*
X119338836Y-63615120D01*
X119260160Y-63874481D01*
X119259640Y-63876194D01*
X119239600Y-64079664D01*
X119239600Y-64079671D01*
X119232900Y-64147700D01*
X119239600Y-64215730D01*
X119239601Y-65284202D01*
X119236528Y-65315400D01*
X119236528Y-66028563D01*
X119232900Y-66065400D01*
X119236528Y-66102237D01*
X119236528Y-66815400D01*
X119248788Y-66939882D01*
X119285098Y-67059580D01*
X119344063Y-67169894D01*
X119385512Y-67220400D01*
X117464486Y-67220400D01*
X116827024Y-66582939D01*
X116684637Y-66369841D01*
X116484759Y-66169963D01*
X116249727Y-66012920D01*
X115988574Y-65904747D01*
X115711335Y-65849600D01*
X115428665Y-65849600D01*
X115151426Y-65904747D01*
X114890273Y-66012920D01*
X114655241Y-66169963D01*
X114455363Y-66369841D01*
X114298320Y-66604873D01*
X114190147Y-66866026D01*
X114135000Y-67143265D01*
X114135000Y-67425935D01*
X114190147Y-67703174D01*
X114298320Y-67964327D01*
X114455363Y-68199359D01*
X114655241Y-68399237D01*
X114868339Y-68541624D01*
X115863350Y-69536636D01*
X115906719Y-69589481D01*
X115959564Y-69632850D01*
X115959566Y-69632852D01*
X116070740Y-69724090D01*
X116117612Y-69762557D01*
X116358219Y-69891164D01*
X116619293Y-69970360D01*
X116822763Y-69990400D01*
X116822772Y-69990400D01*
X116890799Y-69997100D01*
X116958826Y-69990400D01*
X119901528Y-69990400D01*
X119847212Y-70188407D01*
X120624600Y-70965795D01*
X121401988Y-70188407D01*
X121336463Y-69949540D01*
X121182840Y-69877449D01*
X121217477Y-69858935D01*
X121280643Y-69832771D01*
X121337490Y-69794787D01*
X121397788Y-69762557D01*
X121450640Y-69719183D01*
X121507486Y-69681199D01*
X121555833Y-69632852D01*
X121608681Y-69589481D01*
X121652054Y-69536631D01*
X121700399Y-69488286D01*
X121738383Y-69431440D01*
X121781757Y-69378588D01*
X121813987Y-69318290D01*
X121851971Y-69261443D01*
X121878135Y-69198277D01*
X121910364Y-69137981D01*
X121930211Y-69072555D01*
X121956375Y-69009389D01*
X121969714Y-68942332D01*
X121989560Y-68876907D01*
X121996261Y-68808870D01*
X122009600Y-68741811D01*
X122009600Y-68673437D01*
X122016301Y-68605400D01*
X122009600Y-68537363D01*
X122009600Y-68468989D01*
X121996261Y-68401930D01*
X121989560Y-68333893D01*
X121969714Y-68268468D01*
X121956375Y-68201411D01*
X121930211Y-68138245D01*
X121910364Y-68072819D01*
X121878135Y-68012523D01*
X121851971Y-67949357D01*
X121813987Y-67892510D01*
X121794900Y-67856800D01*
X126045619Y-67856800D01*
X126101106Y-67902337D01*
X126211420Y-67961302D01*
X126331118Y-67997612D01*
X126455600Y-68009872D01*
X128255600Y-68009872D01*
X128380082Y-67997612D01*
X128499780Y-67961302D01*
X128610094Y-67902337D01*
X128706785Y-67822985D01*
X128757819Y-67760800D01*
X129423022Y-67760800D01*
X129390123Y-73413852D01*
X129384637Y-73405641D01*
X129184759Y-73205763D01*
X128949727Y-73048720D01*
X128688574Y-72940547D01*
X128411335Y-72885400D01*
X128128665Y-72885400D01*
X127877301Y-72935400D01*
X124386906Y-72935400D01*
X124363337Y-72891306D01*
X124283985Y-72794615D01*
X124187294Y-72715263D01*
X124076980Y-72656298D01*
X123957282Y-72619988D01*
X123832800Y-72607728D01*
X121632800Y-72607728D01*
X121508318Y-72619988D01*
X121388620Y-72656298D01*
X121278306Y-72715263D01*
X121181615Y-72794615D01*
X121102263Y-72891306D01*
X121043298Y-73001620D01*
X121006988Y-73121318D01*
X120994728Y-73245800D01*
X120994728Y-75445800D01*
X121006988Y-75570282D01*
X121043298Y-75689980D01*
X121102263Y-75800294D01*
X121181615Y-75896985D01*
X121278306Y-75976337D01*
X121388620Y-76035302D01*
X121508318Y-76071612D01*
X121632800Y-76083872D01*
X123832800Y-76083872D01*
X123957282Y-76071612D01*
X124076980Y-76035302D01*
X124187294Y-75976337D01*
X124283985Y-75896985D01*
X124363337Y-75800294D01*
X124414060Y-75705400D01*
X127696315Y-75705400D01*
X128684746Y-76693831D01*
X128728119Y-76746681D01*
X128939012Y-76919757D01*
X129179619Y-77048364D01*
X129368639Y-77105703D01*
X129346051Y-80987055D01*
X129184759Y-80825763D01*
X128949727Y-80668720D01*
X128688574Y-80560547D01*
X128411335Y-80505400D01*
X128128665Y-80505400D01*
X127851426Y-80560547D01*
X127590273Y-80668720D01*
X127355241Y-80825763D01*
X127155363Y-81025641D01*
X126998320Y-81260673D01*
X126890147Y-81521826D01*
X126877918Y-81583307D01*
X126828840Y-81745093D01*
X126802100Y-82016600D01*
X126808801Y-82084639D01*
X126808800Y-85108338D01*
X126717789Y-85328057D01*
X126658800Y-85624616D01*
X126658800Y-85926984D01*
X126717789Y-86223543D01*
X126833501Y-86502895D01*
X127001488Y-86754305D01*
X127067927Y-86820744D01*
X127049620Y-86826298D01*
X126939306Y-86885263D01*
X126883819Y-86930800D01*
X125287685Y-86930800D01*
X125030254Y-86673369D01*
X124986881Y-86620519D01*
X124775988Y-86447443D01*
X124535381Y-86318836D01*
X124274307Y-86239640D01*
X124070837Y-86219600D01*
X124070829Y-86219600D01*
X124002800Y-86212900D01*
X123934771Y-86219600D01*
X123254200Y-86219600D01*
X123254200Y-86167780D01*
X123554631Y-86043337D01*
X123838798Y-85853463D01*
X124080463Y-85611798D01*
X124270337Y-85327631D01*
X124401125Y-85011881D01*
X124467800Y-84676683D01*
X124467800Y-84334917D01*
X124401125Y-83999719D01*
X124270337Y-83683969D01*
X124080463Y-83399802D01*
X123838798Y-83158137D01*
X123554631Y-82968263D01*
X123238881Y-82837475D01*
X122903683Y-82770800D01*
X122561917Y-82770800D01*
X122226719Y-82837475D01*
X121910969Y-82968263D01*
X121626802Y-83158137D01*
X121385137Y-83399802D01*
X121195263Y-83683969D01*
X121064475Y-83999719D01*
X121010911Y-84269004D01*
X120937965Y-84341950D01*
X120885120Y-84385319D01*
X120841751Y-84438164D01*
X120841748Y-84438167D01*
X120712044Y-84596212D01*
X120583436Y-84836820D01*
X120504240Y-85097893D01*
X120477500Y-85369400D01*
X120484201Y-85437439D01*
X120484200Y-86823405D01*
X120481128Y-86854600D01*
X120481128Y-87567754D01*
X120477499Y-87604600D01*
X120481128Y-87641446D01*
X120481128Y-88354600D01*
X120493388Y-88479082D01*
X120529698Y-88598780D01*
X120588299Y-88708413D01*
X119418800Y-87538915D01*
X119418800Y-83577699D01*
X119468800Y-83326335D01*
X119468800Y-83043665D01*
X119413653Y-82766426D01*
X119305480Y-82505273D01*
X119148437Y-82270241D01*
X118948559Y-82070363D01*
X118713527Y-81913320D01*
X118452374Y-81805147D01*
X118175135Y-81750000D01*
X117892465Y-81750000D01*
X117615226Y-81805147D01*
X117354073Y-81913320D01*
X117119041Y-82070363D01*
X116919163Y-82270241D01*
X116762120Y-82505273D01*
X116653947Y-82766426D01*
X116598800Y-83043665D01*
X116598800Y-83326335D01*
X116648801Y-83577703D01*
X116648800Y-88044571D01*
X116642100Y-88112600D01*
X116648800Y-88180629D01*
X116648800Y-88180636D01*
X116663965Y-88334605D01*
X116668840Y-88384107D01*
X116714852Y-88535787D01*
X116748036Y-88645180D01*
X116863754Y-88861672D01*
X116876644Y-88885788D01*
X116964362Y-88992672D01*
X117049719Y-89096680D01*
X117102565Y-89140050D01*
X119038350Y-91075836D01*
X119081719Y-91128681D01*
X119134564Y-91172050D01*
X119134566Y-91172052D01*
X119182512Y-91211400D01*
X119292612Y-91301757D01*
X119529401Y-91428323D01*
X119533219Y-91430364D01*
X119794292Y-91509560D01*
X119817692Y-91511865D01*
X119997763Y-91529600D01*
X119997771Y-91529600D01*
X120065800Y-91536300D01*
X120133829Y-91529600D01*
X121146128Y-91529600D01*
X121091812Y-91727607D01*
X121869200Y-92504995D01*
X122646588Y-91727607D01*
X122581063Y-91488740D01*
X122427440Y-91416649D01*
X122462077Y-91398135D01*
X122525243Y-91371971D01*
X122582090Y-91333987D01*
X122642388Y-91301757D01*
X122695240Y-91258383D01*
X122752086Y-91220399D01*
X122800433Y-91172052D01*
X122853281Y-91128681D01*
X122896654Y-91075831D01*
X122944999Y-91027486D01*
X122982983Y-90970640D01*
X123026357Y-90917788D01*
X123058587Y-90857490D01*
X123096571Y-90800643D01*
X123122735Y-90737477D01*
X123154964Y-90677181D01*
X123174811Y-90611755D01*
X123200975Y-90548589D01*
X123214314Y-90481532D01*
X123234160Y-90416107D01*
X123240861Y-90348070D01*
X123254200Y-90281011D01*
X123254200Y-90212637D01*
X123260901Y-90144600D01*
X123254200Y-90076563D01*
X123254200Y-90008189D01*
X123240861Y-89941130D01*
X123234160Y-89873093D01*
X123214314Y-89807668D01*
X123200975Y-89740611D01*
X123174811Y-89677445D01*
X123154964Y-89612019D01*
X123122735Y-89551723D01*
X123096571Y-89488557D01*
X123058587Y-89431710D01*
X123026357Y-89371412D01*
X122982983Y-89318560D01*
X122944999Y-89261714D01*
X122896654Y-89213369D01*
X122853281Y-89160519D01*
X122800431Y-89117146D01*
X122752086Y-89068801D01*
X122695240Y-89030817D01*
X122645592Y-88990073D01*
X122650392Y-88989600D01*
X123429115Y-88989600D01*
X123686546Y-89247031D01*
X123729919Y-89299881D01*
X123940812Y-89472957D01*
X124181419Y-89601564D01*
X124442493Y-89680760D01*
X124645963Y-89700800D01*
X124645971Y-89700800D01*
X124714000Y-89707500D01*
X124782029Y-89700800D01*
X126883819Y-89700800D01*
X126939306Y-89746337D01*
X127049620Y-89805302D01*
X127169318Y-89841612D01*
X127293800Y-89853872D01*
X129093800Y-89853872D01*
X129218282Y-89841612D01*
X129294657Y-89818444D01*
X129270221Y-94017400D01*
X122572226Y-94017400D01*
X122504199Y-94010700D01*
X122436173Y-94017400D01*
X122436163Y-94017400D01*
X122232693Y-94037440D01*
X121971619Y-94116636D01*
X121872156Y-94169800D01*
X114850626Y-94169800D01*
X114782599Y-94163100D01*
X114714572Y-94169800D01*
X114714563Y-94169800D01*
X114511093Y-94189840D01*
X114401357Y-94223128D01*
X113276200Y-94223128D01*
X113151718Y-94235388D01*
X113032020Y-94271698D01*
X112921706Y-94330663D01*
X112825015Y-94410015D01*
X112745663Y-94506706D01*
X112686698Y-94617020D01*
X112650388Y-94736718D01*
X112638128Y-94861200D01*
X112638128Y-97061200D01*
X112650388Y-97185682D01*
X112686698Y-97305380D01*
X112745663Y-97415694D01*
X112825015Y-97512385D01*
X112921706Y-97591737D01*
X113032020Y-97650702D01*
X113151718Y-97687012D01*
X113276200Y-97699272D01*
X115476200Y-97699272D01*
X115600682Y-97687012D01*
X115720380Y-97650702D01*
X115830694Y-97591737D01*
X115927385Y-97512385D01*
X116006737Y-97415694D01*
X116065702Y-97305380D01*
X116102012Y-97185682D01*
X116114272Y-97061200D01*
X116114272Y-96939800D01*
X121959101Y-96939800D01*
X122210465Y-96989800D01*
X122493135Y-96989800D01*
X122770374Y-96934653D01*
X123031527Y-96826480D01*
X123090014Y-96787400D01*
X129254101Y-96787400D01*
X129191730Y-107504800D01*
X123610981Y-107504800D01*
X123555494Y-107459263D01*
X123445180Y-107400298D01*
X123426873Y-107394744D01*
X123493312Y-107328305D01*
X123661299Y-107076895D01*
X123777011Y-106797543D01*
X123836000Y-106500984D01*
X123836000Y-106198616D01*
X123777011Y-105902057D01*
X123736800Y-105804980D01*
X123736800Y-103567499D01*
X123786800Y-103316135D01*
X123786800Y-103033465D01*
X123731653Y-102756226D01*
X123623480Y-102495073D01*
X123466437Y-102260041D01*
X123266559Y-102060163D01*
X123031527Y-101903120D01*
X122770374Y-101794947D01*
X122493135Y-101739800D01*
X122210465Y-101739800D01*
X121933226Y-101794947D01*
X121672073Y-101903120D01*
X121437041Y-102060163D01*
X121237163Y-102260041D01*
X121080120Y-102495073D01*
X120971947Y-102756226D01*
X120916800Y-103033465D01*
X120916800Y-103316135D01*
X120966800Y-103567499D01*
X120966801Y-105583644D01*
X120940701Y-105622705D01*
X120824989Y-105902057D01*
X120766000Y-106198616D01*
X120766000Y-106500984D01*
X120824989Y-106797543D01*
X120940701Y-107076895D01*
X121108688Y-107328305D01*
X121175127Y-107394744D01*
X121156820Y-107400298D01*
X121046506Y-107459263D01*
X120991019Y-107504800D01*
X120360086Y-107504800D01*
X118045254Y-105189969D01*
X118001881Y-105137119D01*
X117790988Y-104964043D01*
X117550381Y-104835436D01*
X117289307Y-104756240D01*
X117085837Y-104736200D01*
X117085829Y-104736200D01*
X117017800Y-104729500D01*
X116949771Y-104736200D01*
X115426319Y-104736200D01*
X115198031Y-104583663D01*
X114882281Y-104452875D01*
X114547083Y-104386200D01*
X114205317Y-104386200D01*
X113870119Y-104452875D01*
X113554369Y-104583663D01*
X113270202Y-104773537D01*
X113028537Y-105015202D01*
X112838663Y-105299369D01*
X112707875Y-105615119D01*
X112641200Y-105950317D01*
X112641200Y-106292083D01*
X112707875Y-106627281D01*
X112788001Y-106820722D01*
X112788000Y-108921406D01*
X112784928Y-108952600D01*
X112784928Y-110452600D01*
X112797188Y-110577082D01*
X112833498Y-110696780D01*
X112892463Y-110807094D01*
X112933912Y-110857600D01*
X110403286Y-110857600D01*
X110097000Y-110551315D01*
X110097000Y-109485699D01*
X110147000Y-109234335D01*
X110147000Y-108951665D01*
X110091853Y-108674426D01*
X109983680Y-108413273D01*
X109826637Y-108178241D01*
X109626759Y-107978363D01*
X109391727Y-107821320D01*
X109130574Y-107713147D01*
X108853335Y-107658000D01*
X108570665Y-107658000D01*
X108293426Y-107713147D01*
X108032273Y-107821320D01*
X107797241Y-107978363D01*
X107597363Y-108178241D01*
X107440320Y-108413273D01*
X107332147Y-108674426D01*
X107277000Y-108951665D01*
X107277000Y-109234335D01*
X107327001Y-109485703D01*
X107327000Y-111056970D01*
X107320300Y-111125000D01*
X107327000Y-111193029D01*
X107327000Y-111193036D01*
X107343416Y-111359714D01*
X107347040Y-111396507D01*
X107369156Y-111469412D01*
X107426236Y-111657580D01*
X107554843Y-111898187D01*
X107727919Y-112109080D01*
X107780764Y-112152450D01*
X108802150Y-113173836D01*
X108845519Y-113226681D01*
X108898364Y-113270050D01*
X108898366Y-113270052D01*
X108957277Y-113318399D01*
X109056412Y-113399757D01*
X109297019Y-113528364D01*
X109558093Y-113607560D01*
X109761563Y-113627600D01*
X109761572Y-113627600D01*
X109829599Y-113634300D01*
X109897626Y-113627600D01*
X113449928Y-113627600D01*
X113395612Y-113825607D01*
X114173000Y-114602995D01*
X114950388Y-113825607D01*
X114884863Y-113586740D01*
X114731240Y-113514649D01*
X114765877Y-113496135D01*
X114829043Y-113469971D01*
X114885890Y-113431987D01*
X114946188Y-113399757D01*
X114999040Y-113356383D01*
X115055886Y-113318399D01*
X115104233Y-113270052D01*
X115157081Y-113226681D01*
X115200454Y-113173831D01*
X115248799Y-113125486D01*
X115286783Y-113068640D01*
X115330157Y-113015788D01*
X115362387Y-112955490D01*
X115400371Y-112898643D01*
X115426535Y-112835477D01*
X115458764Y-112775181D01*
X115478611Y-112709755D01*
X115504775Y-112646589D01*
X115518114Y-112579532D01*
X115537960Y-112514107D01*
X115544661Y-112446070D01*
X115558000Y-112379011D01*
X115558000Y-112310637D01*
X115564701Y-112242600D01*
X115558000Y-112174563D01*
X115558000Y-112106189D01*
X115544661Y-112039130D01*
X115537960Y-111971093D01*
X115518114Y-111905668D01*
X115504775Y-111838611D01*
X115478611Y-111775445D01*
X115458764Y-111710019D01*
X115426535Y-111649723D01*
X115400371Y-111586557D01*
X115362387Y-111529710D01*
X115330157Y-111469412D01*
X115286783Y-111416560D01*
X115248799Y-111359714D01*
X115200454Y-111311369D01*
X115157081Y-111258519D01*
X115104231Y-111215146D01*
X115055886Y-111166801D01*
X114999040Y-111128817D01*
X114949392Y-111088073D01*
X115047482Y-111078412D01*
X115167180Y-111042102D01*
X115277494Y-110983137D01*
X115374185Y-110903785D01*
X115453537Y-110807094D01*
X115512502Y-110696780D01*
X115548812Y-110577082D01*
X115561072Y-110452600D01*
X115561072Y-108952600D01*
X115558000Y-108921408D01*
X115558000Y-107506200D01*
X116444115Y-107506200D01*
X118758950Y-109821036D01*
X118802319Y-109873881D01*
X118855164Y-109917250D01*
X118855166Y-109917252D01*
X119013211Y-110046956D01*
X119013212Y-110046957D01*
X119253819Y-110175564D01*
X119514893Y-110254760D01*
X119718363Y-110274800D01*
X119718371Y-110274800D01*
X119786400Y-110281500D01*
X119854429Y-110274800D01*
X120991019Y-110274800D01*
X121046506Y-110320337D01*
X121156820Y-110379302D01*
X121276518Y-110415612D01*
X121401000Y-110427872D01*
X123201000Y-110427872D01*
X123325482Y-110415612D01*
X123445180Y-110379302D01*
X123555494Y-110320337D01*
X123610981Y-110274800D01*
X129175610Y-110274800D01*
X129133602Y-117493311D01*
X129135542Y-117516175D01*
X129142261Y-117540147D01*
X129152823Y-117560958D01*
X50546000Y-117627293D01*
X50546000Y-115739593D01*
X113395612Y-115739593D01*
X113461137Y-115978460D01*
X113708116Y-116094360D01*
X113972960Y-116159850D01*
X114245492Y-116172412D01*
X114515238Y-116131565D01*
X114771832Y-116038877D01*
X114884863Y-115978460D01*
X114950388Y-115739593D01*
X114173000Y-114962205D01*
X113395612Y-115739593D01*
X50546000Y-115739593D01*
X50546000Y-114855092D01*
X112783188Y-114855092D01*
X112824035Y-115124838D01*
X112916723Y-115381432D01*
X112977140Y-115494463D01*
X113216007Y-115559988D01*
X113993395Y-114782600D01*
X114352605Y-114782600D01*
X115129993Y-115559988D01*
X115368860Y-115494463D01*
X115484760Y-115247484D01*
X115550250Y-114982640D01*
X115562812Y-114710108D01*
X115521965Y-114440362D01*
X115429277Y-114183768D01*
X115368860Y-114070737D01*
X115129993Y-114005212D01*
X114352605Y-114782600D01*
X113993395Y-114782600D01*
X113216007Y-114005212D01*
X112977140Y-114070737D01*
X112861240Y-114317716D01*
X112795750Y-114582560D01*
X112783188Y-114855092D01*
X50546000Y-114855092D01*
X50546000Y-108566600D01*
X63321728Y-108566600D01*
X63333988Y-108691082D01*
X63370298Y-108810780D01*
X63429263Y-108921094D01*
X63508615Y-109017785D01*
X63605306Y-109097137D01*
X63715620Y-109156102D01*
X63835318Y-109192412D01*
X63959800Y-109204672D01*
X65424050Y-109201600D01*
X65582800Y-109042850D01*
X65582800Y-107193600D01*
X65836800Y-107193600D01*
X65836800Y-109042850D01*
X65995550Y-109201600D01*
X67459800Y-109204672D01*
X67584282Y-109192412D01*
X67703980Y-109156102D01*
X67814294Y-109097137D01*
X67910985Y-109017785D01*
X67990337Y-108921094D01*
X68049302Y-108810780D01*
X68085612Y-108691082D01*
X68097872Y-108566600D01*
X68094800Y-107352350D01*
X67936050Y-107193600D01*
X65836800Y-107193600D01*
X65582800Y-107193600D01*
X63483550Y-107193600D01*
X63324800Y-107352350D01*
X63321728Y-108566600D01*
X50546000Y-108566600D01*
X50546000Y-105566600D01*
X63321728Y-105566600D01*
X63324800Y-106780850D01*
X63483550Y-106939600D01*
X65582800Y-106939600D01*
X65582800Y-105090350D01*
X65836800Y-105090350D01*
X65836800Y-106939600D01*
X67936050Y-106939600D01*
X68094800Y-106780850D01*
X68097872Y-105566600D01*
X68085612Y-105442118D01*
X68049302Y-105322420D01*
X67990337Y-105212106D01*
X67910985Y-105115415D01*
X67814294Y-105036063D01*
X67703980Y-104977098D01*
X67584282Y-104940788D01*
X67459800Y-104928528D01*
X65995550Y-104931600D01*
X65836800Y-105090350D01*
X65582800Y-105090350D01*
X65424050Y-104931600D01*
X63959800Y-104928528D01*
X63835318Y-104940788D01*
X63715620Y-104977098D01*
X63605306Y-105036063D01*
X63508615Y-105115415D01*
X63429263Y-105212106D01*
X63370298Y-105322420D01*
X63333988Y-105442118D01*
X63321728Y-105566600D01*
X50546000Y-105566600D01*
X50546000Y-20332740D01*
X74426737Y-20340297D01*
G37*
%TD.AperFunction*%
%TD*%
M02*
