M48
; DRILL file {KiCad (5.1.12)-1} date 03/25/22 13:56:56
; FORMAT={-:-/ absolute / inch / decimal}
; #@! TF.CreationDate,2022-03-25T13:56:56+05:30
; #@! TF.GenerationSoftware,Kicad,Pcbnew,(5.1.12)-1
; #@! TF.FileFunction,Plated,1,2,PTH
FMAT,2
INCH
T1C0.0300
T2C0.0315
T3C0.0354
T4C0.0394
T5C0.0433
T6C0.0512
%
G90
G05
T1
X3.008Y-2.029
X3.008Y-2.129
X3.008Y-2.229
X3.008Y-2.329
X3.008Y-2.429
X3.008Y-2.529
X3.008Y-2.629
X3.008Y-2.729
X3.008Y-2.829
X3.008Y-2.929
X3.008Y-3.029
X3.008Y-3.129
X3.008Y-3.229
X3.008Y-3.329
X3.008Y-3.429
X4.108Y-2.029
X4.108Y-2.129
X4.108Y-2.229
X4.108Y-2.329
X4.108Y-2.429
X4.108Y-2.529
X4.108Y-2.629
X4.108Y-2.729
X4.108Y-2.829
X4.108Y-2.929
X4.108Y-3.029
X4.108Y-3.129
X4.108Y-3.229
X4.108Y-3.329
X4.108Y-3.429
T2
X2.375Y-3.665
X2.375Y-3.7634
X2.694Y-3.661
X2.694Y-3.7594
X2.742Y-2.906
X2.742Y-3.206
X3.089Y-1.496
X3.389Y-1.496
X3.669Y-1.186
X3.969Y-1.186
X4.121Y-1.16
X4.121Y-1.46
X4.28Y-3.995
X4.28Y-4.295
X4.434Y-1.53
X4.434Y-1.83
X4.495Y-4.319
X4.495Y-4.419
X4.495Y-4.519
X4.55Y-2.349
X4.55Y-2.649
X4.647Y-2.975
X4.647Y-3.275
X4.656Y-1.788
X4.656Y-1.888
X4.656Y-1.988
X4.749Y-2.601
X4.749Y-2.701
X4.749Y-2.801
X4.798Y-3.449
X4.798Y-3.549
X4.798Y-3.649
X4.817Y-3.762
X4.817Y-4.062
X4.929Y-1.204
X4.929Y-1.504
X5.012Y-2.076
X5.012Y-2.376
X5.05Y-2.926
X5.05Y-3.226
T3
X2.744Y-2.714
X2.844Y-2.714
X4.815Y-4.187
X4.815Y-4.287
X4.93Y-1.638
X4.93Y-1.738
X5.014Y-2.517
X5.014Y-2.617
X5.047Y-3.377
X5.047Y-3.477
T4
X2.583Y-2.654
X2.583Y-2.754
X2.583Y-2.854
X2.583Y-3.012
X2.583Y-3.112
X2.583Y-3.212
X2.713Y-1.935
X2.713Y-2.035
X2.713Y-2.135
X2.713Y-2.235
X3.536Y-1.199
X3.536Y-1.299
X3.536Y-1.399
X3.732Y-1.329
X3.832Y-1.329
X3.932Y-1.329
T5
X2.572Y-3.434
X2.672Y-3.434
X2.772Y-3.434
X3.1121Y-1.1808
X3.1121Y-1.358
X3.368Y-1.1808
X3.368Y-1.358
X4.2571Y-1.2408
X4.2571Y-1.418
X4.503Y-3.778
X4.503Y-4.178
X4.513Y-1.2408
X4.513Y-1.418
X4.665Y-1.258
X4.665Y-1.658
X4.789Y-2.0855
X4.789Y-2.4855
X4.832Y-2.927
X4.832Y-3.327
T6
X5.192Y-4.048
X5.254Y-1.5
X5.2707Y-3.8118
X5.2707Y-4.2842
X5.281Y-2.377
X5.315Y-3.219
X5.3327Y-1.2638
X5.3327Y-1.7362
X5.3597Y-2.1408
X5.3597Y-2.6132
X5.3937Y-2.9828
X5.3937Y-3.4552
X5.7511Y-3.8118
X5.7511Y-4.2842
X5.8131Y-1.2638
X5.8131Y-1.7362
X5.8401Y-2.1408
X5.8401Y-2.6132
X5.8741Y-2.9828
X5.8741Y-3.4552
X6.375Y-2.1813
X6.375Y-2.3781
X6.375Y-2.575
X6.381Y-1.2983
X6.381Y-1.4951
X6.381Y-1.692
X6.392Y-3.0083
X6.392Y-3.2051
X6.392Y-3.402
X6.397Y-3.7803
X6.397Y-3.9771
X6.397Y-4.174
T4
G00X2.5476Y-3.979
M15
G01X2.6264Y-3.979
M16
G05
G00X2.5476Y-4.2152
M15
G01X2.6264Y-4.2152
M16
G05
G00X2.772Y-4.1365
M15
G01X2.772Y-4.0577
M16
G05
T0
M30
